G04 #@! TF.GenerationSoftware,KiCad,Pcbnew,(5.1.2)-2*
G04 #@! TF.CreationDate,2019-12-19T20:32:34-08:00*
G04 #@! TF.ProjectId,panel,70616e65-6c2e-46b6-9963-61645f706362,rev?*
G04 #@! TF.SameCoordinates,Original*
G04 #@! TF.FileFunction,Copper,L2,Bot*
G04 #@! TF.FilePolarity,Positive*
%FSLAX46Y46*%
G04 Gerber Fmt 4.6, Leading zero omitted, Abs format (unit mm)*
G04 Created by KiCad (PCBNEW (5.1.2)-2) date 2019-12-19 20:32:34*
%MOMM*%
%LPD*%
G04 APERTURE LIST*
%ADD10C,0.250000*%
%ADD11C,0.300000*%
%ADD12C,0.100000*%
%ADD13C,3.200000*%
%ADD14C,6.100000*%
%ADD15C,5.300000*%
%ADD16C,2.300000*%
G04 APERTURE END LIST*
D10*
X159685706Y-83025000D02*
X159114277Y-83025000D01*
X159799992Y-83367857D02*
X159399992Y-82167857D01*
X158999992Y-83367857D01*
X158428563Y-83367857D02*
X158542849Y-83310714D01*
X158599992Y-83196428D01*
X158599992Y-82167857D01*
X157514277Y-83310714D02*
X157628563Y-83367857D01*
X157857134Y-83367857D01*
X157971420Y-83310714D01*
X158028563Y-83196428D01*
X158028563Y-82739285D01*
X157971420Y-82625000D01*
X157857134Y-82567857D01*
X157628563Y-82567857D01*
X157514277Y-82625000D01*
X157457134Y-82739285D01*
X157457134Y-82853571D01*
X158028563Y-82967857D01*
X157114277Y-82567857D02*
X156657134Y-82567857D01*
X156942849Y-82167857D02*
X156942849Y-83196428D01*
X156885706Y-83310714D01*
X156771420Y-83367857D01*
X156657134Y-83367857D01*
X156257134Y-83367857D02*
X156257134Y-82167857D01*
X155742849Y-83367857D02*
X155742849Y-82739285D01*
X155799992Y-82625000D01*
X155914277Y-82567857D01*
X156085706Y-82567857D01*
X156199992Y-82625000D01*
X156257134Y-82682142D01*
X154714277Y-83310714D02*
X154828563Y-83367857D01*
X155057134Y-83367857D01*
X155171420Y-83310714D01*
X155228563Y-83196428D01*
X155228563Y-82739285D01*
X155171420Y-82625000D01*
X155057134Y-82567857D01*
X154828563Y-82567857D01*
X154714277Y-82625000D01*
X154657134Y-82739285D01*
X154657134Y-82853571D01*
X155228563Y-82967857D01*
X153628563Y-83367857D02*
X153628563Y-82739285D01*
X153685706Y-82625000D01*
X153799992Y-82567857D01*
X154028563Y-82567857D01*
X154142849Y-82625000D01*
X153628563Y-83310714D02*
X153742849Y-83367857D01*
X154028563Y-83367857D01*
X154142849Y-83310714D01*
X154199992Y-83196428D01*
X154199992Y-83082142D01*
X154142849Y-82967857D01*
X154028563Y-82910714D01*
X153742849Y-82910714D01*
X153628563Y-82853571D01*
X151742849Y-82739285D02*
X152142849Y-82739285D01*
X152142849Y-83367857D02*
X152142849Y-82167857D01*
X151571420Y-82167857D01*
X150942849Y-83367857D02*
X151057134Y-83310714D01*
X151114277Y-83196428D01*
X151114277Y-82167857D01*
X150314277Y-83367857D02*
X150428563Y-83310714D01*
X150485706Y-83253571D01*
X150542849Y-83139285D01*
X150542849Y-82796428D01*
X150485706Y-82682142D01*
X150428563Y-82625000D01*
X150314277Y-82567857D01*
X150142849Y-82567857D01*
X150028563Y-82625000D01*
X149971420Y-82682142D01*
X149914277Y-82796428D01*
X149914277Y-83139285D01*
X149971420Y-83253571D01*
X150028563Y-83310714D01*
X150142849Y-83367857D01*
X150314277Y-83367857D01*
X149514277Y-82567857D02*
X149285706Y-83367857D01*
X149057134Y-82796428D01*
X148828563Y-83367857D01*
X148599992Y-82567857D01*
X147685706Y-83310714D02*
X147799992Y-83367857D01*
X148028563Y-83367857D01*
X148142849Y-83310714D01*
X148199992Y-83196428D01*
X148199992Y-82739285D01*
X148142849Y-82625000D01*
X148028563Y-82567857D01*
X147799992Y-82567857D01*
X147685706Y-82625000D01*
X147628563Y-82739285D01*
X147628563Y-82853571D01*
X148199992Y-82967857D01*
X147114277Y-83367857D02*
X147114277Y-82567857D01*
X147114277Y-82796428D02*
X147057134Y-82682142D01*
X146999992Y-82625000D01*
X146885706Y-82567857D01*
X146771420Y-82567857D01*
X146428563Y-83310714D02*
X146314277Y-83367857D01*
X146085706Y-83367857D01*
X145971420Y-83310714D01*
X145914277Y-83196428D01*
X145914277Y-83139285D01*
X145971420Y-83025000D01*
X146085706Y-82967857D01*
X146257134Y-82967857D01*
X146371420Y-82910714D01*
X146428563Y-82796428D01*
X146428563Y-82739285D01*
X146371420Y-82625000D01*
X146257134Y-82567857D01*
X146085706Y-82567857D01*
X145971420Y-82625000D01*
X158599992Y-85303571D02*
X158657134Y-85360714D01*
X158828563Y-85417857D01*
X158942849Y-85417857D01*
X159114277Y-85360714D01*
X159228563Y-85246428D01*
X159285706Y-85132142D01*
X159342849Y-84903571D01*
X159342849Y-84732142D01*
X159285706Y-84503571D01*
X159228563Y-84389285D01*
X159114277Y-84275000D01*
X158942849Y-84217857D01*
X158828563Y-84217857D01*
X158657134Y-84275000D01*
X158599992Y-84332142D01*
X157399992Y-85303571D02*
X157457134Y-85360714D01*
X157628563Y-85417857D01*
X157742849Y-85417857D01*
X157914277Y-85360714D01*
X158028563Y-85246428D01*
X158085706Y-85132142D01*
X158142849Y-84903571D01*
X158142849Y-84732142D01*
X158085706Y-84503571D01*
X158028563Y-84389285D01*
X157914277Y-84275000D01*
X157742849Y-84217857D01*
X157628563Y-84217857D01*
X157457134Y-84275000D01*
X157399992Y-84332142D01*
X156885706Y-84960714D02*
X155971420Y-84960714D01*
X154999992Y-84789285D02*
X154828563Y-84846428D01*
X154771420Y-84903571D01*
X154714277Y-85017857D01*
X154714277Y-85189285D01*
X154771420Y-85303571D01*
X154828563Y-85360714D01*
X154942849Y-85417857D01*
X155399992Y-85417857D01*
X155399992Y-84217857D01*
X154999992Y-84217857D01*
X154885706Y-84275000D01*
X154828563Y-84332142D01*
X154771420Y-84446428D01*
X154771420Y-84560714D01*
X154828563Y-84675000D01*
X154885706Y-84732142D01*
X154999992Y-84789285D01*
X155399992Y-84789285D01*
X153971420Y-84846428D02*
X153971420Y-85417857D01*
X154371420Y-84217857D02*
X153971420Y-84846428D01*
X153571420Y-84217857D01*
X153171420Y-84960714D02*
X152257134Y-84960714D01*
X151742849Y-85360714D02*
X151571420Y-85417857D01*
X151285706Y-85417857D01*
X151171420Y-85360714D01*
X151114277Y-85303571D01*
X151057134Y-85189285D01*
X151057134Y-85075000D01*
X151114277Y-84960714D01*
X151171420Y-84903571D01*
X151285706Y-84846428D01*
X151514277Y-84789285D01*
X151628563Y-84732142D01*
X151685706Y-84675000D01*
X151742849Y-84560714D01*
X151742849Y-84446428D01*
X151685706Y-84332142D01*
X151628563Y-84275000D01*
X151514277Y-84217857D01*
X151228563Y-84217857D01*
X151057134Y-84275000D01*
X150599992Y-85075000D02*
X150028563Y-85075000D01*
X150714277Y-85417857D02*
X150314277Y-84217857D01*
X149914277Y-85417857D01*
X148085706Y-84617857D02*
X148085706Y-85417857D01*
X148371420Y-84160714D02*
X148657134Y-85017857D01*
X147914277Y-85017857D01*
X147457134Y-85303571D02*
X147399992Y-85360714D01*
X147457134Y-85417857D01*
X147514277Y-85360714D01*
X147457134Y-85303571D01*
X147457134Y-85417857D01*
X146657134Y-84217857D02*
X146542849Y-84217857D01*
X146428563Y-84275000D01*
X146371420Y-84332142D01*
X146314277Y-84446428D01*
X146257134Y-84675000D01*
X146257134Y-84960714D01*
X146314277Y-85189285D01*
X146371420Y-85303571D01*
X146428563Y-85360714D01*
X146542849Y-85417857D01*
X146657134Y-85417857D01*
X146771420Y-85360714D01*
X146828563Y-85303571D01*
X146885706Y-85189285D01*
X146942849Y-84960714D01*
X146942849Y-84675000D01*
X146885706Y-84446428D01*
X146828563Y-84332142D01*
X146771420Y-84275000D01*
X146657134Y-84217857D01*
X157828563Y-86382142D02*
X157771420Y-86325000D01*
X157657134Y-86267857D01*
X157371420Y-86267857D01*
X157257134Y-86325000D01*
X157199992Y-86382142D01*
X157142849Y-86496428D01*
X157142849Y-86610714D01*
X157199992Y-86782142D01*
X157885706Y-87467857D01*
X157142849Y-87467857D01*
X156399992Y-86267857D02*
X156285706Y-86267857D01*
X156171420Y-86325000D01*
X156114277Y-86382142D01*
X156057134Y-86496428D01*
X155999992Y-86725000D01*
X155999992Y-87010714D01*
X156057134Y-87239285D01*
X156114277Y-87353571D01*
X156171420Y-87410714D01*
X156285706Y-87467857D01*
X156399992Y-87467857D01*
X156514277Y-87410714D01*
X156571420Y-87353571D01*
X156628563Y-87239285D01*
X156685706Y-87010714D01*
X156685706Y-86725000D01*
X156628563Y-86496428D01*
X156571420Y-86382142D01*
X156514277Y-86325000D01*
X156399992Y-86267857D01*
X154857134Y-87467857D02*
X155542849Y-87467857D01*
X155199992Y-87467857D02*
X155199992Y-86267857D01*
X155314277Y-86439285D01*
X155428563Y-86553571D01*
X155542849Y-86610714D01*
X154285706Y-87467857D02*
X154057134Y-87467857D01*
X153942849Y-87410714D01*
X153885706Y-87353571D01*
X153771420Y-87182142D01*
X153714277Y-86953571D01*
X153714277Y-86496428D01*
X153771420Y-86382142D01*
X153828563Y-86325000D01*
X153942849Y-86267857D01*
X154171420Y-86267857D01*
X154285706Y-86325000D01*
X154342849Y-86382142D01*
X154399992Y-86496428D01*
X154399992Y-86782142D01*
X154342849Y-86896428D01*
X154285706Y-86953571D01*
X154171420Y-87010714D01*
X153942849Y-87010714D01*
X153828563Y-86953571D01*
X153771420Y-86896428D01*
X153714277Y-86782142D01*
X152342849Y-86210714D02*
X153371420Y-87753571D01*
X151314277Y-87467857D02*
X151999992Y-87467857D01*
X151657134Y-87467857D02*
X151657134Y-86267857D01*
X151771420Y-86439285D01*
X151885706Y-86553571D01*
X151999992Y-86610714D01*
X150171420Y-87467857D02*
X150857134Y-87467857D01*
X150514277Y-87467857D02*
X150514277Y-86267857D01*
X150628563Y-86439285D01*
X150742849Y-86553571D01*
X150857134Y-86610714D01*
X148799992Y-86210714D02*
X149828563Y-87753571D01*
X148514277Y-86267857D02*
X147771420Y-86267857D01*
X148171420Y-86725000D01*
X147999992Y-86725000D01*
X147885706Y-86782142D01*
X147828563Y-86839285D01*
X147771420Y-86953571D01*
X147771420Y-87239285D01*
X147828563Y-87353571D01*
X147885706Y-87410714D01*
X147999992Y-87467857D01*
X148342849Y-87467857D01*
X148457134Y-87410714D01*
X148514277Y-87353571D01*
X157514277Y-88717857D02*
X157057134Y-88717857D01*
X157342849Y-88317857D02*
X157342849Y-89346428D01*
X157285706Y-89460714D01*
X157171420Y-89517857D01*
X157057134Y-89517857D01*
X156657134Y-89517857D02*
X156657134Y-88317857D01*
X156142849Y-89517857D02*
X156142849Y-88889285D01*
X156199992Y-88775000D01*
X156314277Y-88717857D01*
X156485706Y-88717857D01*
X156599992Y-88775000D01*
X156657134Y-88832142D01*
X155114277Y-89460714D02*
X155228563Y-89517857D01*
X155457134Y-89517857D01*
X155571420Y-89460714D01*
X155628563Y-89346428D01*
X155628563Y-88889285D01*
X155571420Y-88775000D01*
X155457134Y-88717857D01*
X155228563Y-88717857D01*
X155114277Y-88775000D01*
X155057134Y-88889285D01*
X155057134Y-89003571D01*
X155628563Y-89117857D01*
X154028563Y-89517857D02*
X154028563Y-88889285D01*
X154085706Y-88775000D01*
X154199992Y-88717857D01*
X154428563Y-88717857D01*
X154542849Y-88775000D01*
X154028563Y-89460714D02*
X154142849Y-89517857D01*
X154428563Y-89517857D01*
X154542849Y-89460714D01*
X154599992Y-89346428D01*
X154599992Y-89232142D01*
X154542849Y-89117857D01*
X154428563Y-89060714D01*
X154142849Y-89060714D01*
X154028563Y-89003571D01*
X153457134Y-89403571D02*
X153399992Y-89460714D01*
X153457134Y-89517857D01*
X153514277Y-89460714D01*
X153457134Y-89403571D01*
X153457134Y-89517857D01*
X152371420Y-89460714D02*
X152485706Y-89517857D01*
X152714277Y-89517857D01*
X152828563Y-89460714D01*
X152885706Y-89403571D01*
X152942849Y-89289285D01*
X152942849Y-88946428D01*
X152885706Y-88832142D01*
X152828563Y-88775000D01*
X152714277Y-88717857D01*
X152485706Y-88717857D01*
X152371420Y-88775000D01*
X151685706Y-89517857D02*
X151799992Y-89460714D01*
X151857134Y-89403571D01*
X151914277Y-89289285D01*
X151914277Y-88946428D01*
X151857134Y-88832142D01*
X151799992Y-88775000D01*
X151685706Y-88717857D01*
X151514277Y-88717857D01*
X151399992Y-88775000D01*
X151342849Y-88832142D01*
X151285706Y-88946428D01*
X151285706Y-89289285D01*
X151342849Y-89403571D01*
X151399992Y-89460714D01*
X151514277Y-89517857D01*
X151685706Y-89517857D01*
X150257134Y-89517857D02*
X150257134Y-88317857D01*
X150257134Y-89460714D02*
X150371420Y-89517857D01*
X150599992Y-89517857D01*
X150714277Y-89460714D01*
X150771420Y-89403571D01*
X150828563Y-89289285D01*
X150828563Y-88946428D01*
X150771420Y-88832142D01*
X150714277Y-88775000D01*
X150599992Y-88717857D01*
X150371420Y-88717857D01*
X150257134Y-88775000D01*
X149228563Y-89460714D02*
X149342849Y-89517857D01*
X149571420Y-89517857D01*
X149685706Y-89460714D01*
X149742849Y-89346428D01*
X149742849Y-88889285D01*
X149685706Y-88775000D01*
X149571420Y-88717857D01*
X149342849Y-88717857D01*
X149228563Y-88775000D01*
X149171420Y-88889285D01*
X149171420Y-89003571D01*
X149742849Y-89117857D01*
X148714277Y-89460714D02*
X148599992Y-89517857D01*
X148371420Y-89517857D01*
X148257134Y-89460714D01*
X148199992Y-89346428D01*
X148199992Y-89289285D01*
X148257134Y-89175000D01*
X148371420Y-89117857D01*
X148542849Y-89117857D01*
X148657134Y-89060714D01*
X148714277Y-88946428D01*
X148714277Y-88889285D01*
X148657134Y-88775000D01*
X148542849Y-88717857D01*
X148371420Y-88717857D01*
X148257134Y-88775000D01*
D11*
X164799992Y-78904761D02*
X164323801Y-80904761D01*
X163942849Y-79476190D01*
X163561896Y-80904761D01*
X163085706Y-78904761D01*
X162323801Y-80904761D02*
X162323801Y-79571428D01*
X162323801Y-78904761D02*
X162419039Y-79000000D01*
X162323801Y-79095238D01*
X162228563Y-79000000D01*
X162323801Y-78904761D01*
X162323801Y-79095238D01*
X161371420Y-79571428D02*
X161371420Y-80904761D01*
X161371420Y-79761904D02*
X161276182Y-79666666D01*
X161085706Y-79571428D01*
X160799992Y-79571428D01*
X160609515Y-79666666D01*
X160514277Y-79857142D01*
X160514277Y-80904761D01*
X159847611Y-79571428D02*
X159085706Y-79571428D01*
X159561896Y-78904761D02*
X159561896Y-80619047D01*
X159466658Y-80809523D01*
X159276182Y-80904761D01*
X159085706Y-80904761D01*
X157657134Y-80809523D02*
X157847611Y-80904761D01*
X158228563Y-80904761D01*
X158419039Y-80809523D01*
X158514277Y-80619047D01*
X158514277Y-79857142D01*
X158419039Y-79666666D01*
X158228563Y-79571428D01*
X157847611Y-79571428D01*
X157657134Y-79666666D01*
X157561896Y-79857142D01*
X157561896Y-80047619D01*
X158514277Y-80238095D01*
X156704753Y-80904761D02*
X156704753Y-79571428D01*
X156704753Y-79952380D02*
X156609515Y-79761904D01*
X156514277Y-79666666D01*
X156323801Y-79571428D01*
X156133325Y-79571428D01*
X155466658Y-80904761D02*
X155466658Y-78904761D01*
X155466658Y-79666666D02*
X155276182Y-79571428D01*
X154895230Y-79571428D01*
X154704753Y-79666666D01*
X154609515Y-79761904D01*
X154514277Y-79952380D01*
X154514277Y-80523809D01*
X154609515Y-80714285D01*
X154704753Y-80809523D01*
X154895230Y-80904761D01*
X155276182Y-80904761D01*
X155466658Y-80809523D01*
X153371420Y-80904761D02*
X153561896Y-80809523D01*
X153657134Y-80619047D01*
X153657134Y-78904761D01*
X152323801Y-80904761D02*
X152514277Y-80809523D01*
X152609515Y-80714285D01*
X152704753Y-80523809D01*
X152704753Y-79952380D01*
X152609515Y-79761904D01*
X152514277Y-79666666D01*
X152323801Y-79571428D01*
X152038087Y-79571428D01*
X151847611Y-79666666D01*
X151752372Y-79761904D01*
X151657134Y-79952380D01*
X151657134Y-80523809D01*
X151752372Y-80714285D01*
X151847611Y-80809523D01*
X152038087Y-80904761D01*
X152323801Y-80904761D01*
X150514277Y-80904761D02*
X150704753Y-80809523D01*
X150799992Y-80714285D01*
X150895230Y-80523809D01*
X150895230Y-79952380D01*
X150799992Y-79761904D01*
X150704753Y-79666666D01*
X150514277Y-79571428D01*
X150228563Y-79571428D01*
X150038087Y-79666666D01*
X149942849Y-79761904D01*
X149847611Y-79952380D01*
X149847611Y-80523809D01*
X149942849Y-80714285D01*
X150038087Y-80809523D01*
X150228563Y-80904761D01*
X150514277Y-80904761D01*
X148990468Y-80904761D02*
X148990468Y-79571428D01*
X148990468Y-79761904D02*
X148895230Y-79666666D01*
X148704753Y-79571428D01*
X148419039Y-79571428D01*
X148228563Y-79666666D01*
X148133325Y-79857142D01*
X148133325Y-80904761D01*
X148133325Y-79857142D02*
X148038087Y-79666666D01*
X147847611Y-79571428D01*
X147561896Y-79571428D01*
X147371420Y-79666666D01*
X147276182Y-79857142D01*
X147276182Y-80904761D01*
X144895230Y-80809523D02*
X144609515Y-80904761D01*
X144133325Y-80904761D01*
X143942849Y-80809523D01*
X143847611Y-80714285D01*
X143752372Y-80523809D01*
X143752372Y-80333333D01*
X143847611Y-80142857D01*
X143942849Y-80047619D01*
X144133325Y-79952380D01*
X144514277Y-79857142D01*
X144704753Y-79761904D01*
X144799992Y-79666666D01*
X144895230Y-79476190D01*
X144895230Y-79285714D01*
X144799992Y-79095238D01*
X144704753Y-79000000D01*
X144514277Y-78904761D01*
X144038087Y-78904761D01*
X143752372Y-79000000D01*
X142609515Y-80904761D02*
X142799992Y-80809523D01*
X142895230Y-80714285D01*
X142990468Y-80523809D01*
X142990468Y-79952380D01*
X142895230Y-79761904D01*
X142799992Y-79666666D01*
X142609515Y-79571428D01*
X142323801Y-79571428D01*
X142133325Y-79666666D01*
X142038087Y-79761904D01*
X141942849Y-79952380D01*
X141942849Y-80523809D01*
X142038087Y-80714285D01*
X142133325Y-80809523D01*
X142323801Y-80904761D01*
X142609515Y-80904761D01*
X140799992Y-80904761D02*
X140990468Y-80809523D01*
X141085706Y-80619047D01*
X141085706Y-78904761D01*
D12*
G36*
X133956827Y-22007703D02*
G01*
X134112145Y-22030743D01*
X134264455Y-22068894D01*
X134412293Y-22121792D01*
X134554235Y-22188925D01*
X134688912Y-22269648D01*
X134815029Y-22363182D01*
X134931371Y-22468628D01*
X135036817Y-22584970D01*
X135130351Y-22711087D01*
X135211074Y-22845764D01*
X135278207Y-22987706D01*
X135331105Y-23135544D01*
X135369256Y-23287854D01*
X135392296Y-23443172D01*
X135400000Y-23599999D01*
X135400000Y-23600001D01*
X135392296Y-23756828D01*
X135369256Y-23912146D01*
X135331105Y-24064456D01*
X135278207Y-24212294D01*
X135211074Y-24354236D01*
X135130351Y-24488913D01*
X135036817Y-24615030D01*
X134931371Y-24731372D01*
X134815029Y-24836818D01*
X134688912Y-24930352D01*
X134554235Y-25011075D01*
X134412293Y-25078208D01*
X134264455Y-25131106D01*
X134112145Y-25169257D01*
X133956827Y-25192297D01*
X133800000Y-25200001D01*
X131000000Y-25200001D01*
X130843173Y-25192297D01*
X130687855Y-25169257D01*
X130535545Y-25131106D01*
X130387707Y-25078208D01*
X130245765Y-25011075D01*
X130111088Y-24930352D01*
X129984971Y-24836818D01*
X129868629Y-24731372D01*
X129763183Y-24615030D01*
X129669649Y-24488913D01*
X129588926Y-24354236D01*
X129521793Y-24212294D01*
X129468895Y-24064456D01*
X129430744Y-23912146D01*
X129407704Y-23756828D01*
X129400000Y-23600001D01*
X129400000Y-23599999D01*
X129407704Y-23443172D01*
X129430744Y-23287854D01*
X129468895Y-23135544D01*
X129521793Y-22987706D01*
X129588926Y-22845764D01*
X129669649Y-22711087D01*
X129763183Y-22584970D01*
X129868629Y-22468628D01*
X129984971Y-22363182D01*
X130111088Y-22269648D01*
X130245765Y-22188925D01*
X130387707Y-22121792D01*
X130535545Y-22068894D01*
X130687855Y-22030743D01*
X130843173Y-22007703D01*
X131000000Y-21999999D01*
X133800000Y-21999999D01*
X133956827Y-22007703D01*
X133956827Y-22007703D01*
G37*
D13*
X132400000Y-23600000D03*
D12*
G36*
X174756827Y-22007703D02*
G01*
X174912145Y-22030743D01*
X175064455Y-22068894D01*
X175212293Y-22121792D01*
X175354235Y-22188925D01*
X175488912Y-22269648D01*
X175615029Y-22363182D01*
X175731371Y-22468628D01*
X175836817Y-22584970D01*
X175930351Y-22711087D01*
X176011074Y-22845764D01*
X176078207Y-22987706D01*
X176131105Y-23135544D01*
X176169256Y-23287854D01*
X176192296Y-23443172D01*
X176200000Y-23599999D01*
X176200000Y-23600001D01*
X176192296Y-23756828D01*
X176169256Y-23912146D01*
X176131105Y-24064456D01*
X176078207Y-24212294D01*
X176011074Y-24354236D01*
X175930351Y-24488913D01*
X175836817Y-24615030D01*
X175731371Y-24731372D01*
X175615029Y-24836818D01*
X175488912Y-24930352D01*
X175354235Y-25011075D01*
X175212293Y-25078208D01*
X175064455Y-25131106D01*
X174912145Y-25169257D01*
X174756827Y-25192297D01*
X174600000Y-25200001D01*
X171800000Y-25200001D01*
X171643173Y-25192297D01*
X171487855Y-25169257D01*
X171335545Y-25131106D01*
X171187707Y-25078208D01*
X171045765Y-25011075D01*
X170911088Y-24930352D01*
X170784971Y-24836818D01*
X170668629Y-24731372D01*
X170563183Y-24615030D01*
X170469649Y-24488913D01*
X170388926Y-24354236D01*
X170321793Y-24212294D01*
X170268895Y-24064456D01*
X170230744Y-23912146D01*
X170207704Y-23756828D01*
X170200000Y-23600001D01*
X170200000Y-23599999D01*
X170207704Y-23443172D01*
X170230744Y-23287854D01*
X170268895Y-23135544D01*
X170321793Y-22987706D01*
X170388926Y-22845764D01*
X170469649Y-22711087D01*
X170563183Y-22584970D01*
X170668629Y-22468628D01*
X170784971Y-22363182D01*
X170911088Y-22269648D01*
X171045765Y-22188925D01*
X171187707Y-22121792D01*
X171335545Y-22068894D01*
X171487855Y-22030743D01*
X171643173Y-22007703D01*
X171800000Y-21999999D01*
X174600000Y-21999999D01*
X174756827Y-22007703D01*
X174756827Y-22007703D01*
G37*
D13*
X173200000Y-23600000D03*
D12*
G36*
X174756827Y-144507703D02*
G01*
X174912145Y-144530743D01*
X175064455Y-144568894D01*
X175212293Y-144621792D01*
X175354235Y-144688925D01*
X175488912Y-144769648D01*
X175615029Y-144863182D01*
X175731371Y-144968628D01*
X175836817Y-145084970D01*
X175930351Y-145211087D01*
X176011074Y-145345764D01*
X176078207Y-145487706D01*
X176131105Y-145635544D01*
X176169256Y-145787854D01*
X176192296Y-145943172D01*
X176200000Y-146099999D01*
X176200000Y-146100001D01*
X176192296Y-146256828D01*
X176169256Y-146412146D01*
X176131105Y-146564456D01*
X176078207Y-146712294D01*
X176011074Y-146854236D01*
X175930351Y-146988913D01*
X175836817Y-147115030D01*
X175731371Y-147231372D01*
X175615029Y-147336818D01*
X175488912Y-147430352D01*
X175354235Y-147511075D01*
X175212293Y-147578208D01*
X175064455Y-147631106D01*
X174912145Y-147669257D01*
X174756827Y-147692297D01*
X174600000Y-147700001D01*
X171800000Y-147700001D01*
X171643173Y-147692297D01*
X171487855Y-147669257D01*
X171335545Y-147631106D01*
X171187707Y-147578208D01*
X171045765Y-147511075D01*
X170911088Y-147430352D01*
X170784971Y-147336818D01*
X170668629Y-147231372D01*
X170563183Y-147115030D01*
X170469649Y-146988913D01*
X170388926Y-146854236D01*
X170321793Y-146712294D01*
X170268895Y-146564456D01*
X170230744Y-146412146D01*
X170207704Y-146256828D01*
X170200000Y-146100001D01*
X170200000Y-146099999D01*
X170207704Y-145943172D01*
X170230744Y-145787854D01*
X170268895Y-145635544D01*
X170321793Y-145487706D01*
X170388926Y-145345764D01*
X170469649Y-145211087D01*
X170563183Y-145084970D01*
X170668629Y-144968628D01*
X170784971Y-144863182D01*
X170911088Y-144769648D01*
X171045765Y-144688925D01*
X171187707Y-144621792D01*
X171335545Y-144568894D01*
X171487855Y-144530743D01*
X171643173Y-144507703D01*
X171800000Y-144499999D01*
X174600000Y-144499999D01*
X174756827Y-144507703D01*
X174756827Y-144507703D01*
G37*
D13*
X173200000Y-146100000D03*
D12*
G36*
X133956827Y-144507703D02*
G01*
X134112145Y-144530743D01*
X134264455Y-144568894D01*
X134412293Y-144621792D01*
X134554235Y-144688925D01*
X134688912Y-144769648D01*
X134815029Y-144863182D01*
X134931371Y-144968628D01*
X135036817Y-145084970D01*
X135130351Y-145211087D01*
X135211074Y-145345764D01*
X135278207Y-145487706D01*
X135331105Y-145635544D01*
X135369256Y-145787854D01*
X135392296Y-145943172D01*
X135400000Y-146099999D01*
X135400000Y-146100001D01*
X135392296Y-146256828D01*
X135369256Y-146412146D01*
X135331105Y-146564456D01*
X135278207Y-146712294D01*
X135211074Y-146854236D01*
X135130351Y-146988913D01*
X135036817Y-147115030D01*
X134931371Y-147231372D01*
X134815029Y-147336818D01*
X134688912Y-147430352D01*
X134554235Y-147511075D01*
X134412293Y-147578208D01*
X134264455Y-147631106D01*
X134112145Y-147669257D01*
X133956827Y-147692297D01*
X133800000Y-147700001D01*
X131000000Y-147700001D01*
X130843173Y-147692297D01*
X130687855Y-147669257D01*
X130535545Y-147631106D01*
X130387707Y-147578208D01*
X130245765Y-147511075D01*
X130111088Y-147430352D01*
X129984971Y-147336818D01*
X129868629Y-147231372D01*
X129763183Y-147115030D01*
X129669649Y-146988913D01*
X129588926Y-146854236D01*
X129521793Y-146712294D01*
X129468895Y-146564456D01*
X129430744Y-146412146D01*
X129407704Y-146256828D01*
X129400000Y-146100001D01*
X129400000Y-146099999D01*
X129407704Y-145943172D01*
X129430744Y-145787854D01*
X129468895Y-145635544D01*
X129521793Y-145487706D01*
X129588926Y-145345764D01*
X129669649Y-145211087D01*
X129763183Y-145084970D01*
X129868629Y-144968628D01*
X129984971Y-144863182D01*
X130111088Y-144769648D01*
X130245765Y-144688925D01*
X130387707Y-144621792D01*
X130535545Y-144568894D01*
X130687855Y-144530743D01*
X130843173Y-144507703D01*
X131000000Y-144499999D01*
X133800000Y-144499999D01*
X133956827Y-144507703D01*
X133956827Y-144507703D01*
G37*
D13*
X132400000Y-146100000D03*
D14*
X137856331Y-114942300D03*
X152799986Y-114942300D03*
X167701315Y-114942300D03*
X167701315Y-129420300D03*
X152799986Y-129420300D03*
X137856331Y-129773070D03*
D15*
X152865412Y-52307771D03*
D16*
X162536662Y-39124357D03*
X143063330Y-39124357D03*
M02*
