G04 #@! TF.GenerationSoftware,KiCad,Pcbnew,(5.1.2)-2*
G04 #@! TF.CreationDate,2019-12-19T20:27:39-08:00*
G04 #@! TF.ProjectId,mainboard,6d61696e-626f-4617-9264-2e6b69636164,v3*
G04 #@! TF.SameCoordinates,Original*
G04 #@! TF.FileFunction,Legend,Bot*
G04 #@! TF.FilePolarity,Positive*
%FSLAX46Y46*%
G04 Gerber Fmt 4.6, Leading zero omitted, Abs format (unit mm)*
G04 Created by KiCad (PCBNEW (5.1.2)-2) date 2019-12-19 20:27:39*
%MOMM*%
%LPD*%
G04 APERTURE LIST*
%ADD10C,0.100000*%
%ADD11C,0.150000*%
%ADD12C,0.200000*%
%ADD13C,0.300000*%
%ADD14C,0.203200*%
%ADD15C,0.010000*%
%ADD16C,0.127000*%
G04 APERTURE END LIST*
D10*
G36*
X145000000Y-68750000D02*
G01*
X125500000Y-68750000D01*
X125500000Y-61000000D01*
X145000000Y-61000000D01*
X145000000Y-68750000D01*
G37*
X145000000Y-68750000D02*
X125500000Y-68750000D01*
X125500000Y-61000000D01*
X145000000Y-61000000D01*
X145000000Y-68750000D01*
D11*
X122371428Y-73352380D02*
X122704761Y-72876190D01*
X122942857Y-73352380D02*
X122942857Y-72352380D01*
X122561904Y-72352380D01*
X122466666Y-72400000D01*
X122419047Y-72447619D01*
X122371428Y-72542857D01*
X122371428Y-72685714D01*
X122419047Y-72780952D01*
X122466666Y-72828571D01*
X122561904Y-72876190D01*
X122942857Y-72876190D01*
X121942857Y-72828571D02*
X121609523Y-72828571D01*
X121466666Y-73352380D02*
X121942857Y-73352380D01*
X121942857Y-72352380D01*
X121466666Y-72352380D01*
X121038095Y-73352380D02*
X121038095Y-72352380D01*
X120800000Y-72352380D01*
X120657142Y-72400000D01*
X120561904Y-72495238D01*
X120514285Y-72590476D01*
X120466666Y-72780952D01*
X120466666Y-72923809D01*
X120514285Y-73114285D01*
X120561904Y-73209523D01*
X120657142Y-73304761D01*
X120800000Y-73352380D01*
X121038095Y-73352380D01*
X119323809Y-73304761D02*
X119180952Y-73352380D01*
X118942857Y-73352380D01*
X118847619Y-73304761D01*
X118799999Y-73257142D01*
X118752380Y-73161904D01*
X118752380Y-73066666D01*
X118799999Y-72971428D01*
X118847619Y-72923809D01*
X118942857Y-72876190D01*
X119133333Y-72828571D01*
X119228571Y-72780952D01*
X119276190Y-72733333D01*
X119323809Y-72638095D01*
X119323809Y-72542857D01*
X119276190Y-72447619D01*
X119228571Y-72400000D01*
X119133333Y-72352380D01*
X118895238Y-72352380D01*
X118752380Y-72400000D01*
X118466666Y-72352380D02*
X117895238Y-72352380D01*
X118180952Y-73352380D02*
X118180952Y-72352380D01*
X116990476Y-73352380D02*
X117323809Y-72876190D01*
X117561904Y-73352380D02*
X117561904Y-72352380D01*
X117180952Y-72352380D01*
X117085714Y-72400000D01*
X117038095Y-72447619D01*
X116990476Y-72542857D01*
X116990476Y-72685714D01*
X117038095Y-72780952D01*
X117085714Y-72828571D01*
X117180952Y-72876190D01*
X117561904Y-72876190D01*
X116561904Y-73352380D02*
X116561904Y-72352380D01*
X116085714Y-73352380D02*
X116085714Y-72352380D01*
X115704761Y-72352380D01*
X115609523Y-72400000D01*
X115561904Y-72447619D01*
X115514285Y-72542857D01*
X115514285Y-72685714D01*
X115561904Y-72780952D01*
X115609523Y-72828571D01*
X115704761Y-72876190D01*
X116085714Y-72876190D01*
X115085714Y-72828571D02*
X114752380Y-72828571D01*
X114609523Y-73352380D02*
X115085714Y-73352380D01*
X115085714Y-72352380D01*
X114609523Y-72352380D01*
D12*
X140459695Y-119282666D02*
X139983504Y-119282666D01*
X140554933Y-119568380D02*
X140221600Y-118568380D01*
X139888266Y-119568380D01*
X139412076Y-119568380D02*
X139507314Y-119520761D01*
X139554933Y-119425523D01*
X139554933Y-118568380D01*
X138650171Y-119520761D02*
X138745409Y-119568380D01*
X138935885Y-119568380D01*
X139031123Y-119520761D01*
X139078742Y-119425523D01*
X139078742Y-119044571D01*
X139031123Y-118949333D01*
X138935885Y-118901714D01*
X138745409Y-118901714D01*
X138650171Y-118949333D01*
X138602552Y-119044571D01*
X138602552Y-119139809D01*
X139078742Y-119235047D01*
X138316838Y-118901714D02*
X137935885Y-118901714D01*
X138173980Y-118568380D02*
X138173980Y-119425523D01*
X138126361Y-119520761D01*
X138031123Y-119568380D01*
X137935885Y-119568380D01*
X137602552Y-119568380D02*
X137602552Y-118568380D01*
X137173980Y-119568380D02*
X137173980Y-119044571D01*
X137221600Y-118949333D01*
X137316838Y-118901714D01*
X137459695Y-118901714D01*
X137554933Y-118949333D01*
X137602552Y-118996952D01*
X136316838Y-119520761D02*
X136412076Y-119568380D01*
X136602552Y-119568380D01*
X136697790Y-119520761D01*
X136745409Y-119425523D01*
X136745409Y-119044571D01*
X136697790Y-118949333D01*
X136602552Y-118901714D01*
X136412076Y-118901714D01*
X136316838Y-118949333D01*
X136269219Y-119044571D01*
X136269219Y-119139809D01*
X136745409Y-119235047D01*
X135412076Y-119568380D02*
X135412076Y-119044571D01*
X135459695Y-118949333D01*
X135554933Y-118901714D01*
X135745409Y-118901714D01*
X135840647Y-118949333D01*
X135412076Y-119520761D02*
X135507314Y-119568380D01*
X135745409Y-119568380D01*
X135840647Y-119520761D01*
X135888266Y-119425523D01*
X135888266Y-119330285D01*
X135840647Y-119235047D01*
X135745409Y-119187428D01*
X135507314Y-119187428D01*
X135412076Y-119139809D01*
X133840647Y-119044571D02*
X134173980Y-119044571D01*
X134173980Y-119568380D02*
X134173980Y-118568380D01*
X133697790Y-118568380D01*
X133173980Y-119568380D02*
X133269219Y-119520761D01*
X133316838Y-119425523D01*
X133316838Y-118568380D01*
X132650171Y-119568380D02*
X132745409Y-119520761D01*
X132793028Y-119473142D01*
X132840647Y-119377904D01*
X132840647Y-119092190D01*
X132793028Y-118996952D01*
X132745409Y-118949333D01*
X132650171Y-118901714D01*
X132507314Y-118901714D01*
X132412076Y-118949333D01*
X132364457Y-118996952D01*
X132316838Y-119092190D01*
X132316838Y-119377904D01*
X132364457Y-119473142D01*
X132412076Y-119520761D01*
X132507314Y-119568380D01*
X132650171Y-119568380D01*
X131983504Y-118901714D02*
X131793028Y-119568380D01*
X131602552Y-119092190D01*
X131412076Y-119568380D01*
X131221600Y-118901714D01*
X130459695Y-119520761D02*
X130554933Y-119568380D01*
X130745409Y-119568380D01*
X130840647Y-119520761D01*
X130888266Y-119425523D01*
X130888266Y-119044571D01*
X130840647Y-118949333D01*
X130745409Y-118901714D01*
X130554933Y-118901714D01*
X130459695Y-118949333D01*
X130412076Y-119044571D01*
X130412076Y-119139809D01*
X130888266Y-119235047D01*
X129983504Y-119568380D02*
X129983504Y-118901714D01*
X129983504Y-119092190D02*
X129935885Y-118996952D01*
X129888266Y-118949333D01*
X129793028Y-118901714D01*
X129697790Y-118901714D01*
X129412076Y-119520761D02*
X129316838Y-119568380D01*
X129126361Y-119568380D01*
X129031123Y-119520761D01*
X128983504Y-119425523D01*
X128983504Y-119377904D01*
X129031123Y-119282666D01*
X129126361Y-119235047D01*
X129269219Y-119235047D01*
X129364457Y-119187428D01*
X129412076Y-119092190D01*
X129412076Y-119044571D01*
X129364457Y-118949333D01*
X129269219Y-118901714D01*
X129126361Y-118901714D01*
X129031123Y-118949333D01*
X139554933Y-121173142D02*
X139602552Y-121220761D01*
X139745409Y-121268380D01*
X139840647Y-121268380D01*
X139983504Y-121220761D01*
X140078742Y-121125523D01*
X140126361Y-121030285D01*
X140173980Y-120839809D01*
X140173980Y-120696952D01*
X140126361Y-120506476D01*
X140078742Y-120411238D01*
X139983504Y-120316000D01*
X139840647Y-120268380D01*
X139745409Y-120268380D01*
X139602552Y-120316000D01*
X139554933Y-120363619D01*
X138554933Y-121173142D02*
X138602552Y-121220761D01*
X138745409Y-121268380D01*
X138840647Y-121268380D01*
X138983504Y-121220761D01*
X139078742Y-121125523D01*
X139126361Y-121030285D01*
X139173980Y-120839809D01*
X139173980Y-120696952D01*
X139126361Y-120506476D01*
X139078742Y-120411238D01*
X138983504Y-120316000D01*
X138840647Y-120268380D01*
X138745409Y-120268380D01*
X138602552Y-120316000D01*
X138554933Y-120363619D01*
X138126361Y-120887428D02*
X137364457Y-120887428D01*
X136554933Y-120744571D02*
X136412076Y-120792190D01*
X136364457Y-120839809D01*
X136316838Y-120935047D01*
X136316838Y-121077904D01*
X136364457Y-121173142D01*
X136412076Y-121220761D01*
X136507314Y-121268380D01*
X136888266Y-121268380D01*
X136888266Y-120268380D01*
X136554933Y-120268380D01*
X136459695Y-120316000D01*
X136412076Y-120363619D01*
X136364457Y-120458857D01*
X136364457Y-120554095D01*
X136412076Y-120649333D01*
X136459695Y-120696952D01*
X136554933Y-120744571D01*
X136888266Y-120744571D01*
X135697790Y-120792190D02*
X135697790Y-121268380D01*
X136031123Y-120268380D02*
X135697790Y-120792190D01*
X135364457Y-120268380D01*
X135031123Y-120887428D02*
X134269219Y-120887428D01*
X133840647Y-121220761D02*
X133697790Y-121268380D01*
X133459695Y-121268380D01*
X133364457Y-121220761D01*
X133316838Y-121173142D01*
X133269219Y-121077904D01*
X133269219Y-120982666D01*
X133316838Y-120887428D01*
X133364457Y-120839809D01*
X133459695Y-120792190D01*
X133650171Y-120744571D01*
X133745409Y-120696952D01*
X133793028Y-120649333D01*
X133840647Y-120554095D01*
X133840647Y-120458857D01*
X133793028Y-120363619D01*
X133745409Y-120316000D01*
X133650171Y-120268380D01*
X133412076Y-120268380D01*
X133269219Y-120316000D01*
X132888266Y-120982666D02*
X132412076Y-120982666D01*
X132983504Y-121268380D02*
X132650171Y-120268380D01*
X132316838Y-121268380D01*
X130793028Y-120601714D02*
X130793028Y-121268380D01*
X131031123Y-120220761D02*
X131269219Y-120935047D01*
X130650171Y-120935047D01*
X130269219Y-121173142D02*
X130221600Y-121220761D01*
X130269219Y-121268380D01*
X130316838Y-121220761D01*
X130269219Y-121173142D01*
X130269219Y-121268380D01*
X129602552Y-120268380D02*
X129507314Y-120268380D01*
X129412076Y-120316000D01*
X129364457Y-120363619D01*
X129316838Y-120458857D01*
X129269219Y-120649333D01*
X129269219Y-120887428D01*
X129316838Y-121077904D01*
X129364457Y-121173142D01*
X129412076Y-121220761D01*
X129507314Y-121268380D01*
X129602552Y-121268380D01*
X129697790Y-121220761D01*
X129745409Y-121173142D01*
X129793028Y-121077904D01*
X129840647Y-120887428D01*
X129840647Y-120649333D01*
X129793028Y-120458857D01*
X129745409Y-120363619D01*
X129697790Y-120316000D01*
X129602552Y-120268380D01*
X140197790Y-122301714D02*
X139959695Y-122968380D01*
X139721600Y-122301714D01*
X139435885Y-121968380D02*
X138816838Y-121968380D01*
X139150171Y-122349333D01*
X139007314Y-122349333D01*
X138912076Y-122396952D01*
X138864457Y-122444571D01*
X138816838Y-122539809D01*
X138816838Y-122777904D01*
X138864457Y-122873142D01*
X138912076Y-122920761D01*
X139007314Y-122968380D01*
X139293028Y-122968380D01*
X139388266Y-122920761D01*
X139435885Y-122873142D01*
X137673980Y-122063619D02*
X137626361Y-122016000D01*
X137531123Y-121968380D01*
X137293028Y-121968380D01*
X137197790Y-122016000D01*
X137150171Y-122063619D01*
X137102552Y-122158857D01*
X137102552Y-122254095D01*
X137150171Y-122396952D01*
X137721600Y-122968380D01*
X137102552Y-122968380D01*
X136483504Y-121968380D02*
X136388266Y-121968380D01*
X136293028Y-122016000D01*
X136245409Y-122063619D01*
X136197790Y-122158857D01*
X136150171Y-122349333D01*
X136150171Y-122587428D01*
X136197790Y-122777904D01*
X136245409Y-122873142D01*
X136293028Y-122920761D01*
X136388266Y-122968380D01*
X136483504Y-122968380D01*
X136578742Y-122920761D01*
X136626361Y-122873142D01*
X136673980Y-122777904D01*
X136721600Y-122587428D01*
X136721600Y-122349333D01*
X136673980Y-122158857D01*
X136626361Y-122063619D01*
X136578742Y-122016000D01*
X136483504Y-121968380D01*
X135197790Y-122968380D02*
X135769219Y-122968380D01*
X135483504Y-122968380D02*
X135483504Y-121968380D01*
X135578742Y-122111238D01*
X135673980Y-122206476D01*
X135769219Y-122254095D01*
X134721600Y-122968380D02*
X134531123Y-122968380D01*
X134435885Y-122920761D01*
X134388266Y-122873142D01*
X134293028Y-122730285D01*
X134245409Y-122539809D01*
X134245409Y-122158857D01*
X134293028Y-122063619D01*
X134340647Y-122016000D01*
X134435885Y-121968380D01*
X134626361Y-121968380D01*
X134721600Y-122016000D01*
X134769219Y-122063619D01*
X134816838Y-122158857D01*
X134816838Y-122396952D01*
X134769219Y-122492190D01*
X134721600Y-122539809D01*
X134626361Y-122587428D01*
X134435885Y-122587428D01*
X134340647Y-122539809D01*
X134293028Y-122492190D01*
X134245409Y-122396952D01*
X133102552Y-121920761D02*
X133959695Y-123206476D01*
X132245409Y-122968380D02*
X132816838Y-122968380D01*
X132531123Y-122968380D02*
X132531123Y-121968380D01*
X132626361Y-122111238D01*
X132721600Y-122206476D01*
X132816838Y-122254095D01*
X131293028Y-122968380D02*
X131864457Y-122968380D01*
X131578742Y-122968380D02*
X131578742Y-121968380D01*
X131673980Y-122111238D01*
X131769219Y-122206476D01*
X131864457Y-122254095D01*
X130150171Y-121920761D02*
X131007314Y-123206476D01*
X129340647Y-121968380D02*
X129816838Y-121968380D01*
X129864457Y-122444571D01*
X129816838Y-122396952D01*
X129721600Y-122349333D01*
X129483504Y-122349333D01*
X129388266Y-122396952D01*
X129340647Y-122444571D01*
X129293028Y-122539809D01*
X129293028Y-122777904D01*
X129340647Y-122873142D01*
X129388266Y-122920761D01*
X129483504Y-122968380D01*
X129721600Y-122968380D01*
X129816838Y-122920761D01*
X129864457Y-122873142D01*
X138650171Y-124001714D02*
X138269219Y-124001714D01*
X138507314Y-123668380D02*
X138507314Y-124525523D01*
X138459695Y-124620761D01*
X138364457Y-124668380D01*
X138269219Y-124668380D01*
X137935885Y-124668380D02*
X137935885Y-123668380D01*
X137507314Y-124668380D02*
X137507314Y-124144571D01*
X137554933Y-124049333D01*
X137650171Y-124001714D01*
X137793028Y-124001714D01*
X137888266Y-124049333D01*
X137935885Y-124096952D01*
X136650171Y-124620761D02*
X136745409Y-124668380D01*
X136935885Y-124668380D01*
X137031123Y-124620761D01*
X137078742Y-124525523D01*
X137078742Y-124144571D01*
X137031123Y-124049333D01*
X136935885Y-124001714D01*
X136745409Y-124001714D01*
X136650171Y-124049333D01*
X136602552Y-124144571D01*
X136602552Y-124239809D01*
X137078742Y-124335047D01*
X135745409Y-124668380D02*
X135745409Y-124144571D01*
X135793028Y-124049333D01*
X135888266Y-124001714D01*
X136078742Y-124001714D01*
X136173980Y-124049333D01*
X135745409Y-124620761D02*
X135840647Y-124668380D01*
X136078742Y-124668380D01*
X136173980Y-124620761D01*
X136221600Y-124525523D01*
X136221600Y-124430285D01*
X136173980Y-124335047D01*
X136078742Y-124287428D01*
X135840647Y-124287428D01*
X135745409Y-124239809D01*
X135269219Y-124573142D02*
X135221600Y-124620761D01*
X135269219Y-124668380D01*
X135316838Y-124620761D01*
X135269219Y-124573142D01*
X135269219Y-124668380D01*
X134364457Y-124620761D02*
X134459695Y-124668380D01*
X134650171Y-124668380D01*
X134745409Y-124620761D01*
X134793028Y-124573142D01*
X134840647Y-124477904D01*
X134840647Y-124192190D01*
X134793028Y-124096952D01*
X134745409Y-124049333D01*
X134650171Y-124001714D01*
X134459695Y-124001714D01*
X134364457Y-124049333D01*
X133793028Y-124668380D02*
X133888266Y-124620761D01*
X133935885Y-124573142D01*
X133983504Y-124477904D01*
X133983504Y-124192190D01*
X133935885Y-124096952D01*
X133888266Y-124049333D01*
X133793028Y-124001714D01*
X133650171Y-124001714D01*
X133554933Y-124049333D01*
X133507314Y-124096952D01*
X133459695Y-124192190D01*
X133459695Y-124477904D01*
X133507314Y-124573142D01*
X133554933Y-124620761D01*
X133650171Y-124668380D01*
X133793028Y-124668380D01*
X132602552Y-124668380D02*
X132602552Y-123668380D01*
X132602552Y-124620761D02*
X132697790Y-124668380D01*
X132888266Y-124668380D01*
X132983504Y-124620761D01*
X133031123Y-124573142D01*
X133078742Y-124477904D01*
X133078742Y-124192190D01*
X133031123Y-124096952D01*
X132983504Y-124049333D01*
X132888266Y-124001714D01*
X132697790Y-124001714D01*
X132602552Y-124049333D01*
X131745409Y-124620761D02*
X131840647Y-124668380D01*
X132031123Y-124668380D01*
X132126361Y-124620761D01*
X132173980Y-124525523D01*
X132173980Y-124144571D01*
X132126361Y-124049333D01*
X132031123Y-124001714D01*
X131840647Y-124001714D01*
X131745409Y-124049333D01*
X131697790Y-124144571D01*
X131697790Y-124239809D01*
X132173980Y-124335047D01*
X131316838Y-124620761D02*
X131221600Y-124668380D01*
X131031123Y-124668380D01*
X130935885Y-124620761D01*
X130888266Y-124525523D01*
X130888266Y-124477904D01*
X130935885Y-124382666D01*
X131031123Y-124335047D01*
X131173980Y-124335047D01*
X131269219Y-124287428D01*
X131316838Y-124192190D01*
X131316838Y-124144571D01*
X131269219Y-124049333D01*
X131173980Y-124001714D01*
X131031123Y-124001714D01*
X130935885Y-124049333D01*
D13*
X146721600Y-114830361D02*
X146245409Y-116830361D01*
X145864457Y-115401790D01*
X145483504Y-116830361D01*
X145007314Y-114830361D01*
X144245409Y-116830361D02*
X144245409Y-115497028D01*
X144245409Y-114830361D02*
X144340647Y-114925600D01*
X144245409Y-115020838D01*
X144150171Y-114925600D01*
X144245409Y-114830361D01*
X144245409Y-115020838D01*
X143293028Y-115497028D02*
X143293028Y-116830361D01*
X143293028Y-115687504D02*
X143197790Y-115592266D01*
X143007314Y-115497028D01*
X142721600Y-115497028D01*
X142531123Y-115592266D01*
X142435885Y-115782742D01*
X142435885Y-116830361D01*
X141769219Y-115497028D02*
X141007314Y-115497028D01*
X141483504Y-114830361D02*
X141483504Y-116544647D01*
X141388266Y-116735123D01*
X141197790Y-116830361D01*
X141007314Y-116830361D01*
X139578742Y-116735123D02*
X139769219Y-116830361D01*
X140150171Y-116830361D01*
X140340647Y-116735123D01*
X140435885Y-116544647D01*
X140435885Y-115782742D01*
X140340647Y-115592266D01*
X140150171Y-115497028D01*
X139769219Y-115497028D01*
X139578742Y-115592266D01*
X139483504Y-115782742D01*
X139483504Y-115973219D01*
X140435885Y-116163695D01*
X138626361Y-116830361D02*
X138626361Y-115497028D01*
X138626361Y-115877980D02*
X138531123Y-115687504D01*
X138435885Y-115592266D01*
X138245409Y-115497028D01*
X138054933Y-115497028D01*
X137388266Y-116830361D02*
X137388266Y-114830361D01*
X137388266Y-115592266D02*
X137197790Y-115497028D01*
X136816838Y-115497028D01*
X136626361Y-115592266D01*
X136531123Y-115687504D01*
X136435885Y-115877980D01*
X136435885Y-116449409D01*
X136531123Y-116639885D01*
X136626361Y-116735123D01*
X136816838Y-116830361D01*
X137197790Y-116830361D01*
X137388266Y-116735123D01*
X135293028Y-116830361D02*
X135483504Y-116735123D01*
X135578742Y-116544647D01*
X135578742Y-114830361D01*
X134245409Y-116830361D02*
X134435885Y-116735123D01*
X134531123Y-116639885D01*
X134626361Y-116449409D01*
X134626361Y-115877980D01*
X134531123Y-115687504D01*
X134435885Y-115592266D01*
X134245409Y-115497028D01*
X133959695Y-115497028D01*
X133769219Y-115592266D01*
X133673980Y-115687504D01*
X133578742Y-115877980D01*
X133578742Y-116449409D01*
X133673980Y-116639885D01*
X133769219Y-116735123D01*
X133959695Y-116830361D01*
X134245409Y-116830361D01*
X132435885Y-116830361D02*
X132626361Y-116735123D01*
X132721600Y-116639885D01*
X132816838Y-116449409D01*
X132816838Y-115877980D01*
X132721600Y-115687504D01*
X132626361Y-115592266D01*
X132435885Y-115497028D01*
X132150171Y-115497028D01*
X131959695Y-115592266D01*
X131864457Y-115687504D01*
X131769219Y-115877980D01*
X131769219Y-116449409D01*
X131864457Y-116639885D01*
X131959695Y-116735123D01*
X132150171Y-116830361D01*
X132435885Y-116830361D01*
X130912076Y-116830361D02*
X130912076Y-115497028D01*
X130912076Y-115687504D02*
X130816838Y-115592266D01*
X130626361Y-115497028D01*
X130340647Y-115497028D01*
X130150171Y-115592266D01*
X130054933Y-115782742D01*
X130054933Y-116830361D01*
X130054933Y-115782742D02*
X129959695Y-115592266D01*
X129769219Y-115497028D01*
X129483504Y-115497028D01*
X129293028Y-115592266D01*
X129197790Y-115782742D01*
X129197790Y-116830361D01*
X126816838Y-116735123D02*
X126531123Y-116830361D01*
X126054933Y-116830361D01*
X125864457Y-116735123D01*
X125769219Y-116639885D01*
X125673980Y-116449409D01*
X125673980Y-116258933D01*
X125769219Y-116068457D01*
X125864457Y-115973219D01*
X126054933Y-115877980D01*
X126435885Y-115782742D01*
X126626361Y-115687504D01*
X126721600Y-115592266D01*
X126816838Y-115401790D01*
X126816838Y-115211314D01*
X126721600Y-115020838D01*
X126626361Y-114925600D01*
X126435885Y-114830361D01*
X125959695Y-114830361D01*
X125673980Y-114925600D01*
X124531123Y-116830361D02*
X124721600Y-116735123D01*
X124816838Y-116639885D01*
X124912076Y-116449409D01*
X124912076Y-115877980D01*
X124816838Y-115687504D01*
X124721600Y-115592266D01*
X124531123Y-115497028D01*
X124245409Y-115497028D01*
X124054933Y-115592266D01*
X123959695Y-115687504D01*
X123864457Y-115877980D01*
X123864457Y-116449409D01*
X123959695Y-116639885D01*
X124054933Y-116735123D01*
X124245409Y-116830361D01*
X124531123Y-116830361D01*
X122721600Y-116830361D02*
X122912076Y-116735123D01*
X123007314Y-116544647D01*
X123007314Y-114830361D01*
D14*
X152052000Y-57709000D02*
X152052000Y-53391000D01*
X158148000Y-53391000D02*
X158148000Y-57709000D01*
X154104320Y-58598000D02*
X156116000Y-58598000D01*
X154073840Y-52502000D02*
X156116000Y-52502000D01*
X156878000Y-55550000D02*
G75*
G03X156878000Y-55550000I-1778000J0D01*
G01*
D15*
G36*
X153623036Y-102290018D02*
G01*
X153566188Y-102591570D01*
X153146662Y-102764512D01*
X152895016Y-102593395D01*
X152824542Y-102545750D01*
X152760837Y-102503210D01*
X152706874Y-102467715D01*
X152665627Y-102441210D01*
X152640066Y-102425636D01*
X152633105Y-102422278D01*
X152620565Y-102430914D01*
X152593769Y-102454792D01*
X152555720Y-102490859D01*
X152509421Y-102536067D01*
X152457877Y-102587364D01*
X152404091Y-102641701D01*
X152351065Y-102696028D01*
X152301805Y-102747295D01*
X152259313Y-102792451D01*
X152226593Y-102828446D01*
X152206649Y-102852230D01*
X152201881Y-102860190D01*
X152208743Y-102874865D01*
X152227980Y-102907014D01*
X152257570Y-102953492D01*
X152295490Y-103011156D01*
X152339718Y-103076860D01*
X152365346Y-103114336D01*
X152412059Y-103182768D01*
X152453568Y-103244520D01*
X152487860Y-103296519D01*
X152512920Y-103335692D01*
X152526736Y-103358965D01*
X152528812Y-103363855D01*
X152524105Y-103377755D01*
X152511277Y-103410150D01*
X152492262Y-103456485D01*
X152468997Y-103512206D01*
X152443416Y-103572758D01*
X152417455Y-103633586D01*
X152393050Y-103690136D01*
X152372137Y-103737852D01*
X152356651Y-103772181D01*
X152348528Y-103788568D01*
X152348048Y-103789212D01*
X152335293Y-103792341D01*
X152301323Y-103799321D01*
X152249660Y-103809467D01*
X152183824Y-103822092D01*
X152107336Y-103836509D01*
X152062710Y-103844823D01*
X151980979Y-103860384D01*
X151907157Y-103875192D01*
X151844979Y-103888436D01*
X151798178Y-103899305D01*
X151770491Y-103906989D01*
X151764926Y-103909427D01*
X151759474Y-103925930D01*
X151755076Y-103963200D01*
X151751728Y-104016880D01*
X151749426Y-104082612D01*
X151748168Y-104156037D01*
X151747952Y-104232796D01*
X151748773Y-104308532D01*
X151750629Y-104378886D01*
X151753518Y-104439500D01*
X151757435Y-104486016D01*
X151762378Y-104514075D01*
X151765343Y-104519916D01*
X151783066Y-104526917D01*
X151820619Y-104536927D01*
X151873036Y-104548769D01*
X151935348Y-104561267D01*
X151957100Y-104565310D01*
X152061976Y-104584520D01*
X152144820Y-104599991D01*
X152208370Y-104612337D01*
X152255363Y-104622173D01*
X152288537Y-104630114D01*
X152310629Y-104636776D01*
X152324376Y-104642773D01*
X152332516Y-104648719D01*
X152333655Y-104649894D01*
X152345023Y-104668826D01*
X152362365Y-104705669D01*
X152383950Y-104755913D01*
X152408046Y-104815046D01*
X152432921Y-104878556D01*
X152456843Y-104941932D01*
X152478081Y-105000662D01*
X152494903Y-105050235D01*
X152505578Y-105086139D01*
X152508373Y-105103862D01*
X152508140Y-105104483D01*
X152498669Y-105118970D01*
X152477182Y-105150844D01*
X152445937Y-105196789D01*
X152407193Y-105253485D01*
X152363207Y-105317617D01*
X152350681Y-105335842D01*
X152306016Y-105401914D01*
X152266712Y-105462200D01*
X152234912Y-105513235D01*
X152212755Y-105551560D01*
X152202383Y-105573711D01*
X152201881Y-105576432D01*
X152210595Y-105590736D01*
X152234675Y-105619072D01*
X152271024Y-105658396D01*
X152316547Y-105705661D01*
X152368148Y-105757823D01*
X152422733Y-105811835D01*
X152477206Y-105864653D01*
X152528471Y-105913231D01*
X152573433Y-105954523D01*
X152608996Y-105985485D01*
X152632065Y-106003070D01*
X152638446Y-106005941D01*
X152653301Y-105999178D01*
X152683714Y-105980939D01*
X152724732Y-105954297D01*
X152756291Y-105932852D01*
X152813475Y-105893503D01*
X152881194Y-105847171D01*
X152949120Y-105800913D01*
X152985639Y-105776155D01*
X153109248Y-105692547D01*
X153213009Y-105748650D01*
X153260280Y-105773228D01*
X153300477Y-105792331D01*
X153327674Y-105803227D01*
X153334598Y-105804743D01*
X153342923Y-105793549D01*
X153359346Y-105761917D01*
X153382643Y-105712765D01*
X153411586Y-105649010D01*
X153444950Y-105573571D01*
X153481509Y-105489364D01*
X153520036Y-105399308D01*
X153559306Y-105306321D01*
X153598092Y-105213320D01*
X153635170Y-105123223D01*
X153669311Y-105038948D01*
X153699292Y-104963413D01*
X153723884Y-104899534D01*
X153741864Y-104850231D01*
X153752003Y-104818421D01*
X153753634Y-104807496D01*
X153740709Y-104793561D01*
X153712411Y-104770940D01*
X153674654Y-104744333D01*
X153671485Y-104742228D01*
X153573900Y-104664114D01*
X153495214Y-104572982D01*
X153436109Y-104471745D01*
X153397268Y-104363318D01*
X153379372Y-104250614D01*
X153383103Y-104136548D01*
X153409143Y-104024034D01*
X153458175Y-103915985D01*
X153472600Y-103892345D01*
X153547631Y-103796887D01*
X153636270Y-103720232D01*
X153735451Y-103662780D01*
X153842105Y-103624929D01*
X153953164Y-103607078D01*
X154065561Y-103609625D01*
X154176227Y-103632970D01*
X154282094Y-103677510D01*
X154380095Y-103743645D01*
X154410410Y-103770487D01*
X154487562Y-103854512D01*
X154543782Y-103942966D01*
X154582347Y-104042115D01*
X154603826Y-104140303D01*
X154609128Y-104250697D01*
X154591448Y-104361640D01*
X154552581Y-104469381D01*
X154494323Y-104570169D01*
X154418469Y-104660256D01*
X154326817Y-104735892D01*
X154314772Y-104743864D01*
X154276611Y-104769974D01*
X154247601Y-104792595D01*
X154233732Y-104807039D01*
X154233531Y-104807496D01*
X154236508Y-104823121D01*
X154248311Y-104858582D01*
X154267714Y-104910962D01*
X154293488Y-104977345D01*
X154324409Y-105054814D01*
X154359249Y-105140450D01*
X154396783Y-105231337D01*
X154435783Y-105324559D01*
X154475023Y-105417197D01*
X154513276Y-105506335D01*
X154549317Y-105589055D01*
X154581917Y-105662441D01*
X154609852Y-105723575D01*
X154631895Y-105769541D01*
X154646818Y-105797421D01*
X154652828Y-105804743D01*
X154671191Y-105799041D01*
X154705552Y-105783749D01*
X154749984Y-105761599D01*
X154774417Y-105748650D01*
X154878178Y-105692547D01*
X155001787Y-105776155D01*
X155064886Y-105818987D01*
X155133970Y-105866122D01*
X155198707Y-105910503D01*
X155231134Y-105932852D01*
X155276741Y-105963477D01*
X155315360Y-105987747D01*
X155341952Y-106002587D01*
X155350590Y-106005724D01*
X155363161Y-105997261D01*
X155390984Y-105973636D01*
X155431361Y-105937302D01*
X155481595Y-105890711D01*
X155538988Y-105836317D01*
X155575286Y-105801392D01*
X155638790Y-105738996D01*
X155693673Y-105683188D01*
X155737714Y-105636354D01*
X155768695Y-105600882D01*
X155784398Y-105579161D01*
X155785905Y-105574752D01*
X155778914Y-105557985D01*
X155759594Y-105524082D01*
X155730091Y-105476476D01*
X155692545Y-105418599D01*
X155649100Y-105353884D01*
X155636745Y-105335842D01*
X155591727Y-105270267D01*
X155551340Y-105211228D01*
X155517840Y-105162042D01*
X155493486Y-105126028D01*
X155480536Y-105106502D01*
X155479285Y-105104483D01*
X155481156Y-105088922D01*
X155491087Y-105054709D01*
X155507347Y-105006355D01*
X155528205Y-104948371D01*
X155551927Y-104885270D01*
X155576784Y-104821563D01*
X155601042Y-104761761D01*
X155622971Y-104710376D01*
X155640838Y-104671919D01*
X155652913Y-104650902D01*
X155653771Y-104649894D01*
X155661154Y-104643888D01*
X155673625Y-104637948D01*
X155693920Y-104631460D01*
X155724778Y-104623809D01*
X155768934Y-104614380D01*
X155829126Y-104602559D01*
X155908093Y-104587729D01*
X156008570Y-104569277D01*
X156030325Y-104565310D01*
X156094802Y-104552853D01*
X156151011Y-104540666D01*
X156193987Y-104529926D01*
X156218760Y-104521809D01*
X156222082Y-104519916D01*
X156227556Y-104503138D01*
X156232006Y-104465645D01*
X156235428Y-104411794D01*
X156237819Y-104345944D01*
X156239177Y-104272453D01*
X156239499Y-104195680D01*
X156238781Y-104119983D01*
X156237021Y-104049720D01*
X156234216Y-103989250D01*
X156230362Y-103942930D01*
X156225457Y-103915119D01*
X156222500Y-103909427D01*
X156206037Y-103903686D01*
X156168551Y-103894345D01*
X156113775Y-103882215D01*
X156045445Y-103868107D01*
X155967294Y-103852830D01*
X155924716Y-103844823D01*
X155843929Y-103829721D01*
X155771887Y-103816040D01*
X155712111Y-103804467D01*
X155668121Y-103795687D01*
X155643439Y-103790387D01*
X155639377Y-103789212D01*
X155632511Y-103775965D01*
X155617998Y-103744057D01*
X155597771Y-103698047D01*
X155573766Y-103642492D01*
X155547918Y-103581953D01*
X155522160Y-103520986D01*
X155498427Y-103464151D01*
X155478654Y-103416006D01*
X155464776Y-103381110D01*
X155458726Y-103364021D01*
X155458614Y-103363274D01*
X155465472Y-103349793D01*
X155484698Y-103318770D01*
X155514272Y-103273289D01*
X155552173Y-103216432D01*
X155596380Y-103151283D01*
X155622079Y-103113862D01*
X155668907Y-103045247D01*
X155710499Y-102982952D01*
X155744825Y-102930129D01*
X155769857Y-102889927D01*
X155783565Y-102865500D01*
X155785544Y-102860024D01*
X155777034Y-102847278D01*
X155753507Y-102820063D01*
X155717968Y-102781428D01*
X155673423Y-102734423D01*
X155622877Y-102682095D01*
X155569336Y-102627495D01*
X155515805Y-102573670D01*
X155465289Y-102523670D01*
X155420794Y-102480543D01*
X155385325Y-102447339D01*
X155361887Y-102427106D01*
X155354046Y-102422278D01*
X155341280Y-102429067D01*
X155310744Y-102448142D01*
X155265410Y-102477561D01*
X155208244Y-102515381D01*
X155142216Y-102559661D01*
X155092410Y-102593395D01*
X154840764Y-102764512D01*
X154631001Y-102678041D01*
X154421237Y-102591570D01*
X154364389Y-102290018D01*
X154307540Y-101988466D01*
X153679885Y-101988466D01*
X153623036Y-102290018D01*
X153623036Y-102290018D01*
G37*
X153623036Y-102290018D02*
X153566188Y-102591570D01*
X153146662Y-102764512D01*
X152895016Y-102593395D01*
X152824542Y-102545750D01*
X152760837Y-102503210D01*
X152706874Y-102467715D01*
X152665627Y-102441210D01*
X152640066Y-102425636D01*
X152633105Y-102422278D01*
X152620565Y-102430914D01*
X152593769Y-102454792D01*
X152555720Y-102490859D01*
X152509421Y-102536067D01*
X152457877Y-102587364D01*
X152404091Y-102641701D01*
X152351065Y-102696028D01*
X152301805Y-102747295D01*
X152259313Y-102792451D01*
X152226593Y-102828446D01*
X152206649Y-102852230D01*
X152201881Y-102860190D01*
X152208743Y-102874865D01*
X152227980Y-102907014D01*
X152257570Y-102953492D01*
X152295490Y-103011156D01*
X152339718Y-103076860D01*
X152365346Y-103114336D01*
X152412059Y-103182768D01*
X152453568Y-103244520D01*
X152487860Y-103296519D01*
X152512920Y-103335692D01*
X152526736Y-103358965D01*
X152528812Y-103363855D01*
X152524105Y-103377755D01*
X152511277Y-103410150D01*
X152492262Y-103456485D01*
X152468997Y-103512206D01*
X152443416Y-103572758D01*
X152417455Y-103633586D01*
X152393050Y-103690136D01*
X152372137Y-103737852D01*
X152356651Y-103772181D01*
X152348528Y-103788568D01*
X152348048Y-103789212D01*
X152335293Y-103792341D01*
X152301323Y-103799321D01*
X152249660Y-103809467D01*
X152183824Y-103822092D01*
X152107336Y-103836509D01*
X152062710Y-103844823D01*
X151980979Y-103860384D01*
X151907157Y-103875192D01*
X151844979Y-103888436D01*
X151798178Y-103899305D01*
X151770491Y-103906989D01*
X151764926Y-103909427D01*
X151759474Y-103925930D01*
X151755076Y-103963200D01*
X151751728Y-104016880D01*
X151749426Y-104082612D01*
X151748168Y-104156037D01*
X151747952Y-104232796D01*
X151748773Y-104308532D01*
X151750629Y-104378886D01*
X151753518Y-104439500D01*
X151757435Y-104486016D01*
X151762378Y-104514075D01*
X151765343Y-104519916D01*
X151783066Y-104526917D01*
X151820619Y-104536927D01*
X151873036Y-104548769D01*
X151935348Y-104561267D01*
X151957100Y-104565310D01*
X152061976Y-104584520D01*
X152144820Y-104599991D01*
X152208370Y-104612337D01*
X152255363Y-104622173D01*
X152288537Y-104630114D01*
X152310629Y-104636776D01*
X152324376Y-104642773D01*
X152332516Y-104648719D01*
X152333655Y-104649894D01*
X152345023Y-104668826D01*
X152362365Y-104705669D01*
X152383950Y-104755913D01*
X152408046Y-104815046D01*
X152432921Y-104878556D01*
X152456843Y-104941932D01*
X152478081Y-105000662D01*
X152494903Y-105050235D01*
X152505578Y-105086139D01*
X152508373Y-105103862D01*
X152508140Y-105104483D01*
X152498669Y-105118970D01*
X152477182Y-105150844D01*
X152445937Y-105196789D01*
X152407193Y-105253485D01*
X152363207Y-105317617D01*
X152350681Y-105335842D01*
X152306016Y-105401914D01*
X152266712Y-105462200D01*
X152234912Y-105513235D01*
X152212755Y-105551560D01*
X152202383Y-105573711D01*
X152201881Y-105576432D01*
X152210595Y-105590736D01*
X152234675Y-105619072D01*
X152271024Y-105658396D01*
X152316547Y-105705661D01*
X152368148Y-105757823D01*
X152422733Y-105811835D01*
X152477206Y-105864653D01*
X152528471Y-105913231D01*
X152573433Y-105954523D01*
X152608996Y-105985485D01*
X152632065Y-106003070D01*
X152638446Y-106005941D01*
X152653301Y-105999178D01*
X152683714Y-105980939D01*
X152724732Y-105954297D01*
X152756291Y-105932852D01*
X152813475Y-105893503D01*
X152881194Y-105847171D01*
X152949120Y-105800913D01*
X152985639Y-105776155D01*
X153109248Y-105692547D01*
X153213009Y-105748650D01*
X153260280Y-105773228D01*
X153300477Y-105792331D01*
X153327674Y-105803227D01*
X153334598Y-105804743D01*
X153342923Y-105793549D01*
X153359346Y-105761917D01*
X153382643Y-105712765D01*
X153411586Y-105649010D01*
X153444950Y-105573571D01*
X153481509Y-105489364D01*
X153520036Y-105399308D01*
X153559306Y-105306321D01*
X153598092Y-105213320D01*
X153635170Y-105123223D01*
X153669311Y-105038948D01*
X153699292Y-104963413D01*
X153723884Y-104899534D01*
X153741864Y-104850231D01*
X153752003Y-104818421D01*
X153753634Y-104807496D01*
X153740709Y-104793561D01*
X153712411Y-104770940D01*
X153674654Y-104744333D01*
X153671485Y-104742228D01*
X153573900Y-104664114D01*
X153495214Y-104572982D01*
X153436109Y-104471745D01*
X153397268Y-104363318D01*
X153379372Y-104250614D01*
X153383103Y-104136548D01*
X153409143Y-104024034D01*
X153458175Y-103915985D01*
X153472600Y-103892345D01*
X153547631Y-103796887D01*
X153636270Y-103720232D01*
X153735451Y-103662780D01*
X153842105Y-103624929D01*
X153953164Y-103607078D01*
X154065561Y-103609625D01*
X154176227Y-103632970D01*
X154282094Y-103677510D01*
X154380095Y-103743645D01*
X154410410Y-103770487D01*
X154487562Y-103854512D01*
X154543782Y-103942966D01*
X154582347Y-104042115D01*
X154603826Y-104140303D01*
X154609128Y-104250697D01*
X154591448Y-104361640D01*
X154552581Y-104469381D01*
X154494323Y-104570169D01*
X154418469Y-104660256D01*
X154326817Y-104735892D01*
X154314772Y-104743864D01*
X154276611Y-104769974D01*
X154247601Y-104792595D01*
X154233732Y-104807039D01*
X154233531Y-104807496D01*
X154236508Y-104823121D01*
X154248311Y-104858582D01*
X154267714Y-104910962D01*
X154293488Y-104977345D01*
X154324409Y-105054814D01*
X154359249Y-105140450D01*
X154396783Y-105231337D01*
X154435783Y-105324559D01*
X154475023Y-105417197D01*
X154513276Y-105506335D01*
X154549317Y-105589055D01*
X154581917Y-105662441D01*
X154609852Y-105723575D01*
X154631895Y-105769541D01*
X154646818Y-105797421D01*
X154652828Y-105804743D01*
X154671191Y-105799041D01*
X154705552Y-105783749D01*
X154749984Y-105761599D01*
X154774417Y-105748650D01*
X154878178Y-105692547D01*
X155001787Y-105776155D01*
X155064886Y-105818987D01*
X155133970Y-105866122D01*
X155198707Y-105910503D01*
X155231134Y-105932852D01*
X155276741Y-105963477D01*
X155315360Y-105987747D01*
X155341952Y-106002587D01*
X155350590Y-106005724D01*
X155363161Y-105997261D01*
X155390984Y-105973636D01*
X155431361Y-105937302D01*
X155481595Y-105890711D01*
X155538988Y-105836317D01*
X155575286Y-105801392D01*
X155638790Y-105738996D01*
X155693673Y-105683188D01*
X155737714Y-105636354D01*
X155768695Y-105600882D01*
X155784398Y-105579161D01*
X155785905Y-105574752D01*
X155778914Y-105557985D01*
X155759594Y-105524082D01*
X155730091Y-105476476D01*
X155692545Y-105418599D01*
X155649100Y-105353884D01*
X155636745Y-105335842D01*
X155591727Y-105270267D01*
X155551340Y-105211228D01*
X155517840Y-105162042D01*
X155493486Y-105126028D01*
X155480536Y-105106502D01*
X155479285Y-105104483D01*
X155481156Y-105088922D01*
X155491087Y-105054709D01*
X155507347Y-105006355D01*
X155528205Y-104948371D01*
X155551927Y-104885270D01*
X155576784Y-104821563D01*
X155601042Y-104761761D01*
X155622971Y-104710376D01*
X155640838Y-104671919D01*
X155652913Y-104650902D01*
X155653771Y-104649894D01*
X155661154Y-104643888D01*
X155673625Y-104637948D01*
X155693920Y-104631460D01*
X155724778Y-104623809D01*
X155768934Y-104614380D01*
X155829126Y-104602559D01*
X155908093Y-104587729D01*
X156008570Y-104569277D01*
X156030325Y-104565310D01*
X156094802Y-104552853D01*
X156151011Y-104540666D01*
X156193987Y-104529926D01*
X156218760Y-104521809D01*
X156222082Y-104519916D01*
X156227556Y-104503138D01*
X156232006Y-104465645D01*
X156235428Y-104411794D01*
X156237819Y-104345944D01*
X156239177Y-104272453D01*
X156239499Y-104195680D01*
X156238781Y-104119983D01*
X156237021Y-104049720D01*
X156234216Y-103989250D01*
X156230362Y-103942930D01*
X156225457Y-103915119D01*
X156222500Y-103909427D01*
X156206037Y-103903686D01*
X156168551Y-103894345D01*
X156113775Y-103882215D01*
X156045445Y-103868107D01*
X155967294Y-103852830D01*
X155924716Y-103844823D01*
X155843929Y-103829721D01*
X155771887Y-103816040D01*
X155712111Y-103804467D01*
X155668121Y-103795687D01*
X155643439Y-103790387D01*
X155639377Y-103789212D01*
X155632511Y-103775965D01*
X155617998Y-103744057D01*
X155597771Y-103698047D01*
X155573766Y-103642492D01*
X155547918Y-103581953D01*
X155522160Y-103520986D01*
X155498427Y-103464151D01*
X155478654Y-103416006D01*
X155464776Y-103381110D01*
X155458726Y-103364021D01*
X155458614Y-103363274D01*
X155465472Y-103349793D01*
X155484698Y-103318770D01*
X155514272Y-103273289D01*
X155552173Y-103216432D01*
X155596380Y-103151283D01*
X155622079Y-103113862D01*
X155668907Y-103045247D01*
X155710499Y-102982952D01*
X155744825Y-102930129D01*
X155769857Y-102889927D01*
X155783565Y-102865500D01*
X155785544Y-102860024D01*
X155777034Y-102847278D01*
X155753507Y-102820063D01*
X155717968Y-102781428D01*
X155673423Y-102734423D01*
X155622877Y-102682095D01*
X155569336Y-102627495D01*
X155515805Y-102573670D01*
X155465289Y-102523670D01*
X155420794Y-102480543D01*
X155385325Y-102447339D01*
X155361887Y-102427106D01*
X155354046Y-102422278D01*
X155341280Y-102429067D01*
X155310744Y-102448142D01*
X155265410Y-102477561D01*
X155208244Y-102515381D01*
X155142216Y-102559661D01*
X155092410Y-102593395D01*
X154840764Y-102764512D01*
X154631001Y-102678041D01*
X154421237Y-102591570D01*
X154364389Y-102290018D01*
X154307540Y-101988466D01*
X153679885Y-101988466D01*
X153623036Y-102290018D01*
G36*
X152200540Y-106458030D02*
G01*
X152157289Y-106471245D01*
X152129442Y-106487941D01*
X152120371Y-106501145D01*
X152122868Y-106516797D01*
X152139069Y-106541385D01*
X152152768Y-106558800D01*
X152181008Y-106590283D01*
X152202225Y-106603529D01*
X152220312Y-106602664D01*
X152273965Y-106589010D01*
X152313370Y-106589630D01*
X152345368Y-106605104D01*
X152356110Y-106614161D01*
X152390495Y-106646027D01*
X152390495Y-107062179D01*
X152528812Y-107062179D01*
X152528812Y-106458614D01*
X152459653Y-106458614D01*
X152418131Y-106460256D01*
X152396709Y-106466087D01*
X152390498Y-106477461D01*
X152390495Y-106477798D01*
X152387561Y-106489713D01*
X152374296Y-106488159D01*
X152355916Y-106479563D01*
X152317954Y-106463568D01*
X152287128Y-106453945D01*
X152247464Y-106451478D01*
X152200540Y-106458030D01*
X152200540Y-106458030D01*
G37*
X152200540Y-106458030D02*
X152157289Y-106471245D01*
X152129442Y-106487941D01*
X152120371Y-106501145D01*
X152122868Y-106516797D01*
X152139069Y-106541385D01*
X152152768Y-106558800D01*
X152181008Y-106590283D01*
X152202225Y-106603529D01*
X152220312Y-106602664D01*
X152273965Y-106589010D01*
X152313370Y-106589630D01*
X152345368Y-106605104D01*
X152356110Y-106614161D01*
X152390495Y-106646027D01*
X152390495Y-107062179D01*
X152528812Y-107062179D01*
X152528812Y-106458614D01*
X152459653Y-106458614D01*
X152418131Y-106460256D01*
X152396709Y-106466087D01*
X152390498Y-106477461D01*
X152390495Y-106477798D01*
X152387561Y-106489713D01*
X152374296Y-106488159D01*
X152355916Y-106479563D01*
X152317954Y-106463568D01*
X152287128Y-106453945D01*
X152247464Y-106451478D01*
X152200540Y-106458030D01*
G36*
X154754012Y-106469002D02*
G01*
X154722717Y-106483950D01*
X154692409Y-106505541D01*
X154669318Y-106530391D01*
X154652500Y-106562087D01*
X154641006Y-106604214D01*
X154633891Y-106660358D01*
X154630207Y-106734106D01*
X154629008Y-106829044D01*
X154628989Y-106838985D01*
X154628713Y-107062179D01*
X154767030Y-107062179D01*
X154767030Y-106856418D01*
X154767128Y-106780189D01*
X154767809Y-106724939D01*
X154769651Y-106686501D01*
X154773233Y-106660706D01*
X154779132Y-106643384D01*
X154787927Y-106630368D01*
X154800180Y-106617507D01*
X154843047Y-106589873D01*
X154889843Y-106584745D01*
X154934424Y-106602217D01*
X154949928Y-106615221D01*
X154961310Y-106627447D01*
X154969481Y-106640540D01*
X154974974Y-106658615D01*
X154978320Y-106685787D01*
X154980051Y-106726170D01*
X154980697Y-106783879D01*
X154980792Y-106854132D01*
X154980792Y-107062179D01*
X155119109Y-107062179D01*
X155119109Y-106458614D01*
X155049950Y-106458614D01*
X155008428Y-106460256D01*
X154987006Y-106466087D01*
X154980795Y-106477461D01*
X154980792Y-106477798D01*
X154977910Y-106488938D01*
X154965199Y-106487674D01*
X154939926Y-106475434D01*
X154882605Y-106457424D01*
X154817037Y-106455421D01*
X154754012Y-106469002D01*
X154754012Y-106469002D01*
G37*
X154754012Y-106469002D02*
X154722717Y-106483950D01*
X154692409Y-106505541D01*
X154669318Y-106530391D01*
X154652500Y-106562087D01*
X154641006Y-106604214D01*
X154633891Y-106660358D01*
X154630207Y-106734106D01*
X154629008Y-106829044D01*
X154628989Y-106838985D01*
X154628713Y-107062179D01*
X154767030Y-107062179D01*
X154767030Y-106856418D01*
X154767128Y-106780189D01*
X154767809Y-106724939D01*
X154769651Y-106686501D01*
X154773233Y-106660706D01*
X154779132Y-106643384D01*
X154787927Y-106630368D01*
X154800180Y-106617507D01*
X154843047Y-106589873D01*
X154889843Y-106584745D01*
X154934424Y-106602217D01*
X154949928Y-106615221D01*
X154961310Y-106627447D01*
X154969481Y-106640540D01*
X154974974Y-106658615D01*
X154978320Y-106685787D01*
X154980051Y-106726170D01*
X154980697Y-106783879D01*
X154980792Y-106854132D01*
X154980792Y-107062179D01*
X155119109Y-107062179D01*
X155119109Y-106458614D01*
X155049950Y-106458614D01*
X155008428Y-106460256D01*
X154987006Y-106466087D01*
X154980795Y-106477461D01*
X154980792Y-106477798D01*
X154977910Y-106488938D01*
X154965199Y-106487674D01*
X154939926Y-106475434D01*
X154882605Y-106457424D01*
X154817037Y-106455421D01*
X154754012Y-106469002D01*
G36*
X151322102Y-106456457D02*
G01*
X151289904Y-106464279D01*
X151228175Y-106492921D01*
X151175390Y-106536667D01*
X151138859Y-106589117D01*
X151133840Y-106600893D01*
X151126955Y-106631740D01*
X151122136Y-106677371D01*
X151120495Y-106723492D01*
X151120495Y-106810693D01*
X151302822Y-106810693D01*
X151378021Y-106810978D01*
X151430997Y-106812704D01*
X151464675Y-106817181D01*
X151481980Y-106825720D01*
X151485837Y-106839630D01*
X151479171Y-106860222D01*
X151467230Y-106884315D01*
X151433920Y-106924525D01*
X151387632Y-106944558D01*
X151331056Y-106943905D01*
X151266969Y-106922101D01*
X151211583Y-106895193D01*
X151165625Y-106931532D01*
X151119667Y-106967872D01*
X151162904Y-107007819D01*
X151220626Y-107045563D01*
X151291614Y-107068320D01*
X151367971Y-107074688D01*
X151441801Y-107063268D01*
X151453713Y-107059393D01*
X151518601Y-107025506D01*
X151566870Y-106974986D01*
X151599535Y-106906325D01*
X151617615Y-106818014D01*
X151617825Y-106816121D01*
X151619444Y-106719878D01*
X151612900Y-106685542D01*
X151485148Y-106685542D01*
X151473416Y-106690822D01*
X151441562Y-106694867D01*
X151394603Y-106697176D01*
X151364846Y-106697525D01*
X151309352Y-106697306D01*
X151274654Y-106695916D01*
X151256399Y-106692251D01*
X151250234Y-106685210D01*
X151251805Y-106673690D01*
X151253122Y-106669233D01*
X151275618Y-106627355D01*
X151310997Y-106593604D01*
X151342220Y-106578773D01*
X151383699Y-106579668D01*
X151425731Y-106598164D01*
X151460988Y-106628786D01*
X151482146Y-106666062D01*
X151485148Y-106685542D01*
X151612900Y-106685542D01*
X151603310Y-106635229D01*
X151571302Y-106564191D01*
X151525299Y-106508779D01*
X151467179Y-106471009D01*
X151398820Y-106452896D01*
X151322102Y-106456457D01*
X151322102Y-106456457D01*
G37*
X151322102Y-106456457D02*
X151289904Y-106464279D01*
X151228175Y-106492921D01*
X151175390Y-106536667D01*
X151138859Y-106589117D01*
X151133840Y-106600893D01*
X151126955Y-106631740D01*
X151122136Y-106677371D01*
X151120495Y-106723492D01*
X151120495Y-106810693D01*
X151302822Y-106810693D01*
X151378021Y-106810978D01*
X151430997Y-106812704D01*
X151464675Y-106817181D01*
X151481980Y-106825720D01*
X151485837Y-106839630D01*
X151479171Y-106860222D01*
X151467230Y-106884315D01*
X151433920Y-106924525D01*
X151387632Y-106944558D01*
X151331056Y-106943905D01*
X151266969Y-106922101D01*
X151211583Y-106895193D01*
X151165625Y-106931532D01*
X151119667Y-106967872D01*
X151162904Y-107007819D01*
X151220626Y-107045563D01*
X151291614Y-107068320D01*
X151367971Y-107074688D01*
X151441801Y-107063268D01*
X151453713Y-107059393D01*
X151518601Y-107025506D01*
X151566870Y-106974986D01*
X151599535Y-106906325D01*
X151617615Y-106818014D01*
X151617825Y-106816121D01*
X151619444Y-106719878D01*
X151612900Y-106685542D01*
X151485148Y-106685542D01*
X151473416Y-106690822D01*
X151441562Y-106694867D01*
X151394603Y-106697176D01*
X151364846Y-106697525D01*
X151309352Y-106697306D01*
X151274654Y-106695916D01*
X151256399Y-106692251D01*
X151250234Y-106685210D01*
X151251805Y-106673690D01*
X151253122Y-106669233D01*
X151275618Y-106627355D01*
X151310997Y-106593604D01*
X151342220Y-106578773D01*
X151383699Y-106579668D01*
X151425731Y-106598164D01*
X151460988Y-106628786D01*
X151482146Y-106666062D01*
X151485148Y-106685542D01*
X151612900Y-106685542D01*
X151603310Y-106635229D01*
X151571302Y-106564191D01*
X151525299Y-106508779D01*
X151467179Y-106471009D01*
X151398820Y-106452896D01*
X151322102Y-106456457D01*
G36*
X151782774Y-106463880D02*
G01*
X151709920Y-106494830D01*
X151686973Y-106509895D01*
X151657646Y-106533048D01*
X151639236Y-106551253D01*
X151636039Y-106557183D01*
X151645065Y-106570340D01*
X151668163Y-106592667D01*
X151686656Y-106608250D01*
X151737272Y-106648926D01*
X151777240Y-106615295D01*
X151808126Y-106593584D01*
X151838241Y-106586090D01*
X151872708Y-106587920D01*
X151927439Y-106601528D01*
X151965114Y-106629772D01*
X151988009Y-106675433D01*
X151998403Y-106741289D01*
X151998405Y-106741331D01*
X151997506Y-106814939D01*
X151983537Y-106868946D01*
X151955672Y-106905716D01*
X151936675Y-106918168D01*
X151886224Y-106933673D01*
X151832337Y-106933683D01*
X151785454Y-106918638D01*
X151774356Y-106911287D01*
X151746524Y-106892511D01*
X151724764Y-106889434D01*
X151701296Y-106903409D01*
X151675351Y-106928510D01*
X151634284Y-106970880D01*
X151679879Y-107008464D01*
X151750326Y-107050882D01*
X151829767Y-107071785D01*
X151912785Y-107070272D01*
X151967306Y-107056411D01*
X152031030Y-107022135D01*
X152081995Y-106968212D01*
X152105149Y-106930149D01*
X152123901Y-106875536D01*
X152133285Y-106806369D01*
X152133357Y-106731407D01*
X152124176Y-106659409D01*
X152105801Y-106599137D01*
X152102907Y-106592958D01*
X152060048Y-106532351D01*
X152002021Y-106488224D01*
X151933409Y-106461493D01*
X151858799Y-106453073D01*
X151782774Y-106463880D01*
X151782774Y-106463880D01*
G37*
X151782774Y-106463880D02*
X151709920Y-106494830D01*
X151686973Y-106509895D01*
X151657646Y-106533048D01*
X151639236Y-106551253D01*
X151636039Y-106557183D01*
X151645065Y-106570340D01*
X151668163Y-106592667D01*
X151686656Y-106608250D01*
X151737272Y-106648926D01*
X151777240Y-106615295D01*
X151808126Y-106593584D01*
X151838241Y-106586090D01*
X151872708Y-106587920D01*
X151927439Y-106601528D01*
X151965114Y-106629772D01*
X151988009Y-106675433D01*
X151998403Y-106741289D01*
X151998405Y-106741331D01*
X151997506Y-106814939D01*
X151983537Y-106868946D01*
X151955672Y-106905716D01*
X151936675Y-106918168D01*
X151886224Y-106933673D01*
X151832337Y-106933683D01*
X151785454Y-106918638D01*
X151774356Y-106911287D01*
X151746524Y-106892511D01*
X151724764Y-106889434D01*
X151701296Y-106903409D01*
X151675351Y-106928510D01*
X151634284Y-106970880D01*
X151679879Y-107008464D01*
X151750326Y-107050882D01*
X151829767Y-107071785D01*
X151912785Y-107070272D01*
X151967306Y-107056411D01*
X152031030Y-107022135D01*
X152081995Y-106968212D01*
X152105149Y-106930149D01*
X152123901Y-106875536D01*
X152133285Y-106806369D01*
X152133357Y-106731407D01*
X152124176Y-106659409D01*
X152105801Y-106599137D01*
X152102907Y-106592958D01*
X152060048Y-106532351D01*
X152002021Y-106488224D01*
X151933409Y-106461493D01*
X151858799Y-106453073D01*
X151782774Y-106463880D01*
G36*
X153006633Y-106654342D02*
G01*
X153005445Y-106746563D01*
X153001103Y-106816610D01*
X152992442Y-106867381D01*
X152978296Y-106901772D01*
X152957500Y-106922679D01*
X152928890Y-106933000D01*
X152893465Y-106935636D01*
X152856364Y-106932682D01*
X152828182Y-106921889D01*
X152807757Y-106900360D01*
X152793921Y-106865199D01*
X152785509Y-106813510D01*
X152781357Y-106742394D01*
X152780297Y-106654342D01*
X152780297Y-106458614D01*
X152641980Y-106458614D01*
X152641980Y-107062179D01*
X152711138Y-107062179D01*
X152752830Y-107060489D01*
X152774299Y-107054556D01*
X152780297Y-107043293D01*
X152783909Y-107033261D01*
X152798286Y-107035383D01*
X152827264Y-107049580D01*
X152893681Y-107071480D01*
X152964125Y-107069928D01*
X153031623Y-107046147D01*
X153063767Y-107027362D01*
X153088285Y-107007022D01*
X153106196Y-106981573D01*
X153118521Y-106947458D01*
X153126277Y-106901121D01*
X153130484Y-106839007D01*
X153132160Y-106757561D01*
X153132376Y-106694578D01*
X153132376Y-106458614D01*
X153006633Y-106458614D01*
X153006633Y-106654342D01*
X153006633Y-106654342D01*
G37*
X153006633Y-106654342D02*
X153005445Y-106746563D01*
X153001103Y-106816610D01*
X152992442Y-106867381D01*
X152978296Y-106901772D01*
X152957500Y-106922679D01*
X152928890Y-106933000D01*
X152893465Y-106935636D01*
X152856364Y-106932682D01*
X152828182Y-106921889D01*
X152807757Y-106900360D01*
X152793921Y-106865199D01*
X152785509Y-106813510D01*
X152781357Y-106742394D01*
X152780297Y-106654342D01*
X152780297Y-106458614D01*
X152641980Y-106458614D01*
X152641980Y-107062179D01*
X152711138Y-107062179D01*
X152752830Y-107060489D01*
X152774299Y-107054556D01*
X152780297Y-107043293D01*
X152783909Y-107033261D01*
X152798286Y-107035383D01*
X152827264Y-107049580D01*
X152893681Y-107071480D01*
X152964125Y-107069928D01*
X153031623Y-107046147D01*
X153063767Y-107027362D01*
X153088285Y-107007022D01*
X153106196Y-106981573D01*
X153118521Y-106947458D01*
X153126277Y-106901121D01*
X153130484Y-106839007D01*
X153132160Y-106757561D01*
X153132376Y-106694578D01*
X153132376Y-106458614D01*
X153006633Y-106458614D01*
X153006633Y-106654342D01*
G36*
X153389238Y-106466055D02*
G01*
X153325637Y-106500692D01*
X153275877Y-106555372D01*
X153252432Y-106599842D01*
X153242366Y-106639121D01*
X153235844Y-106695116D01*
X153233049Y-106759621D01*
X153234164Y-106824429D01*
X153239374Y-106881334D01*
X153245459Y-106911727D01*
X153265986Y-106953306D01*
X153301537Y-106997468D01*
X153344381Y-107036087D01*
X153386789Y-107061034D01*
X153387823Y-107061430D01*
X153440447Y-107072331D01*
X153502812Y-107072601D01*
X153562076Y-107062676D01*
X153584960Y-107054722D01*
X153643898Y-107021300D01*
X153686110Y-106977511D01*
X153713844Y-106919538D01*
X153729349Y-106843565D01*
X153732857Y-106803771D01*
X153732410Y-106753766D01*
X153597624Y-106753766D01*
X153593083Y-106826732D01*
X153580014Y-106882334D01*
X153559244Y-106917861D01*
X153544448Y-106928020D01*
X153506536Y-106935104D01*
X153461473Y-106933007D01*
X153422513Y-106922812D01*
X153412296Y-106917204D01*
X153385341Y-106884538D01*
X153367549Y-106834545D01*
X153359976Y-106773705D01*
X153363675Y-106708497D01*
X153371943Y-106669253D01*
X153395680Y-106623805D01*
X153433151Y-106595396D01*
X153478280Y-106585573D01*
X153524989Y-106595887D01*
X153560868Y-106621112D01*
X153579723Y-106641925D01*
X153590728Y-106662439D01*
X153595974Y-106690203D01*
X153597551Y-106732762D01*
X153597624Y-106753766D01*
X153732410Y-106753766D01*
X153731906Y-106697580D01*
X153714612Y-106610501D01*
X153680971Y-106542530D01*
X153630982Y-106493664D01*
X153564644Y-106463899D01*
X153550399Y-106460448D01*
X153464790Y-106452345D01*
X153389238Y-106466055D01*
X153389238Y-106466055D01*
G37*
X153389238Y-106466055D02*
X153325637Y-106500692D01*
X153275877Y-106555372D01*
X153252432Y-106599842D01*
X153242366Y-106639121D01*
X153235844Y-106695116D01*
X153233049Y-106759621D01*
X153234164Y-106824429D01*
X153239374Y-106881334D01*
X153245459Y-106911727D01*
X153265986Y-106953306D01*
X153301537Y-106997468D01*
X153344381Y-107036087D01*
X153386789Y-107061034D01*
X153387823Y-107061430D01*
X153440447Y-107072331D01*
X153502812Y-107072601D01*
X153562076Y-107062676D01*
X153584960Y-107054722D01*
X153643898Y-107021300D01*
X153686110Y-106977511D01*
X153713844Y-106919538D01*
X153729349Y-106843565D01*
X153732857Y-106803771D01*
X153732410Y-106753766D01*
X153597624Y-106753766D01*
X153593083Y-106826732D01*
X153580014Y-106882334D01*
X153559244Y-106917861D01*
X153544448Y-106928020D01*
X153506536Y-106935104D01*
X153461473Y-106933007D01*
X153422513Y-106922812D01*
X153412296Y-106917204D01*
X153385341Y-106884538D01*
X153367549Y-106834545D01*
X153359976Y-106773705D01*
X153363675Y-106708497D01*
X153371943Y-106669253D01*
X153395680Y-106623805D01*
X153433151Y-106595396D01*
X153478280Y-106585573D01*
X153524989Y-106595887D01*
X153560868Y-106621112D01*
X153579723Y-106641925D01*
X153590728Y-106662439D01*
X153595974Y-106690203D01*
X153597551Y-106732762D01*
X153597624Y-106753766D01*
X153732410Y-106753766D01*
X153731906Y-106697580D01*
X153714612Y-106610501D01*
X153680971Y-106542530D01*
X153630982Y-106493664D01*
X153564644Y-106463899D01*
X153550399Y-106460448D01*
X153464790Y-106452345D01*
X153389238Y-106466055D01*
G36*
X153985983Y-106456452D02*
G01*
X153938366Y-106465482D01*
X153888966Y-106484370D01*
X153883688Y-106486777D01*
X153846226Y-106506476D01*
X153820283Y-106524781D01*
X153811897Y-106536508D01*
X153819883Y-106555632D01*
X153839280Y-106583850D01*
X153847890Y-106594384D01*
X153883372Y-106635847D01*
X153929115Y-106608858D01*
X153972650Y-106590878D01*
X154022950Y-106581267D01*
X154071188Y-106580660D01*
X154108533Y-106589691D01*
X154117495Y-106595327D01*
X154134563Y-106621171D01*
X154136637Y-106650941D01*
X154123866Y-106674197D01*
X154116312Y-106678708D01*
X154093675Y-106684309D01*
X154053885Y-106690892D01*
X154004834Y-106697183D01*
X153995785Y-106698170D01*
X153917004Y-106711798D01*
X153859864Y-106734946D01*
X153821970Y-106769752D01*
X153800921Y-106818354D01*
X153794365Y-106877718D01*
X153803423Y-106945198D01*
X153832836Y-106998188D01*
X153882722Y-107036783D01*
X153953200Y-107061081D01*
X154031435Y-107070667D01*
X154095234Y-107070552D01*
X154146984Y-107061845D01*
X154182327Y-107049825D01*
X154226983Y-107028880D01*
X154268253Y-107004574D01*
X154282921Y-106993876D01*
X154320643Y-106963084D01*
X154275148Y-106917049D01*
X154229653Y-106871013D01*
X154177928Y-106905243D01*
X154126048Y-106930952D01*
X154070649Y-106944399D01*
X154017395Y-106945818D01*
X153971951Y-106935443D01*
X153939984Y-106913507D01*
X153929662Y-106894998D01*
X153931211Y-106865314D01*
X153956860Y-106842615D01*
X154006540Y-106826940D01*
X154060969Y-106819695D01*
X154144736Y-106805873D01*
X154206967Y-106779796D01*
X154248493Y-106740699D01*
X154270147Y-106687820D01*
X154273147Y-106625126D01*
X154258329Y-106559642D01*
X154224546Y-106510144D01*
X154171495Y-106476408D01*
X154098874Y-106458207D01*
X154045072Y-106454639D01*
X153985983Y-106456452D01*
X153985983Y-106456452D01*
G37*
X153985983Y-106456452D02*
X153938366Y-106465482D01*
X153888966Y-106484370D01*
X153883688Y-106486777D01*
X153846226Y-106506476D01*
X153820283Y-106524781D01*
X153811897Y-106536508D01*
X153819883Y-106555632D01*
X153839280Y-106583850D01*
X153847890Y-106594384D01*
X153883372Y-106635847D01*
X153929115Y-106608858D01*
X153972650Y-106590878D01*
X154022950Y-106581267D01*
X154071188Y-106580660D01*
X154108533Y-106589691D01*
X154117495Y-106595327D01*
X154134563Y-106621171D01*
X154136637Y-106650941D01*
X154123866Y-106674197D01*
X154116312Y-106678708D01*
X154093675Y-106684309D01*
X154053885Y-106690892D01*
X154004834Y-106697183D01*
X153995785Y-106698170D01*
X153917004Y-106711798D01*
X153859864Y-106734946D01*
X153821970Y-106769752D01*
X153800921Y-106818354D01*
X153794365Y-106877718D01*
X153803423Y-106945198D01*
X153832836Y-106998188D01*
X153882722Y-107036783D01*
X153953200Y-107061081D01*
X154031435Y-107070667D01*
X154095234Y-107070552D01*
X154146984Y-107061845D01*
X154182327Y-107049825D01*
X154226983Y-107028880D01*
X154268253Y-107004574D01*
X154282921Y-106993876D01*
X154320643Y-106963084D01*
X154275148Y-106917049D01*
X154229653Y-106871013D01*
X154177928Y-106905243D01*
X154126048Y-106930952D01*
X154070649Y-106944399D01*
X154017395Y-106945818D01*
X153971951Y-106935443D01*
X153939984Y-106913507D01*
X153929662Y-106894998D01*
X153931211Y-106865314D01*
X153956860Y-106842615D01*
X154006540Y-106826940D01*
X154060969Y-106819695D01*
X154144736Y-106805873D01*
X154206967Y-106779796D01*
X154248493Y-106740699D01*
X154270147Y-106687820D01*
X154273147Y-106625126D01*
X154258329Y-106559642D01*
X154224546Y-106510144D01*
X154171495Y-106476408D01*
X154098874Y-106458207D01*
X154045072Y-106454639D01*
X153985983Y-106456452D01*
G36*
X155356699Y-106472614D02*
G01*
X155344168Y-106478514D01*
X155300799Y-106510283D01*
X155259790Y-106556646D01*
X155229168Y-106607696D01*
X155220459Y-106631166D01*
X155212512Y-106673091D01*
X155207774Y-106723757D01*
X155207199Y-106744679D01*
X155207129Y-106810693D01*
X155587083Y-106810693D01*
X155578983Y-106845273D01*
X155559104Y-106886170D01*
X155524347Y-106921514D01*
X155482998Y-106944282D01*
X155456649Y-106949010D01*
X155420916Y-106943273D01*
X155378282Y-106928882D01*
X155363799Y-106922262D01*
X155310240Y-106895513D01*
X155264533Y-106930376D01*
X155238158Y-106953955D01*
X155224124Y-106973417D01*
X155223414Y-106979129D01*
X155235951Y-106992973D01*
X155263428Y-107014012D01*
X155288366Y-107030425D01*
X155355664Y-107059930D01*
X155431110Y-107073284D01*
X155505888Y-107069812D01*
X155565495Y-107051663D01*
X155626941Y-107012784D01*
X155670608Y-106961595D01*
X155697926Y-106895367D01*
X155710322Y-106811371D01*
X155711421Y-106772936D01*
X155707022Y-106684861D01*
X155706482Y-106682299D01*
X155580582Y-106682299D01*
X155577115Y-106690558D01*
X155562863Y-106695113D01*
X155533470Y-106697065D01*
X155484575Y-106697517D01*
X155465748Y-106697525D01*
X155408467Y-106696843D01*
X155372141Y-106694364D01*
X155352604Y-106689443D01*
X155345690Y-106681434D01*
X155345445Y-106678862D01*
X155353336Y-106658423D01*
X155373085Y-106629789D01*
X155381575Y-106619763D01*
X155413094Y-106591408D01*
X155445949Y-106580259D01*
X155463651Y-106579327D01*
X155511539Y-106590981D01*
X155551699Y-106622285D01*
X155577173Y-106667752D01*
X155577625Y-106669233D01*
X155580582Y-106682299D01*
X155706482Y-106682299D01*
X155692392Y-106615510D01*
X155666038Y-106560025D01*
X155633807Y-106520639D01*
X155574217Y-106477931D01*
X155504168Y-106455109D01*
X155429661Y-106453046D01*
X155356699Y-106472614D01*
X155356699Y-106472614D01*
G37*
X155356699Y-106472614D02*
X155344168Y-106478514D01*
X155300799Y-106510283D01*
X155259790Y-106556646D01*
X155229168Y-106607696D01*
X155220459Y-106631166D01*
X155212512Y-106673091D01*
X155207774Y-106723757D01*
X155207199Y-106744679D01*
X155207129Y-106810693D01*
X155587083Y-106810693D01*
X155578983Y-106845273D01*
X155559104Y-106886170D01*
X155524347Y-106921514D01*
X155482998Y-106944282D01*
X155456649Y-106949010D01*
X155420916Y-106943273D01*
X155378282Y-106928882D01*
X155363799Y-106922262D01*
X155310240Y-106895513D01*
X155264533Y-106930376D01*
X155238158Y-106953955D01*
X155224124Y-106973417D01*
X155223414Y-106979129D01*
X155235951Y-106992973D01*
X155263428Y-107014012D01*
X155288366Y-107030425D01*
X155355664Y-107059930D01*
X155431110Y-107073284D01*
X155505888Y-107069812D01*
X155565495Y-107051663D01*
X155626941Y-107012784D01*
X155670608Y-106961595D01*
X155697926Y-106895367D01*
X155710322Y-106811371D01*
X155711421Y-106772936D01*
X155707022Y-106684861D01*
X155706482Y-106682299D01*
X155580582Y-106682299D01*
X155577115Y-106690558D01*
X155562863Y-106695113D01*
X155533470Y-106697065D01*
X155484575Y-106697517D01*
X155465748Y-106697525D01*
X155408467Y-106696843D01*
X155372141Y-106694364D01*
X155352604Y-106689443D01*
X155345690Y-106681434D01*
X155345445Y-106678862D01*
X155353336Y-106658423D01*
X155373085Y-106629789D01*
X155381575Y-106619763D01*
X155413094Y-106591408D01*
X155445949Y-106580259D01*
X155463651Y-106579327D01*
X155511539Y-106590981D01*
X155551699Y-106622285D01*
X155577173Y-106667752D01*
X155577625Y-106669233D01*
X155580582Y-106682299D01*
X155706482Y-106682299D01*
X155692392Y-106615510D01*
X155666038Y-106560025D01*
X155633807Y-106520639D01*
X155574217Y-106477931D01*
X155504168Y-106455109D01*
X155429661Y-106453046D01*
X155356699Y-106472614D01*
G36*
X156538261Y-106465148D02*
G01*
X156472479Y-106494231D01*
X156422540Y-106542793D01*
X156388374Y-106610908D01*
X156369907Y-106698651D01*
X156368583Y-106712351D01*
X156367546Y-106808939D01*
X156380993Y-106893602D01*
X156408108Y-106962221D01*
X156422627Y-106984294D01*
X156473201Y-107031011D01*
X156537609Y-107061268D01*
X156609666Y-107073824D01*
X156683185Y-107067439D01*
X156739072Y-107047772D01*
X156787132Y-107014629D01*
X156826412Y-106971175D01*
X156827092Y-106970158D01*
X156843044Y-106943338D01*
X156853410Y-106916368D01*
X156859688Y-106882332D01*
X156863373Y-106834310D01*
X156864997Y-106794931D01*
X156865672Y-106759219D01*
X156739955Y-106759219D01*
X156738726Y-106794770D01*
X156734266Y-106842094D01*
X156726397Y-106872465D01*
X156712207Y-106894072D01*
X156698917Y-106906694D01*
X156651802Y-106933122D01*
X156602505Y-106936653D01*
X156556593Y-106917639D01*
X156533638Y-106896331D01*
X156517096Y-106874859D01*
X156507421Y-106854313D01*
X156503174Y-106827574D01*
X156502920Y-106787523D01*
X156504228Y-106750638D01*
X156507043Y-106697947D01*
X156511505Y-106663772D01*
X156519548Y-106641480D01*
X156533103Y-106624442D01*
X156543845Y-106614703D01*
X156588777Y-106589123D01*
X156637249Y-106587847D01*
X156677894Y-106602999D01*
X156712567Y-106634642D01*
X156733224Y-106686620D01*
X156739955Y-106759219D01*
X156865672Y-106759219D01*
X156866479Y-106716621D01*
X156863948Y-106658056D01*
X156856362Y-106614007D01*
X156842681Y-106579248D01*
X156821865Y-106548551D01*
X156814147Y-106539436D01*
X156765889Y-106494021D01*
X156714128Y-106467493D01*
X156650828Y-106456379D01*
X156619961Y-106455471D01*
X156538261Y-106465148D01*
X156538261Y-106465148D01*
G37*
X156538261Y-106465148D02*
X156472479Y-106494231D01*
X156422540Y-106542793D01*
X156388374Y-106610908D01*
X156369907Y-106698651D01*
X156368583Y-106712351D01*
X156367546Y-106808939D01*
X156380993Y-106893602D01*
X156408108Y-106962221D01*
X156422627Y-106984294D01*
X156473201Y-107031011D01*
X156537609Y-107061268D01*
X156609666Y-107073824D01*
X156683185Y-107067439D01*
X156739072Y-107047772D01*
X156787132Y-107014629D01*
X156826412Y-106971175D01*
X156827092Y-106970158D01*
X156843044Y-106943338D01*
X156853410Y-106916368D01*
X156859688Y-106882332D01*
X156863373Y-106834310D01*
X156864997Y-106794931D01*
X156865672Y-106759219D01*
X156739955Y-106759219D01*
X156738726Y-106794770D01*
X156734266Y-106842094D01*
X156726397Y-106872465D01*
X156712207Y-106894072D01*
X156698917Y-106906694D01*
X156651802Y-106933122D01*
X156602505Y-106936653D01*
X156556593Y-106917639D01*
X156533638Y-106896331D01*
X156517096Y-106874859D01*
X156507421Y-106854313D01*
X156503174Y-106827574D01*
X156502920Y-106787523D01*
X156504228Y-106750638D01*
X156507043Y-106697947D01*
X156511505Y-106663772D01*
X156519548Y-106641480D01*
X156533103Y-106624442D01*
X156543845Y-106614703D01*
X156588777Y-106589123D01*
X156637249Y-106587847D01*
X156677894Y-106602999D01*
X156712567Y-106634642D01*
X156733224Y-106686620D01*
X156739955Y-106759219D01*
X156865672Y-106759219D01*
X156866479Y-106716621D01*
X156863948Y-106658056D01*
X156856362Y-106614007D01*
X156842681Y-106579248D01*
X156821865Y-106548551D01*
X156814147Y-106539436D01*
X156765889Y-106494021D01*
X156714128Y-106467493D01*
X156650828Y-106456379D01*
X156619961Y-106455471D01*
X156538261Y-106465148D01*
G36*
X151967419Y-107404970D02*
G01*
X151907315Y-107420597D01*
X151856979Y-107452848D01*
X151832607Y-107476940D01*
X151792655Y-107533895D01*
X151769758Y-107599965D01*
X151761892Y-107681182D01*
X151761852Y-107687748D01*
X151761782Y-107753763D01*
X152141736Y-107753763D01*
X152133637Y-107788342D01*
X152119013Y-107819659D01*
X152093419Y-107852291D01*
X152088065Y-107857500D01*
X152042057Y-107885694D01*
X151989590Y-107890475D01*
X151929197Y-107871926D01*
X151918960Y-107866931D01*
X151887561Y-107851745D01*
X151866530Y-107843094D01*
X151862861Y-107842293D01*
X151850052Y-107850063D01*
X151825622Y-107869072D01*
X151813221Y-107879460D01*
X151787524Y-107903321D01*
X151779085Y-107919077D01*
X151784942Y-107933571D01*
X151788072Y-107937534D01*
X151809275Y-107954879D01*
X151844262Y-107975959D01*
X151868663Y-107988265D01*
X151937928Y-108009946D01*
X152014612Y-108016971D01*
X152087235Y-108008647D01*
X152107574Y-108002686D01*
X152170524Y-107968952D01*
X152217185Y-107917045D01*
X152247827Y-107846459D01*
X152262718Y-107756692D01*
X152264353Y-107709753D01*
X152259579Y-107641413D01*
X152139010Y-107641413D01*
X152127348Y-107646465D01*
X152096002Y-107650429D01*
X152050429Y-107652768D01*
X152019554Y-107653169D01*
X151964019Y-107652783D01*
X151928967Y-107650975D01*
X151909738Y-107646773D01*
X151901670Y-107639203D01*
X151900099Y-107628218D01*
X151910879Y-107594381D01*
X151938020Y-107560940D01*
X151973723Y-107535272D01*
X152009440Y-107524772D01*
X152057952Y-107534086D01*
X152099947Y-107561013D01*
X152129064Y-107599827D01*
X152139010Y-107641413D01*
X152259579Y-107641413D01*
X152257401Y-107610236D01*
X152235945Y-107530949D01*
X152199530Y-107471263D01*
X152147703Y-107430549D01*
X152080010Y-107408179D01*
X152043338Y-107403871D01*
X151967419Y-107404970D01*
X151967419Y-107404970D01*
G37*
X151967419Y-107404970D02*
X151907315Y-107420597D01*
X151856979Y-107452848D01*
X151832607Y-107476940D01*
X151792655Y-107533895D01*
X151769758Y-107599965D01*
X151761892Y-107681182D01*
X151761852Y-107687748D01*
X151761782Y-107753763D01*
X152141736Y-107753763D01*
X152133637Y-107788342D01*
X152119013Y-107819659D01*
X152093419Y-107852291D01*
X152088065Y-107857500D01*
X152042057Y-107885694D01*
X151989590Y-107890475D01*
X151929197Y-107871926D01*
X151918960Y-107866931D01*
X151887561Y-107851745D01*
X151866530Y-107843094D01*
X151862861Y-107842293D01*
X151850052Y-107850063D01*
X151825622Y-107869072D01*
X151813221Y-107879460D01*
X151787524Y-107903321D01*
X151779085Y-107919077D01*
X151784942Y-107933571D01*
X151788072Y-107937534D01*
X151809275Y-107954879D01*
X151844262Y-107975959D01*
X151868663Y-107988265D01*
X151937928Y-108009946D01*
X152014612Y-108016971D01*
X152087235Y-108008647D01*
X152107574Y-108002686D01*
X152170524Y-107968952D01*
X152217185Y-107917045D01*
X152247827Y-107846459D01*
X152262718Y-107756692D01*
X152264353Y-107709753D01*
X152259579Y-107641413D01*
X152139010Y-107641413D01*
X152127348Y-107646465D01*
X152096002Y-107650429D01*
X152050429Y-107652768D01*
X152019554Y-107653169D01*
X151964019Y-107652783D01*
X151928967Y-107650975D01*
X151909738Y-107646773D01*
X151901670Y-107639203D01*
X151900099Y-107628218D01*
X151910879Y-107594381D01*
X151938020Y-107560940D01*
X151973723Y-107535272D01*
X152009440Y-107524772D01*
X152057952Y-107534086D01*
X152099947Y-107561013D01*
X152129064Y-107599827D01*
X152139010Y-107641413D01*
X152259579Y-107641413D01*
X152257401Y-107610236D01*
X152235945Y-107530949D01*
X152199530Y-107471263D01*
X152147703Y-107430549D01*
X152080010Y-107408179D01*
X152043338Y-107403871D01*
X151967419Y-107404970D01*
G36*
X152364745Y-107401486D02*
G01*
X152316405Y-107411015D01*
X152288886Y-107425125D01*
X152259936Y-107448568D01*
X152301124Y-107500571D01*
X152326518Y-107532064D01*
X152343762Y-107547428D01*
X152360898Y-107549776D01*
X152385973Y-107542217D01*
X152397743Y-107537941D01*
X152445730Y-107531631D01*
X152489676Y-107545156D01*
X152521940Y-107575710D01*
X152527181Y-107585452D01*
X152532888Y-107611258D01*
X152537294Y-107658817D01*
X152540189Y-107724758D01*
X152541369Y-107805710D01*
X152541386Y-107817226D01*
X152541386Y-108017822D01*
X152679703Y-108017822D01*
X152679703Y-107401683D01*
X152610544Y-107401683D01*
X152570667Y-107402725D01*
X152549893Y-107407358D01*
X152542211Y-107417849D01*
X152541386Y-107427745D01*
X152541386Y-107453806D01*
X152508255Y-107427745D01*
X152470265Y-107409965D01*
X152419230Y-107401174D01*
X152364745Y-107401486D01*
X152364745Y-107401486D01*
G37*
X152364745Y-107401486D02*
X152316405Y-107411015D01*
X152288886Y-107425125D01*
X152259936Y-107448568D01*
X152301124Y-107500571D01*
X152326518Y-107532064D01*
X152343762Y-107547428D01*
X152360898Y-107549776D01*
X152385973Y-107542217D01*
X152397743Y-107537941D01*
X152445730Y-107531631D01*
X152489676Y-107545156D01*
X152521940Y-107575710D01*
X152527181Y-107585452D01*
X152532888Y-107611258D01*
X152537294Y-107658817D01*
X152540189Y-107724758D01*
X152541369Y-107805710D01*
X152541386Y-107817226D01*
X152541386Y-108017822D01*
X152679703Y-108017822D01*
X152679703Y-107401683D01*
X152610544Y-107401683D01*
X152570667Y-107402725D01*
X152549893Y-107407358D01*
X152542211Y-107417849D01*
X152541386Y-107427745D01*
X152541386Y-107453806D01*
X152508255Y-107427745D01*
X152470265Y-107409965D01*
X152419230Y-107401174D01*
X152364745Y-107401486D01*
G36*
X152961589Y-107405417D02*
G01*
X152908589Y-107418290D01*
X152893269Y-107425110D01*
X152863572Y-107442974D01*
X152840780Y-107463093D01*
X152823917Y-107488962D01*
X152812002Y-107524073D01*
X152804058Y-107571920D01*
X152799106Y-107635996D01*
X152796169Y-107719794D01*
X152795053Y-107775768D01*
X152790948Y-108017822D01*
X152861068Y-108017822D01*
X152903607Y-108016038D01*
X152925524Y-108009942D01*
X152931188Y-107999706D01*
X152934179Y-107988637D01*
X152947549Y-107990754D01*
X152965767Y-107999629D01*
X153011376Y-108013233D01*
X153069993Y-108016899D01*
X153131646Y-108010903D01*
X153186362Y-107995521D01*
X153191270Y-107993386D01*
X153241277Y-107958255D01*
X153274244Y-107909419D01*
X153289413Y-107852333D01*
X153288254Y-107831824D01*
X153164492Y-107831824D01*
X153153587Y-107859425D01*
X153121255Y-107879204D01*
X153069090Y-107889819D01*
X153041213Y-107891228D01*
X152994753Y-107887620D01*
X152963871Y-107873597D01*
X152956336Y-107866931D01*
X152935924Y-107830666D01*
X152931188Y-107797773D01*
X152931188Y-107753763D01*
X152992487Y-107753763D01*
X153063744Y-107757395D01*
X153113724Y-107768818D01*
X153145304Y-107788824D01*
X153152374Y-107797743D01*
X153164492Y-107831824D01*
X153288254Y-107831824D01*
X153286029Y-107792456D01*
X153263337Y-107735244D01*
X153232376Y-107696580D01*
X153213624Y-107679864D01*
X153195267Y-107668878D01*
X153171381Y-107662180D01*
X153136043Y-107658326D01*
X153083331Y-107655873D01*
X153062423Y-107655168D01*
X152931188Y-107650879D01*
X152931380Y-107611158D01*
X152936463Y-107569405D01*
X152954838Y-107544158D01*
X152991961Y-107528030D01*
X152992957Y-107527742D01*
X153045590Y-107521400D01*
X153097094Y-107529684D01*
X153135370Y-107549827D01*
X153150728Y-107559773D01*
X153167270Y-107558397D01*
X153192725Y-107543987D01*
X153207672Y-107533817D01*
X153236909Y-107512088D01*
X153255020Y-107495800D01*
X153257926Y-107491137D01*
X153245960Y-107467005D01*
X153210604Y-107438185D01*
X153195247Y-107428461D01*
X153151099Y-107411714D01*
X153091602Y-107402227D01*
X153025513Y-107400095D01*
X152961589Y-107405417D01*
X152961589Y-107405417D01*
G37*
X152961589Y-107405417D02*
X152908589Y-107418290D01*
X152893269Y-107425110D01*
X152863572Y-107442974D01*
X152840780Y-107463093D01*
X152823917Y-107488962D01*
X152812002Y-107524073D01*
X152804058Y-107571920D01*
X152799106Y-107635996D01*
X152796169Y-107719794D01*
X152795053Y-107775768D01*
X152790948Y-108017822D01*
X152861068Y-108017822D01*
X152903607Y-108016038D01*
X152925524Y-108009942D01*
X152931188Y-107999706D01*
X152934179Y-107988637D01*
X152947549Y-107990754D01*
X152965767Y-107999629D01*
X153011376Y-108013233D01*
X153069993Y-108016899D01*
X153131646Y-108010903D01*
X153186362Y-107995521D01*
X153191270Y-107993386D01*
X153241277Y-107958255D01*
X153274244Y-107909419D01*
X153289413Y-107852333D01*
X153288254Y-107831824D01*
X153164492Y-107831824D01*
X153153587Y-107859425D01*
X153121255Y-107879204D01*
X153069090Y-107889819D01*
X153041213Y-107891228D01*
X152994753Y-107887620D01*
X152963871Y-107873597D01*
X152956336Y-107866931D01*
X152935924Y-107830666D01*
X152931188Y-107797773D01*
X152931188Y-107753763D01*
X152992487Y-107753763D01*
X153063744Y-107757395D01*
X153113724Y-107768818D01*
X153145304Y-107788824D01*
X153152374Y-107797743D01*
X153164492Y-107831824D01*
X153288254Y-107831824D01*
X153286029Y-107792456D01*
X153263337Y-107735244D01*
X153232376Y-107696580D01*
X153213624Y-107679864D01*
X153195267Y-107668878D01*
X153171381Y-107662180D01*
X153136043Y-107658326D01*
X153083331Y-107655873D01*
X153062423Y-107655168D01*
X152931188Y-107650879D01*
X152931380Y-107611158D01*
X152936463Y-107569405D01*
X152954838Y-107544158D01*
X152991961Y-107528030D01*
X152992957Y-107527742D01*
X153045590Y-107521400D01*
X153097094Y-107529684D01*
X153135370Y-107549827D01*
X153150728Y-107559773D01*
X153167270Y-107558397D01*
X153192725Y-107543987D01*
X153207672Y-107533817D01*
X153236909Y-107512088D01*
X153255020Y-107495800D01*
X153257926Y-107491137D01*
X153245960Y-107467005D01*
X153210604Y-107438185D01*
X153195247Y-107428461D01*
X153151099Y-107411714D01*
X153091602Y-107402227D01*
X153025513Y-107400095D01*
X152961589Y-107405417D01*
G36*
X153718476Y-107404237D02*
G01*
X153668745Y-107407971D01*
X153538709Y-107797773D01*
X153518322Y-107728614D01*
X153506054Y-107685874D01*
X153489915Y-107628115D01*
X153472488Y-107564625D01*
X153463274Y-107530570D01*
X153428612Y-107401683D01*
X153285609Y-107401683D01*
X153328354Y-107536857D01*
X153349404Y-107603342D01*
X153374833Y-107683539D01*
X153401390Y-107767193D01*
X153425098Y-107841782D01*
X153479098Y-108011535D01*
X153537402Y-108015328D01*
X153595705Y-108019122D01*
X153627321Y-107914734D01*
X153646818Y-107849889D01*
X153668096Y-107778400D01*
X153686692Y-107715263D01*
X153687426Y-107712750D01*
X153701316Y-107669969D01*
X153713571Y-107640779D01*
X153722154Y-107629741D01*
X153723918Y-107631018D01*
X153730109Y-107648130D01*
X153741872Y-107684787D01*
X153757775Y-107736378D01*
X153776386Y-107798294D01*
X153786457Y-107832352D01*
X153840993Y-108017822D01*
X153956736Y-108017822D01*
X154049263Y-107725471D01*
X154075256Y-107643462D01*
X154098934Y-107568987D01*
X154119180Y-107505544D01*
X154134874Y-107456632D01*
X154144898Y-107425749D01*
X154147945Y-107416726D01*
X154145533Y-107407487D01*
X154126592Y-107403441D01*
X154087177Y-107403846D01*
X154081007Y-107404152D01*
X154007914Y-107407971D01*
X153960043Y-107584010D01*
X153942447Y-107648211D01*
X153926723Y-107704649D01*
X153914254Y-107748422D01*
X153906426Y-107774630D01*
X153904980Y-107778903D01*
X153898986Y-107773990D01*
X153886899Y-107748532D01*
X153870107Y-107705997D01*
X153849997Y-107649850D01*
X153832997Y-107599130D01*
X153768206Y-107400504D01*
X153718476Y-107404237D01*
X153718476Y-107404237D01*
G37*
X153718476Y-107404237D02*
X153668745Y-107407971D01*
X153538709Y-107797773D01*
X153518322Y-107728614D01*
X153506054Y-107685874D01*
X153489915Y-107628115D01*
X153472488Y-107564625D01*
X153463274Y-107530570D01*
X153428612Y-107401683D01*
X153285609Y-107401683D01*
X153328354Y-107536857D01*
X153349404Y-107603342D01*
X153374833Y-107683539D01*
X153401390Y-107767193D01*
X153425098Y-107841782D01*
X153479098Y-108011535D01*
X153537402Y-108015328D01*
X153595705Y-108019122D01*
X153627321Y-107914734D01*
X153646818Y-107849889D01*
X153668096Y-107778400D01*
X153686692Y-107715263D01*
X153687426Y-107712750D01*
X153701316Y-107669969D01*
X153713571Y-107640779D01*
X153722154Y-107629741D01*
X153723918Y-107631018D01*
X153730109Y-107648130D01*
X153741872Y-107684787D01*
X153757775Y-107736378D01*
X153776386Y-107798294D01*
X153786457Y-107832352D01*
X153840993Y-108017822D01*
X153956736Y-108017822D01*
X154049263Y-107725471D01*
X154075256Y-107643462D01*
X154098934Y-107568987D01*
X154119180Y-107505544D01*
X154134874Y-107456632D01*
X154144898Y-107425749D01*
X154147945Y-107416726D01*
X154145533Y-107407487D01*
X154126592Y-107403441D01*
X154087177Y-107403846D01*
X154081007Y-107404152D01*
X154007914Y-107407971D01*
X153960043Y-107584010D01*
X153942447Y-107648211D01*
X153926723Y-107704649D01*
X153914254Y-107748422D01*
X153906426Y-107774630D01*
X153904980Y-107778903D01*
X153898986Y-107773990D01*
X153886899Y-107748532D01*
X153870107Y-107705997D01*
X153849997Y-107649850D01*
X153832997Y-107599130D01*
X153768206Y-107400504D01*
X153718476Y-107404237D01*
G36*
X154201188Y-108017822D02*
G01*
X154270346Y-108017822D01*
X154310488Y-108016645D01*
X154331394Y-108011772D01*
X154338922Y-108001186D01*
X154339505Y-107994029D01*
X154340774Y-107979676D01*
X154348779Y-107976923D01*
X154369815Y-107985771D01*
X154386173Y-107994029D01*
X154448977Y-108013597D01*
X154517248Y-108014729D01*
X154572752Y-108000135D01*
X154624438Y-107964877D01*
X154663838Y-107912835D01*
X154685413Y-107851450D01*
X154685962Y-107848018D01*
X154689167Y-107810571D01*
X154690761Y-107756813D01*
X154690633Y-107716155D01*
X154553279Y-107716155D01*
X154550097Y-107770194D01*
X154542859Y-107814735D01*
X154533060Y-107839888D01*
X154495989Y-107874260D01*
X154451974Y-107886582D01*
X154406584Y-107876618D01*
X154367797Y-107846895D01*
X154353108Y-107826905D01*
X154344519Y-107803050D01*
X154340496Y-107768230D01*
X154339505Y-107715930D01*
X154341278Y-107664139D01*
X154345963Y-107618634D01*
X154352603Y-107588181D01*
X154353710Y-107585452D01*
X154380491Y-107553000D01*
X154419579Y-107535183D01*
X154463315Y-107532306D01*
X154504038Y-107544674D01*
X154534087Y-107572593D01*
X154537204Y-107578148D01*
X154546961Y-107612022D01*
X154552277Y-107660728D01*
X154553279Y-107716155D01*
X154690633Y-107716155D01*
X154690568Y-107695540D01*
X154689664Y-107662563D01*
X154683514Y-107580981D01*
X154670733Y-107519730D01*
X154649471Y-107474449D01*
X154617878Y-107440779D01*
X154587207Y-107421014D01*
X154544354Y-107407120D01*
X154491056Y-107402354D01*
X154436480Y-107406236D01*
X154389792Y-107418282D01*
X154365124Y-107432693D01*
X154339505Y-107455878D01*
X154339505Y-107162773D01*
X154201188Y-107162773D01*
X154201188Y-108017822D01*
X154201188Y-108017822D01*
G37*
X154201188Y-108017822D02*
X154270346Y-108017822D01*
X154310488Y-108016645D01*
X154331394Y-108011772D01*
X154338922Y-108001186D01*
X154339505Y-107994029D01*
X154340774Y-107979676D01*
X154348779Y-107976923D01*
X154369815Y-107985771D01*
X154386173Y-107994029D01*
X154448977Y-108013597D01*
X154517248Y-108014729D01*
X154572752Y-108000135D01*
X154624438Y-107964877D01*
X154663838Y-107912835D01*
X154685413Y-107851450D01*
X154685962Y-107848018D01*
X154689167Y-107810571D01*
X154690761Y-107756813D01*
X154690633Y-107716155D01*
X154553279Y-107716155D01*
X154550097Y-107770194D01*
X154542859Y-107814735D01*
X154533060Y-107839888D01*
X154495989Y-107874260D01*
X154451974Y-107886582D01*
X154406584Y-107876618D01*
X154367797Y-107846895D01*
X154353108Y-107826905D01*
X154344519Y-107803050D01*
X154340496Y-107768230D01*
X154339505Y-107715930D01*
X154341278Y-107664139D01*
X154345963Y-107618634D01*
X154352603Y-107588181D01*
X154353710Y-107585452D01*
X154380491Y-107553000D01*
X154419579Y-107535183D01*
X154463315Y-107532306D01*
X154504038Y-107544674D01*
X154534087Y-107572593D01*
X154537204Y-107578148D01*
X154546961Y-107612022D01*
X154552277Y-107660728D01*
X154553279Y-107716155D01*
X154690633Y-107716155D01*
X154690568Y-107695540D01*
X154689664Y-107662563D01*
X154683514Y-107580981D01*
X154670733Y-107519730D01*
X154649471Y-107474449D01*
X154617878Y-107440779D01*
X154587207Y-107421014D01*
X154544354Y-107407120D01*
X154491056Y-107402354D01*
X154436480Y-107406236D01*
X154389792Y-107418282D01*
X154365124Y-107432693D01*
X154339505Y-107455878D01*
X154339505Y-107162773D01*
X154201188Y-107162773D01*
X154201188Y-108017822D01*
G36*
X154993356Y-107403020D02*
G01*
X154974539Y-107408660D01*
X154968473Y-107421053D01*
X154968218Y-107426647D01*
X154967129Y-107442230D01*
X154959632Y-107444676D01*
X154939381Y-107433993D01*
X154927351Y-107426694D01*
X154889400Y-107411063D01*
X154844072Y-107403334D01*
X154796544Y-107402740D01*
X154751995Y-107408513D01*
X154715602Y-107419884D01*
X154692543Y-107436088D01*
X154687996Y-107456355D01*
X154690291Y-107461843D01*
X154707020Y-107484626D01*
X154732963Y-107512647D01*
X154737655Y-107517177D01*
X154762383Y-107538005D01*
X154783718Y-107544735D01*
X154813555Y-107540038D01*
X154825508Y-107536917D01*
X154862705Y-107529421D01*
X154888859Y-107532792D01*
X154910946Y-107544681D01*
X154931178Y-107560635D01*
X154946079Y-107580700D01*
X154956434Y-107608702D01*
X154963029Y-107648467D01*
X154966649Y-107703823D01*
X154968078Y-107778594D01*
X154968218Y-107823740D01*
X154968218Y-108017822D01*
X155093960Y-108017822D01*
X155093960Y-107401683D01*
X155031089Y-107401683D01*
X154993356Y-107403020D01*
X154993356Y-107403020D01*
G37*
X154993356Y-107403020D02*
X154974539Y-107408660D01*
X154968473Y-107421053D01*
X154968218Y-107426647D01*
X154967129Y-107442230D01*
X154959632Y-107444676D01*
X154939381Y-107433993D01*
X154927351Y-107426694D01*
X154889400Y-107411063D01*
X154844072Y-107403334D01*
X154796544Y-107402740D01*
X154751995Y-107408513D01*
X154715602Y-107419884D01*
X154692543Y-107436088D01*
X154687996Y-107456355D01*
X154690291Y-107461843D01*
X154707020Y-107484626D01*
X154732963Y-107512647D01*
X154737655Y-107517177D01*
X154762383Y-107538005D01*
X154783718Y-107544735D01*
X154813555Y-107540038D01*
X154825508Y-107536917D01*
X154862705Y-107529421D01*
X154888859Y-107532792D01*
X154910946Y-107544681D01*
X154931178Y-107560635D01*
X154946079Y-107580700D01*
X154956434Y-107608702D01*
X154963029Y-107648467D01*
X154966649Y-107703823D01*
X154968078Y-107778594D01*
X154968218Y-107823740D01*
X154968218Y-108017822D01*
X155093960Y-108017822D01*
X155093960Y-107401683D01*
X155031089Y-107401683D01*
X154993356Y-107403020D01*
G36*
X155384210Y-107406555D02*
G01*
X155325055Y-107422339D01*
X155280023Y-107450948D01*
X155248246Y-107488419D01*
X155238366Y-107504411D01*
X155231073Y-107521163D01*
X155225974Y-107542592D01*
X155222679Y-107572616D01*
X155220797Y-107615154D01*
X155219937Y-107674122D01*
X155219707Y-107753440D01*
X155219703Y-107774484D01*
X155219703Y-108017822D01*
X155280059Y-108017822D01*
X155318557Y-108015126D01*
X155347023Y-108008295D01*
X155354155Y-108004083D01*
X155373652Y-107996813D01*
X155393566Y-108004083D01*
X155426353Y-108013160D01*
X155473978Y-108016813D01*
X155526764Y-108015228D01*
X155575036Y-108008589D01*
X155603218Y-108000072D01*
X155657753Y-107965063D01*
X155691835Y-107916479D01*
X155707157Y-107851882D01*
X155707299Y-107850223D01*
X155705955Y-107821566D01*
X155584356Y-107821566D01*
X155573726Y-107854161D01*
X155556410Y-107872505D01*
X155521652Y-107886379D01*
X155475773Y-107891917D01*
X155428988Y-107889191D01*
X155391514Y-107878274D01*
X155381015Y-107871269D01*
X155362668Y-107838904D01*
X155358020Y-107802111D01*
X155358020Y-107753763D01*
X155427582Y-107753763D01*
X155493667Y-107758850D01*
X155543764Y-107773263D01*
X155574929Y-107795729D01*
X155584356Y-107821566D01*
X155705955Y-107821566D01*
X155703987Y-107779647D01*
X155680710Y-107723845D01*
X155636948Y-107681647D01*
X155630899Y-107677808D01*
X155604907Y-107665309D01*
X155572735Y-107657740D01*
X155527760Y-107654061D01*
X155474331Y-107653216D01*
X155358020Y-107653169D01*
X155358020Y-107604411D01*
X155362953Y-107566581D01*
X155375543Y-107541236D01*
X155377017Y-107539887D01*
X155405034Y-107528800D01*
X155447326Y-107524503D01*
X155494064Y-107526615D01*
X155535418Y-107534756D01*
X155559957Y-107546965D01*
X155573253Y-107556746D01*
X155587294Y-107558613D01*
X155606671Y-107550600D01*
X155635976Y-107530739D01*
X155679803Y-107497063D01*
X155683825Y-107493909D01*
X155681764Y-107482236D01*
X155664568Y-107462822D01*
X155638433Y-107441248D01*
X155609552Y-107423096D01*
X155600478Y-107418809D01*
X155567380Y-107410256D01*
X155518880Y-107404155D01*
X155464695Y-107401708D01*
X155462161Y-107401703D01*
X155384210Y-107406555D01*
X155384210Y-107406555D01*
G37*
X155384210Y-107406555D02*
X155325055Y-107422339D01*
X155280023Y-107450948D01*
X155248246Y-107488419D01*
X155238366Y-107504411D01*
X155231073Y-107521163D01*
X155225974Y-107542592D01*
X155222679Y-107572616D01*
X155220797Y-107615154D01*
X155219937Y-107674122D01*
X155219707Y-107753440D01*
X155219703Y-107774484D01*
X155219703Y-108017822D01*
X155280059Y-108017822D01*
X155318557Y-108015126D01*
X155347023Y-108008295D01*
X155354155Y-108004083D01*
X155373652Y-107996813D01*
X155393566Y-108004083D01*
X155426353Y-108013160D01*
X155473978Y-108016813D01*
X155526764Y-108015228D01*
X155575036Y-108008589D01*
X155603218Y-108000072D01*
X155657753Y-107965063D01*
X155691835Y-107916479D01*
X155707157Y-107851882D01*
X155707299Y-107850223D01*
X155705955Y-107821566D01*
X155584356Y-107821566D01*
X155573726Y-107854161D01*
X155556410Y-107872505D01*
X155521652Y-107886379D01*
X155475773Y-107891917D01*
X155428988Y-107889191D01*
X155391514Y-107878274D01*
X155381015Y-107871269D01*
X155362668Y-107838904D01*
X155358020Y-107802111D01*
X155358020Y-107753763D01*
X155427582Y-107753763D01*
X155493667Y-107758850D01*
X155543764Y-107773263D01*
X155574929Y-107795729D01*
X155584356Y-107821566D01*
X155705955Y-107821566D01*
X155703987Y-107779647D01*
X155680710Y-107723845D01*
X155636948Y-107681647D01*
X155630899Y-107677808D01*
X155604907Y-107665309D01*
X155572735Y-107657740D01*
X155527760Y-107654061D01*
X155474331Y-107653216D01*
X155358020Y-107653169D01*
X155358020Y-107604411D01*
X155362953Y-107566581D01*
X155375543Y-107541236D01*
X155377017Y-107539887D01*
X155405034Y-107528800D01*
X155447326Y-107524503D01*
X155494064Y-107526615D01*
X155535418Y-107534756D01*
X155559957Y-107546965D01*
X155573253Y-107556746D01*
X155587294Y-107558613D01*
X155606671Y-107550600D01*
X155635976Y-107530739D01*
X155679803Y-107497063D01*
X155683825Y-107493909D01*
X155681764Y-107482236D01*
X155664568Y-107462822D01*
X155638433Y-107441248D01*
X155609552Y-107423096D01*
X155600478Y-107418809D01*
X155567380Y-107410256D01*
X155518880Y-107404155D01*
X155464695Y-107401708D01*
X155462161Y-107401703D01*
X155384210Y-107406555D01*
G36*
X155908759Y-106469184D02*
G01*
X155882247Y-106482282D01*
X155849553Y-106505106D01*
X155825725Y-106529996D01*
X155809406Y-106561249D01*
X155799240Y-106603166D01*
X155793872Y-106660044D01*
X155791944Y-106736184D01*
X155791831Y-106768917D01*
X155792161Y-106840656D01*
X155793527Y-106891927D01*
X155796500Y-106927404D01*
X155801649Y-106951763D01*
X155809543Y-106969680D01*
X155817757Y-106981902D01*
X155870187Y-107033905D01*
X155931930Y-107065184D01*
X155998536Y-107074592D01*
X156065558Y-107060980D01*
X156086792Y-107051354D01*
X156137624Y-107024859D01*
X156137624Y-107440052D01*
X156100525Y-107420868D01*
X156051643Y-107406025D01*
X155991561Y-107402222D01*
X155931564Y-107409243D01*
X155886256Y-107425013D01*
X155848675Y-107455047D01*
X155816564Y-107498024D01*
X155814150Y-107502436D01*
X155803967Y-107523221D01*
X155796530Y-107544170D01*
X155791411Y-107569548D01*
X155788181Y-107603618D01*
X155786413Y-107650641D01*
X155785677Y-107714882D01*
X155785544Y-107787176D01*
X155785544Y-108017822D01*
X155923861Y-108017822D01*
X155923861Y-107592533D01*
X155962549Y-107559979D01*
X156002738Y-107533940D01*
X156040797Y-107529205D01*
X156079066Y-107541389D01*
X156099462Y-107553320D01*
X156114642Y-107570313D01*
X156125438Y-107595995D01*
X156132683Y-107633991D01*
X156137208Y-107687926D01*
X156139844Y-107761425D01*
X156140772Y-107810347D01*
X156143911Y-108011535D01*
X156209926Y-108015336D01*
X156275940Y-108019136D01*
X156275940Y-106770650D01*
X156137624Y-106770650D01*
X156134097Y-106840254D01*
X156122215Y-106888569D01*
X156100020Y-106918631D01*
X156065559Y-106933471D01*
X156030742Y-106936436D01*
X155991329Y-106933028D01*
X155965171Y-106919617D01*
X155948814Y-106901896D01*
X155935937Y-106882835D01*
X155928272Y-106861601D01*
X155924861Y-106831849D01*
X155924749Y-106787236D01*
X155925897Y-106749880D01*
X155928532Y-106693604D01*
X155932456Y-106656658D01*
X155939063Y-106633223D01*
X155949749Y-106617480D01*
X155959833Y-106608380D01*
X156001970Y-106588537D01*
X156051840Y-106585332D01*
X156080476Y-106592168D01*
X156108828Y-106616464D01*
X156127609Y-106663728D01*
X156136712Y-106733624D01*
X156137624Y-106770650D01*
X156275940Y-106770650D01*
X156275940Y-106458614D01*
X156206782Y-106458614D01*
X156165260Y-106460256D01*
X156143838Y-106466087D01*
X156137626Y-106477461D01*
X156137624Y-106477798D01*
X156134742Y-106488938D01*
X156122030Y-106487673D01*
X156096757Y-106475433D01*
X156037869Y-106456707D01*
X155971615Y-106454739D01*
X155908759Y-106469184D01*
X155908759Y-106469184D01*
G37*
X155908759Y-106469184D02*
X155882247Y-106482282D01*
X155849553Y-106505106D01*
X155825725Y-106529996D01*
X155809406Y-106561249D01*
X155799240Y-106603166D01*
X155793872Y-106660044D01*
X155791944Y-106736184D01*
X155791831Y-106768917D01*
X155792161Y-106840656D01*
X155793527Y-106891927D01*
X155796500Y-106927404D01*
X155801649Y-106951763D01*
X155809543Y-106969680D01*
X155817757Y-106981902D01*
X155870187Y-107033905D01*
X155931930Y-107065184D01*
X155998536Y-107074592D01*
X156065558Y-107060980D01*
X156086792Y-107051354D01*
X156137624Y-107024859D01*
X156137624Y-107440052D01*
X156100525Y-107420868D01*
X156051643Y-107406025D01*
X155991561Y-107402222D01*
X155931564Y-107409243D01*
X155886256Y-107425013D01*
X155848675Y-107455047D01*
X155816564Y-107498024D01*
X155814150Y-107502436D01*
X155803967Y-107523221D01*
X155796530Y-107544170D01*
X155791411Y-107569548D01*
X155788181Y-107603618D01*
X155786413Y-107650641D01*
X155785677Y-107714882D01*
X155785544Y-107787176D01*
X155785544Y-108017822D01*
X155923861Y-108017822D01*
X155923861Y-107592533D01*
X155962549Y-107559979D01*
X156002738Y-107533940D01*
X156040797Y-107529205D01*
X156079066Y-107541389D01*
X156099462Y-107553320D01*
X156114642Y-107570313D01*
X156125438Y-107595995D01*
X156132683Y-107633991D01*
X156137208Y-107687926D01*
X156139844Y-107761425D01*
X156140772Y-107810347D01*
X156143911Y-108011535D01*
X156209926Y-108015336D01*
X156275940Y-108019136D01*
X156275940Y-106770650D01*
X156137624Y-106770650D01*
X156134097Y-106840254D01*
X156122215Y-106888569D01*
X156100020Y-106918631D01*
X156065559Y-106933471D01*
X156030742Y-106936436D01*
X155991329Y-106933028D01*
X155965171Y-106919617D01*
X155948814Y-106901896D01*
X155935937Y-106882835D01*
X155928272Y-106861601D01*
X155924861Y-106831849D01*
X155924749Y-106787236D01*
X155925897Y-106749880D01*
X155928532Y-106693604D01*
X155932456Y-106656658D01*
X155939063Y-106633223D01*
X155949749Y-106617480D01*
X155959833Y-106608380D01*
X156001970Y-106588537D01*
X156051840Y-106585332D01*
X156080476Y-106592168D01*
X156108828Y-106616464D01*
X156127609Y-106663728D01*
X156136712Y-106733624D01*
X156137624Y-106770650D01*
X156275940Y-106770650D01*
X156275940Y-106458614D01*
X156206782Y-106458614D01*
X156165260Y-106460256D01*
X156143838Y-106466087D01*
X156137626Y-106477461D01*
X156137624Y-106477798D01*
X156134742Y-106488938D01*
X156122030Y-106487673D01*
X156096757Y-106475433D01*
X156037869Y-106456707D01*
X155971615Y-106454739D01*
X155908759Y-106469184D01*
G36*
X135610004Y-96762453D02*
G01*
X135555195Y-96789364D01*
X135568357Y-96819926D01*
X135612341Y-96853857D01*
X135700445Y-96898737D01*
X135783799Y-96912751D01*
X135835080Y-96894619D01*
X135838091Y-96864441D01*
X135772917Y-96784923D01*
X135669900Y-96752527D01*
X135610004Y-96762453D01*
X135610004Y-96762453D01*
G37*
X135610004Y-96762453D02*
X135555195Y-96789364D01*
X135568357Y-96819926D01*
X135612341Y-96853857D01*
X135700445Y-96898737D01*
X135783799Y-96912751D01*
X135835080Y-96894619D01*
X135838091Y-96864441D01*
X135772917Y-96784923D01*
X135669900Y-96752527D01*
X135610004Y-96762453D01*
G36*
X133179571Y-96955985D02*
G01*
X133134026Y-97030750D01*
X133111018Y-97169521D01*
X133136627Y-97308269D01*
X133198836Y-97433035D01*
X133285626Y-97529857D01*
X133384977Y-97584777D01*
X133484872Y-97583835D01*
X133561964Y-97527809D01*
X133595503Y-97428869D01*
X133584249Y-97289636D01*
X133533143Y-97138334D01*
X133476713Y-97040931D01*
X133373867Y-96941044D01*
X133269277Y-96912564D01*
X133179571Y-96955985D01*
X133179571Y-96955985D01*
G37*
X133179571Y-96955985D02*
X133134026Y-97030750D01*
X133111018Y-97169521D01*
X133136627Y-97308269D01*
X133198836Y-97433035D01*
X133285626Y-97529857D01*
X133384977Y-97584777D01*
X133484872Y-97583835D01*
X133561964Y-97527809D01*
X133595503Y-97428869D01*
X133584249Y-97289636D01*
X133533143Y-97138334D01*
X133476713Y-97040931D01*
X133373867Y-96941044D01*
X133269277Y-96912564D01*
X133179571Y-96955985D01*
G36*
X132407912Y-97209066D02*
G01*
X132385005Y-97338225D01*
X132389640Y-97392988D01*
X132437871Y-97552339D01*
X132525647Y-97678276D01*
X132636568Y-97756899D01*
X132754237Y-97774310D01*
X132814820Y-97753361D01*
X132871272Y-97678763D01*
X132880190Y-97562825D01*
X132849381Y-97428286D01*
X132786647Y-97297886D01*
X132699794Y-97194365D01*
X132605120Y-97142369D01*
X132482908Y-97141892D01*
X132407912Y-97209066D01*
X132407912Y-97209066D01*
G37*
X132407912Y-97209066D02*
X132385005Y-97338225D01*
X132389640Y-97392988D01*
X132437871Y-97552339D01*
X132525647Y-97678276D01*
X132636568Y-97756899D01*
X132754237Y-97774310D01*
X132814820Y-97753361D01*
X132871272Y-97678763D01*
X132880190Y-97562825D01*
X132849381Y-97428286D01*
X132786647Y-97297886D01*
X132699794Y-97194365D01*
X132605120Y-97142369D01*
X132482908Y-97141892D01*
X132407912Y-97209066D01*
G36*
X139536615Y-111465531D02*
G01*
X139507740Y-111555946D01*
X139533985Y-111700189D01*
X139573558Y-111795653D01*
X139631341Y-111903959D01*
X139677539Y-111971164D01*
X139693193Y-111982293D01*
X139746400Y-111963237D01*
X139840873Y-111919917D01*
X139858750Y-111911112D01*
X139949491Y-111854070D01*
X139995071Y-111802149D01*
X139996333Y-111795092D01*
X139969679Y-111738457D01*
X139901765Y-111647148D01*
X139853040Y-111591106D01*
X139719357Y-111475724D01*
X139610518Y-111436328D01*
X139536615Y-111465531D01*
X139536615Y-111465531D01*
G37*
X139536615Y-111465531D02*
X139507740Y-111555946D01*
X139533985Y-111700189D01*
X139573558Y-111795653D01*
X139631341Y-111903959D01*
X139677539Y-111971164D01*
X139693193Y-111982293D01*
X139746400Y-111963237D01*
X139840873Y-111919917D01*
X139858750Y-111911112D01*
X139949491Y-111854070D01*
X139995071Y-111802149D01*
X139996333Y-111795092D01*
X139969679Y-111738457D01*
X139901765Y-111647148D01*
X139853040Y-111591106D01*
X139719357Y-111475724D01*
X139610518Y-111436328D01*
X139536615Y-111465531D01*
G36*
X138735399Y-112300583D02*
G01*
X138726333Y-112347332D01*
X138761601Y-112395331D01*
X138867097Y-112396666D01*
X138948583Y-112379152D01*
X139015095Y-112341863D01*
X139004173Y-112295992D01*
X138919547Y-112257065D01*
X138919239Y-112256988D01*
X138800142Y-112250657D01*
X138735399Y-112300583D01*
X138735399Y-112300583D01*
G37*
X138735399Y-112300583D02*
X138726333Y-112347332D01*
X138761601Y-112395331D01*
X138867097Y-112396666D01*
X138948583Y-112379152D01*
X139015095Y-112341863D01*
X139004173Y-112295992D01*
X138919547Y-112257065D01*
X138919239Y-112256988D01*
X138800142Y-112250657D01*
X138735399Y-112300583D01*
G36*
X131546202Y-112379731D02*
G01*
X131538893Y-112425755D01*
X131603918Y-112504722D01*
X131607083Y-112507606D01*
X131691233Y-112569007D01*
X131732043Y-112559153D01*
X131733694Y-112482417D01*
X131685487Y-112396834D01*
X131624916Y-112373639D01*
X131546202Y-112379731D01*
X131546202Y-112379731D01*
G37*
X131546202Y-112379731D02*
X131538893Y-112425755D01*
X131603918Y-112504722D01*
X131607083Y-112507606D01*
X131691233Y-112569007D01*
X131732043Y-112559153D01*
X131733694Y-112482417D01*
X131685487Y-112396834D01*
X131624916Y-112373639D01*
X131546202Y-112379731D01*
G36*
X133342860Y-112996193D02*
G01*
X133256843Y-113091101D01*
X133197026Y-113216882D01*
X133180666Y-113318500D01*
X133204089Y-113436731D01*
X133262490Y-113554719D01*
X133338070Y-113644536D01*
X133410011Y-113678334D01*
X133476532Y-113649417D01*
X133540994Y-113593121D01*
X133598773Y-113484931D01*
X133620243Y-113346614D01*
X133609264Y-113201562D01*
X133569699Y-113073167D01*
X133505410Y-112984821D01*
X133436250Y-112958667D01*
X133342860Y-112996193D01*
X133342860Y-112996193D01*
G37*
X133342860Y-112996193D02*
X133256843Y-113091101D01*
X133197026Y-113216882D01*
X133180666Y-113318500D01*
X133204089Y-113436731D01*
X133262490Y-113554719D01*
X133338070Y-113644536D01*
X133410011Y-113678334D01*
X133476532Y-113649417D01*
X133540994Y-113593121D01*
X133598773Y-113484931D01*
X133620243Y-113346614D01*
X133609264Y-113201562D01*
X133569699Y-113073167D01*
X133505410Y-112984821D01*
X133436250Y-112958667D01*
X133342860Y-112996193D01*
G36*
X136730213Y-112983077D02*
G01*
X136671263Y-113017769D01*
X136663513Y-113057509D01*
X136707964Y-113092813D01*
X136792042Y-113115958D01*
X136881103Y-113122563D01*
X136940506Y-113108246D01*
X136948333Y-113093533D01*
X136919293Y-113035635D01*
X136886865Y-113002686D01*
X136813318Y-112975291D01*
X136730213Y-112983077D01*
X136730213Y-112983077D01*
G37*
X136730213Y-112983077D02*
X136671263Y-113017769D01*
X136663513Y-113057509D01*
X136707964Y-113092813D01*
X136792042Y-113115958D01*
X136881103Y-113122563D01*
X136940506Y-113108246D01*
X136948333Y-113093533D01*
X136919293Y-113035635D01*
X136886865Y-113002686D01*
X136813318Y-112975291D01*
X136730213Y-112983077D01*
G36*
X136112698Y-113576248D02*
G01*
X136045464Y-113634991D01*
X136030229Y-113703564D01*
X136037020Y-113718812D01*
X136100639Y-113753985D01*
X136202934Y-113760715D01*
X136303104Y-113739743D01*
X136346193Y-113713207D01*
X136369755Y-113647003D01*
X136327631Y-113586770D01*
X136237520Y-113553163D01*
X136207500Y-113551334D01*
X136112698Y-113576248D01*
X136112698Y-113576248D01*
G37*
X136112698Y-113576248D02*
X136045464Y-113634991D01*
X136030229Y-113703564D01*
X136037020Y-113718812D01*
X136100639Y-113753985D01*
X136202934Y-113760715D01*
X136303104Y-113739743D01*
X136346193Y-113713207D01*
X136369755Y-113647003D01*
X136327631Y-113586770D01*
X136237520Y-113553163D01*
X136207500Y-113551334D01*
X136112698Y-113576248D01*
G36*
X134844347Y-100024959D02*
G01*
X134565584Y-100040402D01*
X134339629Y-100073588D01*
X134150904Y-100127967D01*
X133983827Y-100206988D01*
X133822819Y-100314101D01*
X133799204Y-100332052D01*
X133578064Y-100549739D01*
X133387976Y-100829657D01*
X133237665Y-101152368D01*
X133135859Y-101498434D01*
X133091284Y-101848414D01*
X133090008Y-101911825D01*
X133099588Y-102106083D01*
X133125983Y-102316181D01*
X133164520Y-102518816D01*
X133210524Y-102690687D01*
X133259318Y-102808493D01*
X133274301Y-102830417D01*
X133327130Y-102879519D01*
X133349327Y-102859500D01*
X133341188Y-102767089D01*
X133303006Y-102599016D01*
X133297154Y-102576417D01*
X133243488Y-102211305D01*
X133262775Y-101818191D01*
X133353454Y-101409272D01*
X133493859Y-101039902D01*
X133656578Y-100761318D01*
X133859014Y-100539348D01*
X134090707Y-100378989D01*
X134341198Y-100285236D01*
X134600029Y-100263084D01*
X134856740Y-100317531D01*
X134935422Y-100351310D01*
X135126108Y-100443952D01*
X135311608Y-100351310D01*
X135557259Y-100273821D01*
X135815722Y-100273997D01*
X136073830Y-100348919D01*
X136318412Y-100495668D01*
X136437266Y-100600779D01*
X136579738Y-100783187D01*
X136713476Y-101026929D01*
X136829857Y-101308669D01*
X136920258Y-101605077D01*
X136976054Y-101892817D01*
X136990005Y-102096355D01*
X136978969Y-102265326D01*
X136951520Y-102458918D01*
X136930897Y-102560266D01*
X136899945Y-102695953D01*
X136890428Y-102762262D01*
X136904055Y-102772150D01*
X136942534Y-102738576D01*
X136953032Y-102728116D01*
X137002185Y-102644511D01*
X137053739Y-102502220D01*
X137101121Y-102326746D01*
X137137758Y-102143593D01*
X137157075Y-101978266D01*
X137158530Y-101930834D01*
X137138936Y-101724922D01*
X137085773Y-101477261D01*
X137007466Y-101219616D01*
X136912441Y-100983756D01*
X136900970Y-100959767D01*
X136726818Y-100656654D01*
X136529388Y-100423074D01*
X136294872Y-100244425D01*
X136151661Y-100167422D01*
X136042917Y-100116761D01*
X135950846Y-100080473D01*
X135857949Y-100055941D01*
X135746728Y-100040546D01*
X135599684Y-100031672D01*
X135399319Y-100026702D01*
X135191500Y-100023810D01*
X134844347Y-100024959D01*
X134844347Y-100024959D01*
G37*
X134844347Y-100024959D02*
X134565584Y-100040402D01*
X134339629Y-100073588D01*
X134150904Y-100127967D01*
X133983827Y-100206988D01*
X133822819Y-100314101D01*
X133799204Y-100332052D01*
X133578064Y-100549739D01*
X133387976Y-100829657D01*
X133237665Y-101152368D01*
X133135859Y-101498434D01*
X133091284Y-101848414D01*
X133090008Y-101911825D01*
X133099588Y-102106083D01*
X133125983Y-102316181D01*
X133164520Y-102518816D01*
X133210524Y-102690687D01*
X133259318Y-102808493D01*
X133274301Y-102830417D01*
X133327130Y-102879519D01*
X133349327Y-102859500D01*
X133341188Y-102767089D01*
X133303006Y-102599016D01*
X133297154Y-102576417D01*
X133243488Y-102211305D01*
X133262775Y-101818191D01*
X133353454Y-101409272D01*
X133493859Y-101039902D01*
X133656578Y-100761318D01*
X133859014Y-100539348D01*
X134090707Y-100378989D01*
X134341198Y-100285236D01*
X134600029Y-100263084D01*
X134856740Y-100317531D01*
X134935422Y-100351310D01*
X135126108Y-100443952D01*
X135311608Y-100351310D01*
X135557259Y-100273821D01*
X135815722Y-100273997D01*
X136073830Y-100348919D01*
X136318412Y-100495668D01*
X136437266Y-100600779D01*
X136579738Y-100783187D01*
X136713476Y-101026929D01*
X136829857Y-101308669D01*
X136920258Y-101605077D01*
X136976054Y-101892817D01*
X136990005Y-102096355D01*
X136978969Y-102265326D01*
X136951520Y-102458918D01*
X136930897Y-102560266D01*
X136899945Y-102695953D01*
X136890428Y-102762262D01*
X136904055Y-102772150D01*
X136942534Y-102738576D01*
X136953032Y-102728116D01*
X137002185Y-102644511D01*
X137053739Y-102502220D01*
X137101121Y-102326746D01*
X137137758Y-102143593D01*
X137157075Y-101978266D01*
X137158530Y-101930834D01*
X137138936Y-101724922D01*
X137085773Y-101477261D01*
X137007466Y-101219616D01*
X136912441Y-100983756D01*
X136900970Y-100959767D01*
X136726818Y-100656654D01*
X136529388Y-100423074D01*
X136294872Y-100244425D01*
X136151661Y-100167422D01*
X136042917Y-100116761D01*
X135950846Y-100080473D01*
X135857949Y-100055941D01*
X135746728Y-100040546D01*
X135599684Y-100031672D01*
X135399319Y-100026702D01*
X135191500Y-100023810D01*
X134844347Y-100024959D01*
G36*
X131838953Y-103029310D02*
G01*
X131538862Y-103079584D01*
X131237156Y-103169367D01*
X131010407Y-103266587D01*
X130731029Y-103424883D01*
X130518436Y-103594552D01*
X130354903Y-103792103D01*
X130251191Y-103973752D01*
X130111500Y-104257624D01*
X130111500Y-105867834D01*
X130247224Y-106127527D01*
X130434417Y-106405939D01*
X130682402Y-106635544D01*
X130999639Y-106824120D01*
X131010307Y-106829221D01*
X131312305Y-106951022D01*
X131615159Y-107033648D01*
X131902994Y-107075326D01*
X132159936Y-107074281D01*
X132370110Y-107028740D01*
X132450416Y-106990131D01*
X132538802Y-106932476D01*
X132585710Y-106894539D01*
X132588000Y-106890235D01*
X132550531Y-106888073D01*
X132454350Y-106899745D01*
X132371347Y-106913603D01*
X132207782Y-106930626D01*
X132027528Y-106920233D01*
X131816965Y-106884548D01*
X131417549Y-106785115D01*
X131091249Y-106661251D01*
X130828712Y-106507696D01*
X130620587Y-106319188D01*
X130483819Y-106134601D01*
X130362601Y-105899369D01*
X130311846Y-105687397D01*
X130329555Y-105478156D01*
X130400460Y-105279377D01*
X130508982Y-105042334D01*
X130400477Y-104805326D01*
X130326857Y-104595197D01*
X130315080Y-104401803D01*
X130366240Y-104197990D01*
X130430854Y-104052865D01*
X130597386Y-103809833D01*
X130831824Y-103598601D01*
X131121517Y-103424916D01*
X131453815Y-103294519D01*
X131816068Y-103213155D01*
X132195624Y-103186568D01*
X132328736Y-103191174D01*
X132685731Y-103213446D01*
X132555283Y-103130852D01*
X132364589Y-103053413D01*
X132120004Y-103020076D01*
X131838953Y-103029310D01*
X131838953Y-103029310D01*
G37*
X131838953Y-103029310D02*
X131538862Y-103079584D01*
X131237156Y-103169367D01*
X131010407Y-103266587D01*
X130731029Y-103424883D01*
X130518436Y-103594552D01*
X130354903Y-103792103D01*
X130251191Y-103973752D01*
X130111500Y-104257624D01*
X130111500Y-105867834D01*
X130247224Y-106127527D01*
X130434417Y-106405939D01*
X130682402Y-106635544D01*
X130999639Y-106824120D01*
X131010307Y-106829221D01*
X131312305Y-106951022D01*
X131615159Y-107033648D01*
X131902994Y-107075326D01*
X132159936Y-107074281D01*
X132370110Y-107028740D01*
X132450416Y-106990131D01*
X132538802Y-106932476D01*
X132585710Y-106894539D01*
X132588000Y-106890235D01*
X132550531Y-106888073D01*
X132454350Y-106899745D01*
X132371347Y-106913603D01*
X132207782Y-106930626D01*
X132027528Y-106920233D01*
X131816965Y-106884548D01*
X131417549Y-106785115D01*
X131091249Y-106661251D01*
X130828712Y-106507696D01*
X130620587Y-106319188D01*
X130483819Y-106134601D01*
X130362601Y-105899369D01*
X130311846Y-105687397D01*
X130329555Y-105478156D01*
X130400460Y-105279377D01*
X130508982Y-105042334D01*
X130400477Y-104805326D01*
X130326857Y-104595197D01*
X130315080Y-104401803D01*
X130366240Y-104197990D01*
X130430854Y-104052865D01*
X130597386Y-103809833D01*
X130831824Y-103598601D01*
X131121517Y-103424916D01*
X131453815Y-103294519D01*
X131816068Y-103213155D01*
X132195624Y-103186568D01*
X132328736Y-103191174D01*
X132685731Y-103213446D01*
X132555283Y-103130852D01*
X132364589Y-103053413D01*
X132120004Y-103020076D01*
X131838953Y-103029310D01*
G36*
X137834077Y-103054684D02*
G01*
X137618235Y-103119661D01*
X137498760Y-103189805D01*
X137392833Y-103274252D01*
X137541000Y-103237543D01*
X137649779Y-103221452D01*
X137814605Y-103209647D01*
X138006892Y-103203885D01*
X138091333Y-103203706D01*
X138497830Y-103236968D01*
X138871643Y-103327634D01*
X139202620Y-103471017D01*
X139480606Y-103662427D01*
X139695445Y-103897177D01*
X139739750Y-103964804D01*
X139863494Y-104225118D01*
X139906761Y-104469819D01*
X139870241Y-104707384D01*
X139811547Y-104847638D01*
X139705047Y-105055109D01*
X139808357Y-105258981D01*
X139892090Y-105480708D01*
X139905748Y-105692096D01*
X139848537Y-105914025D01*
X139777609Y-106065167D01*
X139633872Y-106286436D01*
X139455093Y-106466251D01*
X139228258Y-106613463D01*
X138940348Y-106736925D01*
X138663573Y-106822828D01*
X138343263Y-106893996D01*
X138052444Y-106918437D01*
X137752009Y-106899050D01*
X137710333Y-106893479D01*
X137477500Y-106860792D01*
X137618082Y-106952452D01*
X137754813Y-107008464D01*
X137950076Y-107046145D01*
X138179478Y-107064265D01*
X138418629Y-107061593D01*
X138643138Y-107036899D01*
X138763428Y-107010230D01*
X139129225Y-106874574D01*
X139453230Y-106688530D01*
X139724552Y-106460851D01*
X139932304Y-106200290D01*
X140042315Y-105982203D01*
X140077627Y-105881734D01*
X140102718Y-105782002D01*
X140119245Y-105666025D01*
X140128865Y-105516819D01*
X140133233Y-105317400D01*
X140134008Y-105050787D01*
X140133994Y-105042334D01*
X140132247Y-104771205D01*
X140126966Y-104567812D01*
X140116506Y-104415243D01*
X140099220Y-104296589D01*
X140073465Y-104194939D01*
X140043065Y-104107641D01*
X139884346Y-103807767D01*
X139652128Y-103549018D01*
X139347391Y-103332255D01*
X138971114Y-103158337D01*
X138954655Y-103152307D01*
X138673662Y-103073300D01*
X138380658Y-103031018D01*
X138094507Y-103024974D01*
X137834077Y-103054684D01*
X137834077Y-103054684D01*
G37*
X137834077Y-103054684D02*
X137618235Y-103119661D01*
X137498760Y-103189805D01*
X137392833Y-103274252D01*
X137541000Y-103237543D01*
X137649779Y-103221452D01*
X137814605Y-103209647D01*
X138006892Y-103203885D01*
X138091333Y-103203706D01*
X138497830Y-103236968D01*
X138871643Y-103327634D01*
X139202620Y-103471017D01*
X139480606Y-103662427D01*
X139695445Y-103897177D01*
X139739750Y-103964804D01*
X139863494Y-104225118D01*
X139906761Y-104469819D01*
X139870241Y-104707384D01*
X139811547Y-104847638D01*
X139705047Y-105055109D01*
X139808357Y-105258981D01*
X139892090Y-105480708D01*
X139905748Y-105692096D01*
X139848537Y-105914025D01*
X139777609Y-106065167D01*
X139633872Y-106286436D01*
X139455093Y-106466251D01*
X139228258Y-106613463D01*
X138940348Y-106736925D01*
X138663573Y-106822828D01*
X138343263Y-106893996D01*
X138052444Y-106918437D01*
X137752009Y-106899050D01*
X137710333Y-106893479D01*
X137477500Y-106860792D01*
X137618082Y-106952452D01*
X137754813Y-107008464D01*
X137950076Y-107046145D01*
X138179478Y-107064265D01*
X138418629Y-107061593D01*
X138643138Y-107036899D01*
X138763428Y-107010230D01*
X139129225Y-106874574D01*
X139453230Y-106688530D01*
X139724552Y-106460851D01*
X139932304Y-106200290D01*
X140042315Y-105982203D01*
X140077627Y-105881734D01*
X140102718Y-105782002D01*
X140119245Y-105666025D01*
X140128865Y-105516819D01*
X140133233Y-105317400D01*
X140134008Y-105050787D01*
X140133994Y-105042334D01*
X140132247Y-104771205D01*
X140126966Y-104567812D01*
X140116506Y-104415243D01*
X140099220Y-104296589D01*
X140073465Y-104194939D01*
X140043065Y-104107641D01*
X139884346Y-103807767D01*
X139652128Y-103549018D01*
X139347391Y-103332255D01*
X138971114Y-103158337D01*
X138954655Y-103152307D01*
X138673662Y-103073300D01*
X138380658Y-103031018D01*
X138094507Y-103024974D01*
X137834077Y-103054684D01*
G36*
X135516867Y-102894521D02*
G01*
X135320306Y-103012692D01*
X135256790Y-103071986D01*
X135113387Y-103219941D01*
X134974220Y-103076646D01*
X134786856Y-102933115D01*
X134582196Y-102861210D01*
X134375723Y-102862850D01*
X134182918Y-102939953D01*
X134136615Y-102972851D01*
X134007081Y-103109951D01*
X133930962Y-103283548D01*
X133901311Y-103511251D01*
X133900333Y-103571849D01*
X133900333Y-103841236D01*
X133656916Y-103825628D01*
X133407088Y-103839993D01*
X133206526Y-103920684D01*
X133048132Y-104070845D01*
X133022760Y-104106677D01*
X132936050Y-104306276D01*
X132928712Y-104515819D01*
X132998664Y-104722153D01*
X133143821Y-104912129D01*
X133151544Y-104919565D01*
X133296336Y-105057334D01*
X133173481Y-105160710D01*
X133015931Y-105341215D01*
X132936278Y-105549502D01*
X132926666Y-105658250D01*
X132962859Y-105881087D01*
X133067540Y-106058356D01*
X133234863Y-106185020D01*
X133458983Y-106256046D01*
X133636887Y-106270000D01*
X133891079Y-106270000D01*
X133906977Y-106584821D01*
X133933142Y-106807178D01*
X133993287Y-106968629D01*
X134099234Y-107089983D01*
X134247481Y-107184189D01*
X134435196Y-107237296D01*
X134637800Y-107221664D01*
X134831181Y-107143703D01*
X134991226Y-107009823D01*
X135014663Y-106980241D01*
X135105910Y-106856822D01*
X135191038Y-106961091D01*
X135369456Y-107123656D01*
X135573735Y-107215909D01*
X135788622Y-107234091D01*
X135998863Y-107174444D01*
X136017660Y-107164796D01*
X136180080Y-107040688D01*
X136282182Y-106869879D01*
X136328387Y-106643366D01*
X136332150Y-106524000D01*
X136329800Y-106248834D01*
X136572187Y-106263007D01*
X136830429Y-106247497D01*
X137034756Y-106169996D01*
X137181234Y-106033849D01*
X137265926Y-105842397D01*
X137286563Y-105656167D01*
X137256774Y-105439083D01*
X137160781Y-105261071D01*
X137033059Y-105135475D01*
X137006356Y-105113873D01*
X135876569Y-105113873D01*
X135825459Y-105325118D01*
X135711439Y-105523396D01*
X135530638Y-105695895D01*
X135507992Y-105711738D01*
X135411889Y-105767425D01*
X135314058Y-105794894D01*
X135182507Y-105800487D01*
X135080995Y-105796363D01*
X134905072Y-105779227D01*
X134779406Y-105744088D01*
X134669929Y-105680514D01*
X134647034Y-105663512D01*
X134473652Y-105487894D01*
X134375902Y-105278798D01*
X134348264Y-105063500D01*
X134382380Y-104806815D01*
X134486047Y-104593271D01*
X134651875Y-104430676D01*
X134872472Y-104326839D01*
X135078911Y-104291590D01*
X135323965Y-104311577D01*
X135529336Y-104395471D01*
X135691153Y-104530460D01*
X135805545Y-104703731D01*
X135868641Y-104902473D01*
X135876569Y-105113873D01*
X137006356Y-105113873D01*
X136927284Y-105049909D01*
X137044488Y-104957717D01*
X137194856Y-104790934D01*
X137273429Y-104581677D01*
X137287000Y-104426551D01*
X137250482Y-104204304D01*
X137146457Y-104026487D01*
X136983217Y-103899810D01*
X136769053Y-103830980D01*
X136542033Y-103823834D01*
X136310236Y-103843056D01*
X136336622Y-103667101D01*
X136337191Y-103422910D01*
X136267748Y-103203205D01*
X136134213Y-103026164D01*
X136125387Y-103018255D01*
X135930805Y-102896597D01*
X135724165Y-102855588D01*
X135516867Y-102894521D01*
X135516867Y-102894521D01*
G37*
X135516867Y-102894521D02*
X135320306Y-103012692D01*
X135256790Y-103071986D01*
X135113387Y-103219941D01*
X134974220Y-103076646D01*
X134786856Y-102933115D01*
X134582196Y-102861210D01*
X134375723Y-102862850D01*
X134182918Y-102939953D01*
X134136615Y-102972851D01*
X134007081Y-103109951D01*
X133930962Y-103283548D01*
X133901311Y-103511251D01*
X133900333Y-103571849D01*
X133900333Y-103841236D01*
X133656916Y-103825628D01*
X133407088Y-103839993D01*
X133206526Y-103920684D01*
X133048132Y-104070845D01*
X133022760Y-104106677D01*
X132936050Y-104306276D01*
X132928712Y-104515819D01*
X132998664Y-104722153D01*
X133143821Y-104912129D01*
X133151544Y-104919565D01*
X133296336Y-105057334D01*
X133173481Y-105160710D01*
X133015931Y-105341215D01*
X132936278Y-105549502D01*
X132926666Y-105658250D01*
X132962859Y-105881087D01*
X133067540Y-106058356D01*
X133234863Y-106185020D01*
X133458983Y-106256046D01*
X133636887Y-106270000D01*
X133891079Y-106270000D01*
X133906977Y-106584821D01*
X133933142Y-106807178D01*
X133993287Y-106968629D01*
X134099234Y-107089983D01*
X134247481Y-107184189D01*
X134435196Y-107237296D01*
X134637800Y-107221664D01*
X134831181Y-107143703D01*
X134991226Y-107009823D01*
X135014663Y-106980241D01*
X135105910Y-106856822D01*
X135191038Y-106961091D01*
X135369456Y-107123656D01*
X135573735Y-107215909D01*
X135788622Y-107234091D01*
X135998863Y-107174444D01*
X136017660Y-107164796D01*
X136180080Y-107040688D01*
X136282182Y-106869879D01*
X136328387Y-106643366D01*
X136332150Y-106524000D01*
X136329800Y-106248834D01*
X136572187Y-106263007D01*
X136830429Y-106247497D01*
X137034756Y-106169996D01*
X137181234Y-106033849D01*
X137265926Y-105842397D01*
X137286563Y-105656167D01*
X137256774Y-105439083D01*
X137160781Y-105261071D01*
X137033059Y-105135475D01*
X137006356Y-105113873D01*
X135876569Y-105113873D01*
X135825459Y-105325118D01*
X135711439Y-105523396D01*
X135530638Y-105695895D01*
X135507992Y-105711738D01*
X135411889Y-105767425D01*
X135314058Y-105794894D01*
X135182507Y-105800487D01*
X135080995Y-105796363D01*
X134905072Y-105779227D01*
X134779406Y-105744088D01*
X134669929Y-105680514D01*
X134647034Y-105663512D01*
X134473652Y-105487894D01*
X134375902Y-105278798D01*
X134348264Y-105063500D01*
X134382380Y-104806815D01*
X134486047Y-104593271D01*
X134651875Y-104430676D01*
X134872472Y-104326839D01*
X135078911Y-104291590D01*
X135323965Y-104311577D01*
X135529336Y-104395471D01*
X135691153Y-104530460D01*
X135805545Y-104703731D01*
X135868641Y-104902473D01*
X135876569Y-105113873D01*
X137006356Y-105113873D01*
X136927284Y-105049909D01*
X137044488Y-104957717D01*
X137194856Y-104790934D01*
X137273429Y-104581677D01*
X137287000Y-104426551D01*
X137250482Y-104204304D01*
X137146457Y-104026487D01*
X136983217Y-103899810D01*
X136769053Y-103830980D01*
X136542033Y-103823834D01*
X136310236Y-103843056D01*
X136336622Y-103667101D01*
X136337191Y-103422910D01*
X136267748Y-103203205D01*
X136134213Y-103026164D01*
X136125387Y-103018255D01*
X135930805Y-102896597D01*
X135724165Y-102855588D01*
X135516867Y-102894521D01*
G36*
X133372529Y-107169340D02*
G01*
X133320917Y-107212983D01*
X133259856Y-107304858D01*
X133201243Y-107460128D01*
X133150113Y-107657560D01*
X133111504Y-107875922D01*
X133090449Y-108093980D01*
X133088070Y-108194797D01*
X133123466Y-108532936D01*
X133218897Y-108883968D01*
X133363808Y-109220275D01*
X133547642Y-109514241D01*
X133630964Y-109615176D01*
X133749806Y-109721785D01*
X133910409Y-109834486D01*
X134062705Y-109920840D01*
X134342965Y-110058834D01*
X135063566Y-110066482D01*
X135335954Y-110068329D01*
X135540498Y-110066281D01*
X135693984Y-110058885D01*
X135813199Y-110044688D01*
X135914930Y-110022237D01*
X136015964Y-109990081D01*
X136038166Y-109982139D01*
X136309986Y-109840817D01*
X136555406Y-109630664D01*
X136767367Y-109365276D01*
X136938813Y-109058249D01*
X137062687Y-108723179D01*
X137131931Y-108373662D01*
X137139487Y-108023294D01*
X137124253Y-107889759D01*
X137080571Y-107662893D01*
X137028478Y-107478638D01*
X136972642Y-107349766D01*
X136917730Y-107289051D01*
X136903631Y-107286000D01*
X136874371Y-107316909D01*
X136883000Y-107359989D01*
X136946119Y-107591917D01*
X136979602Y-107862122D01*
X136978178Y-108127796D01*
X136977917Y-108130907D01*
X136938015Y-108393041D01*
X136865784Y-108677319D01*
X136770958Y-108953519D01*
X136663268Y-109191421D01*
X136603919Y-109292230D01*
X136430466Y-109492357D01*
X136202635Y-109667301D01*
X135950623Y-109795762D01*
X135837631Y-109832663D01*
X135713904Y-109859932D01*
X135617691Y-109859546D01*
X135510432Y-109827271D01*
X135414298Y-109786194D01*
X135276609Y-109731130D01*
X135158972Y-109695031D01*
X135106833Y-109686788D01*
X135022374Y-109703546D01*
X134894974Y-109746670D01*
X134799368Y-109786194D01*
X134663171Y-109842008D01*
X134563877Y-109862968D01*
X134463322Y-109853383D01*
X134381318Y-109833379D01*
X134179759Y-109755164D01*
X133971867Y-109634623D01*
X133787121Y-109491611D01*
X133654999Y-109345981D01*
X133652765Y-109342687D01*
X133531117Y-109123197D01*
X133417583Y-108846972D01*
X133322617Y-108541910D01*
X133273834Y-108331483D01*
X133241726Y-108151894D01*
X133229333Y-108013733D01*
X133236736Y-107879308D01*
X133264017Y-107710926D01*
X133275310Y-107652141D01*
X133310645Y-107480471D01*
X133344266Y-107332985D01*
X133370106Y-107235914D01*
X133374675Y-107222500D01*
X133393074Y-107165474D01*
X133372529Y-107169340D01*
X133372529Y-107169340D01*
G37*
X133372529Y-107169340D02*
X133320917Y-107212983D01*
X133259856Y-107304858D01*
X133201243Y-107460128D01*
X133150113Y-107657560D01*
X133111504Y-107875922D01*
X133090449Y-108093980D01*
X133088070Y-108194797D01*
X133123466Y-108532936D01*
X133218897Y-108883968D01*
X133363808Y-109220275D01*
X133547642Y-109514241D01*
X133630964Y-109615176D01*
X133749806Y-109721785D01*
X133910409Y-109834486D01*
X134062705Y-109920840D01*
X134342965Y-110058834D01*
X135063566Y-110066482D01*
X135335954Y-110068329D01*
X135540498Y-110066281D01*
X135693984Y-110058885D01*
X135813199Y-110044688D01*
X135914930Y-110022237D01*
X136015964Y-109990081D01*
X136038166Y-109982139D01*
X136309986Y-109840817D01*
X136555406Y-109630664D01*
X136767367Y-109365276D01*
X136938813Y-109058249D01*
X137062687Y-108723179D01*
X137131931Y-108373662D01*
X137139487Y-108023294D01*
X137124253Y-107889759D01*
X137080571Y-107662893D01*
X137028478Y-107478638D01*
X136972642Y-107349766D01*
X136917730Y-107289051D01*
X136903631Y-107286000D01*
X136874371Y-107316909D01*
X136883000Y-107359989D01*
X136946119Y-107591917D01*
X136979602Y-107862122D01*
X136978178Y-108127796D01*
X136977917Y-108130907D01*
X136938015Y-108393041D01*
X136865784Y-108677319D01*
X136770958Y-108953519D01*
X136663268Y-109191421D01*
X136603919Y-109292230D01*
X136430466Y-109492357D01*
X136202635Y-109667301D01*
X135950623Y-109795762D01*
X135837631Y-109832663D01*
X135713904Y-109859932D01*
X135617691Y-109859546D01*
X135510432Y-109827271D01*
X135414298Y-109786194D01*
X135276609Y-109731130D01*
X135158972Y-109695031D01*
X135106833Y-109686788D01*
X135022374Y-109703546D01*
X134894974Y-109746670D01*
X134799368Y-109786194D01*
X134663171Y-109842008D01*
X134563877Y-109862968D01*
X134463322Y-109853383D01*
X134381318Y-109833379D01*
X134179759Y-109755164D01*
X133971867Y-109634623D01*
X133787121Y-109491611D01*
X133654999Y-109345981D01*
X133652765Y-109342687D01*
X133531117Y-109123197D01*
X133417583Y-108846972D01*
X133322617Y-108541910D01*
X133273834Y-108331483D01*
X133241726Y-108151894D01*
X133229333Y-108013733D01*
X133236736Y-107879308D01*
X133264017Y-107710926D01*
X133275310Y-107652141D01*
X133310645Y-107480471D01*
X133344266Y-107332985D01*
X133370106Y-107235914D01*
X133374675Y-107222500D01*
X133393074Y-107165474D01*
X133372529Y-107169340D01*
G36*
X134408333Y-96109009D02*
G01*
X134195660Y-96130061D01*
X134013165Y-96152433D01*
X133877569Y-96173756D01*
X133805597Y-96191661D01*
X133799589Y-96195243D01*
X133791167Y-96248794D01*
X133794192Y-96372872D01*
X133807808Y-96554234D01*
X133831161Y-96779637D01*
X133844406Y-96890194D01*
X133870467Y-97114658D01*
X133889122Y-97306306D01*
X133899282Y-97450969D01*
X133899857Y-97534476D01*
X133895087Y-97549334D01*
X133872866Y-97538955D01*
X133853033Y-97500515D01*
X133835305Y-97430403D01*
X133664687Y-97430403D01*
X133622724Y-97562681D01*
X133533781Y-97639947D01*
X133411621Y-97653888D01*
X133270005Y-97596193D01*
X133256356Y-97585163D01*
X132958906Y-97585163D01*
X132947423Y-97670555D01*
X132910650Y-97737915D01*
X132809733Y-97824360D01*
X132679837Y-97842163D01*
X132544121Y-97789387D01*
X132518871Y-97770642D01*
X132401160Y-97636377D01*
X132343396Y-97463954D01*
X132334000Y-97327750D01*
X132350924Y-97169414D01*
X132407530Y-97078312D01*
X132512564Y-97042865D01*
X132550370Y-97041334D01*
X132669279Y-97080315D01*
X132785481Y-97185791D01*
X132883483Y-97340561D01*
X132931665Y-97464656D01*
X132958906Y-97585163D01*
X133256356Y-97585163D01*
X133186611Y-97528801D01*
X133103141Y-97406848D01*
X133062715Y-97259498D01*
X133062458Y-97107441D01*
X133099498Y-96971368D01*
X133170961Y-96871968D01*
X133273973Y-96829932D01*
X133283713Y-96829667D01*
X133390254Y-96867589D01*
X133498616Y-96968023D01*
X133591626Y-97110973D01*
X133645908Y-97251422D01*
X133664687Y-97430403D01*
X133835305Y-97430403D01*
X133833447Y-97423056D01*
X133811963Y-97295622D01*
X133786438Y-97107255D01*
X133754729Y-96846998D01*
X133750181Y-96808500D01*
X133724274Y-96594788D01*
X133700928Y-96413463D01*
X133682237Y-96279965D01*
X133670292Y-96209734D01*
X133668089Y-96202953D01*
X133619162Y-96202872D01*
X133504059Y-96222864D01*
X133337833Y-96259116D01*
X133135534Y-96307811D01*
X132912215Y-96365136D01*
X132682928Y-96427276D01*
X132462723Y-96490415D01*
X132266653Y-96550739D01*
X132172964Y-96581884D01*
X131379049Y-96899545D01*
X130626166Y-97288755D01*
X129918088Y-97745035D01*
X129258590Y-98263904D01*
X128651446Y-98840882D01*
X128100431Y-99471489D01*
X127609320Y-100151246D01*
X127181887Y-100875672D01*
X126821907Y-101640288D01*
X126533154Y-102440613D01*
X126319403Y-103272168D01*
X126257348Y-103603000D01*
X126213404Y-103939512D01*
X126182504Y-104334386D01*
X126165081Y-104762257D01*
X126161570Y-105197766D01*
X126172407Y-105615550D01*
X126198026Y-105990246D01*
X126213940Y-106133726D01*
X126366314Y-107005347D01*
X126597087Y-107845004D01*
X126906225Y-108652613D01*
X127293695Y-109428090D01*
X127759462Y-110171353D01*
X127962387Y-110452557D01*
X128128087Y-110658828D01*
X128341381Y-110902315D01*
X128585293Y-111165465D01*
X128842849Y-111430730D01*
X129097073Y-111680559D01*
X129330990Y-111897401D01*
X129497666Y-112039843D01*
X130165734Y-112526091D01*
X130883370Y-112948286D01*
X131641977Y-113303901D01*
X132432958Y-113590408D01*
X133247718Y-113805280D01*
X134077659Y-113945989D01*
X134914184Y-114010008D01*
X135748699Y-113994810D01*
X136057189Y-113968399D01*
X136896865Y-113838750D01*
X137716668Y-113629266D01*
X138183614Y-113461314D01*
X137919214Y-113461314D01*
X137900296Y-113457402D01*
X137865248Y-113405608D01*
X137824419Y-113320111D01*
X137797704Y-113247062D01*
X137717446Y-113064842D01*
X137615333Y-112937011D01*
X137502960Y-112876895D01*
X137473099Y-112874000D01*
X137386105Y-112893882D01*
X137344775Y-112960041D01*
X137346918Y-113082244D01*
X137386906Y-113258005D01*
X137430120Y-113426770D01*
X137449227Y-113532055D01*
X137444308Y-113569001D01*
X137415441Y-113532751D01*
X137383615Y-113467022D01*
X137160000Y-113467022D01*
X137122603Y-113593548D01*
X137018834Y-113680225D01*
X136861329Y-113717647D01*
X136822497Y-113718365D01*
X136673166Y-113716062D01*
X136810259Y-113663714D01*
X136440333Y-113663714D01*
X136402680Y-113751450D01*
X136305388Y-113815485D01*
X136171958Y-113848126D01*
X136025890Y-113841678D01*
X135956962Y-113821971D01*
X135920759Y-113767859D01*
X135896908Y-113654124D01*
X135885514Y-113504917D01*
X135886679Y-113344392D01*
X135900507Y-113196701D01*
X135927102Y-113085997D01*
X135953630Y-113043225D01*
X136056132Y-112998957D01*
X136178006Y-112996088D01*
X136275646Y-113034626D01*
X136284758Y-113043176D01*
X136301176Y-113074645D01*
X136256600Y-113079700D01*
X136175453Y-113067661D01*
X136068293Y-113055360D01*
X136012144Y-113077135D01*
X135976548Y-113144218D01*
X135955253Y-113260805D01*
X135960073Y-113393138D01*
X135983455Y-113537225D01*
X136145146Y-113494067D01*
X136298062Y-113478375D01*
X136397058Y-113525591D01*
X136439047Y-113633938D01*
X136440333Y-113663714D01*
X136810259Y-113663714D01*
X136863666Y-113643321D01*
X136986734Y-113586375D01*
X137048004Y-113525530D01*
X137067360Y-113457217D01*
X137060538Y-113337316D01*
X137034626Y-113258038D01*
X136992968Y-113205496D01*
X136926580Y-113187576D01*
X136807335Y-113197091D01*
X136800018Y-113198084D01*
X136676804Y-113208411D01*
X136611738Y-113192193D01*
X136584201Y-113153230D01*
X136590325Y-113066470D01*
X136652574Y-112981411D01*
X136746313Y-112925178D01*
X136799348Y-112916334D01*
X136913256Y-112955184D01*
X137019009Y-113058125D01*
X137103238Y-113204743D01*
X137152572Y-113374622D01*
X137160000Y-113467022D01*
X137383615Y-113467022D01*
X137383443Y-113466667D01*
X137337361Y-113328599D01*
X137302946Y-113165002D01*
X137296865Y-113117636D01*
X137297338Y-112943396D01*
X137343690Y-112837885D01*
X137438724Y-112796942D01*
X137510783Y-112800142D01*
X137594207Y-112806150D01*
X137619549Y-112774186D01*
X137607315Y-112687330D01*
X137584579Y-112559378D01*
X137566396Y-112431573D01*
X137555132Y-112325546D01*
X137553151Y-112262928D01*
X137560617Y-112260167D01*
X137579406Y-112313562D01*
X137616715Y-112429429D01*
X137666816Y-112589117D01*
X137723982Y-112773977D01*
X137782485Y-112965360D01*
X137836598Y-113144616D01*
X137880593Y-113293097D01*
X137908743Y-113392152D01*
X137911652Y-113403167D01*
X137919214Y-113461314D01*
X138183614Y-113461314D01*
X138510954Y-113343576D01*
X139274078Y-112985308D01*
X139755591Y-112702083D01*
X139311480Y-112702083D01*
X139304520Y-112808339D01*
X139237534Y-112882397D01*
X139119561Y-112935915D01*
X139001500Y-112953276D01*
X138964028Y-112944301D01*
X138999440Y-112913960D01*
X139055689Y-112884176D01*
X139178368Y-112788712D01*
X139222788Y-112668580D01*
X139186044Y-112533143D01*
X139171905Y-112509861D01*
X139100136Y-112432348D01*
X139019974Y-112424109D01*
X139008488Y-112427151D01*
X138821228Y-112474313D01*
X138703347Y-112484681D01*
X138668909Y-112468292D01*
X138472333Y-112468292D01*
X138436241Y-112520717D01*
X138366102Y-112552817D01*
X138259871Y-112579480D01*
X138338928Y-112737323D01*
X138419450Y-112916747D01*
X138450992Y-113046621D01*
X138434700Y-113145627D01*
X138371721Y-113232448D01*
X138369455Y-113234727D01*
X138277344Y-113305931D01*
X138194237Y-113338147D01*
X138188507Y-113338320D01*
X138138694Y-113332338D01*
X138155577Y-113305486D01*
X138194674Y-113274820D01*
X138269282Y-113226686D01*
X138306562Y-113212667D01*
X138351413Y-113179149D01*
X138360070Y-113092742D01*
X138337286Y-112974662D01*
X138287812Y-112846129D01*
X138216398Y-112728361D01*
X138191376Y-112698268D01*
X138115235Y-112648742D01*
X138023657Y-112663921D01*
X137941251Y-112680909D01*
X137922000Y-112657322D01*
X137957437Y-112611838D01*
X138010079Y-112589040D01*
X138065871Y-112561316D01*
X138077612Y-112505753D01*
X138046847Y-112402316D01*
X138028107Y-112355417D01*
X138023400Y-112293932D01*
X138061048Y-112281334D01*
X138117754Y-112317463D01*
X138151050Y-112387167D01*
X138180848Y-112465329D01*
X138232029Y-112488757D01*
X138328563Y-112464724D01*
X138363744Y-112451715D01*
X138444433Y-112430866D01*
X138471640Y-112456743D01*
X138472333Y-112468292D01*
X138668909Y-112468292D01*
X138648015Y-112458349D01*
X138641666Y-112432256D01*
X138672915Y-112298328D01*
X138756050Y-112219475D01*
X138875157Y-112200061D01*
X139014320Y-112244453D01*
X139103321Y-112305620D01*
X139199389Y-112417857D01*
X139272885Y-112560280D01*
X139311480Y-112702083D01*
X139755591Y-112702083D01*
X140000394Y-112558091D01*
X140574699Y-112144459D01*
X140358982Y-112144459D01*
X140358726Y-112144719D01*
X140317113Y-112139945D01*
X140291178Y-112107837D01*
X140236698Y-112025100D01*
X140175215Y-111943946D01*
X140096723Y-111847013D01*
X139919528Y-111958871D01*
X139801983Y-112042862D01*
X139753145Y-112115281D01*
X139764699Y-112199711D01*
X139805833Y-112281334D01*
X139850354Y-112372509D01*
X139866892Y-112429500D01*
X139849509Y-112440539D01*
X139802425Y-112390290D01*
X139735066Y-112292548D01*
X139656857Y-112161109D01*
X139577226Y-112009768D01*
X139570032Y-111995067D01*
X139489582Y-111804911D01*
X139455115Y-111651052D01*
X139454174Y-111550567D01*
X139468430Y-111436218D01*
X139500958Y-111381080D01*
X139569520Y-111359701D01*
X139589084Y-111357241D01*
X139658824Y-111359875D01*
X139731251Y-111392038D01*
X139823022Y-111464782D01*
X139950791Y-111589160D01*
X139973444Y-111612290D01*
X140164453Y-111816877D01*
X140293350Y-111975111D01*
X140358679Y-112084976D01*
X140358982Y-112144459D01*
X140574699Y-112144459D01*
X140684258Y-112065552D01*
X141320024Y-111511320D01*
X141902048Y-110899023D01*
X142424684Y-110232290D01*
X142820390Y-109621451D01*
X143193576Y-108916254D01*
X143509091Y-108169282D01*
X143760568Y-107399047D01*
X143941642Y-106624062D01*
X144016545Y-106143000D01*
X144036843Y-105916006D01*
X144050819Y-105627913D01*
X144055835Y-105413781D01*
X142561212Y-105413781D01*
X142488922Y-106153809D01*
X142342597Y-106885541D01*
X142121921Y-107602984D01*
X141826578Y-108300148D01*
X141456252Y-108971038D01*
X141022925Y-109593833D01*
X140772307Y-109892633D01*
X140470930Y-110212542D01*
X140141164Y-110532171D01*
X139805381Y-110830130D01*
X139485954Y-111085029D01*
X139391975Y-111153212D01*
X139233666Y-111267889D01*
X139106371Y-111365949D01*
X139023024Y-111437003D01*
X138996559Y-111470666D01*
X138996585Y-111470712D01*
X139101498Y-111654127D01*
X139213540Y-111854530D01*
X139325052Y-112057669D01*
X139428375Y-112249289D01*
X139515851Y-112415137D01*
X139579821Y-112540958D01*
X139612627Y-112612500D01*
X139615333Y-112622289D01*
X139604856Y-112654613D01*
X139571301Y-112631853D01*
X139511477Y-112549341D01*
X139422198Y-112402408D01*
X139300273Y-112186386D01*
X139229764Y-112057787D01*
X139123478Y-111862696D01*
X139032783Y-111696331D01*
X138964787Y-111571722D01*
X138926599Y-111501901D01*
X138920902Y-111491605D01*
X138883763Y-111506816D01*
X138784842Y-111553086D01*
X138638142Y-111623728D01*
X138457668Y-111712053D01*
X138408833Y-111736153D01*
X137687316Y-112046596D01*
X136917225Y-112288485D01*
X136565576Y-112372683D01*
X136411372Y-112404386D01*
X136267491Y-112428427D01*
X136118396Y-112445858D01*
X135948548Y-112457728D01*
X135742411Y-112465087D01*
X135484447Y-112468985D01*
X135159119Y-112470471D01*
X135117416Y-112470534D01*
X134753342Y-112472735D01*
X134472317Y-112478338D01*
X134272792Y-112487413D01*
X134153217Y-112500032D01*
X134112040Y-112516266D01*
X134112000Y-112516855D01*
X134149791Y-112548419D01*
X134250415Y-112593156D01*
X134394749Y-112642986D01*
X134449266Y-112659331D01*
X134642999Y-112715731D01*
X134772720Y-112763892D01*
X134848091Y-112820729D01*
X134878777Y-112903159D01*
X134874442Y-113028098D01*
X134844748Y-113212460D01*
X134825833Y-113318500D01*
X134784621Y-113548158D01*
X134754088Y-113707042D01*
X134730977Y-113807893D01*
X134712032Y-113863448D01*
X134693995Y-113886447D01*
X134679740Y-113890000D01*
X134667921Y-113851713D01*
X134665117Y-113752251D01*
X134670337Y-113638668D01*
X134688517Y-113387335D01*
X134495508Y-113315601D01*
X134359680Y-113259557D01*
X134270690Y-113211838D01*
X134240058Y-113179784D01*
X134267544Y-113170334D01*
X134332577Y-113183560D01*
X134443220Y-113216896D01*
X134495324Y-113234654D01*
X134610994Y-113266594D01*
X134692692Y-113272995D01*
X134710375Y-113266225D01*
X134733079Y-113206906D01*
X134751286Y-113096691D01*
X134755645Y-113047432D01*
X134768166Y-112861388D01*
X134438677Y-112740896D01*
X134262906Y-112681008D01*
X134153458Y-112655311D01*
X134100111Y-112661806D01*
X134092144Y-112673119D01*
X134078876Y-112734922D01*
X134056443Y-112860420D01*
X134028312Y-113029590D01*
X134005990Y-113170334D01*
X133961897Y-113439221D01*
X133925192Y-113629001D01*
X133894572Y-113744787D01*
X133868733Y-113791689D01*
X133850051Y-113782082D01*
X133848404Y-113727857D01*
X133859936Y-113606482D01*
X133882667Y-113434109D01*
X133899167Y-113327099D01*
X133686924Y-113327099D01*
X133656154Y-113501075D01*
X133643685Y-113537133D01*
X133560824Y-113668115D01*
X133444821Y-113721931D01*
X133302054Y-113696176D01*
X133267003Y-113679227D01*
X133172464Y-113586326D01*
X133127097Y-113450935D01*
X133125989Y-113294130D01*
X133164226Y-113136985D01*
X133236893Y-113000577D01*
X133339077Y-112905982D01*
X133454746Y-112874000D01*
X133555016Y-112912026D01*
X133630824Y-113013161D01*
X133676637Y-113157990D01*
X133686924Y-113327099D01*
X133899167Y-113327099D01*
X133914619Y-113226886D01*
X133927606Y-113149167D01*
X133963262Y-112931497D01*
X133987368Y-112770431D01*
X133036883Y-112770431D01*
X133018051Y-112810502D01*
X132947881Y-112903305D01*
X132826681Y-113045431D01*
X132772696Y-113105719D01*
X132641650Y-113248551D01*
X132555338Y-113335219D01*
X132502882Y-113373399D01*
X132473405Y-113370771D01*
X132456032Y-113335013D01*
X132454636Y-113330245D01*
X132431493Y-113210654D01*
X132422886Y-113117417D01*
X132414686Y-113034472D01*
X132387121Y-113008672D01*
X132323570Y-113038605D01*
X132235925Y-113101521D01*
X132120934Y-113181573D01*
X132016038Y-113245791D01*
X132004553Y-113251907D01*
X131937564Y-113280273D01*
X131920500Y-113254517D01*
X131932118Y-113183136D01*
X131967293Y-113033423D01*
X132013332Y-112867999D01*
X132063644Y-112706979D01*
X132083479Y-112650564D01*
X131820881Y-112650564D01*
X131777814Y-112825068D01*
X131682984Y-112990121D01*
X131646467Y-113032750D01*
X131568190Y-113103370D01*
X131496605Y-113121158D01*
X131403206Y-113086832D01*
X131323809Y-113040894D01*
X131237316Y-112977227D01*
X131206203Y-112933480D01*
X131232351Y-112922844D01*
X131311591Y-112955237D01*
X131463278Y-113004188D01*
X131586050Y-112976930D01*
X131672797Y-112875242D01*
X131678198Y-112863417D01*
X131709252Y-112782628D01*
X131707858Y-112724857D01*
X131663648Y-112664415D01*
X131566255Y-112575616D01*
X131559737Y-112569913D01*
X131454672Y-112466456D01*
X131421855Y-112395140D01*
X131461264Y-112343998D01*
X131559251Y-112305093D01*
X131664287Y-112309693D01*
X131739168Y-112363835D01*
X131809046Y-112489267D01*
X131820881Y-112650564D01*
X132083479Y-112650564D01*
X132111637Y-112570483D01*
X132150720Y-112478625D01*
X132172120Y-112450667D01*
X132196049Y-112456540D01*
X132202838Y-112484597D01*
X132189865Y-112550496D01*
X132154510Y-112669894D01*
X132114312Y-112795947D01*
X132072041Y-112940534D01*
X132047529Y-113051765D01*
X132045605Y-113107311D01*
X132046665Y-113108776D01*
X132091091Y-113099159D01*
X132182159Y-113049285D01*
X132287520Y-112978771D01*
X132503333Y-112823725D01*
X132503333Y-113039362D01*
X132506547Y-113161442D01*
X132514778Y-113239605D01*
X132521502Y-113255000D01*
X132556992Y-113226524D01*
X132635637Y-113150699D01*
X132742667Y-113041928D01*
X132782245Y-113000687D01*
X132919289Y-112862116D01*
X133004065Y-112786500D01*
X133036883Y-112770431D01*
X133987368Y-112770431D01*
X133991759Y-112741096D01*
X134010778Y-112594789D01*
X134018001Y-112509403D01*
X134017389Y-112497398D01*
X133968828Y-112457479D01*
X133839819Y-112412474D01*
X133634335Y-112363728D01*
X133604000Y-112357544D01*
X133327675Y-112286117D01*
X131272155Y-112286117D01*
X131225475Y-112389397D01*
X131142376Y-112524750D01*
X131045365Y-112663955D01*
X130973407Y-112752050D01*
X130932420Y-112785451D01*
X130928326Y-112760577D01*
X130967043Y-112673846D01*
X131002444Y-112609417D01*
X131088183Y-112421214D01*
X131103485Y-112278686D01*
X131048282Y-112180421D01*
X130979333Y-112141375D01*
X130883553Y-112093089D01*
X130855355Y-112052080D01*
X130899280Y-112029117D01*
X130931227Y-112027334D01*
X131014907Y-112055642D01*
X131108198Y-112124041D01*
X131111144Y-112126913D01*
X131195974Y-112200797D01*
X131262334Y-112242662D01*
X131264267Y-112243330D01*
X131272155Y-112286117D01*
X133327675Y-112286117D01*
X132865875Y-112166747D01*
X132162500Y-111901858D01*
X130676196Y-111901858D01*
X130674676Y-111958915D01*
X130637338Y-112066502D01*
X130554749Y-112103828D01*
X130429399Y-112070556D01*
X130320214Y-112006896D01*
X130179324Y-111928220D01*
X130084459Y-111917617D01*
X130030231Y-111975887D01*
X130014088Y-112052453D01*
X130020386Y-112160732D01*
X130075309Y-112236610D01*
X130194570Y-112298443D01*
X130238500Y-112314641D01*
X130365500Y-112359316D01*
X130247159Y-112362658D01*
X130116210Y-112329013D01*
X130024909Y-112262091D01*
X129937926Y-112139152D01*
X129932595Y-112017332D01*
X129986900Y-111909753D01*
X130065434Y-111834922D01*
X130161032Y-111824874D01*
X130288663Y-111880089D01*
X130353427Y-111921500D01*
X130481777Y-111999740D01*
X130562754Y-112022609D01*
X130611091Y-111992276D01*
X130626184Y-111961680D01*
X130616834Y-111882487D01*
X130553714Y-111794401D01*
X130460932Y-111721748D01*
X130362594Y-111688853D01*
X130355622Y-111688667D01*
X130288255Y-111674351D01*
X130280833Y-111646334D01*
X130347959Y-111606231D01*
X130453266Y-111641526D01*
X130555011Y-111715498D01*
X130645337Y-111809184D01*
X130676196Y-111901858D01*
X132162500Y-111901858D01*
X132152322Y-111898025D01*
X131469572Y-111556110D01*
X130823854Y-111145733D01*
X130221399Y-110671625D01*
X129668436Y-110138518D01*
X129171196Y-109551144D01*
X128735909Y-108914232D01*
X128486773Y-108471334D01*
X128163567Y-107757657D01*
X127920588Y-107026992D01*
X127756473Y-106284965D01*
X127669859Y-105537203D01*
X127659384Y-104789335D01*
X127723684Y-104046988D01*
X127861397Y-103315789D01*
X128071159Y-102601365D01*
X128351607Y-101909345D01*
X128701380Y-101245356D01*
X129119113Y-100615025D01*
X129603444Y-100023980D01*
X130153010Y-99477849D01*
X130766448Y-98982258D01*
X130788834Y-98966059D01*
X131069730Y-98780700D01*
X131407741Y-98584881D01*
X131778423Y-98390868D01*
X132157330Y-98210926D01*
X132520018Y-98057322D01*
X132806703Y-97953563D01*
X132816697Y-97950497D01*
X132286151Y-97950497D01*
X132277544Y-97969762D01*
X132252464Y-97972669D01*
X132249333Y-97972667D01*
X132212050Y-97938263D01*
X132207000Y-97907480D01*
X132182438Y-97793034D01*
X132118884Y-97666472D01*
X132031537Y-97546092D01*
X131935593Y-97450193D01*
X131846251Y-97397073D01*
X131785528Y-97400016D01*
X131747590Y-97469342D01*
X131748557Y-97591212D01*
X131787332Y-97743547D01*
X131804833Y-97788696D01*
X131849951Y-97899957D01*
X131865059Y-97953953D01*
X131853696Y-97971154D01*
X131836583Y-97972341D01*
X131798527Y-97938651D01*
X131738767Y-97853779D01*
X131708456Y-97803245D01*
X131610130Y-97662430D01*
X131506973Y-97565760D01*
X131413784Y-97523953D01*
X131349497Y-97543236D01*
X131331384Y-97590600D01*
X131340203Y-97680254D01*
X131378221Y-97826014D01*
X131415171Y-97943633D01*
X131478110Y-98141279D01*
X131514444Y-98268580D01*
X131525974Y-98334949D01*
X131514504Y-98349798D01*
X131489169Y-98330102D01*
X131459397Y-98273746D01*
X131413575Y-98156710D01*
X131359463Y-97999566D01*
X131332411Y-97914599D01*
X131278789Y-97738169D01*
X131249429Y-97624669D01*
X131242754Y-97556400D01*
X131257185Y-97515666D01*
X131291142Y-97484769D01*
X131293886Y-97482754D01*
X131361628Y-97449305D01*
X131441109Y-97458059D01*
X131514143Y-97485463D01*
X131610279Y-97519693D01*
X131650979Y-97514038D01*
X131656666Y-97490235D01*
X131685625Y-97423316D01*
X131743701Y-97356690D01*
X131819839Y-97304797D01*
X131887925Y-97315063D01*
X131914757Y-97330397D01*
X131994007Y-97363033D01*
X132034644Y-97360701D01*
X132065163Y-97386391D01*
X132113391Y-97474502D01*
X132169899Y-97607257D01*
X132181089Y-97636856D01*
X132241129Y-97799814D01*
X132275081Y-97899105D01*
X132286151Y-97950497D01*
X132816697Y-97950497D01*
X133177390Y-97839851D01*
X133511572Y-97753414D01*
X133831434Y-97691020D01*
X134159161Y-97649435D01*
X134516940Y-97625424D01*
X134926957Y-97615754D01*
X135128000Y-97615205D01*
X135443620Y-97616761D01*
X135692854Y-97620970D01*
X135893972Y-97629286D01*
X136065246Y-97643163D01*
X136224947Y-97664055D01*
X136391346Y-97693417D01*
X136569804Y-97729955D01*
X137351941Y-97933815D01*
X138082365Y-98203310D01*
X138766078Y-98541210D01*
X139408082Y-98950287D01*
X140013379Y-99433311D01*
X140512213Y-99913961D01*
X141020821Y-100504638D01*
X141457923Y-101134957D01*
X141823203Y-101798926D01*
X142116345Y-102490551D01*
X142337033Y-103203842D01*
X142484951Y-103932805D01*
X142559783Y-104671448D01*
X142561212Y-105413781D01*
X144055835Y-105413781D01*
X144058468Y-105301443D01*
X144059789Y-104959316D01*
X144054779Y-104624255D01*
X144043436Y-104318981D01*
X144025756Y-104066216D01*
X144016797Y-103984000D01*
X143867236Y-103124788D01*
X143638178Y-102287951D01*
X143332190Y-101479558D01*
X142951842Y-100705683D01*
X142499703Y-99972397D01*
X142082318Y-99412000D01*
X141727240Y-99007330D01*
X141313140Y-98593894D01*
X140861137Y-98190235D01*
X140392352Y-97814895D01*
X139927905Y-97486415D01*
X139784666Y-97394859D01*
X139613503Y-97286590D01*
X139489838Y-97213586D01*
X139397606Y-97180269D01*
X139320736Y-97191057D01*
X139243160Y-97250371D01*
X139148810Y-97362631D01*
X139021618Y-97532257D01*
X138953075Y-97623605D01*
X138782060Y-97850099D01*
X138656480Y-98014967D01*
X138569836Y-98123454D01*
X138515630Y-98180803D01*
X138487363Y-98192258D01*
X138478538Y-98163063D01*
X138482655Y-98098461D01*
X138493217Y-98003695D01*
X138494266Y-97993834D01*
X138512568Y-97839293D01*
X138531842Y-97706677D01*
X138543607Y-97644395D01*
X138549756Y-97599146D01*
X138530571Y-97586362D01*
X138472526Y-97609773D01*
X138362090Y-97673108D01*
X138297053Y-97712377D01*
X138110874Y-97819454D01*
X137965875Y-97890789D01*
X137871538Y-97922317D01*
X137837340Y-97909974D01*
X137837333Y-97909475D01*
X137853038Y-97863296D01*
X137895329Y-97756584D01*
X137956971Y-97606426D01*
X138030727Y-97429907D01*
X138109361Y-97244112D01*
X138115450Y-97229904D01*
X137786015Y-97229904D01*
X137783108Y-97277701D01*
X137753777Y-97379161D01*
X137707022Y-97511298D01*
X137651840Y-97651129D01*
X137597231Y-97775669D01*
X137552193Y-97861933D01*
X137528364Y-97888000D01*
X137511443Y-97854127D01*
X137521358Y-97792750D01*
X137560524Y-97680931D01*
X137615031Y-97548636D01*
X137674950Y-97416981D01*
X137730351Y-97307082D01*
X137771307Y-97240056D01*
X137786015Y-97229904D01*
X138115450Y-97229904D01*
X138185102Y-97067377D01*
X137618879Y-97067377D01*
X137608886Y-97108670D01*
X137584560Y-97180223D01*
X137544054Y-97307340D01*
X137495483Y-97464482D01*
X137487940Y-97489273D01*
X137430680Y-97659884D01*
X137384690Y-97763286D01*
X137353604Y-97796362D01*
X137341058Y-97755994D01*
X137350685Y-97639065D01*
X137356220Y-97602250D01*
X137384480Y-97333221D01*
X137374456Y-97127165D01*
X137327091Y-96988222D01*
X137243329Y-96920532D01*
X137199550Y-96914334D01*
X137115502Y-96946675D01*
X137035739Y-97047621D01*
X136956576Y-97223055D01*
X136899697Y-97392833D01*
X136844209Y-97557155D01*
X136805657Y-97640017D01*
X136787352Y-97643521D01*
X136792607Y-97569771D01*
X136824731Y-97420869D01*
X136841686Y-97355993D01*
X136921513Y-97129813D01*
X137020179Y-96960316D01*
X137057217Y-96925758D01*
X136774693Y-96925758D01*
X136728642Y-96948811D01*
X136664077Y-96947686D01*
X136597386Y-96946562D01*
X136558501Y-96974190D01*
X136534142Y-97050021D01*
X136515083Y-97165914D01*
X136483415Y-97310352D01*
X136439526Y-97428694D01*
X136411779Y-97472830D01*
X136327336Y-97525458D01*
X136218450Y-97548160D01*
X136121686Y-97537165D01*
X136080500Y-97507000D01*
X136096683Y-97476699D01*
X136177962Y-97464667D01*
X136178651Y-97464667D01*
X136296221Y-97441780D01*
X136373075Y-97365392D01*
X136417823Y-97223916D01*
X136430833Y-97125308D01*
X136433907Y-97051162D01*
X135968368Y-97051162D01*
X135953323Y-97241597D01*
X135911007Y-97365746D01*
X135864983Y-97461628D01*
X135813790Y-97500853D01*
X135724612Y-97501205D01*
X135673047Y-97494727D01*
X135555078Y-97471869D01*
X135474399Y-97443504D01*
X135462644Y-97435244D01*
X135475561Y-97416058D01*
X135551914Y-97411961D01*
X135587950Y-97414533D01*
X135746081Y-97401404D01*
X135846181Y-97329414D01*
X135883540Y-97202745D01*
X135881703Y-97153609D01*
X135864817Y-97073084D01*
X135296685Y-97073084D01*
X135292189Y-97244990D01*
X135279201Y-97365948D01*
X135259547Y-97420679D01*
X135255000Y-97422334D01*
X135231686Y-97384085D01*
X135231682Y-97384056D01*
X134684219Y-97384056D01*
X134670286Y-97453324D01*
X134645608Y-97446773D01*
X134616612Y-97360953D01*
X134602104Y-97284750D01*
X134552087Y-97092087D01*
X134477768Y-96969035D01*
X134384521Y-96919951D01*
X134277721Y-96949194D01*
X134231750Y-96984395D01*
X134161193Y-97094310D01*
X134159123Y-97214431D01*
X134215114Y-97324291D01*
X134318738Y-97403421D01*
X134459450Y-97431357D01*
X134543514Y-97434937D01*
X134549857Y-97454643D01*
X134533660Y-97466597D01*
X134444880Y-97502362D01*
X134340940Y-97491851D01*
X134262163Y-97465426D01*
X134149542Y-97381867D01*
X134095206Y-97249280D01*
X134105542Y-97085532D01*
X134114946Y-97053574D01*
X134193359Y-96916063D01*
X134307555Y-96846933D01*
X134443568Y-96853449D01*
X134475517Y-96865976D01*
X134585035Y-96915876D01*
X134555210Y-96597605D01*
X134543511Y-96413042D01*
X134550089Y-96306576D01*
X134568893Y-96279334D01*
X134591543Y-96318694D01*
X134613818Y-96424983D01*
X134632422Y-96580515D01*
X134637905Y-96649750D01*
X134652151Y-96852654D01*
X134666775Y-97054513D01*
X134679028Y-97217460D01*
X134680980Y-97242417D01*
X134684219Y-97384056D01*
X135231682Y-97384056D01*
X135216310Y-97285535D01*
X135212666Y-97192524D01*
X135196046Y-97006077D01*
X135142372Y-96891325D01*
X135045928Y-96841307D01*
X134926695Y-96844386D01*
X134834798Y-96854959D01*
X134811470Y-96840468D01*
X134833412Y-96806396D01*
X134919714Y-96758409D01*
X135041190Y-96748130D01*
X135155981Y-96778135D01*
X135169216Y-96785747D01*
X135239155Y-96797985D01*
X135263818Y-96774516D01*
X135278436Y-96789501D01*
X135289754Y-96873058D01*
X135296004Y-97009107D01*
X135296685Y-97073084D01*
X135864817Y-97073084D01*
X135864479Y-97071474D01*
X135818049Y-97020661D01*
X135719505Y-96981078D01*
X135667750Y-96965959D01*
X135528045Y-96911510D01*
X135472218Y-96849497D01*
X135499708Y-96778518D01*
X135569661Y-96721801D01*
X135689915Y-96682923D01*
X135801453Y-96726999D01*
X135900724Y-96852474D01*
X135910728Y-96871153D01*
X135968368Y-97051162D01*
X136433907Y-97051162D01*
X136436541Y-96987670D01*
X136418090Y-96916165D01*
X136392734Y-96897940D01*
X136305414Y-96867654D01*
X136249833Y-96846377D01*
X136204014Y-96822335D01*
X136228608Y-96807493D01*
X136300178Y-96797493D01*
X136398945Y-96772265D01*
X136441131Y-96711716D01*
X136448345Y-96671691D01*
X136478532Y-96581848D01*
X136520842Y-96541512D01*
X136558657Y-96546211D01*
X136561667Y-96608065D01*
X136553170Y-96657067D01*
X136543297Y-96753711D01*
X136579060Y-96804863D01*
X136652577Y-96836212D01*
X136748872Y-96883704D01*
X136774693Y-96925758D01*
X137057217Y-96925758D01*
X137130471Y-96857410D01*
X137224863Y-96829667D01*
X137330680Y-96867846D01*
X137414781Y-96965817D01*
X137457434Y-97098726D01*
X137459198Y-97124836D01*
X137462063Y-97231834D01*
X137508001Y-97136584D01*
X137556310Y-97067138D01*
X137600431Y-97042088D01*
X137618879Y-97067377D01*
X138185102Y-97067377D01*
X138185639Y-97066126D01*
X138252324Y-96913036D01*
X138264405Y-96886111D01*
X138049000Y-96886111D01*
X138022320Y-96966762D01*
X137964062Y-96989420D01*
X137906896Y-96951233D01*
X137887146Y-96900242D01*
X137905104Y-96841939D01*
X137961229Y-96829667D01*
X138031582Y-96852462D01*
X138049000Y-96886111D01*
X138264405Y-96886111D01*
X138302180Y-96801927D01*
X138327971Y-96749883D01*
X138329000Y-96748528D01*
X138366609Y-96752165D01*
X138366867Y-96804801D01*
X138337151Y-96915962D01*
X138283960Y-97067767D01*
X138213796Y-97242335D01*
X138133158Y-97421785D01*
X138094417Y-97500890D01*
X138030841Y-97635900D01*
X137990460Y-97739769D01*
X137981285Y-97791637D01*
X137982221Y-97792999D01*
X138025542Y-97781943D01*
X138120728Y-97732172D01*
X138250114Y-97653280D01*
X138301985Y-97619382D01*
X138440274Y-97529336D01*
X138550854Y-97460895D01*
X138615668Y-97425104D01*
X138624149Y-97422334D01*
X138633204Y-97460565D01*
X138631367Y-97560347D01*
X138620371Y-97686917D01*
X138607698Y-97802861D01*
X138605116Y-97874688D01*
X138619904Y-97898297D01*
X138659342Y-97869584D01*
X138730712Y-97784446D01*
X138841292Y-97638783D01*
X138939662Y-97507000D01*
X139053706Y-97356350D01*
X139151005Y-97231696D01*
X139219383Y-97148410D01*
X139244291Y-97122391D01*
X139225819Y-97095075D01*
X139141620Y-97043058D01*
X139004826Y-96972454D01*
X138828571Y-96889374D01*
X138625987Y-96799932D01*
X138410208Y-96710241D01*
X138194367Y-96626412D01*
X138120346Y-96599266D01*
X137400521Y-96377696D01*
X136644549Y-96215440D01*
X135873533Y-96115285D01*
X135108576Y-96080017D01*
X134408333Y-96109009D01*
X134408333Y-96109009D01*
G37*
X134408333Y-96109009D02*
X134195660Y-96130061D01*
X134013165Y-96152433D01*
X133877569Y-96173756D01*
X133805597Y-96191661D01*
X133799589Y-96195243D01*
X133791167Y-96248794D01*
X133794192Y-96372872D01*
X133807808Y-96554234D01*
X133831161Y-96779637D01*
X133844406Y-96890194D01*
X133870467Y-97114658D01*
X133889122Y-97306306D01*
X133899282Y-97450969D01*
X133899857Y-97534476D01*
X133895087Y-97549334D01*
X133872866Y-97538955D01*
X133853033Y-97500515D01*
X133835305Y-97430403D01*
X133664687Y-97430403D01*
X133622724Y-97562681D01*
X133533781Y-97639947D01*
X133411621Y-97653888D01*
X133270005Y-97596193D01*
X133256356Y-97585163D01*
X132958906Y-97585163D01*
X132947423Y-97670555D01*
X132910650Y-97737915D01*
X132809733Y-97824360D01*
X132679837Y-97842163D01*
X132544121Y-97789387D01*
X132518871Y-97770642D01*
X132401160Y-97636377D01*
X132343396Y-97463954D01*
X132334000Y-97327750D01*
X132350924Y-97169414D01*
X132407530Y-97078312D01*
X132512564Y-97042865D01*
X132550370Y-97041334D01*
X132669279Y-97080315D01*
X132785481Y-97185791D01*
X132883483Y-97340561D01*
X132931665Y-97464656D01*
X132958906Y-97585163D01*
X133256356Y-97585163D01*
X133186611Y-97528801D01*
X133103141Y-97406848D01*
X133062715Y-97259498D01*
X133062458Y-97107441D01*
X133099498Y-96971368D01*
X133170961Y-96871968D01*
X133273973Y-96829932D01*
X133283713Y-96829667D01*
X133390254Y-96867589D01*
X133498616Y-96968023D01*
X133591626Y-97110973D01*
X133645908Y-97251422D01*
X133664687Y-97430403D01*
X133835305Y-97430403D01*
X133833447Y-97423056D01*
X133811963Y-97295622D01*
X133786438Y-97107255D01*
X133754729Y-96846998D01*
X133750181Y-96808500D01*
X133724274Y-96594788D01*
X133700928Y-96413463D01*
X133682237Y-96279965D01*
X133670292Y-96209734D01*
X133668089Y-96202953D01*
X133619162Y-96202872D01*
X133504059Y-96222864D01*
X133337833Y-96259116D01*
X133135534Y-96307811D01*
X132912215Y-96365136D01*
X132682928Y-96427276D01*
X132462723Y-96490415D01*
X132266653Y-96550739D01*
X132172964Y-96581884D01*
X131379049Y-96899545D01*
X130626166Y-97288755D01*
X129918088Y-97745035D01*
X129258590Y-98263904D01*
X128651446Y-98840882D01*
X128100431Y-99471489D01*
X127609320Y-100151246D01*
X127181887Y-100875672D01*
X126821907Y-101640288D01*
X126533154Y-102440613D01*
X126319403Y-103272168D01*
X126257348Y-103603000D01*
X126213404Y-103939512D01*
X126182504Y-104334386D01*
X126165081Y-104762257D01*
X126161570Y-105197766D01*
X126172407Y-105615550D01*
X126198026Y-105990246D01*
X126213940Y-106133726D01*
X126366314Y-107005347D01*
X126597087Y-107845004D01*
X126906225Y-108652613D01*
X127293695Y-109428090D01*
X127759462Y-110171353D01*
X127962387Y-110452557D01*
X128128087Y-110658828D01*
X128341381Y-110902315D01*
X128585293Y-111165465D01*
X128842849Y-111430730D01*
X129097073Y-111680559D01*
X129330990Y-111897401D01*
X129497666Y-112039843D01*
X130165734Y-112526091D01*
X130883370Y-112948286D01*
X131641977Y-113303901D01*
X132432958Y-113590408D01*
X133247718Y-113805280D01*
X134077659Y-113945989D01*
X134914184Y-114010008D01*
X135748699Y-113994810D01*
X136057189Y-113968399D01*
X136896865Y-113838750D01*
X137716668Y-113629266D01*
X138183614Y-113461314D01*
X137919214Y-113461314D01*
X137900296Y-113457402D01*
X137865248Y-113405608D01*
X137824419Y-113320111D01*
X137797704Y-113247062D01*
X137717446Y-113064842D01*
X137615333Y-112937011D01*
X137502960Y-112876895D01*
X137473099Y-112874000D01*
X137386105Y-112893882D01*
X137344775Y-112960041D01*
X137346918Y-113082244D01*
X137386906Y-113258005D01*
X137430120Y-113426770D01*
X137449227Y-113532055D01*
X137444308Y-113569001D01*
X137415441Y-113532751D01*
X137383615Y-113467022D01*
X137160000Y-113467022D01*
X137122603Y-113593548D01*
X137018834Y-113680225D01*
X136861329Y-113717647D01*
X136822497Y-113718365D01*
X136673166Y-113716062D01*
X136810259Y-113663714D01*
X136440333Y-113663714D01*
X136402680Y-113751450D01*
X136305388Y-113815485D01*
X136171958Y-113848126D01*
X136025890Y-113841678D01*
X135956962Y-113821971D01*
X135920759Y-113767859D01*
X135896908Y-113654124D01*
X135885514Y-113504917D01*
X135886679Y-113344392D01*
X135900507Y-113196701D01*
X135927102Y-113085997D01*
X135953630Y-113043225D01*
X136056132Y-112998957D01*
X136178006Y-112996088D01*
X136275646Y-113034626D01*
X136284758Y-113043176D01*
X136301176Y-113074645D01*
X136256600Y-113079700D01*
X136175453Y-113067661D01*
X136068293Y-113055360D01*
X136012144Y-113077135D01*
X135976548Y-113144218D01*
X135955253Y-113260805D01*
X135960073Y-113393138D01*
X135983455Y-113537225D01*
X136145146Y-113494067D01*
X136298062Y-113478375D01*
X136397058Y-113525591D01*
X136439047Y-113633938D01*
X136440333Y-113663714D01*
X136810259Y-113663714D01*
X136863666Y-113643321D01*
X136986734Y-113586375D01*
X137048004Y-113525530D01*
X137067360Y-113457217D01*
X137060538Y-113337316D01*
X137034626Y-113258038D01*
X136992968Y-113205496D01*
X136926580Y-113187576D01*
X136807335Y-113197091D01*
X136800018Y-113198084D01*
X136676804Y-113208411D01*
X136611738Y-113192193D01*
X136584201Y-113153230D01*
X136590325Y-113066470D01*
X136652574Y-112981411D01*
X136746313Y-112925178D01*
X136799348Y-112916334D01*
X136913256Y-112955184D01*
X137019009Y-113058125D01*
X137103238Y-113204743D01*
X137152572Y-113374622D01*
X137160000Y-113467022D01*
X137383615Y-113467022D01*
X137383443Y-113466667D01*
X137337361Y-113328599D01*
X137302946Y-113165002D01*
X137296865Y-113117636D01*
X137297338Y-112943396D01*
X137343690Y-112837885D01*
X137438724Y-112796942D01*
X137510783Y-112800142D01*
X137594207Y-112806150D01*
X137619549Y-112774186D01*
X137607315Y-112687330D01*
X137584579Y-112559378D01*
X137566396Y-112431573D01*
X137555132Y-112325546D01*
X137553151Y-112262928D01*
X137560617Y-112260167D01*
X137579406Y-112313562D01*
X137616715Y-112429429D01*
X137666816Y-112589117D01*
X137723982Y-112773977D01*
X137782485Y-112965360D01*
X137836598Y-113144616D01*
X137880593Y-113293097D01*
X137908743Y-113392152D01*
X137911652Y-113403167D01*
X137919214Y-113461314D01*
X138183614Y-113461314D01*
X138510954Y-113343576D01*
X139274078Y-112985308D01*
X139755591Y-112702083D01*
X139311480Y-112702083D01*
X139304520Y-112808339D01*
X139237534Y-112882397D01*
X139119561Y-112935915D01*
X139001500Y-112953276D01*
X138964028Y-112944301D01*
X138999440Y-112913960D01*
X139055689Y-112884176D01*
X139178368Y-112788712D01*
X139222788Y-112668580D01*
X139186044Y-112533143D01*
X139171905Y-112509861D01*
X139100136Y-112432348D01*
X139019974Y-112424109D01*
X139008488Y-112427151D01*
X138821228Y-112474313D01*
X138703347Y-112484681D01*
X138668909Y-112468292D01*
X138472333Y-112468292D01*
X138436241Y-112520717D01*
X138366102Y-112552817D01*
X138259871Y-112579480D01*
X138338928Y-112737323D01*
X138419450Y-112916747D01*
X138450992Y-113046621D01*
X138434700Y-113145627D01*
X138371721Y-113232448D01*
X138369455Y-113234727D01*
X138277344Y-113305931D01*
X138194237Y-113338147D01*
X138188507Y-113338320D01*
X138138694Y-113332338D01*
X138155577Y-113305486D01*
X138194674Y-113274820D01*
X138269282Y-113226686D01*
X138306562Y-113212667D01*
X138351413Y-113179149D01*
X138360070Y-113092742D01*
X138337286Y-112974662D01*
X138287812Y-112846129D01*
X138216398Y-112728361D01*
X138191376Y-112698268D01*
X138115235Y-112648742D01*
X138023657Y-112663921D01*
X137941251Y-112680909D01*
X137922000Y-112657322D01*
X137957437Y-112611838D01*
X138010079Y-112589040D01*
X138065871Y-112561316D01*
X138077612Y-112505753D01*
X138046847Y-112402316D01*
X138028107Y-112355417D01*
X138023400Y-112293932D01*
X138061048Y-112281334D01*
X138117754Y-112317463D01*
X138151050Y-112387167D01*
X138180848Y-112465329D01*
X138232029Y-112488757D01*
X138328563Y-112464724D01*
X138363744Y-112451715D01*
X138444433Y-112430866D01*
X138471640Y-112456743D01*
X138472333Y-112468292D01*
X138668909Y-112468292D01*
X138648015Y-112458349D01*
X138641666Y-112432256D01*
X138672915Y-112298328D01*
X138756050Y-112219475D01*
X138875157Y-112200061D01*
X139014320Y-112244453D01*
X139103321Y-112305620D01*
X139199389Y-112417857D01*
X139272885Y-112560280D01*
X139311480Y-112702083D01*
X139755591Y-112702083D01*
X140000394Y-112558091D01*
X140574699Y-112144459D01*
X140358982Y-112144459D01*
X140358726Y-112144719D01*
X140317113Y-112139945D01*
X140291178Y-112107837D01*
X140236698Y-112025100D01*
X140175215Y-111943946D01*
X140096723Y-111847013D01*
X139919528Y-111958871D01*
X139801983Y-112042862D01*
X139753145Y-112115281D01*
X139764699Y-112199711D01*
X139805833Y-112281334D01*
X139850354Y-112372509D01*
X139866892Y-112429500D01*
X139849509Y-112440539D01*
X139802425Y-112390290D01*
X139735066Y-112292548D01*
X139656857Y-112161109D01*
X139577226Y-112009768D01*
X139570032Y-111995067D01*
X139489582Y-111804911D01*
X139455115Y-111651052D01*
X139454174Y-111550567D01*
X139468430Y-111436218D01*
X139500958Y-111381080D01*
X139569520Y-111359701D01*
X139589084Y-111357241D01*
X139658824Y-111359875D01*
X139731251Y-111392038D01*
X139823022Y-111464782D01*
X139950791Y-111589160D01*
X139973444Y-111612290D01*
X140164453Y-111816877D01*
X140293350Y-111975111D01*
X140358679Y-112084976D01*
X140358982Y-112144459D01*
X140574699Y-112144459D01*
X140684258Y-112065552D01*
X141320024Y-111511320D01*
X141902048Y-110899023D01*
X142424684Y-110232290D01*
X142820390Y-109621451D01*
X143193576Y-108916254D01*
X143509091Y-108169282D01*
X143760568Y-107399047D01*
X143941642Y-106624062D01*
X144016545Y-106143000D01*
X144036843Y-105916006D01*
X144050819Y-105627913D01*
X144055835Y-105413781D01*
X142561212Y-105413781D01*
X142488922Y-106153809D01*
X142342597Y-106885541D01*
X142121921Y-107602984D01*
X141826578Y-108300148D01*
X141456252Y-108971038D01*
X141022925Y-109593833D01*
X140772307Y-109892633D01*
X140470930Y-110212542D01*
X140141164Y-110532171D01*
X139805381Y-110830130D01*
X139485954Y-111085029D01*
X139391975Y-111153212D01*
X139233666Y-111267889D01*
X139106371Y-111365949D01*
X139023024Y-111437003D01*
X138996559Y-111470666D01*
X138996585Y-111470712D01*
X139101498Y-111654127D01*
X139213540Y-111854530D01*
X139325052Y-112057669D01*
X139428375Y-112249289D01*
X139515851Y-112415137D01*
X139579821Y-112540958D01*
X139612627Y-112612500D01*
X139615333Y-112622289D01*
X139604856Y-112654613D01*
X139571301Y-112631853D01*
X139511477Y-112549341D01*
X139422198Y-112402408D01*
X139300273Y-112186386D01*
X139229764Y-112057787D01*
X139123478Y-111862696D01*
X139032783Y-111696331D01*
X138964787Y-111571722D01*
X138926599Y-111501901D01*
X138920902Y-111491605D01*
X138883763Y-111506816D01*
X138784842Y-111553086D01*
X138638142Y-111623728D01*
X138457668Y-111712053D01*
X138408833Y-111736153D01*
X137687316Y-112046596D01*
X136917225Y-112288485D01*
X136565576Y-112372683D01*
X136411372Y-112404386D01*
X136267491Y-112428427D01*
X136118396Y-112445858D01*
X135948548Y-112457728D01*
X135742411Y-112465087D01*
X135484447Y-112468985D01*
X135159119Y-112470471D01*
X135117416Y-112470534D01*
X134753342Y-112472735D01*
X134472317Y-112478338D01*
X134272792Y-112487413D01*
X134153217Y-112500032D01*
X134112040Y-112516266D01*
X134112000Y-112516855D01*
X134149791Y-112548419D01*
X134250415Y-112593156D01*
X134394749Y-112642986D01*
X134449266Y-112659331D01*
X134642999Y-112715731D01*
X134772720Y-112763892D01*
X134848091Y-112820729D01*
X134878777Y-112903159D01*
X134874442Y-113028098D01*
X134844748Y-113212460D01*
X134825833Y-113318500D01*
X134784621Y-113548158D01*
X134754088Y-113707042D01*
X134730977Y-113807893D01*
X134712032Y-113863448D01*
X134693995Y-113886447D01*
X134679740Y-113890000D01*
X134667921Y-113851713D01*
X134665117Y-113752251D01*
X134670337Y-113638668D01*
X134688517Y-113387335D01*
X134495508Y-113315601D01*
X134359680Y-113259557D01*
X134270690Y-113211838D01*
X134240058Y-113179784D01*
X134267544Y-113170334D01*
X134332577Y-113183560D01*
X134443220Y-113216896D01*
X134495324Y-113234654D01*
X134610994Y-113266594D01*
X134692692Y-113272995D01*
X134710375Y-113266225D01*
X134733079Y-113206906D01*
X134751286Y-113096691D01*
X134755645Y-113047432D01*
X134768166Y-112861388D01*
X134438677Y-112740896D01*
X134262906Y-112681008D01*
X134153458Y-112655311D01*
X134100111Y-112661806D01*
X134092144Y-112673119D01*
X134078876Y-112734922D01*
X134056443Y-112860420D01*
X134028312Y-113029590D01*
X134005990Y-113170334D01*
X133961897Y-113439221D01*
X133925192Y-113629001D01*
X133894572Y-113744787D01*
X133868733Y-113791689D01*
X133850051Y-113782082D01*
X133848404Y-113727857D01*
X133859936Y-113606482D01*
X133882667Y-113434109D01*
X133899167Y-113327099D01*
X133686924Y-113327099D01*
X133656154Y-113501075D01*
X133643685Y-113537133D01*
X133560824Y-113668115D01*
X133444821Y-113721931D01*
X133302054Y-113696176D01*
X133267003Y-113679227D01*
X133172464Y-113586326D01*
X133127097Y-113450935D01*
X133125989Y-113294130D01*
X133164226Y-113136985D01*
X133236893Y-113000577D01*
X133339077Y-112905982D01*
X133454746Y-112874000D01*
X133555016Y-112912026D01*
X133630824Y-113013161D01*
X133676637Y-113157990D01*
X133686924Y-113327099D01*
X133899167Y-113327099D01*
X133914619Y-113226886D01*
X133927606Y-113149167D01*
X133963262Y-112931497D01*
X133987368Y-112770431D01*
X133036883Y-112770431D01*
X133018051Y-112810502D01*
X132947881Y-112903305D01*
X132826681Y-113045431D01*
X132772696Y-113105719D01*
X132641650Y-113248551D01*
X132555338Y-113335219D01*
X132502882Y-113373399D01*
X132473405Y-113370771D01*
X132456032Y-113335013D01*
X132454636Y-113330245D01*
X132431493Y-113210654D01*
X132422886Y-113117417D01*
X132414686Y-113034472D01*
X132387121Y-113008672D01*
X132323570Y-113038605D01*
X132235925Y-113101521D01*
X132120934Y-113181573D01*
X132016038Y-113245791D01*
X132004553Y-113251907D01*
X131937564Y-113280273D01*
X131920500Y-113254517D01*
X131932118Y-113183136D01*
X131967293Y-113033423D01*
X132013332Y-112867999D01*
X132063644Y-112706979D01*
X132083479Y-112650564D01*
X131820881Y-112650564D01*
X131777814Y-112825068D01*
X131682984Y-112990121D01*
X131646467Y-113032750D01*
X131568190Y-113103370D01*
X131496605Y-113121158D01*
X131403206Y-113086832D01*
X131323809Y-113040894D01*
X131237316Y-112977227D01*
X131206203Y-112933480D01*
X131232351Y-112922844D01*
X131311591Y-112955237D01*
X131463278Y-113004188D01*
X131586050Y-112976930D01*
X131672797Y-112875242D01*
X131678198Y-112863417D01*
X131709252Y-112782628D01*
X131707858Y-112724857D01*
X131663648Y-112664415D01*
X131566255Y-112575616D01*
X131559737Y-112569913D01*
X131454672Y-112466456D01*
X131421855Y-112395140D01*
X131461264Y-112343998D01*
X131559251Y-112305093D01*
X131664287Y-112309693D01*
X131739168Y-112363835D01*
X131809046Y-112489267D01*
X131820881Y-112650564D01*
X132083479Y-112650564D01*
X132111637Y-112570483D01*
X132150720Y-112478625D01*
X132172120Y-112450667D01*
X132196049Y-112456540D01*
X132202838Y-112484597D01*
X132189865Y-112550496D01*
X132154510Y-112669894D01*
X132114312Y-112795947D01*
X132072041Y-112940534D01*
X132047529Y-113051765D01*
X132045605Y-113107311D01*
X132046665Y-113108776D01*
X132091091Y-113099159D01*
X132182159Y-113049285D01*
X132287520Y-112978771D01*
X132503333Y-112823725D01*
X132503333Y-113039362D01*
X132506547Y-113161442D01*
X132514778Y-113239605D01*
X132521502Y-113255000D01*
X132556992Y-113226524D01*
X132635637Y-113150699D01*
X132742667Y-113041928D01*
X132782245Y-113000687D01*
X132919289Y-112862116D01*
X133004065Y-112786500D01*
X133036883Y-112770431D01*
X133987368Y-112770431D01*
X133991759Y-112741096D01*
X134010778Y-112594789D01*
X134018001Y-112509403D01*
X134017389Y-112497398D01*
X133968828Y-112457479D01*
X133839819Y-112412474D01*
X133634335Y-112363728D01*
X133604000Y-112357544D01*
X133327675Y-112286117D01*
X131272155Y-112286117D01*
X131225475Y-112389397D01*
X131142376Y-112524750D01*
X131045365Y-112663955D01*
X130973407Y-112752050D01*
X130932420Y-112785451D01*
X130928326Y-112760577D01*
X130967043Y-112673846D01*
X131002444Y-112609417D01*
X131088183Y-112421214D01*
X131103485Y-112278686D01*
X131048282Y-112180421D01*
X130979333Y-112141375D01*
X130883553Y-112093089D01*
X130855355Y-112052080D01*
X130899280Y-112029117D01*
X130931227Y-112027334D01*
X131014907Y-112055642D01*
X131108198Y-112124041D01*
X131111144Y-112126913D01*
X131195974Y-112200797D01*
X131262334Y-112242662D01*
X131264267Y-112243330D01*
X131272155Y-112286117D01*
X133327675Y-112286117D01*
X132865875Y-112166747D01*
X132162500Y-111901858D01*
X130676196Y-111901858D01*
X130674676Y-111958915D01*
X130637338Y-112066502D01*
X130554749Y-112103828D01*
X130429399Y-112070556D01*
X130320214Y-112006896D01*
X130179324Y-111928220D01*
X130084459Y-111917617D01*
X130030231Y-111975887D01*
X130014088Y-112052453D01*
X130020386Y-112160732D01*
X130075309Y-112236610D01*
X130194570Y-112298443D01*
X130238500Y-112314641D01*
X130365500Y-112359316D01*
X130247159Y-112362658D01*
X130116210Y-112329013D01*
X130024909Y-112262091D01*
X129937926Y-112139152D01*
X129932595Y-112017332D01*
X129986900Y-111909753D01*
X130065434Y-111834922D01*
X130161032Y-111824874D01*
X130288663Y-111880089D01*
X130353427Y-111921500D01*
X130481777Y-111999740D01*
X130562754Y-112022609D01*
X130611091Y-111992276D01*
X130626184Y-111961680D01*
X130616834Y-111882487D01*
X130553714Y-111794401D01*
X130460932Y-111721748D01*
X130362594Y-111688853D01*
X130355622Y-111688667D01*
X130288255Y-111674351D01*
X130280833Y-111646334D01*
X130347959Y-111606231D01*
X130453266Y-111641526D01*
X130555011Y-111715498D01*
X130645337Y-111809184D01*
X130676196Y-111901858D01*
X132162500Y-111901858D01*
X132152322Y-111898025D01*
X131469572Y-111556110D01*
X130823854Y-111145733D01*
X130221399Y-110671625D01*
X129668436Y-110138518D01*
X129171196Y-109551144D01*
X128735909Y-108914232D01*
X128486773Y-108471334D01*
X128163567Y-107757657D01*
X127920588Y-107026992D01*
X127756473Y-106284965D01*
X127669859Y-105537203D01*
X127659384Y-104789335D01*
X127723684Y-104046988D01*
X127861397Y-103315789D01*
X128071159Y-102601365D01*
X128351607Y-101909345D01*
X128701380Y-101245356D01*
X129119113Y-100615025D01*
X129603444Y-100023980D01*
X130153010Y-99477849D01*
X130766448Y-98982258D01*
X130788834Y-98966059D01*
X131069730Y-98780700D01*
X131407741Y-98584881D01*
X131778423Y-98390868D01*
X132157330Y-98210926D01*
X132520018Y-98057322D01*
X132806703Y-97953563D01*
X132816697Y-97950497D01*
X132286151Y-97950497D01*
X132277544Y-97969762D01*
X132252464Y-97972669D01*
X132249333Y-97972667D01*
X132212050Y-97938263D01*
X132207000Y-97907480D01*
X132182438Y-97793034D01*
X132118884Y-97666472D01*
X132031537Y-97546092D01*
X131935593Y-97450193D01*
X131846251Y-97397073D01*
X131785528Y-97400016D01*
X131747590Y-97469342D01*
X131748557Y-97591212D01*
X131787332Y-97743547D01*
X131804833Y-97788696D01*
X131849951Y-97899957D01*
X131865059Y-97953953D01*
X131853696Y-97971154D01*
X131836583Y-97972341D01*
X131798527Y-97938651D01*
X131738767Y-97853779D01*
X131708456Y-97803245D01*
X131610130Y-97662430D01*
X131506973Y-97565760D01*
X131413784Y-97523953D01*
X131349497Y-97543236D01*
X131331384Y-97590600D01*
X131340203Y-97680254D01*
X131378221Y-97826014D01*
X131415171Y-97943633D01*
X131478110Y-98141279D01*
X131514444Y-98268580D01*
X131525974Y-98334949D01*
X131514504Y-98349798D01*
X131489169Y-98330102D01*
X131459397Y-98273746D01*
X131413575Y-98156710D01*
X131359463Y-97999566D01*
X131332411Y-97914599D01*
X131278789Y-97738169D01*
X131249429Y-97624669D01*
X131242754Y-97556400D01*
X131257185Y-97515666D01*
X131291142Y-97484769D01*
X131293886Y-97482754D01*
X131361628Y-97449305D01*
X131441109Y-97458059D01*
X131514143Y-97485463D01*
X131610279Y-97519693D01*
X131650979Y-97514038D01*
X131656666Y-97490235D01*
X131685625Y-97423316D01*
X131743701Y-97356690D01*
X131819839Y-97304797D01*
X131887925Y-97315063D01*
X131914757Y-97330397D01*
X131994007Y-97363033D01*
X132034644Y-97360701D01*
X132065163Y-97386391D01*
X132113391Y-97474502D01*
X132169899Y-97607257D01*
X132181089Y-97636856D01*
X132241129Y-97799814D01*
X132275081Y-97899105D01*
X132286151Y-97950497D01*
X132816697Y-97950497D01*
X133177390Y-97839851D01*
X133511572Y-97753414D01*
X133831434Y-97691020D01*
X134159161Y-97649435D01*
X134516940Y-97625424D01*
X134926957Y-97615754D01*
X135128000Y-97615205D01*
X135443620Y-97616761D01*
X135692854Y-97620970D01*
X135893972Y-97629286D01*
X136065246Y-97643163D01*
X136224947Y-97664055D01*
X136391346Y-97693417D01*
X136569804Y-97729955D01*
X137351941Y-97933815D01*
X138082365Y-98203310D01*
X138766078Y-98541210D01*
X139408082Y-98950287D01*
X140013379Y-99433311D01*
X140512213Y-99913961D01*
X141020821Y-100504638D01*
X141457923Y-101134957D01*
X141823203Y-101798926D01*
X142116345Y-102490551D01*
X142337033Y-103203842D01*
X142484951Y-103932805D01*
X142559783Y-104671448D01*
X142561212Y-105413781D01*
X144055835Y-105413781D01*
X144058468Y-105301443D01*
X144059789Y-104959316D01*
X144054779Y-104624255D01*
X144043436Y-104318981D01*
X144025756Y-104066216D01*
X144016797Y-103984000D01*
X143867236Y-103124788D01*
X143638178Y-102287951D01*
X143332190Y-101479558D01*
X142951842Y-100705683D01*
X142499703Y-99972397D01*
X142082318Y-99412000D01*
X141727240Y-99007330D01*
X141313140Y-98593894D01*
X140861137Y-98190235D01*
X140392352Y-97814895D01*
X139927905Y-97486415D01*
X139784666Y-97394859D01*
X139613503Y-97286590D01*
X139489838Y-97213586D01*
X139397606Y-97180269D01*
X139320736Y-97191057D01*
X139243160Y-97250371D01*
X139148810Y-97362631D01*
X139021618Y-97532257D01*
X138953075Y-97623605D01*
X138782060Y-97850099D01*
X138656480Y-98014967D01*
X138569836Y-98123454D01*
X138515630Y-98180803D01*
X138487363Y-98192258D01*
X138478538Y-98163063D01*
X138482655Y-98098461D01*
X138493217Y-98003695D01*
X138494266Y-97993834D01*
X138512568Y-97839293D01*
X138531842Y-97706677D01*
X138543607Y-97644395D01*
X138549756Y-97599146D01*
X138530571Y-97586362D01*
X138472526Y-97609773D01*
X138362090Y-97673108D01*
X138297053Y-97712377D01*
X138110874Y-97819454D01*
X137965875Y-97890789D01*
X137871538Y-97922317D01*
X137837340Y-97909974D01*
X137837333Y-97909475D01*
X137853038Y-97863296D01*
X137895329Y-97756584D01*
X137956971Y-97606426D01*
X138030727Y-97429907D01*
X138109361Y-97244112D01*
X138115450Y-97229904D01*
X137786015Y-97229904D01*
X137783108Y-97277701D01*
X137753777Y-97379161D01*
X137707022Y-97511298D01*
X137651840Y-97651129D01*
X137597231Y-97775669D01*
X137552193Y-97861933D01*
X137528364Y-97888000D01*
X137511443Y-97854127D01*
X137521358Y-97792750D01*
X137560524Y-97680931D01*
X137615031Y-97548636D01*
X137674950Y-97416981D01*
X137730351Y-97307082D01*
X137771307Y-97240056D01*
X137786015Y-97229904D01*
X138115450Y-97229904D01*
X138185102Y-97067377D01*
X137618879Y-97067377D01*
X137608886Y-97108670D01*
X137584560Y-97180223D01*
X137544054Y-97307340D01*
X137495483Y-97464482D01*
X137487940Y-97489273D01*
X137430680Y-97659884D01*
X137384690Y-97763286D01*
X137353604Y-97796362D01*
X137341058Y-97755994D01*
X137350685Y-97639065D01*
X137356220Y-97602250D01*
X137384480Y-97333221D01*
X137374456Y-97127165D01*
X137327091Y-96988222D01*
X137243329Y-96920532D01*
X137199550Y-96914334D01*
X137115502Y-96946675D01*
X137035739Y-97047621D01*
X136956576Y-97223055D01*
X136899697Y-97392833D01*
X136844209Y-97557155D01*
X136805657Y-97640017D01*
X136787352Y-97643521D01*
X136792607Y-97569771D01*
X136824731Y-97420869D01*
X136841686Y-97355993D01*
X136921513Y-97129813D01*
X137020179Y-96960316D01*
X137057217Y-96925758D01*
X136774693Y-96925758D01*
X136728642Y-96948811D01*
X136664077Y-96947686D01*
X136597386Y-96946562D01*
X136558501Y-96974190D01*
X136534142Y-97050021D01*
X136515083Y-97165914D01*
X136483415Y-97310352D01*
X136439526Y-97428694D01*
X136411779Y-97472830D01*
X136327336Y-97525458D01*
X136218450Y-97548160D01*
X136121686Y-97537165D01*
X136080500Y-97507000D01*
X136096683Y-97476699D01*
X136177962Y-97464667D01*
X136178651Y-97464667D01*
X136296221Y-97441780D01*
X136373075Y-97365392D01*
X136417823Y-97223916D01*
X136430833Y-97125308D01*
X136433907Y-97051162D01*
X135968368Y-97051162D01*
X135953323Y-97241597D01*
X135911007Y-97365746D01*
X135864983Y-97461628D01*
X135813790Y-97500853D01*
X135724612Y-97501205D01*
X135673047Y-97494727D01*
X135555078Y-97471869D01*
X135474399Y-97443504D01*
X135462644Y-97435244D01*
X135475561Y-97416058D01*
X135551914Y-97411961D01*
X135587950Y-97414533D01*
X135746081Y-97401404D01*
X135846181Y-97329414D01*
X135883540Y-97202745D01*
X135881703Y-97153609D01*
X135864817Y-97073084D01*
X135296685Y-97073084D01*
X135292189Y-97244990D01*
X135279201Y-97365948D01*
X135259547Y-97420679D01*
X135255000Y-97422334D01*
X135231686Y-97384085D01*
X135231682Y-97384056D01*
X134684219Y-97384056D01*
X134670286Y-97453324D01*
X134645608Y-97446773D01*
X134616612Y-97360953D01*
X134602104Y-97284750D01*
X134552087Y-97092087D01*
X134477768Y-96969035D01*
X134384521Y-96919951D01*
X134277721Y-96949194D01*
X134231750Y-96984395D01*
X134161193Y-97094310D01*
X134159123Y-97214431D01*
X134215114Y-97324291D01*
X134318738Y-97403421D01*
X134459450Y-97431357D01*
X134543514Y-97434937D01*
X134549857Y-97454643D01*
X134533660Y-97466597D01*
X134444880Y-97502362D01*
X134340940Y-97491851D01*
X134262163Y-97465426D01*
X134149542Y-97381867D01*
X134095206Y-97249280D01*
X134105542Y-97085532D01*
X134114946Y-97053574D01*
X134193359Y-96916063D01*
X134307555Y-96846933D01*
X134443568Y-96853449D01*
X134475517Y-96865976D01*
X134585035Y-96915876D01*
X134555210Y-96597605D01*
X134543511Y-96413042D01*
X134550089Y-96306576D01*
X134568893Y-96279334D01*
X134591543Y-96318694D01*
X134613818Y-96424983D01*
X134632422Y-96580515D01*
X134637905Y-96649750D01*
X134652151Y-96852654D01*
X134666775Y-97054513D01*
X134679028Y-97217460D01*
X134680980Y-97242417D01*
X134684219Y-97384056D01*
X135231682Y-97384056D01*
X135216310Y-97285535D01*
X135212666Y-97192524D01*
X135196046Y-97006077D01*
X135142372Y-96891325D01*
X135045928Y-96841307D01*
X134926695Y-96844386D01*
X134834798Y-96854959D01*
X134811470Y-96840468D01*
X134833412Y-96806396D01*
X134919714Y-96758409D01*
X135041190Y-96748130D01*
X135155981Y-96778135D01*
X135169216Y-96785747D01*
X135239155Y-96797985D01*
X135263818Y-96774516D01*
X135278436Y-96789501D01*
X135289754Y-96873058D01*
X135296004Y-97009107D01*
X135296685Y-97073084D01*
X135864817Y-97073084D01*
X135864479Y-97071474D01*
X135818049Y-97020661D01*
X135719505Y-96981078D01*
X135667750Y-96965959D01*
X135528045Y-96911510D01*
X135472218Y-96849497D01*
X135499708Y-96778518D01*
X135569661Y-96721801D01*
X135689915Y-96682923D01*
X135801453Y-96726999D01*
X135900724Y-96852474D01*
X135910728Y-96871153D01*
X135968368Y-97051162D01*
X136433907Y-97051162D01*
X136436541Y-96987670D01*
X136418090Y-96916165D01*
X136392734Y-96897940D01*
X136305414Y-96867654D01*
X136249833Y-96846377D01*
X136204014Y-96822335D01*
X136228608Y-96807493D01*
X136300178Y-96797493D01*
X136398945Y-96772265D01*
X136441131Y-96711716D01*
X136448345Y-96671691D01*
X136478532Y-96581848D01*
X136520842Y-96541512D01*
X136558657Y-96546211D01*
X136561667Y-96608065D01*
X136553170Y-96657067D01*
X136543297Y-96753711D01*
X136579060Y-96804863D01*
X136652577Y-96836212D01*
X136748872Y-96883704D01*
X136774693Y-96925758D01*
X137057217Y-96925758D01*
X137130471Y-96857410D01*
X137224863Y-96829667D01*
X137330680Y-96867846D01*
X137414781Y-96965817D01*
X137457434Y-97098726D01*
X137459198Y-97124836D01*
X137462063Y-97231834D01*
X137508001Y-97136584D01*
X137556310Y-97067138D01*
X137600431Y-97042088D01*
X137618879Y-97067377D01*
X138185102Y-97067377D01*
X138185639Y-97066126D01*
X138252324Y-96913036D01*
X138264405Y-96886111D01*
X138049000Y-96886111D01*
X138022320Y-96966762D01*
X137964062Y-96989420D01*
X137906896Y-96951233D01*
X137887146Y-96900242D01*
X137905104Y-96841939D01*
X137961229Y-96829667D01*
X138031582Y-96852462D01*
X138049000Y-96886111D01*
X138264405Y-96886111D01*
X138302180Y-96801927D01*
X138327971Y-96749883D01*
X138329000Y-96748528D01*
X138366609Y-96752165D01*
X138366867Y-96804801D01*
X138337151Y-96915962D01*
X138283960Y-97067767D01*
X138213796Y-97242335D01*
X138133158Y-97421785D01*
X138094417Y-97500890D01*
X138030841Y-97635900D01*
X137990460Y-97739769D01*
X137981285Y-97791637D01*
X137982221Y-97792999D01*
X138025542Y-97781943D01*
X138120728Y-97732172D01*
X138250114Y-97653280D01*
X138301985Y-97619382D01*
X138440274Y-97529336D01*
X138550854Y-97460895D01*
X138615668Y-97425104D01*
X138624149Y-97422334D01*
X138633204Y-97460565D01*
X138631367Y-97560347D01*
X138620371Y-97686917D01*
X138607698Y-97802861D01*
X138605116Y-97874688D01*
X138619904Y-97898297D01*
X138659342Y-97869584D01*
X138730712Y-97784446D01*
X138841292Y-97638783D01*
X138939662Y-97507000D01*
X139053706Y-97356350D01*
X139151005Y-97231696D01*
X139219383Y-97148410D01*
X139244291Y-97122391D01*
X139225819Y-97095075D01*
X139141620Y-97043058D01*
X139004826Y-96972454D01*
X138828571Y-96889374D01*
X138625987Y-96799932D01*
X138410208Y-96710241D01*
X138194367Y-96626412D01*
X138120346Y-96599266D01*
X137400521Y-96377696D01*
X136644549Y-96215440D01*
X135873533Y-96115285D01*
X135108576Y-96080017D01*
X134408333Y-96109009D01*
D14*
X116098320Y-67691000D02*
X116098320Y-66421000D01*
X123370340Y-72075040D02*
X123370340Y-51876960D01*
X114373660Y-51876960D02*
X114373660Y-59776360D01*
X114373660Y-59776360D02*
X114373660Y-64175640D01*
X114373660Y-64175640D02*
X114373660Y-72075040D01*
X114373660Y-72075040D02*
X123271280Y-72075040D01*
X123370340Y-51876960D02*
X114373660Y-51876960D01*
X114373660Y-64175640D02*
X115872260Y-64175640D01*
X115872260Y-64175640D02*
X115872260Y-59776360D01*
X115872260Y-59776360D02*
X114373660Y-59776360D01*
X116060220Y-67691000D02*
X116060220Y-66421000D01*
D16*
X151663742Y-54737200D02*
X151692771Y-54824285D01*
X151692771Y-54969428D01*
X151663742Y-55027485D01*
X151634714Y-55056514D01*
X151576657Y-55085542D01*
X151518600Y-55085542D01*
X151460542Y-55056514D01*
X151431514Y-55027485D01*
X151402485Y-54969428D01*
X151373457Y-54853314D01*
X151344428Y-54795257D01*
X151315400Y-54766228D01*
X151257342Y-54737200D01*
X151199285Y-54737200D01*
X151141228Y-54766228D01*
X151112200Y-54795257D01*
X151083171Y-54853314D01*
X151083171Y-54998457D01*
X151112200Y-55085542D01*
X151083171Y-55288742D02*
X151692771Y-55433885D01*
X151257342Y-55550000D01*
X151692771Y-55666114D01*
X151083171Y-55811257D01*
X151692771Y-56362800D02*
X151692771Y-56014457D01*
X151692771Y-56188628D02*
X151083171Y-56188628D01*
X151170257Y-56130571D01*
X151228314Y-56072514D01*
X151257342Y-56014457D01*
X159185771Y-54795257D02*
X158895485Y-54592057D01*
X159185771Y-54446914D02*
X158576171Y-54446914D01*
X158576171Y-54679142D01*
X158605200Y-54737200D01*
X158634228Y-54766228D01*
X158692285Y-54795257D01*
X158779371Y-54795257D01*
X158837428Y-54766228D01*
X158866457Y-54737200D01*
X158895485Y-54679142D01*
X158895485Y-54446914D01*
X159156742Y-55288742D02*
X159185771Y-55230685D01*
X159185771Y-55114571D01*
X159156742Y-55056514D01*
X159098685Y-55027485D01*
X158866457Y-55027485D01*
X158808400Y-55056514D01*
X158779371Y-55114571D01*
X158779371Y-55230685D01*
X158808400Y-55288742D01*
X158866457Y-55317771D01*
X158924514Y-55317771D01*
X158982571Y-55027485D01*
X159156742Y-55550000D02*
X159185771Y-55608057D01*
X159185771Y-55724171D01*
X159156742Y-55782228D01*
X159098685Y-55811257D01*
X159069657Y-55811257D01*
X159011600Y-55782228D01*
X158982571Y-55724171D01*
X158982571Y-55637085D01*
X158953542Y-55579028D01*
X158895485Y-55550000D01*
X158866457Y-55550000D01*
X158808400Y-55579028D01*
X158779371Y-55637085D01*
X158779371Y-55724171D01*
X158808400Y-55782228D01*
X159156742Y-56304742D02*
X159185771Y-56246685D01*
X159185771Y-56130571D01*
X159156742Y-56072514D01*
X159098685Y-56043485D01*
X158866457Y-56043485D01*
X158808400Y-56072514D01*
X158779371Y-56130571D01*
X158779371Y-56246685D01*
X158808400Y-56304742D01*
X158866457Y-56333771D01*
X158924514Y-56333771D01*
X158982571Y-56043485D01*
X158779371Y-56507942D02*
X158779371Y-56740171D01*
X158576171Y-56595028D02*
X159098685Y-56595028D01*
X159156742Y-56624057D01*
X159185771Y-56682114D01*
X159185771Y-56740171D01*
X124412828Y-67259200D02*
X123977400Y-67259200D01*
X123890314Y-67288228D01*
X123832257Y-67346285D01*
X123803228Y-67433371D01*
X123803228Y-67491428D01*
X123803228Y-66649600D02*
X123803228Y-66997942D01*
X123803228Y-66823771D02*
X124412828Y-66823771D01*
X124325742Y-66881828D01*
X124267685Y-66939885D01*
X124238657Y-66997942D01*
X113835542Y-70481371D02*
X113835542Y-70278171D01*
X113516228Y-70191085D02*
X113516228Y-70481371D01*
X114125828Y-70481371D01*
X114125828Y-70191085D01*
X113922628Y-69668571D02*
X113516228Y-69668571D01*
X113922628Y-69929828D02*
X113603314Y-69929828D01*
X113545257Y-69900800D01*
X113516228Y-69842742D01*
X113516228Y-69755657D01*
X113545257Y-69697600D01*
X113574285Y-69668571D01*
X113516228Y-69378285D02*
X113922628Y-69378285D01*
X113806514Y-69378285D02*
X113864571Y-69349257D01*
X113893600Y-69320228D01*
X113922628Y-69262171D01*
X113922628Y-69204114D01*
X113516228Y-68913828D02*
X113545257Y-68971885D01*
X113574285Y-69000914D01*
X113632342Y-69029942D01*
X113806514Y-69029942D01*
X113864571Y-69000914D01*
X113893600Y-68971885D01*
X113922628Y-68913828D01*
X113922628Y-68826742D01*
X113893600Y-68768685D01*
X113864571Y-68739657D01*
X113806514Y-68710628D01*
X113632342Y-68710628D01*
X113574285Y-68739657D01*
X113545257Y-68768685D01*
X113516228Y-68826742D01*
X113516228Y-68913828D01*
X113516228Y-68449371D02*
X113922628Y-68449371D01*
X113806514Y-68449371D02*
X113864571Y-68420342D01*
X113893600Y-68391314D01*
X113922628Y-68333257D01*
X113922628Y-68275200D01*
X113516228Y-67810742D02*
X113835542Y-67810742D01*
X113893600Y-67839771D01*
X113922628Y-67897828D01*
X113922628Y-68013942D01*
X113893600Y-68072000D01*
X113545257Y-67810742D02*
X113516228Y-67868800D01*
X113516228Y-68013942D01*
X113545257Y-68072000D01*
X113603314Y-68101028D01*
X113661371Y-68101028D01*
X113719428Y-68072000D01*
X113748457Y-68013942D01*
X113748457Y-67868800D01*
X113777485Y-67810742D01*
X113545257Y-67259200D02*
X113516228Y-67317257D01*
X113516228Y-67433371D01*
X113545257Y-67491428D01*
X113574285Y-67520457D01*
X113632342Y-67549485D01*
X113806514Y-67549485D01*
X113864571Y-67520457D01*
X113893600Y-67491428D01*
X113922628Y-67433371D01*
X113922628Y-67317257D01*
X113893600Y-67259200D01*
X113516228Y-66997942D02*
X114125828Y-66997942D01*
X113748457Y-66939885D02*
X113516228Y-66765714D01*
X113922628Y-66765714D02*
X113690400Y-66997942D01*
X113516228Y-66040000D02*
X114125828Y-66040000D01*
X114125828Y-65807771D01*
X114096800Y-65749714D01*
X114067771Y-65720685D01*
X114009714Y-65691657D01*
X113922628Y-65691657D01*
X113864571Y-65720685D01*
X113835542Y-65749714D01*
X113806514Y-65807771D01*
X113806514Y-66040000D01*
X113516228Y-65343314D02*
X113545257Y-65401371D01*
X113574285Y-65430400D01*
X113632342Y-65459428D01*
X113806514Y-65459428D01*
X113864571Y-65430400D01*
X113893600Y-65401371D01*
X113922628Y-65343314D01*
X113922628Y-65256228D01*
X113893600Y-65198171D01*
X113864571Y-65169142D01*
X113806514Y-65140114D01*
X113632342Y-65140114D01*
X113574285Y-65169142D01*
X113545257Y-65198171D01*
X113516228Y-65256228D01*
X113516228Y-65343314D01*
X113922628Y-64936914D02*
X113516228Y-64820800D01*
X113806514Y-64704685D01*
X113516228Y-64588571D01*
X113922628Y-64472457D01*
X113545257Y-64008000D02*
X113516228Y-64066057D01*
X113516228Y-64182171D01*
X113545257Y-64240228D01*
X113603314Y-64269257D01*
X113835542Y-64269257D01*
X113893600Y-64240228D01*
X113922628Y-64182171D01*
X113922628Y-64066057D01*
X113893600Y-64008000D01*
X113835542Y-63978971D01*
X113777485Y-63978971D01*
X113719428Y-64269257D01*
X113516228Y-63717714D02*
X113922628Y-63717714D01*
X113806514Y-63717714D02*
X113864571Y-63688685D01*
X113893600Y-63659657D01*
X113922628Y-63601600D01*
X113922628Y-63543542D01*
M02*
