G04 #@! TF.GenerationSoftware,KiCad,Pcbnew,(5.1.2)-2*
G04 #@! TF.CreationDate,2019-12-19T20:27:40-08:00*
G04 #@! TF.ProjectId,mainboard,6d61696e-626f-4617-9264-2e6b69636164,v3*
G04 #@! TF.SameCoordinates,Original*
G04 #@! TF.FileFunction,Soldermask,Top*
G04 #@! TF.FilePolarity,Negative*
%FSLAX46Y46*%
G04 Gerber Fmt 4.6, Leading zero omitted, Abs format (unit mm)*
G04 Created by KiCad (PCBNEW (5.1.2)-2) date 2019-12-19 20:27:40*
%MOMM*%
%LPD*%
G04 APERTURE LIST*
%ADD10C,0.100000*%
G04 APERTURE END LIST*
D10*
G36*
X151378961Y-150723450D02*
G01*
X151475088Y-150752610D01*
X151563670Y-150799958D01*
X151641318Y-150863682D01*
X151705042Y-150941330D01*
X151752390Y-151029912D01*
X151781550Y-151126039D01*
X151792000Y-151232140D01*
X151792000Y-152495860D01*
X151781550Y-152601961D01*
X151752390Y-152698088D01*
X151705042Y-152786670D01*
X151641318Y-152864318D01*
X151563670Y-152928042D01*
X151475088Y-152975390D01*
X151378961Y-153004550D01*
X151272860Y-153015000D01*
X149009140Y-153015000D01*
X148903039Y-153004550D01*
X148806912Y-152975390D01*
X148718330Y-152928042D01*
X148640682Y-152864318D01*
X148576958Y-152786670D01*
X148529610Y-152698088D01*
X148500450Y-152601961D01*
X148490000Y-152495860D01*
X148490000Y-151232140D01*
X148500450Y-151126039D01*
X148529610Y-151029912D01*
X148576958Y-150941330D01*
X148640682Y-150863682D01*
X148718330Y-150799958D01*
X148806912Y-150752610D01*
X148903039Y-150723450D01*
X149009140Y-150713000D01*
X151272860Y-150713000D01*
X151378961Y-150723450D01*
X151378961Y-150723450D01*
G37*
G36*
X136456461Y-150723450D02*
G01*
X136552588Y-150752610D01*
X136641170Y-150799958D01*
X136718818Y-150863682D01*
X136782542Y-150941330D01*
X136829890Y-151029912D01*
X136859050Y-151126039D01*
X136869500Y-151232140D01*
X136869500Y-152495860D01*
X136859050Y-152601961D01*
X136829890Y-152698088D01*
X136782542Y-152786670D01*
X136718818Y-152864318D01*
X136641170Y-152928042D01*
X136552588Y-152975390D01*
X136456461Y-153004550D01*
X136350360Y-153015000D01*
X134086640Y-153015000D01*
X133980539Y-153004550D01*
X133884412Y-152975390D01*
X133795830Y-152928042D01*
X133718182Y-152864318D01*
X133654458Y-152786670D01*
X133607110Y-152698088D01*
X133577950Y-152601961D01*
X133567500Y-152495860D01*
X133567500Y-151232140D01*
X133577950Y-151126039D01*
X133607110Y-151029912D01*
X133654458Y-150941330D01*
X133718182Y-150863682D01*
X133795830Y-150799958D01*
X133884412Y-150752610D01*
X133980539Y-150723450D01*
X134086640Y-150713000D01*
X136350360Y-150713000D01*
X136456461Y-150723450D01*
X136456461Y-150723450D01*
G37*
G36*
X121533961Y-150723450D02*
G01*
X121630088Y-150752610D01*
X121718670Y-150799958D01*
X121796318Y-150863682D01*
X121860042Y-150941330D01*
X121907390Y-151029912D01*
X121936550Y-151126039D01*
X121947000Y-151232140D01*
X121947000Y-152495860D01*
X121936550Y-152601961D01*
X121907390Y-152698088D01*
X121860042Y-152786670D01*
X121796318Y-152864318D01*
X121718670Y-152928042D01*
X121630088Y-152975390D01*
X121533961Y-153004550D01*
X121427860Y-153015000D01*
X119164140Y-153015000D01*
X119058039Y-153004550D01*
X118961912Y-152975390D01*
X118873330Y-152928042D01*
X118795682Y-152864318D01*
X118731958Y-152786670D01*
X118684610Y-152698088D01*
X118655450Y-152601961D01*
X118645000Y-152495860D01*
X118645000Y-151232140D01*
X118655450Y-151126039D01*
X118684610Y-151029912D01*
X118731958Y-150941330D01*
X118795682Y-150863682D01*
X118873330Y-150799958D01*
X118961912Y-150752610D01*
X119058039Y-150723450D01*
X119164140Y-150713000D01*
X121427860Y-150713000D01*
X121533961Y-150723450D01*
X121533961Y-150723450D01*
G37*
G36*
X131256461Y-147523450D02*
G01*
X131352588Y-147552610D01*
X131441170Y-147599958D01*
X131518818Y-147663682D01*
X131582542Y-147741330D01*
X131629890Y-147829912D01*
X131659050Y-147926039D01*
X131669500Y-148032140D01*
X131669500Y-150295860D01*
X131659050Y-150401961D01*
X131629890Y-150498088D01*
X131582542Y-150586670D01*
X131518818Y-150664318D01*
X131441170Y-150728042D01*
X131352588Y-150775390D01*
X131256461Y-150804550D01*
X131150360Y-150815000D01*
X129886640Y-150815000D01*
X129780539Y-150804550D01*
X129684412Y-150775390D01*
X129595830Y-150728042D01*
X129518182Y-150664318D01*
X129454458Y-150586670D01*
X129407110Y-150498088D01*
X129377950Y-150401961D01*
X129367500Y-150295860D01*
X129367500Y-148032140D01*
X129377950Y-147926039D01*
X129407110Y-147829912D01*
X129454458Y-147741330D01*
X129518182Y-147663682D01*
X129595830Y-147599958D01*
X129684412Y-147552610D01*
X129780539Y-147523450D01*
X129886640Y-147513000D01*
X131150360Y-147513000D01*
X131256461Y-147523450D01*
X131256461Y-147523450D01*
G37*
G36*
X116333961Y-147523450D02*
G01*
X116430088Y-147552610D01*
X116518670Y-147599958D01*
X116596318Y-147663682D01*
X116660042Y-147741330D01*
X116707390Y-147829912D01*
X116736550Y-147926039D01*
X116747000Y-148032140D01*
X116747000Y-150295860D01*
X116736550Y-150401961D01*
X116707390Y-150498088D01*
X116660042Y-150586670D01*
X116596318Y-150664318D01*
X116518670Y-150728042D01*
X116430088Y-150775390D01*
X116333961Y-150804550D01*
X116227860Y-150815000D01*
X114964140Y-150815000D01*
X114858039Y-150804550D01*
X114761912Y-150775390D01*
X114673330Y-150728042D01*
X114595682Y-150664318D01*
X114531958Y-150586670D01*
X114484610Y-150498088D01*
X114455450Y-150401961D01*
X114445000Y-150295860D01*
X114445000Y-148032140D01*
X114455450Y-147926039D01*
X114484610Y-147829912D01*
X114531958Y-147741330D01*
X114595682Y-147663682D01*
X114673330Y-147599958D01*
X114761912Y-147552610D01*
X114858039Y-147523450D01*
X114964140Y-147513000D01*
X116227860Y-147513000D01*
X116333961Y-147523450D01*
X116333961Y-147523450D01*
G37*
G36*
X125833961Y-147523450D02*
G01*
X125930088Y-147552610D01*
X126018670Y-147599958D01*
X126096318Y-147663682D01*
X126160042Y-147741330D01*
X126207390Y-147829912D01*
X126236550Y-147926039D01*
X126247000Y-148032140D01*
X126247000Y-150295860D01*
X126236550Y-150401961D01*
X126207390Y-150498088D01*
X126160042Y-150586670D01*
X126096318Y-150664318D01*
X126018670Y-150728042D01*
X125930088Y-150775390D01*
X125833961Y-150804550D01*
X125727860Y-150815000D01*
X124464140Y-150815000D01*
X124358039Y-150804550D01*
X124261912Y-150775390D01*
X124173330Y-150728042D01*
X124095682Y-150664318D01*
X124031958Y-150586670D01*
X123984610Y-150498088D01*
X123955450Y-150401961D01*
X123945000Y-150295860D01*
X123945000Y-148032140D01*
X123955450Y-147926039D01*
X123984610Y-147829912D01*
X124031958Y-147741330D01*
X124095682Y-147663682D01*
X124173330Y-147599958D01*
X124261912Y-147552610D01*
X124358039Y-147523450D01*
X124464140Y-147513000D01*
X125727860Y-147513000D01*
X125833961Y-147523450D01*
X125833961Y-147523450D01*
G37*
G36*
X146178961Y-147523450D02*
G01*
X146275088Y-147552610D01*
X146363670Y-147599958D01*
X146441318Y-147663682D01*
X146505042Y-147741330D01*
X146552390Y-147829912D01*
X146581550Y-147926039D01*
X146592000Y-148032140D01*
X146592000Y-150295860D01*
X146581550Y-150401961D01*
X146552390Y-150498088D01*
X146505042Y-150586670D01*
X146441318Y-150664318D01*
X146363670Y-150728042D01*
X146275088Y-150775390D01*
X146178961Y-150804550D01*
X146072860Y-150815000D01*
X144809140Y-150815000D01*
X144703039Y-150804550D01*
X144606912Y-150775390D01*
X144518330Y-150728042D01*
X144440682Y-150664318D01*
X144376958Y-150586670D01*
X144329610Y-150498088D01*
X144300450Y-150401961D01*
X144290000Y-150295860D01*
X144290000Y-148032140D01*
X144300450Y-147926039D01*
X144329610Y-147829912D01*
X144376958Y-147741330D01*
X144440682Y-147663682D01*
X144518330Y-147599958D01*
X144606912Y-147552610D01*
X144703039Y-147523450D01*
X144809140Y-147513000D01*
X146072860Y-147513000D01*
X146178961Y-147523450D01*
X146178961Y-147523450D01*
G37*
G36*
X140756461Y-147523450D02*
G01*
X140852588Y-147552610D01*
X140941170Y-147599958D01*
X141018818Y-147663682D01*
X141082542Y-147741330D01*
X141129890Y-147829912D01*
X141159050Y-147926039D01*
X141169500Y-148032140D01*
X141169500Y-150295860D01*
X141159050Y-150401961D01*
X141129890Y-150498088D01*
X141082542Y-150586670D01*
X141018818Y-150664318D01*
X140941170Y-150728042D01*
X140852588Y-150775390D01*
X140756461Y-150804550D01*
X140650360Y-150815000D01*
X139386640Y-150815000D01*
X139280539Y-150804550D01*
X139184412Y-150775390D01*
X139095830Y-150728042D01*
X139018182Y-150664318D01*
X138954458Y-150586670D01*
X138907110Y-150498088D01*
X138877950Y-150401961D01*
X138867500Y-150295860D01*
X138867500Y-148032140D01*
X138877950Y-147926039D01*
X138907110Y-147829912D01*
X138954458Y-147741330D01*
X139018182Y-147663682D01*
X139095830Y-147599958D01*
X139184412Y-147552610D01*
X139280539Y-147523450D01*
X139386640Y-147513000D01*
X140650360Y-147513000D01*
X140756461Y-147523450D01*
X140756461Y-147523450D01*
G37*
G36*
X155678961Y-147523450D02*
G01*
X155775088Y-147552610D01*
X155863670Y-147599958D01*
X155941318Y-147663682D01*
X156005042Y-147741330D01*
X156052390Y-147829912D01*
X156081550Y-147926039D01*
X156092000Y-148032140D01*
X156092000Y-150295860D01*
X156081550Y-150401961D01*
X156052390Y-150498088D01*
X156005042Y-150586670D01*
X155941318Y-150664318D01*
X155863670Y-150728042D01*
X155775088Y-150775390D01*
X155678961Y-150804550D01*
X155572860Y-150815000D01*
X154309140Y-150815000D01*
X154203039Y-150804550D01*
X154106912Y-150775390D01*
X154018330Y-150728042D01*
X153940682Y-150664318D01*
X153876958Y-150586670D01*
X153829610Y-150498088D01*
X153800450Y-150401961D01*
X153790000Y-150295860D01*
X153790000Y-148032140D01*
X153800450Y-147926039D01*
X153829610Y-147829912D01*
X153876958Y-147741330D01*
X153940682Y-147663682D01*
X154018330Y-147599958D01*
X154106912Y-147552610D01*
X154203039Y-147523450D01*
X154309140Y-147513000D01*
X155572860Y-147513000D01*
X155678961Y-147523450D01*
X155678961Y-147523450D01*
G37*
G36*
X121633961Y-142623450D02*
G01*
X121730088Y-142652610D01*
X121818670Y-142699958D01*
X121896318Y-142763682D01*
X121960042Y-142841330D01*
X122007390Y-142929912D01*
X122036550Y-143026039D01*
X122047000Y-143132140D01*
X122047000Y-144395860D01*
X122036550Y-144501961D01*
X122007390Y-144598088D01*
X121960042Y-144686670D01*
X121896318Y-144764318D01*
X121818670Y-144828042D01*
X121730088Y-144875390D01*
X121633961Y-144904550D01*
X121527860Y-144915000D01*
X119264140Y-144915000D01*
X119158039Y-144904550D01*
X119061912Y-144875390D01*
X118973330Y-144828042D01*
X118895682Y-144764318D01*
X118831958Y-144686670D01*
X118784610Y-144598088D01*
X118755450Y-144501961D01*
X118745000Y-144395860D01*
X118745000Y-143132140D01*
X118755450Y-143026039D01*
X118784610Y-142929912D01*
X118831958Y-142841330D01*
X118895682Y-142763682D01*
X118973330Y-142699958D01*
X119061912Y-142652610D01*
X119158039Y-142623450D01*
X119264140Y-142613000D01*
X121527860Y-142613000D01*
X121633961Y-142623450D01*
X121633961Y-142623450D01*
G37*
G36*
X136556461Y-142623450D02*
G01*
X136652588Y-142652610D01*
X136741170Y-142699958D01*
X136818818Y-142763682D01*
X136882542Y-142841330D01*
X136929890Y-142929912D01*
X136959050Y-143026039D01*
X136969500Y-143132140D01*
X136969500Y-144395860D01*
X136959050Y-144501961D01*
X136929890Y-144598088D01*
X136882542Y-144686670D01*
X136818818Y-144764318D01*
X136741170Y-144828042D01*
X136652588Y-144875390D01*
X136556461Y-144904550D01*
X136450360Y-144915000D01*
X134186640Y-144915000D01*
X134080539Y-144904550D01*
X133984412Y-144875390D01*
X133895830Y-144828042D01*
X133818182Y-144764318D01*
X133754458Y-144686670D01*
X133707110Y-144598088D01*
X133677950Y-144501961D01*
X133667500Y-144395860D01*
X133667500Y-143132140D01*
X133677950Y-143026039D01*
X133707110Y-142929912D01*
X133754458Y-142841330D01*
X133818182Y-142763682D01*
X133895830Y-142699958D01*
X133984412Y-142652610D01*
X134080539Y-142623450D01*
X134186640Y-142613000D01*
X136450360Y-142613000D01*
X136556461Y-142623450D01*
X136556461Y-142623450D01*
G37*
G36*
X151478961Y-142623450D02*
G01*
X151575088Y-142652610D01*
X151663670Y-142699958D01*
X151741318Y-142763682D01*
X151805042Y-142841330D01*
X151852390Y-142929912D01*
X151881550Y-143026039D01*
X151892000Y-143132140D01*
X151892000Y-144395860D01*
X151881550Y-144501961D01*
X151852390Y-144598088D01*
X151805042Y-144686670D01*
X151741318Y-144764318D01*
X151663670Y-144828042D01*
X151575088Y-144875390D01*
X151478961Y-144904550D01*
X151372860Y-144915000D01*
X149109140Y-144915000D01*
X149003039Y-144904550D01*
X148906912Y-144875390D01*
X148818330Y-144828042D01*
X148740682Y-144764318D01*
X148676958Y-144686670D01*
X148629610Y-144598088D01*
X148600450Y-144501961D01*
X148590000Y-144395860D01*
X148590000Y-143132140D01*
X148600450Y-143026039D01*
X148629610Y-142929912D01*
X148676958Y-142841330D01*
X148740682Y-142763682D01*
X148818330Y-142699958D01*
X148906912Y-142652610D01*
X149003039Y-142623450D01*
X149109140Y-142613000D01*
X151372860Y-142613000D01*
X151478961Y-142623450D01*
X151478961Y-142623450D01*
G37*
G36*
X151378961Y-136245450D02*
G01*
X151475088Y-136274610D01*
X151563670Y-136321958D01*
X151641318Y-136385682D01*
X151705042Y-136463330D01*
X151752390Y-136551912D01*
X151781550Y-136648039D01*
X151792000Y-136754140D01*
X151792000Y-138017860D01*
X151781550Y-138123961D01*
X151752390Y-138220088D01*
X151705042Y-138308670D01*
X151641318Y-138386318D01*
X151563670Y-138450042D01*
X151475088Y-138497390D01*
X151378961Y-138526550D01*
X151272860Y-138537000D01*
X149009140Y-138537000D01*
X148903039Y-138526550D01*
X148806912Y-138497390D01*
X148718330Y-138450042D01*
X148640682Y-138386318D01*
X148576958Y-138308670D01*
X148529610Y-138220088D01*
X148500450Y-138123961D01*
X148490000Y-138017860D01*
X148490000Y-136754140D01*
X148500450Y-136648039D01*
X148529610Y-136551912D01*
X148576958Y-136463330D01*
X148640682Y-136385682D01*
X148718330Y-136321958D01*
X148806912Y-136274610D01*
X148903039Y-136245450D01*
X149009140Y-136235000D01*
X151272860Y-136235000D01*
X151378961Y-136245450D01*
X151378961Y-136245450D01*
G37*
G36*
X136456461Y-136245450D02*
G01*
X136552588Y-136274610D01*
X136641170Y-136321958D01*
X136718818Y-136385682D01*
X136782542Y-136463330D01*
X136829890Y-136551912D01*
X136859050Y-136648039D01*
X136869500Y-136754140D01*
X136869500Y-138017860D01*
X136859050Y-138123961D01*
X136829890Y-138220088D01*
X136782542Y-138308670D01*
X136718818Y-138386318D01*
X136641170Y-138450042D01*
X136552588Y-138497390D01*
X136456461Y-138526550D01*
X136350360Y-138537000D01*
X134086640Y-138537000D01*
X133980539Y-138526550D01*
X133884412Y-138497390D01*
X133795830Y-138450042D01*
X133718182Y-138386318D01*
X133654458Y-138308670D01*
X133607110Y-138220088D01*
X133577950Y-138123961D01*
X133567500Y-138017860D01*
X133567500Y-136754140D01*
X133577950Y-136648039D01*
X133607110Y-136551912D01*
X133654458Y-136463330D01*
X133718182Y-136385682D01*
X133795830Y-136321958D01*
X133884412Y-136274610D01*
X133980539Y-136245450D01*
X134086640Y-136235000D01*
X136350360Y-136235000D01*
X136456461Y-136245450D01*
X136456461Y-136245450D01*
G37*
G36*
X121533961Y-136245450D02*
G01*
X121630088Y-136274610D01*
X121718670Y-136321958D01*
X121796318Y-136385682D01*
X121860042Y-136463330D01*
X121907390Y-136551912D01*
X121936550Y-136648039D01*
X121947000Y-136754140D01*
X121947000Y-138017860D01*
X121936550Y-138123961D01*
X121907390Y-138220088D01*
X121860042Y-138308670D01*
X121796318Y-138386318D01*
X121718670Y-138450042D01*
X121630088Y-138497390D01*
X121533961Y-138526550D01*
X121427860Y-138537000D01*
X119164140Y-138537000D01*
X119058039Y-138526550D01*
X118961912Y-138497390D01*
X118873330Y-138450042D01*
X118795682Y-138386318D01*
X118731958Y-138308670D01*
X118684610Y-138220088D01*
X118655450Y-138123961D01*
X118645000Y-138017860D01*
X118645000Y-136754140D01*
X118655450Y-136648039D01*
X118684610Y-136551912D01*
X118731958Y-136463330D01*
X118795682Y-136385682D01*
X118873330Y-136321958D01*
X118961912Y-136274610D01*
X119058039Y-136245450D01*
X119164140Y-136235000D01*
X121427860Y-136235000D01*
X121533961Y-136245450D01*
X121533961Y-136245450D01*
G37*
G36*
X125833961Y-133045450D02*
G01*
X125930088Y-133074610D01*
X126018670Y-133121958D01*
X126096318Y-133185682D01*
X126160042Y-133263330D01*
X126207390Y-133351912D01*
X126236550Y-133448039D01*
X126247000Y-133554140D01*
X126247000Y-135817860D01*
X126236550Y-135923961D01*
X126207390Y-136020088D01*
X126160042Y-136108670D01*
X126096318Y-136186318D01*
X126018670Y-136250042D01*
X125930088Y-136297390D01*
X125833961Y-136326550D01*
X125727860Y-136337000D01*
X124464140Y-136337000D01*
X124358039Y-136326550D01*
X124261912Y-136297390D01*
X124173330Y-136250042D01*
X124095682Y-136186318D01*
X124031958Y-136108670D01*
X123984610Y-136020088D01*
X123955450Y-135923961D01*
X123945000Y-135817860D01*
X123945000Y-133554140D01*
X123955450Y-133448039D01*
X123984610Y-133351912D01*
X124031958Y-133263330D01*
X124095682Y-133185682D01*
X124173330Y-133121958D01*
X124261912Y-133074610D01*
X124358039Y-133045450D01*
X124464140Y-133035000D01*
X125727860Y-133035000D01*
X125833961Y-133045450D01*
X125833961Y-133045450D01*
G37*
G36*
X131256461Y-133045450D02*
G01*
X131352588Y-133074610D01*
X131441170Y-133121958D01*
X131518818Y-133185682D01*
X131582542Y-133263330D01*
X131629890Y-133351912D01*
X131659050Y-133448039D01*
X131669500Y-133554140D01*
X131669500Y-135817860D01*
X131659050Y-135923961D01*
X131629890Y-136020088D01*
X131582542Y-136108670D01*
X131518818Y-136186318D01*
X131441170Y-136250042D01*
X131352588Y-136297390D01*
X131256461Y-136326550D01*
X131150360Y-136337000D01*
X129886640Y-136337000D01*
X129780539Y-136326550D01*
X129684412Y-136297390D01*
X129595830Y-136250042D01*
X129518182Y-136186318D01*
X129454458Y-136108670D01*
X129407110Y-136020088D01*
X129377950Y-135923961D01*
X129367500Y-135817860D01*
X129367500Y-133554140D01*
X129377950Y-133448039D01*
X129407110Y-133351912D01*
X129454458Y-133263330D01*
X129518182Y-133185682D01*
X129595830Y-133121958D01*
X129684412Y-133074610D01*
X129780539Y-133045450D01*
X129886640Y-133035000D01*
X131150360Y-133035000D01*
X131256461Y-133045450D01*
X131256461Y-133045450D01*
G37*
G36*
X140756461Y-133045450D02*
G01*
X140852588Y-133074610D01*
X140941170Y-133121958D01*
X141018818Y-133185682D01*
X141082542Y-133263330D01*
X141129890Y-133351912D01*
X141159050Y-133448039D01*
X141169500Y-133554140D01*
X141169500Y-135817860D01*
X141159050Y-135923961D01*
X141129890Y-136020088D01*
X141082542Y-136108670D01*
X141018818Y-136186318D01*
X140941170Y-136250042D01*
X140852588Y-136297390D01*
X140756461Y-136326550D01*
X140650360Y-136337000D01*
X139386640Y-136337000D01*
X139280539Y-136326550D01*
X139184412Y-136297390D01*
X139095830Y-136250042D01*
X139018182Y-136186318D01*
X138954458Y-136108670D01*
X138907110Y-136020088D01*
X138877950Y-135923961D01*
X138867500Y-135817860D01*
X138867500Y-133554140D01*
X138877950Y-133448039D01*
X138907110Y-133351912D01*
X138954458Y-133263330D01*
X139018182Y-133185682D01*
X139095830Y-133121958D01*
X139184412Y-133074610D01*
X139280539Y-133045450D01*
X139386640Y-133035000D01*
X140650360Y-133035000D01*
X140756461Y-133045450D01*
X140756461Y-133045450D01*
G37*
G36*
X146178961Y-133045450D02*
G01*
X146275088Y-133074610D01*
X146363670Y-133121958D01*
X146441318Y-133185682D01*
X146505042Y-133263330D01*
X146552390Y-133351912D01*
X146581550Y-133448039D01*
X146592000Y-133554140D01*
X146592000Y-135817860D01*
X146581550Y-135923961D01*
X146552390Y-136020088D01*
X146505042Y-136108670D01*
X146441318Y-136186318D01*
X146363670Y-136250042D01*
X146275088Y-136297390D01*
X146178961Y-136326550D01*
X146072860Y-136337000D01*
X144809140Y-136337000D01*
X144703039Y-136326550D01*
X144606912Y-136297390D01*
X144518330Y-136250042D01*
X144440682Y-136186318D01*
X144376958Y-136108670D01*
X144329610Y-136020088D01*
X144300450Y-135923961D01*
X144290000Y-135817860D01*
X144290000Y-133554140D01*
X144300450Y-133448039D01*
X144329610Y-133351912D01*
X144376958Y-133263330D01*
X144440682Y-133185682D01*
X144518330Y-133121958D01*
X144606912Y-133074610D01*
X144703039Y-133045450D01*
X144809140Y-133035000D01*
X146072860Y-133035000D01*
X146178961Y-133045450D01*
X146178961Y-133045450D01*
G37*
G36*
X155678961Y-133045450D02*
G01*
X155775088Y-133074610D01*
X155863670Y-133121958D01*
X155941318Y-133185682D01*
X156005042Y-133263330D01*
X156052390Y-133351912D01*
X156081550Y-133448039D01*
X156092000Y-133554140D01*
X156092000Y-135817860D01*
X156081550Y-135923961D01*
X156052390Y-136020088D01*
X156005042Y-136108670D01*
X155941318Y-136186318D01*
X155863670Y-136250042D01*
X155775088Y-136297390D01*
X155678961Y-136326550D01*
X155572860Y-136337000D01*
X154309140Y-136337000D01*
X154203039Y-136326550D01*
X154106912Y-136297390D01*
X154018330Y-136250042D01*
X153940682Y-136186318D01*
X153876958Y-136108670D01*
X153829610Y-136020088D01*
X153800450Y-135923961D01*
X153790000Y-135817860D01*
X153790000Y-133554140D01*
X153800450Y-133448039D01*
X153829610Y-133351912D01*
X153876958Y-133263330D01*
X153940682Y-133185682D01*
X154018330Y-133121958D01*
X154106912Y-133074610D01*
X154203039Y-133045450D01*
X154309140Y-133035000D01*
X155572860Y-133035000D01*
X155678961Y-133045450D01*
X155678961Y-133045450D01*
G37*
G36*
X116333961Y-133045450D02*
G01*
X116430088Y-133074610D01*
X116518670Y-133121958D01*
X116596318Y-133185682D01*
X116660042Y-133263330D01*
X116707390Y-133351912D01*
X116736550Y-133448039D01*
X116747000Y-133554140D01*
X116747000Y-135817860D01*
X116736550Y-135923961D01*
X116707390Y-136020088D01*
X116660042Y-136108670D01*
X116596318Y-136186318D01*
X116518670Y-136250042D01*
X116430088Y-136297390D01*
X116333961Y-136326550D01*
X116227860Y-136337000D01*
X114964140Y-136337000D01*
X114858039Y-136326550D01*
X114761912Y-136297390D01*
X114673330Y-136250042D01*
X114595682Y-136186318D01*
X114531958Y-136108670D01*
X114484610Y-136020088D01*
X114455450Y-135923961D01*
X114445000Y-135817860D01*
X114445000Y-133554140D01*
X114455450Y-133448039D01*
X114484610Y-133351912D01*
X114531958Y-133263330D01*
X114595682Y-133185682D01*
X114673330Y-133121958D01*
X114761912Y-133074610D01*
X114858039Y-133045450D01*
X114964140Y-133035000D01*
X116227860Y-133035000D01*
X116333961Y-133045450D01*
X116333961Y-133045450D01*
G37*
G36*
X136556461Y-128145450D02*
G01*
X136652588Y-128174610D01*
X136741170Y-128221958D01*
X136818818Y-128285682D01*
X136882542Y-128363330D01*
X136929890Y-128451912D01*
X136959050Y-128548039D01*
X136969500Y-128654140D01*
X136969500Y-129917860D01*
X136959050Y-130023961D01*
X136929890Y-130120088D01*
X136882542Y-130208670D01*
X136818818Y-130286318D01*
X136741170Y-130350042D01*
X136652588Y-130397390D01*
X136556461Y-130426550D01*
X136450360Y-130437000D01*
X134186640Y-130437000D01*
X134080539Y-130426550D01*
X133984412Y-130397390D01*
X133895830Y-130350042D01*
X133818182Y-130286318D01*
X133754458Y-130208670D01*
X133707110Y-130120088D01*
X133677950Y-130023961D01*
X133667500Y-129917860D01*
X133667500Y-128654140D01*
X133677950Y-128548039D01*
X133707110Y-128451912D01*
X133754458Y-128363330D01*
X133818182Y-128285682D01*
X133895830Y-128221958D01*
X133984412Y-128174610D01*
X134080539Y-128145450D01*
X134186640Y-128135000D01*
X136450360Y-128135000D01*
X136556461Y-128145450D01*
X136556461Y-128145450D01*
G37*
G36*
X151478961Y-128145450D02*
G01*
X151575088Y-128174610D01*
X151663670Y-128221958D01*
X151741318Y-128285682D01*
X151805042Y-128363330D01*
X151852390Y-128451912D01*
X151881550Y-128548039D01*
X151892000Y-128654140D01*
X151892000Y-129917860D01*
X151881550Y-130023961D01*
X151852390Y-130120088D01*
X151805042Y-130208670D01*
X151741318Y-130286318D01*
X151663670Y-130350042D01*
X151575088Y-130397390D01*
X151478961Y-130426550D01*
X151372860Y-130437000D01*
X149109140Y-130437000D01*
X149003039Y-130426550D01*
X148906912Y-130397390D01*
X148818330Y-130350042D01*
X148740682Y-130286318D01*
X148676958Y-130208670D01*
X148629610Y-130120088D01*
X148600450Y-130023961D01*
X148590000Y-129917860D01*
X148590000Y-128654140D01*
X148600450Y-128548039D01*
X148629610Y-128451912D01*
X148676958Y-128363330D01*
X148740682Y-128285682D01*
X148818330Y-128221958D01*
X148906912Y-128174610D01*
X149003039Y-128145450D01*
X149109140Y-128135000D01*
X151372860Y-128135000D01*
X151478961Y-128145450D01*
X151478961Y-128145450D01*
G37*
G36*
X121633961Y-128145450D02*
G01*
X121730088Y-128174610D01*
X121818670Y-128221958D01*
X121896318Y-128285682D01*
X121960042Y-128363330D01*
X122007390Y-128451912D01*
X122036550Y-128548039D01*
X122047000Y-128654140D01*
X122047000Y-129917860D01*
X122036550Y-130023961D01*
X122007390Y-130120088D01*
X121960042Y-130208670D01*
X121896318Y-130286318D01*
X121818670Y-130350042D01*
X121730088Y-130397390D01*
X121633961Y-130426550D01*
X121527860Y-130437000D01*
X119264140Y-130437000D01*
X119158039Y-130426550D01*
X119061912Y-130397390D01*
X118973330Y-130350042D01*
X118895682Y-130286318D01*
X118831958Y-130208670D01*
X118784610Y-130120088D01*
X118755450Y-130023961D01*
X118745000Y-129917860D01*
X118745000Y-128654140D01*
X118755450Y-128548039D01*
X118784610Y-128451912D01*
X118831958Y-128363330D01*
X118895682Y-128285682D01*
X118973330Y-128221958D01*
X119061912Y-128174610D01*
X119158039Y-128145450D01*
X119264140Y-128135000D01*
X121527860Y-128135000D01*
X121633961Y-128145450D01*
X121633961Y-128145450D01*
G37*
G36*
X117997562Y-118966181D02*
G01*
X118032481Y-118976774D01*
X118064663Y-118993976D01*
X118092873Y-119017127D01*
X118116024Y-119045337D01*
X118133226Y-119077519D01*
X118143819Y-119112438D01*
X118148000Y-119154895D01*
X118148000Y-120621105D01*
X118143819Y-120663562D01*
X118133226Y-120698481D01*
X118116024Y-120730663D01*
X118092873Y-120758873D01*
X118064663Y-120782024D01*
X118032481Y-120799226D01*
X117997562Y-120809819D01*
X117955105Y-120814000D01*
X116813895Y-120814000D01*
X116771438Y-120809819D01*
X116736519Y-120799226D01*
X116704337Y-120782024D01*
X116676127Y-120758873D01*
X116652976Y-120730663D01*
X116635774Y-120698481D01*
X116625181Y-120663562D01*
X116621000Y-120621105D01*
X116621000Y-119154895D01*
X116625181Y-119112438D01*
X116635774Y-119077519D01*
X116652976Y-119045337D01*
X116676127Y-119017127D01*
X116704337Y-118993976D01*
X116736519Y-118976774D01*
X116771438Y-118966181D01*
X116813895Y-118962000D01*
X117955105Y-118962000D01*
X117997562Y-118966181D01*
X117997562Y-118966181D01*
G37*
G36*
X120972562Y-118966181D02*
G01*
X121007481Y-118976774D01*
X121039663Y-118993976D01*
X121067873Y-119017127D01*
X121091024Y-119045337D01*
X121108226Y-119077519D01*
X121118819Y-119112438D01*
X121123000Y-119154895D01*
X121123000Y-120621105D01*
X121118819Y-120663562D01*
X121108226Y-120698481D01*
X121091024Y-120730663D01*
X121067873Y-120758873D01*
X121039663Y-120782024D01*
X121007481Y-120799226D01*
X120972562Y-120809819D01*
X120930105Y-120814000D01*
X119788895Y-120814000D01*
X119746438Y-120809819D01*
X119711519Y-120799226D01*
X119679337Y-120782024D01*
X119651127Y-120758873D01*
X119627976Y-120730663D01*
X119610774Y-120698481D01*
X119600181Y-120663562D01*
X119596000Y-120621105D01*
X119596000Y-119154895D01*
X119600181Y-119112438D01*
X119610774Y-119077519D01*
X119627976Y-119045337D01*
X119651127Y-119017127D01*
X119679337Y-118993976D01*
X119711519Y-118976774D01*
X119746438Y-118966181D01*
X119788895Y-118962000D01*
X120930105Y-118962000D01*
X120972562Y-118966181D01*
X120972562Y-118966181D01*
G37*
G36*
X149196228Y-119092181D02*
G01*
X149231147Y-119102774D01*
X149263329Y-119119976D01*
X149291539Y-119143127D01*
X149314690Y-119171337D01*
X149331892Y-119203519D01*
X149342485Y-119238438D01*
X149346666Y-119280895D01*
X149346666Y-120422105D01*
X149342485Y-120464562D01*
X149331892Y-120499481D01*
X149314690Y-120531663D01*
X149291539Y-120559873D01*
X149263329Y-120583024D01*
X149231147Y-120600226D01*
X149196228Y-120610819D01*
X149153771Y-120615000D01*
X147687561Y-120615000D01*
X147645104Y-120610819D01*
X147610185Y-120600226D01*
X147578003Y-120583024D01*
X147549793Y-120559873D01*
X147526642Y-120531663D01*
X147509440Y-120499481D01*
X147498847Y-120464562D01*
X147494666Y-120422105D01*
X147494666Y-119280895D01*
X147498847Y-119238438D01*
X147509440Y-119203519D01*
X147526642Y-119171337D01*
X147549793Y-119143127D01*
X147578003Y-119119976D01*
X147610185Y-119102774D01*
X147645104Y-119092181D01*
X147687561Y-119088000D01*
X149153771Y-119088000D01*
X149196228Y-119092181D01*
X149196228Y-119092181D01*
G37*
G36*
X152286562Y-119092181D02*
G01*
X152321481Y-119102774D01*
X152353663Y-119119976D01*
X152381873Y-119143127D01*
X152405024Y-119171337D01*
X152422226Y-119203519D01*
X152432819Y-119238438D01*
X152437000Y-119280895D01*
X152437000Y-120422105D01*
X152432819Y-120464562D01*
X152422226Y-120499481D01*
X152405024Y-120531663D01*
X152381873Y-120559873D01*
X152353663Y-120583024D01*
X152321481Y-120600226D01*
X152286562Y-120610819D01*
X152244105Y-120615000D01*
X150777895Y-120615000D01*
X150735438Y-120610819D01*
X150700519Y-120600226D01*
X150668337Y-120583024D01*
X150640127Y-120559873D01*
X150616976Y-120531663D01*
X150599774Y-120499481D01*
X150589181Y-120464562D01*
X150585000Y-120422105D01*
X150585000Y-119280895D01*
X150589181Y-119238438D01*
X150599774Y-119203519D01*
X150616976Y-119171337D01*
X150640127Y-119143127D01*
X150668337Y-119119976D01*
X150700519Y-119102774D01*
X150735438Y-119092181D01*
X150777895Y-119088000D01*
X152244105Y-119088000D01*
X152286562Y-119092181D01*
X152286562Y-119092181D01*
G37*
G36*
X146105895Y-119092181D02*
G01*
X146140814Y-119102774D01*
X146172996Y-119119976D01*
X146201206Y-119143127D01*
X146224357Y-119171337D01*
X146241559Y-119203519D01*
X146252152Y-119238438D01*
X146256333Y-119280895D01*
X146256333Y-120422105D01*
X146252152Y-120464562D01*
X146241559Y-120499481D01*
X146224357Y-120531663D01*
X146201206Y-120559873D01*
X146172996Y-120583024D01*
X146140814Y-120600226D01*
X146105895Y-120610819D01*
X146063438Y-120615000D01*
X144597228Y-120615000D01*
X144554771Y-120610819D01*
X144519852Y-120600226D01*
X144487670Y-120583024D01*
X144459460Y-120559873D01*
X144436309Y-120531663D01*
X144419107Y-120499481D01*
X144408514Y-120464562D01*
X144404333Y-120422105D01*
X144404333Y-119280895D01*
X144408514Y-119238438D01*
X144419107Y-119203519D01*
X144436309Y-119171337D01*
X144459460Y-119143127D01*
X144487670Y-119119976D01*
X144519852Y-119102774D01*
X144554771Y-119092181D01*
X144597228Y-119088000D01*
X146063438Y-119088000D01*
X146105895Y-119092181D01*
X146105895Y-119092181D01*
G37*
G36*
X143015562Y-119092181D02*
G01*
X143050481Y-119102774D01*
X143082663Y-119119976D01*
X143110873Y-119143127D01*
X143134024Y-119171337D01*
X143151226Y-119203519D01*
X143161819Y-119238438D01*
X143166000Y-119280895D01*
X143166000Y-120422105D01*
X143161819Y-120464562D01*
X143151226Y-120499481D01*
X143134024Y-120531663D01*
X143110873Y-120559873D01*
X143082663Y-120583024D01*
X143050481Y-120600226D01*
X143015562Y-120610819D01*
X142973105Y-120615000D01*
X141506895Y-120615000D01*
X141464438Y-120610819D01*
X141429519Y-120600226D01*
X141397337Y-120583024D01*
X141369127Y-120559873D01*
X141345976Y-120531663D01*
X141328774Y-120499481D01*
X141318181Y-120464562D01*
X141314000Y-120422105D01*
X141314000Y-119280895D01*
X141318181Y-119238438D01*
X141328774Y-119203519D01*
X141345976Y-119171337D01*
X141369127Y-119143127D01*
X141397337Y-119119976D01*
X141429519Y-119102774D01*
X141464438Y-119092181D01*
X141506895Y-119088000D01*
X142973105Y-119088000D01*
X143015562Y-119092181D01*
X143015562Y-119092181D01*
G37*
G36*
X124219562Y-119092181D02*
G01*
X124254481Y-119102774D01*
X124286663Y-119119976D01*
X124314873Y-119143127D01*
X124338024Y-119171337D01*
X124355226Y-119203519D01*
X124365819Y-119238438D01*
X124370000Y-119280895D01*
X124370000Y-120422105D01*
X124365819Y-120464562D01*
X124355226Y-120499481D01*
X124338024Y-120531663D01*
X124314873Y-120559873D01*
X124286663Y-120583024D01*
X124254481Y-120600226D01*
X124219562Y-120610819D01*
X124177105Y-120615000D01*
X122710895Y-120615000D01*
X122668438Y-120610819D01*
X122633519Y-120600226D01*
X122601337Y-120583024D01*
X122573127Y-120559873D01*
X122549976Y-120531663D01*
X122532774Y-120499481D01*
X122522181Y-120464562D01*
X122518000Y-120422105D01*
X122518000Y-119280895D01*
X122522181Y-119238438D01*
X122532774Y-119203519D01*
X122549976Y-119171337D01*
X122573127Y-119143127D01*
X122601337Y-119119976D01*
X122633519Y-119102774D01*
X122668438Y-119092181D01*
X122710895Y-119088000D01*
X124177105Y-119088000D01*
X124219562Y-119092181D01*
X124219562Y-119092181D01*
G37*
G36*
X131386562Y-116680181D02*
G01*
X131421481Y-116690774D01*
X131453663Y-116707976D01*
X131481873Y-116731127D01*
X131505024Y-116759337D01*
X131522226Y-116791519D01*
X131532819Y-116826438D01*
X131537000Y-116868895D01*
X131537000Y-118335105D01*
X131532819Y-118377562D01*
X131522226Y-118412481D01*
X131505024Y-118444663D01*
X131481873Y-118472873D01*
X131453663Y-118496024D01*
X131421481Y-118513226D01*
X131386562Y-118523819D01*
X131344105Y-118528000D01*
X130202895Y-118528000D01*
X130160438Y-118523819D01*
X130125519Y-118513226D01*
X130093337Y-118496024D01*
X130065127Y-118472873D01*
X130041976Y-118444663D01*
X130024774Y-118412481D01*
X130014181Y-118377562D01*
X130010000Y-118335105D01*
X130010000Y-116868895D01*
X130014181Y-116826438D01*
X130024774Y-116791519D01*
X130041976Y-116759337D01*
X130065127Y-116731127D01*
X130093337Y-116707976D01*
X130125519Y-116690774D01*
X130160438Y-116680181D01*
X130202895Y-116676000D01*
X131344105Y-116676000D01*
X131386562Y-116680181D01*
X131386562Y-116680181D01*
G37*
G36*
X128411562Y-116680181D02*
G01*
X128446481Y-116690774D01*
X128478663Y-116707976D01*
X128506873Y-116731127D01*
X128530024Y-116759337D01*
X128547226Y-116791519D01*
X128557819Y-116826438D01*
X128562000Y-116868895D01*
X128562000Y-118335105D01*
X128557819Y-118377562D01*
X128547226Y-118412481D01*
X128530024Y-118444663D01*
X128506873Y-118472873D01*
X128478663Y-118496024D01*
X128446481Y-118513226D01*
X128411562Y-118523819D01*
X128369105Y-118528000D01*
X127227895Y-118528000D01*
X127185438Y-118523819D01*
X127150519Y-118513226D01*
X127118337Y-118496024D01*
X127090127Y-118472873D01*
X127066976Y-118444663D01*
X127049774Y-118412481D01*
X127039181Y-118377562D01*
X127035000Y-118335105D01*
X127035000Y-116868895D01*
X127039181Y-116826438D01*
X127049774Y-116791519D01*
X127066976Y-116759337D01*
X127090127Y-116731127D01*
X127118337Y-116707976D01*
X127150519Y-116690774D01*
X127185438Y-116680181D01*
X127227895Y-116676000D01*
X128369105Y-116676000D01*
X128411562Y-116680181D01*
X128411562Y-116680181D01*
G37*
G36*
X117997562Y-115918181D02*
G01*
X118032481Y-115928774D01*
X118064663Y-115945976D01*
X118092873Y-115969127D01*
X118116024Y-115997337D01*
X118133226Y-116029519D01*
X118143819Y-116064438D01*
X118148000Y-116106895D01*
X118148000Y-117573105D01*
X118143819Y-117615562D01*
X118133226Y-117650481D01*
X118116024Y-117682663D01*
X118092873Y-117710873D01*
X118064663Y-117734024D01*
X118032481Y-117751226D01*
X117997562Y-117761819D01*
X117955105Y-117766000D01*
X116813895Y-117766000D01*
X116771438Y-117761819D01*
X116736519Y-117751226D01*
X116704337Y-117734024D01*
X116676127Y-117710873D01*
X116652976Y-117682663D01*
X116635774Y-117650481D01*
X116625181Y-117615562D01*
X116621000Y-117573105D01*
X116621000Y-116106895D01*
X116625181Y-116064438D01*
X116635774Y-116029519D01*
X116652976Y-115997337D01*
X116676127Y-115969127D01*
X116704337Y-115945976D01*
X116736519Y-115928774D01*
X116771438Y-115918181D01*
X116813895Y-115914000D01*
X117955105Y-115914000D01*
X117997562Y-115918181D01*
X117997562Y-115918181D01*
G37*
G36*
X120972562Y-115918181D02*
G01*
X121007481Y-115928774D01*
X121039663Y-115945976D01*
X121067873Y-115969127D01*
X121091024Y-115997337D01*
X121108226Y-116029519D01*
X121118819Y-116064438D01*
X121123000Y-116106895D01*
X121123000Y-117573105D01*
X121118819Y-117615562D01*
X121108226Y-117650481D01*
X121091024Y-117682663D01*
X121067873Y-117710873D01*
X121039663Y-117734024D01*
X121007481Y-117751226D01*
X120972562Y-117761819D01*
X120930105Y-117766000D01*
X119788895Y-117766000D01*
X119746438Y-117761819D01*
X119711519Y-117751226D01*
X119679337Y-117734024D01*
X119651127Y-117710873D01*
X119627976Y-117682663D01*
X119610774Y-117650481D01*
X119600181Y-117615562D01*
X119596000Y-117573105D01*
X119596000Y-116106895D01*
X119600181Y-116064438D01*
X119610774Y-116029519D01*
X119627976Y-115997337D01*
X119651127Y-115969127D01*
X119679337Y-115945976D01*
X119711519Y-115928774D01*
X119746438Y-115918181D01*
X119788895Y-115914000D01*
X120930105Y-115914000D01*
X120972562Y-115918181D01*
X120972562Y-115918181D01*
G37*
G36*
X124219562Y-116117181D02*
G01*
X124254481Y-116127774D01*
X124286663Y-116144976D01*
X124314873Y-116168127D01*
X124338024Y-116196337D01*
X124355226Y-116228519D01*
X124365819Y-116263438D01*
X124370000Y-116305895D01*
X124370000Y-117447105D01*
X124365819Y-117489562D01*
X124355226Y-117524481D01*
X124338024Y-117556663D01*
X124314873Y-117584873D01*
X124286663Y-117608024D01*
X124254481Y-117625226D01*
X124219562Y-117635819D01*
X124177105Y-117640000D01*
X122710895Y-117640000D01*
X122668438Y-117635819D01*
X122633519Y-117625226D01*
X122601337Y-117608024D01*
X122573127Y-117584873D01*
X122549976Y-117556663D01*
X122532774Y-117524481D01*
X122522181Y-117489562D01*
X122518000Y-117447105D01*
X122518000Y-116305895D01*
X122522181Y-116263438D01*
X122532774Y-116228519D01*
X122549976Y-116196337D01*
X122573127Y-116168127D01*
X122601337Y-116144976D01*
X122633519Y-116127774D01*
X122668438Y-116117181D01*
X122710895Y-116113000D01*
X124177105Y-116113000D01*
X124219562Y-116117181D01*
X124219562Y-116117181D01*
G37*
G36*
X149196228Y-116117181D02*
G01*
X149231147Y-116127774D01*
X149263329Y-116144976D01*
X149291539Y-116168127D01*
X149314690Y-116196337D01*
X149331892Y-116228519D01*
X149342485Y-116263438D01*
X149346666Y-116305895D01*
X149346666Y-117447105D01*
X149342485Y-117489562D01*
X149331892Y-117524481D01*
X149314690Y-117556663D01*
X149291539Y-117584873D01*
X149263329Y-117608024D01*
X149231147Y-117625226D01*
X149196228Y-117635819D01*
X149153771Y-117640000D01*
X147687561Y-117640000D01*
X147645104Y-117635819D01*
X147610185Y-117625226D01*
X147578003Y-117608024D01*
X147549793Y-117584873D01*
X147526642Y-117556663D01*
X147509440Y-117524481D01*
X147498847Y-117489562D01*
X147494666Y-117447105D01*
X147494666Y-116305895D01*
X147498847Y-116263438D01*
X147509440Y-116228519D01*
X147526642Y-116196337D01*
X147549793Y-116168127D01*
X147578003Y-116144976D01*
X147610185Y-116127774D01*
X147645104Y-116117181D01*
X147687561Y-116113000D01*
X149153771Y-116113000D01*
X149196228Y-116117181D01*
X149196228Y-116117181D01*
G37*
G36*
X146105895Y-116117181D02*
G01*
X146140814Y-116127774D01*
X146172996Y-116144976D01*
X146201206Y-116168127D01*
X146224357Y-116196337D01*
X146241559Y-116228519D01*
X146252152Y-116263438D01*
X146256333Y-116305895D01*
X146256333Y-117447105D01*
X146252152Y-117489562D01*
X146241559Y-117524481D01*
X146224357Y-117556663D01*
X146201206Y-117584873D01*
X146172996Y-117608024D01*
X146140814Y-117625226D01*
X146105895Y-117635819D01*
X146063438Y-117640000D01*
X144597228Y-117640000D01*
X144554771Y-117635819D01*
X144519852Y-117625226D01*
X144487670Y-117608024D01*
X144459460Y-117584873D01*
X144436309Y-117556663D01*
X144419107Y-117524481D01*
X144408514Y-117489562D01*
X144404333Y-117447105D01*
X144404333Y-116305895D01*
X144408514Y-116263438D01*
X144419107Y-116228519D01*
X144436309Y-116196337D01*
X144459460Y-116168127D01*
X144487670Y-116144976D01*
X144519852Y-116127774D01*
X144554771Y-116117181D01*
X144597228Y-116113000D01*
X146063438Y-116113000D01*
X146105895Y-116117181D01*
X146105895Y-116117181D01*
G37*
G36*
X143015562Y-116117181D02*
G01*
X143050481Y-116127774D01*
X143082663Y-116144976D01*
X143110873Y-116168127D01*
X143134024Y-116196337D01*
X143151226Y-116228519D01*
X143161819Y-116263438D01*
X143166000Y-116305895D01*
X143166000Y-117447105D01*
X143161819Y-117489562D01*
X143151226Y-117524481D01*
X143134024Y-117556663D01*
X143110873Y-117584873D01*
X143082663Y-117608024D01*
X143050481Y-117625226D01*
X143015562Y-117635819D01*
X142973105Y-117640000D01*
X141506895Y-117640000D01*
X141464438Y-117635819D01*
X141429519Y-117625226D01*
X141397337Y-117608024D01*
X141369127Y-117584873D01*
X141345976Y-117556663D01*
X141328774Y-117524481D01*
X141318181Y-117489562D01*
X141314000Y-117447105D01*
X141314000Y-116305895D01*
X141318181Y-116263438D01*
X141328774Y-116228519D01*
X141345976Y-116196337D01*
X141369127Y-116168127D01*
X141397337Y-116144976D01*
X141429519Y-116127774D01*
X141464438Y-116117181D01*
X141506895Y-116113000D01*
X142973105Y-116113000D01*
X143015562Y-116117181D01*
X143015562Y-116117181D01*
G37*
G36*
X152286562Y-116117181D02*
G01*
X152321481Y-116127774D01*
X152353663Y-116144976D01*
X152381873Y-116168127D01*
X152405024Y-116196337D01*
X152422226Y-116228519D01*
X152432819Y-116263438D01*
X152437000Y-116305895D01*
X152437000Y-117447105D01*
X152432819Y-117489562D01*
X152422226Y-117524481D01*
X152405024Y-117556663D01*
X152381873Y-117584873D01*
X152353663Y-117608024D01*
X152321481Y-117625226D01*
X152286562Y-117635819D01*
X152244105Y-117640000D01*
X150777895Y-117640000D01*
X150735438Y-117635819D01*
X150700519Y-117625226D01*
X150668337Y-117608024D01*
X150640127Y-117584873D01*
X150616976Y-117556663D01*
X150599774Y-117524481D01*
X150589181Y-117489562D01*
X150585000Y-117447105D01*
X150585000Y-116305895D01*
X150589181Y-116263438D01*
X150599774Y-116228519D01*
X150616976Y-116196337D01*
X150640127Y-116168127D01*
X150668337Y-116144976D01*
X150700519Y-116127774D01*
X150735438Y-116117181D01*
X150777895Y-116113000D01*
X152244105Y-116113000D01*
X152286562Y-116117181D01*
X152286562Y-116117181D01*
G37*
G36*
X132345000Y-115765000D02*
G01*
X127243000Y-115765000D01*
X127243000Y-114163000D01*
X132345000Y-114163000D01*
X132345000Y-115765000D01*
X132345000Y-115765000D01*
G37*
G36*
X124122000Y-113986000D02*
G01*
X122570000Y-113986000D01*
X122570000Y-109534000D01*
X124122000Y-109534000D01*
X124122000Y-113986000D01*
X124122000Y-113986000D01*
G37*
G36*
X118222000Y-113986000D02*
G01*
X116670000Y-113986000D01*
X116670000Y-109534000D01*
X118222000Y-109534000D01*
X118222000Y-113986000D01*
X118222000Y-113986000D01*
G37*
G36*
X114821562Y-111218181D02*
G01*
X114856481Y-111228774D01*
X114888663Y-111245976D01*
X114916873Y-111269127D01*
X114940024Y-111297337D01*
X114957226Y-111329519D01*
X114967819Y-111364438D01*
X114972000Y-111406895D01*
X114972000Y-112548105D01*
X114967819Y-112590562D01*
X114957226Y-112625481D01*
X114940024Y-112657663D01*
X114916873Y-112685873D01*
X114888663Y-112709024D01*
X114856481Y-112726226D01*
X114821562Y-112736819D01*
X114779105Y-112741000D01*
X113312895Y-112741000D01*
X113270438Y-112736819D01*
X113235519Y-112726226D01*
X113203337Y-112709024D01*
X113175127Y-112685873D01*
X113151976Y-112657663D01*
X113134774Y-112625481D01*
X113124181Y-112590562D01*
X113120000Y-112548105D01*
X113120000Y-111406895D01*
X113124181Y-111364438D01*
X113134774Y-111329519D01*
X113151976Y-111297337D01*
X113175127Y-111269127D01*
X113203337Y-111245976D01*
X113235519Y-111228774D01*
X113270438Y-111218181D01*
X113312895Y-111214000D01*
X114779105Y-111214000D01*
X114821562Y-111218181D01*
X114821562Y-111218181D01*
G37*
G36*
X150538000Y-112589000D02*
G01*
X148986000Y-112589000D01*
X148986000Y-108137000D01*
X150538000Y-108137000D01*
X150538000Y-112589000D01*
X150538000Y-112589000D01*
G37*
G36*
X144638000Y-112589000D02*
G01*
X143086000Y-112589000D01*
X143086000Y-108137000D01*
X144638000Y-108137000D01*
X144638000Y-112589000D01*
X144638000Y-112589000D01*
G37*
G36*
X132345000Y-109865000D02*
G01*
X127243000Y-109865000D01*
X127243000Y-108263000D01*
X132345000Y-108263000D01*
X132345000Y-109865000D01*
X132345000Y-109865000D01*
G37*
G36*
X114821562Y-108243181D02*
G01*
X114856481Y-108253774D01*
X114888663Y-108270976D01*
X114916873Y-108294127D01*
X114940024Y-108322337D01*
X114957226Y-108354519D01*
X114967819Y-108389438D01*
X114972000Y-108431895D01*
X114972000Y-109573105D01*
X114967819Y-109615562D01*
X114957226Y-109650481D01*
X114940024Y-109682663D01*
X114916873Y-109710873D01*
X114888663Y-109734024D01*
X114856481Y-109751226D01*
X114821562Y-109761819D01*
X114779105Y-109766000D01*
X113312895Y-109766000D01*
X113270438Y-109761819D01*
X113235519Y-109751226D01*
X113203337Y-109734024D01*
X113175127Y-109710873D01*
X113151976Y-109682663D01*
X113134774Y-109650481D01*
X113124181Y-109615562D01*
X113120000Y-109573105D01*
X113120000Y-108431895D01*
X113124181Y-108389438D01*
X113134774Y-108354519D01*
X113151976Y-108322337D01*
X113175127Y-108294127D01*
X113203337Y-108270976D01*
X113235519Y-108253774D01*
X113270438Y-108243181D01*
X113312895Y-108239000D01*
X114779105Y-108239000D01*
X114821562Y-108243181D01*
X114821562Y-108243181D01*
G37*
G36*
X120972562Y-106266181D02*
G01*
X121007481Y-106276774D01*
X121039663Y-106293976D01*
X121067873Y-106317127D01*
X121091024Y-106345337D01*
X121108226Y-106377519D01*
X121118819Y-106412438D01*
X121123000Y-106454895D01*
X121123000Y-107921105D01*
X121118819Y-107963562D01*
X121108226Y-107998481D01*
X121091024Y-108030663D01*
X121067873Y-108058873D01*
X121039663Y-108082024D01*
X121007481Y-108099226D01*
X120972562Y-108109819D01*
X120930105Y-108114000D01*
X119788895Y-108114000D01*
X119746438Y-108109819D01*
X119711519Y-108099226D01*
X119679337Y-108082024D01*
X119651127Y-108058873D01*
X119627976Y-108030663D01*
X119610774Y-107998481D01*
X119600181Y-107963562D01*
X119596000Y-107921105D01*
X119596000Y-106454895D01*
X119600181Y-106412438D01*
X119610774Y-106377519D01*
X119627976Y-106345337D01*
X119651127Y-106317127D01*
X119679337Y-106293976D01*
X119711519Y-106276774D01*
X119746438Y-106266181D01*
X119788895Y-106262000D01*
X120930105Y-106262000D01*
X120972562Y-106266181D01*
X120972562Y-106266181D01*
G37*
G36*
X117997562Y-106266181D02*
G01*
X118032481Y-106276774D01*
X118064663Y-106293976D01*
X118092873Y-106317127D01*
X118116024Y-106345337D01*
X118133226Y-106377519D01*
X118143819Y-106412438D01*
X118148000Y-106454895D01*
X118148000Y-107921105D01*
X118143819Y-107963562D01*
X118133226Y-107998481D01*
X118116024Y-108030663D01*
X118092873Y-108058873D01*
X118064663Y-108082024D01*
X118032481Y-108099226D01*
X117997562Y-108109819D01*
X117955105Y-108114000D01*
X116813895Y-108114000D01*
X116771438Y-108109819D01*
X116736519Y-108099226D01*
X116704337Y-108082024D01*
X116676127Y-108058873D01*
X116652976Y-108030663D01*
X116635774Y-107998481D01*
X116625181Y-107963562D01*
X116621000Y-107921105D01*
X116621000Y-106454895D01*
X116625181Y-106412438D01*
X116635774Y-106377519D01*
X116652976Y-106345337D01*
X116676127Y-106317127D01*
X116704337Y-106293976D01*
X116736519Y-106276774D01*
X116771438Y-106266181D01*
X116813895Y-106262000D01*
X117955105Y-106262000D01*
X117997562Y-106266181D01*
X117997562Y-106266181D01*
G37*
G36*
X124219562Y-106392181D02*
G01*
X124254481Y-106402774D01*
X124286663Y-106419976D01*
X124314873Y-106443127D01*
X124338024Y-106471337D01*
X124355226Y-106503519D01*
X124365819Y-106538438D01*
X124370000Y-106580895D01*
X124370000Y-107722105D01*
X124365819Y-107764562D01*
X124355226Y-107799481D01*
X124338024Y-107831663D01*
X124314873Y-107859873D01*
X124286663Y-107883024D01*
X124254481Y-107900226D01*
X124219562Y-107910819D01*
X124177105Y-107915000D01*
X122710895Y-107915000D01*
X122668438Y-107910819D01*
X122633519Y-107900226D01*
X122601337Y-107883024D01*
X122573127Y-107859873D01*
X122549976Y-107831663D01*
X122532774Y-107799481D01*
X122522181Y-107764562D01*
X122518000Y-107722105D01*
X122518000Y-106580895D01*
X122522181Y-106538438D01*
X122532774Y-106503519D01*
X122549976Y-106471337D01*
X122573127Y-106443127D01*
X122601337Y-106419976D01*
X122633519Y-106402774D01*
X122668438Y-106392181D01*
X122710895Y-106388000D01*
X124177105Y-106388000D01*
X124219562Y-106392181D01*
X124219562Y-106392181D01*
G37*
G36*
X128791562Y-105884181D02*
G01*
X128826481Y-105894774D01*
X128858663Y-105911976D01*
X128886873Y-105935127D01*
X128910024Y-105963337D01*
X128927226Y-105995519D01*
X128937819Y-106030438D01*
X128942000Y-106072895D01*
X128942000Y-107214105D01*
X128937819Y-107256562D01*
X128927226Y-107291481D01*
X128910024Y-107323663D01*
X128886873Y-107351873D01*
X128858663Y-107375024D01*
X128826481Y-107392226D01*
X128791562Y-107402819D01*
X128749105Y-107407000D01*
X127282895Y-107407000D01*
X127240438Y-107402819D01*
X127205519Y-107392226D01*
X127173337Y-107375024D01*
X127145127Y-107351873D01*
X127121976Y-107323663D01*
X127104774Y-107291481D01*
X127094181Y-107256562D01*
X127090000Y-107214105D01*
X127090000Y-106072895D01*
X127094181Y-106030438D01*
X127104774Y-105995519D01*
X127121976Y-105963337D01*
X127145127Y-105935127D01*
X127173337Y-105911976D01*
X127205519Y-105894774D01*
X127240438Y-105884181D01*
X127282895Y-105880000D01*
X128749105Y-105880000D01*
X128791562Y-105884181D01*
X128791562Y-105884181D01*
G37*
G36*
X117961062Y-103218181D02*
G01*
X117995981Y-103228774D01*
X118028163Y-103245976D01*
X118056373Y-103269127D01*
X118079524Y-103297337D01*
X118096726Y-103329519D01*
X118107319Y-103364438D01*
X118111500Y-103406895D01*
X118111500Y-104873105D01*
X118107319Y-104915562D01*
X118096726Y-104950481D01*
X118079524Y-104982663D01*
X118056373Y-105010873D01*
X118028163Y-105034024D01*
X117995981Y-105051226D01*
X117961062Y-105061819D01*
X117918605Y-105066000D01*
X116777395Y-105066000D01*
X116734938Y-105061819D01*
X116700019Y-105051226D01*
X116667837Y-105034024D01*
X116639627Y-105010873D01*
X116616476Y-104982663D01*
X116599274Y-104950481D01*
X116588681Y-104915562D01*
X116584500Y-104873105D01*
X116584500Y-103406895D01*
X116588681Y-103364438D01*
X116599274Y-103329519D01*
X116616476Y-103297337D01*
X116639627Y-103269127D01*
X116667837Y-103245976D01*
X116700019Y-103228774D01*
X116734938Y-103218181D01*
X116777395Y-103214000D01*
X117918605Y-103214000D01*
X117961062Y-103218181D01*
X117961062Y-103218181D01*
G37*
G36*
X120936062Y-103218181D02*
G01*
X120970981Y-103228774D01*
X121003163Y-103245976D01*
X121031373Y-103269127D01*
X121054524Y-103297337D01*
X121071726Y-103329519D01*
X121082319Y-103364438D01*
X121086500Y-103406895D01*
X121086500Y-104873105D01*
X121082319Y-104915562D01*
X121071726Y-104950481D01*
X121054524Y-104982663D01*
X121031373Y-105010873D01*
X121003163Y-105034024D01*
X120970981Y-105051226D01*
X120936062Y-105061819D01*
X120893605Y-105066000D01*
X119752395Y-105066000D01*
X119709938Y-105061819D01*
X119675019Y-105051226D01*
X119642837Y-105034024D01*
X119614627Y-105010873D01*
X119591476Y-104982663D01*
X119574274Y-104950481D01*
X119563681Y-104915562D01*
X119559500Y-104873105D01*
X119559500Y-103406895D01*
X119563681Y-103364438D01*
X119574274Y-103329519D01*
X119591476Y-103297337D01*
X119614627Y-103269127D01*
X119642837Y-103245976D01*
X119675019Y-103228774D01*
X119709938Y-103218181D01*
X119752395Y-103214000D01*
X120893605Y-103214000D01*
X120936062Y-103218181D01*
X120936062Y-103218181D01*
G37*
G36*
X124219562Y-103417181D02*
G01*
X124254481Y-103427774D01*
X124286663Y-103444976D01*
X124314873Y-103468127D01*
X124338024Y-103496337D01*
X124355226Y-103528519D01*
X124365819Y-103563438D01*
X124370000Y-103605895D01*
X124370000Y-104747105D01*
X124365819Y-104789562D01*
X124355226Y-104824481D01*
X124338024Y-104856663D01*
X124314873Y-104884873D01*
X124286663Y-104908024D01*
X124254481Y-104925226D01*
X124219562Y-104935819D01*
X124177105Y-104940000D01*
X122710895Y-104940000D01*
X122668438Y-104935819D01*
X122633519Y-104925226D01*
X122601337Y-104908024D01*
X122573127Y-104884873D01*
X122549976Y-104856663D01*
X122532774Y-104824481D01*
X122522181Y-104789562D01*
X122518000Y-104747105D01*
X122518000Y-103605895D01*
X122522181Y-103563438D01*
X122532774Y-103528519D01*
X122549976Y-103496337D01*
X122573127Y-103468127D01*
X122601337Y-103444976D01*
X122633519Y-103427774D01*
X122668438Y-103417181D01*
X122710895Y-103413000D01*
X124177105Y-103413000D01*
X124219562Y-103417181D01*
X124219562Y-103417181D01*
G37*
G36*
X128791562Y-102909181D02*
G01*
X128826481Y-102919774D01*
X128858663Y-102936976D01*
X128886873Y-102960127D01*
X128910024Y-102988337D01*
X128927226Y-103020519D01*
X128937819Y-103055438D01*
X128942000Y-103097895D01*
X128942000Y-104239105D01*
X128937819Y-104281562D01*
X128927226Y-104316481D01*
X128910024Y-104348663D01*
X128886873Y-104376873D01*
X128858663Y-104400024D01*
X128826481Y-104417226D01*
X128791562Y-104427819D01*
X128749105Y-104432000D01*
X127282895Y-104432000D01*
X127240438Y-104427819D01*
X127205519Y-104417226D01*
X127173337Y-104400024D01*
X127145127Y-104376873D01*
X127121976Y-104348663D01*
X127104774Y-104316481D01*
X127094181Y-104281562D01*
X127090000Y-104239105D01*
X127090000Y-103097895D01*
X127094181Y-103055438D01*
X127104774Y-103020519D01*
X127121976Y-102988337D01*
X127145127Y-102960127D01*
X127173337Y-102936976D01*
X127205519Y-102919774D01*
X127240438Y-102909181D01*
X127282895Y-102905000D01*
X128749105Y-102905000D01*
X128791562Y-102909181D01*
X128791562Y-102909181D01*
G37*
G36*
X116091562Y-99280181D02*
G01*
X116126481Y-99290774D01*
X116158663Y-99307976D01*
X116186873Y-99331127D01*
X116210024Y-99359337D01*
X116227226Y-99391519D01*
X116237819Y-99426438D01*
X116242000Y-99468895D01*
X116242000Y-100610105D01*
X116237819Y-100652562D01*
X116227226Y-100687481D01*
X116210024Y-100719663D01*
X116186873Y-100747873D01*
X116158663Y-100771024D01*
X116126481Y-100788226D01*
X116091562Y-100798819D01*
X116049105Y-100803000D01*
X114582895Y-100803000D01*
X114540438Y-100798819D01*
X114505519Y-100788226D01*
X114473337Y-100771024D01*
X114445127Y-100747873D01*
X114421976Y-100719663D01*
X114404774Y-100687481D01*
X114394181Y-100652562D01*
X114390000Y-100610105D01*
X114390000Y-99468895D01*
X114394181Y-99426438D01*
X114404774Y-99391519D01*
X114421976Y-99359337D01*
X114445127Y-99331127D01*
X114473337Y-99307976D01*
X114505519Y-99290774D01*
X114540438Y-99280181D01*
X114582895Y-99276000D01*
X116049105Y-99276000D01*
X116091562Y-99280181D01*
X116091562Y-99280181D01*
G37*
G36*
X122695562Y-99280181D02*
G01*
X122730481Y-99290774D01*
X122762663Y-99307976D01*
X122790873Y-99331127D01*
X122814024Y-99359337D01*
X122831226Y-99391519D01*
X122841819Y-99426438D01*
X122846000Y-99468895D01*
X122846000Y-100610105D01*
X122841819Y-100652562D01*
X122831226Y-100687481D01*
X122814024Y-100719663D01*
X122790873Y-100747873D01*
X122762663Y-100771024D01*
X122730481Y-100788226D01*
X122695562Y-100798819D01*
X122653105Y-100803000D01*
X121186895Y-100803000D01*
X121144438Y-100798819D01*
X121109519Y-100788226D01*
X121077337Y-100771024D01*
X121049127Y-100747873D01*
X121025976Y-100719663D01*
X121008774Y-100687481D01*
X120998181Y-100652562D01*
X120994000Y-100610105D01*
X120994000Y-99468895D01*
X120998181Y-99426438D01*
X121008774Y-99391519D01*
X121025976Y-99359337D01*
X121049127Y-99331127D01*
X121077337Y-99307976D01*
X121109519Y-99290774D01*
X121144438Y-99280181D01*
X121186895Y-99276000D01*
X122653105Y-99276000D01*
X122695562Y-99280181D01*
X122695562Y-99280181D01*
G37*
G36*
X156226488Y-98480176D02*
G01*
X155730099Y-98976565D01*
X154597314Y-97843780D01*
X155093703Y-97347391D01*
X156226488Y-98480176D01*
X156226488Y-98480176D01*
G37*
G36*
X147915722Y-95978381D02*
G01*
X147950641Y-95988974D01*
X147982823Y-96006176D01*
X148015797Y-96033237D01*
X148068829Y-96086269D01*
X148068835Y-96086274D01*
X148769726Y-96787165D01*
X148769731Y-96787171D01*
X148822763Y-96840203D01*
X148849824Y-96873177D01*
X148867026Y-96905359D01*
X148877619Y-96940278D01*
X148881195Y-96976595D01*
X148877619Y-97012912D01*
X148867026Y-97047831D01*
X148849824Y-97080013D01*
X148822763Y-97112987D01*
X148769731Y-97166019D01*
X148769726Y-97166025D01*
X147839025Y-98096726D01*
X147839019Y-98096731D01*
X147785987Y-98149763D01*
X147753013Y-98176824D01*
X147720831Y-98194026D01*
X147685912Y-98204619D01*
X147649595Y-98208195D01*
X147613278Y-98204619D01*
X147578359Y-98194026D01*
X147546177Y-98176824D01*
X147513203Y-98149763D01*
X147460171Y-98096731D01*
X147460165Y-98096726D01*
X146759274Y-97395835D01*
X146759269Y-97395829D01*
X146706237Y-97342797D01*
X146679176Y-97309823D01*
X146661974Y-97277641D01*
X146651381Y-97242722D01*
X146647805Y-97206405D01*
X146651381Y-97170088D01*
X146661974Y-97135169D01*
X146679176Y-97102987D01*
X146706237Y-97070013D01*
X146759269Y-97016981D01*
X146759274Y-97016975D01*
X147689975Y-96086274D01*
X147689981Y-96086269D01*
X147743013Y-96033237D01*
X147775987Y-96006176D01*
X147808169Y-95988974D01*
X147843088Y-95978381D01*
X147879405Y-95974805D01*
X147915722Y-95978381D01*
X147915722Y-95978381D01*
G37*
G36*
X157124514Y-97582151D02*
G01*
X156628125Y-98078540D01*
X155495340Y-96945755D01*
X155991729Y-96449366D01*
X157124514Y-97582151D01*
X157124514Y-97582151D01*
G37*
G36*
X122695562Y-96305181D02*
G01*
X122730481Y-96315774D01*
X122762663Y-96332976D01*
X122790873Y-96356127D01*
X122814024Y-96384337D01*
X122831226Y-96416519D01*
X122841819Y-96451438D01*
X122846000Y-96493895D01*
X122846000Y-97635105D01*
X122841819Y-97677562D01*
X122831226Y-97712481D01*
X122814024Y-97744663D01*
X122790873Y-97772873D01*
X122762663Y-97796024D01*
X122730481Y-97813226D01*
X122695562Y-97823819D01*
X122653105Y-97828000D01*
X121186895Y-97828000D01*
X121144438Y-97823819D01*
X121109519Y-97813226D01*
X121077337Y-97796024D01*
X121049127Y-97772873D01*
X121025976Y-97744663D01*
X121008774Y-97712481D01*
X120998181Y-97677562D01*
X120994000Y-97635105D01*
X120994000Y-96493895D01*
X120998181Y-96451438D01*
X121008774Y-96416519D01*
X121025976Y-96384337D01*
X121049127Y-96356127D01*
X121077337Y-96332976D01*
X121109519Y-96315774D01*
X121144438Y-96305181D01*
X121186895Y-96301000D01*
X122653105Y-96301000D01*
X122695562Y-96305181D01*
X122695562Y-96305181D01*
G37*
G36*
X116091562Y-96305181D02*
G01*
X116126481Y-96315774D01*
X116158663Y-96332976D01*
X116186873Y-96356127D01*
X116210024Y-96384337D01*
X116227226Y-96416519D01*
X116237819Y-96451438D01*
X116242000Y-96493895D01*
X116242000Y-97635105D01*
X116237819Y-97677562D01*
X116227226Y-97712481D01*
X116210024Y-97744663D01*
X116186873Y-97772873D01*
X116158663Y-97796024D01*
X116126481Y-97813226D01*
X116091562Y-97823819D01*
X116049105Y-97828000D01*
X114582895Y-97828000D01*
X114540438Y-97823819D01*
X114505519Y-97813226D01*
X114473337Y-97796024D01*
X114445127Y-97772873D01*
X114421976Y-97744663D01*
X114404774Y-97712481D01*
X114394181Y-97677562D01*
X114390000Y-97635105D01*
X114390000Y-96493895D01*
X114394181Y-96451438D01*
X114404774Y-96416519D01*
X114421976Y-96384337D01*
X114445127Y-96356127D01*
X114473337Y-96332976D01*
X114505519Y-96315774D01*
X114540438Y-96305181D01*
X114582895Y-96301000D01*
X116049105Y-96301000D01*
X116091562Y-96305181D01*
X116091562Y-96305181D01*
G37*
G36*
X158022540Y-96684125D02*
G01*
X157526151Y-97180514D01*
X156393366Y-96047729D01*
X156889755Y-95551340D01*
X158022540Y-96684125D01*
X158022540Y-96684125D01*
G37*
G36*
X158920565Y-95786099D02*
G01*
X158424176Y-96282488D01*
X157291391Y-95149703D01*
X157787780Y-94653314D01*
X158920565Y-95786099D01*
X158920565Y-95786099D01*
G37*
G36*
X145812080Y-93874739D02*
G01*
X145846999Y-93885332D01*
X145879181Y-93902534D01*
X145912155Y-93929595D01*
X145965187Y-93982627D01*
X145965193Y-93982632D01*
X146666084Y-94683523D01*
X146666089Y-94683529D01*
X146719121Y-94736561D01*
X146746182Y-94769535D01*
X146763384Y-94801717D01*
X146773977Y-94836636D01*
X146777553Y-94872953D01*
X146773977Y-94909270D01*
X146763384Y-94944189D01*
X146746182Y-94976371D01*
X146719121Y-95009345D01*
X146666089Y-95062377D01*
X146666084Y-95062383D01*
X145735383Y-95993084D01*
X145735377Y-95993089D01*
X145682345Y-96046121D01*
X145649371Y-96073182D01*
X145617189Y-96090384D01*
X145582270Y-96100977D01*
X145545953Y-96104553D01*
X145509636Y-96100977D01*
X145474717Y-96090384D01*
X145442535Y-96073182D01*
X145409561Y-96046121D01*
X145356529Y-95993089D01*
X145356523Y-95993084D01*
X144655632Y-95292193D01*
X144655627Y-95292187D01*
X144602595Y-95239155D01*
X144575534Y-95206181D01*
X144558332Y-95173999D01*
X144547739Y-95139080D01*
X144544163Y-95102763D01*
X144547739Y-95066446D01*
X144558332Y-95031527D01*
X144575534Y-94999345D01*
X144602595Y-94966371D01*
X144655627Y-94913339D01*
X144655632Y-94913333D01*
X145586333Y-93982632D01*
X145586339Y-93982627D01*
X145639371Y-93929595D01*
X145672345Y-93902534D01*
X145704527Y-93885332D01*
X145739446Y-93874739D01*
X145775763Y-93871163D01*
X145812080Y-93874739D01*
X145812080Y-93874739D01*
G37*
G36*
X116519000Y-94922000D02*
G01*
X114417000Y-94922000D01*
X114417000Y-93320000D01*
X116519000Y-93320000D01*
X116519000Y-94922000D01*
X116519000Y-94922000D01*
G37*
G36*
X151064609Y-93318297D02*
G01*
X150568220Y-93814686D01*
X149435435Y-92681901D01*
X149931824Y-92185512D01*
X151064609Y-93318297D01*
X151064609Y-93318297D01*
G37*
G36*
X122819000Y-93772000D02*
G01*
X120717000Y-93772000D01*
X120717000Y-89870000D01*
X122819000Y-89870000D01*
X122819000Y-93772000D01*
X122819000Y-93772000D01*
G37*
G36*
X151962634Y-92420271D02*
G01*
X151466245Y-92916660D01*
X150333460Y-91783875D01*
X150829849Y-91287486D01*
X151962634Y-92420271D01*
X151962634Y-92420271D01*
G37*
G36*
X138009722Y-90580881D02*
G01*
X138044641Y-90591474D01*
X138076823Y-90608676D01*
X138109797Y-90635737D01*
X138162829Y-90688769D01*
X138162835Y-90688774D01*
X138863726Y-91389665D01*
X138863731Y-91389671D01*
X138916763Y-91442703D01*
X138943824Y-91475677D01*
X138961026Y-91507859D01*
X138971619Y-91542778D01*
X138975195Y-91579095D01*
X138971619Y-91615412D01*
X138961026Y-91650331D01*
X138943824Y-91682513D01*
X138916763Y-91715487D01*
X138863731Y-91768519D01*
X138863726Y-91768525D01*
X137933025Y-92699226D01*
X137933019Y-92699231D01*
X137879987Y-92752263D01*
X137847013Y-92779324D01*
X137814831Y-92796526D01*
X137779912Y-92807119D01*
X137743595Y-92810695D01*
X137707278Y-92807119D01*
X137672359Y-92796526D01*
X137640177Y-92779324D01*
X137607203Y-92752263D01*
X137554171Y-92699231D01*
X137554165Y-92699226D01*
X136853274Y-91998335D01*
X136853269Y-91998329D01*
X136800237Y-91945297D01*
X136773176Y-91912323D01*
X136755974Y-91880141D01*
X136745381Y-91845222D01*
X136741805Y-91808905D01*
X136745381Y-91772588D01*
X136755974Y-91737669D01*
X136773176Y-91705487D01*
X136800237Y-91672513D01*
X136853269Y-91619481D01*
X136853274Y-91619475D01*
X137783975Y-90688774D01*
X137783981Y-90688769D01*
X137837013Y-90635737D01*
X137869987Y-90608676D01*
X137902169Y-90591474D01*
X137937088Y-90580881D01*
X137973405Y-90577305D01*
X138009722Y-90580881D01*
X138009722Y-90580881D01*
G37*
G36*
X131177999Y-91147737D02*
G01*
X131187608Y-91150652D01*
X131196472Y-91155390D01*
X131204237Y-91161763D01*
X131214448Y-91174206D01*
X131221378Y-91184575D01*
X131238705Y-91201902D01*
X131259080Y-91215515D01*
X131281720Y-91224891D01*
X131305753Y-91229671D01*
X131330257Y-91229670D01*
X131354290Y-91224888D01*
X131376929Y-91215510D01*
X131397302Y-91201895D01*
X131414629Y-91184568D01*
X131421558Y-91174198D01*
X131431763Y-91161763D01*
X131439528Y-91155390D01*
X131448392Y-91150652D01*
X131458001Y-91147737D01*
X131474140Y-91146148D01*
X131961861Y-91146148D01*
X131980199Y-91147954D01*
X131992450Y-91148556D01*
X132010869Y-91148556D01*
X132033149Y-91150750D01*
X132117233Y-91167476D01*
X132138660Y-91173976D01*
X132217858Y-91206780D01*
X132223303Y-91209691D01*
X132223309Y-91209693D01*
X132232169Y-91214429D01*
X132232173Y-91214432D01*
X132237614Y-91217340D01*
X132308899Y-91264971D01*
X132326204Y-91279172D01*
X132386828Y-91339796D01*
X132401029Y-91357101D01*
X132448660Y-91428386D01*
X132451568Y-91433827D01*
X132451571Y-91433831D01*
X132456307Y-91442691D01*
X132456309Y-91442697D01*
X132459220Y-91448142D01*
X132492024Y-91527340D01*
X132498524Y-91548767D01*
X132515250Y-91632851D01*
X132517444Y-91655131D01*
X132517444Y-91673550D01*
X132518046Y-91685801D01*
X132519852Y-91704139D01*
X132519852Y-92191862D01*
X132518046Y-92210199D01*
X132517444Y-92222450D01*
X132517444Y-92240869D01*
X132515250Y-92263149D01*
X132498524Y-92347233D01*
X132492024Y-92368660D01*
X132459220Y-92447858D01*
X132456309Y-92453303D01*
X132456307Y-92453309D01*
X132451571Y-92462169D01*
X132451568Y-92462173D01*
X132448660Y-92467614D01*
X132401029Y-92538899D01*
X132386828Y-92556204D01*
X132326204Y-92616828D01*
X132308899Y-92631029D01*
X132237614Y-92678660D01*
X132232173Y-92681568D01*
X132232169Y-92681571D01*
X132223309Y-92686307D01*
X132223303Y-92686309D01*
X132217858Y-92689220D01*
X132138660Y-92722024D01*
X132117233Y-92728524D01*
X132033149Y-92745250D01*
X132010869Y-92747444D01*
X131992450Y-92747444D01*
X131980199Y-92748046D01*
X131961862Y-92749852D01*
X131474140Y-92749852D01*
X131458001Y-92748263D01*
X131448392Y-92745348D01*
X131439528Y-92740610D01*
X131431763Y-92734237D01*
X131421552Y-92721794D01*
X131414622Y-92711425D01*
X131397295Y-92694098D01*
X131376920Y-92680485D01*
X131354280Y-92671109D01*
X131330247Y-92666329D01*
X131305743Y-92666330D01*
X131281710Y-92671112D01*
X131259071Y-92680490D01*
X131238698Y-92694105D01*
X131221371Y-92711432D01*
X131214442Y-92721802D01*
X131204237Y-92734237D01*
X131196472Y-92740610D01*
X131187608Y-92745348D01*
X131177999Y-92748263D01*
X131161860Y-92749852D01*
X130674138Y-92749852D01*
X130655801Y-92748046D01*
X130643550Y-92747444D01*
X130625131Y-92747444D01*
X130602851Y-92745250D01*
X130518767Y-92728524D01*
X130497340Y-92722024D01*
X130418142Y-92689220D01*
X130412697Y-92686309D01*
X130412691Y-92686307D01*
X130403831Y-92681571D01*
X130403827Y-92681568D01*
X130398386Y-92678660D01*
X130327101Y-92631029D01*
X130309796Y-92616828D01*
X130249172Y-92556204D01*
X130234971Y-92538899D01*
X130187340Y-92467614D01*
X130184432Y-92462173D01*
X130184429Y-92462169D01*
X130179693Y-92453309D01*
X130179691Y-92453303D01*
X130176780Y-92447858D01*
X130143976Y-92368660D01*
X130137476Y-92347233D01*
X130120750Y-92263149D01*
X130118556Y-92240869D01*
X130118556Y-92222450D01*
X130117954Y-92210199D01*
X130116148Y-92191862D01*
X130116148Y-91704139D01*
X130117954Y-91685801D01*
X130118556Y-91673550D01*
X130118556Y-91655131D01*
X130120750Y-91632851D01*
X130137476Y-91548767D01*
X130143976Y-91527340D01*
X130176780Y-91448142D01*
X130179691Y-91442697D01*
X130179693Y-91442691D01*
X130184429Y-91433831D01*
X130184432Y-91433827D01*
X130187340Y-91428386D01*
X130234971Y-91357101D01*
X130249172Y-91339796D01*
X130309796Y-91279172D01*
X130327101Y-91264971D01*
X130398386Y-91217340D01*
X130403827Y-91214432D01*
X130403831Y-91214429D01*
X130412691Y-91209693D01*
X130412697Y-91209691D01*
X130418142Y-91206780D01*
X130497340Y-91173976D01*
X130518767Y-91167476D01*
X130602851Y-91150750D01*
X130625131Y-91148556D01*
X130643550Y-91148556D01*
X130655801Y-91147954D01*
X130674139Y-91146148D01*
X131161860Y-91146148D01*
X131177999Y-91147737D01*
X131177999Y-91147737D01*
G37*
G36*
X126471642Y-91177781D02*
G01*
X126600536Y-91231171D01*
X126617416Y-91238163D01*
X126748608Y-91325822D01*
X126860178Y-91437392D01*
X126947329Y-91567824D01*
X126947838Y-91568586D01*
X127008219Y-91714358D01*
X127039000Y-91869107D01*
X127039000Y-92026893D01*
X127008219Y-92181642D01*
X126947838Y-92327414D01*
X126947837Y-92327416D01*
X126860178Y-92458608D01*
X126748608Y-92570178D01*
X126617416Y-92657837D01*
X126617415Y-92657838D01*
X126617414Y-92657838D01*
X126471642Y-92718219D01*
X126316893Y-92749000D01*
X126159107Y-92749000D01*
X126004358Y-92718219D01*
X125858586Y-92657838D01*
X125858585Y-92657838D01*
X125858584Y-92657837D01*
X125727392Y-92570178D01*
X125615822Y-92458608D01*
X125528163Y-92327416D01*
X125528162Y-92327414D01*
X125467781Y-92181642D01*
X125437000Y-92026893D01*
X125437000Y-91869107D01*
X125467781Y-91714358D01*
X125528162Y-91568586D01*
X125528671Y-91567824D01*
X125615822Y-91437392D01*
X125727392Y-91325822D01*
X125858584Y-91238163D01*
X125875464Y-91231171D01*
X126004358Y-91177781D01*
X126159107Y-91147000D01*
X126316893Y-91147000D01*
X126471642Y-91177781D01*
X126471642Y-91177781D01*
G37*
G36*
X116519000Y-92622000D02*
G01*
X114417000Y-92622000D01*
X114417000Y-91020000D01*
X116519000Y-91020000D01*
X116519000Y-92622000D01*
X116519000Y-92622000D01*
G37*
G36*
X137785077Y-85505723D02*
G01*
X137792092Y-85507851D01*
X137798558Y-85511308D01*
X137808992Y-85519870D01*
X138030829Y-85741707D01*
X138039391Y-85752141D01*
X138042848Y-85758607D01*
X138047379Y-85773544D01*
X138056757Y-85796183D01*
X138070371Y-85816557D01*
X138087698Y-85833884D01*
X138108073Y-85847497D01*
X138130709Y-85856873D01*
X138145645Y-85861404D01*
X138152112Y-85864861D01*
X138162546Y-85873423D01*
X138384383Y-86095260D01*
X138392945Y-86105694D01*
X138396402Y-86112161D01*
X138400933Y-86127097D01*
X138410310Y-86149736D01*
X138423924Y-86170110D01*
X138441251Y-86187437D01*
X138461626Y-86201051D01*
X138484262Y-86210427D01*
X138499199Y-86214958D01*
X138505665Y-86218415D01*
X138516099Y-86226977D01*
X138737936Y-86448814D01*
X138746498Y-86459248D01*
X138749955Y-86465714D01*
X138754486Y-86480651D01*
X138763864Y-86503290D01*
X138777478Y-86523664D01*
X138794805Y-86540991D01*
X138815180Y-86554604D01*
X138837816Y-86563980D01*
X138852752Y-86568511D01*
X138859219Y-86571968D01*
X138869653Y-86580530D01*
X139091490Y-86802367D01*
X139100052Y-86812801D01*
X139103509Y-86819267D01*
X139108040Y-86834204D01*
X139117418Y-86856843D01*
X139131032Y-86877217D01*
X139148359Y-86894544D01*
X139168734Y-86908157D01*
X139191369Y-86917533D01*
X139206306Y-86922064D01*
X139212772Y-86925521D01*
X139223206Y-86934083D01*
X139445043Y-87155920D01*
X139453605Y-87166354D01*
X139457062Y-87172821D01*
X139461593Y-87187757D01*
X139470970Y-87210396D01*
X139484584Y-87230770D01*
X139501911Y-87248097D01*
X139522286Y-87261711D01*
X139544922Y-87271087D01*
X139559859Y-87275618D01*
X139566325Y-87279075D01*
X139576759Y-87287637D01*
X139798596Y-87509474D01*
X139807158Y-87519908D01*
X139810615Y-87526374D01*
X139815146Y-87541311D01*
X139824524Y-87563950D01*
X139838138Y-87584324D01*
X139855465Y-87601651D01*
X139875840Y-87615264D01*
X139898476Y-87624640D01*
X139913412Y-87629171D01*
X139919879Y-87632628D01*
X139930313Y-87641190D01*
X140152150Y-87863027D01*
X140160712Y-87873461D01*
X140164169Y-87879927D01*
X140168700Y-87894864D01*
X140178078Y-87917503D01*
X140191692Y-87937877D01*
X140209019Y-87955204D01*
X140229394Y-87968817D01*
X140252029Y-87978193D01*
X140266966Y-87982724D01*
X140273432Y-87986181D01*
X140283866Y-87994743D01*
X140505703Y-88216580D01*
X140514265Y-88227014D01*
X140517722Y-88233481D01*
X140522253Y-88248417D01*
X140531630Y-88271056D01*
X140545244Y-88291430D01*
X140562571Y-88308757D01*
X140582946Y-88322371D01*
X140605583Y-88331747D01*
X140620519Y-88336278D01*
X140626986Y-88339735D01*
X140637420Y-88348297D01*
X140859257Y-88570134D01*
X140867819Y-88580568D01*
X140871276Y-88587034D01*
X140875807Y-88601971D01*
X140885185Y-88624610D01*
X140898799Y-88644984D01*
X140916126Y-88662311D01*
X140936501Y-88675924D01*
X140959136Y-88685300D01*
X140974073Y-88689831D01*
X140980539Y-88693288D01*
X140990973Y-88701850D01*
X141212810Y-88923687D01*
X141221372Y-88934121D01*
X141224829Y-88940588D01*
X141229360Y-88955524D01*
X141238737Y-88978163D01*
X141252351Y-88998537D01*
X141269678Y-89015864D01*
X141290053Y-89029478D01*
X141312689Y-89038854D01*
X141327626Y-89043385D01*
X141334092Y-89046842D01*
X141344526Y-89055404D01*
X141566363Y-89277241D01*
X141574925Y-89287675D01*
X141578382Y-89294141D01*
X141582913Y-89309078D01*
X141592291Y-89331717D01*
X141605905Y-89352091D01*
X141623232Y-89369418D01*
X141643607Y-89383031D01*
X141666243Y-89392407D01*
X141681179Y-89396938D01*
X141687646Y-89400395D01*
X141698080Y-89408957D01*
X141919917Y-89630794D01*
X141928479Y-89641228D01*
X141931936Y-89647694D01*
X141936467Y-89662631D01*
X141945845Y-89685270D01*
X141959459Y-89705644D01*
X141976786Y-89722971D01*
X141997161Y-89736584D01*
X142019796Y-89745960D01*
X142034733Y-89750491D01*
X142041199Y-89753948D01*
X142051633Y-89762510D01*
X142273470Y-89984347D01*
X142282032Y-89994781D01*
X142285489Y-90001248D01*
X142290020Y-90016184D01*
X142299397Y-90038823D01*
X142313011Y-90059197D01*
X142330338Y-90076524D01*
X142350713Y-90090138D01*
X142373349Y-90099514D01*
X142388286Y-90104045D01*
X142394752Y-90107502D01*
X142405186Y-90116064D01*
X142627023Y-90337901D01*
X142635585Y-90348335D01*
X142639042Y-90354801D01*
X142643573Y-90369738D01*
X142652951Y-90392377D01*
X142666565Y-90412751D01*
X142683892Y-90430078D01*
X142704267Y-90443691D01*
X142726903Y-90453067D01*
X142741839Y-90457598D01*
X142748306Y-90461055D01*
X142758740Y-90469617D01*
X142980577Y-90691454D01*
X142989139Y-90701888D01*
X142992596Y-90708355D01*
X142997127Y-90723291D01*
X143006504Y-90745930D01*
X143020118Y-90766304D01*
X143037445Y-90783631D01*
X143057820Y-90797245D01*
X143080456Y-90806621D01*
X143095393Y-90811152D01*
X143101859Y-90814609D01*
X143112293Y-90823171D01*
X143334130Y-91045008D01*
X143342692Y-91055442D01*
X143346149Y-91061908D01*
X143348277Y-91068923D01*
X143348995Y-91076218D01*
X143348277Y-91083513D01*
X143346149Y-91090528D01*
X143342692Y-91096994D01*
X143334130Y-91107428D01*
X142281443Y-92160115D01*
X142271009Y-92168677D01*
X142264543Y-92172134D01*
X142257528Y-92174262D01*
X142250233Y-92174980D01*
X142242938Y-92174262D01*
X142235923Y-92172134D01*
X142229457Y-92168677D01*
X142219023Y-92160115D01*
X141997186Y-91938278D01*
X141988624Y-91927844D01*
X141985167Y-91921377D01*
X141980636Y-91906441D01*
X141971259Y-91883802D01*
X141957645Y-91863428D01*
X141940318Y-91846101D01*
X141919943Y-91832487D01*
X141897307Y-91823111D01*
X141882370Y-91818580D01*
X141875904Y-91815123D01*
X141865470Y-91806561D01*
X141643633Y-91584724D01*
X141635071Y-91574290D01*
X141631614Y-91567824D01*
X141627083Y-91552887D01*
X141617705Y-91530248D01*
X141604091Y-91509874D01*
X141586764Y-91492547D01*
X141566389Y-91478934D01*
X141543753Y-91469558D01*
X141528817Y-91465027D01*
X141522350Y-91461570D01*
X141511916Y-91453008D01*
X141290079Y-91231171D01*
X141281517Y-91220737D01*
X141278060Y-91214270D01*
X141273529Y-91199334D01*
X141264152Y-91176695D01*
X141250538Y-91156321D01*
X141233211Y-91138994D01*
X141212836Y-91125380D01*
X141190200Y-91116004D01*
X141175263Y-91111473D01*
X141168797Y-91108016D01*
X141158363Y-91099454D01*
X140936526Y-90877617D01*
X140927964Y-90867183D01*
X140924507Y-90860717D01*
X140919976Y-90845780D01*
X140910598Y-90823141D01*
X140896984Y-90802767D01*
X140879657Y-90785440D01*
X140859282Y-90771827D01*
X140836647Y-90762451D01*
X140821710Y-90757920D01*
X140815244Y-90754463D01*
X140804810Y-90745901D01*
X140582973Y-90524064D01*
X140574411Y-90513630D01*
X140570954Y-90507164D01*
X140566423Y-90492227D01*
X140557045Y-90469588D01*
X140543431Y-90449214D01*
X140526104Y-90431887D01*
X140505729Y-90418274D01*
X140483093Y-90408898D01*
X140468157Y-90404367D01*
X140461690Y-90400910D01*
X140451256Y-90392348D01*
X140229419Y-90170511D01*
X140220857Y-90160077D01*
X140217400Y-90153610D01*
X140212869Y-90138674D01*
X140203492Y-90116035D01*
X140189878Y-90095661D01*
X140172551Y-90078334D01*
X140152176Y-90064720D01*
X140129540Y-90055344D01*
X140114603Y-90050813D01*
X140108137Y-90047356D01*
X140097703Y-90038794D01*
X139875866Y-89816957D01*
X139867304Y-89806523D01*
X139863847Y-89800057D01*
X139859316Y-89785120D01*
X139849938Y-89762481D01*
X139836324Y-89742107D01*
X139818997Y-89724780D01*
X139798622Y-89711167D01*
X139775987Y-89701791D01*
X139761050Y-89697260D01*
X139754584Y-89693803D01*
X139744150Y-89685241D01*
X139522313Y-89463404D01*
X139513751Y-89452970D01*
X139510294Y-89446503D01*
X139505763Y-89431567D01*
X139496386Y-89408928D01*
X139482772Y-89388554D01*
X139465445Y-89371227D01*
X139445070Y-89357613D01*
X139422433Y-89348237D01*
X139407497Y-89343706D01*
X139401030Y-89340249D01*
X139390596Y-89331687D01*
X139168759Y-89109850D01*
X139160197Y-89099416D01*
X139156740Y-89092950D01*
X139152209Y-89078013D01*
X139142831Y-89055374D01*
X139129217Y-89035000D01*
X139111890Y-89017673D01*
X139091515Y-89004060D01*
X139068880Y-88994684D01*
X139053943Y-88990153D01*
X139047477Y-88986696D01*
X139037043Y-88978134D01*
X138815206Y-88756297D01*
X138806644Y-88745863D01*
X138803187Y-88739397D01*
X138798656Y-88724460D01*
X138789278Y-88701821D01*
X138775664Y-88681447D01*
X138758337Y-88664120D01*
X138737962Y-88650507D01*
X138715326Y-88641131D01*
X138700390Y-88636600D01*
X138693923Y-88633143D01*
X138683489Y-88624581D01*
X138461652Y-88402744D01*
X138453090Y-88392310D01*
X138449633Y-88385843D01*
X138445102Y-88370907D01*
X138435725Y-88348268D01*
X138422111Y-88327894D01*
X138404784Y-88310567D01*
X138384409Y-88296953D01*
X138361773Y-88287577D01*
X138346836Y-88283046D01*
X138340370Y-88279589D01*
X138329936Y-88271027D01*
X138108099Y-88049190D01*
X138099537Y-88038756D01*
X138096080Y-88032290D01*
X138091549Y-88017353D01*
X138082171Y-87994714D01*
X138068557Y-87974340D01*
X138051230Y-87957013D01*
X138030855Y-87943400D01*
X138008220Y-87934024D01*
X137993283Y-87929493D01*
X137986817Y-87926036D01*
X137976383Y-87917474D01*
X137754546Y-87695637D01*
X137745984Y-87685203D01*
X137742527Y-87678737D01*
X137737996Y-87663800D01*
X137728618Y-87641161D01*
X137715004Y-87620787D01*
X137697677Y-87603460D01*
X137677302Y-87589847D01*
X137654666Y-87580471D01*
X137639730Y-87575940D01*
X137633263Y-87572483D01*
X137622829Y-87563921D01*
X137400992Y-87342084D01*
X137392430Y-87331650D01*
X137388973Y-87325183D01*
X137384442Y-87310247D01*
X137375065Y-87287608D01*
X137361451Y-87267234D01*
X137344124Y-87249907D01*
X137323749Y-87236293D01*
X137301113Y-87226917D01*
X137286176Y-87222386D01*
X137279710Y-87218929D01*
X137269276Y-87210367D01*
X137047439Y-86988530D01*
X137038877Y-86978096D01*
X137035420Y-86971630D01*
X137030889Y-86956693D01*
X137021511Y-86934054D01*
X137007897Y-86913680D01*
X136990570Y-86896353D01*
X136970195Y-86882740D01*
X136947559Y-86873364D01*
X136932623Y-86868833D01*
X136926156Y-86865376D01*
X136915722Y-86856814D01*
X136693885Y-86634977D01*
X136685323Y-86624543D01*
X136681866Y-86618077D01*
X136679738Y-86611062D01*
X136679020Y-86603767D01*
X136679738Y-86596472D01*
X136681866Y-86589457D01*
X136685323Y-86582991D01*
X136693885Y-86572557D01*
X137746572Y-85519870D01*
X137757006Y-85511308D01*
X137763472Y-85507851D01*
X137770487Y-85505723D01*
X137777782Y-85505005D01*
X137785077Y-85505723D01*
X137785077Y-85505723D01*
G37*
G36*
X150265513Y-85505723D02*
G01*
X150272528Y-85507851D01*
X150278994Y-85511308D01*
X150289428Y-85519870D01*
X151342115Y-86572557D01*
X151350677Y-86582991D01*
X151354134Y-86589457D01*
X151356262Y-86596472D01*
X151356980Y-86603767D01*
X151356262Y-86611062D01*
X151354134Y-86618077D01*
X151350677Y-86624543D01*
X151342115Y-86634977D01*
X151120278Y-86856814D01*
X151109844Y-86865376D01*
X151103377Y-86868833D01*
X151088441Y-86873364D01*
X151065802Y-86882741D01*
X151045428Y-86896355D01*
X151028101Y-86913682D01*
X151014487Y-86934057D01*
X151005111Y-86956693D01*
X151000580Y-86971630D01*
X150997123Y-86978096D01*
X150988561Y-86988530D01*
X150766724Y-87210367D01*
X150756290Y-87218929D01*
X150749824Y-87222386D01*
X150734887Y-87226917D01*
X150712248Y-87236295D01*
X150691874Y-87249909D01*
X150674547Y-87267236D01*
X150660934Y-87287611D01*
X150651558Y-87310247D01*
X150647027Y-87325183D01*
X150643570Y-87331650D01*
X150635008Y-87342084D01*
X150413171Y-87563921D01*
X150402737Y-87572483D01*
X150396270Y-87575940D01*
X150381334Y-87580471D01*
X150358695Y-87589848D01*
X150338321Y-87603462D01*
X150320994Y-87620789D01*
X150307380Y-87641164D01*
X150298004Y-87663800D01*
X150293473Y-87678737D01*
X150290016Y-87685203D01*
X150281454Y-87695637D01*
X150059617Y-87917474D01*
X150049183Y-87926036D01*
X150042717Y-87929493D01*
X150027780Y-87934024D01*
X150005141Y-87943402D01*
X149984767Y-87957016D01*
X149967440Y-87974343D01*
X149953827Y-87994718D01*
X149944451Y-88017353D01*
X149939920Y-88032290D01*
X149936463Y-88038756D01*
X149927901Y-88049190D01*
X149706064Y-88271027D01*
X149695630Y-88279589D01*
X149689164Y-88283046D01*
X149674227Y-88287577D01*
X149651588Y-88296955D01*
X149631214Y-88310569D01*
X149613887Y-88327896D01*
X149600274Y-88348271D01*
X149590898Y-88370907D01*
X149586367Y-88385843D01*
X149582910Y-88392310D01*
X149574348Y-88402744D01*
X149352511Y-88624581D01*
X149342077Y-88633143D01*
X149335610Y-88636600D01*
X149320674Y-88641131D01*
X149298035Y-88650508D01*
X149277661Y-88664122D01*
X149260334Y-88681449D01*
X149246720Y-88701824D01*
X149237344Y-88724460D01*
X149232813Y-88739397D01*
X149229356Y-88745863D01*
X149220794Y-88756297D01*
X148998957Y-88978134D01*
X148988523Y-88986696D01*
X148982057Y-88990153D01*
X148967120Y-88994684D01*
X148944481Y-89004062D01*
X148924107Y-89017676D01*
X148906780Y-89035003D01*
X148893167Y-89055378D01*
X148883791Y-89078013D01*
X148879260Y-89092950D01*
X148875803Y-89099416D01*
X148867241Y-89109850D01*
X148645404Y-89331687D01*
X148634970Y-89340249D01*
X148628503Y-89343706D01*
X148613567Y-89348237D01*
X148590928Y-89357614D01*
X148570554Y-89371228D01*
X148553227Y-89388555D01*
X148539613Y-89408930D01*
X148530237Y-89431567D01*
X148525706Y-89446503D01*
X148522249Y-89452970D01*
X148513687Y-89463404D01*
X148291850Y-89685241D01*
X148281416Y-89693803D01*
X148274950Y-89697260D01*
X148260013Y-89701791D01*
X148237374Y-89711169D01*
X148217000Y-89724783D01*
X148199673Y-89742110D01*
X148186060Y-89762485D01*
X148176684Y-89785120D01*
X148172153Y-89800057D01*
X148168696Y-89806523D01*
X148160134Y-89816957D01*
X147938297Y-90038794D01*
X147927863Y-90047356D01*
X147921397Y-90050813D01*
X147906460Y-90055344D01*
X147883821Y-90064722D01*
X147863447Y-90078336D01*
X147846120Y-90095663D01*
X147832507Y-90116038D01*
X147823131Y-90138674D01*
X147818600Y-90153610D01*
X147815143Y-90160077D01*
X147806581Y-90170511D01*
X147584744Y-90392348D01*
X147574310Y-90400910D01*
X147567843Y-90404367D01*
X147552907Y-90408898D01*
X147530268Y-90418275D01*
X147509894Y-90431889D01*
X147492567Y-90449216D01*
X147478953Y-90469591D01*
X147469577Y-90492227D01*
X147465046Y-90507164D01*
X147461589Y-90513630D01*
X147453027Y-90524064D01*
X147231190Y-90745901D01*
X147220756Y-90754463D01*
X147214290Y-90757920D01*
X147199353Y-90762451D01*
X147176714Y-90771829D01*
X147156340Y-90785443D01*
X147139013Y-90802770D01*
X147125400Y-90823145D01*
X147116024Y-90845780D01*
X147111493Y-90860717D01*
X147108036Y-90867183D01*
X147099474Y-90877617D01*
X146877637Y-91099454D01*
X146867203Y-91108016D01*
X146860737Y-91111473D01*
X146845800Y-91116004D01*
X146823161Y-91125382D01*
X146802787Y-91138996D01*
X146785460Y-91156323D01*
X146771847Y-91176698D01*
X146762471Y-91199334D01*
X146757940Y-91214270D01*
X146754483Y-91220737D01*
X146745921Y-91231171D01*
X146524084Y-91453008D01*
X146513650Y-91461570D01*
X146507183Y-91465027D01*
X146492247Y-91469558D01*
X146469608Y-91478935D01*
X146449234Y-91492549D01*
X146431907Y-91509876D01*
X146418293Y-91530251D01*
X146408917Y-91552887D01*
X146404386Y-91567824D01*
X146400929Y-91574290D01*
X146392367Y-91584724D01*
X146170530Y-91806561D01*
X146160096Y-91815123D01*
X146153630Y-91818580D01*
X146138693Y-91823111D01*
X146116054Y-91832489D01*
X146095680Y-91846103D01*
X146078353Y-91863430D01*
X146064740Y-91883805D01*
X146055364Y-91906441D01*
X146050833Y-91921377D01*
X146047376Y-91927844D01*
X146038814Y-91938278D01*
X145816977Y-92160115D01*
X145806543Y-92168677D01*
X145800077Y-92172134D01*
X145793062Y-92174262D01*
X145785767Y-92174980D01*
X145778472Y-92174262D01*
X145771457Y-92172134D01*
X145764991Y-92168677D01*
X145754557Y-92160115D01*
X144701870Y-91107428D01*
X144693308Y-91096994D01*
X144689851Y-91090528D01*
X144687723Y-91083513D01*
X144687005Y-91076218D01*
X144687723Y-91068923D01*
X144689851Y-91061908D01*
X144693308Y-91055442D01*
X144701870Y-91045008D01*
X144923707Y-90823171D01*
X144934141Y-90814609D01*
X144940607Y-90811152D01*
X144955544Y-90806621D01*
X144978183Y-90797243D01*
X144998557Y-90783629D01*
X145015884Y-90766302D01*
X145029497Y-90745927D01*
X145038873Y-90723291D01*
X145043404Y-90708355D01*
X145046861Y-90701888D01*
X145055423Y-90691454D01*
X145277260Y-90469617D01*
X145287694Y-90461055D01*
X145294161Y-90457598D01*
X145309097Y-90453067D01*
X145331736Y-90443690D01*
X145352110Y-90430076D01*
X145369437Y-90412749D01*
X145383051Y-90392374D01*
X145392427Y-90369738D01*
X145396958Y-90354801D01*
X145400415Y-90348335D01*
X145408977Y-90337901D01*
X145630814Y-90116064D01*
X145641248Y-90107502D01*
X145647714Y-90104045D01*
X145662651Y-90099514D01*
X145685290Y-90090136D01*
X145705664Y-90076522D01*
X145722991Y-90059195D01*
X145736604Y-90038820D01*
X145745980Y-90016184D01*
X145750511Y-90001248D01*
X145753968Y-89994781D01*
X145762530Y-89984347D01*
X145984367Y-89762510D01*
X145994801Y-89753948D01*
X146001267Y-89750491D01*
X146016204Y-89745960D01*
X146038843Y-89736582D01*
X146059217Y-89722968D01*
X146076544Y-89705641D01*
X146090157Y-89685266D01*
X146099533Y-89662631D01*
X146104064Y-89647694D01*
X146107521Y-89641228D01*
X146116083Y-89630794D01*
X146337920Y-89408957D01*
X146348354Y-89400395D01*
X146354821Y-89396938D01*
X146369757Y-89392407D01*
X146392396Y-89383030D01*
X146412770Y-89369416D01*
X146430097Y-89352089D01*
X146443711Y-89331714D01*
X146453087Y-89309078D01*
X146457618Y-89294141D01*
X146461075Y-89287675D01*
X146469637Y-89277241D01*
X146691474Y-89055404D01*
X146701908Y-89046842D01*
X146708374Y-89043385D01*
X146723311Y-89038854D01*
X146745950Y-89029476D01*
X146766324Y-89015862D01*
X146783651Y-88998535D01*
X146797264Y-88978160D01*
X146806640Y-88955524D01*
X146811171Y-88940588D01*
X146814628Y-88934121D01*
X146823190Y-88923687D01*
X147045027Y-88701850D01*
X147055461Y-88693288D01*
X147061927Y-88689831D01*
X147076864Y-88685300D01*
X147099503Y-88675922D01*
X147119877Y-88662308D01*
X147137204Y-88644981D01*
X147150817Y-88624606D01*
X147160193Y-88601971D01*
X147164724Y-88587034D01*
X147168181Y-88580568D01*
X147176743Y-88570134D01*
X147398580Y-88348297D01*
X147409014Y-88339735D01*
X147415481Y-88336278D01*
X147430417Y-88331747D01*
X147453056Y-88322370D01*
X147473430Y-88308756D01*
X147490757Y-88291429D01*
X147504371Y-88271054D01*
X147513747Y-88248417D01*
X147518278Y-88233481D01*
X147521735Y-88227014D01*
X147530297Y-88216580D01*
X147752134Y-87994743D01*
X147762568Y-87986181D01*
X147769034Y-87982724D01*
X147783971Y-87978193D01*
X147806610Y-87968815D01*
X147826984Y-87955201D01*
X147844311Y-87937874D01*
X147857924Y-87917499D01*
X147867300Y-87894864D01*
X147871831Y-87879927D01*
X147875288Y-87873461D01*
X147883850Y-87863027D01*
X148105687Y-87641190D01*
X148116121Y-87632628D01*
X148122588Y-87629171D01*
X148137524Y-87624640D01*
X148160163Y-87615263D01*
X148180537Y-87601649D01*
X148197864Y-87584322D01*
X148211478Y-87563947D01*
X148220854Y-87541311D01*
X148225385Y-87526374D01*
X148228842Y-87519908D01*
X148237404Y-87509474D01*
X148459241Y-87287637D01*
X148469675Y-87279075D01*
X148476141Y-87275618D01*
X148491078Y-87271087D01*
X148513717Y-87261709D01*
X148534091Y-87248095D01*
X148551418Y-87230768D01*
X148565031Y-87210393D01*
X148574407Y-87187757D01*
X148578938Y-87172821D01*
X148582395Y-87166354D01*
X148590957Y-87155920D01*
X148812794Y-86934083D01*
X148823228Y-86925521D01*
X148829694Y-86922064D01*
X148844631Y-86917533D01*
X148867270Y-86908155D01*
X148887644Y-86894541D01*
X148904971Y-86877214D01*
X148918584Y-86856839D01*
X148927960Y-86834204D01*
X148932491Y-86819267D01*
X148935948Y-86812801D01*
X148944510Y-86802367D01*
X149166347Y-86580530D01*
X149176781Y-86571968D01*
X149183248Y-86568511D01*
X149198184Y-86563980D01*
X149220823Y-86554603D01*
X149241197Y-86540989D01*
X149258524Y-86523662D01*
X149272138Y-86503287D01*
X149281514Y-86480651D01*
X149286045Y-86465714D01*
X149289502Y-86459248D01*
X149298064Y-86448814D01*
X149519901Y-86226977D01*
X149530335Y-86218415D01*
X149536801Y-86214958D01*
X149551738Y-86210427D01*
X149574377Y-86201049D01*
X149594751Y-86187435D01*
X149612078Y-86170108D01*
X149625691Y-86149733D01*
X149635067Y-86127097D01*
X149639598Y-86112161D01*
X149643055Y-86105694D01*
X149651617Y-86095260D01*
X149873454Y-85873423D01*
X149883888Y-85864861D01*
X149890355Y-85861404D01*
X149905291Y-85856873D01*
X149927930Y-85847496D01*
X149948304Y-85833882D01*
X149965631Y-85816555D01*
X149979245Y-85796180D01*
X149988621Y-85773544D01*
X149993152Y-85758607D01*
X149996609Y-85752141D01*
X150005171Y-85741707D01*
X150227008Y-85519870D01*
X150237442Y-85511308D01*
X150243908Y-85507851D01*
X150250923Y-85505723D01*
X150258218Y-85505005D01*
X150265513Y-85505723D01*
X150265513Y-85505723D01*
G37*
G36*
X152860660Y-91522245D02*
G01*
X152364271Y-92018634D01*
X151231486Y-90885849D01*
X151727875Y-90389460D01*
X152860660Y-91522245D01*
X152860660Y-91522245D01*
G37*
G36*
X158636562Y-90009181D02*
G01*
X158671481Y-90019774D01*
X158703663Y-90036976D01*
X158731873Y-90060127D01*
X158755024Y-90088337D01*
X158772226Y-90120519D01*
X158782819Y-90155438D01*
X158787000Y-90197895D01*
X158787000Y-91339105D01*
X158782819Y-91381562D01*
X158772226Y-91416481D01*
X158755024Y-91448663D01*
X158731873Y-91476873D01*
X158703663Y-91500024D01*
X158671481Y-91517226D01*
X158636562Y-91527819D01*
X158594105Y-91532000D01*
X157127895Y-91532000D01*
X157085438Y-91527819D01*
X157050519Y-91517226D01*
X157018337Y-91500024D01*
X156990127Y-91476873D01*
X156966976Y-91448663D01*
X156949774Y-91416481D01*
X156939181Y-91381562D01*
X156935000Y-91339105D01*
X156935000Y-90197895D01*
X156939181Y-90155438D01*
X156949774Y-90120519D01*
X156966976Y-90088337D01*
X156990127Y-90060127D01*
X157018337Y-90036976D01*
X157050519Y-90019774D01*
X157085438Y-90009181D01*
X157127895Y-90005000D01*
X158594105Y-90005000D01*
X158636562Y-90009181D01*
X158636562Y-90009181D01*
G37*
G36*
X153758686Y-90624220D02*
G01*
X153262297Y-91120609D01*
X152129512Y-89987824D01*
X152625901Y-89491435D01*
X153758686Y-90624220D01*
X153758686Y-90624220D01*
G37*
G36*
X135906080Y-88477239D02*
G01*
X135940999Y-88487832D01*
X135973181Y-88505034D01*
X136006155Y-88532095D01*
X136059187Y-88585127D01*
X136059193Y-88585132D01*
X136760084Y-89286023D01*
X136760089Y-89286029D01*
X136813121Y-89339061D01*
X136840182Y-89372035D01*
X136857384Y-89404217D01*
X136867977Y-89439136D01*
X136871553Y-89475453D01*
X136867977Y-89511770D01*
X136857384Y-89546689D01*
X136840182Y-89578871D01*
X136813121Y-89611845D01*
X136760089Y-89664877D01*
X136760084Y-89664883D01*
X135829383Y-90595584D01*
X135829377Y-90595589D01*
X135776345Y-90648621D01*
X135743371Y-90675682D01*
X135711189Y-90692884D01*
X135676270Y-90703477D01*
X135639953Y-90707053D01*
X135603636Y-90703477D01*
X135568717Y-90692884D01*
X135536535Y-90675682D01*
X135503561Y-90648621D01*
X135450529Y-90595589D01*
X135450523Y-90595584D01*
X134749632Y-89894693D01*
X134749627Y-89894687D01*
X134696595Y-89841655D01*
X134669534Y-89808681D01*
X134652332Y-89776499D01*
X134641739Y-89741580D01*
X134638163Y-89705263D01*
X134641739Y-89668946D01*
X134652332Y-89634027D01*
X134669534Y-89601845D01*
X134696595Y-89568871D01*
X134749627Y-89515839D01*
X134749632Y-89515833D01*
X135680333Y-88585132D01*
X135680339Y-88585127D01*
X135733371Y-88532095D01*
X135766345Y-88505034D01*
X135798527Y-88487832D01*
X135833446Y-88477239D01*
X135869763Y-88473663D01*
X135906080Y-88477239D01*
X135906080Y-88477239D01*
G37*
G36*
X116519000Y-90322000D02*
G01*
X114417000Y-90322000D01*
X114417000Y-88720000D01*
X116519000Y-88720000D01*
X116519000Y-90322000D01*
X116519000Y-90322000D01*
G37*
G36*
X158636562Y-87034181D02*
G01*
X158671481Y-87044774D01*
X158703663Y-87061976D01*
X158731873Y-87085127D01*
X158755024Y-87113337D01*
X158772226Y-87145519D01*
X158782819Y-87180438D01*
X158787000Y-87222895D01*
X158787000Y-88364105D01*
X158782819Y-88406562D01*
X158772226Y-88441481D01*
X158755024Y-88473663D01*
X158731873Y-88501873D01*
X158703663Y-88525024D01*
X158671481Y-88542226D01*
X158636562Y-88552819D01*
X158594105Y-88557000D01*
X157127895Y-88557000D01*
X157085438Y-88552819D01*
X157050519Y-88542226D01*
X157018337Y-88525024D01*
X156990127Y-88501873D01*
X156966976Y-88473663D01*
X156949774Y-88441481D01*
X156939181Y-88406562D01*
X156935000Y-88364105D01*
X156935000Y-87222895D01*
X156939181Y-87180438D01*
X156949774Y-87145519D01*
X156966976Y-87113337D01*
X156990127Y-87085127D01*
X157018337Y-87061976D01*
X157050519Y-87044774D01*
X157085438Y-87034181D01*
X157127895Y-87030000D01*
X158594105Y-87030000D01*
X158636562Y-87034181D01*
X158636562Y-87034181D01*
G37*
G36*
X153837270Y-85001023D02*
G01*
X153872189Y-85011616D01*
X153904371Y-85028818D01*
X153937345Y-85055879D01*
X153990377Y-85108911D01*
X153990383Y-85108916D01*
X154921084Y-86039617D01*
X154921089Y-86039623D01*
X154974121Y-86092655D01*
X155001182Y-86125629D01*
X155018384Y-86157811D01*
X155028977Y-86192730D01*
X155032553Y-86229047D01*
X155028977Y-86265364D01*
X155018384Y-86300283D01*
X155001182Y-86332465D01*
X154974121Y-86365439D01*
X154921089Y-86418471D01*
X154921084Y-86418477D01*
X154220193Y-87119368D01*
X154220187Y-87119373D01*
X154167155Y-87172405D01*
X154134181Y-87199466D01*
X154101999Y-87216668D01*
X154067080Y-87227261D01*
X154030763Y-87230837D01*
X153994446Y-87227261D01*
X153959527Y-87216668D01*
X153927345Y-87199466D01*
X153894371Y-87172405D01*
X153841339Y-87119373D01*
X153841333Y-87119368D01*
X152910632Y-86188667D01*
X152910627Y-86188661D01*
X152857595Y-86135629D01*
X152830534Y-86102655D01*
X152813332Y-86070473D01*
X152802739Y-86035554D01*
X152799163Y-85999237D01*
X152802739Y-85962920D01*
X152813332Y-85928001D01*
X152830534Y-85895819D01*
X152857595Y-85862845D01*
X152910627Y-85809813D01*
X152910632Y-85809807D01*
X153611523Y-85108916D01*
X153611529Y-85108911D01*
X153664561Y-85055879D01*
X153697535Y-85028818D01*
X153729717Y-85011616D01*
X153764636Y-85001023D01*
X153800953Y-84997447D01*
X153837270Y-85001023D01*
X153837270Y-85001023D01*
G37*
G36*
X116091562Y-84294181D02*
G01*
X116126481Y-84304774D01*
X116158663Y-84321976D01*
X116186873Y-84345127D01*
X116210024Y-84373337D01*
X116227226Y-84405519D01*
X116237819Y-84440438D01*
X116242000Y-84482895D01*
X116242000Y-85624105D01*
X116237819Y-85666562D01*
X116227226Y-85701481D01*
X116210024Y-85733663D01*
X116186873Y-85761873D01*
X116158663Y-85785024D01*
X116126481Y-85802226D01*
X116091562Y-85812819D01*
X116049105Y-85817000D01*
X114582895Y-85817000D01*
X114540438Y-85812819D01*
X114505519Y-85802226D01*
X114473337Y-85785024D01*
X114445127Y-85761873D01*
X114421976Y-85733663D01*
X114404774Y-85701481D01*
X114394181Y-85666562D01*
X114390000Y-85624105D01*
X114390000Y-84482895D01*
X114394181Y-84440438D01*
X114404774Y-84405519D01*
X114421976Y-84373337D01*
X114445127Y-84345127D01*
X114473337Y-84321976D01*
X114505519Y-84304774D01*
X114540438Y-84294181D01*
X114582895Y-84290000D01*
X116049105Y-84290000D01*
X116091562Y-84294181D01*
X116091562Y-84294181D01*
G37*
G36*
X122695562Y-84294181D02*
G01*
X122730481Y-84304774D01*
X122762663Y-84321976D01*
X122790873Y-84345127D01*
X122814024Y-84373337D01*
X122831226Y-84405519D01*
X122841819Y-84440438D01*
X122846000Y-84482895D01*
X122846000Y-85624105D01*
X122841819Y-85666562D01*
X122831226Y-85701481D01*
X122814024Y-85733663D01*
X122790873Y-85761873D01*
X122762663Y-85785024D01*
X122730481Y-85802226D01*
X122695562Y-85812819D01*
X122653105Y-85817000D01*
X121186895Y-85817000D01*
X121144438Y-85812819D01*
X121109519Y-85802226D01*
X121077337Y-85785024D01*
X121049127Y-85761873D01*
X121025976Y-85733663D01*
X121008774Y-85701481D01*
X120998181Y-85666562D01*
X120994000Y-85624105D01*
X120994000Y-84482895D01*
X120998181Y-84440438D01*
X121008774Y-84405519D01*
X121025976Y-84373337D01*
X121049127Y-84345127D01*
X121077337Y-84321976D01*
X121109519Y-84304774D01*
X121144438Y-84294181D01*
X121186895Y-84290000D01*
X122653105Y-84290000D01*
X122695562Y-84294181D01*
X122695562Y-84294181D01*
G37*
G36*
X155940912Y-82897381D02*
G01*
X155975831Y-82907974D01*
X156008013Y-82925176D01*
X156040987Y-82952237D01*
X156094019Y-83005269D01*
X156094025Y-83005274D01*
X157024726Y-83935975D01*
X157024731Y-83935981D01*
X157077763Y-83989013D01*
X157104824Y-84021987D01*
X157122026Y-84054169D01*
X157132619Y-84089088D01*
X157136195Y-84125405D01*
X157132619Y-84161722D01*
X157122026Y-84196641D01*
X157104824Y-84228823D01*
X157077763Y-84261797D01*
X157024731Y-84314829D01*
X157024726Y-84314835D01*
X156323835Y-85015726D01*
X156323829Y-85015731D01*
X156270797Y-85068763D01*
X156237823Y-85095824D01*
X156205641Y-85113026D01*
X156170722Y-85123619D01*
X156134405Y-85127195D01*
X156098088Y-85123619D01*
X156063169Y-85113026D01*
X156030987Y-85095824D01*
X155998013Y-85068763D01*
X155944981Y-85015731D01*
X155944975Y-85015726D01*
X155014274Y-84085025D01*
X155014269Y-84085019D01*
X154961237Y-84031987D01*
X154934176Y-83999013D01*
X154916974Y-83966831D01*
X154906381Y-83931912D01*
X154902805Y-83895595D01*
X154906381Y-83859278D01*
X154916974Y-83824359D01*
X154934176Y-83792177D01*
X154961237Y-83759203D01*
X155014269Y-83706171D01*
X155014274Y-83706165D01*
X155715165Y-83005274D01*
X155715171Y-83005269D01*
X155768203Y-82952237D01*
X155801177Y-82925176D01*
X155833359Y-82907974D01*
X155868278Y-82897381D01*
X155904595Y-82893805D01*
X155940912Y-82897381D01*
X155940912Y-82897381D01*
G37*
G36*
X145793062Y-77497738D02*
G01*
X145800077Y-77499866D01*
X145806543Y-77503323D01*
X145816977Y-77511885D01*
X146038814Y-77733722D01*
X146047376Y-77744156D01*
X146050833Y-77750623D01*
X146055364Y-77765559D01*
X146064741Y-77788198D01*
X146078355Y-77808572D01*
X146095682Y-77825899D01*
X146116057Y-77839513D01*
X146138693Y-77848889D01*
X146153630Y-77853420D01*
X146160096Y-77856877D01*
X146170530Y-77865439D01*
X146392367Y-78087276D01*
X146400929Y-78097710D01*
X146404386Y-78104176D01*
X146408917Y-78119113D01*
X146418295Y-78141752D01*
X146431909Y-78162126D01*
X146449236Y-78179453D01*
X146469611Y-78193066D01*
X146492247Y-78202442D01*
X146507183Y-78206973D01*
X146513650Y-78210430D01*
X146524084Y-78218992D01*
X146745921Y-78440829D01*
X146754483Y-78451263D01*
X146757940Y-78457730D01*
X146762471Y-78472666D01*
X146771848Y-78495305D01*
X146785462Y-78515679D01*
X146802789Y-78533006D01*
X146823164Y-78546620D01*
X146845800Y-78555996D01*
X146860737Y-78560527D01*
X146867203Y-78563984D01*
X146877637Y-78572546D01*
X147099474Y-78794383D01*
X147108036Y-78804817D01*
X147111493Y-78811283D01*
X147116024Y-78826220D01*
X147125402Y-78848859D01*
X147139016Y-78869233D01*
X147156343Y-78886560D01*
X147176718Y-78900173D01*
X147199353Y-78909549D01*
X147214290Y-78914080D01*
X147220756Y-78917537D01*
X147231190Y-78926099D01*
X147453027Y-79147936D01*
X147461589Y-79158370D01*
X147465046Y-79164836D01*
X147469577Y-79179773D01*
X147478955Y-79202412D01*
X147492569Y-79222786D01*
X147509896Y-79240113D01*
X147530271Y-79253726D01*
X147552907Y-79263102D01*
X147567843Y-79267633D01*
X147574310Y-79271090D01*
X147584744Y-79279652D01*
X147806581Y-79501489D01*
X147815143Y-79511923D01*
X147818600Y-79518390D01*
X147823131Y-79533326D01*
X147832508Y-79555965D01*
X147846122Y-79576339D01*
X147863449Y-79593666D01*
X147883824Y-79607280D01*
X147906460Y-79616656D01*
X147921397Y-79621187D01*
X147927863Y-79624644D01*
X147938297Y-79633206D01*
X148160134Y-79855043D01*
X148168696Y-79865477D01*
X148172153Y-79871943D01*
X148176684Y-79886880D01*
X148186062Y-79909519D01*
X148199676Y-79929893D01*
X148217003Y-79947220D01*
X148237378Y-79960833D01*
X148260013Y-79970209D01*
X148274950Y-79974740D01*
X148281416Y-79978197D01*
X148291850Y-79986759D01*
X148513687Y-80208596D01*
X148522249Y-80219030D01*
X148525706Y-80225497D01*
X148530237Y-80240433D01*
X148539614Y-80263072D01*
X148553228Y-80283446D01*
X148570555Y-80300773D01*
X148590930Y-80314387D01*
X148613567Y-80323763D01*
X148628503Y-80328294D01*
X148634970Y-80331751D01*
X148645404Y-80340313D01*
X148867241Y-80562150D01*
X148875803Y-80572584D01*
X148879260Y-80579050D01*
X148883791Y-80593987D01*
X148893169Y-80616626D01*
X148906783Y-80637000D01*
X148924110Y-80654327D01*
X148944485Y-80667940D01*
X148967120Y-80677316D01*
X148982057Y-80681847D01*
X148988523Y-80685304D01*
X148998957Y-80693866D01*
X149220794Y-80915703D01*
X149229356Y-80926137D01*
X149232813Y-80932603D01*
X149237344Y-80947540D01*
X149246722Y-80970179D01*
X149260336Y-80990553D01*
X149277663Y-81007880D01*
X149298038Y-81021493D01*
X149320674Y-81030869D01*
X149335610Y-81035400D01*
X149342077Y-81038857D01*
X149352511Y-81047419D01*
X149574348Y-81269256D01*
X149582910Y-81279690D01*
X149586367Y-81286157D01*
X149590898Y-81301093D01*
X149600275Y-81323732D01*
X149613889Y-81344106D01*
X149631216Y-81361433D01*
X149651591Y-81375047D01*
X149674227Y-81384423D01*
X149689164Y-81388954D01*
X149695630Y-81392411D01*
X149706064Y-81400973D01*
X149927901Y-81622810D01*
X149936463Y-81633244D01*
X149939920Y-81639710D01*
X149944451Y-81654647D01*
X149953829Y-81677286D01*
X149967443Y-81697660D01*
X149984770Y-81714987D01*
X150005145Y-81728600D01*
X150027780Y-81737976D01*
X150042717Y-81742507D01*
X150049183Y-81745964D01*
X150059617Y-81754526D01*
X150281454Y-81976363D01*
X150290016Y-81986797D01*
X150293473Y-81993263D01*
X150298004Y-82008200D01*
X150307382Y-82030839D01*
X150320996Y-82051213D01*
X150338323Y-82068540D01*
X150358698Y-82082153D01*
X150381334Y-82091529D01*
X150396270Y-82096060D01*
X150402737Y-82099517D01*
X150413171Y-82108079D01*
X150635008Y-82329916D01*
X150643570Y-82340350D01*
X150647027Y-82346817D01*
X150651558Y-82361753D01*
X150660935Y-82384392D01*
X150674549Y-82404766D01*
X150691876Y-82422093D01*
X150712251Y-82435707D01*
X150734887Y-82445083D01*
X150749824Y-82449614D01*
X150756290Y-82453071D01*
X150766724Y-82461633D01*
X150988561Y-82683470D01*
X150997123Y-82693904D01*
X151000580Y-82700370D01*
X151005111Y-82715307D01*
X151014489Y-82737946D01*
X151028103Y-82758320D01*
X151045430Y-82775647D01*
X151065805Y-82789260D01*
X151088441Y-82798636D01*
X151103377Y-82803167D01*
X151109844Y-82806624D01*
X151120278Y-82815186D01*
X151342115Y-83037023D01*
X151350677Y-83047457D01*
X151354134Y-83053923D01*
X151356262Y-83060938D01*
X151356980Y-83068233D01*
X151356262Y-83075528D01*
X151354134Y-83082543D01*
X151350677Y-83089009D01*
X151342115Y-83099443D01*
X150289428Y-84152130D01*
X150278994Y-84160692D01*
X150272528Y-84164149D01*
X150265513Y-84166277D01*
X150258218Y-84166995D01*
X150250923Y-84166277D01*
X150243908Y-84164149D01*
X150237442Y-84160692D01*
X150227008Y-84152130D01*
X150005171Y-83930293D01*
X149996609Y-83919859D01*
X149993152Y-83913393D01*
X149988621Y-83898456D01*
X149979243Y-83875817D01*
X149965629Y-83855443D01*
X149948302Y-83838116D01*
X149927927Y-83824503D01*
X149905291Y-83815127D01*
X149890355Y-83810596D01*
X149883888Y-83807139D01*
X149873454Y-83798577D01*
X149651617Y-83576740D01*
X149643055Y-83566306D01*
X149639598Y-83559839D01*
X149635067Y-83544903D01*
X149625690Y-83522264D01*
X149612076Y-83501890D01*
X149594749Y-83484563D01*
X149574374Y-83470949D01*
X149551738Y-83461573D01*
X149536801Y-83457042D01*
X149530335Y-83453585D01*
X149519901Y-83445023D01*
X149298064Y-83223186D01*
X149289502Y-83212752D01*
X149286045Y-83206286D01*
X149281514Y-83191349D01*
X149272136Y-83168710D01*
X149258522Y-83148336D01*
X149241195Y-83131009D01*
X149220820Y-83117396D01*
X149198184Y-83108020D01*
X149183248Y-83103489D01*
X149176781Y-83100032D01*
X149166347Y-83091470D01*
X148944510Y-82869633D01*
X148935948Y-82859199D01*
X148932491Y-82852733D01*
X148927960Y-82837796D01*
X148918582Y-82815157D01*
X148904968Y-82794783D01*
X148887641Y-82777456D01*
X148867266Y-82763843D01*
X148844631Y-82754467D01*
X148829694Y-82749936D01*
X148823228Y-82746479D01*
X148812794Y-82737917D01*
X148590957Y-82516080D01*
X148582395Y-82505646D01*
X148578938Y-82499179D01*
X148574407Y-82484243D01*
X148565030Y-82461604D01*
X148551416Y-82441230D01*
X148534089Y-82423903D01*
X148513714Y-82410289D01*
X148491078Y-82400913D01*
X148476141Y-82396382D01*
X148469675Y-82392925D01*
X148459241Y-82384363D01*
X148237404Y-82162526D01*
X148228842Y-82152092D01*
X148225385Y-82145626D01*
X148220854Y-82130689D01*
X148211476Y-82108050D01*
X148197862Y-82087676D01*
X148180535Y-82070349D01*
X148160160Y-82056736D01*
X148137524Y-82047360D01*
X148122588Y-82042829D01*
X148116121Y-82039372D01*
X148105687Y-82030810D01*
X147883850Y-81808973D01*
X147875288Y-81798539D01*
X147871831Y-81792073D01*
X147867300Y-81777136D01*
X147857922Y-81754497D01*
X147844308Y-81734123D01*
X147826981Y-81716796D01*
X147806606Y-81703183D01*
X147783971Y-81693807D01*
X147769034Y-81689276D01*
X147762568Y-81685819D01*
X147752134Y-81677257D01*
X147530297Y-81455420D01*
X147521735Y-81444986D01*
X147518278Y-81438519D01*
X147513747Y-81423583D01*
X147504370Y-81400944D01*
X147490756Y-81380570D01*
X147473429Y-81363243D01*
X147453054Y-81349629D01*
X147430417Y-81340253D01*
X147415481Y-81335722D01*
X147409014Y-81332265D01*
X147398580Y-81323703D01*
X147176743Y-81101866D01*
X147168181Y-81091432D01*
X147164724Y-81084966D01*
X147160193Y-81070029D01*
X147150815Y-81047390D01*
X147137201Y-81027016D01*
X147119874Y-81009689D01*
X147099499Y-80996076D01*
X147076864Y-80986700D01*
X147061927Y-80982169D01*
X147055461Y-80978712D01*
X147045027Y-80970150D01*
X146823190Y-80748313D01*
X146814628Y-80737879D01*
X146811171Y-80731412D01*
X146806640Y-80716476D01*
X146797263Y-80693837D01*
X146783649Y-80673463D01*
X146766322Y-80656136D01*
X146745947Y-80642522D01*
X146723311Y-80633146D01*
X146708374Y-80628615D01*
X146701908Y-80625158D01*
X146691474Y-80616596D01*
X146469637Y-80394759D01*
X146461075Y-80384325D01*
X146457618Y-80377859D01*
X146453087Y-80362922D01*
X146443709Y-80340283D01*
X146430095Y-80319909D01*
X146412768Y-80302582D01*
X146392393Y-80288969D01*
X146369757Y-80279593D01*
X146354821Y-80275062D01*
X146348354Y-80271605D01*
X146337920Y-80263043D01*
X146116083Y-80041206D01*
X146107521Y-80030772D01*
X146104064Y-80024306D01*
X146099533Y-80009369D01*
X146090155Y-79986730D01*
X146076541Y-79966356D01*
X146059214Y-79949029D01*
X146038839Y-79935416D01*
X146016204Y-79926040D01*
X146001267Y-79921509D01*
X145994801Y-79918052D01*
X145984367Y-79909490D01*
X145762530Y-79687653D01*
X145753968Y-79677219D01*
X145750511Y-79670752D01*
X145745980Y-79655816D01*
X145736603Y-79633177D01*
X145722989Y-79612803D01*
X145705662Y-79595476D01*
X145685287Y-79581862D01*
X145662651Y-79572486D01*
X145647714Y-79567955D01*
X145641248Y-79564498D01*
X145630814Y-79555936D01*
X145408977Y-79334099D01*
X145400415Y-79323665D01*
X145396958Y-79317199D01*
X145392427Y-79302262D01*
X145383049Y-79279623D01*
X145369435Y-79259249D01*
X145352108Y-79241922D01*
X145331733Y-79228309D01*
X145309097Y-79218933D01*
X145294161Y-79214402D01*
X145287694Y-79210945D01*
X145277260Y-79202383D01*
X145055423Y-78980546D01*
X145046861Y-78970112D01*
X145043404Y-78963645D01*
X145038873Y-78948709D01*
X145029496Y-78926070D01*
X145015882Y-78905696D01*
X144998555Y-78888369D01*
X144978180Y-78874755D01*
X144955544Y-78865379D01*
X144940607Y-78860848D01*
X144934141Y-78857391D01*
X144923707Y-78848829D01*
X144701870Y-78626992D01*
X144693308Y-78616558D01*
X144689851Y-78610092D01*
X144687723Y-78603077D01*
X144687005Y-78595782D01*
X144687723Y-78588487D01*
X144689851Y-78581472D01*
X144693308Y-78575006D01*
X144701870Y-78564572D01*
X145754557Y-77511885D01*
X145764991Y-77503323D01*
X145771457Y-77499866D01*
X145778472Y-77497738D01*
X145785767Y-77497020D01*
X145793062Y-77497738D01*
X145793062Y-77497738D01*
G37*
G36*
X142257528Y-77497738D02*
G01*
X142264543Y-77499866D01*
X142271009Y-77503323D01*
X142281443Y-77511885D01*
X143334130Y-78564572D01*
X143342692Y-78575006D01*
X143346149Y-78581472D01*
X143348277Y-78588487D01*
X143348995Y-78595782D01*
X143348277Y-78603077D01*
X143346149Y-78610092D01*
X143342692Y-78616558D01*
X143334130Y-78626992D01*
X143112293Y-78848829D01*
X143101859Y-78857391D01*
X143095393Y-78860848D01*
X143080456Y-78865379D01*
X143057817Y-78874757D01*
X143037443Y-78888371D01*
X143020116Y-78905698D01*
X143006503Y-78926073D01*
X142997127Y-78948709D01*
X142992596Y-78963645D01*
X142989139Y-78970112D01*
X142980577Y-78980546D01*
X142758740Y-79202383D01*
X142748306Y-79210945D01*
X142741839Y-79214402D01*
X142726903Y-79218933D01*
X142704264Y-79228310D01*
X142683890Y-79241924D01*
X142666563Y-79259251D01*
X142652949Y-79279626D01*
X142643573Y-79302262D01*
X142639042Y-79317199D01*
X142635585Y-79323665D01*
X142627023Y-79334099D01*
X142405186Y-79555936D01*
X142394752Y-79564498D01*
X142388286Y-79567955D01*
X142373349Y-79572486D01*
X142350710Y-79581864D01*
X142330336Y-79595478D01*
X142313009Y-79612805D01*
X142299396Y-79633180D01*
X142290020Y-79655816D01*
X142285489Y-79670752D01*
X142282032Y-79677219D01*
X142273470Y-79687653D01*
X142051633Y-79909490D01*
X142041199Y-79918052D01*
X142034733Y-79921509D01*
X142019796Y-79926040D01*
X141997157Y-79935418D01*
X141976783Y-79949032D01*
X141959456Y-79966359D01*
X141945843Y-79986734D01*
X141936467Y-80009369D01*
X141931936Y-80024306D01*
X141928479Y-80030772D01*
X141919917Y-80041206D01*
X141698080Y-80263043D01*
X141687646Y-80271605D01*
X141681179Y-80275062D01*
X141666243Y-80279593D01*
X141643604Y-80288970D01*
X141623230Y-80302584D01*
X141605903Y-80319911D01*
X141592289Y-80340286D01*
X141582913Y-80362922D01*
X141578382Y-80377859D01*
X141574925Y-80384325D01*
X141566363Y-80394759D01*
X141344526Y-80616596D01*
X141334092Y-80625158D01*
X141327626Y-80628615D01*
X141312689Y-80633146D01*
X141290050Y-80642524D01*
X141269676Y-80656138D01*
X141252349Y-80673465D01*
X141238736Y-80693840D01*
X141229360Y-80716476D01*
X141224829Y-80731412D01*
X141221372Y-80737879D01*
X141212810Y-80748313D01*
X140990973Y-80970150D01*
X140980539Y-80978712D01*
X140974073Y-80982169D01*
X140959136Y-80986700D01*
X140936497Y-80996078D01*
X140916123Y-81009692D01*
X140898796Y-81027019D01*
X140885183Y-81047394D01*
X140875807Y-81070029D01*
X140871276Y-81084966D01*
X140867819Y-81091432D01*
X140859257Y-81101866D01*
X140637420Y-81323703D01*
X140626986Y-81332265D01*
X140620519Y-81335722D01*
X140605583Y-81340253D01*
X140582944Y-81349630D01*
X140562570Y-81363244D01*
X140545243Y-81380571D01*
X140531629Y-81400946D01*
X140522253Y-81423583D01*
X140517722Y-81438519D01*
X140514265Y-81444986D01*
X140505703Y-81455420D01*
X140283866Y-81677257D01*
X140273432Y-81685819D01*
X140266966Y-81689276D01*
X140252029Y-81693807D01*
X140229390Y-81703185D01*
X140209016Y-81716799D01*
X140191689Y-81734126D01*
X140178076Y-81754501D01*
X140168700Y-81777136D01*
X140164169Y-81792073D01*
X140160712Y-81798539D01*
X140152150Y-81808973D01*
X139930313Y-82030810D01*
X139919879Y-82039372D01*
X139913412Y-82042829D01*
X139898476Y-82047360D01*
X139875837Y-82056737D01*
X139855463Y-82070351D01*
X139838136Y-82087678D01*
X139824522Y-82108053D01*
X139815146Y-82130689D01*
X139810615Y-82145626D01*
X139807158Y-82152092D01*
X139798596Y-82162526D01*
X139576759Y-82384363D01*
X139566325Y-82392925D01*
X139559859Y-82396382D01*
X139544922Y-82400913D01*
X139522283Y-82410291D01*
X139501909Y-82423905D01*
X139484582Y-82441232D01*
X139470969Y-82461607D01*
X139461593Y-82484243D01*
X139457062Y-82499179D01*
X139453605Y-82505646D01*
X139445043Y-82516080D01*
X139223206Y-82737917D01*
X139212772Y-82746479D01*
X139206306Y-82749936D01*
X139191369Y-82754467D01*
X139168730Y-82763845D01*
X139148356Y-82777459D01*
X139131029Y-82794786D01*
X139117416Y-82815161D01*
X139108040Y-82837796D01*
X139103509Y-82852733D01*
X139100052Y-82859199D01*
X139091490Y-82869633D01*
X138869653Y-83091470D01*
X138859219Y-83100032D01*
X138852752Y-83103489D01*
X138837816Y-83108020D01*
X138815177Y-83117397D01*
X138794803Y-83131011D01*
X138777476Y-83148338D01*
X138763862Y-83168713D01*
X138754486Y-83191349D01*
X138749955Y-83206286D01*
X138746498Y-83212752D01*
X138737936Y-83223186D01*
X138516099Y-83445023D01*
X138505665Y-83453585D01*
X138499199Y-83457042D01*
X138484262Y-83461573D01*
X138461623Y-83470951D01*
X138441249Y-83484565D01*
X138423922Y-83501892D01*
X138410309Y-83522267D01*
X138400933Y-83544903D01*
X138396402Y-83559839D01*
X138392945Y-83566306D01*
X138384383Y-83576740D01*
X138162546Y-83798577D01*
X138152112Y-83807139D01*
X138145645Y-83810596D01*
X138130709Y-83815127D01*
X138108070Y-83824504D01*
X138087696Y-83838118D01*
X138070369Y-83855445D01*
X138056755Y-83875820D01*
X138047379Y-83898456D01*
X138042848Y-83913393D01*
X138039391Y-83919859D01*
X138030829Y-83930293D01*
X137808992Y-84152130D01*
X137798558Y-84160692D01*
X137792092Y-84164149D01*
X137785077Y-84166277D01*
X137777782Y-84166995D01*
X137770487Y-84166277D01*
X137763472Y-84164149D01*
X137757006Y-84160692D01*
X137746572Y-84152130D01*
X136693885Y-83099443D01*
X136685323Y-83089009D01*
X136681866Y-83082543D01*
X136679738Y-83075528D01*
X136679020Y-83068233D01*
X136679738Y-83060938D01*
X136681866Y-83053923D01*
X136685323Y-83047457D01*
X136693885Y-83037023D01*
X136915722Y-82815186D01*
X136926156Y-82806624D01*
X136932623Y-82803167D01*
X136947559Y-82798636D01*
X136970198Y-82789259D01*
X136990572Y-82775645D01*
X137007899Y-82758318D01*
X137021513Y-82737943D01*
X137030889Y-82715307D01*
X137035420Y-82700370D01*
X137038877Y-82693904D01*
X137047439Y-82683470D01*
X137269276Y-82461633D01*
X137279710Y-82453071D01*
X137286176Y-82449614D01*
X137301113Y-82445083D01*
X137323752Y-82435705D01*
X137344126Y-82422091D01*
X137361453Y-82404764D01*
X137375066Y-82384389D01*
X137384442Y-82361753D01*
X137388973Y-82346817D01*
X137392430Y-82340350D01*
X137400992Y-82329916D01*
X137622829Y-82108079D01*
X137633263Y-82099517D01*
X137639730Y-82096060D01*
X137654666Y-82091529D01*
X137677305Y-82082152D01*
X137697679Y-82068538D01*
X137715006Y-82051211D01*
X137728620Y-82030836D01*
X137737996Y-82008200D01*
X137742527Y-81993263D01*
X137745984Y-81986797D01*
X137754546Y-81976363D01*
X137976383Y-81754526D01*
X137986817Y-81745964D01*
X137993283Y-81742507D01*
X138008220Y-81737976D01*
X138030859Y-81728598D01*
X138051233Y-81714984D01*
X138068560Y-81697657D01*
X138082173Y-81677282D01*
X138091549Y-81654647D01*
X138096080Y-81639710D01*
X138099537Y-81633244D01*
X138108099Y-81622810D01*
X138329936Y-81400973D01*
X138340370Y-81392411D01*
X138346836Y-81388954D01*
X138361773Y-81384423D01*
X138384412Y-81375045D01*
X138404786Y-81361431D01*
X138422113Y-81344104D01*
X138435726Y-81323729D01*
X138445102Y-81301093D01*
X138449633Y-81286157D01*
X138453090Y-81279690D01*
X138461652Y-81269256D01*
X138683489Y-81047419D01*
X138693923Y-81038857D01*
X138700390Y-81035400D01*
X138715326Y-81030869D01*
X138737965Y-81021492D01*
X138758339Y-81007878D01*
X138775666Y-80990551D01*
X138789280Y-80970176D01*
X138798656Y-80947540D01*
X138803187Y-80932603D01*
X138806644Y-80926137D01*
X138815206Y-80915703D01*
X139037043Y-80693866D01*
X139047477Y-80685304D01*
X139053943Y-80681847D01*
X139068880Y-80677316D01*
X139091519Y-80667938D01*
X139111893Y-80654324D01*
X139129220Y-80636997D01*
X139142833Y-80616622D01*
X139152209Y-80593987D01*
X139156740Y-80579050D01*
X139160197Y-80572584D01*
X139168759Y-80562150D01*
X139390596Y-80340313D01*
X139401030Y-80331751D01*
X139407497Y-80328294D01*
X139422433Y-80323763D01*
X139445072Y-80314386D01*
X139465446Y-80300772D01*
X139482773Y-80283445D01*
X139496387Y-80263070D01*
X139505763Y-80240433D01*
X139510294Y-80225497D01*
X139513751Y-80219030D01*
X139522313Y-80208596D01*
X139744150Y-79986759D01*
X139754584Y-79978197D01*
X139761050Y-79974740D01*
X139775987Y-79970209D01*
X139798626Y-79960831D01*
X139819000Y-79947217D01*
X139836327Y-79929890D01*
X139849940Y-79909515D01*
X139859316Y-79886880D01*
X139863847Y-79871943D01*
X139867304Y-79865477D01*
X139875866Y-79855043D01*
X140097703Y-79633206D01*
X140108137Y-79624644D01*
X140114603Y-79621187D01*
X140129540Y-79616656D01*
X140152179Y-79607278D01*
X140172553Y-79593664D01*
X140189880Y-79576337D01*
X140203493Y-79555962D01*
X140212869Y-79533326D01*
X140217400Y-79518390D01*
X140220857Y-79511923D01*
X140229419Y-79501489D01*
X140451256Y-79279652D01*
X140461690Y-79271090D01*
X140468157Y-79267633D01*
X140483093Y-79263102D01*
X140505732Y-79253725D01*
X140526106Y-79240111D01*
X140543433Y-79222784D01*
X140557047Y-79202409D01*
X140566423Y-79179773D01*
X140570954Y-79164836D01*
X140574411Y-79158370D01*
X140582973Y-79147936D01*
X140804810Y-78926099D01*
X140815244Y-78917537D01*
X140821710Y-78914080D01*
X140836647Y-78909549D01*
X140859286Y-78900171D01*
X140879660Y-78886557D01*
X140896987Y-78869230D01*
X140910600Y-78848855D01*
X140919976Y-78826220D01*
X140924507Y-78811283D01*
X140927964Y-78804817D01*
X140936526Y-78794383D01*
X141158363Y-78572546D01*
X141168797Y-78563984D01*
X141175263Y-78560527D01*
X141190200Y-78555996D01*
X141212839Y-78546618D01*
X141233213Y-78533004D01*
X141250540Y-78515677D01*
X141264153Y-78495302D01*
X141273529Y-78472666D01*
X141278060Y-78457730D01*
X141281517Y-78451263D01*
X141290079Y-78440829D01*
X141511916Y-78218992D01*
X141522350Y-78210430D01*
X141528817Y-78206973D01*
X141543753Y-78202442D01*
X141566392Y-78193065D01*
X141586766Y-78179451D01*
X141604093Y-78162124D01*
X141617707Y-78141749D01*
X141627083Y-78119113D01*
X141631614Y-78104176D01*
X141635071Y-78097710D01*
X141643633Y-78087276D01*
X141865470Y-77865439D01*
X141875904Y-77856877D01*
X141882370Y-77853420D01*
X141897307Y-77848889D01*
X141919946Y-77839511D01*
X141940320Y-77825897D01*
X141957647Y-77808570D01*
X141971260Y-77788195D01*
X141980636Y-77765559D01*
X141985167Y-77750623D01*
X141988624Y-77744156D01*
X141997186Y-77733722D01*
X142219023Y-77511885D01*
X142229457Y-77503323D01*
X142235923Y-77499866D01*
X142242938Y-77497738D01*
X142250233Y-77497020D01*
X142257528Y-77497738D01*
X142257528Y-77497738D01*
G37*
G36*
X122695562Y-81319181D02*
G01*
X122730481Y-81329774D01*
X122762663Y-81346976D01*
X122790873Y-81370127D01*
X122814024Y-81398337D01*
X122831226Y-81430519D01*
X122841819Y-81465438D01*
X122846000Y-81507895D01*
X122846000Y-82649105D01*
X122841819Y-82691562D01*
X122831226Y-82726481D01*
X122814024Y-82758663D01*
X122790873Y-82786873D01*
X122762663Y-82810024D01*
X122730481Y-82827226D01*
X122695562Y-82837819D01*
X122653105Y-82842000D01*
X121186895Y-82842000D01*
X121144438Y-82837819D01*
X121109519Y-82827226D01*
X121077337Y-82810024D01*
X121049127Y-82786873D01*
X121025976Y-82758663D01*
X121008774Y-82726481D01*
X120998181Y-82691562D01*
X120994000Y-82649105D01*
X120994000Y-81507895D01*
X120998181Y-81465438D01*
X121008774Y-81430519D01*
X121025976Y-81398337D01*
X121049127Y-81370127D01*
X121077337Y-81346976D01*
X121109519Y-81329774D01*
X121144438Y-81319181D01*
X121186895Y-81315000D01*
X122653105Y-81315000D01*
X122695562Y-81319181D01*
X122695562Y-81319181D01*
G37*
G36*
X116091562Y-81319181D02*
G01*
X116126481Y-81329774D01*
X116158663Y-81346976D01*
X116186873Y-81370127D01*
X116210024Y-81398337D01*
X116227226Y-81430519D01*
X116237819Y-81465438D01*
X116242000Y-81507895D01*
X116242000Y-82649105D01*
X116237819Y-82691562D01*
X116227226Y-82726481D01*
X116210024Y-82758663D01*
X116186873Y-82786873D01*
X116158663Y-82810024D01*
X116126481Y-82827226D01*
X116091562Y-82837819D01*
X116049105Y-82842000D01*
X114582895Y-82842000D01*
X114540438Y-82837819D01*
X114505519Y-82827226D01*
X114473337Y-82810024D01*
X114445127Y-82786873D01*
X114421976Y-82758663D01*
X114404774Y-82726481D01*
X114394181Y-82691562D01*
X114390000Y-82649105D01*
X114390000Y-81507895D01*
X114394181Y-81465438D01*
X114404774Y-81430519D01*
X114421976Y-81398337D01*
X114445127Y-81370127D01*
X114473337Y-81346976D01*
X114505519Y-81329774D01*
X114540438Y-81319181D01*
X114582895Y-81315000D01*
X116049105Y-81315000D01*
X116091562Y-81319181D01*
X116091562Y-81319181D01*
G37*
G36*
X152133191Y-79847102D02*
G01*
X152168110Y-79857695D01*
X152200292Y-79874897D01*
X152233266Y-79901958D01*
X152286298Y-79954990D01*
X152286304Y-79954995D01*
X153217005Y-80885696D01*
X153217010Y-80885702D01*
X153270042Y-80938734D01*
X153297103Y-80971708D01*
X153314305Y-81003890D01*
X153324898Y-81038809D01*
X153328474Y-81075126D01*
X153324898Y-81111443D01*
X153314305Y-81146362D01*
X153297103Y-81178544D01*
X153270042Y-81211518D01*
X153217010Y-81264550D01*
X153217005Y-81264556D01*
X152516114Y-81965447D01*
X152516108Y-81965452D01*
X152463076Y-82018484D01*
X152430102Y-82045545D01*
X152397920Y-82062747D01*
X152363001Y-82073340D01*
X152326684Y-82076916D01*
X152290367Y-82073340D01*
X152255448Y-82062747D01*
X152223266Y-82045545D01*
X152190292Y-82018484D01*
X152137260Y-81965452D01*
X152137254Y-81965447D01*
X151206553Y-81034746D01*
X151206548Y-81034740D01*
X151153516Y-80981708D01*
X151126455Y-80948734D01*
X151109253Y-80916552D01*
X151098660Y-80881633D01*
X151095084Y-80845316D01*
X151098660Y-80808999D01*
X151109253Y-80774080D01*
X151126455Y-80741898D01*
X151153516Y-80708924D01*
X151206548Y-80655892D01*
X151206553Y-80655886D01*
X151907444Y-79954995D01*
X151907450Y-79954990D01*
X151960482Y-79901958D01*
X151993456Y-79874897D01*
X152025638Y-79857695D01*
X152060557Y-79847102D01*
X152096874Y-79843526D01*
X152133191Y-79847102D01*
X152133191Y-79847102D01*
G37*
G36*
X137045591Y-78170702D02*
G01*
X137080510Y-78181295D01*
X137112692Y-78198497D01*
X137145666Y-78225558D01*
X137198698Y-78278590D01*
X137198704Y-78278595D01*
X138129405Y-79209296D01*
X138129410Y-79209302D01*
X138182442Y-79262334D01*
X138209503Y-79295308D01*
X138226705Y-79327490D01*
X138237298Y-79362409D01*
X138240874Y-79398726D01*
X138237298Y-79435043D01*
X138226705Y-79469962D01*
X138209503Y-79502144D01*
X138182442Y-79535118D01*
X138129410Y-79588150D01*
X138129405Y-79588156D01*
X137428514Y-80289047D01*
X137428508Y-80289052D01*
X137375476Y-80342084D01*
X137342502Y-80369145D01*
X137310320Y-80386347D01*
X137275401Y-80396940D01*
X137239084Y-80400516D01*
X137202767Y-80396940D01*
X137167848Y-80386347D01*
X137135666Y-80369145D01*
X137102692Y-80342084D01*
X137049660Y-80289052D01*
X137049654Y-80289047D01*
X136118953Y-79358346D01*
X136118948Y-79358340D01*
X136065916Y-79305308D01*
X136038855Y-79272334D01*
X136021653Y-79240152D01*
X136011060Y-79205233D01*
X136007484Y-79168916D01*
X136011060Y-79132599D01*
X136021653Y-79097680D01*
X136038855Y-79065498D01*
X136065916Y-79032524D01*
X136118948Y-78979492D01*
X136118953Y-78979486D01*
X136819844Y-78278595D01*
X136819850Y-78278590D01*
X136872882Y-78225558D01*
X136905856Y-78198497D01*
X136938038Y-78181295D01*
X136972957Y-78170702D01*
X137009274Y-78167126D01*
X137045591Y-78170702D01*
X137045591Y-78170702D01*
G37*
G36*
X116519000Y-80063000D02*
G01*
X114417000Y-80063000D01*
X114417000Y-78461000D01*
X116519000Y-78461000D01*
X116519000Y-80063000D01*
X116519000Y-80063000D01*
G37*
G36*
X150101191Y-77815102D02*
G01*
X150136110Y-77825695D01*
X150168292Y-77842897D01*
X150201266Y-77869958D01*
X150254298Y-77922990D01*
X150254304Y-77922995D01*
X151185005Y-78853696D01*
X151185010Y-78853702D01*
X151238042Y-78906734D01*
X151265103Y-78939708D01*
X151282305Y-78971890D01*
X151292898Y-79006809D01*
X151296474Y-79043126D01*
X151292898Y-79079443D01*
X151282305Y-79114362D01*
X151265103Y-79146544D01*
X151238042Y-79179518D01*
X151185010Y-79232550D01*
X151185005Y-79232556D01*
X150484114Y-79933447D01*
X150484108Y-79933452D01*
X150431076Y-79986484D01*
X150398102Y-80013545D01*
X150365920Y-80030747D01*
X150331001Y-80041340D01*
X150294684Y-80044916D01*
X150258367Y-80041340D01*
X150223448Y-80030747D01*
X150191266Y-80013545D01*
X150158292Y-79986484D01*
X150105260Y-79933452D01*
X150105254Y-79933447D01*
X149174553Y-79002746D01*
X149174548Y-79002740D01*
X149121516Y-78949708D01*
X149094455Y-78916734D01*
X149077253Y-78884552D01*
X149066660Y-78849633D01*
X149063084Y-78813316D01*
X149066660Y-78776999D01*
X149077253Y-78742080D01*
X149094455Y-78709898D01*
X149121516Y-78676924D01*
X149174548Y-78623892D01*
X149174553Y-78623886D01*
X149875444Y-77922995D01*
X149875450Y-77922990D01*
X149928482Y-77869958D01*
X149961456Y-77842897D01*
X149993638Y-77825695D01*
X150028557Y-77815102D01*
X150064874Y-77811526D01*
X150101191Y-77815102D01*
X150101191Y-77815102D01*
G37*
G36*
X154236833Y-77743460D02*
G01*
X154271752Y-77754053D01*
X154303934Y-77771255D01*
X154336908Y-77798316D01*
X154389940Y-77851348D01*
X154389946Y-77851353D01*
X155320647Y-78782054D01*
X155320652Y-78782060D01*
X155373684Y-78835092D01*
X155400745Y-78868066D01*
X155417947Y-78900248D01*
X155428540Y-78935167D01*
X155432116Y-78971484D01*
X155428540Y-79007801D01*
X155417947Y-79042720D01*
X155400745Y-79074902D01*
X155373684Y-79107876D01*
X155320652Y-79160908D01*
X155320647Y-79160914D01*
X154619756Y-79861805D01*
X154619750Y-79861810D01*
X154566718Y-79914842D01*
X154533744Y-79941903D01*
X154501562Y-79959105D01*
X154466643Y-79969698D01*
X154430326Y-79973274D01*
X154394009Y-79969698D01*
X154359090Y-79959105D01*
X154326908Y-79941903D01*
X154293934Y-79914842D01*
X154240902Y-79861810D01*
X154240896Y-79861805D01*
X153310195Y-78931104D01*
X153310190Y-78931098D01*
X153257158Y-78878066D01*
X153230097Y-78845092D01*
X153212895Y-78812910D01*
X153202302Y-78777991D01*
X153198726Y-78741674D01*
X153202302Y-78705357D01*
X153212895Y-78670438D01*
X153230097Y-78638256D01*
X153257158Y-78605282D01*
X153310190Y-78552250D01*
X153310195Y-78552244D01*
X154011086Y-77851353D01*
X154011092Y-77851348D01*
X154064124Y-77798316D01*
X154097098Y-77771255D01*
X154129280Y-77754053D01*
X154164199Y-77743460D01*
X154200516Y-77739884D01*
X154236833Y-77743460D01*
X154236833Y-77743460D01*
G37*
G36*
X122819000Y-78913000D02*
G01*
X120717000Y-78913000D01*
X120717000Y-75011000D01*
X122819000Y-75011000D01*
X122819000Y-78913000D01*
X122819000Y-78913000D01*
G37*
G36*
X139149233Y-76067060D02*
G01*
X139184152Y-76077653D01*
X139216334Y-76094855D01*
X139249308Y-76121916D01*
X139302340Y-76174948D01*
X139302346Y-76174953D01*
X140233047Y-77105654D01*
X140233052Y-77105660D01*
X140286084Y-77158692D01*
X140313145Y-77191666D01*
X140330347Y-77223848D01*
X140340940Y-77258767D01*
X140344516Y-77295084D01*
X140340940Y-77331401D01*
X140330347Y-77366320D01*
X140313145Y-77398502D01*
X140286084Y-77431476D01*
X140233052Y-77484508D01*
X140233047Y-77484514D01*
X139532156Y-78185405D01*
X139532150Y-78185410D01*
X139479118Y-78238442D01*
X139446144Y-78265503D01*
X139413962Y-78282705D01*
X139379043Y-78293298D01*
X139342726Y-78296874D01*
X139306409Y-78293298D01*
X139271490Y-78282705D01*
X139239308Y-78265503D01*
X139206334Y-78238442D01*
X139153302Y-78185410D01*
X139153296Y-78185405D01*
X138222595Y-77254704D01*
X138222590Y-77254698D01*
X138169558Y-77201666D01*
X138142497Y-77168692D01*
X138125295Y-77136510D01*
X138114702Y-77101591D01*
X138111126Y-77065274D01*
X138114702Y-77028957D01*
X138125295Y-76994038D01*
X138142497Y-76961856D01*
X138169558Y-76928882D01*
X138222590Y-76875850D01*
X138222595Y-76875844D01*
X138923486Y-76174953D01*
X138923492Y-76174948D01*
X138976524Y-76121916D01*
X139009498Y-76094855D01*
X139041680Y-76077653D01*
X139076599Y-76067060D01*
X139112916Y-76063484D01*
X139149233Y-76067060D01*
X139149233Y-76067060D01*
G37*
G36*
X148069191Y-75783102D02*
G01*
X148104110Y-75793695D01*
X148136292Y-75810897D01*
X148169266Y-75837958D01*
X148222298Y-75890990D01*
X148222304Y-75890995D01*
X149153005Y-76821696D01*
X149153010Y-76821702D01*
X149206042Y-76874734D01*
X149233103Y-76907708D01*
X149250305Y-76939890D01*
X149260898Y-76974809D01*
X149264474Y-77011126D01*
X149260898Y-77047443D01*
X149250305Y-77082362D01*
X149233103Y-77114544D01*
X149206042Y-77147518D01*
X149153010Y-77200550D01*
X149153005Y-77200556D01*
X148452114Y-77901447D01*
X148452108Y-77901452D01*
X148399076Y-77954484D01*
X148366102Y-77981545D01*
X148333920Y-77998747D01*
X148299001Y-78009340D01*
X148262684Y-78012916D01*
X148226367Y-78009340D01*
X148191448Y-77998747D01*
X148159266Y-77981545D01*
X148126292Y-77954484D01*
X148073260Y-77901452D01*
X148073254Y-77901447D01*
X147142553Y-76970746D01*
X147142548Y-76970740D01*
X147089516Y-76917708D01*
X147062455Y-76884734D01*
X147045253Y-76852552D01*
X147034660Y-76817633D01*
X147031084Y-76781316D01*
X147034660Y-76744999D01*
X147045253Y-76710080D01*
X147062455Y-76677898D01*
X147089516Y-76644924D01*
X147142548Y-76591892D01*
X147142553Y-76591886D01*
X147843444Y-75890995D01*
X147843450Y-75890990D01*
X147896482Y-75837958D01*
X147929456Y-75810897D01*
X147961638Y-75793695D01*
X147996557Y-75783102D01*
X148032874Y-75779526D01*
X148069191Y-75783102D01*
X148069191Y-75783102D01*
G37*
G36*
X152204833Y-75711460D02*
G01*
X152239752Y-75722053D01*
X152271934Y-75739255D01*
X152304908Y-75766316D01*
X152357940Y-75819348D01*
X152357946Y-75819353D01*
X153288647Y-76750054D01*
X153288652Y-76750060D01*
X153341684Y-76803092D01*
X153368745Y-76836066D01*
X153385947Y-76868248D01*
X153396540Y-76903167D01*
X153400116Y-76939484D01*
X153396540Y-76975801D01*
X153385947Y-77010720D01*
X153368745Y-77042902D01*
X153341684Y-77075876D01*
X153288652Y-77128908D01*
X153288647Y-77128914D01*
X152587756Y-77829805D01*
X152587750Y-77829810D01*
X152534718Y-77882842D01*
X152501744Y-77909903D01*
X152469562Y-77927105D01*
X152434643Y-77937698D01*
X152398326Y-77941274D01*
X152362009Y-77937698D01*
X152327090Y-77927105D01*
X152294908Y-77909903D01*
X152261934Y-77882842D01*
X152208902Y-77829810D01*
X152208896Y-77829805D01*
X151278195Y-76899104D01*
X151278190Y-76899098D01*
X151225158Y-76846066D01*
X151198097Y-76813092D01*
X151180895Y-76780910D01*
X151170302Y-76745991D01*
X151166726Y-76709674D01*
X151170302Y-76673357D01*
X151180895Y-76638438D01*
X151198097Y-76606256D01*
X151225158Y-76573282D01*
X151278190Y-76520250D01*
X151278195Y-76520244D01*
X151979086Y-75819353D01*
X151979092Y-75819348D01*
X152032124Y-75766316D01*
X152065098Y-75739255D01*
X152097280Y-75722053D01*
X152132199Y-75711460D01*
X152168516Y-75707884D01*
X152204833Y-75711460D01*
X152204833Y-75711460D01*
G37*
G36*
X131177999Y-76161737D02*
G01*
X131187608Y-76164652D01*
X131196472Y-76169390D01*
X131204237Y-76175763D01*
X131214448Y-76188206D01*
X131221378Y-76198575D01*
X131238705Y-76215902D01*
X131259080Y-76229515D01*
X131281720Y-76238891D01*
X131305753Y-76243671D01*
X131330257Y-76243670D01*
X131354290Y-76238888D01*
X131376929Y-76229510D01*
X131397302Y-76215895D01*
X131414629Y-76198568D01*
X131421558Y-76188198D01*
X131431763Y-76175763D01*
X131439528Y-76169390D01*
X131448392Y-76164652D01*
X131458001Y-76161737D01*
X131474140Y-76160148D01*
X131961861Y-76160148D01*
X131980199Y-76161954D01*
X131992450Y-76162556D01*
X132010869Y-76162556D01*
X132033149Y-76164750D01*
X132117233Y-76181476D01*
X132138660Y-76187976D01*
X132217858Y-76220780D01*
X132223303Y-76223691D01*
X132223309Y-76223693D01*
X132232169Y-76228429D01*
X132232173Y-76228432D01*
X132237614Y-76231340D01*
X132308899Y-76278971D01*
X132326204Y-76293172D01*
X132386828Y-76353796D01*
X132401029Y-76371101D01*
X132448660Y-76442386D01*
X132451568Y-76447827D01*
X132451571Y-76447831D01*
X132456307Y-76456691D01*
X132456309Y-76456697D01*
X132459220Y-76462142D01*
X132492024Y-76541340D01*
X132498524Y-76562767D01*
X132515250Y-76646851D01*
X132517444Y-76669131D01*
X132517444Y-76687550D01*
X132518046Y-76699801D01*
X132519852Y-76718139D01*
X132519852Y-77205862D01*
X132518046Y-77224199D01*
X132517444Y-77236450D01*
X132517444Y-77254869D01*
X132515250Y-77277149D01*
X132498524Y-77361233D01*
X132492024Y-77382660D01*
X132459220Y-77461858D01*
X132456309Y-77467303D01*
X132456307Y-77467309D01*
X132451571Y-77476169D01*
X132451568Y-77476173D01*
X132448660Y-77481614D01*
X132401029Y-77552899D01*
X132386828Y-77570204D01*
X132326204Y-77630828D01*
X132308899Y-77645029D01*
X132237614Y-77692660D01*
X132232173Y-77695568D01*
X132232169Y-77695571D01*
X132223309Y-77700307D01*
X132223303Y-77700309D01*
X132217858Y-77703220D01*
X132138660Y-77736024D01*
X132117233Y-77742524D01*
X132033149Y-77759250D01*
X132010869Y-77761444D01*
X131992450Y-77761444D01*
X131980199Y-77762046D01*
X131961862Y-77763852D01*
X131474140Y-77763852D01*
X131458001Y-77762263D01*
X131448392Y-77759348D01*
X131439528Y-77754610D01*
X131431763Y-77748237D01*
X131421552Y-77735794D01*
X131414622Y-77725425D01*
X131397295Y-77708098D01*
X131376920Y-77694485D01*
X131354280Y-77685109D01*
X131330247Y-77680329D01*
X131305743Y-77680330D01*
X131281710Y-77685112D01*
X131259071Y-77694490D01*
X131238698Y-77708105D01*
X131221371Y-77725432D01*
X131214442Y-77735802D01*
X131204237Y-77748237D01*
X131196472Y-77754610D01*
X131187608Y-77759348D01*
X131177999Y-77762263D01*
X131161860Y-77763852D01*
X130674138Y-77763852D01*
X130655801Y-77762046D01*
X130643550Y-77761444D01*
X130625131Y-77761444D01*
X130602851Y-77759250D01*
X130518767Y-77742524D01*
X130497340Y-77736024D01*
X130418142Y-77703220D01*
X130412697Y-77700309D01*
X130412691Y-77700307D01*
X130403831Y-77695571D01*
X130403827Y-77695568D01*
X130398386Y-77692660D01*
X130327101Y-77645029D01*
X130309796Y-77630828D01*
X130249172Y-77570204D01*
X130234971Y-77552899D01*
X130187340Y-77481614D01*
X130184432Y-77476173D01*
X130184429Y-77476169D01*
X130179693Y-77467309D01*
X130179691Y-77467303D01*
X130176780Y-77461858D01*
X130143976Y-77382660D01*
X130137476Y-77361233D01*
X130120750Y-77277149D01*
X130118556Y-77254869D01*
X130118556Y-77236450D01*
X130117954Y-77224199D01*
X130116148Y-77205862D01*
X130116148Y-76718139D01*
X130117954Y-76699801D01*
X130118556Y-76687550D01*
X130118556Y-76669131D01*
X130120750Y-76646851D01*
X130137476Y-76562767D01*
X130143976Y-76541340D01*
X130176780Y-76462142D01*
X130179691Y-76456697D01*
X130179693Y-76456691D01*
X130184429Y-76447831D01*
X130184432Y-76447827D01*
X130187340Y-76442386D01*
X130234971Y-76371101D01*
X130249172Y-76353796D01*
X130309796Y-76293172D01*
X130327101Y-76278971D01*
X130398386Y-76231340D01*
X130403827Y-76228432D01*
X130403831Y-76228429D01*
X130412691Y-76223693D01*
X130412697Y-76223691D01*
X130418142Y-76220780D01*
X130497340Y-76187976D01*
X130518767Y-76181476D01*
X130602851Y-76164750D01*
X130625131Y-76162556D01*
X130643550Y-76162556D01*
X130655801Y-76161954D01*
X130674139Y-76160148D01*
X131161860Y-76160148D01*
X131177999Y-76161737D01*
X131177999Y-76161737D01*
G37*
G36*
X116519000Y-77763000D02*
G01*
X114417000Y-77763000D01*
X114417000Y-76161000D01*
X116519000Y-76161000D01*
X116519000Y-77763000D01*
X116519000Y-77763000D01*
G37*
G36*
X126471642Y-76191781D02*
G01*
X126617414Y-76252162D01*
X126617416Y-76252163D01*
X126748608Y-76339822D01*
X126860178Y-76451392D01*
X126947837Y-76582584D01*
X126947838Y-76582586D01*
X127008219Y-76728358D01*
X127039000Y-76883107D01*
X127039000Y-77040893D01*
X127008219Y-77195642D01*
X126947838Y-77341414D01*
X126947837Y-77341416D01*
X126860178Y-77472608D01*
X126748608Y-77584178D01*
X126617416Y-77671837D01*
X126617415Y-77671838D01*
X126617414Y-77671838D01*
X126471642Y-77732219D01*
X126316893Y-77763000D01*
X126159107Y-77763000D01*
X126004358Y-77732219D01*
X125858586Y-77671838D01*
X125858585Y-77671838D01*
X125858584Y-77671837D01*
X125727392Y-77584178D01*
X125615822Y-77472608D01*
X125528163Y-77341416D01*
X125528162Y-77341414D01*
X125467781Y-77195642D01*
X125437000Y-77040893D01*
X125437000Y-76883107D01*
X125467781Y-76728358D01*
X125528162Y-76582586D01*
X125528163Y-76582584D01*
X125615822Y-76451392D01*
X125727392Y-76339822D01*
X125858584Y-76252163D01*
X125858586Y-76252162D01*
X126004358Y-76191781D01*
X126159107Y-76161000D01*
X126316893Y-76161000D01*
X126471642Y-76191781D01*
X126471642Y-76191781D01*
G37*
G36*
X153768183Y-71345311D02*
G01*
X153877505Y-71390593D01*
X153975893Y-71456334D01*
X154059564Y-71540005D01*
X154125305Y-71638393D01*
X154170587Y-71747715D01*
X154193672Y-71863771D01*
X154193672Y-71982101D01*
X154171033Y-72095914D01*
X154168632Y-72120291D01*
X154171034Y-72144677D01*
X154178147Y-72168126D01*
X154189698Y-72189737D01*
X154205243Y-72208679D01*
X154224185Y-72224224D01*
X154245795Y-72235776D01*
X154269244Y-72242889D01*
X154293630Y-72245291D01*
X154318017Y-72242889D01*
X154431821Y-72220252D01*
X154550152Y-72220252D01*
X154666208Y-72243337D01*
X154775530Y-72288619D01*
X154873918Y-72354360D01*
X154957589Y-72438031D01*
X155023330Y-72536419D01*
X155068612Y-72645741D01*
X155068612Y-72645742D01*
X155091697Y-72761798D01*
X155091697Y-72880128D01*
X155069060Y-72993932D01*
X155066658Y-73018318D01*
X155069060Y-73042704D01*
X155076173Y-73066153D01*
X155087724Y-73087764D01*
X155103269Y-73106706D01*
X155122211Y-73122251D01*
X155143822Y-73133802D01*
X155167271Y-73140915D01*
X155191657Y-73143317D01*
X155216035Y-73140916D01*
X155329848Y-73118277D01*
X155448178Y-73118277D01*
X155564234Y-73141362D01*
X155673556Y-73186644D01*
X155771944Y-73252385D01*
X155855615Y-73336056D01*
X155921356Y-73434444D01*
X155966638Y-73543766D01*
X155989723Y-73659822D01*
X155989723Y-73778152D01*
X155967084Y-73891965D01*
X155964683Y-73916342D01*
X155967085Y-73940728D01*
X155974198Y-73964177D01*
X155985749Y-73985788D01*
X156001294Y-74004730D01*
X156020236Y-74020275D01*
X156041846Y-74031827D01*
X156065295Y-74038940D01*
X156089681Y-74041342D01*
X156114068Y-74038940D01*
X156227872Y-74016303D01*
X156346203Y-74016303D01*
X156462259Y-74039388D01*
X156571581Y-74084670D01*
X156669969Y-74150411D01*
X156753640Y-74234082D01*
X156819381Y-74332470D01*
X156864663Y-74441792D01*
X156864663Y-74441793D01*
X156887748Y-74557849D01*
X156887748Y-74676179D01*
X156865111Y-74789983D01*
X156862709Y-74814369D01*
X156865111Y-74838755D01*
X156872224Y-74862204D01*
X156883775Y-74883815D01*
X156899320Y-74902757D01*
X156918262Y-74918302D01*
X156939873Y-74929853D01*
X156963322Y-74936966D01*
X156987708Y-74939368D01*
X157012086Y-74936967D01*
X157125899Y-74914328D01*
X157244229Y-74914328D01*
X157360285Y-74937413D01*
X157469607Y-74982695D01*
X157567995Y-75048436D01*
X157651666Y-75132107D01*
X157717407Y-75230495D01*
X157762689Y-75339817D01*
X157785774Y-75455873D01*
X157785774Y-75574203D01*
X157762689Y-75690259D01*
X157717407Y-75799581D01*
X157651666Y-75897969D01*
X157567995Y-75981640D01*
X157469607Y-76047381D01*
X157360285Y-76092663D01*
X157244229Y-76115748D01*
X157125899Y-76115748D01*
X157012087Y-76093109D01*
X156987708Y-76090708D01*
X156963322Y-76093110D01*
X156939873Y-76100223D01*
X156918262Y-76111774D01*
X156899320Y-76127319D01*
X156883775Y-76146261D01*
X156872223Y-76167871D01*
X156865110Y-76191320D01*
X156862708Y-76215706D01*
X156865109Y-76240087D01*
X156887748Y-76353899D01*
X156887748Y-76472229D01*
X156864663Y-76588285D01*
X156819381Y-76697607D01*
X156753640Y-76795995D01*
X156669969Y-76879666D01*
X156571581Y-76945407D01*
X156462259Y-76990689D01*
X156346203Y-77013774D01*
X156227873Y-77013774D01*
X156111817Y-76990689D01*
X156002495Y-76945407D01*
X155904107Y-76879666D01*
X155820436Y-76795995D01*
X155754695Y-76697607D01*
X155709413Y-76588285D01*
X155686328Y-76472229D01*
X155686328Y-76353899D01*
X155708967Y-76240086D01*
X155711368Y-76215709D01*
X155708966Y-76191323D01*
X155701853Y-76167874D01*
X155690302Y-76146263D01*
X155674757Y-76127321D01*
X155655815Y-76111776D01*
X155634205Y-76100224D01*
X155610756Y-76093111D01*
X155586370Y-76090709D01*
X155561983Y-76093111D01*
X155448179Y-76115748D01*
X155329848Y-76115748D01*
X155213792Y-76092663D01*
X155104470Y-76047381D01*
X155006082Y-75981640D01*
X154922411Y-75897969D01*
X154856670Y-75799581D01*
X154820557Y-75712393D01*
X155964683Y-75712393D01*
X155967085Y-75736779D01*
X155974198Y-75760228D01*
X155985749Y-75781839D01*
X156001294Y-75800781D01*
X156020236Y-75816326D01*
X156041846Y-75827878D01*
X156065295Y-75834991D01*
X156089681Y-75837393D01*
X156114068Y-75834991D01*
X156227872Y-75812354D01*
X156346203Y-75812354D01*
X156460015Y-75834993D01*
X156484394Y-75837394D01*
X156508780Y-75834992D01*
X156532229Y-75827879D01*
X156553840Y-75816328D01*
X156572782Y-75800783D01*
X156588327Y-75781841D01*
X156599879Y-75760231D01*
X156606992Y-75736782D01*
X156609394Y-75712396D01*
X156606993Y-75688015D01*
X156584354Y-75574203D01*
X156584354Y-75455873D01*
X156606991Y-75342068D01*
X156609393Y-75317682D01*
X156606991Y-75293296D01*
X156599878Y-75269847D01*
X156588327Y-75248236D01*
X156572782Y-75229294D01*
X156553840Y-75213749D01*
X156532229Y-75202198D01*
X156508780Y-75195085D01*
X156484394Y-75192683D01*
X156460016Y-75195084D01*
X156346203Y-75217723D01*
X156227872Y-75217723D01*
X156114069Y-75195086D01*
X156089683Y-75192684D01*
X156065297Y-75195086D01*
X156041848Y-75202199D01*
X156020237Y-75213750D01*
X156001295Y-75229295D01*
X155985750Y-75248237D01*
X155974199Y-75269848D01*
X155967086Y-75293297D01*
X155964684Y-75317683D01*
X155967086Y-75342068D01*
X155989723Y-75455873D01*
X155989723Y-75574203D01*
X155967084Y-75688016D01*
X155964683Y-75712393D01*
X154820557Y-75712393D01*
X154811388Y-75690259D01*
X154788303Y-75574203D01*
X154788303Y-75455873D01*
X154810940Y-75342068D01*
X154813342Y-75317682D01*
X154810940Y-75293296D01*
X154803827Y-75269847D01*
X154792276Y-75248236D01*
X154776731Y-75229294D01*
X154757789Y-75213749D01*
X154736178Y-75202198D01*
X154712729Y-75195085D01*
X154688343Y-75192683D01*
X154663965Y-75195084D01*
X154550152Y-75217723D01*
X154431822Y-75217723D01*
X154315766Y-75194638D01*
X154206444Y-75149356D01*
X154108056Y-75083615D01*
X154024385Y-74999944D01*
X153958644Y-74901556D01*
X153913362Y-74792234D01*
X153890277Y-74676178D01*
X153890277Y-74557848D01*
X153912916Y-74444035D01*
X153915317Y-74419658D01*
X153915317Y-74419655D01*
X155066657Y-74419655D01*
X155069058Y-74444036D01*
X155085927Y-74528840D01*
X155091697Y-74557849D01*
X155091697Y-74676179D01*
X155069060Y-74789983D01*
X155066658Y-74814369D01*
X155069060Y-74838755D01*
X155076173Y-74862204D01*
X155087724Y-74883815D01*
X155103269Y-74902757D01*
X155122211Y-74918302D01*
X155143822Y-74929853D01*
X155167271Y-74936966D01*
X155191657Y-74939368D01*
X155216035Y-74936967D01*
X155329848Y-74914328D01*
X155448179Y-74914328D01*
X155561982Y-74936965D01*
X155586368Y-74939367D01*
X155610754Y-74936965D01*
X155634203Y-74929852D01*
X155655814Y-74918301D01*
X155674756Y-74902756D01*
X155690301Y-74883814D01*
X155701852Y-74862203D01*
X155708965Y-74838754D01*
X155711367Y-74814368D01*
X155708965Y-74789982D01*
X155686328Y-74676179D01*
X155686328Y-74557849D01*
X155692098Y-74528840D01*
X155708967Y-74444035D01*
X155711368Y-74419658D01*
X155708966Y-74395272D01*
X155701853Y-74371823D01*
X155690302Y-74350212D01*
X155674757Y-74331270D01*
X155655815Y-74315725D01*
X155634205Y-74304173D01*
X155610756Y-74297060D01*
X155586370Y-74294658D01*
X155561983Y-74297060D01*
X155448179Y-74319697D01*
X155329848Y-74319697D01*
X155216036Y-74297058D01*
X155191657Y-74294657D01*
X155167271Y-74297059D01*
X155143822Y-74304172D01*
X155122211Y-74315723D01*
X155103269Y-74331268D01*
X155087724Y-74350210D01*
X155076172Y-74371820D01*
X155069059Y-74395269D01*
X155066657Y-74419655D01*
X153915317Y-74419655D01*
X153912915Y-74395272D01*
X153905802Y-74371823D01*
X153894251Y-74350212D01*
X153878706Y-74331270D01*
X153859764Y-74315725D01*
X153838154Y-74304173D01*
X153814705Y-74297060D01*
X153790319Y-74294658D01*
X153765932Y-74297060D01*
X153652128Y-74319697D01*
X153533797Y-74319697D01*
X153417741Y-74296612D01*
X153308419Y-74251330D01*
X153210031Y-74185589D01*
X153126360Y-74101918D01*
X153060619Y-74003530D01*
X153024506Y-73916342D01*
X154168632Y-73916342D01*
X154171034Y-73940728D01*
X154178147Y-73964177D01*
X154189698Y-73985788D01*
X154205243Y-74004730D01*
X154224185Y-74020275D01*
X154245795Y-74031827D01*
X154269244Y-74038940D01*
X154293630Y-74041342D01*
X154318017Y-74038940D01*
X154431821Y-74016303D01*
X154550152Y-74016303D01*
X154663964Y-74038942D01*
X154688343Y-74041343D01*
X154712729Y-74038941D01*
X154736178Y-74031828D01*
X154757789Y-74020277D01*
X154776731Y-74004732D01*
X154792276Y-73985790D01*
X154803828Y-73964180D01*
X154810941Y-73940731D01*
X154813343Y-73916345D01*
X154810942Y-73891964D01*
X154788303Y-73778152D01*
X154788303Y-73659822D01*
X154810940Y-73546017D01*
X154813342Y-73521631D01*
X154810940Y-73497245D01*
X154803827Y-73473796D01*
X154792276Y-73452185D01*
X154776731Y-73433243D01*
X154757789Y-73417698D01*
X154736178Y-73406147D01*
X154712729Y-73399034D01*
X154688343Y-73396632D01*
X154663965Y-73399033D01*
X154550152Y-73421672D01*
X154431821Y-73421672D01*
X154318018Y-73399035D01*
X154293632Y-73396633D01*
X154269246Y-73399035D01*
X154245797Y-73406148D01*
X154224186Y-73417699D01*
X154205244Y-73433244D01*
X154189699Y-73452186D01*
X154178148Y-73473797D01*
X154171035Y-73497246D01*
X154168633Y-73521632D01*
X154171035Y-73546017D01*
X154193672Y-73659822D01*
X154193672Y-73778152D01*
X154171033Y-73891965D01*
X154168632Y-73916342D01*
X153024506Y-73916342D01*
X153015337Y-73894208D01*
X152992252Y-73778152D01*
X152992252Y-73659822D01*
X153014889Y-73546017D01*
X153017291Y-73521631D01*
X153014889Y-73497245D01*
X153007776Y-73473796D01*
X152996225Y-73452185D01*
X152980680Y-73433243D01*
X152961738Y-73417698D01*
X152940127Y-73406147D01*
X152916678Y-73399034D01*
X152892292Y-73396632D01*
X152867914Y-73399033D01*
X152754101Y-73421672D01*
X152635771Y-73421672D01*
X152519715Y-73398587D01*
X152410393Y-73353305D01*
X152312005Y-73287564D01*
X152228334Y-73203893D01*
X152162593Y-73105505D01*
X152117311Y-72996183D01*
X152094226Y-72880127D01*
X152094226Y-72761797D01*
X152117311Y-72645741D01*
X152126480Y-72623604D01*
X153270606Y-72623604D01*
X153273007Y-72647985D01*
X153295646Y-72761797D01*
X153295646Y-72880128D01*
X153273009Y-72993932D01*
X153270607Y-73018318D01*
X153273009Y-73042704D01*
X153280122Y-73066153D01*
X153291673Y-73087764D01*
X153307218Y-73106706D01*
X153326160Y-73122251D01*
X153347771Y-73133802D01*
X153371220Y-73140915D01*
X153395606Y-73143317D01*
X153419984Y-73140916D01*
X153533797Y-73118277D01*
X153652128Y-73118277D01*
X153765931Y-73140914D01*
X153790317Y-73143316D01*
X153814703Y-73140914D01*
X153838152Y-73133801D01*
X153859763Y-73122250D01*
X153878705Y-73106705D01*
X153894250Y-73087763D01*
X153905801Y-73066152D01*
X153912914Y-73042703D01*
X153915316Y-73018317D01*
X153912914Y-72993931D01*
X153890277Y-72880128D01*
X153890277Y-72761797D01*
X153912916Y-72647984D01*
X153915317Y-72623607D01*
X153912915Y-72599221D01*
X153905802Y-72575772D01*
X153894251Y-72554161D01*
X153878706Y-72535219D01*
X153859764Y-72519674D01*
X153838154Y-72508122D01*
X153814705Y-72501009D01*
X153790319Y-72498607D01*
X153765932Y-72501009D01*
X153652128Y-72523646D01*
X153533797Y-72523646D01*
X153419985Y-72501007D01*
X153395606Y-72498606D01*
X153371220Y-72501008D01*
X153347771Y-72508121D01*
X153326160Y-72519672D01*
X153307218Y-72535217D01*
X153291673Y-72554159D01*
X153280121Y-72575769D01*
X153273008Y-72599218D01*
X153270606Y-72623604D01*
X152126480Y-72623604D01*
X152162593Y-72536419D01*
X152228334Y-72438031D01*
X152312005Y-72354360D01*
X152410393Y-72288619D01*
X152519715Y-72243337D01*
X152635771Y-72220252D01*
X152754101Y-72220252D01*
X152867913Y-72242891D01*
X152892292Y-72245292D01*
X152916678Y-72242890D01*
X152940127Y-72235777D01*
X152961738Y-72224226D01*
X152980680Y-72208681D01*
X152996225Y-72189739D01*
X153007777Y-72168129D01*
X153014890Y-72144680D01*
X153017292Y-72120294D01*
X153014891Y-72095913D01*
X152992252Y-71982101D01*
X152992252Y-71863771D01*
X153015337Y-71747715D01*
X153060619Y-71638393D01*
X153126360Y-71540005D01*
X153210031Y-71456334D01*
X153308419Y-71390593D01*
X153417741Y-71345311D01*
X153533797Y-71322226D01*
X153652127Y-71322226D01*
X153768183Y-71345311D01*
X153768183Y-71345311D01*
G37*
G36*
X150172833Y-73679460D02*
G01*
X150207752Y-73690053D01*
X150239934Y-73707255D01*
X150272908Y-73734316D01*
X150325940Y-73787348D01*
X150325946Y-73787353D01*
X151256647Y-74718054D01*
X151256652Y-74718060D01*
X151309684Y-74771092D01*
X151336745Y-74804066D01*
X151353947Y-74836248D01*
X151364540Y-74871167D01*
X151368116Y-74907484D01*
X151364540Y-74943801D01*
X151353947Y-74978720D01*
X151336745Y-75010902D01*
X151309684Y-75043876D01*
X151256652Y-75096908D01*
X151256647Y-75096914D01*
X150555756Y-75797805D01*
X150555750Y-75797810D01*
X150502718Y-75850842D01*
X150469744Y-75877903D01*
X150437562Y-75895105D01*
X150402643Y-75905698D01*
X150366326Y-75909274D01*
X150330009Y-75905698D01*
X150295090Y-75895105D01*
X150262908Y-75877903D01*
X150229934Y-75850842D01*
X150176902Y-75797810D01*
X150176896Y-75797805D01*
X149246195Y-74867104D01*
X149246190Y-74867098D01*
X149193158Y-74814066D01*
X149166097Y-74781092D01*
X149148895Y-74748910D01*
X149138302Y-74713991D01*
X149134726Y-74677674D01*
X149138302Y-74641357D01*
X149148895Y-74606438D01*
X149166097Y-74574256D01*
X149193158Y-74541282D01*
X149246190Y-74488250D01*
X149246195Y-74488244D01*
X149947086Y-73787353D01*
X149947092Y-73787348D01*
X150000124Y-73734316D01*
X150033098Y-73707255D01*
X150065280Y-73690053D01*
X150100199Y-73679460D01*
X150136516Y-73675884D01*
X150172833Y-73679460D01*
X150172833Y-73679460D01*
G37*
G36*
X116519000Y-75463000D02*
G01*
X114417000Y-75463000D01*
X114417000Y-73861000D01*
X116519000Y-73861000D01*
X116519000Y-75463000D01*
X116519000Y-75463000D01*
G37*
G36*
X145519000Y-74007000D02*
G01*
X144367000Y-74007000D01*
X144367000Y-72805000D01*
X145519000Y-72805000D01*
X145519000Y-74007000D01*
X145519000Y-74007000D01*
G37*
G36*
X143669000Y-74007000D02*
G01*
X142517000Y-74007000D01*
X142517000Y-72805000D01*
X143669000Y-72805000D01*
X143669000Y-74007000D01*
X143669000Y-74007000D01*
G37*
G36*
X157921043Y-71058702D02*
G01*
X157955962Y-71069295D01*
X157988144Y-71086497D01*
X158021118Y-71113558D01*
X158074150Y-71166590D01*
X158074156Y-71166595D01*
X158775047Y-71867486D01*
X158775052Y-71867492D01*
X158828084Y-71920524D01*
X158855145Y-71953498D01*
X158872347Y-71985680D01*
X158882940Y-72020599D01*
X158886516Y-72056916D01*
X158882940Y-72093233D01*
X158872347Y-72128152D01*
X158855145Y-72160334D01*
X158828084Y-72193308D01*
X158775052Y-72246340D01*
X158775047Y-72246346D01*
X157844346Y-73177047D01*
X157844340Y-73177052D01*
X157791308Y-73230084D01*
X157758334Y-73257145D01*
X157726152Y-73274347D01*
X157691233Y-73284940D01*
X157654916Y-73288516D01*
X157618599Y-73284940D01*
X157583680Y-73274347D01*
X157551498Y-73257145D01*
X157518524Y-73230084D01*
X157465492Y-73177052D01*
X157465486Y-73177047D01*
X156764595Y-72476156D01*
X156764590Y-72476150D01*
X156711558Y-72423118D01*
X156684497Y-72390144D01*
X156667295Y-72357962D01*
X156656702Y-72323043D01*
X156653126Y-72286726D01*
X156656702Y-72250409D01*
X156667295Y-72215490D01*
X156684497Y-72183308D01*
X156711558Y-72150334D01*
X156764590Y-72097302D01*
X156764595Y-72097296D01*
X157695296Y-71166595D01*
X157695302Y-71166590D01*
X157748334Y-71113558D01*
X157781308Y-71086497D01*
X157813490Y-71069295D01*
X157848409Y-71058702D01*
X157884726Y-71055126D01*
X157921043Y-71058702D01*
X157921043Y-71058702D01*
G37*
G36*
X137299875Y-70207479D02*
G01*
X137373516Y-70229818D01*
X137410337Y-70240987D01*
X137512139Y-70295402D01*
X137569227Y-70342253D01*
X137601369Y-70368631D01*
X137674598Y-70457861D01*
X137674599Y-70457863D01*
X137729013Y-70559662D01*
X137729524Y-70561347D01*
X137762521Y-70670124D01*
X137762521Y-70670126D01*
X137771000Y-70756214D01*
X137771000Y-71543786D01*
X137769302Y-71561024D01*
X137762521Y-71629876D01*
X137740182Y-71703517D01*
X137729013Y-71740338D01*
X137674598Y-71842140D01*
X137601370Y-71931370D01*
X137512140Y-72004598D01*
X137410338Y-72059013D01*
X137373517Y-72070182D01*
X137299876Y-72092521D01*
X137185000Y-72103835D01*
X137070125Y-72092521D01*
X136996484Y-72070182D01*
X136959663Y-72059013D01*
X136857861Y-72004598D01*
X136768631Y-71931370D01*
X136695402Y-71842138D01*
X136660240Y-71776355D01*
X136646627Y-71755980D01*
X136629300Y-71738653D01*
X136608925Y-71725040D01*
X136586286Y-71715662D01*
X136562253Y-71710882D01*
X136537749Y-71710882D01*
X136513716Y-71715662D01*
X136491077Y-71725040D01*
X136470702Y-71738653D01*
X136453375Y-71755980D01*
X136439762Y-71776354D01*
X136404598Y-71842140D01*
X136331370Y-71931370D01*
X136242140Y-72004598D01*
X136140338Y-72059013D01*
X136103517Y-72070182D01*
X136029876Y-72092521D01*
X135915000Y-72103835D01*
X135800125Y-72092521D01*
X135726484Y-72070182D01*
X135689663Y-72059013D01*
X135587861Y-72004598D01*
X135498631Y-71931370D01*
X135425402Y-71842138D01*
X135390240Y-71776355D01*
X135376627Y-71755980D01*
X135359300Y-71738653D01*
X135338925Y-71725040D01*
X135316286Y-71715662D01*
X135292253Y-71710882D01*
X135267749Y-71710882D01*
X135243716Y-71715662D01*
X135221077Y-71725040D01*
X135200702Y-71738653D01*
X135183375Y-71755980D01*
X135169762Y-71776354D01*
X135134598Y-71842140D01*
X135061370Y-71931370D01*
X134972140Y-72004598D01*
X134870338Y-72059013D01*
X134833517Y-72070182D01*
X134759876Y-72092521D01*
X134645000Y-72103835D01*
X134530125Y-72092521D01*
X134456484Y-72070182D01*
X134419663Y-72059013D01*
X134317861Y-72004598D01*
X134228631Y-71931370D01*
X134182625Y-71875310D01*
X134165298Y-71857983D01*
X134144924Y-71844369D01*
X134122285Y-71834992D01*
X134098252Y-71830211D01*
X134073748Y-71830211D01*
X134049714Y-71834991D01*
X134027076Y-71844368D01*
X134006701Y-71857982D01*
X133989374Y-71875309D01*
X133975760Y-71895683D01*
X133966383Y-71918322D01*
X133961602Y-71942355D01*
X133961000Y-71954608D01*
X133961000Y-72101000D01*
X132789000Y-72101000D01*
X132789000Y-70199000D01*
X133961000Y-70199000D01*
X133961000Y-70345392D01*
X133963402Y-70369778D01*
X133970515Y-70393227D01*
X133982066Y-70414838D01*
X133997611Y-70433780D01*
X134016553Y-70449325D01*
X134038164Y-70460876D01*
X134061613Y-70467989D01*
X134085999Y-70470391D01*
X134110385Y-70467989D01*
X134133834Y-70460876D01*
X134155445Y-70449325D01*
X134174387Y-70433780D01*
X134182625Y-70424690D01*
X134208446Y-70393227D01*
X134228631Y-70368631D01*
X134317861Y-70295402D01*
X134329507Y-70289177D01*
X134419662Y-70240987D01*
X134456483Y-70229818D01*
X134530124Y-70207479D01*
X134645000Y-70196165D01*
X134759875Y-70207479D01*
X134833516Y-70229818D01*
X134870337Y-70240987D01*
X134972139Y-70295402D01*
X135029227Y-70342253D01*
X135061369Y-70368631D01*
X135134598Y-70457861D01*
X135134601Y-70457865D01*
X135169761Y-70523645D01*
X135183374Y-70544020D01*
X135200701Y-70561347D01*
X135221076Y-70574960D01*
X135243715Y-70584338D01*
X135267748Y-70589118D01*
X135292252Y-70589118D01*
X135316285Y-70584338D01*
X135338924Y-70574960D01*
X135359299Y-70561347D01*
X135376626Y-70544020D01*
X135390239Y-70523646D01*
X135425402Y-70457861D01*
X135478446Y-70393227D01*
X135498631Y-70368631D01*
X135587861Y-70295402D01*
X135599507Y-70289177D01*
X135689662Y-70240987D01*
X135726483Y-70229818D01*
X135800124Y-70207479D01*
X135915000Y-70196165D01*
X136029875Y-70207479D01*
X136103516Y-70229818D01*
X136140337Y-70240987D01*
X136242139Y-70295402D01*
X136299227Y-70342253D01*
X136331369Y-70368631D01*
X136404598Y-70457861D01*
X136404601Y-70457865D01*
X136439761Y-70523645D01*
X136453374Y-70544020D01*
X136470701Y-70561347D01*
X136491076Y-70574960D01*
X136513715Y-70584338D01*
X136537748Y-70589118D01*
X136562252Y-70589118D01*
X136586285Y-70584338D01*
X136608924Y-70574960D01*
X136629299Y-70561347D01*
X136646626Y-70544020D01*
X136660239Y-70523646D01*
X136695402Y-70457861D01*
X136748446Y-70393227D01*
X136768631Y-70368631D01*
X136857861Y-70295402D01*
X136869507Y-70289177D01*
X136959662Y-70240987D01*
X136996483Y-70229818D01*
X137070124Y-70207479D01*
X137185000Y-70196165D01*
X137299875Y-70207479D01*
X137299875Y-70207479D01*
G37*
G36*
X146317562Y-70070181D02*
G01*
X146352481Y-70080774D01*
X146384663Y-70097976D01*
X146412873Y-70121127D01*
X146436024Y-70149337D01*
X146453226Y-70181519D01*
X146463819Y-70216438D01*
X146468000Y-70258895D01*
X146468000Y-71400105D01*
X146463819Y-71442562D01*
X146453226Y-71477481D01*
X146436024Y-71509663D01*
X146412873Y-71537873D01*
X146384663Y-71561024D01*
X146352481Y-71578226D01*
X146317562Y-71588819D01*
X146275105Y-71593000D01*
X144808895Y-71593000D01*
X144766438Y-71588819D01*
X144731519Y-71578226D01*
X144699337Y-71561024D01*
X144671127Y-71537873D01*
X144647976Y-71509663D01*
X144630774Y-71477481D01*
X144620181Y-71442562D01*
X144616000Y-71400105D01*
X144616000Y-70258895D01*
X144620181Y-70216438D01*
X144630774Y-70181519D01*
X144647976Y-70149337D01*
X144671127Y-70121127D01*
X144699337Y-70097976D01*
X144731519Y-70080774D01*
X144766438Y-70070181D01*
X144808895Y-70066000D01*
X146275105Y-70066000D01*
X146317562Y-70070181D01*
X146317562Y-70070181D01*
G37*
G36*
X143269562Y-70070181D02*
G01*
X143304481Y-70080774D01*
X143336663Y-70097976D01*
X143364873Y-70121127D01*
X143388024Y-70149337D01*
X143405226Y-70181519D01*
X143415819Y-70216438D01*
X143420000Y-70258895D01*
X143420000Y-71400105D01*
X143415819Y-71442562D01*
X143405226Y-71477481D01*
X143388024Y-71509663D01*
X143364873Y-71537873D01*
X143336663Y-71561024D01*
X143304481Y-71578226D01*
X143269562Y-71588819D01*
X143227105Y-71593000D01*
X141760895Y-71593000D01*
X141718438Y-71588819D01*
X141683519Y-71578226D01*
X141651337Y-71561024D01*
X141623127Y-71537873D01*
X141599976Y-71509663D01*
X141582774Y-71477481D01*
X141572181Y-71442562D01*
X141568000Y-71400105D01*
X141568000Y-70258895D01*
X141572181Y-70216438D01*
X141582774Y-70181519D01*
X141599976Y-70149337D01*
X141623127Y-70121127D01*
X141651337Y-70097976D01*
X141683519Y-70080774D01*
X141718438Y-70070181D01*
X141760895Y-70066000D01*
X143227105Y-70066000D01*
X143269562Y-70070181D01*
X143269562Y-70070181D01*
G37*
G36*
X155817401Y-68955060D02*
G01*
X155852320Y-68965653D01*
X155884502Y-68982855D01*
X155917476Y-69009916D01*
X155970508Y-69062948D01*
X155970514Y-69062953D01*
X156671405Y-69763844D01*
X156671410Y-69763850D01*
X156724442Y-69816882D01*
X156751503Y-69849856D01*
X156768705Y-69882038D01*
X156779298Y-69916957D01*
X156782874Y-69953274D01*
X156779298Y-69989591D01*
X156768705Y-70024510D01*
X156751503Y-70056692D01*
X156724442Y-70089666D01*
X156671410Y-70142698D01*
X156671405Y-70142704D01*
X155740704Y-71073405D01*
X155740698Y-71073410D01*
X155687666Y-71126442D01*
X155654692Y-71153503D01*
X155622510Y-71170705D01*
X155587591Y-71181298D01*
X155551274Y-71184874D01*
X155514957Y-71181298D01*
X155480038Y-71170705D01*
X155447856Y-71153503D01*
X155414882Y-71126442D01*
X155361850Y-71073410D01*
X155361844Y-71073405D01*
X154660953Y-70372514D01*
X154660948Y-70372508D01*
X154607916Y-70319476D01*
X154580855Y-70286502D01*
X154563653Y-70254320D01*
X154553060Y-70219401D01*
X154549484Y-70183084D01*
X154553060Y-70146767D01*
X154563653Y-70111848D01*
X154580855Y-70079666D01*
X154607916Y-70046692D01*
X154660948Y-69993660D01*
X154660953Y-69993654D01*
X155591654Y-69062953D01*
X155591660Y-69062948D01*
X155644692Y-69009916D01*
X155677666Y-68982855D01*
X155709848Y-68965653D01*
X155744767Y-68955060D01*
X155781084Y-68951484D01*
X155817401Y-68955060D01*
X155817401Y-68955060D01*
G37*
G36*
X143269562Y-67095181D02*
G01*
X143304481Y-67105774D01*
X143336663Y-67122976D01*
X143364873Y-67146127D01*
X143388024Y-67174337D01*
X143405226Y-67206519D01*
X143415819Y-67241438D01*
X143420000Y-67283895D01*
X143420000Y-68425105D01*
X143415819Y-68467562D01*
X143405226Y-68502481D01*
X143388024Y-68534663D01*
X143364873Y-68562873D01*
X143336663Y-68586024D01*
X143304481Y-68603226D01*
X143269562Y-68613819D01*
X143227105Y-68618000D01*
X141760895Y-68618000D01*
X141718438Y-68613819D01*
X141683519Y-68603226D01*
X141651337Y-68586024D01*
X141623127Y-68562873D01*
X141599976Y-68534663D01*
X141582774Y-68502481D01*
X141572181Y-68467562D01*
X141568000Y-68425105D01*
X141568000Y-67283895D01*
X141572181Y-67241438D01*
X141582774Y-67206519D01*
X141599976Y-67174337D01*
X141623127Y-67146127D01*
X141651337Y-67122976D01*
X141683519Y-67105774D01*
X141718438Y-67095181D01*
X141760895Y-67091000D01*
X143227105Y-67091000D01*
X143269562Y-67095181D01*
X143269562Y-67095181D01*
G37*
G36*
X146317562Y-67095181D02*
G01*
X146352481Y-67105774D01*
X146384663Y-67122976D01*
X146412873Y-67146127D01*
X146436024Y-67174337D01*
X146453226Y-67206519D01*
X146463819Y-67241438D01*
X146468000Y-67283895D01*
X146468000Y-68425105D01*
X146463819Y-68467562D01*
X146453226Y-68502481D01*
X146436024Y-68534663D01*
X146412873Y-68562873D01*
X146384663Y-68586024D01*
X146352481Y-68603226D01*
X146317562Y-68613819D01*
X146275105Y-68618000D01*
X144808895Y-68618000D01*
X144766438Y-68613819D01*
X144731519Y-68603226D01*
X144699337Y-68586024D01*
X144671127Y-68562873D01*
X144647976Y-68534663D01*
X144630774Y-68502481D01*
X144620181Y-68467562D01*
X144616000Y-68425105D01*
X144616000Y-67283895D01*
X144620181Y-67241438D01*
X144630774Y-67206519D01*
X144647976Y-67174337D01*
X144671127Y-67146127D01*
X144699337Y-67122976D01*
X144731519Y-67105774D01*
X144766438Y-67095181D01*
X144808895Y-67091000D01*
X146275105Y-67091000D01*
X146317562Y-67095181D01*
X146317562Y-67095181D01*
G37*
G36*
X120445765Y-66054620D02*
G01*
X120635288Y-66133123D01*
X120805854Y-66247092D01*
X120950908Y-66392146D01*
X120950909Y-66392148D01*
X121064878Y-66562714D01*
X121143380Y-66752235D01*
X121183400Y-66953430D01*
X121183400Y-67158570D01*
X121163945Y-67256376D01*
X121143380Y-67359765D01*
X121064877Y-67549288D01*
X120950908Y-67719854D01*
X120805854Y-67864908D01*
X120635288Y-67978877D01*
X120635287Y-67978878D01*
X120635286Y-67978878D01*
X120445765Y-68057380D01*
X120244570Y-68097400D01*
X120039430Y-68097400D01*
X119838235Y-68057380D01*
X119648714Y-67978878D01*
X119648713Y-67978878D01*
X119648712Y-67978877D01*
X119478146Y-67864908D01*
X119333092Y-67719854D01*
X119219123Y-67549288D01*
X119140620Y-67359765D01*
X119120055Y-67256376D01*
X119100600Y-67158570D01*
X119100600Y-66953430D01*
X119140620Y-66752235D01*
X119219122Y-66562714D01*
X119333091Y-66392148D01*
X119333092Y-66392146D01*
X119478146Y-66247092D01*
X119648712Y-66133123D01*
X119838235Y-66054620D01*
X120039430Y-66014600D01*
X120244570Y-66014600D01*
X120445765Y-66054620D01*
X120445765Y-66054620D01*
G37*
G36*
X117905765Y-66054620D02*
G01*
X118095288Y-66133123D01*
X118265854Y-66247092D01*
X118410908Y-66392146D01*
X118410909Y-66392148D01*
X118524878Y-66562714D01*
X118603380Y-66752235D01*
X118643400Y-66953430D01*
X118643400Y-67158570D01*
X118623945Y-67256376D01*
X118603380Y-67359765D01*
X118524877Y-67549288D01*
X118410908Y-67719854D01*
X118265854Y-67864908D01*
X118095288Y-67978877D01*
X118095287Y-67978878D01*
X118095286Y-67978878D01*
X117905765Y-68057380D01*
X117704570Y-68097400D01*
X117499430Y-68097400D01*
X117298235Y-68057380D01*
X117108714Y-67978878D01*
X117108713Y-67978878D01*
X117108712Y-67978877D01*
X116938146Y-67864908D01*
X116793092Y-67719854D01*
X116679123Y-67549288D01*
X116600620Y-67359765D01*
X116580055Y-67256376D01*
X116560600Y-67158570D01*
X116560600Y-66953430D01*
X116600620Y-66752235D01*
X116679122Y-66562714D01*
X116793091Y-66392148D01*
X116793092Y-66392146D01*
X116938146Y-66247092D01*
X117108712Y-66133123D01*
X117298235Y-66054620D01*
X117499430Y-66014600D01*
X117704570Y-66014600D01*
X117905765Y-66054620D01*
X117905765Y-66054620D01*
G37*
G36*
X154475562Y-64140681D02*
G01*
X154510481Y-64151274D01*
X154542663Y-64168476D01*
X154570873Y-64191627D01*
X154594024Y-64219837D01*
X154611226Y-64252019D01*
X154621819Y-64286938D01*
X154626000Y-64329395D01*
X154626000Y-65470605D01*
X154621819Y-65513062D01*
X154611226Y-65547981D01*
X154594024Y-65580163D01*
X154570873Y-65608373D01*
X154542663Y-65631524D01*
X154510481Y-65648726D01*
X154475562Y-65659319D01*
X154433105Y-65663500D01*
X152966895Y-65663500D01*
X152924438Y-65659319D01*
X152889519Y-65648726D01*
X152857337Y-65631524D01*
X152829127Y-65608373D01*
X152805976Y-65580163D01*
X152788774Y-65547981D01*
X152778181Y-65513062D01*
X152774000Y-65470605D01*
X152774000Y-64329395D01*
X152778181Y-64286938D01*
X152788774Y-64252019D01*
X152805976Y-64219837D01*
X152829127Y-64191627D01*
X152857337Y-64168476D01*
X152889519Y-64151274D01*
X152924438Y-64140681D01*
X152966895Y-64136500D01*
X154433105Y-64136500D01*
X154475562Y-64140681D01*
X154475562Y-64140681D01*
G37*
G36*
X157425562Y-64140681D02*
G01*
X157460481Y-64151274D01*
X157492663Y-64168476D01*
X157520873Y-64191627D01*
X157544024Y-64219837D01*
X157561226Y-64252019D01*
X157571819Y-64286938D01*
X157576000Y-64329395D01*
X157576000Y-65470605D01*
X157571819Y-65513062D01*
X157561226Y-65547981D01*
X157544024Y-65580163D01*
X157520873Y-65608373D01*
X157492663Y-65631524D01*
X157460481Y-65648726D01*
X157425562Y-65659319D01*
X157383105Y-65663500D01*
X155916895Y-65663500D01*
X155874438Y-65659319D01*
X155839519Y-65648726D01*
X155807337Y-65631524D01*
X155779127Y-65608373D01*
X155755976Y-65580163D01*
X155738774Y-65547981D01*
X155728181Y-65513062D01*
X155724000Y-65470605D01*
X155724000Y-64329395D01*
X155728181Y-64286938D01*
X155738774Y-64252019D01*
X155755976Y-64219837D01*
X155779127Y-64191627D01*
X155807337Y-64168476D01*
X155839519Y-64151274D01*
X155874438Y-64140681D01*
X155916895Y-64136500D01*
X157383105Y-64136500D01*
X157425562Y-64140681D01*
X157425562Y-64140681D01*
G37*
G36*
X120445765Y-63514620D02*
G01*
X120635288Y-63593123D01*
X120805854Y-63707092D01*
X120950908Y-63852146D01*
X121064877Y-64022712D01*
X121143380Y-64212235D01*
X121183400Y-64413431D01*
X121183400Y-64618569D01*
X121143380Y-64819765D01*
X121064877Y-65009288D01*
X120950908Y-65179854D01*
X120805854Y-65324908D01*
X120635288Y-65438877D01*
X120635287Y-65438878D01*
X120635286Y-65438878D01*
X120445765Y-65517380D01*
X120244570Y-65557400D01*
X120039430Y-65557400D01*
X119838235Y-65517380D01*
X119648714Y-65438878D01*
X119648713Y-65438878D01*
X119648712Y-65438877D01*
X119478146Y-65324908D01*
X119333092Y-65179854D01*
X119219123Y-65009288D01*
X119140620Y-64819765D01*
X119100600Y-64618569D01*
X119100600Y-64413431D01*
X119140620Y-64212235D01*
X119219123Y-64022712D01*
X119333092Y-63852146D01*
X119478146Y-63707092D01*
X119648712Y-63593123D01*
X119838235Y-63514620D01*
X120039430Y-63474600D01*
X120244570Y-63474600D01*
X120445765Y-63514620D01*
X120445765Y-63514620D01*
G37*
G36*
X117905765Y-63514620D02*
G01*
X118095288Y-63593123D01*
X118265854Y-63707092D01*
X118410908Y-63852146D01*
X118524877Y-64022712D01*
X118603380Y-64212235D01*
X118643400Y-64413431D01*
X118643400Y-64618569D01*
X118603380Y-64819765D01*
X118524877Y-65009288D01*
X118410908Y-65179854D01*
X118265854Y-65324908D01*
X118095288Y-65438877D01*
X118095287Y-65438878D01*
X118095286Y-65438878D01*
X117905765Y-65517380D01*
X117704570Y-65557400D01*
X117499430Y-65557400D01*
X117298235Y-65517380D01*
X117108714Y-65438878D01*
X117108713Y-65438878D01*
X117108712Y-65438877D01*
X116938146Y-65324908D01*
X116793092Y-65179854D01*
X116679123Y-65009288D01*
X116600620Y-64819765D01*
X116560600Y-64618569D01*
X116560600Y-64413431D01*
X116600620Y-64212235D01*
X116679123Y-64022712D01*
X116793092Y-63852146D01*
X116938146Y-63707092D01*
X117108712Y-63593123D01*
X117298235Y-63514620D01*
X117499430Y-63474600D01*
X117704570Y-63474600D01*
X117905765Y-63514620D01*
X117905765Y-63514620D01*
G37*
G36*
X120445765Y-60974620D02*
G01*
X120635288Y-61053123D01*
X120805854Y-61167092D01*
X120950908Y-61312146D01*
X121064877Y-61482712D01*
X121143380Y-61672235D01*
X121183400Y-61873431D01*
X121183400Y-62078569D01*
X121143380Y-62279765D01*
X121064877Y-62469288D01*
X120950908Y-62639854D01*
X120805854Y-62784908D01*
X120635288Y-62898877D01*
X120635287Y-62898878D01*
X120635286Y-62898878D01*
X120445765Y-62977380D01*
X120244570Y-63017400D01*
X120039430Y-63017400D01*
X119838235Y-62977380D01*
X119648714Y-62898878D01*
X119648713Y-62898878D01*
X119648712Y-62898877D01*
X119478146Y-62784908D01*
X119333092Y-62639854D01*
X119219123Y-62469288D01*
X119140620Y-62279765D01*
X119100600Y-62078569D01*
X119100600Y-61873431D01*
X119140620Y-61672235D01*
X119219123Y-61482712D01*
X119333092Y-61312146D01*
X119478146Y-61167092D01*
X119648712Y-61053123D01*
X119838235Y-60974620D01*
X120039430Y-60934600D01*
X120244570Y-60934600D01*
X120445765Y-60974620D01*
X120445765Y-60974620D01*
G37*
G36*
X117905765Y-60974620D02*
G01*
X118095288Y-61053123D01*
X118265854Y-61167092D01*
X118410908Y-61312146D01*
X118524877Y-61482712D01*
X118603380Y-61672235D01*
X118643400Y-61873431D01*
X118643400Y-62078569D01*
X118603380Y-62279765D01*
X118524877Y-62469288D01*
X118410908Y-62639854D01*
X118265854Y-62784908D01*
X118095288Y-62898877D01*
X118095287Y-62898878D01*
X118095286Y-62898878D01*
X117905765Y-62977380D01*
X117704570Y-63017400D01*
X117499430Y-63017400D01*
X117298235Y-62977380D01*
X117108714Y-62898878D01*
X117108713Y-62898878D01*
X117108712Y-62898877D01*
X116938146Y-62784908D01*
X116793092Y-62639854D01*
X116679123Y-62469288D01*
X116600620Y-62279765D01*
X116560600Y-62078569D01*
X116560600Y-61873431D01*
X116600620Y-61672235D01*
X116679123Y-61482712D01*
X116793092Y-61312146D01*
X116938146Y-61167092D01*
X117108712Y-61053123D01*
X117298235Y-60974620D01*
X117499430Y-60934600D01*
X117704570Y-60934600D01*
X117905765Y-60974620D01*
X117905765Y-60974620D01*
G37*
G36*
X157425562Y-61165681D02*
G01*
X157460481Y-61176274D01*
X157492663Y-61193476D01*
X157520873Y-61216627D01*
X157544024Y-61244837D01*
X157561226Y-61277019D01*
X157571819Y-61311938D01*
X157576000Y-61354395D01*
X157576000Y-62495605D01*
X157571819Y-62538062D01*
X157561226Y-62572981D01*
X157544024Y-62605163D01*
X157520873Y-62633373D01*
X157492663Y-62656524D01*
X157460481Y-62673726D01*
X157425562Y-62684319D01*
X157383105Y-62688500D01*
X155916895Y-62688500D01*
X155874438Y-62684319D01*
X155839519Y-62673726D01*
X155807337Y-62656524D01*
X155779127Y-62633373D01*
X155755976Y-62605163D01*
X155738774Y-62572981D01*
X155728181Y-62538062D01*
X155724000Y-62495605D01*
X155724000Y-61354395D01*
X155728181Y-61311938D01*
X155738774Y-61277019D01*
X155755976Y-61244837D01*
X155779127Y-61216627D01*
X155807337Y-61193476D01*
X155839519Y-61176274D01*
X155874438Y-61165681D01*
X155916895Y-61161500D01*
X157383105Y-61161500D01*
X157425562Y-61165681D01*
X157425562Y-61165681D01*
G37*
G36*
X154475562Y-61165681D02*
G01*
X154510481Y-61176274D01*
X154542663Y-61193476D01*
X154570873Y-61216627D01*
X154594024Y-61244837D01*
X154611226Y-61277019D01*
X154621819Y-61311938D01*
X154626000Y-61354395D01*
X154626000Y-62495605D01*
X154621819Y-62538062D01*
X154611226Y-62572981D01*
X154594024Y-62605163D01*
X154570873Y-62633373D01*
X154542663Y-62656524D01*
X154510481Y-62673726D01*
X154475562Y-62684319D01*
X154433105Y-62688500D01*
X152966895Y-62688500D01*
X152924438Y-62684319D01*
X152889519Y-62673726D01*
X152857337Y-62656524D01*
X152829127Y-62633373D01*
X152805976Y-62605163D01*
X152788774Y-62572981D01*
X152778181Y-62538062D01*
X152774000Y-62495605D01*
X152774000Y-61354395D01*
X152778181Y-61311938D01*
X152788774Y-61277019D01*
X152805976Y-61244837D01*
X152829127Y-61216627D01*
X152857337Y-61193476D01*
X152889519Y-61176274D01*
X152924438Y-61165681D01*
X152966895Y-61161500D01*
X154433105Y-61161500D01*
X154475562Y-61165681D01*
X154475562Y-61165681D01*
G37*
G36*
X120445765Y-58434620D02*
G01*
X120541482Y-58474267D01*
X120635288Y-58513123D01*
X120805854Y-58627092D01*
X120950908Y-58772146D01*
X121046634Y-58915410D01*
X121064878Y-58942714D01*
X121143380Y-59132235D01*
X121183400Y-59333430D01*
X121183400Y-59538570D01*
X121169170Y-59610108D01*
X121143380Y-59739765D01*
X121064877Y-59929288D01*
X120950908Y-60099854D01*
X120805854Y-60244908D01*
X120635288Y-60358877D01*
X120635287Y-60358878D01*
X120635286Y-60358878D01*
X120445765Y-60437380D01*
X120244570Y-60477400D01*
X120039430Y-60477400D01*
X119838235Y-60437380D01*
X119648714Y-60358878D01*
X119648713Y-60358878D01*
X119648712Y-60358877D01*
X119478146Y-60244908D01*
X119333092Y-60099854D01*
X119219123Y-59929288D01*
X119140620Y-59739765D01*
X119114830Y-59610108D01*
X119100600Y-59538570D01*
X119100600Y-59333430D01*
X119140620Y-59132235D01*
X119219122Y-58942714D01*
X119237366Y-58915410D01*
X119333092Y-58772146D01*
X119478146Y-58627092D01*
X119648712Y-58513123D01*
X119742519Y-58474267D01*
X119838235Y-58434620D01*
X120039430Y-58394600D01*
X120244570Y-58394600D01*
X120445765Y-58434620D01*
X120445765Y-58434620D01*
G37*
G36*
X117905765Y-58434620D02*
G01*
X118001482Y-58474267D01*
X118095288Y-58513123D01*
X118265854Y-58627092D01*
X118410908Y-58772146D01*
X118506634Y-58915410D01*
X118524878Y-58942714D01*
X118603380Y-59132235D01*
X118643400Y-59333430D01*
X118643400Y-59538570D01*
X118629170Y-59610108D01*
X118603380Y-59739765D01*
X118524877Y-59929288D01*
X118410908Y-60099854D01*
X118265854Y-60244908D01*
X118095288Y-60358877D01*
X118095287Y-60358878D01*
X118095286Y-60358878D01*
X117905765Y-60437380D01*
X117704570Y-60477400D01*
X117499430Y-60477400D01*
X117298235Y-60437380D01*
X117108714Y-60358878D01*
X117108713Y-60358878D01*
X117108712Y-60358877D01*
X116938146Y-60244908D01*
X116793092Y-60099854D01*
X116679123Y-59929288D01*
X116600620Y-59739765D01*
X116574830Y-59610108D01*
X116560600Y-59538570D01*
X116560600Y-59333430D01*
X116600620Y-59132235D01*
X116679122Y-58942714D01*
X116697366Y-58915410D01*
X116793092Y-58772146D01*
X116938146Y-58627092D01*
X117108712Y-58513123D01*
X117202519Y-58474267D01*
X117298235Y-58434620D01*
X117499430Y-58394600D01*
X117704570Y-58394600D01*
X117905765Y-58434620D01*
X117905765Y-58434620D01*
G37*
G36*
X129557585Y-56941802D02*
G01*
X129707410Y-56971604D01*
X129989674Y-57088521D01*
X130243705Y-57258259D01*
X130459741Y-57474295D01*
X130629479Y-57728326D01*
X130746396Y-58010590D01*
X130746396Y-58010591D01*
X130805538Y-58307914D01*
X130806000Y-58310240D01*
X130806000Y-58615760D01*
X130746396Y-58915410D01*
X130629479Y-59197674D01*
X130459741Y-59451705D01*
X130243705Y-59667741D01*
X129989674Y-59837479D01*
X129707410Y-59954396D01*
X129557585Y-59984198D01*
X129407761Y-60014000D01*
X129102239Y-60014000D01*
X128952415Y-59984198D01*
X128802590Y-59954396D01*
X128520326Y-59837479D01*
X128266295Y-59667741D01*
X128050259Y-59451705D01*
X127880521Y-59197674D01*
X127763604Y-58915410D01*
X127704000Y-58615760D01*
X127704000Y-58310240D01*
X127704463Y-58307914D01*
X127763604Y-58010591D01*
X127763604Y-58010590D01*
X127880521Y-57728326D01*
X128050259Y-57474295D01*
X128266295Y-57258259D01*
X128520326Y-57088521D01*
X128802590Y-56971604D01*
X128952415Y-56941802D01*
X129102239Y-56912000D01*
X129407761Y-56912000D01*
X129557585Y-56941802D01*
X129557585Y-56941802D01*
G37*
G36*
X141597585Y-56941802D02*
G01*
X141747410Y-56971604D01*
X142029674Y-57088521D01*
X142283705Y-57258259D01*
X142499741Y-57474295D01*
X142669479Y-57728326D01*
X142786396Y-58010590D01*
X142786396Y-58010591D01*
X142845538Y-58307914D01*
X142846000Y-58310240D01*
X142846000Y-58615760D01*
X142786396Y-58915410D01*
X142669479Y-59197674D01*
X142499741Y-59451705D01*
X142283705Y-59667741D01*
X142029674Y-59837479D01*
X141747410Y-59954396D01*
X141597585Y-59984198D01*
X141447761Y-60014000D01*
X141142239Y-60014000D01*
X140992415Y-59984198D01*
X140842590Y-59954396D01*
X140560326Y-59837479D01*
X140306295Y-59667741D01*
X140090259Y-59451705D01*
X139920521Y-59197674D01*
X139803604Y-58915410D01*
X139744000Y-58615760D01*
X139744000Y-58310240D01*
X139744463Y-58307914D01*
X139803604Y-58010591D01*
X139803604Y-58010590D01*
X139920521Y-57728326D01*
X140090259Y-57474295D01*
X140306295Y-57258259D01*
X140560326Y-57088521D01*
X140842590Y-56971604D01*
X140992415Y-56941802D01*
X141142239Y-56912000D01*
X141447761Y-56912000D01*
X141597585Y-56941802D01*
X141597585Y-56941802D01*
G37*
G36*
X157664365Y-57799820D02*
G01*
X157853888Y-57878323D01*
X158024454Y-57992292D01*
X158169508Y-58137346D01*
X158269819Y-58287472D01*
X158283478Y-58307914D01*
X158361980Y-58497435D01*
X158402000Y-58698630D01*
X158402000Y-58903770D01*
X158361980Y-59104965D01*
X158284994Y-59290827D01*
X158283477Y-59294488D01*
X158169508Y-59465054D01*
X158024454Y-59610108D01*
X157853888Y-59724077D01*
X157853887Y-59724078D01*
X157853886Y-59724078D01*
X157664365Y-59802580D01*
X157463170Y-59842600D01*
X157258030Y-59842600D01*
X157056835Y-59802580D01*
X156867314Y-59724078D01*
X156867313Y-59724078D01*
X156867312Y-59724077D01*
X156696746Y-59610108D01*
X156551692Y-59465054D01*
X156437723Y-59294488D01*
X156436207Y-59290827D01*
X156359220Y-59104965D01*
X156319200Y-58903770D01*
X156319200Y-58698630D01*
X156359220Y-58497435D01*
X156437722Y-58307914D01*
X156451381Y-58287472D01*
X156551692Y-58137346D01*
X156696746Y-57992292D01*
X156867312Y-57878323D01*
X157056835Y-57799820D01*
X157258030Y-57759800D01*
X157463170Y-57759800D01*
X157664365Y-57799820D01*
X157664365Y-57799820D01*
G37*
G36*
X153143165Y-57799820D02*
G01*
X153332688Y-57878323D01*
X153503254Y-57992292D01*
X153648308Y-58137346D01*
X153748619Y-58287472D01*
X153762278Y-58307914D01*
X153840780Y-58497435D01*
X153880800Y-58698630D01*
X153880800Y-58903770D01*
X153840780Y-59104965D01*
X153763794Y-59290827D01*
X153762277Y-59294488D01*
X153648308Y-59465054D01*
X153503254Y-59610108D01*
X153332688Y-59724077D01*
X153332687Y-59724078D01*
X153332686Y-59724078D01*
X153143165Y-59802580D01*
X152941970Y-59842600D01*
X152736830Y-59842600D01*
X152535635Y-59802580D01*
X152346114Y-59724078D01*
X152346113Y-59724078D01*
X152346112Y-59724077D01*
X152175546Y-59610108D01*
X152030492Y-59465054D01*
X151916523Y-59294488D01*
X151915007Y-59290827D01*
X151838020Y-59104965D01*
X151798000Y-58903770D01*
X151798000Y-58698630D01*
X151838020Y-58497435D01*
X151916522Y-58307914D01*
X151930181Y-58287472D01*
X152030492Y-58137346D01*
X152175546Y-57992292D01*
X152346112Y-57878323D01*
X152535635Y-57799820D01*
X152736830Y-57759800D01*
X152941970Y-57759800D01*
X153143165Y-57799820D01*
X153143165Y-57799820D01*
G37*
G36*
X136744059Y-58230860D02*
G01*
X136880732Y-58287472D01*
X137003735Y-58369660D01*
X137108340Y-58474265D01*
X137134303Y-58513122D01*
X137190529Y-58597270D01*
X137201828Y-58624549D01*
X137247140Y-58733941D01*
X137276000Y-58879033D01*
X137276000Y-59026967D01*
X137247140Y-59172059D01*
X137190528Y-59308732D01*
X137108340Y-59431735D01*
X137003735Y-59536340D01*
X136880732Y-59618528D01*
X136880731Y-59618529D01*
X136880730Y-59618529D01*
X136744059Y-59675140D01*
X136598968Y-59704000D01*
X136451032Y-59704000D01*
X136305941Y-59675140D01*
X136169270Y-59618529D01*
X136169269Y-59618529D01*
X136169268Y-59618528D01*
X136046265Y-59536340D01*
X135941660Y-59431735D01*
X135859472Y-59308732D01*
X135802860Y-59172059D01*
X135774000Y-59026967D01*
X135774000Y-58879033D01*
X135802860Y-58733941D01*
X135848172Y-58624549D01*
X135859471Y-58597270D01*
X135915697Y-58513122D01*
X135941660Y-58474265D01*
X136046265Y-58369660D01*
X136169268Y-58287472D01*
X136305941Y-58230860D01*
X136451032Y-58202000D01*
X136598968Y-58202000D01*
X136744059Y-58230860D01*
X136744059Y-58230860D01*
G37*
G36*
X134244059Y-58230860D02*
G01*
X134380732Y-58287472D01*
X134503735Y-58369660D01*
X134608340Y-58474265D01*
X134634303Y-58513122D01*
X134690529Y-58597270D01*
X134701828Y-58624549D01*
X134747140Y-58733941D01*
X134776000Y-58879033D01*
X134776000Y-59026967D01*
X134747140Y-59172059D01*
X134690528Y-59308732D01*
X134608340Y-59431735D01*
X134503735Y-59536340D01*
X134380732Y-59618528D01*
X134380731Y-59618529D01*
X134380730Y-59618529D01*
X134244059Y-59675140D01*
X134098968Y-59704000D01*
X133951032Y-59704000D01*
X133805941Y-59675140D01*
X133669270Y-59618529D01*
X133669269Y-59618529D01*
X133669268Y-59618528D01*
X133546265Y-59536340D01*
X133441660Y-59431735D01*
X133359472Y-59308732D01*
X133302860Y-59172059D01*
X133274000Y-59026967D01*
X133274000Y-58879033D01*
X133302860Y-58733941D01*
X133348172Y-58624549D01*
X133359471Y-58597270D01*
X133415697Y-58513122D01*
X133441660Y-58474265D01*
X133546265Y-58369660D01*
X133669268Y-58287472D01*
X133805941Y-58230860D01*
X133951032Y-58202000D01*
X134098968Y-58202000D01*
X134244059Y-58230860D01*
X134244059Y-58230860D01*
G37*
G36*
X112729674Y-58315465D02*
G01*
X112767367Y-58326899D01*
X112802103Y-58345466D01*
X112832548Y-58370452D01*
X112857534Y-58400897D01*
X112876101Y-58435633D01*
X112887535Y-58473326D01*
X112892000Y-58518661D01*
X112892000Y-59355339D01*
X112887535Y-59400674D01*
X112876101Y-59438367D01*
X112857534Y-59473103D01*
X112832548Y-59503548D01*
X112802103Y-59528534D01*
X112767367Y-59547101D01*
X112729674Y-59558535D01*
X112684339Y-59563000D01*
X111597661Y-59563000D01*
X111552326Y-59558535D01*
X111514633Y-59547101D01*
X111479897Y-59528534D01*
X111449452Y-59503548D01*
X111424466Y-59473103D01*
X111405899Y-59438367D01*
X111394465Y-59400674D01*
X111390000Y-59355339D01*
X111390000Y-58518661D01*
X111394465Y-58473326D01*
X111405899Y-58435633D01*
X111424466Y-58400897D01*
X111449452Y-58370452D01*
X111479897Y-58345466D01*
X111514633Y-58326899D01*
X111552326Y-58315465D01*
X111597661Y-58311000D01*
X112684339Y-58311000D01*
X112729674Y-58315465D01*
X112729674Y-58315465D01*
G37*
G36*
X125754550Y-56471116D02*
G01*
X125970470Y-56536615D01*
X126169462Y-56642978D01*
X126343881Y-56786120D01*
X126487023Y-56960539D01*
X126593386Y-57159531D01*
X126658885Y-57375451D01*
X126681001Y-57600000D01*
X126681001Y-58400000D01*
X126658885Y-58624549D01*
X126593386Y-58840469D01*
X126487023Y-59039461D01*
X126343881Y-59213880D01*
X126169462Y-59357022D01*
X125970470Y-59463385D01*
X125754550Y-59528884D01*
X125530001Y-59551000D01*
X125529999Y-59551000D01*
X125305450Y-59528884D01*
X125089530Y-59463385D01*
X124890538Y-59357022D01*
X124716119Y-59213880D01*
X124572977Y-59039461D01*
X124466614Y-58840469D01*
X124401115Y-58624549D01*
X124378999Y-58400000D01*
X124378999Y-57600000D01*
X124401115Y-57375451D01*
X124466614Y-57159531D01*
X124572977Y-56960539D01*
X124716119Y-56786120D01*
X124890538Y-56642978D01*
X125089530Y-56536615D01*
X125305450Y-56471116D01*
X125529999Y-56449000D01*
X125530001Y-56449000D01*
X125754550Y-56471116D01*
X125754550Y-56471116D01*
G37*
G36*
X145224550Y-56471116D02*
G01*
X145440470Y-56536615D01*
X145639462Y-56642978D01*
X145813881Y-56786120D01*
X145957023Y-56960539D01*
X146063386Y-57159531D01*
X146128885Y-57375451D01*
X146151001Y-57600000D01*
X146151001Y-58400000D01*
X146128885Y-58624549D01*
X146063386Y-58840469D01*
X145957023Y-59039461D01*
X145813881Y-59213880D01*
X145639462Y-59357022D01*
X145440470Y-59463385D01*
X145224550Y-59528884D01*
X145000001Y-59551000D01*
X144999999Y-59551000D01*
X144775450Y-59528884D01*
X144559530Y-59463385D01*
X144360538Y-59357022D01*
X144186119Y-59213880D01*
X144042977Y-59039461D01*
X143936614Y-58840469D01*
X143871115Y-58624549D01*
X143848999Y-58400000D01*
X143848999Y-57600000D01*
X143871115Y-57375451D01*
X143936614Y-57159531D01*
X144042977Y-56960539D01*
X144186119Y-56786120D01*
X144360538Y-56642978D01*
X144559530Y-56536615D01*
X144775450Y-56471116D01*
X144999999Y-56449000D01*
X145000001Y-56449000D01*
X145224550Y-56471116D01*
X145224550Y-56471116D01*
G37*
G36*
X120445765Y-55894620D02*
G01*
X120632720Y-55972059D01*
X120635288Y-55973123D01*
X120805854Y-56087092D01*
X120950908Y-56232146D01*
X121030255Y-56350897D01*
X121064878Y-56402714D01*
X121143380Y-56592235D01*
X121183400Y-56793430D01*
X121183400Y-56998570D01*
X121143380Y-57199765D01*
X121065259Y-57388367D01*
X121064877Y-57389288D01*
X120950908Y-57559854D01*
X120805854Y-57704908D01*
X120635288Y-57818877D01*
X120635287Y-57818878D01*
X120635286Y-57818878D01*
X120445765Y-57897380D01*
X120244570Y-57937400D01*
X120039430Y-57937400D01*
X119838235Y-57897380D01*
X119648714Y-57818878D01*
X119648713Y-57818878D01*
X119648712Y-57818877D01*
X119478146Y-57704908D01*
X119333092Y-57559854D01*
X119219123Y-57389288D01*
X119218742Y-57388367D01*
X119140620Y-57199765D01*
X119100600Y-56998570D01*
X119100600Y-56793430D01*
X119140620Y-56592235D01*
X119219122Y-56402714D01*
X119253745Y-56350897D01*
X119333092Y-56232146D01*
X119478146Y-56087092D01*
X119648712Y-55973123D01*
X119651281Y-55972059D01*
X119838235Y-55894620D01*
X120039430Y-55854600D01*
X120244570Y-55854600D01*
X120445765Y-55894620D01*
X120445765Y-55894620D01*
G37*
G36*
X117905765Y-55894620D02*
G01*
X118092720Y-55972059D01*
X118095288Y-55973123D01*
X118265854Y-56087092D01*
X118410908Y-56232146D01*
X118490255Y-56350897D01*
X118524878Y-56402714D01*
X118603380Y-56592235D01*
X118643400Y-56793430D01*
X118643400Y-56998570D01*
X118603380Y-57199765D01*
X118525259Y-57388367D01*
X118524877Y-57389288D01*
X118410908Y-57559854D01*
X118265854Y-57704908D01*
X118095288Y-57818877D01*
X118095287Y-57818878D01*
X118095286Y-57818878D01*
X117905765Y-57897380D01*
X117704570Y-57937400D01*
X117499430Y-57937400D01*
X117298235Y-57897380D01*
X117108714Y-57818878D01*
X117108713Y-57818878D01*
X117108712Y-57818877D01*
X116938146Y-57704908D01*
X116793092Y-57559854D01*
X116679123Y-57389288D01*
X116678742Y-57388367D01*
X116600620Y-57199765D01*
X116560600Y-56998570D01*
X116560600Y-56793430D01*
X116600620Y-56592235D01*
X116679122Y-56402714D01*
X116713745Y-56350897D01*
X116793092Y-56232146D01*
X116938146Y-56087092D01*
X117108712Y-55973123D01*
X117111281Y-55972059D01*
X117298235Y-55894620D01*
X117499430Y-55854600D01*
X117704570Y-55854600D01*
X117905765Y-55894620D01*
X117905765Y-55894620D01*
G37*
G36*
X112729674Y-56265465D02*
G01*
X112767367Y-56276899D01*
X112802103Y-56295466D01*
X112832548Y-56320452D01*
X112857534Y-56350897D01*
X112876101Y-56385633D01*
X112887535Y-56423326D01*
X112892000Y-56468661D01*
X112892000Y-57305339D01*
X112887535Y-57350674D01*
X112876101Y-57388367D01*
X112857534Y-57423103D01*
X112832548Y-57453548D01*
X112802103Y-57478534D01*
X112767367Y-57497101D01*
X112729674Y-57508535D01*
X112684339Y-57513000D01*
X111597661Y-57513000D01*
X111552326Y-57508535D01*
X111514633Y-57497101D01*
X111479897Y-57478534D01*
X111449452Y-57453548D01*
X111424466Y-57423103D01*
X111405899Y-57388367D01*
X111394465Y-57350674D01*
X111390000Y-57305339D01*
X111390000Y-56468661D01*
X111394465Y-56423326D01*
X111405899Y-56385633D01*
X111424466Y-56350897D01*
X111449452Y-56320452D01*
X111479897Y-56295466D01*
X111514633Y-56276899D01*
X111552326Y-56265465D01*
X111597661Y-56261000D01*
X112684339Y-56261000D01*
X112729674Y-56265465D01*
X112729674Y-56265465D01*
G37*
G36*
X134244059Y-55030860D02*
G01*
X134380732Y-55087472D01*
X134503735Y-55169660D01*
X134608340Y-55274265D01*
X134690528Y-55397268D01*
X134747140Y-55533941D01*
X134776000Y-55679033D01*
X134776000Y-55826967D01*
X134747140Y-55972059D01*
X134690528Y-56108732D01*
X134608340Y-56231735D01*
X134503735Y-56336340D01*
X134380732Y-56418528D01*
X134380731Y-56418529D01*
X134380730Y-56418529D01*
X134244059Y-56475140D01*
X134098968Y-56504000D01*
X133951032Y-56504000D01*
X133805941Y-56475140D01*
X133669270Y-56418529D01*
X133669269Y-56418529D01*
X133669268Y-56418528D01*
X133546265Y-56336340D01*
X133441660Y-56231735D01*
X133359472Y-56108732D01*
X133302860Y-55972059D01*
X133274000Y-55826967D01*
X133274000Y-55679033D01*
X133302860Y-55533941D01*
X133359472Y-55397268D01*
X133441660Y-55274265D01*
X133546265Y-55169660D01*
X133669268Y-55087472D01*
X133805941Y-55030860D01*
X133951032Y-55002000D01*
X134098968Y-55002000D01*
X134244059Y-55030860D01*
X134244059Y-55030860D01*
G37*
G36*
X137276000Y-56504000D02*
G01*
X135774000Y-56504000D01*
X135774000Y-55002000D01*
X137276000Y-55002000D01*
X137276000Y-56504000D01*
X137276000Y-56504000D01*
G37*
G36*
X157664365Y-51297420D02*
G01*
X157853888Y-51375923D01*
X158024454Y-51489892D01*
X158169508Y-51634946D01*
X158283477Y-51805512D01*
X158361980Y-51995035D01*
X158402000Y-52196231D01*
X158402000Y-52401369D01*
X158361980Y-52602565D01*
X158283477Y-52792088D01*
X158169508Y-52962654D01*
X158024454Y-53107708D01*
X157853888Y-53221677D01*
X157853887Y-53221678D01*
X157853886Y-53221678D01*
X157664365Y-53300180D01*
X157463170Y-53340200D01*
X157258030Y-53340200D01*
X157056835Y-53300180D01*
X156867314Y-53221678D01*
X156867313Y-53221678D01*
X156867312Y-53221677D01*
X156696746Y-53107708D01*
X156551692Y-52962654D01*
X156437723Y-52792088D01*
X156359220Y-52602565D01*
X156319200Y-52401369D01*
X156319200Y-52196231D01*
X156359220Y-51995035D01*
X156437723Y-51805512D01*
X156551692Y-51634946D01*
X156696746Y-51489892D01*
X156867312Y-51375923D01*
X157056835Y-51297420D01*
X157258030Y-51257400D01*
X157463170Y-51257400D01*
X157664365Y-51297420D01*
X157664365Y-51297420D01*
G37*
G36*
X153143165Y-51297420D02*
G01*
X153332688Y-51375923D01*
X153503254Y-51489892D01*
X153648308Y-51634946D01*
X153762277Y-51805512D01*
X153840780Y-51995035D01*
X153880800Y-52196231D01*
X153880800Y-52401369D01*
X153840780Y-52602565D01*
X153762277Y-52792088D01*
X153648308Y-52962654D01*
X153503254Y-53107708D01*
X153332688Y-53221677D01*
X153332687Y-53221678D01*
X153332686Y-53221678D01*
X153143165Y-53300180D01*
X152941970Y-53340200D01*
X152736830Y-53340200D01*
X152535635Y-53300180D01*
X152346114Y-53221678D01*
X152346113Y-53221678D01*
X152346112Y-53221677D01*
X152175546Y-53107708D01*
X152030492Y-52962654D01*
X151916523Y-52792088D01*
X151838020Y-52602565D01*
X151798000Y-52401369D01*
X151798000Y-52196231D01*
X151838020Y-51995035D01*
X151916523Y-51805512D01*
X152030492Y-51634946D01*
X152175546Y-51489892D01*
X152346112Y-51375923D01*
X152535635Y-51297420D01*
X152736830Y-51257400D01*
X152941970Y-51257400D01*
X153143165Y-51297420D01*
X153143165Y-51297420D01*
G37*
M02*
