G04 #@! TF.GenerationSoftware,KiCad,Pcbnew,(5.1.2)-2*
G04 #@! TF.CreationDate,2019-12-19T20:27:39-08:00*
G04 #@! TF.ProjectId,mainboard,6d61696e-626f-4617-9264-2e6b69636164,v3*
G04 #@! TF.SameCoordinates,Original*
G04 #@! TF.FileFunction,Legend,Top*
G04 #@! TF.FilePolarity,Positive*
%FSLAX46Y46*%
G04 Gerber Fmt 4.6, Leading zero omitted, Abs format (unit mm)*
G04 Created by KiCad (PCBNEW (5.1.2)-2) date 2019-12-19 20:27:39*
%MOMM*%
%LPD*%
G04 APERTURE LIST*
%ADD10C,0.150000*%
%ADD11C,0.120000*%
%ADD12C,0.050000*%
%ADD13C,0.254000*%
%ADD14C,0.127000*%
G04 APERTURE END LIST*
D10*
X130035714Y-121952380D02*
X130607142Y-121952380D01*
X130321428Y-122952380D02*
X130321428Y-121952380D01*
X131511904Y-122952380D02*
X131178571Y-122476190D01*
X130940476Y-122952380D02*
X130940476Y-121952380D01*
X131321428Y-121952380D01*
X131416666Y-122000000D01*
X131464285Y-122047619D01*
X131511904Y-122142857D01*
X131511904Y-122285714D01*
X131464285Y-122380952D01*
X131416666Y-122428571D01*
X131321428Y-122476190D01*
X130940476Y-122476190D01*
X131892857Y-122666666D02*
X132369047Y-122666666D01*
X131797619Y-122952380D02*
X132130952Y-121952380D01*
X132464285Y-122952380D01*
X132797619Y-122952380D02*
X132797619Y-121952380D01*
X133369047Y-122952380D01*
X133369047Y-121952380D01*
X133797619Y-122904761D02*
X133940476Y-122952380D01*
X134178571Y-122952380D01*
X134273809Y-122904761D01*
X134321428Y-122857142D01*
X134369047Y-122761904D01*
X134369047Y-122666666D01*
X134321428Y-122571428D01*
X134273809Y-122523809D01*
X134178571Y-122476190D01*
X133988095Y-122428571D01*
X133892857Y-122380952D01*
X133845238Y-122333333D01*
X133797619Y-122238095D01*
X133797619Y-122142857D01*
X133845238Y-122047619D01*
X133892857Y-122000000D01*
X133988095Y-121952380D01*
X134226190Y-121952380D01*
X134369047Y-122000000D01*
X136130952Y-122952380D02*
X135797619Y-122476190D01*
X135559523Y-122952380D02*
X135559523Y-121952380D01*
X135940476Y-121952380D01*
X136035714Y-122000000D01*
X136083333Y-122047619D01*
X136130952Y-122142857D01*
X136130952Y-122285714D01*
X136083333Y-122380952D01*
X136035714Y-122428571D01*
X135940476Y-122476190D01*
X135559523Y-122476190D01*
X136559523Y-122952380D02*
X136559523Y-121952380D01*
X137559523Y-122000000D02*
X137464285Y-121952380D01*
X137321428Y-121952380D01*
X137178571Y-122000000D01*
X137083333Y-122095238D01*
X137035714Y-122190476D01*
X136988095Y-122380952D01*
X136988095Y-122523809D01*
X137035714Y-122714285D01*
X137083333Y-122809523D01*
X137178571Y-122904761D01*
X137321428Y-122952380D01*
X137416666Y-122952380D01*
X137559523Y-122904761D01*
X137607142Y-122857142D01*
X137607142Y-122523809D01*
X137416666Y-122523809D01*
X138035714Y-122952380D02*
X138035714Y-121952380D01*
X138035714Y-122428571D02*
X138607142Y-122428571D01*
X138607142Y-122952380D02*
X138607142Y-121952380D01*
X138940476Y-121952380D02*
X139511904Y-121952380D01*
X139226190Y-122952380D02*
X139226190Y-121952380D01*
X139797619Y-122904761D02*
X139940476Y-122952380D01*
X140178571Y-122952380D01*
X140273809Y-122904761D01*
X140321428Y-122857142D01*
X140369047Y-122761904D01*
X140369047Y-122666666D01*
X140321428Y-122571428D01*
X140273809Y-122523809D01*
X140178571Y-122476190D01*
X139988095Y-122428571D01*
X139892857Y-122380952D01*
X139845238Y-122333333D01*
X139797619Y-122238095D01*
X139797619Y-122142857D01*
X139845238Y-122047619D01*
X139892857Y-122000000D01*
X139988095Y-121952380D01*
X140226190Y-121952380D01*
X140369047Y-122000000D01*
D11*
X148430789Y-64150000D02*
G75*
G03X148430789Y-64150000I-380789J0D01*
G01*
X124766228Y-114550000D02*
G75*
G03X124766228Y-114550000I-316228J0D01*
G01*
X126850000Y-116150000D02*
G75*
G03X126850000Y-116150000I-300000J0D01*
G01*
X143000000Y-107050000D02*
G75*
G03X143000000Y-107050000I-500000J0D01*
G01*
X144335410Y-77000000D02*
G75*
G03X144335410Y-77000000I-335410J0D01*
G01*
X132600000Y-71100000D02*
G75*
G03X132600000Y-71100000I-300000J0D01*
G01*
D12*
X115896000Y-138786000D02*
X124896000Y-138786000D01*
X115896000Y-127886000D02*
X124896000Y-127886000D01*
X124896000Y-127886000D02*
X124896000Y-138786000D01*
D11*
X123396000Y-133786000D02*
G75*
G03X123396000Y-133786000I-3000000J0D01*
G01*
D12*
X115896000Y-127886000D02*
X115896000Y-138786000D01*
X130818500Y-138786000D02*
X139818500Y-138786000D01*
X130818500Y-127886000D02*
X139818500Y-127886000D01*
X139818500Y-127886000D02*
X139818500Y-138786000D01*
D11*
X138318500Y-133786000D02*
G75*
G03X138318500Y-133786000I-3000000J0D01*
G01*
D12*
X130818500Y-127886000D02*
X130818500Y-138786000D01*
X115896000Y-153264000D02*
X124896000Y-153264000D01*
X115896000Y-142364000D02*
X124896000Y-142364000D01*
X124896000Y-142364000D02*
X124896000Y-153264000D01*
D11*
X123396000Y-148264000D02*
G75*
G03X123396000Y-148264000I-3000000J0D01*
G01*
D12*
X115896000Y-142364000D02*
X115896000Y-153264000D01*
X145741000Y-138786000D02*
X154741000Y-138786000D01*
X145741000Y-127886000D02*
X154741000Y-127886000D01*
X154741000Y-127886000D02*
X154741000Y-138786000D01*
D11*
X153241000Y-133786000D02*
G75*
G03X153241000Y-133786000I-3000000J0D01*
G01*
D12*
X145741000Y-127886000D02*
X145741000Y-138786000D01*
X130818500Y-153264000D02*
X139818500Y-153264000D01*
X130818500Y-142364000D02*
X139818500Y-142364000D01*
X139818500Y-142364000D02*
X139818500Y-153264000D01*
D11*
X138318500Y-148264000D02*
G75*
G03X138318500Y-148264000I-3000000J0D01*
G01*
D12*
X130818500Y-142364000D02*
X130818500Y-153264000D01*
X145741000Y-153264000D02*
X154741000Y-153264000D01*
X145741000Y-142364000D02*
X154741000Y-142364000D01*
X154741000Y-142364000D02*
X154741000Y-153264000D01*
D11*
X153241000Y-148264000D02*
G75*
G03X153241000Y-148264000I-3000000J0D01*
G01*
D12*
X145741000Y-142364000D02*
X145741000Y-153264000D01*
D10*
X132519000Y-114214000D02*
X132519000Y-109814000D01*
X126994000Y-115789000D02*
X126994000Y-109814000D01*
D11*
X111181000Y-56912000D02*
X111181000Y-59772000D01*
X111181000Y-59772000D02*
X113101000Y-59772000D01*
X113101000Y-59772000D02*
X113101000Y-56912000D01*
D13*
X151814871Y-72483304D02*
X152353686Y-71944489D01*
D11*
X128225000Y-56753000D02*
X128225000Y-51953000D01*
X128225000Y-65053000D02*
X128225000Y-60253000D01*
X142325000Y-65053000D02*
X128225000Y-65053000D01*
X142325000Y-60253000D02*
X142325000Y-65053000D01*
X142325000Y-51953000D02*
X142325000Y-56753000D01*
X128225000Y-51953000D02*
X142325000Y-51953000D01*
X136025000Y-51253000D02*
X136525000Y-51753000D01*
X137025000Y-51253000D02*
X136025000Y-51253000D01*
X136525000Y-51753000D02*
X137025000Y-51253000D01*
X132018000Y-90948000D02*
G75*
G02X132718000Y-91648000I0J-700000D01*
G01*
X132718000Y-92248000D02*
G75*
G02X132018000Y-92948000I-700000J0D01*
G01*
X130618000Y-92948000D02*
G75*
G02X129918000Y-92248000I0J700000D01*
G01*
X129918000Y-91648000D02*
G75*
G02X130618000Y-90948000I700000J0D01*
G01*
X129918000Y-92248000D02*
X129918000Y-91648000D01*
X132018000Y-92948000D02*
X130618000Y-92948000D01*
X132718000Y-91648000D02*
X132718000Y-92248000D01*
X130618000Y-90948000D02*
X132018000Y-90948000D01*
X130618000Y-75962000D02*
X132018000Y-75962000D01*
X132718000Y-76662000D02*
X132718000Y-77262000D01*
X132018000Y-77962000D02*
X130618000Y-77962000D01*
X129918000Y-77262000D02*
X129918000Y-76662000D01*
X129918000Y-76662000D02*
G75*
G02X130618000Y-75962000I700000J0D01*
G01*
X130618000Y-77962000D02*
G75*
G02X129918000Y-77262000I0J700000D01*
G01*
X132718000Y-77262000D02*
G75*
G02X132018000Y-77962000I-700000J0D01*
G01*
X132018000Y-75962000D02*
G75*
G02X132718000Y-76662000I0J-700000D01*
G01*
X152790000Y-62810436D02*
X152790000Y-64014564D01*
X154610000Y-62810436D02*
X154610000Y-64014564D01*
X122534000Y-117761936D02*
X122534000Y-118966064D01*
X124354000Y-117761936D02*
X124354000Y-118966064D01*
X118269936Y-118978000D02*
X119474064Y-118978000D01*
X118269936Y-120798000D02*
X119474064Y-120798000D01*
X156951000Y-89883064D02*
X156951000Y-88678936D01*
X158771000Y-89883064D02*
X158771000Y-88678936D01*
X118269936Y-115930000D02*
X119474064Y-115930000D01*
X118269936Y-117750000D02*
X119474064Y-117750000D01*
X157787191Y-70902256D02*
X156935744Y-70050809D01*
X156500256Y-72189191D02*
X155648809Y-71337744D01*
X124354000Y-106266064D02*
X124354000Y-105061936D01*
X122534000Y-106266064D02*
X122534000Y-105061936D01*
X118233436Y-103230000D02*
X119437564Y-103230000D01*
X118233436Y-105050000D02*
X119437564Y-105050000D01*
X118269936Y-106278000D02*
X119474064Y-106278000D01*
X118269936Y-108098000D02*
X119474064Y-108098000D01*
X141330000Y-118966064D02*
X141330000Y-117761936D01*
X143150000Y-118966064D02*
X143150000Y-117761936D01*
X146240333Y-118966064D02*
X146240333Y-117761936D01*
X144420333Y-118966064D02*
X144420333Y-117761936D01*
X147510666Y-118966064D02*
X147510666Y-117761936D01*
X149330666Y-118966064D02*
X149330666Y-117761936D01*
X152421000Y-118966064D02*
X152421000Y-117761936D01*
X150601000Y-118966064D02*
X150601000Y-117761936D01*
X127188000Y-91948000D02*
G75*
G03X127188000Y-91948000I-950000J0D01*
G01*
X127188000Y-76962000D02*
G75*
G03X127188000Y-76962000I-950000J0D01*
G01*
X114518000Y-88411000D02*
X120528000Y-88411000D01*
X116768000Y-95231000D02*
X120528000Y-95231000D01*
X120528000Y-88411000D02*
X120528000Y-89671000D01*
X120528000Y-95231000D02*
X120528000Y-93971000D01*
X120528000Y-80372000D02*
X120528000Y-79112000D01*
X120528000Y-73552000D02*
X120528000Y-74812000D01*
X116768000Y-80372000D02*
X120528000Y-80372000D01*
X114518000Y-73552000D02*
X120528000Y-73552000D01*
D10*
X122721000Y-114260000D02*
X124071000Y-114260000D01*
X122721000Y-109135000D02*
X118071000Y-109135000D01*
X122721000Y-114385000D02*
X118071000Y-114385000D01*
X122721000Y-109135000D02*
X122721000Y-109360000D01*
X118071000Y-109135000D02*
X118071000Y-109360000D01*
X118071000Y-114385000D02*
X118071000Y-114160000D01*
X122721000Y-114385000D02*
X122721000Y-114260000D01*
X153827982Y-91189905D02*
X154959353Y-91189905D01*
X154959353Y-91189905D02*
X157787780Y-94018332D01*
X157787780Y-94018332D02*
X153962332Y-97843780D01*
X153962332Y-97843780D02*
X150568220Y-94449668D01*
X150568220Y-94449668D02*
X153827982Y-91189905D01*
X144487000Y-107738000D02*
X144487000Y-107863000D01*
X149137000Y-107738000D02*
X149137000Y-107963000D01*
X149137000Y-112988000D02*
X149137000Y-112763000D01*
X144487000Y-112988000D02*
X144487000Y-112763000D01*
X144487000Y-107738000D02*
X149137000Y-107738000D01*
X144487000Y-112988000D02*
X149137000Y-112988000D01*
X144487000Y-107863000D02*
X143137000Y-107863000D01*
D11*
X145218000Y-72606000D02*
X142368000Y-72606000D01*
X142368000Y-72606000D02*
X142368000Y-74206000D01*
X142368000Y-74206000D02*
X145218000Y-74206000D01*
X116226000Y-97949936D02*
X116226000Y-99154064D01*
X114406000Y-97949936D02*
X114406000Y-99154064D01*
X155740000Y-62810436D02*
X155740000Y-64014564D01*
X157560000Y-62810436D02*
X157560000Y-64014564D01*
X146452000Y-69944064D02*
X146452000Y-68739936D01*
X144632000Y-69944064D02*
X144632000Y-68739936D01*
X141584000Y-69944064D02*
X141584000Y-68739936D01*
X143404000Y-69944064D02*
X143404000Y-68739936D01*
X122830000Y-97949936D02*
X122830000Y-99154064D01*
X121010000Y-97949936D02*
X121010000Y-99154064D01*
X116226000Y-82963936D02*
X116226000Y-84168064D01*
X114406000Y-82963936D02*
X114406000Y-84168064D01*
X121010000Y-82963936D02*
X121010000Y-84168064D01*
X122830000Y-82963936D02*
X122830000Y-84168064D01*
X152300791Y-78094144D02*
X151449344Y-78945591D01*
X151013856Y-76807209D02*
X150162409Y-77658656D01*
X128926000Y-105758064D02*
X128926000Y-104553936D01*
X127106000Y-105758064D02*
X127106000Y-104553936D01*
X129888064Y-118512000D02*
X128683936Y-118512000D01*
X129888064Y-116692000D02*
X128683936Y-116692000D01*
X114956000Y-111092064D02*
X114956000Y-109887936D01*
X113136000Y-111092064D02*
X113136000Y-109887936D01*
X135737488Y-90859923D02*
X136588935Y-91711370D01*
X137024423Y-89572988D02*
X137875870Y-90424435D01*
X146930423Y-94970488D02*
X147781870Y-95821935D01*
X145643488Y-96257423D02*
X146494935Y-97108870D01*
X153045856Y-78839209D02*
X152194409Y-79690656D01*
X154332791Y-80126144D02*
X153481344Y-80977591D01*
X149417344Y-76913591D02*
X150268791Y-76062144D01*
X148130409Y-75626656D02*
X148981856Y-74775209D01*
X156036870Y-85280065D02*
X155185423Y-86131512D01*
X154749935Y-83993130D02*
X153898488Y-84844577D01*
X137106809Y-78014256D02*
X137958256Y-77162809D01*
X138393744Y-79301191D02*
X139245191Y-78449744D01*
X144689751Y-78281120D02*
X144018000Y-77609369D01*
X144018000Y-77609369D02*
X143346249Y-78281120D01*
X150572880Y-84164249D02*
X151244631Y-84836000D01*
X151244631Y-84836000D02*
X150572880Y-85507751D01*
X137463120Y-85507751D02*
X136791369Y-84836000D01*
X136791369Y-84836000D02*
X137463120Y-84164249D01*
X143346249Y-91390880D02*
X144018000Y-92062631D01*
X144018000Y-92062631D02*
X144689751Y-91390880D01*
X143346249Y-78281120D02*
X142434081Y-77368952D01*
X138067815Y-70069173D02*
G75*
G03X132720000Y-69605170I-2787815J-1080827D01*
G01*
X138067815Y-72230827D02*
G75*
G02X132720000Y-72694830I-2787815J1080827D01*
G01*
X137534479Y-70069571D02*
G75*
G03X133025316Y-70070000I-2254479J-1080429D01*
G01*
X137534479Y-72230429D02*
G75*
G02X133025316Y-72230000I-2254479J1080429D01*
G01*
X132720000Y-69605000D02*
X132720000Y-70070000D01*
X132720000Y-72230000D02*
X132720000Y-72695000D01*
D10*
X116962666Y-128738380D02*
X116962666Y-129452666D01*
X116915047Y-129595523D01*
X116819809Y-129690761D01*
X116676952Y-129738380D01*
X116581714Y-129738380D01*
X117867428Y-129071714D02*
X117867428Y-129738380D01*
X117629333Y-128690761D02*
X117391238Y-129405047D01*
X118010285Y-129405047D01*
X131885166Y-128738380D02*
X131885166Y-129452666D01*
X131837547Y-129595523D01*
X131742309Y-129690761D01*
X131599452Y-129738380D01*
X131504214Y-129738380D01*
X132789928Y-128738380D02*
X132599452Y-128738380D01*
X132504214Y-128786000D01*
X132456595Y-128833619D01*
X132361357Y-128976476D01*
X132313738Y-129166952D01*
X132313738Y-129547904D01*
X132361357Y-129643142D01*
X132408976Y-129690761D01*
X132504214Y-129738380D01*
X132694690Y-129738380D01*
X132789928Y-129690761D01*
X132837547Y-129643142D01*
X132885166Y-129547904D01*
X132885166Y-129309809D01*
X132837547Y-129214571D01*
X132789928Y-129166952D01*
X132694690Y-129119333D01*
X132504214Y-129119333D01*
X132408976Y-129166952D01*
X132361357Y-129214571D01*
X132313738Y-129309809D01*
X116962666Y-143216380D02*
X116962666Y-143930666D01*
X116915047Y-144073523D01*
X116819809Y-144168761D01*
X116676952Y-144216380D01*
X116581714Y-144216380D01*
X117915047Y-143216380D02*
X117438857Y-143216380D01*
X117391238Y-143692571D01*
X117438857Y-143644952D01*
X117534095Y-143597333D01*
X117772190Y-143597333D01*
X117867428Y-143644952D01*
X117915047Y-143692571D01*
X117962666Y-143787809D01*
X117962666Y-144025904D01*
X117915047Y-144121142D01*
X117867428Y-144168761D01*
X117772190Y-144216380D01*
X117534095Y-144216380D01*
X117438857Y-144168761D01*
X117391238Y-144121142D01*
X146807666Y-128738380D02*
X146807666Y-129452666D01*
X146760047Y-129595523D01*
X146664809Y-129690761D01*
X146521952Y-129738380D01*
X146426714Y-129738380D01*
X147188619Y-128738380D02*
X147855285Y-128738380D01*
X147426714Y-129738380D01*
X131885166Y-143216380D02*
X131885166Y-143930666D01*
X131837547Y-144073523D01*
X131742309Y-144168761D01*
X131599452Y-144216380D01*
X131504214Y-144216380D01*
X132504214Y-143644952D02*
X132408976Y-143597333D01*
X132361357Y-143549714D01*
X132313738Y-143454476D01*
X132313738Y-143406857D01*
X132361357Y-143311619D01*
X132408976Y-143264000D01*
X132504214Y-143216380D01*
X132694690Y-143216380D01*
X132789928Y-143264000D01*
X132837547Y-143311619D01*
X132885166Y-143406857D01*
X132885166Y-143454476D01*
X132837547Y-143549714D01*
X132789928Y-143597333D01*
X132694690Y-143644952D01*
X132504214Y-143644952D01*
X132408976Y-143692571D01*
X132361357Y-143740190D01*
X132313738Y-143835428D01*
X132313738Y-144025904D01*
X132361357Y-144121142D01*
X132408976Y-144168761D01*
X132504214Y-144216380D01*
X132694690Y-144216380D01*
X132789928Y-144168761D01*
X132837547Y-144121142D01*
X132885166Y-144025904D01*
X132885166Y-143835428D01*
X132837547Y-143740190D01*
X132789928Y-143692571D01*
X132694690Y-143644952D01*
X146807666Y-143216380D02*
X146807666Y-143930666D01*
X146760047Y-144073523D01*
X146664809Y-144168761D01*
X146521952Y-144216380D01*
X146426714Y-144216380D01*
X147331476Y-144216380D02*
X147521952Y-144216380D01*
X147617190Y-144168761D01*
X147664809Y-144121142D01*
X147760047Y-143978285D01*
X147807666Y-143787809D01*
X147807666Y-143406857D01*
X147760047Y-143311619D01*
X147712428Y-143264000D01*
X147617190Y-143216380D01*
X147426714Y-143216380D01*
X147331476Y-143264000D01*
X147283857Y-143311619D01*
X147236238Y-143406857D01*
X147236238Y-143644952D01*
X147283857Y-143740190D01*
X147331476Y-143787809D01*
X147426714Y-143835428D01*
X147617190Y-143835428D01*
X147712428Y-143787809D01*
X147760047Y-143740190D01*
X147807666Y-143644952D01*
X129055880Y-112775904D02*
X129865404Y-112775904D01*
X129960642Y-112728285D01*
X130008261Y-112680666D01*
X130055880Y-112585428D01*
X130055880Y-112394952D01*
X130008261Y-112299714D01*
X129960642Y-112252095D01*
X129865404Y-112204476D01*
X129055880Y-112204476D01*
X129055880Y-111299714D02*
X129055880Y-111490190D01*
X129103500Y-111585428D01*
X129151119Y-111633047D01*
X129293976Y-111728285D01*
X129484452Y-111775904D01*
X129865404Y-111775904D01*
X129960642Y-111728285D01*
X130008261Y-111680666D01*
X130055880Y-111585428D01*
X130055880Y-111394952D01*
X130008261Y-111299714D01*
X129960642Y-111252095D01*
X129865404Y-111204476D01*
X129627309Y-111204476D01*
X129532071Y-111252095D01*
X129484452Y-111299714D01*
X129436833Y-111394952D01*
X129436833Y-111585428D01*
X129484452Y-111680666D01*
X129532071Y-111728285D01*
X129627309Y-111775904D01*
X111402904Y-55633880D02*
X111402904Y-54633880D01*
X111641000Y-54633880D01*
X111783857Y-54681500D01*
X111879095Y-54776738D01*
X111926714Y-54871976D01*
X111974333Y-55062452D01*
X111974333Y-55205309D01*
X111926714Y-55395785D01*
X111879095Y-55491023D01*
X111783857Y-55586261D01*
X111641000Y-55633880D01*
X111402904Y-55633880D01*
X112355285Y-54729119D02*
X112402904Y-54681500D01*
X112498142Y-54633880D01*
X112736238Y-54633880D01*
X112831476Y-54681500D01*
X112879095Y-54729119D01*
X112926714Y-54824357D01*
X112926714Y-54919595D01*
X112879095Y-55062452D01*
X112307666Y-55633880D01*
X112926714Y-55633880D01*
D14*
X151820263Y-71507631D02*
X152128157Y-71815526D01*
X152169210Y-71897631D01*
X152169210Y-71979736D01*
X152128157Y-72061841D01*
X152087105Y-72102894D01*
X152046052Y-71363947D02*
X152046052Y-71322894D01*
X152066579Y-71261316D01*
X152169210Y-71158684D01*
X152230789Y-71138158D01*
X152271842Y-71138158D01*
X152333420Y-71158684D01*
X152374473Y-71199737D01*
X152415526Y-71281842D01*
X152415526Y-71774473D01*
X152682368Y-71507631D01*
D10*
X134858166Y-52538380D02*
X134858166Y-53252666D01*
X134810547Y-53395523D01*
X134715309Y-53490761D01*
X134572452Y-53538380D01*
X134477214Y-53538380D01*
X135239119Y-52538380D02*
X135858166Y-52538380D01*
X135524833Y-52919333D01*
X135667690Y-52919333D01*
X135762928Y-52966952D01*
X135810547Y-53014571D01*
X135858166Y-53109809D01*
X135858166Y-53347904D01*
X135810547Y-53443142D01*
X135762928Y-53490761D01*
X135667690Y-53538380D01*
X135381976Y-53538380D01*
X135286738Y-53490761D01*
X135239119Y-53443142D01*
X130484666Y-89600380D02*
X130484666Y-90314666D01*
X130437047Y-90457523D01*
X130341809Y-90552761D01*
X130198952Y-90600380D01*
X130103714Y-90600380D01*
X130960857Y-90600380D02*
X130960857Y-89600380D01*
X131341809Y-89600380D01*
X131437047Y-89648000D01*
X131484666Y-89695619D01*
X131532285Y-89790857D01*
X131532285Y-89933714D01*
X131484666Y-90028952D01*
X131437047Y-90076571D01*
X131341809Y-90124190D01*
X130960857Y-90124190D01*
X132484666Y-90600380D02*
X131913238Y-90600380D01*
X132198952Y-90600380D02*
X132198952Y-89600380D01*
X132103714Y-89743238D01*
X132008476Y-89838476D01*
X131913238Y-89886095D01*
X130484666Y-74509380D02*
X130484666Y-75223666D01*
X130437047Y-75366523D01*
X130341809Y-75461761D01*
X130198952Y-75509380D01*
X130103714Y-75509380D01*
X130960857Y-75509380D02*
X130960857Y-74509380D01*
X131341809Y-74509380D01*
X131437047Y-74557000D01*
X131484666Y-74604619D01*
X131532285Y-74699857D01*
X131532285Y-74842714D01*
X131484666Y-74937952D01*
X131437047Y-74985571D01*
X131341809Y-75033190D01*
X130960857Y-75033190D01*
X131913238Y-74604619D02*
X131960857Y-74557000D01*
X132056095Y-74509380D01*
X132294190Y-74509380D01*
X132389428Y-74557000D01*
X132437047Y-74604619D01*
X132484666Y-74699857D01*
X132484666Y-74795095D01*
X132437047Y-74937952D01*
X131865619Y-75509380D01*
X132484666Y-75509380D01*
X153533333Y-67052380D02*
X153200000Y-66576190D01*
X152961904Y-67052380D02*
X152961904Y-66052380D01*
X153342857Y-66052380D01*
X153438095Y-66100000D01*
X153485714Y-66147619D01*
X153533333Y-66242857D01*
X153533333Y-66385714D01*
X153485714Y-66480952D01*
X153438095Y-66528571D01*
X153342857Y-66576190D01*
X152961904Y-66576190D01*
X154485714Y-67052380D02*
X153914285Y-67052380D01*
X154200000Y-67052380D02*
X154200000Y-66052380D01*
X154104761Y-66195238D01*
X154009523Y-66290476D01*
X153914285Y-66338095D01*
X125716380Y-118530666D02*
X125240190Y-118864000D01*
X125716380Y-119102095D02*
X124716380Y-119102095D01*
X124716380Y-118721142D01*
X124764000Y-118625904D01*
X124811619Y-118578285D01*
X124906857Y-118530666D01*
X125049714Y-118530666D01*
X125144952Y-118578285D01*
X125192571Y-118625904D01*
X125240190Y-118721142D01*
X125240190Y-119102095D01*
X124811619Y-118149714D02*
X124764000Y-118102095D01*
X124716380Y-118006857D01*
X124716380Y-117768761D01*
X124764000Y-117673523D01*
X124811619Y-117625904D01*
X124906857Y-117578285D01*
X125002095Y-117578285D01*
X125144952Y-117625904D01*
X125716380Y-118197333D01*
X125716380Y-117578285D01*
X115133333Y-120352380D02*
X114800000Y-119876190D01*
X114561904Y-120352380D02*
X114561904Y-119352380D01*
X114942857Y-119352380D01*
X115038095Y-119400000D01*
X115085714Y-119447619D01*
X115133333Y-119542857D01*
X115133333Y-119685714D01*
X115085714Y-119780952D01*
X115038095Y-119828571D01*
X114942857Y-119876190D01*
X114561904Y-119876190D01*
X115466666Y-119352380D02*
X116085714Y-119352380D01*
X115752380Y-119733333D01*
X115895238Y-119733333D01*
X115990476Y-119780952D01*
X116038095Y-119828571D01*
X116085714Y-119923809D01*
X116085714Y-120161904D01*
X116038095Y-120257142D01*
X115990476Y-120304761D01*
X115895238Y-120352380D01*
X115609523Y-120352380D01*
X115514285Y-120304761D01*
X115466666Y-120257142D01*
X156493380Y-89447666D02*
X156017190Y-89781000D01*
X156493380Y-90019095D02*
X155493380Y-90019095D01*
X155493380Y-89638142D01*
X155541000Y-89542904D01*
X155588619Y-89495285D01*
X155683857Y-89447666D01*
X155826714Y-89447666D01*
X155921952Y-89495285D01*
X155969571Y-89542904D01*
X156017190Y-89638142D01*
X156017190Y-90019095D01*
X155826714Y-88590523D02*
X156493380Y-88590523D01*
X155445761Y-88828619D02*
X156160047Y-89066714D01*
X156160047Y-88447666D01*
X115233333Y-117352380D02*
X114900000Y-116876190D01*
X114661904Y-117352380D02*
X114661904Y-116352380D01*
X115042857Y-116352380D01*
X115138095Y-116400000D01*
X115185714Y-116447619D01*
X115233333Y-116542857D01*
X115233333Y-116685714D01*
X115185714Y-116780952D01*
X115138095Y-116828571D01*
X115042857Y-116876190D01*
X114661904Y-116876190D01*
X116138095Y-116352380D02*
X115661904Y-116352380D01*
X115614285Y-116828571D01*
X115661904Y-116780952D01*
X115757142Y-116733333D01*
X115995238Y-116733333D01*
X116090476Y-116780952D01*
X116138095Y-116828571D01*
X116185714Y-116923809D01*
X116185714Y-117161904D01*
X116138095Y-117257142D01*
X116090476Y-117304761D01*
X115995238Y-117352380D01*
X115757142Y-117352380D01*
X115661904Y-117304761D01*
X115614285Y-117257142D01*
X157550268Y-70102030D02*
X157651283Y-69529610D01*
X157146207Y-69697969D02*
X157853313Y-68990862D01*
X158122688Y-69260236D01*
X158156359Y-69361251D01*
X158156359Y-69428595D01*
X158122688Y-69529610D01*
X158021672Y-69630625D01*
X157920657Y-69664297D01*
X157853313Y-69664297D01*
X157752298Y-69630625D01*
X157482924Y-69361251D01*
X158863466Y-70001015D02*
X158728779Y-69866328D01*
X158627764Y-69832656D01*
X158560420Y-69832656D01*
X158392062Y-69866328D01*
X158223703Y-69967343D01*
X157954329Y-70236717D01*
X157920657Y-70337732D01*
X157920657Y-70405076D01*
X157954329Y-70506091D01*
X158089016Y-70640778D01*
X158190031Y-70674450D01*
X158257375Y-70674450D01*
X158358390Y-70640778D01*
X158526749Y-70472419D01*
X158560420Y-70371404D01*
X158560420Y-70304061D01*
X158526749Y-70203045D01*
X158392062Y-70068358D01*
X158291046Y-70034687D01*
X158223703Y-70034687D01*
X158122688Y-70068358D01*
X125852380Y-105866666D02*
X125376190Y-106200000D01*
X125852380Y-106438095D02*
X124852380Y-106438095D01*
X124852380Y-106057142D01*
X124900000Y-105961904D01*
X124947619Y-105914285D01*
X125042857Y-105866666D01*
X125185714Y-105866666D01*
X125280952Y-105914285D01*
X125328571Y-105961904D01*
X125376190Y-106057142D01*
X125376190Y-106438095D01*
X124852380Y-105533333D02*
X124852380Y-104866666D01*
X125852380Y-105295238D01*
X116152380Y-104266666D02*
X115676190Y-104600000D01*
X116152380Y-104838095D02*
X115152380Y-104838095D01*
X115152380Y-104457142D01*
X115200000Y-104361904D01*
X115247619Y-104314285D01*
X115342857Y-104266666D01*
X115485714Y-104266666D01*
X115580952Y-104314285D01*
X115628571Y-104361904D01*
X115676190Y-104457142D01*
X115676190Y-104838095D01*
X115580952Y-103695238D02*
X115533333Y-103790476D01*
X115485714Y-103838095D01*
X115390476Y-103885714D01*
X115342857Y-103885714D01*
X115247619Y-103838095D01*
X115200000Y-103790476D01*
X115152380Y-103695238D01*
X115152380Y-103504761D01*
X115200000Y-103409523D01*
X115247619Y-103361904D01*
X115342857Y-103314285D01*
X115390476Y-103314285D01*
X115485714Y-103361904D01*
X115533333Y-103409523D01*
X115580952Y-103504761D01*
X115580952Y-103695238D01*
X115628571Y-103790476D01*
X115676190Y-103838095D01*
X115771428Y-103885714D01*
X115961904Y-103885714D01*
X116057142Y-103838095D01*
X116104761Y-103790476D01*
X116152380Y-103695238D01*
X116152380Y-103504761D01*
X116104761Y-103409523D01*
X116057142Y-103361904D01*
X115961904Y-103314285D01*
X115771428Y-103314285D01*
X115676190Y-103361904D01*
X115628571Y-103409523D01*
X115580952Y-103504761D01*
X116152380Y-107366666D02*
X115676190Y-107700000D01*
X116152380Y-107938095D02*
X115152380Y-107938095D01*
X115152380Y-107557142D01*
X115200000Y-107461904D01*
X115247619Y-107414285D01*
X115342857Y-107366666D01*
X115485714Y-107366666D01*
X115580952Y-107414285D01*
X115628571Y-107461904D01*
X115676190Y-107557142D01*
X115676190Y-107938095D01*
X116152380Y-106890476D02*
X116152380Y-106700000D01*
X116104761Y-106604761D01*
X116057142Y-106557142D01*
X115914285Y-106461904D01*
X115723809Y-106414285D01*
X115342857Y-106414285D01*
X115247619Y-106461904D01*
X115200000Y-106509523D01*
X115152380Y-106604761D01*
X115152380Y-106795238D01*
X115200000Y-106890476D01*
X115247619Y-106938095D01*
X115342857Y-106985714D01*
X115580952Y-106985714D01*
X115676190Y-106938095D01*
X115723809Y-106890476D01*
X115771428Y-106795238D01*
X115771428Y-106604761D01*
X115723809Y-106509523D01*
X115676190Y-106461904D01*
X115580952Y-106414285D01*
X141557142Y-115552380D02*
X141223809Y-115076190D01*
X140985714Y-115552380D02*
X140985714Y-114552380D01*
X141366666Y-114552380D01*
X141461904Y-114600000D01*
X141509523Y-114647619D01*
X141557142Y-114742857D01*
X141557142Y-114885714D01*
X141509523Y-114980952D01*
X141461904Y-115028571D01*
X141366666Y-115076190D01*
X140985714Y-115076190D01*
X142509523Y-115552380D02*
X141938095Y-115552380D01*
X142223809Y-115552380D02*
X142223809Y-114552380D01*
X142128571Y-114695238D01*
X142033333Y-114790476D01*
X141938095Y-114838095D01*
X143128571Y-114552380D02*
X143223809Y-114552380D01*
X143319047Y-114600000D01*
X143366666Y-114647619D01*
X143414285Y-114742857D01*
X143461904Y-114933333D01*
X143461904Y-115171428D01*
X143414285Y-115361904D01*
X143366666Y-115457142D01*
X143319047Y-115504761D01*
X143223809Y-115552380D01*
X143128571Y-115552380D01*
X143033333Y-115504761D01*
X142985714Y-115457142D01*
X142938095Y-115361904D01*
X142890476Y-115171428D01*
X142890476Y-114933333D01*
X142938095Y-114742857D01*
X142985714Y-114647619D01*
X143033333Y-114600000D01*
X143128571Y-114552380D01*
X144657142Y-115552380D02*
X144323809Y-115076190D01*
X144085714Y-115552380D02*
X144085714Y-114552380D01*
X144466666Y-114552380D01*
X144561904Y-114600000D01*
X144609523Y-114647619D01*
X144657142Y-114742857D01*
X144657142Y-114885714D01*
X144609523Y-114980952D01*
X144561904Y-115028571D01*
X144466666Y-115076190D01*
X144085714Y-115076190D01*
X145609523Y-115552380D02*
X145038095Y-115552380D01*
X145323809Y-115552380D02*
X145323809Y-114552380D01*
X145228571Y-114695238D01*
X145133333Y-114790476D01*
X145038095Y-114838095D01*
X146561904Y-115552380D02*
X145990476Y-115552380D01*
X146276190Y-115552380D02*
X146276190Y-114552380D01*
X146180952Y-114695238D01*
X146085714Y-114790476D01*
X145990476Y-114838095D01*
X147757142Y-115552380D02*
X147423809Y-115076190D01*
X147185714Y-115552380D02*
X147185714Y-114552380D01*
X147566666Y-114552380D01*
X147661904Y-114600000D01*
X147709523Y-114647619D01*
X147757142Y-114742857D01*
X147757142Y-114885714D01*
X147709523Y-114980952D01*
X147661904Y-115028571D01*
X147566666Y-115076190D01*
X147185714Y-115076190D01*
X148709523Y-115552380D02*
X148138095Y-115552380D01*
X148423809Y-115552380D02*
X148423809Y-114552380D01*
X148328571Y-114695238D01*
X148233333Y-114790476D01*
X148138095Y-114838095D01*
X149090476Y-114647619D02*
X149138095Y-114600000D01*
X149233333Y-114552380D01*
X149471428Y-114552380D01*
X149566666Y-114600000D01*
X149614285Y-114647619D01*
X149661904Y-114742857D01*
X149661904Y-114838095D01*
X149614285Y-114980952D01*
X149042857Y-115552380D01*
X149661904Y-115552380D01*
X150857142Y-115552380D02*
X150523809Y-115076190D01*
X150285714Y-115552380D02*
X150285714Y-114552380D01*
X150666666Y-114552380D01*
X150761904Y-114600000D01*
X150809523Y-114647619D01*
X150857142Y-114742857D01*
X150857142Y-114885714D01*
X150809523Y-114980952D01*
X150761904Y-115028571D01*
X150666666Y-115076190D01*
X150285714Y-115076190D01*
X151809523Y-115552380D02*
X151238095Y-115552380D01*
X151523809Y-115552380D02*
X151523809Y-114552380D01*
X151428571Y-114695238D01*
X151333333Y-114790476D01*
X151238095Y-114838095D01*
X152142857Y-114552380D02*
X152761904Y-114552380D01*
X152428571Y-114933333D01*
X152571428Y-114933333D01*
X152666666Y-114980952D01*
X152714285Y-115028571D01*
X152761904Y-115123809D01*
X152761904Y-115361904D01*
X152714285Y-115457142D01*
X152666666Y-115504761D01*
X152571428Y-115552380D01*
X152285714Y-115552380D01*
X152190476Y-115504761D01*
X152142857Y-115457142D01*
X124976095Y-89752380D02*
X125547523Y-89752380D01*
X125261809Y-90752380D02*
X125261809Y-89752380D01*
X125880857Y-90752380D02*
X125880857Y-89752380D01*
X126261809Y-89752380D01*
X126357047Y-89800000D01*
X126404666Y-89847619D01*
X126452285Y-89942857D01*
X126452285Y-90085714D01*
X126404666Y-90180952D01*
X126357047Y-90228571D01*
X126261809Y-90276190D01*
X125880857Y-90276190D01*
X127404666Y-90752380D02*
X126833238Y-90752380D01*
X127118952Y-90752380D02*
X127118952Y-89752380D01*
X127023714Y-89895238D01*
X126928476Y-89990476D01*
X126833238Y-90038095D01*
X124976095Y-74572880D02*
X125547523Y-74572880D01*
X125261809Y-75572880D02*
X125261809Y-74572880D01*
X125880857Y-75572880D02*
X125880857Y-74572880D01*
X126261809Y-74572880D01*
X126357047Y-74620500D01*
X126404666Y-74668119D01*
X126452285Y-74763357D01*
X126452285Y-74906214D01*
X126404666Y-75001452D01*
X126357047Y-75049071D01*
X126261809Y-75096690D01*
X125880857Y-75096690D01*
X126833238Y-74668119D02*
X126880857Y-74620500D01*
X126976095Y-74572880D01*
X127214190Y-74572880D01*
X127309428Y-74620500D01*
X127357047Y-74668119D01*
X127404666Y-74763357D01*
X127404666Y-74858595D01*
X127357047Y-75001452D01*
X126785619Y-75572880D01*
X127404666Y-75572880D01*
X117856095Y-86955380D02*
X117856095Y-87764904D01*
X117903714Y-87860142D01*
X117951333Y-87907761D01*
X118046571Y-87955380D01*
X118237047Y-87955380D01*
X118332285Y-87907761D01*
X118379904Y-87860142D01*
X118427523Y-87764904D01*
X118427523Y-86955380D01*
X119427523Y-87955380D02*
X118856095Y-87955380D01*
X119141809Y-87955380D02*
X119141809Y-86955380D01*
X119046571Y-87098238D01*
X118951333Y-87193476D01*
X118856095Y-87241095D01*
X117856095Y-71914380D02*
X117856095Y-72723904D01*
X117903714Y-72819142D01*
X117951333Y-72866761D01*
X118046571Y-72914380D01*
X118237047Y-72914380D01*
X118332285Y-72866761D01*
X118379904Y-72819142D01*
X118427523Y-72723904D01*
X118427523Y-71914380D01*
X118856095Y-72009619D02*
X118903714Y-71962000D01*
X118998952Y-71914380D01*
X119237047Y-71914380D01*
X119332285Y-71962000D01*
X119379904Y-72009619D01*
X119427523Y-72104857D01*
X119427523Y-72200095D01*
X119379904Y-72342952D01*
X118808476Y-72914380D01*
X119427523Y-72914380D01*
X119507095Y-111212380D02*
X119507095Y-112021904D01*
X119554714Y-112117142D01*
X119602333Y-112164761D01*
X119697571Y-112212380D01*
X119888047Y-112212380D01*
X119983285Y-112164761D01*
X120030904Y-112117142D01*
X120078523Y-112021904D01*
X120078523Y-111212380D01*
X120983285Y-111545714D02*
X120983285Y-112212380D01*
X120745190Y-111164761D02*
X120507095Y-111879047D01*
X121126142Y-111879047D01*
X153899477Y-93117526D02*
X153327057Y-93689946D01*
X153293385Y-93790961D01*
X153293385Y-93858305D01*
X153327057Y-93959320D01*
X153461744Y-94094007D01*
X153562759Y-94127679D01*
X153630103Y-94127679D01*
X153731118Y-94094007D01*
X154303538Y-93521587D01*
X154976973Y-94195022D02*
X154640255Y-93858305D01*
X154269866Y-94161351D01*
X154337209Y-94161351D01*
X154438225Y-94195022D01*
X154606583Y-94363381D01*
X154640255Y-94464396D01*
X154640255Y-94531740D01*
X154606583Y-94632755D01*
X154438225Y-94801114D01*
X154337209Y-94834786D01*
X154269866Y-94834786D01*
X154168851Y-94801114D01*
X154000492Y-94632755D01*
X153966820Y-94531740D01*
X153966820Y-94464396D01*
X146050095Y-109815380D02*
X146050095Y-110624904D01*
X146097714Y-110720142D01*
X146145333Y-110767761D01*
X146240571Y-110815380D01*
X146431047Y-110815380D01*
X146526285Y-110767761D01*
X146573904Y-110720142D01*
X146621523Y-110624904D01*
X146621523Y-109815380D01*
X147002476Y-109815380D02*
X147669142Y-109815380D01*
X147240571Y-110815380D01*
X143523809Y-74976190D02*
X143523809Y-75452380D01*
X143190476Y-74452380D02*
X143523809Y-74976190D01*
X143857142Y-74452380D01*
X144714285Y-75452380D02*
X144142857Y-75452380D01*
X144428571Y-75452380D02*
X144428571Y-74452380D01*
X144333333Y-74595238D01*
X144238095Y-74690476D01*
X144142857Y-74738095D01*
X117493142Y-98718666D02*
X117540761Y-98766285D01*
X117588380Y-98909142D01*
X117588380Y-99004380D01*
X117540761Y-99147238D01*
X117445523Y-99242476D01*
X117350285Y-99290095D01*
X117159809Y-99337714D01*
X117016952Y-99337714D01*
X116826476Y-99290095D01*
X116731238Y-99242476D01*
X116636000Y-99147238D01*
X116588380Y-99004380D01*
X116588380Y-98909142D01*
X116636000Y-98766285D01*
X116683619Y-98718666D01*
X117588380Y-97766285D02*
X117588380Y-98337714D01*
X117588380Y-98052000D02*
X116588380Y-98052000D01*
X116731238Y-98147238D01*
X116826476Y-98242476D01*
X116874095Y-98337714D01*
X156433333Y-66957142D02*
X156385714Y-67004761D01*
X156242857Y-67052380D01*
X156147619Y-67052380D01*
X156004761Y-67004761D01*
X155909523Y-66909523D01*
X155861904Y-66814285D01*
X155814285Y-66623809D01*
X155814285Y-66480952D01*
X155861904Y-66290476D01*
X155909523Y-66195238D01*
X156004761Y-66100000D01*
X156147619Y-66052380D01*
X156242857Y-66052380D01*
X156385714Y-66100000D01*
X156433333Y-66147619D01*
X156814285Y-66147619D02*
X156861904Y-66100000D01*
X156957142Y-66052380D01*
X157195238Y-66052380D01*
X157290476Y-66100000D01*
X157338095Y-66147619D01*
X157385714Y-66242857D01*
X157385714Y-66338095D01*
X157338095Y-66480952D01*
X156766666Y-67052380D01*
X157385714Y-67052380D01*
X145333333Y-66557142D02*
X145285714Y-66604761D01*
X145142857Y-66652380D01*
X145047619Y-66652380D01*
X144904761Y-66604761D01*
X144809523Y-66509523D01*
X144761904Y-66414285D01*
X144714285Y-66223809D01*
X144714285Y-66080952D01*
X144761904Y-65890476D01*
X144809523Y-65795238D01*
X144904761Y-65700000D01*
X145047619Y-65652380D01*
X145142857Y-65652380D01*
X145285714Y-65700000D01*
X145333333Y-65747619D01*
X145666666Y-65652380D02*
X146285714Y-65652380D01*
X145952380Y-66033333D01*
X146095238Y-66033333D01*
X146190476Y-66080952D01*
X146238095Y-66128571D01*
X146285714Y-66223809D01*
X146285714Y-66461904D01*
X146238095Y-66557142D01*
X146190476Y-66604761D01*
X146095238Y-66652380D01*
X145809523Y-66652380D01*
X145714285Y-66604761D01*
X145666666Y-66557142D01*
X142333333Y-66557142D02*
X142285714Y-66604761D01*
X142142857Y-66652380D01*
X142047619Y-66652380D01*
X141904761Y-66604761D01*
X141809523Y-66509523D01*
X141761904Y-66414285D01*
X141714285Y-66223809D01*
X141714285Y-66080952D01*
X141761904Y-65890476D01*
X141809523Y-65795238D01*
X141904761Y-65700000D01*
X142047619Y-65652380D01*
X142142857Y-65652380D01*
X142285714Y-65700000D01*
X142333333Y-65747619D01*
X143190476Y-65985714D02*
X143190476Y-66652380D01*
X142952380Y-65604761D02*
X142714285Y-66319047D01*
X143333333Y-66319047D01*
X120245142Y-98718666D02*
X120292761Y-98766285D01*
X120340380Y-98909142D01*
X120340380Y-99004380D01*
X120292761Y-99147238D01*
X120197523Y-99242476D01*
X120102285Y-99290095D01*
X119911809Y-99337714D01*
X119768952Y-99337714D01*
X119578476Y-99290095D01*
X119483238Y-99242476D01*
X119388000Y-99147238D01*
X119340380Y-99004380D01*
X119340380Y-98909142D01*
X119388000Y-98766285D01*
X119435619Y-98718666D01*
X119340380Y-97813904D02*
X119340380Y-98290095D01*
X119816571Y-98337714D01*
X119768952Y-98290095D01*
X119721333Y-98194857D01*
X119721333Y-97956761D01*
X119768952Y-97861523D01*
X119816571Y-97813904D01*
X119911809Y-97766285D01*
X120149904Y-97766285D01*
X120245142Y-97813904D01*
X120292761Y-97861523D01*
X120340380Y-97956761D01*
X120340380Y-98194857D01*
X120292761Y-98290095D01*
X120245142Y-98337714D01*
X117493142Y-83732666D02*
X117540761Y-83780285D01*
X117588380Y-83923142D01*
X117588380Y-84018380D01*
X117540761Y-84161238D01*
X117445523Y-84256476D01*
X117350285Y-84304095D01*
X117159809Y-84351714D01*
X117016952Y-84351714D01*
X116826476Y-84304095D01*
X116731238Y-84256476D01*
X116636000Y-84161238D01*
X116588380Y-84018380D01*
X116588380Y-83923142D01*
X116636000Y-83780285D01*
X116683619Y-83732666D01*
X116588380Y-83399333D02*
X116588380Y-82732666D01*
X117588380Y-83161238D01*
X120499142Y-83732666D02*
X120546761Y-83780285D01*
X120594380Y-83923142D01*
X120594380Y-84018380D01*
X120546761Y-84161238D01*
X120451523Y-84256476D01*
X120356285Y-84304095D01*
X120165809Y-84351714D01*
X120022952Y-84351714D01*
X119832476Y-84304095D01*
X119737238Y-84256476D01*
X119642000Y-84161238D01*
X119594380Y-84018380D01*
X119594380Y-83923142D01*
X119642000Y-83780285D01*
X119689619Y-83732666D01*
X120022952Y-83161238D02*
X119975333Y-83256476D01*
X119927714Y-83304095D01*
X119832476Y-83351714D01*
X119784857Y-83351714D01*
X119689619Y-83304095D01*
X119642000Y-83256476D01*
X119594380Y-83161238D01*
X119594380Y-82970761D01*
X119642000Y-82875523D01*
X119689619Y-82827904D01*
X119784857Y-82780285D01*
X119832476Y-82780285D01*
X119927714Y-82827904D01*
X119975333Y-82875523D01*
X120022952Y-82970761D01*
X120022952Y-83161238D01*
X120070571Y-83256476D01*
X120118190Y-83304095D01*
X120213428Y-83351714D01*
X120403904Y-83351714D01*
X120499142Y-83304095D01*
X120546761Y-83256476D01*
X120594380Y-83161238D01*
X120594380Y-82970761D01*
X120546761Y-82875523D01*
X120499142Y-82827904D01*
X120403904Y-82780285D01*
X120213428Y-82780285D01*
X120118190Y-82827904D01*
X120070571Y-82875523D01*
X120022952Y-82970761D01*
X153029610Y-75734687D02*
X152962267Y-75734687D01*
X152827580Y-75667343D01*
X152760236Y-75600000D01*
X152692893Y-75465312D01*
X152692893Y-75330625D01*
X152726564Y-75229610D01*
X152827580Y-75061251D01*
X152928595Y-74960236D01*
X153096954Y-74859221D01*
X153197969Y-74825549D01*
X153332656Y-74825549D01*
X153467343Y-74892893D01*
X153534687Y-74960236D01*
X153602030Y-75094923D01*
X153602030Y-75162267D01*
X153298984Y-76138748D02*
X153433671Y-76273435D01*
X153534687Y-76307106D01*
X153602030Y-76307106D01*
X153770389Y-76273435D01*
X153938748Y-76172419D01*
X154208122Y-75903045D01*
X154241793Y-75802030D01*
X154241793Y-75734687D01*
X154208122Y-75633671D01*
X154073435Y-75498984D01*
X153972419Y-75465312D01*
X153905076Y-75465312D01*
X153804061Y-75498984D01*
X153635702Y-75667343D01*
X153602030Y-75768358D01*
X153602030Y-75835702D01*
X153635702Y-75936717D01*
X153770389Y-76071404D01*
X153871404Y-76105076D01*
X153938748Y-76105076D01*
X154039763Y-76071404D01*
X130257142Y-105798857D02*
X130304761Y-105846476D01*
X130352380Y-105989333D01*
X130352380Y-106084571D01*
X130304761Y-106227428D01*
X130209523Y-106322666D01*
X130114285Y-106370285D01*
X129923809Y-106417904D01*
X129780952Y-106417904D01*
X129590476Y-106370285D01*
X129495238Y-106322666D01*
X129400000Y-106227428D01*
X129352380Y-106084571D01*
X129352380Y-105989333D01*
X129400000Y-105846476D01*
X129447619Y-105798857D01*
X130352380Y-104846476D02*
X130352380Y-105417904D01*
X130352380Y-105132190D02*
X129352380Y-105132190D01*
X129495238Y-105227428D01*
X129590476Y-105322666D01*
X129638095Y-105417904D01*
X129352380Y-104227428D02*
X129352380Y-104132190D01*
X129400000Y-104036952D01*
X129447619Y-103989333D01*
X129542857Y-103941714D01*
X129733333Y-103894095D01*
X129971428Y-103894095D01*
X130161904Y-103941714D01*
X130257142Y-103989333D01*
X130304761Y-104036952D01*
X130352380Y-104132190D01*
X130352380Y-104227428D01*
X130304761Y-104322666D01*
X130257142Y-104370285D01*
X130161904Y-104417904D01*
X129971428Y-104465523D01*
X129733333Y-104465523D01*
X129542857Y-104417904D01*
X129447619Y-104370285D01*
X129400000Y-104322666D01*
X129352380Y-104227428D01*
X128643142Y-119779142D02*
X128595523Y-119826761D01*
X128452666Y-119874380D01*
X128357428Y-119874380D01*
X128214571Y-119826761D01*
X128119333Y-119731523D01*
X128071714Y-119636285D01*
X128024095Y-119445809D01*
X128024095Y-119302952D01*
X128071714Y-119112476D01*
X128119333Y-119017238D01*
X128214571Y-118922000D01*
X128357428Y-118874380D01*
X128452666Y-118874380D01*
X128595523Y-118922000D01*
X128643142Y-118969619D01*
X129595523Y-119874380D02*
X129024095Y-119874380D01*
X129309809Y-119874380D02*
X129309809Y-118874380D01*
X129214571Y-119017238D01*
X129119333Y-119112476D01*
X129024095Y-119160095D01*
X130547904Y-119874380D02*
X129976476Y-119874380D01*
X130262190Y-119874380D02*
X130262190Y-118874380D01*
X130166952Y-119017238D01*
X130071714Y-119112476D01*
X129976476Y-119160095D01*
X113357142Y-114157142D02*
X113309523Y-114204761D01*
X113166666Y-114252380D01*
X113071428Y-114252380D01*
X112928571Y-114204761D01*
X112833333Y-114109523D01*
X112785714Y-114014285D01*
X112738095Y-113823809D01*
X112738095Y-113680952D01*
X112785714Y-113490476D01*
X112833333Y-113395238D01*
X112928571Y-113300000D01*
X113071428Y-113252380D01*
X113166666Y-113252380D01*
X113309523Y-113300000D01*
X113357142Y-113347619D01*
X114309523Y-114252380D02*
X113738095Y-114252380D01*
X114023809Y-114252380D02*
X114023809Y-113252380D01*
X113928571Y-113395238D01*
X113833333Y-113490476D01*
X113738095Y-113538095D01*
X114690476Y-113347619D02*
X114738095Y-113300000D01*
X114833333Y-113252380D01*
X115071428Y-113252380D01*
X115166666Y-113300000D01*
X115214285Y-113347619D01*
X115261904Y-113442857D01*
X115261904Y-113538095D01*
X115214285Y-113680952D01*
X114642857Y-114252380D01*
X115261904Y-114252380D01*
X134766072Y-91773648D02*
X134698728Y-91773648D01*
X134564041Y-91706304D01*
X134496698Y-91638961D01*
X134429354Y-91504274D01*
X134429354Y-91369587D01*
X134463026Y-91268572D01*
X134564041Y-91100213D01*
X134665056Y-90999198D01*
X134833415Y-90898182D01*
X134934430Y-90864511D01*
X135069117Y-90864511D01*
X135203804Y-90931854D01*
X135271148Y-90999198D01*
X135338491Y-91133885D01*
X135338491Y-91201228D01*
X135372163Y-92514427D02*
X134968102Y-92110366D01*
X135170133Y-92312396D02*
X135877240Y-91605289D01*
X135708881Y-91638961D01*
X135574194Y-91638961D01*
X135473179Y-91605289D01*
X136314972Y-92043022D02*
X136752705Y-92480755D01*
X136247629Y-92514427D01*
X136348644Y-92615442D01*
X136382316Y-92716457D01*
X136382316Y-92783801D01*
X136348644Y-92884816D01*
X136180285Y-93053175D01*
X136079270Y-93086846D01*
X136011927Y-93086846D01*
X135910911Y-93053175D01*
X135708881Y-92851144D01*
X135675209Y-92750129D01*
X135675209Y-92682785D01*
X147292506Y-94550714D02*
X147225162Y-94550714D01*
X147090475Y-94483370D01*
X147023132Y-94416027D01*
X146955788Y-94281340D01*
X146955788Y-94146653D01*
X146989460Y-94045638D01*
X147090475Y-93877279D01*
X147191490Y-93776264D01*
X147359849Y-93675248D01*
X147460864Y-93641577D01*
X147595551Y-93641577D01*
X147730238Y-93708920D01*
X147797582Y-93776264D01*
X147864925Y-93910951D01*
X147864925Y-93978294D01*
X147898597Y-95291493D02*
X147494536Y-94887432D01*
X147696567Y-95089462D02*
X148403674Y-94382355D01*
X148235315Y-94416027D01*
X148100628Y-94416027D01*
X147999613Y-94382355D01*
X148976093Y-95426180D02*
X148504689Y-95897584D01*
X149077109Y-94988447D02*
X148403674Y-95325164D01*
X148841406Y-95762897D01*
X154692893Y-77497968D02*
X154625549Y-77497968D01*
X154490862Y-77430624D01*
X154423519Y-77363281D01*
X154356175Y-77228594D01*
X154356175Y-77093907D01*
X154389847Y-76992892D01*
X154490862Y-76824533D01*
X154591877Y-76723518D01*
X154760236Y-76622502D01*
X154861251Y-76588831D01*
X154995938Y-76588831D01*
X155130625Y-76656174D01*
X155197969Y-76723518D01*
X155265312Y-76858205D01*
X155265312Y-76925548D01*
X155298984Y-78238747D02*
X154894923Y-77834686D01*
X155096954Y-78036716D02*
X155804061Y-77329609D01*
X155635702Y-77363281D01*
X155501015Y-77363281D01*
X155400000Y-77329609D01*
X156645854Y-78171403D02*
X156309137Y-77834686D01*
X155938748Y-78137731D01*
X156006091Y-78137731D01*
X156107106Y-78171403D01*
X156275465Y-78339762D01*
X156309137Y-78440777D01*
X156309137Y-78508121D01*
X156275465Y-78609136D01*
X156107106Y-78777495D01*
X156006091Y-78811166D01*
X155938748Y-78811166D01*
X155837732Y-78777495D01*
X155669374Y-78609136D01*
X155635702Y-78508121D01*
X155635702Y-78440777D01*
X150792893Y-73397969D02*
X150725549Y-73397969D01*
X150590862Y-73330625D01*
X150523519Y-73263282D01*
X150456175Y-73128595D01*
X150456175Y-72993908D01*
X150489847Y-72892893D01*
X150590862Y-72724534D01*
X150691877Y-72623519D01*
X150860236Y-72522503D01*
X150961251Y-72488832D01*
X151095938Y-72488832D01*
X151230625Y-72556175D01*
X151297969Y-72623519D01*
X151365312Y-72758206D01*
X151365312Y-72825549D01*
X151398984Y-74138748D02*
X150994923Y-73734687D01*
X151196954Y-73936717D02*
X151904061Y-73229610D01*
X151735702Y-73263282D01*
X151601015Y-73263282D01*
X151500000Y-73229610D01*
X152712183Y-74037732D02*
X152577496Y-73903045D01*
X152476480Y-73869374D01*
X152409137Y-73869374D01*
X152240778Y-73903045D01*
X152072419Y-74004061D01*
X151803045Y-74273435D01*
X151769374Y-74374450D01*
X151769374Y-74441793D01*
X151803045Y-74542809D01*
X151937732Y-74677496D01*
X152038748Y-74711167D01*
X152106091Y-74711167D01*
X152207106Y-74677496D01*
X152375465Y-74509137D01*
X152409137Y-74408122D01*
X152409137Y-74340778D01*
X152375465Y-74239763D01*
X152240778Y-74105076D01*
X152139763Y-74071404D01*
X152072419Y-74071404D01*
X151971404Y-74105076D01*
X153432148Y-84562927D02*
X153432148Y-84630271D01*
X153364804Y-84764958D01*
X153297461Y-84832301D01*
X153162774Y-84899645D01*
X153028087Y-84899645D01*
X152927072Y-84865973D01*
X152758713Y-84764958D01*
X152657698Y-84663943D01*
X152556682Y-84495584D01*
X152523011Y-84394569D01*
X152523011Y-84259882D01*
X152590354Y-84125195D01*
X152657698Y-84057851D01*
X152792385Y-83990508D01*
X152859728Y-83990508D01*
X154172927Y-83956836D02*
X153768866Y-84360897D01*
X153970896Y-84158866D02*
X153263789Y-83451759D01*
X153297461Y-83620118D01*
X153297461Y-83754805D01*
X153263789Y-83855821D01*
X153701522Y-83014027D02*
X154172927Y-82542622D01*
X154576988Y-83552775D01*
X137023753Y-77315455D02*
X137023753Y-77382798D01*
X136956409Y-77517485D01*
X136889066Y-77584829D01*
X136754378Y-77652172D01*
X136619691Y-77652172D01*
X136518676Y-77618501D01*
X136350317Y-77517485D01*
X136249302Y-77416470D01*
X136148287Y-77248111D01*
X136114615Y-77147096D01*
X136114615Y-77012409D01*
X136181959Y-76877722D01*
X136249302Y-76810378D01*
X136383989Y-76743035D01*
X136451333Y-76743035D01*
X136990081Y-76069600D02*
X136855394Y-76204287D01*
X136821722Y-76305302D01*
X136821722Y-76372646D01*
X136855394Y-76541004D01*
X136956409Y-76709363D01*
X137225783Y-76978737D01*
X137326798Y-77012409D01*
X137394142Y-77012409D01*
X137495157Y-76978737D01*
X137629844Y-76844050D01*
X137663516Y-76743035D01*
X137663516Y-76675691D01*
X137629844Y-76574676D01*
X137461485Y-76406317D01*
X137360470Y-76372646D01*
X137293127Y-76372646D01*
X137192111Y-76406317D01*
X137057424Y-76541004D01*
X137023753Y-76642020D01*
X137023753Y-76709363D01*
X137057424Y-76810378D01*
X144048477Y-78712790D02*
X143476057Y-79285210D01*
X143442385Y-79386225D01*
X143442385Y-79453569D01*
X143476057Y-79554584D01*
X143610744Y-79689271D01*
X143711759Y-79722943D01*
X143779103Y-79722943D01*
X143880118Y-79689271D01*
X144452538Y-79116851D01*
X144721912Y-79386225D02*
X145159644Y-79823958D01*
X144654568Y-79857630D01*
X144755583Y-79958645D01*
X144789255Y-80059660D01*
X144789255Y-80127004D01*
X144755583Y-80228019D01*
X144587225Y-80396378D01*
X144486209Y-80430050D01*
X144418866Y-80430050D01*
X144317851Y-80396378D01*
X144115820Y-80194347D01*
X144082148Y-80093332D01*
X144082148Y-80025989D01*
X134561904Y-69952380D02*
X134561904Y-68952380D01*
X134800000Y-68952380D01*
X134942857Y-69000000D01*
X135038095Y-69095238D01*
X135085714Y-69190476D01*
X135133333Y-69380952D01*
X135133333Y-69523809D01*
X135085714Y-69714285D01*
X135038095Y-69809523D01*
X134942857Y-69904761D01*
X134800000Y-69952380D01*
X134561904Y-69952380D01*
X135466666Y-68952380D02*
X136085714Y-68952380D01*
X135752380Y-69333333D01*
X135895238Y-69333333D01*
X135990476Y-69380952D01*
X136038095Y-69428571D01*
X136085714Y-69523809D01*
X136085714Y-69761904D01*
X136038095Y-69857142D01*
X135990476Y-69904761D01*
X135895238Y-69952380D01*
X135609523Y-69952380D01*
X135514285Y-69904761D01*
X135466666Y-69857142D01*
M02*
