G04 #@! TF.GenerationSoftware,KiCad,Pcbnew,(5.1.2)-2*
G04 #@! TF.CreationDate,2019-12-19T20:27:40-08:00*
G04 #@! TF.ProjectId,mainboard,6d61696e-626f-4617-9264-2e6b69636164,v3*
G04 #@! TF.SameCoordinates,Original*
G04 #@! TF.FileFunction,Soldermask,Bot*
G04 #@! TF.FilePolarity,Negative*
%FSLAX46Y46*%
G04 Gerber Fmt 4.6, Leading zero omitted, Abs format (unit mm)*
G04 Created by KiCad (PCBNEW (5.1.2)-2) date 2019-12-19 20:27:40*
%MOMM*%
%LPD*%
G04 APERTURE LIST*
%ADD10C,0.010000*%
%ADD11C,0.100000*%
G04 APERTURE END LIST*
D10*
G36*
X129698004Y-100619894D02*
G01*
X129615624Y-100682231D01*
X129584325Y-100721537D01*
X129498945Y-100870255D01*
X129426369Y-101046819D01*
X129380152Y-101214488D01*
X129370666Y-101300625D01*
X129378546Y-101348896D01*
X129407504Y-101397528D01*
X129465516Y-101451322D01*
X129560560Y-101515080D01*
X129700610Y-101593602D01*
X129893646Y-101691690D01*
X130147642Y-101814144D01*
X130470576Y-101965766D01*
X130493546Y-101976467D01*
X130785513Y-102113112D01*
X131029741Y-102229881D01*
X131240666Y-102335023D01*
X131432720Y-102436791D01*
X131620338Y-102543435D01*
X131817955Y-102663207D01*
X132040003Y-102804358D01*
X132300918Y-102975138D01*
X132615133Y-103183800D01*
X132672666Y-103222152D01*
X132967045Y-103416588D01*
X133201269Y-103566681D01*
X133384000Y-103677413D01*
X133523897Y-103753766D01*
X133629622Y-103800723D01*
X133709834Y-103823266D01*
X133720416Y-103824878D01*
X133900333Y-103848944D01*
X133900333Y-103349470D01*
X133360583Y-102900207D01*
X132884174Y-102513981D01*
X132400685Y-102141459D01*
X131921731Y-101790751D01*
X131458922Y-101469969D01*
X131023873Y-101187223D01*
X130628195Y-100950625D01*
X130369296Y-100810900D01*
X130126531Y-100694400D01*
X129941620Y-100624631D01*
X129802723Y-100600245D01*
X129698004Y-100619894D01*
X129698004Y-100619894D01*
G37*
X129698004Y-100619894D02*
X129615624Y-100682231D01*
X129584325Y-100721537D01*
X129498945Y-100870255D01*
X129426369Y-101046819D01*
X129380152Y-101214488D01*
X129370666Y-101300625D01*
X129378546Y-101348896D01*
X129407504Y-101397528D01*
X129465516Y-101451322D01*
X129560560Y-101515080D01*
X129700610Y-101593602D01*
X129893646Y-101691690D01*
X130147642Y-101814144D01*
X130470576Y-101965766D01*
X130493546Y-101976467D01*
X130785513Y-102113112D01*
X131029741Y-102229881D01*
X131240666Y-102335023D01*
X131432720Y-102436791D01*
X131620338Y-102543435D01*
X131817955Y-102663207D01*
X132040003Y-102804358D01*
X132300918Y-102975138D01*
X132615133Y-103183800D01*
X132672666Y-103222152D01*
X132967045Y-103416588D01*
X133201269Y-103566681D01*
X133384000Y-103677413D01*
X133523897Y-103753766D01*
X133629622Y-103800723D01*
X133709834Y-103823266D01*
X133720416Y-103824878D01*
X133900333Y-103848944D01*
X133900333Y-103349470D01*
X133360583Y-102900207D01*
X132884174Y-102513981D01*
X132400685Y-102141459D01*
X131921731Y-101790751D01*
X131458922Y-101469969D01*
X131023873Y-101187223D01*
X130628195Y-100950625D01*
X130369296Y-100810900D01*
X130126531Y-100694400D01*
X129941620Y-100624631D01*
X129802723Y-100600245D01*
X129698004Y-100619894D01*
G36*
X140282747Y-100610229D02*
G01*
X140280190Y-100610571D01*
X140103643Y-100657518D01*
X139870791Y-100756128D01*
X139588622Y-100901829D01*
X139264126Y-101090052D01*
X138904291Y-101316225D01*
X138516107Y-101575777D01*
X138106562Y-101864136D01*
X137682647Y-102176733D01*
X137251348Y-102508995D01*
X136819656Y-102856353D01*
X136718406Y-102940095D01*
X136340312Y-103254496D01*
X136334219Y-103555748D01*
X136334365Y-103702106D01*
X136340422Y-103807445D01*
X136351112Y-103851081D01*
X136352479Y-103851235D01*
X136408866Y-103839679D01*
X136478113Y-103826334D01*
X136539794Y-103798186D01*
X136660856Y-103728881D01*
X136830745Y-103624986D01*
X137038907Y-103493069D01*
X137274790Y-103339697D01*
X137494113Y-103194076D01*
X137770598Y-103010713D01*
X138023600Y-102848003D01*
X138265686Y-102699016D01*
X138509420Y-102556819D01*
X138767367Y-102414479D01*
X139052094Y-102265065D01*
X139376164Y-102101645D01*
X139752143Y-101917287D01*
X140192596Y-101705060D01*
X140196969Y-101702965D01*
X140383562Y-101610897D01*
X140543934Y-101526769D01*
X140661444Y-101459653D01*
X140719452Y-101418623D01*
X140720344Y-101417599D01*
X140750249Y-101323292D01*
X140739640Y-101180576D01*
X140693470Y-101012465D01*
X140616692Y-100841972D01*
X140584832Y-100788079D01*
X140509130Y-100674163D01*
X140451257Y-100616867D01*
X140384650Y-100600714D01*
X140282747Y-100610229D01*
X140282747Y-100610229D01*
G37*
X140282747Y-100610229D02*
X140280190Y-100610571D01*
X140103643Y-100657518D01*
X139870791Y-100756128D01*
X139588622Y-100901829D01*
X139264126Y-101090052D01*
X138904291Y-101316225D01*
X138516107Y-101575777D01*
X138106562Y-101864136D01*
X137682647Y-102176733D01*
X137251348Y-102508995D01*
X136819656Y-102856353D01*
X136718406Y-102940095D01*
X136340312Y-103254496D01*
X136334219Y-103555748D01*
X136334365Y-103702106D01*
X136340422Y-103807445D01*
X136351112Y-103851081D01*
X136352479Y-103851235D01*
X136408866Y-103839679D01*
X136478113Y-103826334D01*
X136539794Y-103798186D01*
X136660856Y-103728881D01*
X136830745Y-103624986D01*
X137038907Y-103493069D01*
X137274790Y-103339697D01*
X137494113Y-103194076D01*
X137770598Y-103010713D01*
X138023600Y-102848003D01*
X138265686Y-102699016D01*
X138509420Y-102556819D01*
X138767367Y-102414479D01*
X139052094Y-102265065D01*
X139376164Y-102101645D01*
X139752143Y-101917287D01*
X140192596Y-101705060D01*
X140196969Y-101702965D01*
X140383562Y-101610897D01*
X140543934Y-101526769D01*
X140661444Y-101459653D01*
X140719452Y-101418623D01*
X140720344Y-101417599D01*
X140750249Y-101323292D01*
X140739640Y-101180576D01*
X140693470Y-101012465D01*
X140616692Y-100841972D01*
X140584832Y-100788079D01*
X140509130Y-100674163D01*
X140451257Y-100616867D01*
X140384650Y-100600714D01*
X140282747Y-100610229D01*
G36*
X133699250Y-106269889D02*
G01*
X133626139Y-106285442D01*
X133540229Y-106316841D01*
X133432324Y-106369350D01*
X133293229Y-106448229D01*
X133113750Y-106558741D01*
X132884691Y-106706148D01*
X132596856Y-106895713D01*
X132541538Y-106932430D01*
X132263864Y-107114191D01*
X131985912Y-107291240D01*
X131722343Y-107454599D01*
X131487817Y-107595287D01*
X131296998Y-107704325D01*
X131186871Y-107762143D01*
X131012318Y-107847040D01*
X130784044Y-107957666D01*
X130524648Y-108083092D01*
X130256726Y-108212389D01*
X130079750Y-108297641D01*
X129831272Y-108417621D01*
X129648917Y-108507886D01*
X129522473Y-108575352D01*
X129441731Y-108626937D01*
X129396481Y-108669557D01*
X129376513Y-108710129D01*
X129371617Y-108755570D01*
X129371596Y-108777379D01*
X129394466Y-108929098D01*
X129453292Y-109093864D01*
X129536192Y-109251608D01*
X129631280Y-109382259D01*
X129726673Y-109465747D01*
X129790796Y-109485353D01*
X129868050Y-109469378D01*
X129987959Y-109431122D01*
X130052052Y-109407257D01*
X130316737Y-109287408D01*
X130634141Y-109116121D01*
X130995035Y-108899676D01*
X131390193Y-108644349D01*
X131810387Y-108356419D01*
X132246388Y-108042164D01*
X132688969Y-107707861D01*
X133128902Y-107359789D01*
X133445250Y-107098784D01*
X133900333Y-106716240D01*
X133900333Y-106242846D01*
X133699250Y-106269889D01*
X133699250Y-106269889D01*
G37*
X133699250Y-106269889D02*
X133626139Y-106285442D01*
X133540229Y-106316841D01*
X133432324Y-106369350D01*
X133293229Y-106448229D01*
X133113750Y-106558741D01*
X132884691Y-106706148D01*
X132596856Y-106895713D01*
X132541538Y-106932430D01*
X132263864Y-107114191D01*
X131985912Y-107291240D01*
X131722343Y-107454599D01*
X131487817Y-107595287D01*
X131296998Y-107704325D01*
X131186871Y-107762143D01*
X131012318Y-107847040D01*
X130784044Y-107957666D01*
X130524648Y-108083092D01*
X130256726Y-108212389D01*
X130079750Y-108297641D01*
X129831272Y-108417621D01*
X129648917Y-108507886D01*
X129522473Y-108575352D01*
X129441731Y-108626937D01*
X129396481Y-108669557D01*
X129376513Y-108710129D01*
X129371617Y-108755570D01*
X129371596Y-108777379D01*
X129394466Y-108929098D01*
X129453292Y-109093864D01*
X129536192Y-109251608D01*
X129631280Y-109382259D01*
X129726673Y-109465747D01*
X129790796Y-109485353D01*
X129868050Y-109469378D01*
X129987959Y-109431122D01*
X130052052Y-109407257D01*
X130316737Y-109287408D01*
X130634141Y-109116121D01*
X130995035Y-108899676D01*
X131390193Y-108644349D01*
X131810387Y-108356419D01*
X132246388Y-108042164D01*
X132688969Y-107707861D01*
X133128902Y-107359789D01*
X133445250Y-107098784D01*
X133900333Y-106716240D01*
X133900333Y-106242846D01*
X133699250Y-106269889D01*
G36*
X136332228Y-106526930D02*
G01*
X136334500Y-106808509D01*
X136800166Y-107193856D01*
X137258564Y-107563854D01*
X137723208Y-107921331D01*
X138182928Y-108258498D01*
X138626552Y-108567570D01*
X139042909Y-108840760D01*
X139420826Y-109070282D01*
X139744436Y-109245999D01*
X139975895Y-109358616D01*
X140147663Y-109431541D01*
X140273570Y-109467063D01*
X140367448Y-109467474D01*
X140443130Y-109435066D01*
X140513272Y-109373361D01*
X140623009Y-109216876D01*
X140709152Y-109017999D01*
X140754937Y-108818730D01*
X140758333Y-108759349D01*
X140754925Y-108713912D01*
X140737858Y-108673642D01*
X140696871Y-108631845D01*
X140621703Y-108581829D01*
X140502091Y-108516899D01*
X140327775Y-108430361D01*
X140088491Y-108315523D01*
X140049250Y-108296819D01*
X139663869Y-108112555D01*
X139341846Y-107956488D01*
X139069745Y-107821153D01*
X138834132Y-107699088D01*
X138621574Y-107582829D01*
X138418636Y-107464912D01*
X138211885Y-107337874D01*
X137987886Y-107194251D01*
X137733205Y-107026581D01*
X137583333Y-106926842D01*
X137236136Y-106698475D01*
X136950609Y-106517543D01*
X136728245Y-106384938D01*
X136570536Y-106301549D01*
X136480394Y-106268473D01*
X136329955Y-106245350D01*
X136332228Y-106526930D01*
X136332228Y-106526930D01*
G37*
X136332228Y-106526930D02*
X136334500Y-106808509D01*
X136800166Y-107193856D01*
X137258564Y-107563854D01*
X137723208Y-107921331D01*
X138182928Y-108258498D01*
X138626552Y-108567570D01*
X139042909Y-108840760D01*
X139420826Y-109070282D01*
X139744436Y-109245999D01*
X139975895Y-109358616D01*
X140147663Y-109431541D01*
X140273570Y-109467063D01*
X140367448Y-109467474D01*
X140443130Y-109435066D01*
X140513272Y-109373361D01*
X140623009Y-109216876D01*
X140709152Y-109017999D01*
X140754937Y-108818730D01*
X140758333Y-108759349D01*
X140754925Y-108713912D01*
X140737858Y-108673642D01*
X140696871Y-108631845D01*
X140621703Y-108581829D01*
X140502091Y-108516899D01*
X140327775Y-108430361D01*
X140088491Y-108315523D01*
X140049250Y-108296819D01*
X139663869Y-108112555D01*
X139341846Y-107956488D01*
X139069745Y-107821153D01*
X138834132Y-107699088D01*
X138621574Y-107582829D01*
X138418636Y-107464912D01*
X138211885Y-107337874D01*
X137987886Y-107194251D01*
X137733205Y-107026581D01*
X137583333Y-106926842D01*
X137236136Y-106698475D01*
X136950609Y-106517543D01*
X136728245Y-106384938D01*
X136570536Y-106301549D01*
X136480394Y-106268473D01*
X136329955Y-106245350D01*
X136332228Y-106526930D01*
D11*
G36*
X151378961Y-150723450D02*
G01*
X151475088Y-150752610D01*
X151563670Y-150799958D01*
X151641318Y-150863682D01*
X151705042Y-150941330D01*
X151752390Y-151029912D01*
X151781550Y-151126039D01*
X151792000Y-151232140D01*
X151792000Y-152495860D01*
X151781550Y-152601961D01*
X151752390Y-152698088D01*
X151705042Y-152786670D01*
X151641318Y-152864318D01*
X151563670Y-152928042D01*
X151475088Y-152975390D01*
X151378961Y-153004550D01*
X151272860Y-153015000D01*
X149009140Y-153015000D01*
X148903039Y-153004550D01*
X148806912Y-152975390D01*
X148718330Y-152928042D01*
X148640682Y-152864318D01*
X148576958Y-152786670D01*
X148529610Y-152698088D01*
X148500450Y-152601961D01*
X148490000Y-152495860D01*
X148490000Y-151232140D01*
X148500450Y-151126039D01*
X148529610Y-151029912D01*
X148576958Y-150941330D01*
X148640682Y-150863682D01*
X148718330Y-150799958D01*
X148806912Y-150752610D01*
X148903039Y-150723450D01*
X149009140Y-150713000D01*
X151272860Y-150713000D01*
X151378961Y-150723450D01*
X151378961Y-150723450D01*
G37*
G36*
X121533961Y-150723450D02*
G01*
X121630088Y-150752610D01*
X121718670Y-150799958D01*
X121796318Y-150863682D01*
X121860042Y-150941330D01*
X121907390Y-151029912D01*
X121936550Y-151126039D01*
X121947000Y-151232140D01*
X121947000Y-152495860D01*
X121936550Y-152601961D01*
X121907390Y-152698088D01*
X121860042Y-152786670D01*
X121796318Y-152864318D01*
X121718670Y-152928042D01*
X121630088Y-152975390D01*
X121533961Y-153004550D01*
X121427860Y-153015000D01*
X119164140Y-153015000D01*
X119058039Y-153004550D01*
X118961912Y-152975390D01*
X118873330Y-152928042D01*
X118795682Y-152864318D01*
X118731958Y-152786670D01*
X118684610Y-152698088D01*
X118655450Y-152601961D01*
X118645000Y-152495860D01*
X118645000Y-151232140D01*
X118655450Y-151126039D01*
X118684610Y-151029912D01*
X118731958Y-150941330D01*
X118795682Y-150863682D01*
X118873330Y-150799958D01*
X118961912Y-150752610D01*
X119058039Y-150723450D01*
X119164140Y-150713000D01*
X121427860Y-150713000D01*
X121533961Y-150723450D01*
X121533961Y-150723450D01*
G37*
G36*
X136456461Y-150723450D02*
G01*
X136552588Y-150752610D01*
X136641170Y-150799958D01*
X136718818Y-150863682D01*
X136782542Y-150941330D01*
X136829890Y-151029912D01*
X136859050Y-151126039D01*
X136869500Y-151232140D01*
X136869500Y-152495860D01*
X136859050Y-152601961D01*
X136829890Y-152698088D01*
X136782542Y-152786670D01*
X136718818Y-152864318D01*
X136641170Y-152928042D01*
X136552588Y-152975390D01*
X136456461Y-153004550D01*
X136350360Y-153015000D01*
X134086640Y-153015000D01*
X133980539Y-153004550D01*
X133884412Y-152975390D01*
X133795830Y-152928042D01*
X133718182Y-152864318D01*
X133654458Y-152786670D01*
X133607110Y-152698088D01*
X133577950Y-152601961D01*
X133567500Y-152495860D01*
X133567500Y-151232140D01*
X133577950Y-151126039D01*
X133607110Y-151029912D01*
X133654458Y-150941330D01*
X133718182Y-150863682D01*
X133795830Y-150799958D01*
X133884412Y-150752610D01*
X133980539Y-150723450D01*
X134086640Y-150713000D01*
X136350360Y-150713000D01*
X136456461Y-150723450D01*
X136456461Y-150723450D01*
G37*
G36*
X131256461Y-147523450D02*
G01*
X131352588Y-147552610D01*
X131441170Y-147599958D01*
X131518818Y-147663682D01*
X131582542Y-147741330D01*
X131629890Y-147829912D01*
X131659050Y-147926039D01*
X131669500Y-148032140D01*
X131669500Y-150295860D01*
X131659050Y-150401961D01*
X131629890Y-150498088D01*
X131582542Y-150586670D01*
X131518818Y-150664318D01*
X131441170Y-150728042D01*
X131352588Y-150775390D01*
X131256461Y-150804550D01*
X131150360Y-150815000D01*
X129886640Y-150815000D01*
X129780539Y-150804550D01*
X129684412Y-150775390D01*
X129595830Y-150728042D01*
X129518182Y-150664318D01*
X129454458Y-150586670D01*
X129407110Y-150498088D01*
X129377950Y-150401961D01*
X129367500Y-150295860D01*
X129367500Y-148032140D01*
X129377950Y-147926039D01*
X129407110Y-147829912D01*
X129454458Y-147741330D01*
X129518182Y-147663682D01*
X129595830Y-147599958D01*
X129684412Y-147552610D01*
X129780539Y-147523450D01*
X129886640Y-147513000D01*
X131150360Y-147513000D01*
X131256461Y-147523450D01*
X131256461Y-147523450D01*
G37*
G36*
X146178961Y-147523450D02*
G01*
X146275088Y-147552610D01*
X146363670Y-147599958D01*
X146441318Y-147663682D01*
X146505042Y-147741330D01*
X146552390Y-147829912D01*
X146581550Y-147926039D01*
X146592000Y-148032140D01*
X146592000Y-150295860D01*
X146581550Y-150401961D01*
X146552390Y-150498088D01*
X146505042Y-150586670D01*
X146441318Y-150664318D01*
X146363670Y-150728042D01*
X146275088Y-150775390D01*
X146178961Y-150804550D01*
X146072860Y-150815000D01*
X144809140Y-150815000D01*
X144703039Y-150804550D01*
X144606912Y-150775390D01*
X144518330Y-150728042D01*
X144440682Y-150664318D01*
X144376958Y-150586670D01*
X144329610Y-150498088D01*
X144300450Y-150401961D01*
X144290000Y-150295860D01*
X144290000Y-148032140D01*
X144300450Y-147926039D01*
X144329610Y-147829912D01*
X144376958Y-147741330D01*
X144440682Y-147663682D01*
X144518330Y-147599958D01*
X144606912Y-147552610D01*
X144703039Y-147523450D01*
X144809140Y-147513000D01*
X146072860Y-147513000D01*
X146178961Y-147523450D01*
X146178961Y-147523450D01*
G37*
G36*
X125833961Y-147523450D02*
G01*
X125930088Y-147552610D01*
X126018670Y-147599958D01*
X126096318Y-147663682D01*
X126160042Y-147741330D01*
X126207390Y-147829912D01*
X126236550Y-147926039D01*
X126247000Y-148032140D01*
X126247000Y-150295860D01*
X126236550Y-150401961D01*
X126207390Y-150498088D01*
X126160042Y-150586670D01*
X126096318Y-150664318D01*
X126018670Y-150728042D01*
X125930088Y-150775390D01*
X125833961Y-150804550D01*
X125727860Y-150815000D01*
X124464140Y-150815000D01*
X124358039Y-150804550D01*
X124261912Y-150775390D01*
X124173330Y-150728042D01*
X124095682Y-150664318D01*
X124031958Y-150586670D01*
X123984610Y-150498088D01*
X123955450Y-150401961D01*
X123945000Y-150295860D01*
X123945000Y-148032140D01*
X123955450Y-147926039D01*
X123984610Y-147829912D01*
X124031958Y-147741330D01*
X124095682Y-147663682D01*
X124173330Y-147599958D01*
X124261912Y-147552610D01*
X124358039Y-147523450D01*
X124464140Y-147513000D01*
X125727860Y-147513000D01*
X125833961Y-147523450D01*
X125833961Y-147523450D01*
G37*
G36*
X116333961Y-147523450D02*
G01*
X116430088Y-147552610D01*
X116518670Y-147599958D01*
X116596318Y-147663682D01*
X116660042Y-147741330D01*
X116707390Y-147829912D01*
X116736550Y-147926039D01*
X116747000Y-148032140D01*
X116747000Y-150295860D01*
X116736550Y-150401961D01*
X116707390Y-150498088D01*
X116660042Y-150586670D01*
X116596318Y-150664318D01*
X116518670Y-150728042D01*
X116430088Y-150775390D01*
X116333961Y-150804550D01*
X116227860Y-150815000D01*
X114964140Y-150815000D01*
X114858039Y-150804550D01*
X114761912Y-150775390D01*
X114673330Y-150728042D01*
X114595682Y-150664318D01*
X114531958Y-150586670D01*
X114484610Y-150498088D01*
X114455450Y-150401961D01*
X114445000Y-150295860D01*
X114445000Y-148032140D01*
X114455450Y-147926039D01*
X114484610Y-147829912D01*
X114531958Y-147741330D01*
X114595682Y-147663682D01*
X114673330Y-147599958D01*
X114761912Y-147552610D01*
X114858039Y-147523450D01*
X114964140Y-147513000D01*
X116227860Y-147513000D01*
X116333961Y-147523450D01*
X116333961Y-147523450D01*
G37*
G36*
X140756461Y-147523450D02*
G01*
X140852588Y-147552610D01*
X140941170Y-147599958D01*
X141018818Y-147663682D01*
X141082542Y-147741330D01*
X141129890Y-147829912D01*
X141159050Y-147926039D01*
X141169500Y-148032140D01*
X141169500Y-150295860D01*
X141159050Y-150401961D01*
X141129890Y-150498088D01*
X141082542Y-150586670D01*
X141018818Y-150664318D01*
X140941170Y-150728042D01*
X140852588Y-150775390D01*
X140756461Y-150804550D01*
X140650360Y-150815000D01*
X139386640Y-150815000D01*
X139280539Y-150804550D01*
X139184412Y-150775390D01*
X139095830Y-150728042D01*
X139018182Y-150664318D01*
X138954458Y-150586670D01*
X138907110Y-150498088D01*
X138877950Y-150401961D01*
X138867500Y-150295860D01*
X138867500Y-148032140D01*
X138877950Y-147926039D01*
X138907110Y-147829912D01*
X138954458Y-147741330D01*
X139018182Y-147663682D01*
X139095830Y-147599958D01*
X139184412Y-147552610D01*
X139280539Y-147523450D01*
X139386640Y-147513000D01*
X140650360Y-147513000D01*
X140756461Y-147523450D01*
X140756461Y-147523450D01*
G37*
G36*
X155678961Y-147523450D02*
G01*
X155775088Y-147552610D01*
X155863670Y-147599958D01*
X155941318Y-147663682D01*
X156005042Y-147741330D01*
X156052390Y-147829912D01*
X156081550Y-147926039D01*
X156092000Y-148032140D01*
X156092000Y-150295860D01*
X156081550Y-150401961D01*
X156052390Y-150498088D01*
X156005042Y-150586670D01*
X155941318Y-150664318D01*
X155863670Y-150728042D01*
X155775088Y-150775390D01*
X155678961Y-150804550D01*
X155572860Y-150815000D01*
X154309140Y-150815000D01*
X154203039Y-150804550D01*
X154106912Y-150775390D01*
X154018330Y-150728042D01*
X153940682Y-150664318D01*
X153876958Y-150586670D01*
X153829610Y-150498088D01*
X153800450Y-150401961D01*
X153790000Y-150295860D01*
X153790000Y-148032140D01*
X153800450Y-147926039D01*
X153829610Y-147829912D01*
X153876958Y-147741330D01*
X153940682Y-147663682D01*
X154018330Y-147599958D01*
X154106912Y-147552610D01*
X154203039Y-147523450D01*
X154309140Y-147513000D01*
X155572860Y-147513000D01*
X155678961Y-147523450D01*
X155678961Y-147523450D01*
G37*
G36*
X151478961Y-142623450D02*
G01*
X151575088Y-142652610D01*
X151663670Y-142699958D01*
X151741318Y-142763682D01*
X151805042Y-142841330D01*
X151852390Y-142929912D01*
X151881550Y-143026039D01*
X151892000Y-143132140D01*
X151892000Y-144395860D01*
X151881550Y-144501961D01*
X151852390Y-144598088D01*
X151805042Y-144686670D01*
X151741318Y-144764318D01*
X151663670Y-144828042D01*
X151575088Y-144875390D01*
X151478961Y-144904550D01*
X151372860Y-144915000D01*
X149109140Y-144915000D01*
X149003039Y-144904550D01*
X148906912Y-144875390D01*
X148818330Y-144828042D01*
X148740682Y-144764318D01*
X148676958Y-144686670D01*
X148629610Y-144598088D01*
X148600450Y-144501961D01*
X148590000Y-144395860D01*
X148590000Y-143132140D01*
X148600450Y-143026039D01*
X148629610Y-142929912D01*
X148676958Y-142841330D01*
X148740682Y-142763682D01*
X148818330Y-142699958D01*
X148906912Y-142652610D01*
X149003039Y-142623450D01*
X149109140Y-142613000D01*
X151372860Y-142613000D01*
X151478961Y-142623450D01*
X151478961Y-142623450D01*
G37*
G36*
X121633961Y-142623450D02*
G01*
X121730088Y-142652610D01*
X121818670Y-142699958D01*
X121896318Y-142763682D01*
X121960042Y-142841330D01*
X122007390Y-142929912D01*
X122036550Y-143026039D01*
X122047000Y-143132140D01*
X122047000Y-144395860D01*
X122036550Y-144501961D01*
X122007390Y-144598088D01*
X121960042Y-144686670D01*
X121896318Y-144764318D01*
X121818670Y-144828042D01*
X121730088Y-144875390D01*
X121633961Y-144904550D01*
X121527860Y-144915000D01*
X119264140Y-144915000D01*
X119158039Y-144904550D01*
X119061912Y-144875390D01*
X118973330Y-144828042D01*
X118895682Y-144764318D01*
X118831958Y-144686670D01*
X118784610Y-144598088D01*
X118755450Y-144501961D01*
X118745000Y-144395860D01*
X118745000Y-143132140D01*
X118755450Y-143026039D01*
X118784610Y-142929912D01*
X118831958Y-142841330D01*
X118895682Y-142763682D01*
X118973330Y-142699958D01*
X119061912Y-142652610D01*
X119158039Y-142623450D01*
X119264140Y-142613000D01*
X121527860Y-142613000D01*
X121633961Y-142623450D01*
X121633961Y-142623450D01*
G37*
G36*
X136556461Y-142623450D02*
G01*
X136652588Y-142652610D01*
X136741170Y-142699958D01*
X136818818Y-142763682D01*
X136882542Y-142841330D01*
X136929890Y-142929912D01*
X136959050Y-143026039D01*
X136969500Y-143132140D01*
X136969500Y-144395860D01*
X136959050Y-144501961D01*
X136929890Y-144598088D01*
X136882542Y-144686670D01*
X136818818Y-144764318D01*
X136741170Y-144828042D01*
X136652588Y-144875390D01*
X136556461Y-144904550D01*
X136450360Y-144915000D01*
X134186640Y-144915000D01*
X134080539Y-144904550D01*
X133984412Y-144875390D01*
X133895830Y-144828042D01*
X133818182Y-144764318D01*
X133754458Y-144686670D01*
X133707110Y-144598088D01*
X133677950Y-144501961D01*
X133667500Y-144395860D01*
X133667500Y-143132140D01*
X133677950Y-143026039D01*
X133707110Y-142929912D01*
X133754458Y-142841330D01*
X133818182Y-142763682D01*
X133895830Y-142699958D01*
X133984412Y-142652610D01*
X134080539Y-142623450D01*
X134186640Y-142613000D01*
X136450360Y-142613000D01*
X136556461Y-142623450D01*
X136556461Y-142623450D01*
G37*
G36*
X121533961Y-136245450D02*
G01*
X121630088Y-136274610D01*
X121718670Y-136321958D01*
X121796318Y-136385682D01*
X121860042Y-136463330D01*
X121907390Y-136551912D01*
X121936550Y-136648039D01*
X121947000Y-136754140D01*
X121947000Y-138017860D01*
X121936550Y-138123961D01*
X121907390Y-138220088D01*
X121860042Y-138308670D01*
X121796318Y-138386318D01*
X121718670Y-138450042D01*
X121630088Y-138497390D01*
X121533961Y-138526550D01*
X121427860Y-138537000D01*
X119164140Y-138537000D01*
X119058039Y-138526550D01*
X118961912Y-138497390D01*
X118873330Y-138450042D01*
X118795682Y-138386318D01*
X118731958Y-138308670D01*
X118684610Y-138220088D01*
X118655450Y-138123961D01*
X118645000Y-138017860D01*
X118645000Y-136754140D01*
X118655450Y-136648039D01*
X118684610Y-136551912D01*
X118731958Y-136463330D01*
X118795682Y-136385682D01*
X118873330Y-136321958D01*
X118961912Y-136274610D01*
X119058039Y-136245450D01*
X119164140Y-136235000D01*
X121427860Y-136235000D01*
X121533961Y-136245450D01*
X121533961Y-136245450D01*
G37*
G36*
X136456461Y-136245450D02*
G01*
X136552588Y-136274610D01*
X136641170Y-136321958D01*
X136718818Y-136385682D01*
X136782542Y-136463330D01*
X136829890Y-136551912D01*
X136859050Y-136648039D01*
X136869500Y-136754140D01*
X136869500Y-138017860D01*
X136859050Y-138123961D01*
X136829890Y-138220088D01*
X136782542Y-138308670D01*
X136718818Y-138386318D01*
X136641170Y-138450042D01*
X136552588Y-138497390D01*
X136456461Y-138526550D01*
X136350360Y-138537000D01*
X134086640Y-138537000D01*
X133980539Y-138526550D01*
X133884412Y-138497390D01*
X133795830Y-138450042D01*
X133718182Y-138386318D01*
X133654458Y-138308670D01*
X133607110Y-138220088D01*
X133577950Y-138123961D01*
X133567500Y-138017860D01*
X133567500Y-136754140D01*
X133577950Y-136648039D01*
X133607110Y-136551912D01*
X133654458Y-136463330D01*
X133718182Y-136385682D01*
X133795830Y-136321958D01*
X133884412Y-136274610D01*
X133980539Y-136245450D01*
X134086640Y-136235000D01*
X136350360Y-136235000D01*
X136456461Y-136245450D01*
X136456461Y-136245450D01*
G37*
G36*
X151378961Y-136245450D02*
G01*
X151475088Y-136274610D01*
X151563670Y-136321958D01*
X151641318Y-136385682D01*
X151705042Y-136463330D01*
X151752390Y-136551912D01*
X151781550Y-136648039D01*
X151792000Y-136754140D01*
X151792000Y-138017860D01*
X151781550Y-138123961D01*
X151752390Y-138220088D01*
X151705042Y-138308670D01*
X151641318Y-138386318D01*
X151563670Y-138450042D01*
X151475088Y-138497390D01*
X151378961Y-138526550D01*
X151272860Y-138537000D01*
X149009140Y-138537000D01*
X148903039Y-138526550D01*
X148806912Y-138497390D01*
X148718330Y-138450042D01*
X148640682Y-138386318D01*
X148576958Y-138308670D01*
X148529610Y-138220088D01*
X148500450Y-138123961D01*
X148490000Y-138017860D01*
X148490000Y-136754140D01*
X148500450Y-136648039D01*
X148529610Y-136551912D01*
X148576958Y-136463330D01*
X148640682Y-136385682D01*
X148718330Y-136321958D01*
X148806912Y-136274610D01*
X148903039Y-136245450D01*
X149009140Y-136235000D01*
X151272860Y-136235000D01*
X151378961Y-136245450D01*
X151378961Y-136245450D01*
G37*
G36*
X140756461Y-133045450D02*
G01*
X140852588Y-133074610D01*
X140941170Y-133121958D01*
X141018818Y-133185682D01*
X141082542Y-133263330D01*
X141129890Y-133351912D01*
X141159050Y-133448039D01*
X141169500Y-133554140D01*
X141169500Y-135817860D01*
X141159050Y-135923961D01*
X141129890Y-136020088D01*
X141082542Y-136108670D01*
X141018818Y-136186318D01*
X140941170Y-136250042D01*
X140852588Y-136297390D01*
X140756461Y-136326550D01*
X140650360Y-136337000D01*
X139386640Y-136337000D01*
X139280539Y-136326550D01*
X139184412Y-136297390D01*
X139095830Y-136250042D01*
X139018182Y-136186318D01*
X138954458Y-136108670D01*
X138907110Y-136020088D01*
X138877950Y-135923961D01*
X138867500Y-135817860D01*
X138867500Y-133554140D01*
X138877950Y-133448039D01*
X138907110Y-133351912D01*
X138954458Y-133263330D01*
X139018182Y-133185682D01*
X139095830Y-133121958D01*
X139184412Y-133074610D01*
X139280539Y-133045450D01*
X139386640Y-133035000D01*
X140650360Y-133035000D01*
X140756461Y-133045450D01*
X140756461Y-133045450D01*
G37*
G36*
X125833961Y-133045450D02*
G01*
X125930088Y-133074610D01*
X126018670Y-133121958D01*
X126096318Y-133185682D01*
X126160042Y-133263330D01*
X126207390Y-133351912D01*
X126236550Y-133448039D01*
X126247000Y-133554140D01*
X126247000Y-135817860D01*
X126236550Y-135923961D01*
X126207390Y-136020088D01*
X126160042Y-136108670D01*
X126096318Y-136186318D01*
X126018670Y-136250042D01*
X125930088Y-136297390D01*
X125833961Y-136326550D01*
X125727860Y-136337000D01*
X124464140Y-136337000D01*
X124358039Y-136326550D01*
X124261912Y-136297390D01*
X124173330Y-136250042D01*
X124095682Y-136186318D01*
X124031958Y-136108670D01*
X123984610Y-136020088D01*
X123955450Y-135923961D01*
X123945000Y-135817860D01*
X123945000Y-133554140D01*
X123955450Y-133448039D01*
X123984610Y-133351912D01*
X124031958Y-133263330D01*
X124095682Y-133185682D01*
X124173330Y-133121958D01*
X124261912Y-133074610D01*
X124358039Y-133045450D01*
X124464140Y-133035000D01*
X125727860Y-133035000D01*
X125833961Y-133045450D01*
X125833961Y-133045450D01*
G37*
G36*
X116333961Y-133045450D02*
G01*
X116430088Y-133074610D01*
X116518670Y-133121958D01*
X116596318Y-133185682D01*
X116660042Y-133263330D01*
X116707390Y-133351912D01*
X116736550Y-133448039D01*
X116747000Y-133554140D01*
X116747000Y-135817860D01*
X116736550Y-135923961D01*
X116707390Y-136020088D01*
X116660042Y-136108670D01*
X116596318Y-136186318D01*
X116518670Y-136250042D01*
X116430088Y-136297390D01*
X116333961Y-136326550D01*
X116227860Y-136337000D01*
X114964140Y-136337000D01*
X114858039Y-136326550D01*
X114761912Y-136297390D01*
X114673330Y-136250042D01*
X114595682Y-136186318D01*
X114531958Y-136108670D01*
X114484610Y-136020088D01*
X114455450Y-135923961D01*
X114445000Y-135817860D01*
X114445000Y-133554140D01*
X114455450Y-133448039D01*
X114484610Y-133351912D01*
X114531958Y-133263330D01*
X114595682Y-133185682D01*
X114673330Y-133121958D01*
X114761912Y-133074610D01*
X114858039Y-133045450D01*
X114964140Y-133035000D01*
X116227860Y-133035000D01*
X116333961Y-133045450D01*
X116333961Y-133045450D01*
G37*
G36*
X131256461Y-133045450D02*
G01*
X131352588Y-133074610D01*
X131441170Y-133121958D01*
X131518818Y-133185682D01*
X131582542Y-133263330D01*
X131629890Y-133351912D01*
X131659050Y-133448039D01*
X131669500Y-133554140D01*
X131669500Y-135817860D01*
X131659050Y-135923961D01*
X131629890Y-136020088D01*
X131582542Y-136108670D01*
X131518818Y-136186318D01*
X131441170Y-136250042D01*
X131352588Y-136297390D01*
X131256461Y-136326550D01*
X131150360Y-136337000D01*
X129886640Y-136337000D01*
X129780539Y-136326550D01*
X129684412Y-136297390D01*
X129595830Y-136250042D01*
X129518182Y-136186318D01*
X129454458Y-136108670D01*
X129407110Y-136020088D01*
X129377950Y-135923961D01*
X129367500Y-135817860D01*
X129367500Y-133554140D01*
X129377950Y-133448039D01*
X129407110Y-133351912D01*
X129454458Y-133263330D01*
X129518182Y-133185682D01*
X129595830Y-133121958D01*
X129684412Y-133074610D01*
X129780539Y-133045450D01*
X129886640Y-133035000D01*
X131150360Y-133035000D01*
X131256461Y-133045450D01*
X131256461Y-133045450D01*
G37*
G36*
X146178961Y-133045450D02*
G01*
X146275088Y-133074610D01*
X146363670Y-133121958D01*
X146441318Y-133185682D01*
X146505042Y-133263330D01*
X146552390Y-133351912D01*
X146581550Y-133448039D01*
X146592000Y-133554140D01*
X146592000Y-135817860D01*
X146581550Y-135923961D01*
X146552390Y-136020088D01*
X146505042Y-136108670D01*
X146441318Y-136186318D01*
X146363670Y-136250042D01*
X146275088Y-136297390D01*
X146178961Y-136326550D01*
X146072860Y-136337000D01*
X144809140Y-136337000D01*
X144703039Y-136326550D01*
X144606912Y-136297390D01*
X144518330Y-136250042D01*
X144440682Y-136186318D01*
X144376958Y-136108670D01*
X144329610Y-136020088D01*
X144300450Y-135923961D01*
X144290000Y-135817860D01*
X144290000Y-133554140D01*
X144300450Y-133448039D01*
X144329610Y-133351912D01*
X144376958Y-133263330D01*
X144440682Y-133185682D01*
X144518330Y-133121958D01*
X144606912Y-133074610D01*
X144703039Y-133045450D01*
X144809140Y-133035000D01*
X146072860Y-133035000D01*
X146178961Y-133045450D01*
X146178961Y-133045450D01*
G37*
G36*
X155678961Y-133045450D02*
G01*
X155775088Y-133074610D01*
X155863670Y-133121958D01*
X155941318Y-133185682D01*
X156005042Y-133263330D01*
X156052390Y-133351912D01*
X156081550Y-133448039D01*
X156092000Y-133554140D01*
X156092000Y-135817860D01*
X156081550Y-135923961D01*
X156052390Y-136020088D01*
X156005042Y-136108670D01*
X155941318Y-136186318D01*
X155863670Y-136250042D01*
X155775088Y-136297390D01*
X155678961Y-136326550D01*
X155572860Y-136337000D01*
X154309140Y-136337000D01*
X154203039Y-136326550D01*
X154106912Y-136297390D01*
X154018330Y-136250042D01*
X153940682Y-136186318D01*
X153876958Y-136108670D01*
X153829610Y-136020088D01*
X153800450Y-135923961D01*
X153790000Y-135817860D01*
X153790000Y-133554140D01*
X153800450Y-133448039D01*
X153829610Y-133351912D01*
X153876958Y-133263330D01*
X153940682Y-133185682D01*
X154018330Y-133121958D01*
X154106912Y-133074610D01*
X154203039Y-133045450D01*
X154309140Y-133035000D01*
X155572860Y-133035000D01*
X155678961Y-133045450D01*
X155678961Y-133045450D01*
G37*
G36*
X136556461Y-128145450D02*
G01*
X136652588Y-128174610D01*
X136741170Y-128221958D01*
X136818818Y-128285682D01*
X136882542Y-128363330D01*
X136929890Y-128451912D01*
X136959050Y-128548039D01*
X136969500Y-128654140D01*
X136969500Y-129917860D01*
X136959050Y-130023961D01*
X136929890Y-130120088D01*
X136882542Y-130208670D01*
X136818818Y-130286318D01*
X136741170Y-130350042D01*
X136652588Y-130397390D01*
X136556461Y-130426550D01*
X136450360Y-130437000D01*
X134186640Y-130437000D01*
X134080539Y-130426550D01*
X133984412Y-130397390D01*
X133895830Y-130350042D01*
X133818182Y-130286318D01*
X133754458Y-130208670D01*
X133707110Y-130120088D01*
X133677950Y-130023961D01*
X133667500Y-129917860D01*
X133667500Y-128654140D01*
X133677950Y-128548039D01*
X133707110Y-128451912D01*
X133754458Y-128363330D01*
X133818182Y-128285682D01*
X133895830Y-128221958D01*
X133984412Y-128174610D01*
X134080539Y-128145450D01*
X134186640Y-128135000D01*
X136450360Y-128135000D01*
X136556461Y-128145450D01*
X136556461Y-128145450D01*
G37*
G36*
X151478961Y-128145450D02*
G01*
X151575088Y-128174610D01*
X151663670Y-128221958D01*
X151741318Y-128285682D01*
X151805042Y-128363330D01*
X151852390Y-128451912D01*
X151881550Y-128548039D01*
X151892000Y-128654140D01*
X151892000Y-129917860D01*
X151881550Y-130023961D01*
X151852390Y-130120088D01*
X151805042Y-130208670D01*
X151741318Y-130286318D01*
X151663670Y-130350042D01*
X151575088Y-130397390D01*
X151478961Y-130426550D01*
X151372860Y-130437000D01*
X149109140Y-130437000D01*
X149003039Y-130426550D01*
X148906912Y-130397390D01*
X148818330Y-130350042D01*
X148740682Y-130286318D01*
X148676958Y-130208670D01*
X148629610Y-130120088D01*
X148600450Y-130023961D01*
X148590000Y-129917860D01*
X148590000Y-128654140D01*
X148600450Y-128548039D01*
X148629610Y-128451912D01*
X148676958Y-128363330D01*
X148740682Y-128285682D01*
X148818330Y-128221958D01*
X148906912Y-128174610D01*
X149003039Y-128145450D01*
X149109140Y-128135000D01*
X151372860Y-128135000D01*
X151478961Y-128145450D01*
X151478961Y-128145450D01*
G37*
G36*
X121633961Y-128145450D02*
G01*
X121730088Y-128174610D01*
X121818670Y-128221958D01*
X121896318Y-128285682D01*
X121960042Y-128363330D01*
X122007390Y-128451912D01*
X122036550Y-128548039D01*
X122047000Y-128654140D01*
X122047000Y-129917860D01*
X122036550Y-130023961D01*
X122007390Y-130120088D01*
X121960042Y-130208670D01*
X121896318Y-130286318D01*
X121818670Y-130350042D01*
X121730088Y-130397390D01*
X121633961Y-130426550D01*
X121527860Y-130437000D01*
X119264140Y-130437000D01*
X119158039Y-130426550D01*
X119061912Y-130397390D01*
X118973330Y-130350042D01*
X118895682Y-130286318D01*
X118831958Y-130208670D01*
X118784610Y-130120088D01*
X118755450Y-130023961D01*
X118745000Y-129917860D01*
X118745000Y-128654140D01*
X118755450Y-128548039D01*
X118784610Y-128451912D01*
X118831958Y-128363330D01*
X118895682Y-128285682D01*
X118973330Y-128221958D01*
X119061912Y-128174610D01*
X119158039Y-128145450D01*
X119264140Y-128135000D01*
X121527860Y-128135000D01*
X121633961Y-128145450D01*
X121633961Y-128145450D01*
G37*
G36*
X126471642Y-91177781D02*
G01*
X126617414Y-91238162D01*
X126617416Y-91238163D01*
X126748608Y-91325822D01*
X126860178Y-91437392D01*
X126947837Y-91568584D01*
X126947838Y-91568586D01*
X127008219Y-91714358D01*
X127039000Y-91869107D01*
X127039000Y-92026893D01*
X127008219Y-92181642D01*
X126947838Y-92327414D01*
X126947837Y-92327416D01*
X126860178Y-92458608D01*
X126748608Y-92570178D01*
X126617416Y-92657837D01*
X126617415Y-92657838D01*
X126617414Y-92657838D01*
X126471642Y-92718219D01*
X126316893Y-92749000D01*
X126159107Y-92749000D01*
X126004358Y-92718219D01*
X125858586Y-92657838D01*
X125858585Y-92657838D01*
X125858584Y-92657837D01*
X125727392Y-92570178D01*
X125615822Y-92458608D01*
X125528163Y-92327416D01*
X125528162Y-92327414D01*
X125467781Y-92181642D01*
X125437000Y-92026893D01*
X125437000Y-91869107D01*
X125467781Y-91714358D01*
X125528162Y-91568586D01*
X125528163Y-91568584D01*
X125615822Y-91437392D01*
X125727392Y-91325822D01*
X125858584Y-91238163D01*
X125858586Y-91238162D01*
X126004358Y-91177781D01*
X126159107Y-91147000D01*
X126316893Y-91147000D01*
X126471642Y-91177781D01*
X126471642Y-91177781D01*
G37*
G36*
X126471642Y-76191781D02*
G01*
X126617414Y-76252162D01*
X126617416Y-76252163D01*
X126748608Y-76339822D01*
X126860178Y-76451392D01*
X126947837Y-76582584D01*
X126947838Y-76582586D01*
X127008219Y-76728358D01*
X127039000Y-76883107D01*
X127039000Y-77040893D01*
X127008219Y-77195642D01*
X126947838Y-77341414D01*
X126947837Y-77341416D01*
X126860178Y-77472608D01*
X126748608Y-77584178D01*
X126617416Y-77671837D01*
X126617415Y-77671838D01*
X126617414Y-77671838D01*
X126471642Y-77732219D01*
X126316893Y-77763000D01*
X126159107Y-77763000D01*
X126004358Y-77732219D01*
X125858586Y-77671838D01*
X125858585Y-77671838D01*
X125858584Y-77671837D01*
X125727392Y-77584178D01*
X125615822Y-77472608D01*
X125528163Y-77341416D01*
X125528162Y-77341414D01*
X125467781Y-77195642D01*
X125437000Y-77040893D01*
X125437000Y-76883107D01*
X125467781Y-76728358D01*
X125528162Y-76582586D01*
X125528163Y-76582584D01*
X125615822Y-76451392D01*
X125727392Y-76339822D01*
X125858584Y-76252163D01*
X125858586Y-76252162D01*
X126004358Y-76191781D01*
X126159107Y-76161000D01*
X126316893Y-76161000D01*
X126471642Y-76191781D01*
X126471642Y-76191781D01*
G37*
G36*
X153768183Y-71345311D02*
G01*
X153877505Y-71390593D01*
X153975893Y-71456334D01*
X154059564Y-71540005D01*
X154125305Y-71638393D01*
X154170587Y-71747715D01*
X154193672Y-71863771D01*
X154193672Y-71982101D01*
X154171033Y-72095914D01*
X154168632Y-72120291D01*
X154171034Y-72144677D01*
X154178147Y-72168126D01*
X154189698Y-72189737D01*
X154205243Y-72208679D01*
X154224185Y-72224224D01*
X154245795Y-72235776D01*
X154269244Y-72242889D01*
X154293630Y-72245291D01*
X154318017Y-72242889D01*
X154431821Y-72220252D01*
X154550152Y-72220252D01*
X154666208Y-72243337D01*
X154775530Y-72288619D01*
X154873918Y-72354360D01*
X154957589Y-72438031D01*
X155023330Y-72536419D01*
X155068612Y-72645741D01*
X155068612Y-72645742D01*
X155091697Y-72761798D01*
X155091697Y-72880128D01*
X155069060Y-72993932D01*
X155066658Y-73018318D01*
X155069060Y-73042704D01*
X155076173Y-73066153D01*
X155087724Y-73087764D01*
X155103269Y-73106706D01*
X155122211Y-73122251D01*
X155143822Y-73133802D01*
X155167271Y-73140915D01*
X155191657Y-73143317D01*
X155216035Y-73140916D01*
X155329848Y-73118277D01*
X155448178Y-73118277D01*
X155564234Y-73141362D01*
X155673556Y-73186644D01*
X155771944Y-73252385D01*
X155855615Y-73336056D01*
X155921356Y-73434444D01*
X155966638Y-73543766D01*
X155989723Y-73659822D01*
X155989723Y-73778152D01*
X155967084Y-73891965D01*
X155964683Y-73916342D01*
X155967085Y-73940728D01*
X155974198Y-73964177D01*
X155985749Y-73985788D01*
X156001294Y-74004730D01*
X156020236Y-74020275D01*
X156041846Y-74031827D01*
X156065295Y-74038940D01*
X156089681Y-74041342D01*
X156114068Y-74038940D01*
X156227872Y-74016303D01*
X156346203Y-74016303D01*
X156462259Y-74039388D01*
X156571581Y-74084670D01*
X156669969Y-74150411D01*
X156753640Y-74234082D01*
X156819381Y-74332470D01*
X156864663Y-74441792D01*
X156864663Y-74441793D01*
X156887748Y-74557849D01*
X156887748Y-74676179D01*
X156865111Y-74789983D01*
X156862709Y-74814369D01*
X156865111Y-74838755D01*
X156872224Y-74862204D01*
X156883775Y-74883815D01*
X156899320Y-74902757D01*
X156918262Y-74918302D01*
X156939873Y-74929853D01*
X156963322Y-74936966D01*
X156987708Y-74939368D01*
X157012086Y-74936967D01*
X157125899Y-74914328D01*
X157244229Y-74914328D01*
X157360285Y-74937413D01*
X157469607Y-74982695D01*
X157567995Y-75048436D01*
X157651666Y-75132107D01*
X157717407Y-75230495D01*
X157762689Y-75339817D01*
X157785774Y-75455873D01*
X157785774Y-75574203D01*
X157762689Y-75690259D01*
X157717407Y-75799581D01*
X157651666Y-75897969D01*
X157567995Y-75981640D01*
X157469607Y-76047381D01*
X157360285Y-76092663D01*
X157244229Y-76115748D01*
X157125899Y-76115748D01*
X157012087Y-76093109D01*
X156987708Y-76090708D01*
X156963322Y-76093110D01*
X156939873Y-76100223D01*
X156918262Y-76111774D01*
X156899320Y-76127319D01*
X156883775Y-76146261D01*
X156872223Y-76167871D01*
X156865110Y-76191320D01*
X156862708Y-76215706D01*
X156865109Y-76240087D01*
X156887748Y-76353899D01*
X156887748Y-76472229D01*
X156864663Y-76588285D01*
X156819381Y-76697607D01*
X156753640Y-76795995D01*
X156669969Y-76879666D01*
X156571581Y-76945407D01*
X156462259Y-76990689D01*
X156346203Y-77013774D01*
X156227873Y-77013774D01*
X156111817Y-76990689D01*
X156002495Y-76945407D01*
X155904107Y-76879666D01*
X155820436Y-76795995D01*
X155754695Y-76697607D01*
X155709413Y-76588285D01*
X155686328Y-76472229D01*
X155686328Y-76353899D01*
X155708967Y-76240086D01*
X155711368Y-76215709D01*
X155708966Y-76191323D01*
X155701853Y-76167874D01*
X155690302Y-76146263D01*
X155674757Y-76127321D01*
X155655815Y-76111776D01*
X155634205Y-76100224D01*
X155610756Y-76093111D01*
X155586370Y-76090709D01*
X155561983Y-76093111D01*
X155448179Y-76115748D01*
X155329848Y-76115748D01*
X155213792Y-76092663D01*
X155104470Y-76047381D01*
X155006082Y-75981640D01*
X154922411Y-75897969D01*
X154856670Y-75799581D01*
X154820557Y-75712393D01*
X155964683Y-75712393D01*
X155967085Y-75736779D01*
X155974198Y-75760228D01*
X155985749Y-75781839D01*
X156001294Y-75800781D01*
X156020236Y-75816326D01*
X156041846Y-75827878D01*
X156065295Y-75834991D01*
X156089681Y-75837393D01*
X156114068Y-75834991D01*
X156227872Y-75812354D01*
X156346203Y-75812354D01*
X156460015Y-75834993D01*
X156484394Y-75837394D01*
X156508780Y-75834992D01*
X156532229Y-75827879D01*
X156553840Y-75816328D01*
X156572782Y-75800783D01*
X156588327Y-75781841D01*
X156599879Y-75760231D01*
X156606992Y-75736782D01*
X156609394Y-75712396D01*
X156606993Y-75688015D01*
X156584354Y-75574203D01*
X156584354Y-75455873D01*
X156606991Y-75342068D01*
X156609393Y-75317682D01*
X156606991Y-75293296D01*
X156599878Y-75269847D01*
X156588327Y-75248236D01*
X156572782Y-75229294D01*
X156553840Y-75213749D01*
X156532229Y-75202198D01*
X156508780Y-75195085D01*
X156484394Y-75192683D01*
X156460016Y-75195084D01*
X156346203Y-75217723D01*
X156227872Y-75217723D01*
X156114069Y-75195086D01*
X156089683Y-75192684D01*
X156065297Y-75195086D01*
X156041848Y-75202199D01*
X156020237Y-75213750D01*
X156001295Y-75229295D01*
X155985750Y-75248237D01*
X155974199Y-75269848D01*
X155967086Y-75293297D01*
X155964684Y-75317683D01*
X155967086Y-75342068D01*
X155989723Y-75455873D01*
X155989723Y-75574203D01*
X155967084Y-75688016D01*
X155964683Y-75712393D01*
X154820557Y-75712393D01*
X154811388Y-75690259D01*
X154788303Y-75574203D01*
X154788303Y-75455873D01*
X154810940Y-75342068D01*
X154813342Y-75317682D01*
X154810940Y-75293296D01*
X154803827Y-75269847D01*
X154792276Y-75248236D01*
X154776731Y-75229294D01*
X154757789Y-75213749D01*
X154736178Y-75202198D01*
X154712729Y-75195085D01*
X154688343Y-75192683D01*
X154663965Y-75195084D01*
X154550152Y-75217723D01*
X154431822Y-75217723D01*
X154315766Y-75194638D01*
X154206444Y-75149356D01*
X154108056Y-75083615D01*
X154024385Y-74999944D01*
X153958644Y-74901556D01*
X153913362Y-74792234D01*
X153890277Y-74676178D01*
X153890277Y-74557848D01*
X153912916Y-74444035D01*
X153915317Y-74419658D01*
X153915317Y-74419655D01*
X155066657Y-74419655D01*
X155069058Y-74444036D01*
X155091697Y-74557848D01*
X155091697Y-74676179D01*
X155069060Y-74789983D01*
X155066658Y-74814369D01*
X155069060Y-74838755D01*
X155076173Y-74862204D01*
X155087724Y-74883815D01*
X155103269Y-74902757D01*
X155122211Y-74918302D01*
X155143822Y-74929853D01*
X155167271Y-74936966D01*
X155191657Y-74939368D01*
X155216035Y-74936967D01*
X155329848Y-74914328D01*
X155448179Y-74914328D01*
X155561982Y-74936965D01*
X155586368Y-74939367D01*
X155610754Y-74936965D01*
X155634203Y-74929852D01*
X155655814Y-74918301D01*
X155674756Y-74902756D01*
X155690301Y-74883814D01*
X155701852Y-74862203D01*
X155708965Y-74838754D01*
X155711367Y-74814368D01*
X155708965Y-74789982D01*
X155686328Y-74676179D01*
X155686328Y-74557848D01*
X155708967Y-74444035D01*
X155711368Y-74419658D01*
X155708966Y-74395272D01*
X155701853Y-74371823D01*
X155690302Y-74350212D01*
X155674757Y-74331270D01*
X155655815Y-74315725D01*
X155634205Y-74304173D01*
X155610756Y-74297060D01*
X155586370Y-74294658D01*
X155561983Y-74297060D01*
X155448179Y-74319697D01*
X155329848Y-74319697D01*
X155216036Y-74297058D01*
X155191657Y-74294657D01*
X155167271Y-74297059D01*
X155143822Y-74304172D01*
X155122211Y-74315723D01*
X155103269Y-74331268D01*
X155087724Y-74350210D01*
X155076172Y-74371820D01*
X155069059Y-74395269D01*
X155066657Y-74419655D01*
X153915317Y-74419655D01*
X153912915Y-74395272D01*
X153905802Y-74371823D01*
X153894251Y-74350212D01*
X153878706Y-74331270D01*
X153859764Y-74315725D01*
X153838154Y-74304173D01*
X153814705Y-74297060D01*
X153790319Y-74294658D01*
X153765932Y-74297060D01*
X153652128Y-74319697D01*
X153533797Y-74319697D01*
X153417741Y-74296612D01*
X153308419Y-74251330D01*
X153210031Y-74185589D01*
X153126360Y-74101918D01*
X153060619Y-74003530D01*
X153024506Y-73916342D01*
X154168632Y-73916342D01*
X154171034Y-73940728D01*
X154178147Y-73964177D01*
X154189698Y-73985788D01*
X154205243Y-74004730D01*
X154224185Y-74020275D01*
X154245795Y-74031827D01*
X154269244Y-74038940D01*
X154293630Y-74041342D01*
X154318017Y-74038940D01*
X154431821Y-74016303D01*
X154550152Y-74016303D01*
X154663964Y-74038942D01*
X154688343Y-74041343D01*
X154712729Y-74038941D01*
X154736178Y-74031828D01*
X154757789Y-74020277D01*
X154776731Y-74004732D01*
X154792276Y-73985790D01*
X154803828Y-73964180D01*
X154810941Y-73940731D01*
X154813343Y-73916345D01*
X154810942Y-73891964D01*
X154788303Y-73778152D01*
X154788303Y-73659822D01*
X154810940Y-73546017D01*
X154813342Y-73521631D01*
X154810940Y-73497245D01*
X154803827Y-73473796D01*
X154792276Y-73452185D01*
X154776731Y-73433243D01*
X154757789Y-73417698D01*
X154736178Y-73406147D01*
X154712729Y-73399034D01*
X154688343Y-73396632D01*
X154663965Y-73399033D01*
X154550152Y-73421672D01*
X154431821Y-73421672D01*
X154318018Y-73399035D01*
X154293632Y-73396633D01*
X154269246Y-73399035D01*
X154245797Y-73406148D01*
X154224186Y-73417699D01*
X154205244Y-73433244D01*
X154189699Y-73452186D01*
X154178148Y-73473797D01*
X154171035Y-73497246D01*
X154168633Y-73521632D01*
X154171035Y-73546017D01*
X154193672Y-73659822D01*
X154193672Y-73778152D01*
X154171033Y-73891965D01*
X154168632Y-73916342D01*
X153024506Y-73916342D01*
X153015337Y-73894208D01*
X152992252Y-73778152D01*
X152992252Y-73659822D01*
X153014889Y-73546017D01*
X153017291Y-73521631D01*
X153014889Y-73497245D01*
X153007776Y-73473796D01*
X152996225Y-73452185D01*
X152980680Y-73433243D01*
X152961738Y-73417698D01*
X152940127Y-73406147D01*
X152916678Y-73399034D01*
X152892292Y-73396632D01*
X152867914Y-73399033D01*
X152754101Y-73421672D01*
X152635771Y-73421672D01*
X152519715Y-73398587D01*
X152410393Y-73353305D01*
X152312005Y-73287564D01*
X152228334Y-73203893D01*
X152162593Y-73105505D01*
X152117311Y-72996183D01*
X152094226Y-72880127D01*
X152094226Y-72761797D01*
X152117311Y-72645741D01*
X152126480Y-72623604D01*
X153270606Y-72623604D01*
X153273007Y-72647985D01*
X153295646Y-72761797D01*
X153295646Y-72880128D01*
X153273009Y-72993932D01*
X153270607Y-73018318D01*
X153273009Y-73042704D01*
X153280122Y-73066153D01*
X153291673Y-73087764D01*
X153307218Y-73106706D01*
X153326160Y-73122251D01*
X153347771Y-73133802D01*
X153371220Y-73140915D01*
X153395606Y-73143317D01*
X153419984Y-73140916D01*
X153533797Y-73118277D01*
X153652128Y-73118277D01*
X153765931Y-73140914D01*
X153790317Y-73143316D01*
X153814703Y-73140914D01*
X153838152Y-73133801D01*
X153859763Y-73122250D01*
X153878705Y-73106705D01*
X153894250Y-73087763D01*
X153905801Y-73066152D01*
X153912914Y-73042703D01*
X153915316Y-73018317D01*
X153912914Y-72993931D01*
X153890277Y-72880128D01*
X153890277Y-72761797D01*
X153912916Y-72647984D01*
X153915317Y-72623607D01*
X153912915Y-72599221D01*
X153905802Y-72575772D01*
X153894251Y-72554161D01*
X153878706Y-72535219D01*
X153859764Y-72519674D01*
X153838154Y-72508122D01*
X153814705Y-72501009D01*
X153790319Y-72498607D01*
X153765932Y-72501009D01*
X153652128Y-72523646D01*
X153533797Y-72523646D01*
X153419985Y-72501007D01*
X153395606Y-72498606D01*
X153371220Y-72501008D01*
X153347771Y-72508121D01*
X153326160Y-72519672D01*
X153307218Y-72535217D01*
X153291673Y-72554159D01*
X153280121Y-72575769D01*
X153273008Y-72599218D01*
X153270606Y-72623604D01*
X152126480Y-72623604D01*
X152162593Y-72536419D01*
X152228334Y-72438031D01*
X152312005Y-72354360D01*
X152410393Y-72288619D01*
X152519715Y-72243337D01*
X152635771Y-72220252D01*
X152754101Y-72220252D01*
X152867913Y-72242891D01*
X152892292Y-72245292D01*
X152916678Y-72242890D01*
X152940127Y-72235777D01*
X152961738Y-72224226D01*
X152980680Y-72208681D01*
X152996225Y-72189739D01*
X153007777Y-72168129D01*
X153014890Y-72144680D01*
X153017292Y-72120294D01*
X153014891Y-72095913D01*
X152992252Y-71982101D01*
X152992252Y-71863771D01*
X153015337Y-71747715D01*
X153060619Y-71638393D01*
X153126360Y-71540005D01*
X153210031Y-71456334D01*
X153308419Y-71390593D01*
X153417741Y-71345311D01*
X153533797Y-71322226D01*
X153652127Y-71322226D01*
X153768183Y-71345311D01*
X153768183Y-71345311D01*
G37*
G36*
X137299875Y-70207479D02*
G01*
X137373516Y-70229818D01*
X137410337Y-70240987D01*
X137512139Y-70295402D01*
X137569227Y-70342253D01*
X137601369Y-70368631D01*
X137674598Y-70457861D01*
X137674599Y-70457863D01*
X137729013Y-70559662D01*
X137729524Y-70561347D01*
X137762521Y-70670124D01*
X137771000Y-70756215D01*
X137771000Y-71543785D01*
X137762521Y-71629876D01*
X137740182Y-71703517D01*
X137729013Y-71740338D01*
X137674598Y-71842140D01*
X137601370Y-71931370D01*
X137512140Y-72004598D01*
X137410338Y-72059013D01*
X137373517Y-72070182D01*
X137299876Y-72092521D01*
X137185000Y-72103835D01*
X137070125Y-72092521D01*
X136996484Y-72070182D01*
X136959663Y-72059013D01*
X136857861Y-72004598D01*
X136768631Y-71931370D01*
X136695402Y-71842138D01*
X136660240Y-71776355D01*
X136646627Y-71755980D01*
X136629300Y-71738653D01*
X136608925Y-71725040D01*
X136586286Y-71715662D01*
X136562253Y-71710882D01*
X136537749Y-71710882D01*
X136513716Y-71715662D01*
X136491077Y-71725040D01*
X136470702Y-71738653D01*
X136453375Y-71755980D01*
X136439762Y-71776354D01*
X136404598Y-71842140D01*
X136331370Y-71931370D01*
X136242140Y-72004598D01*
X136140338Y-72059013D01*
X136103517Y-72070182D01*
X136029876Y-72092521D01*
X135915000Y-72103835D01*
X135800125Y-72092521D01*
X135726484Y-72070182D01*
X135689663Y-72059013D01*
X135587861Y-72004598D01*
X135498631Y-71931370D01*
X135425402Y-71842138D01*
X135390240Y-71776355D01*
X135376627Y-71755980D01*
X135359300Y-71738653D01*
X135338925Y-71725040D01*
X135316286Y-71715662D01*
X135292253Y-71710882D01*
X135267749Y-71710882D01*
X135243716Y-71715662D01*
X135221077Y-71725040D01*
X135200702Y-71738653D01*
X135183375Y-71755980D01*
X135169762Y-71776354D01*
X135134598Y-71842140D01*
X135061370Y-71931370D01*
X134972140Y-72004598D01*
X134870338Y-72059013D01*
X134833517Y-72070182D01*
X134759876Y-72092521D01*
X134645000Y-72103835D01*
X134530125Y-72092521D01*
X134456484Y-72070182D01*
X134419663Y-72059013D01*
X134317861Y-72004598D01*
X134228631Y-71931370D01*
X134182625Y-71875310D01*
X134165298Y-71857983D01*
X134144924Y-71844369D01*
X134122285Y-71834992D01*
X134098252Y-71830211D01*
X134073748Y-71830211D01*
X134049714Y-71834991D01*
X134027076Y-71844368D01*
X134006701Y-71857982D01*
X133989374Y-71875309D01*
X133975760Y-71895683D01*
X133966383Y-71918322D01*
X133961602Y-71942355D01*
X133961000Y-71954608D01*
X133961000Y-72101000D01*
X132789000Y-72101000D01*
X132789000Y-70199000D01*
X133961000Y-70199000D01*
X133961000Y-70345392D01*
X133963402Y-70369778D01*
X133970515Y-70393227D01*
X133982066Y-70414838D01*
X133997611Y-70433780D01*
X134016553Y-70449325D01*
X134038164Y-70460876D01*
X134061613Y-70467989D01*
X134085999Y-70470391D01*
X134110385Y-70467989D01*
X134133834Y-70460876D01*
X134155445Y-70449325D01*
X134174387Y-70433780D01*
X134182625Y-70424690D01*
X134228629Y-70368634D01*
X134228631Y-70368631D01*
X134317861Y-70295402D01*
X134329507Y-70289177D01*
X134419662Y-70240987D01*
X134456483Y-70229818D01*
X134530124Y-70207479D01*
X134645000Y-70196165D01*
X134759875Y-70207479D01*
X134833516Y-70229818D01*
X134870337Y-70240987D01*
X134972139Y-70295402D01*
X135029227Y-70342253D01*
X135061369Y-70368631D01*
X135134598Y-70457861D01*
X135134601Y-70457865D01*
X135169761Y-70523645D01*
X135183374Y-70544020D01*
X135200701Y-70561347D01*
X135221076Y-70574960D01*
X135243715Y-70584338D01*
X135267748Y-70589118D01*
X135292252Y-70589118D01*
X135316285Y-70584338D01*
X135338924Y-70574960D01*
X135359299Y-70561347D01*
X135376626Y-70544020D01*
X135390239Y-70523646D01*
X135425402Y-70457861D01*
X135498629Y-70368634D01*
X135498631Y-70368631D01*
X135587861Y-70295402D01*
X135599507Y-70289177D01*
X135689662Y-70240987D01*
X135726483Y-70229818D01*
X135800124Y-70207479D01*
X135915000Y-70196165D01*
X136029875Y-70207479D01*
X136103516Y-70229818D01*
X136140337Y-70240987D01*
X136242139Y-70295402D01*
X136299227Y-70342253D01*
X136331369Y-70368631D01*
X136404598Y-70457861D01*
X136404601Y-70457865D01*
X136439761Y-70523645D01*
X136453374Y-70544020D01*
X136470701Y-70561347D01*
X136491076Y-70574960D01*
X136513715Y-70584338D01*
X136537748Y-70589118D01*
X136562252Y-70589118D01*
X136586285Y-70584338D01*
X136608924Y-70574960D01*
X136629299Y-70561347D01*
X136646626Y-70544020D01*
X136660239Y-70523646D01*
X136695402Y-70457861D01*
X136768629Y-70368634D01*
X136768631Y-70368631D01*
X136857861Y-70295402D01*
X136869507Y-70289177D01*
X136959662Y-70240987D01*
X136996483Y-70229818D01*
X137070124Y-70207479D01*
X137185000Y-70196165D01*
X137299875Y-70207479D01*
X137299875Y-70207479D01*
G37*
G36*
X120445765Y-66054620D02*
G01*
X120635288Y-66133123D01*
X120805854Y-66247092D01*
X120950908Y-66392146D01*
X121064877Y-66562712D01*
X121143380Y-66752235D01*
X121183400Y-66953431D01*
X121183400Y-67158569D01*
X121143380Y-67359765D01*
X121064877Y-67549288D01*
X120950908Y-67719854D01*
X120805854Y-67864908D01*
X120635288Y-67978877D01*
X120635287Y-67978878D01*
X120635286Y-67978878D01*
X120445765Y-68057380D01*
X120244570Y-68097400D01*
X120039430Y-68097400D01*
X119838235Y-68057380D01*
X119648714Y-67978878D01*
X119648713Y-67978878D01*
X119648712Y-67978877D01*
X119478146Y-67864908D01*
X119333092Y-67719854D01*
X119219123Y-67549288D01*
X119140620Y-67359765D01*
X119100600Y-67158569D01*
X119100600Y-66953431D01*
X119140620Y-66752235D01*
X119219123Y-66562712D01*
X119333092Y-66392146D01*
X119478146Y-66247092D01*
X119648712Y-66133123D01*
X119838235Y-66054620D01*
X120039430Y-66014600D01*
X120244570Y-66014600D01*
X120445765Y-66054620D01*
X120445765Y-66054620D01*
G37*
G36*
X117905765Y-66054620D02*
G01*
X118095288Y-66133123D01*
X118265854Y-66247092D01*
X118410908Y-66392146D01*
X118524877Y-66562712D01*
X118603380Y-66752235D01*
X118643400Y-66953431D01*
X118643400Y-67158569D01*
X118603380Y-67359765D01*
X118524877Y-67549288D01*
X118410908Y-67719854D01*
X118265854Y-67864908D01*
X118095288Y-67978877D01*
X118095287Y-67978878D01*
X118095286Y-67978878D01*
X117905765Y-68057380D01*
X117704570Y-68097400D01*
X117499430Y-68097400D01*
X117298235Y-68057380D01*
X117108714Y-67978878D01*
X117108713Y-67978878D01*
X117108712Y-67978877D01*
X116938146Y-67864908D01*
X116793092Y-67719854D01*
X116679123Y-67549288D01*
X116600620Y-67359765D01*
X116560600Y-67158569D01*
X116560600Y-66953431D01*
X116600620Y-66752235D01*
X116679123Y-66562712D01*
X116793092Y-66392146D01*
X116938146Y-66247092D01*
X117108712Y-66133123D01*
X117298235Y-66054620D01*
X117499430Y-66014600D01*
X117704570Y-66014600D01*
X117905765Y-66054620D01*
X117905765Y-66054620D01*
G37*
G36*
X120445765Y-63514620D02*
G01*
X120635288Y-63593123D01*
X120805854Y-63707092D01*
X120950908Y-63852146D01*
X121064877Y-64022712D01*
X121143380Y-64212235D01*
X121183400Y-64413431D01*
X121183400Y-64618569D01*
X121143380Y-64819765D01*
X121064877Y-65009288D01*
X120950908Y-65179854D01*
X120805854Y-65324908D01*
X120635288Y-65438877D01*
X120635287Y-65438878D01*
X120635286Y-65438878D01*
X120445765Y-65517380D01*
X120244570Y-65557400D01*
X120039430Y-65557400D01*
X119838235Y-65517380D01*
X119648714Y-65438878D01*
X119648713Y-65438878D01*
X119648712Y-65438877D01*
X119478146Y-65324908D01*
X119333092Y-65179854D01*
X119219123Y-65009288D01*
X119140620Y-64819765D01*
X119100600Y-64618569D01*
X119100600Y-64413431D01*
X119140620Y-64212235D01*
X119219123Y-64022712D01*
X119333092Y-63852146D01*
X119478146Y-63707092D01*
X119648712Y-63593123D01*
X119838235Y-63514620D01*
X120039430Y-63474600D01*
X120244570Y-63474600D01*
X120445765Y-63514620D01*
X120445765Y-63514620D01*
G37*
G36*
X117905765Y-63514620D02*
G01*
X118095288Y-63593123D01*
X118265854Y-63707092D01*
X118410908Y-63852146D01*
X118524877Y-64022712D01*
X118603380Y-64212235D01*
X118643400Y-64413431D01*
X118643400Y-64618569D01*
X118603380Y-64819765D01*
X118524877Y-65009288D01*
X118410908Y-65179854D01*
X118265854Y-65324908D01*
X118095288Y-65438877D01*
X118095287Y-65438878D01*
X118095286Y-65438878D01*
X117905765Y-65517380D01*
X117704570Y-65557400D01*
X117499430Y-65557400D01*
X117298235Y-65517380D01*
X117108714Y-65438878D01*
X117108713Y-65438878D01*
X117108712Y-65438877D01*
X116938146Y-65324908D01*
X116793092Y-65179854D01*
X116679123Y-65009288D01*
X116600620Y-64819765D01*
X116560600Y-64618569D01*
X116560600Y-64413431D01*
X116600620Y-64212235D01*
X116679123Y-64022712D01*
X116793092Y-63852146D01*
X116938146Y-63707092D01*
X117108712Y-63593123D01*
X117298235Y-63514620D01*
X117499430Y-63474600D01*
X117704570Y-63474600D01*
X117905765Y-63514620D01*
X117905765Y-63514620D01*
G37*
G36*
X117905765Y-60974620D02*
G01*
X118095288Y-61053123D01*
X118265854Y-61167092D01*
X118410908Y-61312146D01*
X118524877Y-61482712D01*
X118603380Y-61672235D01*
X118643400Y-61873431D01*
X118643400Y-62078569D01*
X118603380Y-62279765D01*
X118524877Y-62469288D01*
X118410908Y-62639854D01*
X118265854Y-62784908D01*
X118095288Y-62898877D01*
X118095287Y-62898878D01*
X118095286Y-62898878D01*
X117905765Y-62977380D01*
X117704570Y-63017400D01*
X117499430Y-63017400D01*
X117298235Y-62977380D01*
X117108714Y-62898878D01*
X117108713Y-62898878D01*
X117108712Y-62898877D01*
X116938146Y-62784908D01*
X116793092Y-62639854D01*
X116679123Y-62469288D01*
X116600620Y-62279765D01*
X116560600Y-62078569D01*
X116560600Y-61873431D01*
X116600620Y-61672235D01*
X116679123Y-61482712D01*
X116793092Y-61312146D01*
X116938146Y-61167092D01*
X117108712Y-61053123D01*
X117298235Y-60974620D01*
X117499430Y-60934600D01*
X117704570Y-60934600D01*
X117905765Y-60974620D01*
X117905765Y-60974620D01*
G37*
G36*
X120445765Y-60974620D02*
G01*
X120635288Y-61053123D01*
X120805854Y-61167092D01*
X120950908Y-61312146D01*
X121064877Y-61482712D01*
X121143380Y-61672235D01*
X121183400Y-61873431D01*
X121183400Y-62078569D01*
X121143380Y-62279765D01*
X121064877Y-62469288D01*
X120950908Y-62639854D01*
X120805854Y-62784908D01*
X120635288Y-62898877D01*
X120635287Y-62898878D01*
X120635286Y-62898878D01*
X120445765Y-62977380D01*
X120244570Y-63017400D01*
X120039430Y-63017400D01*
X119838235Y-62977380D01*
X119648714Y-62898878D01*
X119648713Y-62898878D01*
X119648712Y-62898877D01*
X119478146Y-62784908D01*
X119333092Y-62639854D01*
X119219123Y-62469288D01*
X119140620Y-62279765D01*
X119100600Y-62078569D01*
X119100600Y-61873431D01*
X119140620Y-61672235D01*
X119219123Y-61482712D01*
X119333092Y-61312146D01*
X119478146Y-61167092D01*
X119648712Y-61053123D01*
X119838235Y-60974620D01*
X120039430Y-60934600D01*
X120244570Y-60934600D01*
X120445765Y-60974620D01*
X120445765Y-60974620D01*
G37*
G36*
X120445765Y-58434620D02*
G01*
X120541482Y-58474267D01*
X120635288Y-58513123D01*
X120805854Y-58627092D01*
X120950908Y-58772146D01*
X121046634Y-58915410D01*
X121064878Y-58942714D01*
X121143380Y-59132235D01*
X121183400Y-59333430D01*
X121183400Y-59538570D01*
X121169170Y-59610108D01*
X121143380Y-59739765D01*
X121064877Y-59929288D01*
X120950908Y-60099854D01*
X120805854Y-60244908D01*
X120635288Y-60358877D01*
X120635287Y-60358878D01*
X120635286Y-60358878D01*
X120445765Y-60437380D01*
X120244570Y-60477400D01*
X120039430Y-60477400D01*
X119838235Y-60437380D01*
X119648714Y-60358878D01*
X119648713Y-60358878D01*
X119648712Y-60358877D01*
X119478146Y-60244908D01*
X119333092Y-60099854D01*
X119219123Y-59929288D01*
X119140620Y-59739765D01*
X119114830Y-59610108D01*
X119100600Y-59538570D01*
X119100600Y-59333430D01*
X119140620Y-59132235D01*
X119219122Y-58942714D01*
X119237366Y-58915410D01*
X119333092Y-58772146D01*
X119478146Y-58627092D01*
X119648712Y-58513123D01*
X119742519Y-58474267D01*
X119838235Y-58434620D01*
X120039430Y-58394600D01*
X120244570Y-58394600D01*
X120445765Y-58434620D01*
X120445765Y-58434620D01*
G37*
G36*
X117905765Y-58434620D02*
G01*
X118001482Y-58474267D01*
X118095288Y-58513123D01*
X118265854Y-58627092D01*
X118410908Y-58772146D01*
X118506634Y-58915410D01*
X118524878Y-58942714D01*
X118603380Y-59132235D01*
X118643400Y-59333430D01*
X118643400Y-59538570D01*
X118629170Y-59610108D01*
X118603380Y-59739765D01*
X118524877Y-59929288D01*
X118410908Y-60099854D01*
X118265854Y-60244908D01*
X118095288Y-60358877D01*
X118095287Y-60358878D01*
X118095286Y-60358878D01*
X117905765Y-60437380D01*
X117704570Y-60477400D01*
X117499430Y-60477400D01*
X117298235Y-60437380D01*
X117108714Y-60358878D01*
X117108713Y-60358878D01*
X117108712Y-60358877D01*
X116938146Y-60244908D01*
X116793092Y-60099854D01*
X116679123Y-59929288D01*
X116600620Y-59739765D01*
X116574830Y-59610108D01*
X116560600Y-59538570D01*
X116560600Y-59333430D01*
X116600620Y-59132235D01*
X116679122Y-58942714D01*
X116697366Y-58915410D01*
X116793092Y-58772146D01*
X116938146Y-58627092D01*
X117108712Y-58513123D01*
X117202519Y-58474267D01*
X117298235Y-58434620D01*
X117499430Y-58394600D01*
X117704570Y-58394600D01*
X117905765Y-58434620D01*
X117905765Y-58434620D01*
G37*
G36*
X141597585Y-56941802D02*
G01*
X141747410Y-56971604D01*
X142029674Y-57088521D01*
X142283705Y-57258259D01*
X142499741Y-57474295D01*
X142669479Y-57728326D01*
X142786396Y-58010590D01*
X142786396Y-58010591D01*
X142845538Y-58307914D01*
X142846000Y-58310240D01*
X142846000Y-58615760D01*
X142786396Y-58915410D01*
X142669479Y-59197674D01*
X142499741Y-59451705D01*
X142283705Y-59667741D01*
X142029674Y-59837479D01*
X141747410Y-59954396D01*
X141597585Y-59984198D01*
X141447761Y-60014000D01*
X141142239Y-60014000D01*
X140992415Y-59984198D01*
X140842590Y-59954396D01*
X140560326Y-59837479D01*
X140306295Y-59667741D01*
X140090259Y-59451705D01*
X139920521Y-59197674D01*
X139803604Y-58915410D01*
X139744000Y-58615760D01*
X139744000Y-58310240D01*
X139744463Y-58307914D01*
X139803604Y-58010591D01*
X139803604Y-58010590D01*
X139920521Y-57728326D01*
X140090259Y-57474295D01*
X140306295Y-57258259D01*
X140560326Y-57088521D01*
X140842590Y-56971604D01*
X140992415Y-56941802D01*
X141142239Y-56912000D01*
X141447761Y-56912000D01*
X141597585Y-56941802D01*
X141597585Y-56941802D01*
G37*
G36*
X129557585Y-56941802D02*
G01*
X129707410Y-56971604D01*
X129989674Y-57088521D01*
X130243705Y-57258259D01*
X130459741Y-57474295D01*
X130629479Y-57728326D01*
X130746396Y-58010590D01*
X130746396Y-58010591D01*
X130805538Y-58307914D01*
X130806000Y-58310240D01*
X130806000Y-58615760D01*
X130746396Y-58915410D01*
X130629479Y-59197674D01*
X130459741Y-59451705D01*
X130243705Y-59667741D01*
X129989674Y-59837479D01*
X129707410Y-59954396D01*
X129557585Y-59984198D01*
X129407761Y-60014000D01*
X129102239Y-60014000D01*
X128952415Y-59984198D01*
X128802590Y-59954396D01*
X128520326Y-59837479D01*
X128266295Y-59667741D01*
X128050259Y-59451705D01*
X127880521Y-59197674D01*
X127763604Y-58915410D01*
X127704000Y-58615760D01*
X127704000Y-58310240D01*
X127704463Y-58307914D01*
X127763604Y-58010591D01*
X127763604Y-58010590D01*
X127880521Y-57728326D01*
X128050259Y-57474295D01*
X128266295Y-57258259D01*
X128520326Y-57088521D01*
X128802590Y-56971604D01*
X128952415Y-56941802D01*
X129102239Y-56912000D01*
X129407761Y-56912000D01*
X129557585Y-56941802D01*
X129557585Y-56941802D01*
G37*
G36*
X157664365Y-57799820D02*
G01*
X157853888Y-57878323D01*
X158024454Y-57992292D01*
X158169508Y-58137346D01*
X158269819Y-58287472D01*
X158283478Y-58307914D01*
X158361980Y-58497435D01*
X158402000Y-58698630D01*
X158402000Y-58903770D01*
X158375009Y-59039461D01*
X158361980Y-59104965D01*
X158283477Y-59294488D01*
X158169508Y-59465054D01*
X158024454Y-59610108D01*
X157853888Y-59724077D01*
X157853887Y-59724078D01*
X157853886Y-59724078D01*
X157664365Y-59802580D01*
X157463170Y-59842600D01*
X157258030Y-59842600D01*
X157056835Y-59802580D01*
X156867314Y-59724078D01*
X156867313Y-59724078D01*
X156867312Y-59724077D01*
X156696746Y-59610108D01*
X156551692Y-59465054D01*
X156437723Y-59294488D01*
X156359220Y-59104965D01*
X156346191Y-59039461D01*
X156319200Y-58903770D01*
X156319200Y-58698630D01*
X156359220Y-58497435D01*
X156437722Y-58307914D01*
X156451381Y-58287472D01*
X156551692Y-58137346D01*
X156696746Y-57992292D01*
X156867312Y-57878323D01*
X157056835Y-57799820D01*
X157258030Y-57759800D01*
X157463170Y-57759800D01*
X157664365Y-57799820D01*
X157664365Y-57799820D01*
G37*
G36*
X153143165Y-57799820D02*
G01*
X153332688Y-57878323D01*
X153503254Y-57992292D01*
X153648308Y-58137346D01*
X153748619Y-58287472D01*
X153762278Y-58307914D01*
X153840780Y-58497435D01*
X153880800Y-58698630D01*
X153880800Y-58903770D01*
X153853809Y-59039461D01*
X153840780Y-59104965D01*
X153762277Y-59294488D01*
X153648308Y-59465054D01*
X153503254Y-59610108D01*
X153332688Y-59724077D01*
X153332687Y-59724078D01*
X153332686Y-59724078D01*
X153143165Y-59802580D01*
X152941970Y-59842600D01*
X152736830Y-59842600D01*
X152535635Y-59802580D01*
X152346114Y-59724078D01*
X152346113Y-59724078D01*
X152346112Y-59724077D01*
X152175546Y-59610108D01*
X152030492Y-59465054D01*
X151916523Y-59294488D01*
X151838020Y-59104965D01*
X151824991Y-59039461D01*
X151798000Y-58903770D01*
X151798000Y-58698630D01*
X151838020Y-58497435D01*
X151916522Y-58307914D01*
X151930181Y-58287472D01*
X152030492Y-58137346D01*
X152175546Y-57992292D01*
X152346112Y-57878323D01*
X152535635Y-57799820D01*
X152736830Y-57759800D01*
X152941970Y-57759800D01*
X153143165Y-57799820D01*
X153143165Y-57799820D01*
G37*
G36*
X136744059Y-58230860D02*
G01*
X136880732Y-58287472D01*
X137003735Y-58369660D01*
X137108340Y-58474265D01*
X137134303Y-58513122D01*
X137190529Y-58597270D01*
X137201828Y-58624549D01*
X137247140Y-58733941D01*
X137276000Y-58879033D01*
X137276000Y-59026967D01*
X137247140Y-59172059D01*
X137190528Y-59308732D01*
X137108340Y-59431735D01*
X137003735Y-59536340D01*
X136880732Y-59618528D01*
X136880731Y-59618529D01*
X136880730Y-59618529D01*
X136744059Y-59675140D01*
X136598968Y-59704000D01*
X136451032Y-59704000D01*
X136305941Y-59675140D01*
X136169270Y-59618529D01*
X136169269Y-59618529D01*
X136169268Y-59618528D01*
X136046265Y-59536340D01*
X135941660Y-59431735D01*
X135859472Y-59308732D01*
X135802860Y-59172059D01*
X135774000Y-59026967D01*
X135774000Y-58879033D01*
X135802860Y-58733941D01*
X135848172Y-58624549D01*
X135859471Y-58597270D01*
X135915697Y-58513122D01*
X135941660Y-58474265D01*
X136046265Y-58369660D01*
X136169268Y-58287472D01*
X136305941Y-58230860D01*
X136451032Y-58202000D01*
X136598968Y-58202000D01*
X136744059Y-58230860D01*
X136744059Y-58230860D01*
G37*
G36*
X134244059Y-58230860D02*
G01*
X134380732Y-58287472D01*
X134503735Y-58369660D01*
X134608340Y-58474265D01*
X134634303Y-58513122D01*
X134690529Y-58597270D01*
X134701828Y-58624549D01*
X134747140Y-58733941D01*
X134776000Y-58879033D01*
X134776000Y-59026967D01*
X134747140Y-59172059D01*
X134690528Y-59308732D01*
X134608340Y-59431735D01*
X134503735Y-59536340D01*
X134380732Y-59618528D01*
X134380731Y-59618529D01*
X134380730Y-59618529D01*
X134244059Y-59675140D01*
X134098968Y-59704000D01*
X133951032Y-59704000D01*
X133805941Y-59675140D01*
X133669270Y-59618529D01*
X133669269Y-59618529D01*
X133669268Y-59618528D01*
X133546265Y-59536340D01*
X133441660Y-59431735D01*
X133359472Y-59308732D01*
X133302860Y-59172059D01*
X133274000Y-59026967D01*
X133274000Y-58879033D01*
X133302860Y-58733941D01*
X133348172Y-58624549D01*
X133359471Y-58597270D01*
X133415697Y-58513122D01*
X133441660Y-58474265D01*
X133546265Y-58369660D01*
X133669268Y-58287472D01*
X133805941Y-58230860D01*
X133951032Y-58202000D01*
X134098968Y-58202000D01*
X134244059Y-58230860D01*
X134244059Y-58230860D01*
G37*
G36*
X145224550Y-56471116D02*
G01*
X145440470Y-56536615D01*
X145639462Y-56642978D01*
X145813881Y-56786120D01*
X145957023Y-56960539D01*
X146063386Y-57159531D01*
X146128885Y-57375451D01*
X146151001Y-57600000D01*
X146151001Y-58400000D01*
X146128885Y-58624549D01*
X146063386Y-58840469D01*
X145957023Y-59039461D01*
X145813881Y-59213880D01*
X145639462Y-59357022D01*
X145440470Y-59463385D01*
X145224550Y-59528884D01*
X145000001Y-59551000D01*
X144999999Y-59551000D01*
X144775450Y-59528884D01*
X144559530Y-59463385D01*
X144360538Y-59357022D01*
X144186119Y-59213880D01*
X144042977Y-59039461D01*
X143936614Y-58840469D01*
X143871115Y-58624549D01*
X143848999Y-58400000D01*
X143848999Y-57600000D01*
X143871115Y-57375451D01*
X143936614Y-57159531D01*
X144042977Y-56960539D01*
X144186119Y-56786120D01*
X144360538Y-56642978D01*
X144559530Y-56536615D01*
X144775450Y-56471116D01*
X144999999Y-56449000D01*
X145000001Y-56449000D01*
X145224550Y-56471116D01*
X145224550Y-56471116D01*
G37*
G36*
X125754550Y-56471116D02*
G01*
X125970470Y-56536615D01*
X126169462Y-56642978D01*
X126343881Y-56786120D01*
X126487023Y-56960539D01*
X126593386Y-57159531D01*
X126658885Y-57375451D01*
X126681001Y-57600000D01*
X126681001Y-58400000D01*
X126658885Y-58624549D01*
X126593386Y-58840469D01*
X126487023Y-59039461D01*
X126343881Y-59213880D01*
X126169462Y-59357022D01*
X125970470Y-59463385D01*
X125754550Y-59528884D01*
X125530001Y-59551000D01*
X125529999Y-59551000D01*
X125305450Y-59528884D01*
X125089530Y-59463385D01*
X124890538Y-59357022D01*
X124716119Y-59213880D01*
X124572977Y-59039461D01*
X124466614Y-58840469D01*
X124401115Y-58624549D01*
X124378999Y-58400000D01*
X124378999Y-57600000D01*
X124401115Y-57375451D01*
X124466614Y-57159531D01*
X124572977Y-56960539D01*
X124716119Y-56786120D01*
X124890538Y-56642978D01*
X125089530Y-56536615D01*
X125305450Y-56471116D01*
X125529999Y-56449000D01*
X125530001Y-56449000D01*
X125754550Y-56471116D01*
X125754550Y-56471116D01*
G37*
G36*
X117905765Y-55894620D02*
G01*
X118092720Y-55972059D01*
X118095288Y-55973123D01*
X118265854Y-56087092D01*
X118410908Y-56232146D01*
X118410909Y-56232148D01*
X118524878Y-56402714D01*
X118603380Y-56592235D01*
X118643400Y-56793430D01*
X118643400Y-56998570D01*
X118603380Y-57199765D01*
X118530609Y-57375451D01*
X118524877Y-57389288D01*
X118410908Y-57559854D01*
X118265854Y-57704908D01*
X118095288Y-57818877D01*
X118095287Y-57818878D01*
X118095286Y-57818878D01*
X117905765Y-57897380D01*
X117704570Y-57937400D01*
X117499430Y-57937400D01*
X117298235Y-57897380D01*
X117108714Y-57818878D01*
X117108713Y-57818878D01*
X117108712Y-57818877D01*
X116938146Y-57704908D01*
X116793092Y-57559854D01*
X116679123Y-57389288D01*
X116673392Y-57375451D01*
X116600620Y-57199765D01*
X116560600Y-56998570D01*
X116560600Y-56793430D01*
X116600620Y-56592235D01*
X116679122Y-56402714D01*
X116793091Y-56232148D01*
X116793092Y-56232146D01*
X116938146Y-56087092D01*
X117108712Y-55973123D01*
X117111281Y-55972059D01*
X117298235Y-55894620D01*
X117499430Y-55854600D01*
X117704570Y-55854600D01*
X117905765Y-55894620D01*
X117905765Y-55894620D01*
G37*
G36*
X120445765Y-55894620D02*
G01*
X120632720Y-55972059D01*
X120635288Y-55973123D01*
X120805854Y-56087092D01*
X120950908Y-56232146D01*
X120950909Y-56232148D01*
X121064878Y-56402714D01*
X121143380Y-56592235D01*
X121183400Y-56793430D01*
X121183400Y-56998570D01*
X121143380Y-57199765D01*
X121070609Y-57375451D01*
X121064877Y-57389288D01*
X120950908Y-57559854D01*
X120805854Y-57704908D01*
X120635288Y-57818877D01*
X120635287Y-57818878D01*
X120635286Y-57818878D01*
X120445765Y-57897380D01*
X120244570Y-57937400D01*
X120039430Y-57937400D01*
X119838235Y-57897380D01*
X119648714Y-57818878D01*
X119648713Y-57818878D01*
X119648712Y-57818877D01*
X119478146Y-57704908D01*
X119333092Y-57559854D01*
X119219123Y-57389288D01*
X119213392Y-57375451D01*
X119140620Y-57199765D01*
X119100600Y-56998570D01*
X119100600Y-56793430D01*
X119140620Y-56592235D01*
X119219122Y-56402714D01*
X119333091Y-56232148D01*
X119333092Y-56232146D01*
X119478146Y-56087092D01*
X119648712Y-55973123D01*
X119651281Y-55972059D01*
X119838235Y-55894620D01*
X120039430Y-55854600D01*
X120244570Y-55854600D01*
X120445765Y-55894620D01*
X120445765Y-55894620D01*
G37*
G36*
X137276000Y-56504000D02*
G01*
X135774000Y-56504000D01*
X135774000Y-55002000D01*
X137276000Y-55002000D01*
X137276000Y-56504000D01*
X137276000Y-56504000D01*
G37*
G36*
X134244059Y-55030860D02*
G01*
X134380732Y-55087472D01*
X134503735Y-55169660D01*
X134608340Y-55274265D01*
X134690528Y-55397268D01*
X134747140Y-55533941D01*
X134776000Y-55679033D01*
X134776000Y-55826967D01*
X134747140Y-55972059D01*
X134690528Y-56108732D01*
X134608340Y-56231735D01*
X134503735Y-56336340D01*
X134380732Y-56418528D01*
X134380731Y-56418529D01*
X134380730Y-56418529D01*
X134244059Y-56475140D01*
X134098968Y-56504000D01*
X133951032Y-56504000D01*
X133805941Y-56475140D01*
X133669270Y-56418529D01*
X133669269Y-56418529D01*
X133669268Y-56418528D01*
X133546265Y-56336340D01*
X133441660Y-56231735D01*
X133359472Y-56108732D01*
X133302860Y-55972059D01*
X133274000Y-55826967D01*
X133274000Y-55679033D01*
X133302860Y-55533941D01*
X133359472Y-55397268D01*
X133441660Y-55274265D01*
X133546265Y-55169660D01*
X133669268Y-55087472D01*
X133805941Y-55030860D01*
X133951032Y-55002000D01*
X134098968Y-55002000D01*
X134244059Y-55030860D01*
X134244059Y-55030860D01*
G37*
G36*
X157664365Y-51297420D02*
G01*
X157853888Y-51375923D01*
X158024454Y-51489892D01*
X158169508Y-51634946D01*
X158283477Y-51805512D01*
X158361980Y-51995035D01*
X158402000Y-52196231D01*
X158402000Y-52401369D01*
X158361980Y-52602565D01*
X158283477Y-52792088D01*
X158169508Y-52962654D01*
X158024454Y-53107708D01*
X157853888Y-53221677D01*
X157853887Y-53221678D01*
X157853886Y-53221678D01*
X157664365Y-53300180D01*
X157463170Y-53340200D01*
X157258030Y-53340200D01*
X157056835Y-53300180D01*
X156867314Y-53221678D01*
X156867313Y-53221678D01*
X156867312Y-53221677D01*
X156696746Y-53107708D01*
X156551692Y-52962654D01*
X156437723Y-52792088D01*
X156359220Y-52602565D01*
X156319200Y-52401369D01*
X156319200Y-52196231D01*
X156359220Y-51995035D01*
X156437723Y-51805512D01*
X156551692Y-51634946D01*
X156696746Y-51489892D01*
X156867312Y-51375923D01*
X157056835Y-51297420D01*
X157258030Y-51257400D01*
X157463170Y-51257400D01*
X157664365Y-51297420D01*
X157664365Y-51297420D01*
G37*
G36*
X153143165Y-51297420D02*
G01*
X153332688Y-51375923D01*
X153503254Y-51489892D01*
X153648308Y-51634946D01*
X153762277Y-51805512D01*
X153840780Y-51995035D01*
X153880800Y-52196231D01*
X153880800Y-52401369D01*
X153840780Y-52602565D01*
X153762277Y-52792088D01*
X153648308Y-52962654D01*
X153503254Y-53107708D01*
X153332688Y-53221677D01*
X153332687Y-53221678D01*
X153332686Y-53221678D01*
X153143165Y-53300180D01*
X152941970Y-53340200D01*
X152736830Y-53340200D01*
X152535635Y-53300180D01*
X152346114Y-53221678D01*
X152346113Y-53221678D01*
X152346112Y-53221677D01*
X152175546Y-53107708D01*
X152030492Y-52962654D01*
X151916523Y-52792088D01*
X151838020Y-52602565D01*
X151798000Y-52401369D01*
X151798000Y-52196231D01*
X151838020Y-51995035D01*
X151916523Y-51805512D01*
X152030492Y-51634946D01*
X152175546Y-51489892D01*
X152346112Y-51375923D01*
X152535635Y-51297420D01*
X152736830Y-51257400D01*
X152941970Y-51257400D01*
X153143165Y-51297420D01*
X153143165Y-51297420D01*
G37*
M02*
