M48
INCH,TZ
T1C0.0157
T2C0.0200
T3C0.0276
T4C0.0354
T5C0.0362
T6C0.0400
T7C0.0472
T8C0.0906
T9C0.0866
%
G90
G05
T1
X43700Y-44000
X43700Y-44400
X44100Y-44000
X44100Y-44400
X46400Y-39950
X46800Y-29200
X46800Y-29700
X46800Y-30200
X46800Y-30700
X46800Y-31200
X46800Y-32100
X46800Y-33550
X46800Y-35100
X46800Y-35600
X46800Y-36100
X46800Y-36600
X46800Y-37100
X46800Y-37900
X47900Y-44000
X48600Y-41600
X48700Y-29000
X48700Y-34500
X48700Y-38500
X48800Y-32500
X49700Y-42600
X49800Y-34500
X49800Y-38500
X49900Y-29000
X49900Y-32500
X49900Y-33550
X50800Y-29000
X50800Y-29440
X50800Y-32500
X50800Y-34500
X50800Y-38500
X51181Y-40551
X51200Y-34500
X51200Y-34900
X51200Y-38100
X51200Y-38500
X51760Y-31480
X51760Y-32980
X51950Y-37000
X52756Y-40158
X52800Y-36850
X52806Y-30140
X52940Y-34820
X53150Y-40157
X53425Y-34025
X53500Y-34400
X53543Y-40157
X53775Y-33750
X53840Y-36580
X54680Y-36660
X55004Y-36473
X55410Y-29000
X55410Y-29400
X55410Y-29850
X55660Y-36393
X56000Y-36700
X56000Y-36700
X56550Y-41750
X56650Y-45050
X56684Y-36102
X57220Y-43200
X57254Y-41957
X57295Y-30096
X57550Y-41550
X57600Y-29880
X57971Y-36096
X58050Y-41700
X58350Y-43500
X58376Y-35915
X58450Y-36575
X58721Y-35483
X58740Y-37820
X59024Y-35703
X59300Y-44950
X59440Y-35287
X59700Y-34775
X59760Y-33220
X60048Y-34614
X60880Y-32620
X61060Y-34400
X61560Y-34540
X61820Y-33620
X62224Y-24980
X62800Y-34540
T2
X60116Y-28670
X60470Y-28316
X60470Y-29023
X60823Y-28670
X60823Y-29377
X61177Y-29023
X61177Y-29730
X61530Y-29377
X61530Y-30084
X61884Y-29730
T3
X49700Y-36200
X49700Y-30300
T4
X52510Y-28012
X53010Y-28012
X53510Y-28012
X54010Y-28012
T5
X52766Y-21950
X52766Y-23210
X53750Y-21950
X53750Y-23210
T6
X60173Y-20590
X60173Y-23150
X61953Y-20590
X61953Y-23150
X46300Y-22400
X46300Y-23400
X46300Y-24400
X46300Y-25400
X46300Y-26400
X47300Y-22400
X47300Y-23400
X47300Y-24400
X47300Y-25400
X47300Y-26400
T8
X50888Y-23017
X55628Y-23017
T7
G00X51385Y-59041
M15
G01X51385Y-58411
M16
G05
G00X53551Y-59789
M15
G01X52921Y-59789
M16
G05
G00X53590Y-56600
M15
G01X52960Y-56600
M16
G05
G00X55125Y-59041
M15
G01X55125Y-58411
M16
G05
G00X45510Y-53341
M15
G01X45510Y-52711
M16
G05
G00X47676Y-54089
M15
G01X47046Y-54089
M16
G05
G00X47715Y-50900
M15
G01X47085Y-50900
M16
G05
G00X49250Y-53341
M15
G01X49250Y-52711
M16
G05
G00X57260Y-59041
M15
G01X57260Y-58411
M16
G05
G00X59426Y-59789
M15
G01X58796Y-59789
M16
G05
G00X59465Y-56600
M15
G01X58835Y-56600
M16
G05
G00X61000Y-59041
M15
G01X61000Y-58411
M16
G05
G00X51385Y-53341
M15
G01X51385Y-52711
M16
G05
G00X53551Y-54089
M15
G01X52921Y-54089
M16
G05
G00X53590Y-50900
M15
G01X52960Y-50900
M16
G05
G00X55125Y-53341
M15
G01X55125Y-52711
M16
G05
G00X57260Y-53341
M15
G01X57260Y-52711
M16
G05
G00X59426Y-54089
M15
G01X58796Y-54089
M16
G05
G00X59465Y-50900
M15
G01X58835Y-50900
M16
G05
G00X61000Y-53341
M15
G01X61000Y-52711
M16
G05
G00X45510Y-59041
M15
G01X45510Y-58411
M16
G05
G00X47676Y-59789
M15
G01X47046Y-59789
M16
G05
G00X47715Y-56600
M15
G01X47085Y-56600
M16
G05
G00X49250Y-59041
M15
G01X49250Y-58411
M16
G05
T9
G00X49421Y-22677
M15
G01X49421Y-22992
M16
G05
G00X57087Y-22677
M15
G01X57087Y-22992
M16
G05
T0
M30
