G04 #@! TF.GenerationSoftware,KiCad,Pcbnew,(5.1.2)-2*
G04 #@! TF.CreationDate,2019-11-23T11:21:10-08:00*
G04 #@! TF.ProjectId,precision-dac-cv-scaler,70726563-6973-4696-9f6e-2d6461632d63,rev?*
G04 #@! TF.SameCoordinates,Original*
G04 #@! TF.FileFunction,Paste,Top*
G04 #@! TF.FilePolarity,Positive*
%FSLAX46Y46*%
G04 Gerber Fmt 4.6, Leading zero omitted, Abs format (unit mm)*
G04 Created by KiCad (PCBNEW (5.1.2)-2) date 2019-11-23 11:21:10*
%MOMM*%
%LPD*%
G04 APERTURE LIST*
%ADD10C,0.100000*%
%ADD11C,1.425000*%
%ADD12R,1.450000X0.450000*%
%ADD13R,0.450000X1.450000*%
G04 APERTURE END LIST*
D10*
G36*
X143499504Y-82776204D02*
G01*
X143523773Y-82779804D01*
X143547571Y-82785765D01*
X143570671Y-82794030D01*
X143592849Y-82804520D01*
X143613893Y-82817133D01*
X143633598Y-82831747D01*
X143651777Y-82848223D01*
X143668253Y-82866402D01*
X143682867Y-82886107D01*
X143695480Y-82907151D01*
X143705970Y-82929329D01*
X143714235Y-82952429D01*
X143720196Y-82976227D01*
X143723796Y-83000496D01*
X143725000Y-83025000D01*
X143725000Y-84275000D01*
X143723796Y-84299504D01*
X143720196Y-84323773D01*
X143714235Y-84347571D01*
X143705970Y-84370671D01*
X143695480Y-84392849D01*
X143682867Y-84413893D01*
X143668253Y-84433598D01*
X143651777Y-84451777D01*
X143633598Y-84468253D01*
X143613893Y-84482867D01*
X143592849Y-84495480D01*
X143570671Y-84505970D01*
X143547571Y-84514235D01*
X143523773Y-84520196D01*
X143499504Y-84523796D01*
X143475000Y-84525000D01*
X142550000Y-84525000D01*
X142525496Y-84523796D01*
X142501227Y-84520196D01*
X142477429Y-84514235D01*
X142454329Y-84505970D01*
X142432151Y-84495480D01*
X142411107Y-84482867D01*
X142391402Y-84468253D01*
X142373223Y-84451777D01*
X142356747Y-84433598D01*
X142342133Y-84413893D01*
X142329520Y-84392849D01*
X142319030Y-84370671D01*
X142310765Y-84347571D01*
X142304804Y-84323773D01*
X142301204Y-84299504D01*
X142300000Y-84275000D01*
X142300000Y-83025000D01*
X142301204Y-83000496D01*
X142304804Y-82976227D01*
X142310765Y-82952429D01*
X142319030Y-82929329D01*
X142329520Y-82907151D01*
X142342133Y-82886107D01*
X142356747Y-82866402D01*
X142373223Y-82848223D01*
X142391402Y-82831747D01*
X142411107Y-82817133D01*
X142432151Y-82804520D01*
X142454329Y-82794030D01*
X142477429Y-82785765D01*
X142501227Y-82779804D01*
X142525496Y-82776204D01*
X142550000Y-82775000D01*
X143475000Y-82775000D01*
X143499504Y-82776204D01*
X143499504Y-82776204D01*
G37*
D11*
X143012500Y-83650000D03*
D10*
G36*
X146474504Y-82776204D02*
G01*
X146498773Y-82779804D01*
X146522571Y-82785765D01*
X146545671Y-82794030D01*
X146567849Y-82804520D01*
X146588893Y-82817133D01*
X146608598Y-82831747D01*
X146626777Y-82848223D01*
X146643253Y-82866402D01*
X146657867Y-82886107D01*
X146670480Y-82907151D01*
X146680970Y-82929329D01*
X146689235Y-82952429D01*
X146695196Y-82976227D01*
X146698796Y-83000496D01*
X146700000Y-83025000D01*
X146700000Y-84275000D01*
X146698796Y-84299504D01*
X146695196Y-84323773D01*
X146689235Y-84347571D01*
X146680970Y-84370671D01*
X146670480Y-84392849D01*
X146657867Y-84413893D01*
X146643253Y-84433598D01*
X146626777Y-84451777D01*
X146608598Y-84468253D01*
X146588893Y-84482867D01*
X146567849Y-84495480D01*
X146545671Y-84505970D01*
X146522571Y-84514235D01*
X146498773Y-84520196D01*
X146474504Y-84523796D01*
X146450000Y-84525000D01*
X145525000Y-84525000D01*
X145500496Y-84523796D01*
X145476227Y-84520196D01*
X145452429Y-84514235D01*
X145429329Y-84505970D01*
X145407151Y-84495480D01*
X145386107Y-84482867D01*
X145366402Y-84468253D01*
X145348223Y-84451777D01*
X145331747Y-84433598D01*
X145317133Y-84413893D01*
X145304520Y-84392849D01*
X145294030Y-84370671D01*
X145285765Y-84347571D01*
X145279804Y-84323773D01*
X145276204Y-84299504D01*
X145275000Y-84275000D01*
X145275000Y-83025000D01*
X145276204Y-83000496D01*
X145279804Y-82976227D01*
X145285765Y-82952429D01*
X145294030Y-82929329D01*
X145304520Y-82907151D01*
X145317133Y-82886107D01*
X145331747Y-82866402D01*
X145348223Y-82848223D01*
X145366402Y-82831747D01*
X145386107Y-82817133D01*
X145407151Y-82804520D01*
X145429329Y-82794030D01*
X145452429Y-82785765D01*
X145476227Y-82779804D01*
X145500496Y-82776204D01*
X145525000Y-82775000D01*
X146450000Y-82775000D01*
X146474504Y-82776204D01*
X146474504Y-82776204D01*
G37*
D11*
X145987500Y-83650000D03*
D10*
G36*
X160962004Y-82876204D02*
G01*
X160986273Y-82879804D01*
X161010071Y-82885765D01*
X161033171Y-82894030D01*
X161055349Y-82904520D01*
X161076393Y-82917133D01*
X161096098Y-82931747D01*
X161114277Y-82948223D01*
X161130753Y-82966402D01*
X161145367Y-82986107D01*
X161157980Y-83007151D01*
X161168470Y-83029329D01*
X161176735Y-83052429D01*
X161182696Y-83076227D01*
X161186296Y-83100496D01*
X161187500Y-83125000D01*
X161187500Y-84375000D01*
X161186296Y-84399504D01*
X161182696Y-84423773D01*
X161176735Y-84447571D01*
X161168470Y-84470671D01*
X161157980Y-84492849D01*
X161145367Y-84513893D01*
X161130753Y-84533598D01*
X161114277Y-84551777D01*
X161096098Y-84568253D01*
X161076393Y-84582867D01*
X161055349Y-84595480D01*
X161033171Y-84605970D01*
X161010071Y-84614235D01*
X160986273Y-84620196D01*
X160962004Y-84623796D01*
X160937500Y-84625000D01*
X160012500Y-84625000D01*
X159987996Y-84623796D01*
X159963727Y-84620196D01*
X159939929Y-84614235D01*
X159916829Y-84605970D01*
X159894651Y-84595480D01*
X159873607Y-84582867D01*
X159853902Y-84568253D01*
X159835723Y-84551777D01*
X159819247Y-84533598D01*
X159804633Y-84513893D01*
X159792020Y-84492849D01*
X159781530Y-84470671D01*
X159773265Y-84447571D01*
X159767304Y-84423773D01*
X159763704Y-84399504D01*
X159762500Y-84375000D01*
X159762500Y-83125000D01*
X159763704Y-83100496D01*
X159767304Y-83076227D01*
X159773265Y-83052429D01*
X159781530Y-83029329D01*
X159792020Y-83007151D01*
X159804633Y-82986107D01*
X159819247Y-82966402D01*
X159835723Y-82948223D01*
X159853902Y-82931747D01*
X159873607Y-82917133D01*
X159894651Y-82904520D01*
X159916829Y-82894030D01*
X159939929Y-82885765D01*
X159963727Y-82879804D01*
X159987996Y-82876204D01*
X160012500Y-82875000D01*
X160937500Y-82875000D01*
X160962004Y-82876204D01*
X160962004Y-82876204D01*
G37*
D11*
X160475000Y-83750000D03*
D10*
G36*
X157987004Y-82876204D02*
G01*
X158011273Y-82879804D01*
X158035071Y-82885765D01*
X158058171Y-82894030D01*
X158080349Y-82904520D01*
X158101393Y-82917133D01*
X158121098Y-82931747D01*
X158139277Y-82948223D01*
X158155753Y-82966402D01*
X158170367Y-82986107D01*
X158182980Y-83007151D01*
X158193470Y-83029329D01*
X158201735Y-83052429D01*
X158207696Y-83076227D01*
X158211296Y-83100496D01*
X158212500Y-83125000D01*
X158212500Y-84375000D01*
X158211296Y-84399504D01*
X158207696Y-84423773D01*
X158201735Y-84447571D01*
X158193470Y-84470671D01*
X158182980Y-84492849D01*
X158170367Y-84513893D01*
X158155753Y-84533598D01*
X158139277Y-84551777D01*
X158121098Y-84568253D01*
X158101393Y-84582867D01*
X158080349Y-84595480D01*
X158058171Y-84605970D01*
X158035071Y-84614235D01*
X158011273Y-84620196D01*
X157987004Y-84623796D01*
X157962500Y-84625000D01*
X157037500Y-84625000D01*
X157012996Y-84623796D01*
X156988727Y-84620196D01*
X156964929Y-84614235D01*
X156941829Y-84605970D01*
X156919651Y-84595480D01*
X156898607Y-84582867D01*
X156878902Y-84568253D01*
X156860723Y-84551777D01*
X156844247Y-84533598D01*
X156829633Y-84513893D01*
X156817020Y-84492849D01*
X156806530Y-84470671D01*
X156798265Y-84447571D01*
X156792304Y-84423773D01*
X156788704Y-84399504D01*
X156787500Y-84375000D01*
X156787500Y-83125000D01*
X156788704Y-83100496D01*
X156792304Y-83076227D01*
X156798265Y-83052429D01*
X156806530Y-83029329D01*
X156817020Y-83007151D01*
X156829633Y-82986107D01*
X156844247Y-82966402D01*
X156860723Y-82948223D01*
X156878902Y-82931747D01*
X156898607Y-82917133D01*
X156919651Y-82904520D01*
X156941829Y-82894030D01*
X156964929Y-82885765D01*
X156988727Y-82879804D01*
X157012996Y-82876204D01*
X157037500Y-82875000D01*
X157962500Y-82875000D01*
X157987004Y-82876204D01*
X157987004Y-82876204D01*
G37*
D11*
X157500000Y-83750000D03*
D10*
G36*
X126724504Y-79626204D02*
G01*
X126748773Y-79629804D01*
X126772571Y-79635765D01*
X126795671Y-79644030D01*
X126817849Y-79654520D01*
X126838893Y-79667133D01*
X126858598Y-79681747D01*
X126876777Y-79698223D01*
X126893253Y-79716402D01*
X126907867Y-79736107D01*
X126920480Y-79757151D01*
X126930970Y-79779329D01*
X126939235Y-79802429D01*
X126945196Y-79826227D01*
X126948796Y-79850496D01*
X126950000Y-79875000D01*
X126950000Y-81125000D01*
X126948796Y-81149504D01*
X126945196Y-81173773D01*
X126939235Y-81197571D01*
X126930970Y-81220671D01*
X126920480Y-81242849D01*
X126907867Y-81263893D01*
X126893253Y-81283598D01*
X126876777Y-81301777D01*
X126858598Y-81318253D01*
X126838893Y-81332867D01*
X126817849Y-81345480D01*
X126795671Y-81355970D01*
X126772571Y-81364235D01*
X126748773Y-81370196D01*
X126724504Y-81373796D01*
X126700000Y-81375000D01*
X125775000Y-81375000D01*
X125750496Y-81373796D01*
X125726227Y-81370196D01*
X125702429Y-81364235D01*
X125679329Y-81355970D01*
X125657151Y-81345480D01*
X125636107Y-81332867D01*
X125616402Y-81318253D01*
X125598223Y-81301777D01*
X125581747Y-81283598D01*
X125567133Y-81263893D01*
X125554520Y-81242849D01*
X125544030Y-81220671D01*
X125535765Y-81197571D01*
X125529804Y-81173773D01*
X125526204Y-81149504D01*
X125525000Y-81125000D01*
X125525000Y-79875000D01*
X125526204Y-79850496D01*
X125529804Y-79826227D01*
X125535765Y-79802429D01*
X125544030Y-79779329D01*
X125554520Y-79757151D01*
X125567133Y-79736107D01*
X125581747Y-79716402D01*
X125598223Y-79698223D01*
X125616402Y-79681747D01*
X125636107Y-79667133D01*
X125657151Y-79654520D01*
X125679329Y-79644030D01*
X125702429Y-79635765D01*
X125726227Y-79629804D01*
X125750496Y-79626204D01*
X125775000Y-79625000D01*
X126700000Y-79625000D01*
X126724504Y-79626204D01*
X126724504Y-79626204D01*
G37*
D11*
X126237500Y-80500000D03*
D10*
G36*
X123749504Y-79626204D02*
G01*
X123773773Y-79629804D01*
X123797571Y-79635765D01*
X123820671Y-79644030D01*
X123842849Y-79654520D01*
X123863893Y-79667133D01*
X123883598Y-79681747D01*
X123901777Y-79698223D01*
X123918253Y-79716402D01*
X123932867Y-79736107D01*
X123945480Y-79757151D01*
X123955970Y-79779329D01*
X123964235Y-79802429D01*
X123970196Y-79826227D01*
X123973796Y-79850496D01*
X123975000Y-79875000D01*
X123975000Y-81125000D01*
X123973796Y-81149504D01*
X123970196Y-81173773D01*
X123964235Y-81197571D01*
X123955970Y-81220671D01*
X123945480Y-81242849D01*
X123932867Y-81263893D01*
X123918253Y-81283598D01*
X123901777Y-81301777D01*
X123883598Y-81318253D01*
X123863893Y-81332867D01*
X123842849Y-81345480D01*
X123820671Y-81355970D01*
X123797571Y-81364235D01*
X123773773Y-81370196D01*
X123749504Y-81373796D01*
X123725000Y-81375000D01*
X122800000Y-81375000D01*
X122775496Y-81373796D01*
X122751227Y-81370196D01*
X122727429Y-81364235D01*
X122704329Y-81355970D01*
X122682151Y-81345480D01*
X122661107Y-81332867D01*
X122641402Y-81318253D01*
X122623223Y-81301777D01*
X122606747Y-81283598D01*
X122592133Y-81263893D01*
X122579520Y-81242849D01*
X122569030Y-81220671D01*
X122560765Y-81197571D01*
X122554804Y-81173773D01*
X122551204Y-81149504D01*
X122550000Y-81125000D01*
X122550000Y-79875000D01*
X122551204Y-79850496D01*
X122554804Y-79826227D01*
X122560765Y-79802429D01*
X122569030Y-79779329D01*
X122579520Y-79757151D01*
X122592133Y-79736107D01*
X122606747Y-79716402D01*
X122623223Y-79698223D01*
X122641402Y-79681747D01*
X122661107Y-79667133D01*
X122682151Y-79654520D01*
X122704329Y-79644030D01*
X122727429Y-79635765D01*
X122751227Y-79629804D01*
X122775496Y-79626204D01*
X122800000Y-79625000D01*
X123725000Y-79625000D01*
X123749504Y-79626204D01*
X123749504Y-79626204D01*
G37*
D11*
X123262500Y-80500000D03*
D10*
G36*
X162649504Y-86051204D02*
G01*
X162673773Y-86054804D01*
X162697571Y-86060765D01*
X162720671Y-86069030D01*
X162742849Y-86079520D01*
X162763893Y-86092133D01*
X162783598Y-86106747D01*
X162801777Y-86123223D01*
X162818253Y-86141402D01*
X162832867Y-86161107D01*
X162845480Y-86182151D01*
X162855970Y-86204329D01*
X162864235Y-86227429D01*
X162870196Y-86251227D01*
X162873796Y-86275496D01*
X162875000Y-86300000D01*
X162875000Y-87225000D01*
X162873796Y-87249504D01*
X162870196Y-87273773D01*
X162864235Y-87297571D01*
X162855970Y-87320671D01*
X162845480Y-87342849D01*
X162832867Y-87363893D01*
X162818253Y-87383598D01*
X162801777Y-87401777D01*
X162783598Y-87418253D01*
X162763893Y-87432867D01*
X162742849Y-87445480D01*
X162720671Y-87455970D01*
X162697571Y-87464235D01*
X162673773Y-87470196D01*
X162649504Y-87473796D01*
X162625000Y-87475000D01*
X161375000Y-87475000D01*
X161350496Y-87473796D01*
X161326227Y-87470196D01*
X161302429Y-87464235D01*
X161279329Y-87455970D01*
X161257151Y-87445480D01*
X161236107Y-87432867D01*
X161216402Y-87418253D01*
X161198223Y-87401777D01*
X161181747Y-87383598D01*
X161167133Y-87363893D01*
X161154520Y-87342849D01*
X161144030Y-87320671D01*
X161135765Y-87297571D01*
X161129804Y-87273773D01*
X161126204Y-87249504D01*
X161125000Y-87225000D01*
X161125000Y-86300000D01*
X161126204Y-86275496D01*
X161129804Y-86251227D01*
X161135765Y-86227429D01*
X161144030Y-86204329D01*
X161154520Y-86182151D01*
X161167133Y-86161107D01*
X161181747Y-86141402D01*
X161198223Y-86123223D01*
X161216402Y-86106747D01*
X161236107Y-86092133D01*
X161257151Y-86079520D01*
X161279329Y-86069030D01*
X161302429Y-86060765D01*
X161326227Y-86054804D01*
X161350496Y-86051204D01*
X161375000Y-86050000D01*
X162625000Y-86050000D01*
X162649504Y-86051204D01*
X162649504Y-86051204D01*
G37*
D11*
X162000000Y-86762500D03*
D10*
G36*
X162649504Y-89026204D02*
G01*
X162673773Y-89029804D01*
X162697571Y-89035765D01*
X162720671Y-89044030D01*
X162742849Y-89054520D01*
X162763893Y-89067133D01*
X162783598Y-89081747D01*
X162801777Y-89098223D01*
X162818253Y-89116402D01*
X162832867Y-89136107D01*
X162845480Y-89157151D01*
X162855970Y-89179329D01*
X162864235Y-89202429D01*
X162870196Y-89226227D01*
X162873796Y-89250496D01*
X162875000Y-89275000D01*
X162875000Y-90200000D01*
X162873796Y-90224504D01*
X162870196Y-90248773D01*
X162864235Y-90272571D01*
X162855970Y-90295671D01*
X162845480Y-90317849D01*
X162832867Y-90338893D01*
X162818253Y-90358598D01*
X162801777Y-90376777D01*
X162783598Y-90393253D01*
X162763893Y-90407867D01*
X162742849Y-90420480D01*
X162720671Y-90430970D01*
X162697571Y-90439235D01*
X162673773Y-90445196D01*
X162649504Y-90448796D01*
X162625000Y-90450000D01*
X161375000Y-90450000D01*
X161350496Y-90448796D01*
X161326227Y-90445196D01*
X161302429Y-90439235D01*
X161279329Y-90430970D01*
X161257151Y-90420480D01*
X161236107Y-90407867D01*
X161216402Y-90393253D01*
X161198223Y-90376777D01*
X161181747Y-90358598D01*
X161167133Y-90338893D01*
X161154520Y-90317849D01*
X161144030Y-90295671D01*
X161135765Y-90272571D01*
X161129804Y-90248773D01*
X161126204Y-90224504D01*
X161125000Y-90200000D01*
X161125000Y-89275000D01*
X161126204Y-89250496D01*
X161129804Y-89226227D01*
X161135765Y-89202429D01*
X161144030Y-89179329D01*
X161154520Y-89157151D01*
X161167133Y-89136107D01*
X161181747Y-89116402D01*
X161198223Y-89098223D01*
X161216402Y-89081747D01*
X161236107Y-89067133D01*
X161257151Y-89054520D01*
X161279329Y-89044030D01*
X161302429Y-89035765D01*
X161326227Y-89029804D01*
X161350496Y-89026204D01*
X161375000Y-89025000D01*
X162625000Y-89025000D01*
X162649504Y-89026204D01*
X162649504Y-89026204D01*
G37*
D11*
X162000000Y-89737500D03*
D10*
G36*
X141649504Y-76051204D02*
G01*
X141673773Y-76054804D01*
X141697571Y-76060765D01*
X141720671Y-76069030D01*
X141742849Y-76079520D01*
X141763893Y-76092133D01*
X141783598Y-76106747D01*
X141801777Y-76123223D01*
X141818253Y-76141402D01*
X141832867Y-76161107D01*
X141845480Y-76182151D01*
X141855970Y-76204329D01*
X141864235Y-76227429D01*
X141870196Y-76251227D01*
X141873796Y-76275496D01*
X141875000Y-76300000D01*
X141875000Y-77225000D01*
X141873796Y-77249504D01*
X141870196Y-77273773D01*
X141864235Y-77297571D01*
X141855970Y-77320671D01*
X141845480Y-77342849D01*
X141832867Y-77363893D01*
X141818253Y-77383598D01*
X141801777Y-77401777D01*
X141783598Y-77418253D01*
X141763893Y-77432867D01*
X141742849Y-77445480D01*
X141720671Y-77455970D01*
X141697571Y-77464235D01*
X141673773Y-77470196D01*
X141649504Y-77473796D01*
X141625000Y-77475000D01*
X140375000Y-77475000D01*
X140350496Y-77473796D01*
X140326227Y-77470196D01*
X140302429Y-77464235D01*
X140279329Y-77455970D01*
X140257151Y-77445480D01*
X140236107Y-77432867D01*
X140216402Y-77418253D01*
X140198223Y-77401777D01*
X140181747Y-77383598D01*
X140167133Y-77363893D01*
X140154520Y-77342849D01*
X140144030Y-77320671D01*
X140135765Y-77297571D01*
X140129804Y-77273773D01*
X140126204Y-77249504D01*
X140125000Y-77225000D01*
X140125000Y-76300000D01*
X140126204Y-76275496D01*
X140129804Y-76251227D01*
X140135765Y-76227429D01*
X140144030Y-76204329D01*
X140154520Y-76182151D01*
X140167133Y-76161107D01*
X140181747Y-76141402D01*
X140198223Y-76123223D01*
X140216402Y-76106747D01*
X140236107Y-76092133D01*
X140257151Y-76079520D01*
X140279329Y-76069030D01*
X140302429Y-76060765D01*
X140326227Y-76054804D01*
X140350496Y-76051204D01*
X140375000Y-76050000D01*
X141625000Y-76050000D01*
X141649504Y-76051204D01*
X141649504Y-76051204D01*
G37*
D11*
X141000000Y-76762500D03*
D10*
G36*
X141649504Y-79026204D02*
G01*
X141673773Y-79029804D01*
X141697571Y-79035765D01*
X141720671Y-79044030D01*
X141742849Y-79054520D01*
X141763893Y-79067133D01*
X141783598Y-79081747D01*
X141801777Y-79098223D01*
X141818253Y-79116402D01*
X141832867Y-79136107D01*
X141845480Y-79157151D01*
X141855970Y-79179329D01*
X141864235Y-79202429D01*
X141870196Y-79226227D01*
X141873796Y-79250496D01*
X141875000Y-79275000D01*
X141875000Y-80200000D01*
X141873796Y-80224504D01*
X141870196Y-80248773D01*
X141864235Y-80272571D01*
X141855970Y-80295671D01*
X141845480Y-80317849D01*
X141832867Y-80338893D01*
X141818253Y-80358598D01*
X141801777Y-80376777D01*
X141783598Y-80393253D01*
X141763893Y-80407867D01*
X141742849Y-80420480D01*
X141720671Y-80430970D01*
X141697571Y-80439235D01*
X141673773Y-80445196D01*
X141649504Y-80448796D01*
X141625000Y-80450000D01*
X140375000Y-80450000D01*
X140350496Y-80448796D01*
X140326227Y-80445196D01*
X140302429Y-80439235D01*
X140279329Y-80430970D01*
X140257151Y-80420480D01*
X140236107Y-80407867D01*
X140216402Y-80393253D01*
X140198223Y-80376777D01*
X140181747Y-80358598D01*
X140167133Y-80338893D01*
X140154520Y-80317849D01*
X140144030Y-80295671D01*
X140135765Y-80272571D01*
X140129804Y-80248773D01*
X140126204Y-80224504D01*
X140125000Y-80200000D01*
X140125000Y-79275000D01*
X140126204Y-79250496D01*
X140129804Y-79226227D01*
X140135765Y-79202429D01*
X140144030Y-79179329D01*
X140154520Y-79157151D01*
X140167133Y-79136107D01*
X140181747Y-79116402D01*
X140198223Y-79098223D01*
X140216402Y-79081747D01*
X140236107Y-79067133D01*
X140257151Y-79054520D01*
X140279329Y-79044030D01*
X140302429Y-79035765D01*
X140326227Y-79029804D01*
X140350496Y-79026204D01*
X140375000Y-79025000D01*
X141625000Y-79025000D01*
X141649504Y-79026204D01*
X141649504Y-79026204D01*
G37*
D11*
X141000000Y-79737500D03*
D10*
G36*
X163149504Y-79038704D02*
G01*
X163173773Y-79042304D01*
X163197571Y-79048265D01*
X163220671Y-79056530D01*
X163242849Y-79067020D01*
X163263893Y-79079633D01*
X163283598Y-79094247D01*
X163301777Y-79110723D01*
X163318253Y-79128902D01*
X163332867Y-79148607D01*
X163345480Y-79169651D01*
X163355970Y-79191829D01*
X163364235Y-79214929D01*
X163370196Y-79238727D01*
X163373796Y-79262996D01*
X163375000Y-79287500D01*
X163375000Y-80212500D01*
X163373796Y-80237004D01*
X163370196Y-80261273D01*
X163364235Y-80285071D01*
X163355970Y-80308171D01*
X163345480Y-80330349D01*
X163332867Y-80351393D01*
X163318253Y-80371098D01*
X163301777Y-80389277D01*
X163283598Y-80405753D01*
X163263893Y-80420367D01*
X163242849Y-80432980D01*
X163220671Y-80443470D01*
X163197571Y-80451735D01*
X163173773Y-80457696D01*
X163149504Y-80461296D01*
X163125000Y-80462500D01*
X161875000Y-80462500D01*
X161850496Y-80461296D01*
X161826227Y-80457696D01*
X161802429Y-80451735D01*
X161779329Y-80443470D01*
X161757151Y-80432980D01*
X161736107Y-80420367D01*
X161716402Y-80405753D01*
X161698223Y-80389277D01*
X161681747Y-80371098D01*
X161667133Y-80351393D01*
X161654520Y-80330349D01*
X161644030Y-80308171D01*
X161635765Y-80285071D01*
X161629804Y-80261273D01*
X161626204Y-80237004D01*
X161625000Y-80212500D01*
X161625000Y-79287500D01*
X161626204Y-79262996D01*
X161629804Y-79238727D01*
X161635765Y-79214929D01*
X161644030Y-79191829D01*
X161654520Y-79169651D01*
X161667133Y-79148607D01*
X161681747Y-79128902D01*
X161698223Y-79110723D01*
X161716402Y-79094247D01*
X161736107Y-79079633D01*
X161757151Y-79067020D01*
X161779329Y-79056530D01*
X161802429Y-79048265D01*
X161826227Y-79042304D01*
X161850496Y-79038704D01*
X161875000Y-79037500D01*
X163125000Y-79037500D01*
X163149504Y-79038704D01*
X163149504Y-79038704D01*
G37*
D11*
X162500000Y-79750000D03*
D10*
G36*
X163149504Y-76063704D02*
G01*
X163173773Y-76067304D01*
X163197571Y-76073265D01*
X163220671Y-76081530D01*
X163242849Y-76092020D01*
X163263893Y-76104633D01*
X163283598Y-76119247D01*
X163301777Y-76135723D01*
X163318253Y-76153902D01*
X163332867Y-76173607D01*
X163345480Y-76194651D01*
X163355970Y-76216829D01*
X163364235Y-76239929D01*
X163370196Y-76263727D01*
X163373796Y-76287996D01*
X163375000Y-76312500D01*
X163375000Y-77237500D01*
X163373796Y-77262004D01*
X163370196Y-77286273D01*
X163364235Y-77310071D01*
X163355970Y-77333171D01*
X163345480Y-77355349D01*
X163332867Y-77376393D01*
X163318253Y-77396098D01*
X163301777Y-77414277D01*
X163283598Y-77430753D01*
X163263893Y-77445367D01*
X163242849Y-77457980D01*
X163220671Y-77468470D01*
X163197571Y-77476735D01*
X163173773Y-77482696D01*
X163149504Y-77486296D01*
X163125000Y-77487500D01*
X161875000Y-77487500D01*
X161850496Y-77486296D01*
X161826227Y-77482696D01*
X161802429Y-77476735D01*
X161779329Y-77468470D01*
X161757151Y-77457980D01*
X161736107Y-77445367D01*
X161716402Y-77430753D01*
X161698223Y-77414277D01*
X161681747Y-77396098D01*
X161667133Y-77376393D01*
X161654520Y-77355349D01*
X161644030Y-77333171D01*
X161635765Y-77310071D01*
X161629804Y-77286273D01*
X161626204Y-77262004D01*
X161625000Y-77237500D01*
X161625000Y-76312500D01*
X161626204Y-76287996D01*
X161629804Y-76263727D01*
X161635765Y-76239929D01*
X161644030Y-76216829D01*
X161654520Y-76194651D01*
X161667133Y-76173607D01*
X161681747Y-76153902D01*
X161698223Y-76135723D01*
X161716402Y-76119247D01*
X161736107Y-76104633D01*
X161757151Y-76092020D01*
X161779329Y-76081530D01*
X161802429Y-76073265D01*
X161826227Y-76067304D01*
X161850496Y-76063704D01*
X161875000Y-76062500D01*
X163125000Y-76062500D01*
X163149504Y-76063704D01*
X163149504Y-76063704D01*
G37*
D11*
X162500000Y-76775000D03*
D10*
G36*
X141649504Y-89026204D02*
G01*
X141673773Y-89029804D01*
X141697571Y-89035765D01*
X141720671Y-89044030D01*
X141742849Y-89054520D01*
X141763893Y-89067133D01*
X141783598Y-89081747D01*
X141801777Y-89098223D01*
X141818253Y-89116402D01*
X141832867Y-89136107D01*
X141845480Y-89157151D01*
X141855970Y-89179329D01*
X141864235Y-89202429D01*
X141870196Y-89226227D01*
X141873796Y-89250496D01*
X141875000Y-89275000D01*
X141875000Y-90200000D01*
X141873796Y-90224504D01*
X141870196Y-90248773D01*
X141864235Y-90272571D01*
X141855970Y-90295671D01*
X141845480Y-90317849D01*
X141832867Y-90338893D01*
X141818253Y-90358598D01*
X141801777Y-90376777D01*
X141783598Y-90393253D01*
X141763893Y-90407867D01*
X141742849Y-90420480D01*
X141720671Y-90430970D01*
X141697571Y-90439235D01*
X141673773Y-90445196D01*
X141649504Y-90448796D01*
X141625000Y-90450000D01*
X140375000Y-90450000D01*
X140350496Y-90448796D01*
X140326227Y-90445196D01*
X140302429Y-90439235D01*
X140279329Y-90430970D01*
X140257151Y-90420480D01*
X140236107Y-90407867D01*
X140216402Y-90393253D01*
X140198223Y-90376777D01*
X140181747Y-90358598D01*
X140167133Y-90338893D01*
X140154520Y-90317849D01*
X140144030Y-90295671D01*
X140135765Y-90272571D01*
X140129804Y-90248773D01*
X140126204Y-90224504D01*
X140125000Y-90200000D01*
X140125000Y-89275000D01*
X140126204Y-89250496D01*
X140129804Y-89226227D01*
X140135765Y-89202429D01*
X140144030Y-89179329D01*
X140154520Y-89157151D01*
X140167133Y-89136107D01*
X140181747Y-89116402D01*
X140198223Y-89098223D01*
X140216402Y-89081747D01*
X140236107Y-89067133D01*
X140257151Y-89054520D01*
X140279329Y-89044030D01*
X140302429Y-89035765D01*
X140326227Y-89029804D01*
X140350496Y-89026204D01*
X140375000Y-89025000D01*
X141625000Y-89025000D01*
X141649504Y-89026204D01*
X141649504Y-89026204D01*
G37*
D11*
X141000000Y-89737500D03*
D10*
G36*
X141649504Y-86051204D02*
G01*
X141673773Y-86054804D01*
X141697571Y-86060765D01*
X141720671Y-86069030D01*
X141742849Y-86079520D01*
X141763893Y-86092133D01*
X141783598Y-86106747D01*
X141801777Y-86123223D01*
X141818253Y-86141402D01*
X141832867Y-86161107D01*
X141845480Y-86182151D01*
X141855970Y-86204329D01*
X141864235Y-86227429D01*
X141870196Y-86251227D01*
X141873796Y-86275496D01*
X141875000Y-86300000D01*
X141875000Y-87225000D01*
X141873796Y-87249504D01*
X141870196Y-87273773D01*
X141864235Y-87297571D01*
X141855970Y-87320671D01*
X141845480Y-87342849D01*
X141832867Y-87363893D01*
X141818253Y-87383598D01*
X141801777Y-87401777D01*
X141783598Y-87418253D01*
X141763893Y-87432867D01*
X141742849Y-87445480D01*
X141720671Y-87455970D01*
X141697571Y-87464235D01*
X141673773Y-87470196D01*
X141649504Y-87473796D01*
X141625000Y-87475000D01*
X140375000Y-87475000D01*
X140350496Y-87473796D01*
X140326227Y-87470196D01*
X140302429Y-87464235D01*
X140279329Y-87455970D01*
X140257151Y-87445480D01*
X140236107Y-87432867D01*
X140216402Y-87418253D01*
X140198223Y-87401777D01*
X140181747Y-87383598D01*
X140167133Y-87363893D01*
X140154520Y-87342849D01*
X140144030Y-87320671D01*
X140135765Y-87297571D01*
X140129804Y-87273773D01*
X140126204Y-87249504D01*
X140125000Y-87225000D01*
X140125000Y-86300000D01*
X140126204Y-86275496D01*
X140129804Y-86251227D01*
X140135765Y-86227429D01*
X140144030Y-86204329D01*
X140154520Y-86182151D01*
X140167133Y-86161107D01*
X140181747Y-86141402D01*
X140198223Y-86123223D01*
X140216402Y-86106747D01*
X140236107Y-86092133D01*
X140257151Y-86079520D01*
X140279329Y-86069030D01*
X140302429Y-86060765D01*
X140326227Y-86054804D01*
X140350496Y-86051204D01*
X140375000Y-86050000D01*
X141625000Y-86050000D01*
X141649504Y-86051204D01*
X141649504Y-86051204D01*
G37*
D11*
X141000000Y-86762500D03*
D10*
G36*
X126724504Y-85376204D02*
G01*
X126748773Y-85379804D01*
X126772571Y-85385765D01*
X126795671Y-85394030D01*
X126817849Y-85404520D01*
X126838893Y-85417133D01*
X126858598Y-85431747D01*
X126876777Y-85448223D01*
X126893253Y-85466402D01*
X126907867Y-85486107D01*
X126920480Y-85507151D01*
X126930970Y-85529329D01*
X126939235Y-85552429D01*
X126945196Y-85576227D01*
X126948796Y-85600496D01*
X126950000Y-85625000D01*
X126950000Y-86875000D01*
X126948796Y-86899504D01*
X126945196Y-86923773D01*
X126939235Y-86947571D01*
X126930970Y-86970671D01*
X126920480Y-86992849D01*
X126907867Y-87013893D01*
X126893253Y-87033598D01*
X126876777Y-87051777D01*
X126858598Y-87068253D01*
X126838893Y-87082867D01*
X126817849Y-87095480D01*
X126795671Y-87105970D01*
X126772571Y-87114235D01*
X126748773Y-87120196D01*
X126724504Y-87123796D01*
X126700000Y-87125000D01*
X125775000Y-87125000D01*
X125750496Y-87123796D01*
X125726227Y-87120196D01*
X125702429Y-87114235D01*
X125679329Y-87105970D01*
X125657151Y-87095480D01*
X125636107Y-87082867D01*
X125616402Y-87068253D01*
X125598223Y-87051777D01*
X125581747Y-87033598D01*
X125567133Y-87013893D01*
X125554520Y-86992849D01*
X125544030Y-86970671D01*
X125535765Y-86947571D01*
X125529804Y-86923773D01*
X125526204Y-86899504D01*
X125525000Y-86875000D01*
X125525000Y-85625000D01*
X125526204Y-85600496D01*
X125529804Y-85576227D01*
X125535765Y-85552429D01*
X125544030Y-85529329D01*
X125554520Y-85507151D01*
X125567133Y-85486107D01*
X125581747Y-85466402D01*
X125598223Y-85448223D01*
X125616402Y-85431747D01*
X125636107Y-85417133D01*
X125657151Y-85404520D01*
X125679329Y-85394030D01*
X125702429Y-85385765D01*
X125726227Y-85379804D01*
X125750496Y-85376204D01*
X125775000Y-85375000D01*
X126700000Y-85375000D01*
X126724504Y-85376204D01*
X126724504Y-85376204D01*
G37*
D11*
X126237500Y-86250000D03*
D10*
G36*
X123749504Y-85376204D02*
G01*
X123773773Y-85379804D01*
X123797571Y-85385765D01*
X123820671Y-85394030D01*
X123842849Y-85404520D01*
X123863893Y-85417133D01*
X123883598Y-85431747D01*
X123901777Y-85448223D01*
X123918253Y-85466402D01*
X123932867Y-85486107D01*
X123945480Y-85507151D01*
X123955970Y-85529329D01*
X123964235Y-85552429D01*
X123970196Y-85576227D01*
X123973796Y-85600496D01*
X123975000Y-85625000D01*
X123975000Y-86875000D01*
X123973796Y-86899504D01*
X123970196Y-86923773D01*
X123964235Y-86947571D01*
X123955970Y-86970671D01*
X123945480Y-86992849D01*
X123932867Y-87013893D01*
X123918253Y-87033598D01*
X123901777Y-87051777D01*
X123883598Y-87068253D01*
X123863893Y-87082867D01*
X123842849Y-87095480D01*
X123820671Y-87105970D01*
X123797571Y-87114235D01*
X123773773Y-87120196D01*
X123749504Y-87123796D01*
X123725000Y-87125000D01*
X122800000Y-87125000D01*
X122775496Y-87123796D01*
X122751227Y-87120196D01*
X122727429Y-87114235D01*
X122704329Y-87105970D01*
X122682151Y-87095480D01*
X122661107Y-87082867D01*
X122641402Y-87068253D01*
X122623223Y-87051777D01*
X122606747Y-87033598D01*
X122592133Y-87013893D01*
X122579520Y-86992849D01*
X122569030Y-86970671D01*
X122560765Y-86947571D01*
X122554804Y-86923773D01*
X122551204Y-86899504D01*
X122550000Y-86875000D01*
X122550000Y-85625000D01*
X122551204Y-85600496D01*
X122554804Y-85576227D01*
X122560765Y-85552429D01*
X122569030Y-85529329D01*
X122579520Y-85507151D01*
X122592133Y-85486107D01*
X122606747Y-85466402D01*
X122623223Y-85448223D01*
X122641402Y-85431747D01*
X122661107Y-85417133D01*
X122682151Y-85404520D01*
X122704329Y-85394030D01*
X122727429Y-85385765D01*
X122751227Y-85379804D01*
X122775496Y-85376204D01*
X122800000Y-85375000D01*
X123725000Y-85375000D01*
X123749504Y-85376204D01*
X123749504Y-85376204D01*
G37*
D11*
X123262500Y-86250000D03*
D10*
G36*
X123749504Y-82376204D02*
G01*
X123773773Y-82379804D01*
X123797571Y-82385765D01*
X123820671Y-82394030D01*
X123842849Y-82404520D01*
X123863893Y-82417133D01*
X123883598Y-82431747D01*
X123901777Y-82448223D01*
X123918253Y-82466402D01*
X123932867Y-82486107D01*
X123945480Y-82507151D01*
X123955970Y-82529329D01*
X123964235Y-82552429D01*
X123970196Y-82576227D01*
X123973796Y-82600496D01*
X123975000Y-82625000D01*
X123975000Y-83875000D01*
X123973796Y-83899504D01*
X123970196Y-83923773D01*
X123964235Y-83947571D01*
X123955970Y-83970671D01*
X123945480Y-83992849D01*
X123932867Y-84013893D01*
X123918253Y-84033598D01*
X123901777Y-84051777D01*
X123883598Y-84068253D01*
X123863893Y-84082867D01*
X123842849Y-84095480D01*
X123820671Y-84105970D01*
X123797571Y-84114235D01*
X123773773Y-84120196D01*
X123749504Y-84123796D01*
X123725000Y-84125000D01*
X122800000Y-84125000D01*
X122775496Y-84123796D01*
X122751227Y-84120196D01*
X122727429Y-84114235D01*
X122704329Y-84105970D01*
X122682151Y-84095480D01*
X122661107Y-84082867D01*
X122641402Y-84068253D01*
X122623223Y-84051777D01*
X122606747Y-84033598D01*
X122592133Y-84013893D01*
X122579520Y-83992849D01*
X122569030Y-83970671D01*
X122560765Y-83947571D01*
X122554804Y-83923773D01*
X122551204Y-83899504D01*
X122550000Y-83875000D01*
X122550000Y-82625000D01*
X122551204Y-82600496D01*
X122554804Y-82576227D01*
X122560765Y-82552429D01*
X122569030Y-82529329D01*
X122579520Y-82507151D01*
X122592133Y-82486107D01*
X122606747Y-82466402D01*
X122623223Y-82448223D01*
X122641402Y-82431747D01*
X122661107Y-82417133D01*
X122682151Y-82404520D01*
X122704329Y-82394030D01*
X122727429Y-82385765D01*
X122751227Y-82379804D01*
X122775496Y-82376204D01*
X122800000Y-82375000D01*
X123725000Y-82375000D01*
X123749504Y-82376204D01*
X123749504Y-82376204D01*
G37*
D11*
X123262500Y-83250000D03*
D10*
G36*
X126724504Y-82376204D02*
G01*
X126748773Y-82379804D01*
X126772571Y-82385765D01*
X126795671Y-82394030D01*
X126817849Y-82404520D01*
X126838893Y-82417133D01*
X126858598Y-82431747D01*
X126876777Y-82448223D01*
X126893253Y-82466402D01*
X126907867Y-82486107D01*
X126920480Y-82507151D01*
X126930970Y-82529329D01*
X126939235Y-82552429D01*
X126945196Y-82576227D01*
X126948796Y-82600496D01*
X126950000Y-82625000D01*
X126950000Y-83875000D01*
X126948796Y-83899504D01*
X126945196Y-83923773D01*
X126939235Y-83947571D01*
X126930970Y-83970671D01*
X126920480Y-83992849D01*
X126907867Y-84013893D01*
X126893253Y-84033598D01*
X126876777Y-84051777D01*
X126858598Y-84068253D01*
X126838893Y-84082867D01*
X126817849Y-84095480D01*
X126795671Y-84105970D01*
X126772571Y-84114235D01*
X126748773Y-84120196D01*
X126724504Y-84123796D01*
X126700000Y-84125000D01*
X125775000Y-84125000D01*
X125750496Y-84123796D01*
X125726227Y-84120196D01*
X125702429Y-84114235D01*
X125679329Y-84105970D01*
X125657151Y-84095480D01*
X125636107Y-84082867D01*
X125616402Y-84068253D01*
X125598223Y-84051777D01*
X125581747Y-84033598D01*
X125567133Y-84013893D01*
X125554520Y-83992849D01*
X125544030Y-83970671D01*
X125535765Y-83947571D01*
X125529804Y-83923773D01*
X125526204Y-83899504D01*
X125525000Y-83875000D01*
X125525000Y-82625000D01*
X125526204Y-82600496D01*
X125529804Y-82576227D01*
X125535765Y-82552429D01*
X125544030Y-82529329D01*
X125554520Y-82507151D01*
X125567133Y-82486107D01*
X125581747Y-82466402D01*
X125598223Y-82448223D01*
X125616402Y-82431747D01*
X125636107Y-82417133D01*
X125657151Y-82404520D01*
X125679329Y-82394030D01*
X125702429Y-82385765D01*
X125726227Y-82379804D01*
X125750496Y-82376204D01*
X125775000Y-82375000D01*
X126700000Y-82375000D01*
X126724504Y-82376204D01*
X126724504Y-82376204D01*
G37*
D11*
X126237500Y-83250000D03*
D10*
G36*
X153649504Y-90526204D02*
G01*
X153673773Y-90529804D01*
X153697571Y-90535765D01*
X153720671Y-90544030D01*
X153742849Y-90554520D01*
X153763893Y-90567133D01*
X153783598Y-90581747D01*
X153801777Y-90598223D01*
X153818253Y-90616402D01*
X153832867Y-90636107D01*
X153845480Y-90657151D01*
X153855970Y-90679329D01*
X153864235Y-90702429D01*
X153870196Y-90726227D01*
X153873796Y-90750496D01*
X153875000Y-90775000D01*
X153875000Y-91700000D01*
X153873796Y-91724504D01*
X153870196Y-91748773D01*
X153864235Y-91772571D01*
X153855970Y-91795671D01*
X153845480Y-91817849D01*
X153832867Y-91838893D01*
X153818253Y-91858598D01*
X153801777Y-91876777D01*
X153783598Y-91893253D01*
X153763893Y-91907867D01*
X153742849Y-91920480D01*
X153720671Y-91930970D01*
X153697571Y-91939235D01*
X153673773Y-91945196D01*
X153649504Y-91948796D01*
X153625000Y-91950000D01*
X152375000Y-91950000D01*
X152350496Y-91948796D01*
X152326227Y-91945196D01*
X152302429Y-91939235D01*
X152279329Y-91930970D01*
X152257151Y-91920480D01*
X152236107Y-91907867D01*
X152216402Y-91893253D01*
X152198223Y-91876777D01*
X152181747Y-91858598D01*
X152167133Y-91838893D01*
X152154520Y-91817849D01*
X152144030Y-91795671D01*
X152135765Y-91772571D01*
X152129804Y-91748773D01*
X152126204Y-91724504D01*
X152125000Y-91700000D01*
X152125000Y-90775000D01*
X152126204Y-90750496D01*
X152129804Y-90726227D01*
X152135765Y-90702429D01*
X152144030Y-90679329D01*
X152154520Y-90657151D01*
X152167133Y-90636107D01*
X152181747Y-90616402D01*
X152198223Y-90598223D01*
X152216402Y-90581747D01*
X152236107Y-90567133D01*
X152257151Y-90554520D01*
X152279329Y-90544030D01*
X152302429Y-90535765D01*
X152326227Y-90529804D01*
X152350496Y-90526204D01*
X152375000Y-90525000D01*
X153625000Y-90525000D01*
X153649504Y-90526204D01*
X153649504Y-90526204D01*
G37*
D11*
X153000000Y-91237500D03*
D10*
G36*
X153649504Y-87551204D02*
G01*
X153673773Y-87554804D01*
X153697571Y-87560765D01*
X153720671Y-87569030D01*
X153742849Y-87579520D01*
X153763893Y-87592133D01*
X153783598Y-87606747D01*
X153801777Y-87623223D01*
X153818253Y-87641402D01*
X153832867Y-87661107D01*
X153845480Y-87682151D01*
X153855970Y-87704329D01*
X153864235Y-87727429D01*
X153870196Y-87751227D01*
X153873796Y-87775496D01*
X153875000Y-87800000D01*
X153875000Y-88725000D01*
X153873796Y-88749504D01*
X153870196Y-88773773D01*
X153864235Y-88797571D01*
X153855970Y-88820671D01*
X153845480Y-88842849D01*
X153832867Y-88863893D01*
X153818253Y-88883598D01*
X153801777Y-88901777D01*
X153783598Y-88918253D01*
X153763893Y-88932867D01*
X153742849Y-88945480D01*
X153720671Y-88955970D01*
X153697571Y-88964235D01*
X153673773Y-88970196D01*
X153649504Y-88973796D01*
X153625000Y-88975000D01*
X152375000Y-88975000D01*
X152350496Y-88973796D01*
X152326227Y-88970196D01*
X152302429Y-88964235D01*
X152279329Y-88955970D01*
X152257151Y-88945480D01*
X152236107Y-88932867D01*
X152216402Y-88918253D01*
X152198223Y-88901777D01*
X152181747Y-88883598D01*
X152167133Y-88863893D01*
X152154520Y-88842849D01*
X152144030Y-88820671D01*
X152135765Y-88797571D01*
X152129804Y-88773773D01*
X152126204Y-88749504D01*
X152125000Y-88725000D01*
X152125000Y-87800000D01*
X152126204Y-87775496D01*
X152129804Y-87751227D01*
X152135765Y-87727429D01*
X152144030Y-87704329D01*
X152154520Y-87682151D01*
X152167133Y-87661107D01*
X152181747Y-87641402D01*
X152198223Y-87623223D01*
X152216402Y-87606747D01*
X152236107Y-87592133D01*
X152257151Y-87579520D01*
X152279329Y-87569030D01*
X152302429Y-87560765D01*
X152326227Y-87554804D01*
X152350496Y-87551204D01*
X152375000Y-87550000D01*
X153625000Y-87550000D01*
X153649504Y-87551204D01*
X153649504Y-87551204D01*
G37*
D11*
X153000000Y-88262500D03*
D10*
G36*
X150649504Y-75051204D02*
G01*
X150673773Y-75054804D01*
X150697571Y-75060765D01*
X150720671Y-75069030D01*
X150742849Y-75079520D01*
X150763893Y-75092133D01*
X150783598Y-75106747D01*
X150801777Y-75123223D01*
X150818253Y-75141402D01*
X150832867Y-75161107D01*
X150845480Y-75182151D01*
X150855970Y-75204329D01*
X150864235Y-75227429D01*
X150870196Y-75251227D01*
X150873796Y-75275496D01*
X150875000Y-75300000D01*
X150875000Y-76225000D01*
X150873796Y-76249504D01*
X150870196Y-76273773D01*
X150864235Y-76297571D01*
X150855970Y-76320671D01*
X150845480Y-76342849D01*
X150832867Y-76363893D01*
X150818253Y-76383598D01*
X150801777Y-76401777D01*
X150783598Y-76418253D01*
X150763893Y-76432867D01*
X150742849Y-76445480D01*
X150720671Y-76455970D01*
X150697571Y-76464235D01*
X150673773Y-76470196D01*
X150649504Y-76473796D01*
X150625000Y-76475000D01*
X149375000Y-76475000D01*
X149350496Y-76473796D01*
X149326227Y-76470196D01*
X149302429Y-76464235D01*
X149279329Y-76455970D01*
X149257151Y-76445480D01*
X149236107Y-76432867D01*
X149216402Y-76418253D01*
X149198223Y-76401777D01*
X149181747Y-76383598D01*
X149167133Y-76363893D01*
X149154520Y-76342849D01*
X149144030Y-76320671D01*
X149135765Y-76297571D01*
X149129804Y-76273773D01*
X149126204Y-76249504D01*
X149125000Y-76225000D01*
X149125000Y-75300000D01*
X149126204Y-75275496D01*
X149129804Y-75251227D01*
X149135765Y-75227429D01*
X149144030Y-75204329D01*
X149154520Y-75182151D01*
X149167133Y-75161107D01*
X149181747Y-75141402D01*
X149198223Y-75123223D01*
X149216402Y-75106747D01*
X149236107Y-75092133D01*
X149257151Y-75079520D01*
X149279329Y-75069030D01*
X149302429Y-75060765D01*
X149326227Y-75054804D01*
X149350496Y-75051204D01*
X149375000Y-75050000D01*
X150625000Y-75050000D01*
X150649504Y-75051204D01*
X150649504Y-75051204D01*
G37*
D11*
X150000000Y-75762500D03*
D10*
G36*
X150649504Y-78026204D02*
G01*
X150673773Y-78029804D01*
X150697571Y-78035765D01*
X150720671Y-78044030D01*
X150742849Y-78054520D01*
X150763893Y-78067133D01*
X150783598Y-78081747D01*
X150801777Y-78098223D01*
X150818253Y-78116402D01*
X150832867Y-78136107D01*
X150845480Y-78157151D01*
X150855970Y-78179329D01*
X150864235Y-78202429D01*
X150870196Y-78226227D01*
X150873796Y-78250496D01*
X150875000Y-78275000D01*
X150875000Y-79200000D01*
X150873796Y-79224504D01*
X150870196Y-79248773D01*
X150864235Y-79272571D01*
X150855970Y-79295671D01*
X150845480Y-79317849D01*
X150832867Y-79338893D01*
X150818253Y-79358598D01*
X150801777Y-79376777D01*
X150783598Y-79393253D01*
X150763893Y-79407867D01*
X150742849Y-79420480D01*
X150720671Y-79430970D01*
X150697571Y-79439235D01*
X150673773Y-79445196D01*
X150649504Y-79448796D01*
X150625000Y-79450000D01*
X149375000Y-79450000D01*
X149350496Y-79448796D01*
X149326227Y-79445196D01*
X149302429Y-79439235D01*
X149279329Y-79430970D01*
X149257151Y-79420480D01*
X149236107Y-79407867D01*
X149216402Y-79393253D01*
X149198223Y-79376777D01*
X149181747Y-79358598D01*
X149167133Y-79338893D01*
X149154520Y-79317849D01*
X149144030Y-79295671D01*
X149135765Y-79272571D01*
X149129804Y-79248773D01*
X149126204Y-79224504D01*
X149125000Y-79200000D01*
X149125000Y-78275000D01*
X149126204Y-78250496D01*
X149129804Y-78226227D01*
X149135765Y-78202429D01*
X149144030Y-78179329D01*
X149154520Y-78157151D01*
X149167133Y-78136107D01*
X149181747Y-78116402D01*
X149198223Y-78098223D01*
X149216402Y-78081747D01*
X149236107Y-78067133D01*
X149257151Y-78054520D01*
X149279329Y-78044030D01*
X149302429Y-78035765D01*
X149326227Y-78029804D01*
X149350496Y-78026204D01*
X149375000Y-78025000D01*
X150625000Y-78025000D01*
X150649504Y-78026204D01*
X150649504Y-78026204D01*
G37*
D11*
X150000000Y-78737500D03*
D10*
G36*
X159649504Y-89026204D02*
G01*
X159673773Y-89029804D01*
X159697571Y-89035765D01*
X159720671Y-89044030D01*
X159742849Y-89054520D01*
X159763893Y-89067133D01*
X159783598Y-89081747D01*
X159801777Y-89098223D01*
X159818253Y-89116402D01*
X159832867Y-89136107D01*
X159845480Y-89157151D01*
X159855970Y-89179329D01*
X159864235Y-89202429D01*
X159870196Y-89226227D01*
X159873796Y-89250496D01*
X159875000Y-89275000D01*
X159875000Y-90200000D01*
X159873796Y-90224504D01*
X159870196Y-90248773D01*
X159864235Y-90272571D01*
X159855970Y-90295671D01*
X159845480Y-90317849D01*
X159832867Y-90338893D01*
X159818253Y-90358598D01*
X159801777Y-90376777D01*
X159783598Y-90393253D01*
X159763893Y-90407867D01*
X159742849Y-90420480D01*
X159720671Y-90430970D01*
X159697571Y-90439235D01*
X159673773Y-90445196D01*
X159649504Y-90448796D01*
X159625000Y-90450000D01*
X158375000Y-90450000D01*
X158350496Y-90448796D01*
X158326227Y-90445196D01*
X158302429Y-90439235D01*
X158279329Y-90430970D01*
X158257151Y-90420480D01*
X158236107Y-90407867D01*
X158216402Y-90393253D01*
X158198223Y-90376777D01*
X158181747Y-90358598D01*
X158167133Y-90338893D01*
X158154520Y-90317849D01*
X158144030Y-90295671D01*
X158135765Y-90272571D01*
X158129804Y-90248773D01*
X158126204Y-90224504D01*
X158125000Y-90200000D01*
X158125000Y-89275000D01*
X158126204Y-89250496D01*
X158129804Y-89226227D01*
X158135765Y-89202429D01*
X158144030Y-89179329D01*
X158154520Y-89157151D01*
X158167133Y-89136107D01*
X158181747Y-89116402D01*
X158198223Y-89098223D01*
X158216402Y-89081747D01*
X158236107Y-89067133D01*
X158257151Y-89054520D01*
X158279329Y-89044030D01*
X158302429Y-89035765D01*
X158326227Y-89029804D01*
X158350496Y-89026204D01*
X158375000Y-89025000D01*
X159625000Y-89025000D01*
X159649504Y-89026204D01*
X159649504Y-89026204D01*
G37*
D11*
X159000000Y-89737500D03*
D10*
G36*
X159649504Y-86051204D02*
G01*
X159673773Y-86054804D01*
X159697571Y-86060765D01*
X159720671Y-86069030D01*
X159742849Y-86079520D01*
X159763893Y-86092133D01*
X159783598Y-86106747D01*
X159801777Y-86123223D01*
X159818253Y-86141402D01*
X159832867Y-86161107D01*
X159845480Y-86182151D01*
X159855970Y-86204329D01*
X159864235Y-86227429D01*
X159870196Y-86251227D01*
X159873796Y-86275496D01*
X159875000Y-86300000D01*
X159875000Y-87225000D01*
X159873796Y-87249504D01*
X159870196Y-87273773D01*
X159864235Y-87297571D01*
X159855970Y-87320671D01*
X159845480Y-87342849D01*
X159832867Y-87363893D01*
X159818253Y-87383598D01*
X159801777Y-87401777D01*
X159783598Y-87418253D01*
X159763893Y-87432867D01*
X159742849Y-87445480D01*
X159720671Y-87455970D01*
X159697571Y-87464235D01*
X159673773Y-87470196D01*
X159649504Y-87473796D01*
X159625000Y-87475000D01*
X158375000Y-87475000D01*
X158350496Y-87473796D01*
X158326227Y-87470196D01*
X158302429Y-87464235D01*
X158279329Y-87455970D01*
X158257151Y-87445480D01*
X158236107Y-87432867D01*
X158216402Y-87418253D01*
X158198223Y-87401777D01*
X158181747Y-87383598D01*
X158167133Y-87363893D01*
X158154520Y-87342849D01*
X158144030Y-87320671D01*
X158135765Y-87297571D01*
X158129804Y-87273773D01*
X158126204Y-87249504D01*
X158125000Y-87225000D01*
X158125000Y-86300000D01*
X158126204Y-86275496D01*
X158129804Y-86251227D01*
X158135765Y-86227429D01*
X158144030Y-86204329D01*
X158154520Y-86182151D01*
X158167133Y-86161107D01*
X158181747Y-86141402D01*
X158198223Y-86123223D01*
X158216402Y-86106747D01*
X158236107Y-86092133D01*
X158257151Y-86079520D01*
X158279329Y-86069030D01*
X158302429Y-86060765D01*
X158326227Y-86054804D01*
X158350496Y-86051204D01*
X158375000Y-86050000D01*
X159625000Y-86050000D01*
X159649504Y-86051204D01*
X159649504Y-86051204D01*
G37*
D11*
X159000000Y-86762500D03*
D10*
G36*
X144649504Y-76063704D02*
G01*
X144673773Y-76067304D01*
X144697571Y-76073265D01*
X144720671Y-76081530D01*
X144742849Y-76092020D01*
X144763893Y-76104633D01*
X144783598Y-76119247D01*
X144801777Y-76135723D01*
X144818253Y-76153902D01*
X144832867Y-76173607D01*
X144845480Y-76194651D01*
X144855970Y-76216829D01*
X144864235Y-76239929D01*
X144870196Y-76263727D01*
X144873796Y-76287996D01*
X144875000Y-76312500D01*
X144875000Y-77237500D01*
X144873796Y-77262004D01*
X144870196Y-77286273D01*
X144864235Y-77310071D01*
X144855970Y-77333171D01*
X144845480Y-77355349D01*
X144832867Y-77376393D01*
X144818253Y-77396098D01*
X144801777Y-77414277D01*
X144783598Y-77430753D01*
X144763893Y-77445367D01*
X144742849Y-77457980D01*
X144720671Y-77468470D01*
X144697571Y-77476735D01*
X144673773Y-77482696D01*
X144649504Y-77486296D01*
X144625000Y-77487500D01*
X143375000Y-77487500D01*
X143350496Y-77486296D01*
X143326227Y-77482696D01*
X143302429Y-77476735D01*
X143279329Y-77468470D01*
X143257151Y-77457980D01*
X143236107Y-77445367D01*
X143216402Y-77430753D01*
X143198223Y-77414277D01*
X143181747Y-77396098D01*
X143167133Y-77376393D01*
X143154520Y-77355349D01*
X143144030Y-77333171D01*
X143135765Y-77310071D01*
X143129804Y-77286273D01*
X143126204Y-77262004D01*
X143125000Y-77237500D01*
X143125000Y-76312500D01*
X143126204Y-76287996D01*
X143129804Y-76263727D01*
X143135765Y-76239929D01*
X143144030Y-76216829D01*
X143154520Y-76194651D01*
X143167133Y-76173607D01*
X143181747Y-76153902D01*
X143198223Y-76135723D01*
X143216402Y-76119247D01*
X143236107Y-76104633D01*
X143257151Y-76092020D01*
X143279329Y-76081530D01*
X143302429Y-76073265D01*
X143326227Y-76067304D01*
X143350496Y-76063704D01*
X143375000Y-76062500D01*
X144625000Y-76062500D01*
X144649504Y-76063704D01*
X144649504Y-76063704D01*
G37*
D11*
X144000000Y-76775000D03*
D10*
G36*
X144649504Y-79038704D02*
G01*
X144673773Y-79042304D01*
X144697571Y-79048265D01*
X144720671Y-79056530D01*
X144742849Y-79067020D01*
X144763893Y-79079633D01*
X144783598Y-79094247D01*
X144801777Y-79110723D01*
X144818253Y-79128902D01*
X144832867Y-79148607D01*
X144845480Y-79169651D01*
X144855970Y-79191829D01*
X144864235Y-79214929D01*
X144870196Y-79238727D01*
X144873796Y-79262996D01*
X144875000Y-79287500D01*
X144875000Y-80212500D01*
X144873796Y-80237004D01*
X144870196Y-80261273D01*
X144864235Y-80285071D01*
X144855970Y-80308171D01*
X144845480Y-80330349D01*
X144832867Y-80351393D01*
X144818253Y-80371098D01*
X144801777Y-80389277D01*
X144783598Y-80405753D01*
X144763893Y-80420367D01*
X144742849Y-80432980D01*
X144720671Y-80443470D01*
X144697571Y-80451735D01*
X144673773Y-80457696D01*
X144649504Y-80461296D01*
X144625000Y-80462500D01*
X143375000Y-80462500D01*
X143350496Y-80461296D01*
X143326227Y-80457696D01*
X143302429Y-80451735D01*
X143279329Y-80443470D01*
X143257151Y-80432980D01*
X143236107Y-80420367D01*
X143216402Y-80405753D01*
X143198223Y-80389277D01*
X143181747Y-80371098D01*
X143167133Y-80351393D01*
X143154520Y-80330349D01*
X143144030Y-80308171D01*
X143135765Y-80285071D01*
X143129804Y-80261273D01*
X143126204Y-80237004D01*
X143125000Y-80212500D01*
X143125000Y-79287500D01*
X143126204Y-79262996D01*
X143129804Y-79238727D01*
X143135765Y-79214929D01*
X143144030Y-79191829D01*
X143154520Y-79169651D01*
X143167133Y-79148607D01*
X143181747Y-79128902D01*
X143198223Y-79110723D01*
X143216402Y-79094247D01*
X143236107Y-79079633D01*
X143257151Y-79067020D01*
X143279329Y-79056530D01*
X143302429Y-79048265D01*
X143326227Y-79042304D01*
X143350496Y-79038704D01*
X143375000Y-79037500D01*
X144625000Y-79037500D01*
X144649504Y-79038704D01*
X144649504Y-79038704D01*
G37*
D11*
X144000000Y-79750000D03*
D10*
G36*
X156649504Y-90526204D02*
G01*
X156673773Y-90529804D01*
X156697571Y-90535765D01*
X156720671Y-90544030D01*
X156742849Y-90554520D01*
X156763893Y-90567133D01*
X156783598Y-90581747D01*
X156801777Y-90598223D01*
X156818253Y-90616402D01*
X156832867Y-90636107D01*
X156845480Y-90657151D01*
X156855970Y-90679329D01*
X156864235Y-90702429D01*
X156870196Y-90726227D01*
X156873796Y-90750496D01*
X156875000Y-90775000D01*
X156875000Y-91700000D01*
X156873796Y-91724504D01*
X156870196Y-91748773D01*
X156864235Y-91772571D01*
X156855970Y-91795671D01*
X156845480Y-91817849D01*
X156832867Y-91838893D01*
X156818253Y-91858598D01*
X156801777Y-91876777D01*
X156783598Y-91893253D01*
X156763893Y-91907867D01*
X156742849Y-91920480D01*
X156720671Y-91930970D01*
X156697571Y-91939235D01*
X156673773Y-91945196D01*
X156649504Y-91948796D01*
X156625000Y-91950000D01*
X155375000Y-91950000D01*
X155350496Y-91948796D01*
X155326227Y-91945196D01*
X155302429Y-91939235D01*
X155279329Y-91930970D01*
X155257151Y-91920480D01*
X155236107Y-91907867D01*
X155216402Y-91893253D01*
X155198223Y-91876777D01*
X155181747Y-91858598D01*
X155167133Y-91838893D01*
X155154520Y-91817849D01*
X155144030Y-91795671D01*
X155135765Y-91772571D01*
X155129804Y-91748773D01*
X155126204Y-91724504D01*
X155125000Y-91700000D01*
X155125000Y-90775000D01*
X155126204Y-90750496D01*
X155129804Y-90726227D01*
X155135765Y-90702429D01*
X155144030Y-90679329D01*
X155154520Y-90657151D01*
X155167133Y-90636107D01*
X155181747Y-90616402D01*
X155198223Y-90598223D01*
X155216402Y-90581747D01*
X155236107Y-90567133D01*
X155257151Y-90554520D01*
X155279329Y-90544030D01*
X155302429Y-90535765D01*
X155326227Y-90529804D01*
X155350496Y-90526204D01*
X155375000Y-90525000D01*
X156625000Y-90525000D01*
X156649504Y-90526204D01*
X156649504Y-90526204D01*
G37*
D11*
X156000000Y-91237500D03*
D10*
G36*
X156649504Y-87551204D02*
G01*
X156673773Y-87554804D01*
X156697571Y-87560765D01*
X156720671Y-87569030D01*
X156742849Y-87579520D01*
X156763893Y-87592133D01*
X156783598Y-87606747D01*
X156801777Y-87623223D01*
X156818253Y-87641402D01*
X156832867Y-87661107D01*
X156845480Y-87682151D01*
X156855970Y-87704329D01*
X156864235Y-87727429D01*
X156870196Y-87751227D01*
X156873796Y-87775496D01*
X156875000Y-87800000D01*
X156875000Y-88725000D01*
X156873796Y-88749504D01*
X156870196Y-88773773D01*
X156864235Y-88797571D01*
X156855970Y-88820671D01*
X156845480Y-88842849D01*
X156832867Y-88863893D01*
X156818253Y-88883598D01*
X156801777Y-88901777D01*
X156783598Y-88918253D01*
X156763893Y-88932867D01*
X156742849Y-88945480D01*
X156720671Y-88955970D01*
X156697571Y-88964235D01*
X156673773Y-88970196D01*
X156649504Y-88973796D01*
X156625000Y-88975000D01*
X155375000Y-88975000D01*
X155350496Y-88973796D01*
X155326227Y-88970196D01*
X155302429Y-88964235D01*
X155279329Y-88955970D01*
X155257151Y-88945480D01*
X155236107Y-88932867D01*
X155216402Y-88918253D01*
X155198223Y-88901777D01*
X155181747Y-88883598D01*
X155167133Y-88863893D01*
X155154520Y-88842849D01*
X155144030Y-88820671D01*
X155135765Y-88797571D01*
X155129804Y-88773773D01*
X155126204Y-88749504D01*
X155125000Y-88725000D01*
X155125000Y-87800000D01*
X155126204Y-87775496D01*
X155129804Y-87751227D01*
X155135765Y-87727429D01*
X155144030Y-87704329D01*
X155154520Y-87682151D01*
X155167133Y-87661107D01*
X155181747Y-87641402D01*
X155198223Y-87623223D01*
X155216402Y-87606747D01*
X155236107Y-87592133D01*
X155257151Y-87579520D01*
X155279329Y-87569030D01*
X155302429Y-87560765D01*
X155326227Y-87554804D01*
X155350496Y-87551204D01*
X155375000Y-87550000D01*
X156625000Y-87550000D01*
X156649504Y-87551204D01*
X156649504Y-87551204D01*
G37*
D11*
X156000000Y-88262500D03*
D10*
G36*
X147649504Y-78026204D02*
G01*
X147673773Y-78029804D01*
X147697571Y-78035765D01*
X147720671Y-78044030D01*
X147742849Y-78054520D01*
X147763893Y-78067133D01*
X147783598Y-78081747D01*
X147801777Y-78098223D01*
X147818253Y-78116402D01*
X147832867Y-78136107D01*
X147845480Y-78157151D01*
X147855970Y-78179329D01*
X147864235Y-78202429D01*
X147870196Y-78226227D01*
X147873796Y-78250496D01*
X147875000Y-78275000D01*
X147875000Y-79200000D01*
X147873796Y-79224504D01*
X147870196Y-79248773D01*
X147864235Y-79272571D01*
X147855970Y-79295671D01*
X147845480Y-79317849D01*
X147832867Y-79338893D01*
X147818253Y-79358598D01*
X147801777Y-79376777D01*
X147783598Y-79393253D01*
X147763893Y-79407867D01*
X147742849Y-79420480D01*
X147720671Y-79430970D01*
X147697571Y-79439235D01*
X147673773Y-79445196D01*
X147649504Y-79448796D01*
X147625000Y-79450000D01*
X146375000Y-79450000D01*
X146350496Y-79448796D01*
X146326227Y-79445196D01*
X146302429Y-79439235D01*
X146279329Y-79430970D01*
X146257151Y-79420480D01*
X146236107Y-79407867D01*
X146216402Y-79393253D01*
X146198223Y-79376777D01*
X146181747Y-79358598D01*
X146167133Y-79338893D01*
X146154520Y-79317849D01*
X146144030Y-79295671D01*
X146135765Y-79272571D01*
X146129804Y-79248773D01*
X146126204Y-79224504D01*
X146125000Y-79200000D01*
X146125000Y-78275000D01*
X146126204Y-78250496D01*
X146129804Y-78226227D01*
X146135765Y-78202429D01*
X146144030Y-78179329D01*
X146154520Y-78157151D01*
X146167133Y-78136107D01*
X146181747Y-78116402D01*
X146198223Y-78098223D01*
X146216402Y-78081747D01*
X146236107Y-78067133D01*
X146257151Y-78054520D01*
X146279329Y-78044030D01*
X146302429Y-78035765D01*
X146326227Y-78029804D01*
X146350496Y-78026204D01*
X146375000Y-78025000D01*
X147625000Y-78025000D01*
X147649504Y-78026204D01*
X147649504Y-78026204D01*
G37*
D11*
X147000000Y-78737500D03*
D10*
G36*
X147649504Y-75051204D02*
G01*
X147673773Y-75054804D01*
X147697571Y-75060765D01*
X147720671Y-75069030D01*
X147742849Y-75079520D01*
X147763893Y-75092133D01*
X147783598Y-75106747D01*
X147801777Y-75123223D01*
X147818253Y-75141402D01*
X147832867Y-75161107D01*
X147845480Y-75182151D01*
X147855970Y-75204329D01*
X147864235Y-75227429D01*
X147870196Y-75251227D01*
X147873796Y-75275496D01*
X147875000Y-75300000D01*
X147875000Y-76225000D01*
X147873796Y-76249504D01*
X147870196Y-76273773D01*
X147864235Y-76297571D01*
X147855970Y-76320671D01*
X147845480Y-76342849D01*
X147832867Y-76363893D01*
X147818253Y-76383598D01*
X147801777Y-76401777D01*
X147783598Y-76418253D01*
X147763893Y-76432867D01*
X147742849Y-76445480D01*
X147720671Y-76455970D01*
X147697571Y-76464235D01*
X147673773Y-76470196D01*
X147649504Y-76473796D01*
X147625000Y-76475000D01*
X146375000Y-76475000D01*
X146350496Y-76473796D01*
X146326227Y-76470196D01*
X146302429Y-76464235D01*
X146279329Y-76455970D01*
X146257151Y-76445480D01*
X146236107Y-76432867D01*
X146216402Y-76418253D01*
X146198223Y-76401777D01*
X146181747Y-76383598D01*
X146167133Y-76363893D01*
X146154520Y-76342849D01*
X146144030Y-76320671D01*
X146135765Y-76297571D01*
X146129804Y-76273773D01*
X146126204Y-76249504D01*
X146125000Y-76225000D01*
X146125000Y-75300000D01*
X146126204Y-75275496D01*
X146129804Y-75251227D01*
X146135765Y-75227429D01*
X146144030Y-75204329D01*
X146154520Y-75182151D01*
X146167133Y-75161107D01*
X146181747Y-75141402D01*
X146198223Y-75123223D01*
X146216402Y-75106747D01*
X146236107Y-75092133D01*
X146257151Y-75079520D01*
X146279329Y-75069030D01*
X146302429Y-75060765D01*
X146326227Y-75054804D01*
X146350496Y-75051204D01*
X146375000Y-75050000D01*
X147625000Y-75050000D01*
X147649504Y-75051204D01*
X147649504Y-75051204D01*
G37*
D11*
X147000000Y-75762500D03*
D10*
G36*
X154149504Y-78026204D02*
G01*
X154173773Y-78029804D01*
X154197571Y-78035765D01*
X154220671Y-78044030D01*
X154242849Y-78054520D01*
X154263893Y-78067133D01*
X154283598Y-78081747D01*
X154301777Y-78098223D01*
X154318253Y-78116402D01*
X154332867Y-78136107D01*
X154345480Y-78157151D01*
X154355970Y-78179329D01*
X154364235Y-78202429D01*
X154370196Y-78226227D01*
X154373796Y-78250496D01*
X154375000Y-78275000D01*
X154375000Y-79200000D01*
X154373796Y-79224504D01*
X154370196Y-79248773D01*
X154364235Y-79272571D01*
X154355970Y-79295671D01*
X154345480Y-79317849D01*
X154332867Y-79338893D01*
X154318253Y-79358598D01*
X154301777Y-79376777D01*
X154283598Y-79393253D01*
X154263893Y-79407867D01*
X154242849Y-79420480D01*
X154220671Y-79430970D01*
X154197571Y-79439235D01*
X154173773Y-79445196D01*
X154149504Y-79448796D01*
X154125000Y-79450000D01*
X152875000Y-79450000D01*
X152850496Y-79448796D01*
X152826227Y-79445196D01*
X152802429Y-79439235D01*
X152779329Y-79430970D01*
X152757151Y-79420480D01*
X152736107Y-79407867D01*
X152716402Y-79393253D01*
X152698223Y-79376777D01*
X152681747Y-79358598D01*
X152667133Y-79338893D01*
X152654520Y-79317849D01*
X152644030Y-79295671D01*
X152635765Y-79272571D01*
X152629804Y-79248773D01*
X152626204Y-79224504D01*
X152625000Y-79200000D01*
X152625000Y-78275000D01*
X152626204Y-78250496D01*
X152629804Y-78226227D01*
X152635765Y-78202429D01*
X152644030Y-78179329D01*
X152654520Y-78157151D01*
X152667133Y-78136107D01*
X152681747Y-78116402D01*
X152698223Y-78098223D01*
X152716402Y-78081747D01*
X152736107Y-78067133D01*
X152757151Y-78054520D01*
X152779329Y-78044030D01*
X152802429Y-78035765D01*
X152826227Y-78029804D01*
X152850496Y-78026204D01*
X152875000Y-78025000D01*
X154125000Y-78025000D01*
X154149504Y-78026204D01*
X154149504Y-78026204D01*
G37*
D11*
X153500000Y-78737500D03*
D10*
G36*
X154149504Y-75051204D02*
G01*
X154173773Y-75054804D01*
X154197571Y-75060765D01*
X154220671Y-75069030D01*
X154242849Y-75079520D01*
X154263893Y-75092133D01*
X154283598Y-75106747D01*
X154301777Y-75123223D01*
X154318253Y-75141402D01*
X154332867Y-75161107D01*
X154345480Y-75182151D01*
X154355970Y-75204329D01*
X154364235Y-75227429D01*
X154370196Y-75251227D01*
X154373796Y-75275496D01*
X154375000Y-75300000D01*
X154375000Y-76225000D01*
X154373796Y-76249504D01*
X154370196Y-76273773D01*
X154364235Y-76297571D01*
X154355970Y-76320671D01*
X154345480Y-76342849D01*
X154332867Y-76363893D01*
X154318253Y-76383598D01*
X154301777Y-76401777D01*
X154283598Y-76418253D01*
X154263893Y-76432867D01*
X154242849Y-76445480D01*
X154220671Y-76455970D01*
X154197571Y-76464235D01*
X154173773Y-76470196D01*
X154149504Y-76473796D01*
X154125000Y-76475000D01*
X152875000Y-76475000D01*
X152850496Y-76473796D01*
X152826227Y-76470196D01*
X152802429Y-76464235D01*
X152779329Y-76455970D01*
X152757151Y-76445480D01*
X152736107Y-76432867D01*
X152716402Y-76418253D01*
X152698223Y-76401777D01*
X152681747Y-76383598D01*
X152667133Y-76363893D01*
X152654520Y-76342849D01*
X152644030Y-76320671D01*
X152635765Y-76297571D01*
X152629804Y-76273773D01*
X152626204Y-76249504D01*
X152625000Y-76225000D01*
X152625000Y-75300000D01*
X152626204Y-75275496D01*
X152629804Y-75251227D01*
X152635765Y-75227429D01*
X152644030Y-75204329D01*
X152654520Y-75182151D01*
X152667133Y-75161107D01*
X152681747Y-75141402D01*
X152698223Y-75123223D01*
X152716402Y-75106747D01*
X152736107Y-75092133D01*
X152757151Y-75079520D01*
X152779329Y-75069030D01*
X152802429Y-75060765D01*
X152826227Y-75054804D01*
X152850496Y-75051204D01*
X152875000Y-75050000D01*
X154125000Y-75050000D01*
X154149504Y-75051204D01*
X154149504Y-75051204D01*
G37*
D11*
X153500000Y-75762500D03*
D10*
G36*
X150649504Y-87551204D02*
G01*
X150673773Y-87554804D01*
X150697571Y-87560765D01*
X150720671Y-87569030D01*
X150742849Y-87579520D01*
X150763893Y-87592133D01*
X150783598Y-87606747D01*
X150801777Y-87623223D01*
X150818253Y-87641402D01*
X150832867Y-87661107D01*
X150845480Y-87682151D01*
X150855970Y-87704329D01*
X150864235Y-87727429D01*
X150870196Y-87751227D01*
X150873796Y-87775496D01*
X150875000Y-87800000D01*
X150875000Y-88725000D01*
X150873796Y-88749504D01*
X150870196Y-88773773D01*
X150864235Y-88797571D01*
X150855970Y-88820671D01*
X150845480Y-88842849D01*
X150832867Y-88863893D01*
X150818253Y-88883598D01*
X150801777Y-88901777D01*
X150783598Y-88918253D01*
X150763893Y-88932867D01*
X150742849Y-88945480D01*
X150720671Y-88955970D01*
X150697571Y-88964235D01*
X150673773Y-88970196D01*
X150649504Y-88973796D01*
X150625000Y-88975000D01*
X149375000Y-88975000D01*
X149350496Y-88973796D01*
X149326227Y-88970196D01*
X149302429Y-88964235D01*
X149279329Y-88955970D01*
X149257151Y-88945480D01*
X149236107Y-88932867D01*
X149216402Y-88918253D01*
X149198223Y-88901777D01*
X149181747Y-88883598D01*
X149167133Y-88863893D01*
X149154520Y-88842849D01*
X149144030Y-88820671D01*
X149135765Y-88797571D01*
X149129804Y-88773773D01*
X149126204Y-88749504D01*
X149125000Y-88725000D01*
X149125000Y-87800000D01*
X149126204Y-87775496D01*
X149129804Y-87751227D01*
X149135765Y-87727429D01*
X149144030Y-87704329D01*
X149154520Y-87682151D01*
X149167133Y-87661107D01*
X149181747Y-87641402D01*
X149198223Y-87623223D01*
X149216402Y-87606747D01*
X149236107Y-87592133D01*
X149257151Y-87579520D01*
X149279329Y-87569030D01*
X149302429Y-87560765D01*
X149326227Y-87554804D01*
X149350496Y-87551204D01*
X149375000Y-87550000D01*
X150625000Y-87550000D01*
X150649504Y-87551204D01*
X150649504Y-87551204D01*
G37*
D11*
X150000000Y-88262500D03*
D10*
G36*
X150649504Y-90526204D02*
G01*
X150673773Y-90529804D01*
X150697571Y-90535765D01*
X150720671Y-90544030D01*
X150742849Y-90554520D01*
X150763893Y-90567133D01*
X150783598Y-90581747D01*
X150801777Y-90598223D01*
X150818253Y-90616402D01*
X150832867Y-90636107D01*
X150845480Y-90657151D01*
X150855970Y-90679329D01*
X150864235Y-90702429D01*
X150870196Y-90726227D01*
X150873796Y-90750496D01*
X150875000Y-90775000D01*
X150875000Y-91700000D01*
X150873796Y-91724504D01*
X150870196Y-91748773D01*
X150864235Y-91772571D01*
X150855970Y-91795671D01*
X150845480Y-91817849D01*
X150832867Y-91838893D01*
X150818253Y-91858598D01*
X150801777Y-91876777D01*
X150783598Y-91893253D01*
X150763893Y-91907867D01*
X150742849Y-91920480D01*
X150720671Y-91930970D01*
X150697571Y-91939235D01*
X150673773Y-91945196D01*
X150649504Y-91948796D01*
X150625000Y-91950000D01*
X149375000Y-91950000D01*
X149350496Y-91948796D01*
X149326227Y-91945196D01*
X149302429Y-91939235D01*
X149279329Y-91930970D01*
X149257151Y-91920480D01*
X149236107Y-91907867D01*
X149216402Y-91893253D01*
X149198223Y-91876777D01*
X149181747Y-91858598D01*
X149167133Y-91838893D01*
X149154520Y-91817849D01*
X149144030Y-91795671D01*
X149135765Y-91772571D01*
X149129804Y-91748773D01*
X149126204Y-91724504D01*
X149125000Y-91700000D01*
X149125000Y-90775000D01*
X149126204Y-90750496D01*
X149129804Y-90726227D01*
X149135765Y-90702429D01*
X149144030Y-90679329D01*
X149154520Y-90657151D01*
X149167133Y-90636107D01*
X149181747Y-90616402D01*
X149198223Y-90598223D01*
X149216402Y-90581747D01*
X149236107Y-90567133D01*
X149257151Y-90554520D01*
X149279329Y-90544030D01*
X149302429Y-90535765D01*
X149326227Y-90529804D01*
X149350496Y-90526204D01*
X149375000Y-90525000D01*
X150625000Y-90525000D01*
X150649504Y-90526204D01*
X150649504Y-90526204D01*
G37*
D11*
X150000000Y-91237500D03*
D10*
G36*
X160149504Y-79026204D02*
G01*
X160173773Y-79029804D01*
X160197571Y-79035765D01*
X160220671Y-79044030D01*
X160242849Y-79054520D01*
X160263893Y-79067133D01*
X160283598Y-79081747D01*
X160301777Y-79098223D01*
X160318253Y-79116402D01*
X160332867Y-79136107D01*
X160345480Y-79157151D01*
X160355970Y-79179329D01*
X160364235Y-79202429D01*
X160370196Y-79226227D01*
X160373796Y-79250496D01*
X160375000Y-79275000D01*
X160375000Y-80200000D01*
X160373796Y-80224504D01*
X160370196Y-80248773D01*
X160364235Y-80272571D01*
X160355970Y-80295671D01*
X160345480Y-80317849D01*
X160332867Y-80338893D01*
X160318253Y-80358598D01*
X160301777Y-80376777D01*
X160283598Y-80393253D01*
X160263893Y-80407867D01*
X160242849Y-80420480D01*
X160220671Y-80430970D01*
X160197571Y-80439235D01*
X160173773Y-80445196D01*
X160149504Y-80448796D01*
X160125000Y-80450000D01*
X158875000Y-80450000D01*
X158850496Y-80448796D01*
X158826227Y-80445196D01*
X158802429Y-80439235D01*
X158779329Y-80430970D01*
X158757151Y-80420480D01*
X158736107Y-80407867D01*
X158716402Y-80393253D01*
X158698223Y-80376777D01*
X158681747Y-80358598D01*
X158667133Y-80338893D01*
X158654520Y-80317849D01*
X158644030Y-80295671D01*
X158635765Y-80272571D01*
X158629804Y-80248773D01*
X158626204Y-80224504D01*
X158625000Y-80200000D01*
X158625000Y-79275000D01*
X158626204Y-79250496D01*
X158629804Y-79226227D01*
X158635765Y-79202429D01*
X158644030Y-79179329D01*
X158654520Y-79157151D01*
X158667133Y-79136107D01*
X158681747Y-79116402D01*
X158698223Y-79098223D01*
X158716402Y-79081747D01*
X158736107Y-79067133D01*
X158757151Y-79054520D01*
X158779329Y-79044030D01*
X158802429Y-79035765D01*
X158826227Y-79029804D01*
X158850496Y-79026204D01*
X158875000Y-79025000D01*
X160125000Y-79025000D01*
X160149504Y-79026204D01*
X160149504Y-79026204D01*
G37*
D11*
X159500000Y-79737500D03*
D10*
G36*
X160149504Y-76051204D02*
G01*
X160173773Y-76054804D01*
X160197571Y-76060765D01*
X160220671Y-76069030D01*
X160242849Y-76079520D01*
X160263893Y-76092133D01*
X160283598Y-76106747D01*
X160301777Y-76123223D01*
X160318253Y-76141402D01*
X160332867Y-76161107D01*
X160345480Y-76182151D01*
X160355970Y-76204329D01*
X160364235Y-76227429D01*
X160370196Y-76251227D01*
X160373796Y-76275496D01*
X160375000Y-76300000D01*
X160375000Y-77225000D01*
X160373796Y-77249504D01*
X160370196Y-77273773D01*
X160364235Y-77297571D01*
X160355970Y-77320671D01*
X160345480Y-77342849D01*
X160332867Y-77363893D01*
X160318253Y-77383598D01*
X160301777Y-77401777D01*
X160283598Y-77418253D01*
X160263893Y-77432867D01*
X160242849Y-77445480D01*
X160220671Y-77455970D01*
X160197571Y-77464235D01*
X160173773Y-77470196D01*
X160149504Y-77473796D01*
X160125000Y-77475000D01*
X158875000Y-77475000D01*
X158850496Y-77473796D01*
X158826227Y-77470196D01*
X158802429Y-77464235D01*
X158779329Y-77455970D01*
X158757151Y-77445480D01*
X158736107Y-77432867D01*
X158716402Y-77418253D01*
X158698223Y-77401777D01*
X158681747Y-77383598D01*
X158667133Y-77363893D01*
X158654520Y-77342849D01*
X158644030Y-77320671D01*
X158635765Y-77297571D01*
X158629804Y-77273773D01*
X158626204Y-77249504D01*
X158625000Y-77225000D01*
X158625000Y-76300000D01*
X158626204Y-76275496D01*
X158629804Y-76251227D01*
X158635765Y-76227429D01*
X158644030Y-76204329D01*
X158654520Y-76182151D01*
X158667133Y-76161107D01*
X158681747Y-76141402D01*
X158698223Y-76123223D01*
X158716402Y-76106747D01*
X158736107Y-76092133D01*
X158757151Y-76079520D01*
X158779329Y-76069030D01*
X158802429Y-76060765D01*
X158826227Y-76054804D01*
X158850496Y-76051204D01*
X158875000Y-76050000D01*
X160125000Y-76050000D01*
X160149504Y-76051204D01*
X160149504Y-76051204D01*
G37*
D11*
X159500000Y-76762500D03*
D10*
G36*
X144649504Y-86051204D02*
G01*
X144673773Y-86054804D01*
X144697571Y-86060765D01*
X144720671Y-86069030D01*
X144742849Y-86079520D01*
X144763893Y-86092133D01*
X144783598Y-86106747D01*
X144801777Y-86123223D01*
X144818253Y-86141402D01*
X144832867Y-86161107D01*
X144845480Y-86182151D01*
X144855970Y-86204329D01*
X144864235Y-86227429D01*
X144870196Y-86251227D01*
X144873796Y-86275496D01*
X144875000Y-86300000D01*
X144875000Y-87225000D01*
X144873796Y-87249504D01*
X144870196Y-87273773D01*
X144864235Y-87297571D01*
X144855970Y-87320671D01*
X144845480Y-87342849D01*
X144832867Y-87363893D01*
X144818253Y-87383598D01*
X144801777Y-87401777D01*
X144783598Y-87418253D01*
X144763893Y-87432867D01*
X144742849Y-87445480D01*
X144720671Y-87455970D01*
X144697571Y-87464235D01*
X144673773Y-87470196D01*
X144649504Y-87473796D01*
X144625000Y-87475000D01*
X143375000Y-87475000D01*
X143350496Y-87473796D01*
X143326227Y-87470196D01*
X143302429Y-87464235D01*
X143279329Y-87455970D01*
X143257151Y-87445480D01*
X143236107Y-87432867D01*
X143216402Y-87418253D01*
X143198223Y-87401777D01*
X143181747Y-87383598D01*
X143167133Y-87363893D01*
X143154520Y-87342849D01*
X143144030Y-87320671D01*
X143135765Y-87297571D01*
X143129804Y-87273773D01*
X143126204Y-87249504D01*
X143125000Y-87225000D01*
X143125000Y-86300000D01*
X143126204Y-86275496D01*
X143129804Y-86251227D01*
X143135765Y-86227429D01*
X143144030Y-86204329D01*
X143154520Y-86182151D01*
X143167133Y-86161107D01*
X143181747Y-86141402D01*
X143198223Y-86123223D01*
X143216402Y-86106747D01*
X143236107Y-86092133D01*
X143257151Y-86079520D01*
X143279329Y-86069030D01*
X143302429Y-86060765D01*
X143326227Y-86054804D01*
X143350496Y-86051204D01*
X143375000Y-86050000D01*
X144625000Y-86050000D01*
X144649504Y-86051204D01*
X144649504Y-86051204D01*
G37*
D11*
X144000000Y-86762500D03*
D10*
G36*
X144649504Y-89026204D02*
G01*
X144673773Y-89029804D01*
X144697571Y-89035765D01*
X144720671Y-89044030D01*
X144742849Y-89054520D01*
X144763893Y-89067133D01*
X144783598Y-89081747D01*
X144801777Y-89098223D01*
X144818253Y-89116402D01*
X144832867Y-89136107D01*
X144845480Y-89157151D01*
X144855970Y-89179329D01*
X144864235Y-89202429D01*
X144870196Y-89226227D01*
X144873796Y-89250496D01*
X144875000Y-89275000D01*
X144875000Y-90200000D01*
X144873796Y-90224504D01*
X144870196Y-90248773D01*
X144864235Y-90272571D01*
X144855970Y-90295671D01*
X144845480Y-90317849D01*
X144832867Y-90338893D01*
X144818253Y-90358598D01*
X144801777Y-90376777D01*
X144783598Y-90393253D01*
X144763893Y-90407867D01*
X144742849Y-90420480D01*
X144720671Y-90430970D01*
X144697571Y-90439235D01*
X144673773Y-90445196D01*
X144649504Y-90448796D01*
X144625000Y-90450000D01*
X143375000Y-90450000D01*
X143350496Y-90448796D01*
X143326227Y-90445196D01*
X143302429Y-90439235D01*
X143279329Y-90430970D01*
X143257151Y-90420480D01*
X143236107Y-90407867D01*
X143216402Y-90393253D01*
X143198223Y-90376777D01*
X143181747Y-90358598D01*
X143167133Y-90338893D01*
X143154520Y-90317849D01*
X143144030Y-90295671D01*
X143135765Y-90272571D01*
X143129804Y-90248773D01*
X143126204Y-90224504D01*
X143125000Y-90200000D01*
X143125000Y-89275000D01*
X143126204Y-89250496D01*
X143129804Y-89226227D01*
X143135765Y-89202429D01*
X143144030Y-89179329D01*
X143154520Y-89157151D01*
X143167133Y-89136107D01*
X143181747Y-89116402D01*
X143198223Y-89098223D01*
X143216402Y-89081747D01*
X143236107Y-89067133D01*
X143257151Y-89054520D01*
X143279329Y-89044030D01*
X143302429Y-89035765D01*
X143326227Y-89029804D01*
X143350496Y-89026204D01*
X143375000Y-89025000D01*
X144625000Y-89025000D01*
X144649504Y-89026204D01*
X144649504Y-89026204D01*
G37*
D11*
X144000000Y-89737500D03*
D10*
G36*
X157149504Y-78026204D02*
G01*
X157173773Y-78029804D01*
X157197571Y-78035765D01*
X157220671Y-78044030D01*
X157242849Y-78054520D01*
X157263893Y-78067133D01*
X157283598Y-78081747D01*
X157301777Y-78098223D01*
X157318253Y-78116402D01*
X157332867Y-78136107D01*
X157345480Y-78157151D01*
X157355970Y-78179329D01*
X157364235Y-78202429D01*
X157370196Y-78226227D01*
X157373796Y-78250496D01*
X157375000Y-78275000D01*
X157375000Y-79200000D01*
X157373796Y-79224504D01*
X157370196Y-79248773D01*
X157364235Y-79272571D01*
X157355970Y-79295671D01*
X157345480Y-79317849D01*
X157332867Y-79338893D01*
X157318253Y-79358598D01*
X157301777Y-79376777D01*
X157283598Y-79393253D01*
X157263893Y-79407867D01*
X157242849Y-79420480D01*
X157220671Y-79430970D01*
X157197571Y-79439235D01*
X157173773Y-79445196D01*
X157149504Y-79448796D01*
X157125000Y-79450000D01*
X155875000Y-79450000D01*
X155850496Y-79448796D01*
X155826227Y-79445196D01*
X155802429Y-79439235D01*
X155779329Y-79430970D01*
X155757151Y-79420480D01*
X155736107Y-79407867D01*
X155716402Y-79393253D01*
X155698223Y-79376777D01*
X155681747Y-79358598D01*
X155667133Y-79338893D01*
X155654520Y-79317849D01*
X155644030Y-79295671D01*
X155635765Y-79272571D01*
X155629804Y-79248773D01*
X155626204Y-79224504D01*
X155625000Y-79200000D01*
X155625000Y-78275000D01*
X155626204Y-78250496D01*
X155629804Y-78226227D01*
X155635765Y-78202429D01*
X155644030Y-78179329D01*
X155654520Y-78157151D01*
X155667133Y-78136107D01*
X155681747Y-78116402D01*
X155698223Y-78098223D01*
X155716402Y-78081747D01*
X155736107Y-78067133D01*
X155757151Y-78054520D01*
X155779329Y-78044030D01*
X155802429Y-78035765D01*
X155826227Y-78029804D01*
X155850496Y-78026204D01*
X155875000Y-78025000D01*
X157125000Y-78025000D01*
X157149504Y-78026204D01*
X157149504Y-78026204D01*
G37*
D11*
X156500000Y-78737500D03*
D10*
G36*
X157149504Y-75051204D02*
G01*
X157173773Y-75054804D01*
X157197571Y-75060765D01*
X157220671Y-75069030D01*
X157242849Y-75079520D01*
X157263893Y-75092133D01*
X157283598Y-75106747D01*
X157301777Y-75123223D01*
X157318253Y-75141402D01*
X157332867Y-75161107D01*
X157345480Y-75182151D01*
X157355970Y-75204329D01*
X157364235Y-75227429D01*
X157370196Y-75251227D01*
X157373796Y-75275496D01*
X157375000Y-75300000D01*
X157375000Y-76225000D01*
X157373796Y-76249504D01*
X157370196Y-76273773D01*
X157364235Y-76297571D01*
X157355970Y-76320671D01*
X157345480Y-76342849D01*
X157332867Y-76363893D01*
X157318253Y-76383598D01*
X157301777Y-76401777D01*
X157283598Y-76418253D01*
X157263893Y-76432867D01*
X157242849Y-76445480D01*
X157220671Y-76455970D01*
X157197571Y-76464235D01*
X157173773Y-76470196D01*
X157149504Y-76473796D01*
X157125000Y-76475000D01*
X155875000Y-76475000D01*
X155850496Y-76473796D01*
X155826227Y-76470196D01*
X155802429Y-76464235D01*
X155779329Y-76455970D01*
X155757151Y-76445480D01*
X155736107Y-76432867D01*
X155716402Y-76418253D01*
X155698223Y-76401777D01*
X155681747Y-76383598D01*
X155667133Y-76363893D01*
X155654520Y-76342849D01*
X155644030Y-76320671D01*
X155635765Y-76297571D01*
X155629804Y-76273773D01*
X155626204Y-76249504D01*
X155625000Y-76225000D01*
X155625000Y-75300000D01*
X155626204Y-75275496D01*
X155629804Y-75251227D01*
X155635765Y-75227429D01*
X155644030Y-75204329D01*
X155654520Y-75182151D01*
X155667133Y-75161107D01*
X155681747Y-75141402D01*
X155698223Y-75123223D01*
X155716402Y-75106747D01*
X155736107Y-75092133D01*
X155757151Y-75079520D01*
X155779329Y-75069030D01*
X155802429Y-75060765D01*
X155826227Y-75054804D01*
X155850496Y-75051204D01*
X155875000Y-75050000D01*
X157125000Y-75050000D01*
X157149504Y-75051204D01*
X157149504Y-75051204D01*
G37*
D11*
X156500000Y-75762500D03*
D10*
G36*
X147649504Y-87551204D02*
G01*
X147673773Y-87554804D01*
X147697571Y-87560765D01*
X147720671Y-87569030D01*
X147742849Y-87579520D01*
X147763893Y-87592133D01*
X147783598Y-87606747D01*
X147801777Y-87623223D01*
X147818253Y-87641402D01*
X147832867Y-87661107D01*
X147845480Y-87682151D01*
X147855970Y-87704329D01*
X147864235Y-87727429D01*
X147870196Y-87751227D01*
X147873796Y-87775496D01*
X147875000Y-87800000D01*
X147875000Y-88725000D01*
X147873796Y-88749504D01*
X147870196Y-88773773D01*
X147864235Y-88797571D01*
X147855970Y-88820671D01*
X147845480Y-88842849D01*
X147832867Y-88863893D01*
X147818253Y-88883598D01*
X147801777Y-88901777D01*
X147783598Y-88918253D01*
X147763893Y-88932867D01*
X147742849Y-88945480D01*
X147720671Y-88955970D01*
X147697571Y-88964235D01*
X147673773Y-88970196D01*
X147649504Y-88973796D01*
X147625000Y-88975000D01*
X146375000Y-88975000D01*
X146350496Y-88973796D01*
X146326227Y-88970196D01*
X146302429Y-88964235D01*
X146279329Y-88955970D01*
X146257151Y-88945480D01*
X146236107Y-88932867D01*
X146216402Y-88918253D01*
X146198223Y-88901777D01*
X146181747Y-88883598D01*
X146167133Y-88863893D01*
X146154520Y-88842849D01*
X146144030Y-88820671D01*
X146135765Y-88797571D01*
X146129804Y-88773773D01*
X146126204Y-88749504D01*
X146125000Y-88725000D01*
X146125000Y-87800000D01*
X146126204Y-87775496D01*
X146129804Y-87751227D01*
X146135765Y-87727429D01*
X146144030Y-87704329D01*
X146154520Y-87682151D01*
X146167133Y-87661107D01*
X146181747Y-87641402D01*
X146198223Y-87623223D01*
X146216402Y-87606747D01*
X146236107Y-87592133D01*
X146257151Y-87579520D01*
X146279329Y-87569030D01*
X146302429Y-87560765D01*
X146326227Y-87554804D01*
X146350496Y-87551204D01*
X146375000Y-87550000D01*
X147625000Y-87550000D01*
X147649504Y-87551204D01*
X147649504Y-87551204D01*
G37*
D11*
X147000000Y-88262500D03*
D10*
G36*
X147649504Y-90526204D02*
G01*
X147673773Y-90529804D01*
X147697571Y-90535765D01*
X147720671Y-90544030D01*
X147742849Y-90554520D01*
X147763893Y-90567133D01*
X147783598Y-90581747D01*
X147801777Y-90598223D01*
X147818253Y-90616402D01*
X147832867Y-90636107D01*
X147845480Y-90657151D01*
X147855970Y-90679329D01*
X147864235Y-90702429D01*
X147870196Y-90726227D01*
X147873796Y-90750496D01*
X147875000Y-90775000D01*
X147875000Y-91700000D01*
X147873796Y-91724504D01*
X147870196Y-91748773D01*
X147864235Y-91772571D01*
X147855970Y-91795671D01*
X147845480Y-91817849D01*
X147832867Y-91838893D01*
X147818253Y-91858598D01*
X147801777Y-91876777D01*
X147783598Y-91893253D01*
X147763893Y-91907867D01*
X147742849Y-91920480D01*
X147720671Y-91930970D01*
X147697571Y-91939235D01*
X147673773Y-91945196D01*
X147649504Y-91948796D01*
X147625000Y-91950000D01*
X146375000Y-91950000D01*
X146350496Y-91948796D01*
X146326227Y-91945196D01*
X146302429Y-91939235D01*
X146279329Y-91930970D01*
X146257151Y-91920480D01*
X146236107Y-91907867D01*
X146216402Y-91893253D01*
X146198223Y-91876777D01*
X146181747Y-91858598D01*
X146167133Y-91838893D01*
X146154520Y-91817849D01*
X146144030Y-91795671D01*
X146135765Y-91772571D01*
X146129804Y-91748773D01*
X146126204Y-91724504D01*
X146125000Y-91700000D01*
X146125000Y-90775000D01*
X146126204Y-90750496D01*
X146129804Y-90726227D01*
X146135765Y-90702429D01*
X146144030Y-90679329D01*
X146154520Y-90657151D01*
X146167133Y-90636107D01*
X146181747Y-90616402D01*
X146198223Y-90598223D01*
X146216402Y-90581747D01*
X146236107Y-90567133D01*
X146257151Y-90554520D01*
X146279329Y-90544030D01*
X146302429Y-90535765D01*
X146326227Y-90529804D01*
X146350496Y-90526204D01*
X146375000Y-90525000D01*
X147625000Y-90525000D01*
X147649504Y-90526204D01*
X147649504Y-90526204D01*
G37*
D11*
X147000000Y-91237500D03*
D12*
X148750000Y-81700000D03*
X148750000Y-82350000D03*
X148750000Y-83000000D03*
X148750000Y-83650000D03*
X148750000Y-84300000D03*
X148750000Y-84950000D03*
X148750000Y-85600000D03*
X154650000Y-85600000D03*
X154650000Y-84950000D03*
X154650000Y-84300000D03*
X154650000Y-83650000D03*
X154650000Y-83000000D03*
X154650000Y-82350000D03*
X154650000Y-81700000D03*
D13*
X128325000Y-86450000D03*
X128975000Y-86450000D03*
X129625000Y-86450000D03*
X130275000Y-86450000D03*
X130925000Y-86450000D03*
X131575000Y-86450000D03*
X132225000Y-86450000D03*
X132875000Y-86450000D03*
X133525000Y-86450000D03*
X134175000Y-86450000D03*
X134175000Y-80550000D03*
X133525000Y-80550000D03*
X132875000Y-80550000D03*
X132225000Y-80550000D03*
X131575000Y-80550000D03*
X130925000Y-80550000D03*
X130275000Y-80550000D03*
X129625000Y-80550000D03*
X128975000Y-80550000D03*
X128325000Y-80550000D03*
M02*
