G04 #@! TF.GenerationSoftware,KiCad,Pcbnew,(5.1.2)-2*
G04 #@! TF.CreationDate,2019-11-23T11:21:10-08:00*
G04 #@! TF.ProjectId,precision-dac-cv-scaler,70726563-6973-4696-9f6e-2d6461632d63,rev?*
G04 #@! TF.SameCoordinates,Original*
G04 #@! TF.FileFunction,Soldermask,Bot*
G04 #@! TF.FilePolarity,Negative*
%FSLAX46Y46*%
G04 Gerber Fmt 4.6, Leading zero omitted, Abs format (unit mm)*
G04 Created by KiCad (PCBNEW (5.1.2)-2) date 2019-11-23 11:21:10*
%MOMM*%
%LPD*%
G04 APERTURE LIST*
%ADD10C,0.100000*%
G04 APERTURE END LIST*
D10*
G36*
X151109295Y-100763896D02*
G01*
X151272084Y-100813278D01*
X151272087Y-100813279D01*
X151422107Y-100893466D01*
X151422108Y-100893467D01*
X151422112Y-100893469D01*
X151553612Y-101001388D01*
X151661531Y-101132888D01*
X151661533Y-101132892D01*
X151661534Y-101132893D01*
X151741721Y-101282913D01*
X151741722Y-101282916D01*
X151791104Y-101445705D01*
X151803600Y-101572580D01*
X151803600Y-103181420D01*
X151791104Y-103308295D01*
X151741722Y-103471083D01*
X151741721Y-103471087D01*
X151669325Y-103606531D01*
X151661531Y-103621112D01*
X151553612Y-103752612D01*
X151422111Y-103860531D01*
X151422107Y-103860534D01*
X151272087Y-103940721D01*
X151229726Y-103953571D01*
X151109294Y-103990104D01*
X150940000Y-104006778D01*
X150770705Y-103990104D01*
X150607916Y-103940722D01*
X150607913Y-103940721D01*
X150457893Y-103860534D01*
X150457892Y-103860533D01*
X150457888Y-103860531D01*
X150326388Y-103752612D01*
X150218469Y-103621111D01*
X150218468Y-103621110D01*
X150218466Y-103621107D01*
X150138279Y-103471087D01*
X150125429Y-103428726D01*
X150088896Y-103308294D01*
X150076400Y-103181419D01*
X150076401Y-101572580D01*
X150088897Y-101445705D01*
X150138279Y-101282916D01*
X150138280Y-101282913D01*
X150218467Y-101132893D01*
X150218468Y-101132892D01*
X150218470Y-101132888D01*
X150326389Y-101001388D01*
X150457889Y-100893469D01*
X150457893Y-100893467D01*
X150457894Y-100893466D01*
X150607914Y-100813279D01*
X150607917Y-100813278D01*
X150770706Y-100763896D01*
X150940000Y-100747222D01*
X151109295Y-100763896D01*
X151109295Y-100763896D01*
G37*
G36*
X156189295Y-100763896D02*
G01*
X156352084Y-100813278D01*
X156352087Y-100813279D01*
X156502107Y-100893466D01*
X156502108Y-100893467D01*
X156502112Y-100893469D01*
X156633612Y-101001388D01*
X156741531Y-101132888D01*
X156741533Y-101132892D01*
X156741534Y-101132893D01*
X156821721Y-101282913D01*
X156821722Y-101282916D01*
X156871104Y-101445705D01*
X156883600Y-101572580D01*
X156883600Y-103181420D01*
X156871104Y-103308295D01*
X156821722Y-103471083D01*
X156821721Y-103471087D01*
X156749325Y-103606531D01*
X156741531Y-103621112D01*
X156633612Y-103752612D01*
X156502111Y-103860531D01*
X156502107Y-103860534D01*
X156352087Y-103940721D01*
X156309726Y-103953571D01*
X156189294Y-103990104D01*
X156020000Y-104006778D01*
X155850705Y-103990104D01*
X155687916Y-103940722D01*
X155687913Y-103940721D01*
X155537893Y-103860534D01*
X155537892Y-103860533D01*
X155537888Y-103860531D01*
X155406388Y-103752612D01*
X155298469Y-103621111D01*
X155298468Y-103621110D01*
X155298466Y-103621107D01*
X155218279Y-103471087D01*
X155205429Y-103428726D01*
X155168896Y-103308294D01*
X155156400Y-103181419D01*
X155156401Y-101572580D01*
X155168897Y-101445705D01*
X155218279Y-101282916D01*
X155218280Y-101282913D01*
X155298467Y-101132893D01*
X155298468Y-101132892D01*
X155298470Y-101132888D01*
X155406389Y-101001388D01*
X155537889Y-100893469D01*
X155537893Y-100893467D01*
X155537894Y-100893466D01*
X155687914Y-100813279D01*
X155687917Y-100813278D01*
X155850706Y-100763896D01*
X156020000Y-100747222D01*
X156189295Y-100763896D01*
X156189295Y-100763896D01*
G37*
G36*
X161269295Y-100763896D02*
G01*
X161432084Y-100813278D01*
X161432087Y-100813279D01*
X161582107Y-100893466D01*
X161582108Y-100893467D01*
X161582112Y-100893469D01*
X161713612Y-101001388D01*
X161821531Y-101132888D01*
X161821533Y-101132892D01*
X161821534Y-101132893D01*
X161901721Y-101282913D01*
X161901722Y-101282916D01*
X161951104Y-101445705D01*
X161963600Y-101572580D01*
X161963600Y-103181420D01*
X161951104Y-103308295D01*
X161901722Y-103471083D01*
X161901721Y-103471087D01*
X161829325Y-103606531D01*
X161821531Y-103621112D01*
X161713612Y-103752612D01*
X161582111Y-103860531D01*
X161582107Y-103860534D01*
X161432087Y-103940721D01*
X161389726Y-103953571D01*
X161269294Y-103990104D01*
X161100000Y-104006778D01*
X160930705Y-103990104D01*
X160767916Y-103940722D01*
X160767913Y-103940721D01*
X160617893Y-103860534D01*
X160617892Y-103860533D01*
X160617888Y-103860531D01*
X160486388Y-103752612D01*
X160378469Y-103621111D01*
X160378468Y-103621110D01*
X160378466Y-103621107D01*
X160298279Y-103471087D01*
X160285429Y-103428726D01*
X160248896Y-103308294D01*
X160236400Y-103181419D01*
X160236401Y-101572580D01*
X160248897Y-101445705D01*
X160298279Y-101282916D01*
X160298280Y-101282913D01*
X160378467Y-101132893D01*
X160378468Y-101132892D01*
X160378470Y-101132888D01*
X160486389Y-101001388D01*
X160617889Y-100893469D01*
X160617893Y-100893467D01*
X160617894Y-100893466D01*
X160767914Y-100813279D01*
X160767917Y-100813278D01*
X160930706Y-100763896D01*
X161100000Y-100747222D01*
X161269295Y-100763896D01*
X161269295Y-100763896D01*
G37*
G36*
X146029295Y-100763896D02*
G01*
X146192084Y-100813278D01*
X146192087Y-100813279D01*
X146342107Y-100893466D01*
X146342108Y-100893467D01*
X146342112Y-100893469D01*
X146473612Y-101001388D01*
X146581531Y-101132888D01*
X146581533Y-101132892D01*
X146581534Y-101132893D01*
X146661721Y-101282913D01*
X146661722Y-101282916D01*
X146711104Y-101445705D01*
X146723600Y-101572580D01*
X146723600Y-103181420D01*
X146711104Y-103308295D01*
X146661722Y-103471083D01*
X146661721Y-103471087D01*
X146589325Y-103606531D01*
X146581531Y-103621112D01*
X146473612Y-103752612D01*
X146342111Y-103860531D01*
X146342107Y-103860534D01*
X146192087Y-103940721D01*
X146149726Y-103953571D01*
X146029294Y-103990104D01*
X145860000Y-104006778D01*
X145690705Y-103990104D01*
X145527916Y-103940722D01*
X145527913Y-103940721D01*
X145377893Y-103860534D01*
X145377892Y-103860533D01*
X145377888Y-103860531D01*
X145246388Y-103752612D01*
X145138469Y-103621111D01*
X145138468Y-103621110D01*
X145138466Y-103621107D01*
X145058279Y-103471087D01*
X145045429Y-103428726D01*
X145008896Y-103308294D01*
X144996400Y-103181419D01*
X144996401Y-101572580D01*
X145008897Y-101445705D01*
X145058279Y-101282916D01*
X145058280Y-101282913D01*
X145138467Y-101132893D01*
X145138468Y-101132892D01*
X145138470Y-101132888D01*
X145246389Y-101001388D01*
X145377889Y-100893469D01*
X145377893Y-100893467D01*
X145377894Y-100893466D01*
X145527914Y-100813279D01*
X145527917Y-100813278D01*
X145690706Y-100763896D01*
X145860000Y-100747222D01*
X146029295Y-100763896D01*
X146029295Y-100763896D01*
G37*
G36*
X140949295Y-100763896D02*
G01*
X141112084Y-100813278D01*
X141112087Y-100813279D01*
X141262107Y-100893466D01*
X141262108Y-100893467D01*
X141262112Y-100893469D01*
X141393612Y-101001388D01*
X141501531Y-101132888D01*
X141501533Y-101132892D01*
X141501534Y-101132893D01*
X141581721Y-101282913D01*
X141581722Y-101282916D01*
X141631104Y-101445705D01*
X141643600Y-101572580D01*
X141643600Y-103181420D01*
X141631104Y-103308295D01*
X141581722Y-103471083D01*
X141581721Y-103471087D01*
X141509325Y-103606531D01*
X141501531Y-103621112D01*
X141393612Y-103752612D01*
X141262111Y-103860531D01*
X141262107Y-103860534D01*
X141112087Y-103940721D01*
X141069726Y-103953571D01*
X140949294Y-103990104D01*
X140780000Y-104006778D01*
X140610705Y-103990104D01*
X140447916Y-103940722D01*
X140447913Y-103940721D01*
X140297893Y-103860534D01*
X140297892Y-103860533D01*
X140297888Y-103860531D01*
X140166388Y-103752612D01*
X140058469Y-103621111D01*
X140058468Y-103621110D01*
X140058466Y-103621107D01*
X139978279Y-103471087D01*
X139965429Y-103428726D01*
X139928896Y-103308294D01*
X139916400Y-103181419D01*
X139916401Y-101572580D01*
X139928897Y-101445705D01*
X139978279Y-101282916D01*
X139978280Y-101282913D01*
X140058467Y-101132893D01*
X140058468Y-101132892D01*
X140058470Y-101132888D01*
X140166389Y-101001388D01*
X140297889Y-100893469D01*
X140297893Y-100893467D01*
X140297894Y-100893466D01*
X140447914Y-100813279D01*
X140447917Y-100813278D01*
X140610706Y-100763896D01*
X140780000Y-100747222D01*
X140949295Y-100763896D01*
X140949295Y-100763896D01*
G37*
G36*
X135869295Y-100763896D02*
G01*
X136032084Y-100813278D01*
X136032087Y-100813279D01*
X136182107Y-100893466D01*
X136182108Y-100893467D01*
X136182112Y-100893469D01*
X136313612Y-101001388D01*
X136421531Y-101132888D01*
X136421533Y-101132892D01*
X136421534Y-101132893D01*
X136501721Y-101282913D01*
X136501722Y-101282916D01*
X136551104Y-101445705D01*
X136563600Y-101572580D01*
X136563600Y-103181420D01*
X136551104Y-103308295D01*
X136501722Y-103471083D01*
X136501721Y-103471087D01*
X136429325Y-103606531D01*
X136421531Y-103621112D01*
X136313612Y-103752612D01*
X136182111Y-103860531D01*
X136182107Y-103860534D01*
X136032087Y-103940721D01*
X135989726Y-103953571D01*
X135869294Y-103990104D01*
X135700000Y-104006778D01*
X135530705Y-103990104D01*
X135367916Y-103940722D01*
X135367913Y-103940721D01*
X135217893Y-103860534D01*
X135217892Y-103860533D01*
X135217888Y-103860531D01*
X135086388Y-103752612D01*
X134978469Y-103621111D01*
X134978468Y-103621110D01*
X134978466Y-103621107D01*
X134898279Y-103471087D01*
X134885429Y-103428726D01*
X134848896Y-103308294D01*
X134836400Y-103181419D01*
X134836401Y-101572580D01*
X134848897Y-101445705D01*
X134898279Y-101282916D01*
X134898280Y-101282913D01*
X134978467Y-101132893D01*
X134978468Y-101132892D01*
X134978470Y-101132888D01*
X135086389Y-101001388D01*
X135217889Y-100893469D01*
X135217893Y-100893467D01*
X135217894Y-100893466D01*
X135367914Y-100813279D01*
X135367917Y-100813278D01*
X135530706Y-100763896D01*
X135700000Y-100747222D01*
X135869295Y-100763896D01*
X135869295Y-100763896D01*
G37*
G36*
X125709295Y-100763896D02*
G01*
X125872084Y-100813278D01*
X125872087Y-100813279D01*
X126022107Y-100893466D01*
X126022108Y-100893467D01*
X126022112Y-100893469D01*
X126153612Y-101001388D01*
X126261531Y-101132888D01*
X126261533Y-101132892D01*
X126261534Y-101132893D01*
X126341721Y-101282913D01*
X126341722Y-101282916D01*
X126391104Y-101445705D01*
X126403600Y-101572580D01*
X126403600Y-103181420D01*
X126391104Y-103308295D01*
X126341722Y-103471083D01*
X126341721Y-103471087D01*
X126269325Y-103606531D01*
X126261531Y-103621112D01*
X126153612Y-103752612D01*
X126022111Y-103860531D01*
X126022107Y-103860534D01*
X125872087Y-103940721D01*
X125829726Y-103953571D01*
X125709294Y-103990104D01*
X125540000Y-104006778D01*
X125370705Y-103990104D01*
X125207916Y-103940722D01*
X125207913Y-103940721D01*
X125057893Y-103860534D01*
X125057892Y-103860533D01*
X125057888Y-103860531D01*
X124926388Y-103752612D01*
X124818469Y-103621111D01*
X124818468Y-103621110D01*
X124818466Y-103621107D01*
X124738279Y-103471087D01*
X124725429Y-103428726D01*
X124688896Y-103308294D01*
X124676400Y-103181419D01*
X124676401Y-101572580D01*
X124688897Y-101445705D01*
X124738279Y-101282916D01*
X124738280Y-101282913D01*
X124818467Y-101132893D01*
X124818468Y-101132892D01*
X124818470Y-101132888D01*
X124926389Y-101001388D01*
X125057889Y-100893469D01*
X125057893Y-100893467D01*
X125057894Y-100893466D01*
X125207914Y-100813279D01*
X125207917Y-100813278D01*
X125370706Y-100763896D01*
X125540000Y-100747222D01*
X125709295Y-100763896D01*
X125709295Y-100763896D01*
G37*
G36*
X130789295Y-100763896D02*
G01*
X130952084Y-100813278D01*
X130952087Y-100813279D01*
X131102107Y-100893466D01*
X131102108Y-100893467D01*
X131102112Y-100893469D01*
X131233612Y-101001388D01*
X131341531Y-101132888D01*
X131341533Y-101132892D01*
X131341534Y-101132893D01*
X131421721Y-101282913D01*
X131421722Y-101282916D01*
X131471104Y-101445705D01*
X131483600Y-101572580D01*
X131483600Y-103181420D01*
X131471104Y-103308295D01*
X131421722Y-103471083D01*
X131421721Y-103471087D01*
X131349325Y-103606531D01*
X131341531Y-103621112D01*
X131233612Y-103752612D01*
X131102111Y-103860531D01*
X131102107Y-103860534D01*
X130952087Y-103940721D01*
X130909726Y-103953571D01*
X130789294Y-103990104D01*
X130620000Y-104006778D01*
X130450705Y-103990104D01*
X130287916Y-103940722D01*
X130287913Y-103940721D01*
X130137893Y-103860534D01*
X130137892Y-103860533D01*
X130137888Y-103860531D01*
X130006388Y-103752612D01*
X129898469Y-103621111D01*
X129898468Y-103621110D01*
X129898466Y-103621107D01*
X129818279Y-103471087D01*
X129805429Y-103428726D01*
X129768896Y-103308294D01*
X129756400Y-103181419D01*
X129756401Y-101572580D01*
X129768897Y-101445705D01*
X129818279Y-101282916D01*
X129818280Y-101282913D01*
X129898467Y-101132893D01*
X129898468Y-101132892D01*
X129898470Y-101132888D01*
X130006389Y-101001388D01*
X130137889Y-100893469D01*
X130137893Y-100893467D01*
X130137894Y-100893466D01*
X130287914Y-100813279D01*
X130287917Y-100813278D01*
X130450706Y-100763896D01*
X130620000Y-100747222D01*
X130789295Y-100763896D01*
X130789295Y-100763896D01*
G37*
G36*
X163809295Y-100509896D02*
G01*
X163972084Y-100559278D01*
X163972087Y-100559279D01*
X164122107Y-100639466D01*
X164122108Y-100639467D01*
X164122112Y-100639469D01*
X164253612Y-100747388D01*
X164361531Y-100878888D01*
X164361533Y-100878892D01*
X164361534Y-100878893D01*
X164441721Y-101028913D01*
X164441722Y-101028916D01*
X164491104Y-101191705D01*
X164503600Y-101318580D01*
X164503600Y-102927420D01*
X164491104Y-103054295D01*
X164452540Y-103181421D01*
X164441721Y-103217087D01*
X164361534Y-103367107D01*
X164361531Y-103367112D01*
X164253612Y-103498612D01*
X164122111Y-103606531D01*
X164122107Y-103606534D01*
X163972087Y-103686721D01*
X163929726Y-103699571D01*
X163809294Y-103736104D01*
X163640000Y-103752778D01*
X163470705Y-103736104D01*
X163307916Y-103686722D01*
X163307913Y-103686721D01*
X163157893Y-103606534D01*
X163157892Y-103606533D01*
X163157888Y-103606531D01*
X163026388Y-103498612D01*
X162918469Y-103367111D01*
X162918468Y-103367110D01*
X162918466Y-103367107D01*
X162838279Y-103217087D01*
X162825429Y-103174726D01*
X162788896Y-103054294D01*
X162776400Y-102927419D01*
X162776401Y-101318580D01*
X162788897Y-101191705D01*
X162838279Y-101028916D01*
X162838280Y-101028913D01*
X162918467Y-100878893D01*
X162918468Y-100878892D01*
X162918470Y-100878888D01*
X163026389Y-100747388D01*
X163157889Y-100639469D01*
X163157893Y-100639467D01*
X163157894Y-100639466D01*
X163307914Y-100559279D01*
X163307917Y-100559278D01*
X163470706Y-100509896D01*
X163640000Y-100493222D01*
X163809295Y-100509896D01*
X163809295Y-100509896D01*
G37*
G36*
X158729295Y-100509896D02*
G01*
X158892084Y-100559278D01*
X158892087Y-100559279D01*
X159042107Y-100639466D01*
X159042108Y-100639467D01*
X159042112Y-100639469D01*
X159173612Y-100747388D01*
X159281531Y-100878888D01*
X159281533Y-100878892D01*
X159281534Y-100878893D01*
X159361721Y-101028913D01*
X159361722Y-101028916D01*
X159411104Y-101191705D01*
X159423600Y-101318580D01*
X159423600Y-102927420D01*
X159411104Y-103054295D01*
X159372540Y-103181421D01*
X159361721Y-103217087D01*
X159281534Y-103367107D01*
X159281531Y-103367112D01*
X159173612Y-103498612D01*
X159042111Y-103606531D01*
X159042107Y-103606534D01*
X158892087Y-103686721D01*
X158849726Y-103699571D01*
X158729294Y-103736104D01*
X158560000Y-103752778D01*
X158390705Y-103736104D01*
X158227916Y-103686722D01*
X158227913Y-103686721D01*
X158077893Y-103606534D01*
X158077892Y-103606533D01*
X158077888Y-103606531D01*
X157946388Y-103498612D01*
X157838469Y-103367111D01*
X157838468Y-103367110D01*
X157838466Y-103367107D01*
X157758279Y-103217087D01*
X157745429Y-103174726D01*
X157708896Y-103054294D01*
X157696400Y-102927419D01*
X157696401Y-101318580D01*
X157708897Y-101191705D01*
X157758279Y-101028916D01*
X157758280Y-101028913D01*
X157838467Y-100878893D01*
X157838468Y-100878892D01*
X157838470Y-100878888D01*
X157946389Y-100747388D01*
X158077889Y-100639469D01*
X158077893Y-100639467D01*
X158077894Y-100639466D01*
X158227914Y-100559279D01*
X158227917Y-100559278D01*
X158390706Y-100509896D01*
X158560000Y-100493222D01*
X158729295Y-100509896D01*
X158729295Y-100509896D01*
G37*
G36*
X153649295Y-100509896D02*
G01*
X153812084Y-100559278D01*
X153812087Y-100559279D01*
X153962107Y-100639466D01*
X153962108Y-100639467D01*
X153962112Y-100639469D01*
X154093612Y-100747388D01*
X154201531Y-100878888D01*
X154201533Y-100878892D01*
X154201534Y-100878893D01*
X154281721Y-101028913D01*
X154281722Y-101028916D01*
X154331104Y-101191705D01*
X154343600Y-101318580D01*
X154343600Y-102927420D01*
X154331104Y-103054295D01*
X154292540Y-103181421D01*
X154281721Y-103217087D01*
X154201534Y-103367107D01*
X154201531Y-103367112D01*
X154093612Y-103498612D01*
X153962111Y-103606531D01*
X153962107Y-103606534D01*
X153812087Y-103686721D01*
X153769726Y-103699571D01*
X153649294Y-103736104D01*
X153480000Y-103752778D01*
X153310705Y-103736104D01*
X153147916Y-103686722D01*
X153147913Y-103686721D01*
X152997893Y-103606534D01*
X152997892Y-103606533D01*
X152997888Y-103606531D01*
X152866388Y-103498612D01*
X152758469Y-103367111D01*
X152758468Y-103367110D01*
X152758466Y-103367107D01*
X152678279Y-103217087D01*
X152665429Y-103174726D01*
X152628896Y-103054294D01*
X152616400Y-102927419D01*
X152616401Y-101318580D01*
X152628897Y-101191705D01*
X152678279Y-101028916D01*
X152678280Y-101028913D01*
X152758467Y-100878893D01*
X152758468Y-100878892D01*
X152758470Y-100878888D01*
X152866389Y-100747388D01*
X152997889Y-100639469D01*
X152997893Y-100639467D01*
X152997894Y-100639466D01*
X153147914Y-100559279D01*
X153147917Y-100559278D01*
X153310706Y-100509896D01*
X153480000Y-100493222D01*
X153649295Y-100509896D01*
X153649295Y-100509896D01*
G37*
G36*
X148569295Y-100509896D02*
G01*
X148732084Y-100559278D01*
X148732087Y-100559279D01*
X148882107Y-100639466D01*
X148882108Y-100639467D01*
X148882112Y-100639469D01*
X149013612Y-100747388D01*
X149121531Y-100878888D01*
X149121533Y-100878892D01*
X149121534Y-100878893D01*
X149201721Y-101028913D01*
X149201722Y-101028916D01*
X149251104Y-101191705D01*
X149263600Y-101318580D01*
X149263600Y-102927420D01*
X149251104Y-103054295D01*
X149212540Y-103181421D01*
X149201721Y-103217087D01*
X149121534Y-103367107D01*
X149121531Y-103367112D01*
X149013612Y-103498612D01*
X148882111Y-103606531D01*
X148882107Y-103606534D01*
X148732087Y-103686721D01*
X148689726Y-103699571D01*
X148569294Y-103736104D01*
X148400000Y-103752778D01*
X148230705Y-103736104D01*
X148067916Y-103686722D01*
X148067913Y-103686721D01*
X147917893Y-103606534D01*
X147917892Y-103606533D01*
X147917888Y-103606531D01*
X147786388Y-103498612D01*
X147678469Y-103367111D01*
X147678468Y-103367110D01*
X147678466Y-103367107D01*
X147598279Y-103217087D01*
X147585429Y-103174726D01*
X147548896Y-103054294D01*
X147536400Y-102927419D01*
X147536401Y-101318580D01*
X147548897Y-101191705D01*
X147598279Y-101028916D01*
X147598280Y-101028913D01*
X147678467Y-100878893D01*
X147678468Y-100878892D01*
X147678470Y-100878888D01*
X147786389Y-100747388D01*
X147917889Y-100639469D01*
X147917893Y-100639467D01*
X147917894Y-100639466D01*
X148067914Y-100559279D01*
X148067917Y-100559278D01*
X148230706Y-100509896D01*
X148400000Y-100493222D01*
X148569295Y-100509896D01*
X148569295Y-100509896D01*
G37*
G36*
X143489295Y-100509896D02*
G01*
X143652084Y-100559278D01*
X143652087Y-100559279D01*
X143802107Y-100639466D01*
X143802108Y-100639467D01*
X143802112Y-100639469D01*
X143933612Y-100747388D01*
X144041531Y-100878888D01*
X144041533Y-100878892D01*
X144041534Y-100878893D01*
X144121721Y-101028913D01*
X144121722Y-101028916D01*
X144171104Y-101191705D01*
X144183600Y-101318580D01*
X144183600Y-102927420D01*
X144171104Y-103054295D01*
X144132540Y-103181421D01*
X144121721Y-103217087D01*
X144041534Y-103367107D01*
X144041531Y-103367112D01*
X143933612Y-103498612D01*
X143802111Y-103606531D01*
X143802107Y-103606534D01*
X143652087Y-103686721D01*
X143609726Y-103699571D01*
X143489294Y-103736104D01*
X143320000Y-103752778D01*
X143150705Y-103736104D01*
X142987916Y-103686722D01*
X142987913Y-103686721D01*
X142837893Y-103606534D01*
X142837892Y-103606533D01*
X142837888Y-103606531D01*
X142706388Y-103498612D01*
X142598469Y-103367111D01*
X142598468Y-103367110D01*
X142598466Y-103367107D01*
X142518279Y-103217087D01*
X142505429Y-103174726D01*
X142468896Y-103054294D01*
X142456400Y-102927419D01*
X142456401Y-101318580D01*
X142468897Y-101191705D01*
X142518279Y-101028916D01*
X142518280Y-101028913D01*
X142598467Y-100878893D01*
X142598468Y-100878892D01*
X142598470Y-100878888D01*
X142706389Y-100747388D01*
X142837889Y-100639469D01*
X142837893Y-100639467D01*
X142837894Y-100639466D01*
X142987914Y-100559279D01*
X142987917Y-100559278D01*
X143150706Y-100509896D01*
X143320000Y-100493222D01*
X143489295Y-100509896D01*
X143489295Y-100509896D01*
G37*
G36*
X138409295Y-100509896D02*
G01*
X138572084Y-100559278D01*
X138572087Y-100559279D01*
X138722107Y-100639466D01*
X138722108Y-100639467D01*
X138722112Y-100639469D01*
X138853612Y-100747388D01*
X138961531Y-100878888D01*
X138961533Y-100878892D01*
X138961534Y-100878893D01*
X139041721Y-101028913D01*
X139041722Y-101028916D01*
X139091104Y-101191705D01*
X139103600Y-101318580D01*
X139103600Y-102927420D01*
X139091104Y-103054295D01*
X139052540Y-103181421D01*
X139041721Y-103217087D01*
X138961534Y-103367107D01*
X138961531Y-103367112D01*
X138853612Y-103498612D01*
X138722111Y-103606531D01*
X138722107Y-103606534D01*
X138572087Y-103686721D01*
X138529726Y-103699571D01*
X138409294Y-103736104D01*
X138240000Y-103752778D01*
X138070705Y-103736104D01*
X137907916Y-103686722D01*
X137907913Y-103686721D01*
X137757893Y-103606534D01*
X137757892Y-103606533D01*
X137757888Y-103606531D01*
X137626388Y-103498612D01*
X137518469Y-103367111D01*
X137518468Y-103367110D01*
X137518466Y-103367107D01*
X137438279Y-103217087D01*
X137425429Y-103174726D01*
X137388896Y-103054294D01*
X137376400Y-102927419D01*
X137376401Y-101318580D01*
X137388897Y-101191705D01*
X137438279Y-101028916D01*
X137438280Y-101028913D01*
X137518467Y-100878893D01*
X137518468Y-100878892D01*
X137518470Y-100878888D01*
X137626389Y-100747388D01*
X137757889Y-100639469D01*
X137757893Y-100639467D01*
X137757894Y-100639466D01*
X137907914Y-100559279D01*
X137907917Y-100559278D01*
X138070706Y-100509896D01*
X138240000Y-100493222D01*
X138409295Y-100509896D01*
X138409295Y-100509896D01*
G37*
G36*
X133329295Y-100509896D02*
G01*
X133492084Y-100559278D01*
X133492087Y-100559279D01*
X133642107Y-100639466D01*
X133642108Y-100639467D01*
X133642112Y-100639469D01*
X133773612Y-100747388D01*
X133881531Y-100878888D01*
X133881533Y-100878892D01*
X133881534Y-100878893D01*
X133961721Y-101028913D01*
X133961722Y-101028916D01*
X134011104Y-101191705D01*
X134023600Y-101318580D01*
X134023600Y-102927420D01*
X134011104Y-103054295D01*
X133972540Y-103181421D01*
X133961721Y-103217087D01*
X133881534Y-103367107D01*
X133881531Y-103367112D01*
X133773612Y-103498612D01*
X133642111Y-103606531D01*
X133642107Y-103606534D01*
X133492087Y-103686721D01*
X133449726Y-103699571D01*
X133329294Y-103736104D01*
X133160000Y-103752778D01*
X132990705Y-103736104D01*
X132827916Y-103686722D01*
X132827913Y-103686721D01*
X132677893Y-103606534D01*
X132677892Y-103606533D01*
X132677888Y-103606531D01*
X132546388Y-103498612D01*
X132438469Y-103367111D01*
X132438468Y-103367110D01*
X132438466Y-103367107D01*
X132358279Y-103217087D01*
X132345429Y-103174726D01*
X132308896Y-103054294D01*
X132296400Y-102927419D01*
X132296401Y-101318580D01*
X132308897Y-101191705D01*
X132358279Y-101028916D01*
X132358280Y-101028913D01*
X132438467Y-100878893D01*
X132438468Y-100878892D01*
X132438470Y-100878888D01*
X132546389Y-100747388D01*
X132677889Y-100639469D01*
X132677893Y-100639467D01*
X132677894Y-100639466D01*
X132827914Y-100559279D01*
X132827917Y-100559278D01*
X132990706Y-100509896D01*
X133160000Y-100493222D01*
X133329295Y-100509896D01*
X133329295Y-100509896D01*
G37*
G36*
X123169295Y-100509896D02*
G01*
X123332084Y-100559278D01*
X123332087Y-100559279D01*
X123482107Y-100639466D01*
X123482108Y-100639467D01*
X123482112Y-100639469D01*
X123613612Y-100747388D01*
X123721531Y-100878888D01*
X123721533Y-100878892D01*
X123721534Y-100878893D01*
X123801721Y-101028913D01*
X123801722Y-101028916D01*
X123851104Y-101191705D01*
X123863600Y-101318580D01*
X123863600Y-102927420D01*
X123851104Y-103054295D01*
X123812540Y-103181421D01*
X123801721Y-103217087D01*
X123721534Y-103367107D01*
X123721531Y-103367112D01*
X123613612Y-103498612D01*
X123482111Y-103606531D01*
X123482107Y-103606534D01*
X123332087Y-103686721D01*
X123289726Y-103699571D01*
X123169294Y-103736104D01*
X123000000Y-103752778D01*
X122830705Y-103736104D01*
X122667916Y-103686722D01*
X122667913Y-103686721D01*
X122517893Y-103606534D01*
X122517892Y-103606533D01*
X122517888Y-103606531D01*
X122386388Y-103498612D01*
X122278469Y-103367111D01*
X122278468Y-103367110D01*
X122278466Y-103367107D01*
X122198279Y-103217087D01*
X122185429Y-103174726D01*
X122148896Y-103054294D01*
X122136400Y-102927419D01*
X122136401Y-101318580D01*
X122148897Y-101191705D01*
X122198279Y-101028916D01*
X122198280Y-101028913D01*
X122278467Y-100878893D01*
X122278468Y-100878892D01*
X122278470Y-100878888D01*
X122386389Y-100747388D01*
X122517889Y-100639469D01*
X122517893Y-100639467D01*
X122517894Y-100639466D01*
X122667914Y-100559279D01*
X122667917Y-100559278D01*
X122830706Y-100509896D01*
X123000000Y-100493222D01*
X123169295Y-100509896D01*
X123169295Y-100509896D01*
G37*
G36*
X128249295Y-100509896D02*
G01*
X128412084Y-100559278D01*
X128412087Y-100559279D01*
X128562107Y-100639466D01*
X128562108Y-100639467D01*
X128562112Y-100639469D01*
X128693612Y-100747388D01*
X128801531Y-100878888D01*
X128801533Y-100878892D01*
X128801534Y-100878893D01*
X128881721Y-101028913D01*
X128881722Y-101028916D01*
X128931104Y-101191705D01*
X128943600Y-101318580D01*
X128943600Y-102927420D01*
X128931104Y-103054295D01*
X128892540Y-103181421D01*
X128881721Y-103217087D01*
X128801534Y-103367107D01*
X128801531Y-103367112D01*
X128693612Y-103498612D01*
X128562111Y-103606531D01*
X128562107Y-103606534D01*
X128412087Y-103686721D01*
X128369726Y-103699571D01*
X128249294Y-103736104D01*
X128080000Y-103752778D01*
X127910705Y-103736104D01*
X127747916Y-103686722D01*
X127747913Y-103686721D01*
X127597893Y-103606534D01*
X127597892Y-103606533D01*
X127597888Y-103606531D01*
X127466388Y-103498612D01*
X127358469Y-103367111D01*
X127358468Y-103367110D01*
X127358466Y-103367107D01*
X127278279Y-103217087D01*
X127265429Y-103174726D01*
X127228896Y-103054294D01*
X127216400Y-102927419D01*
X127216401Y-101318580D01*
X127228897Y-101191705D01*
X127278279Y-101028916D01*
X127278280Y-101028913D01*
X127358467Y-100878893D01*
X127358468Y-100878892D01*
X127358470Y-100878888D01*
X127466389Y-100747388D01*
X127597889Y-100639469D01*
X127597893Y-100639467D01*
X127597894Y-100639466D01*
X127747914Y-100559279D01*
X127747917Y-100559278D01*
X127910706Y-100509896D01*
X128080000Y-100493222D01*
X128249295Y-100509896D01*
X128249295Y-100509896D01*
G37*
M02*
