M48
INCH,TZ
T1C0.0157
T2C0.0400
%
G90
G05
T1
X47638Y-28642
X47638Y-29035
X47638Y-29429
X47638Y-29823
X47638Y-30217
X47638Y-30610
X48031Y-28248
X48425Y-28248
X48819Y-28248
X49114Y-31693
X49114Y-32776
X49114Y-33957
X49213Y-28248
X50394Y-31004
X50787Y-33268
X51772Y-30827
X51772Y-33465
X51870Y-32677
X51969Y-35039
X52264Y-33465
X52461Y-35138
X52559Y-32382
X52657Y-29823
X52894Y-39311
X52953Y-30906
X53740Y-32874
X54774Y-33415
X54921Y-32677
X55512Y-33465
X57894Y-39350
X58563Y-35236
X58917Y-39311
X59252Y-32776
X59449Y-28839
X59646Y-33169
X59941Y-28839
X59990Y-33366
X60236Y-32776
X60728Y-35236
X60906Y-39321
X63484Y-28346
X63878Y-28346
X64272Y-28346
X64419Y-33415
X64665Y-28346
X64961Y-38484
X65059Y-28740
X65059Y-29134
X65059Y-29528
X65059Y-29921
X65059Y-30315
T2
X48425Y-40206
X49425Y-40306
X50425Y-40206
X51425Y-40306
X52425Y-40206
X53425Y-40306
X54425Y-40206
X55425Y-40306
X56425Y-40206
X57425Y-40306
X58425Y-40206
X59425Y-40306
X60425Y-40206
X61425Y-40306
X62425Y-40206
X63425Y-40306
X64425Y-40206
T0
M30
