G04 #@! TF.GenerationSoftware,KiCad,Pcbnew,(5.1.2)-2*
G04 #@! TF.CreationDate,2019-11-23T11:21:10-08:00*
G04 #@! TF.ProjectId,precision-dac-cv-scaler,70726563-6973-4696-9f6e-2d6461632d63,rev?*
G04 #@! TF.SameCoordinates,Original*
G04 #@! TF.FileFunction,Legend,Top*
G04 #@! TF.FilePolarity,Positive*
%FSLAX46Y46*%
G04 Gerber Fmt 4.6, Leading zero omitted, Abs format (unit mm)*
G04 Created by KiCad (PCBNEW (5.1.2)-2) date 2019-11-23 11:21:10*
%MOMM*%
%LPD*%
G04 APERTURE LIST*
%ADD10C,0.120000*%
%ADD11C,0.150000*%
%ADD12C,0.203200*%
G04 APERTURE END LIST*
D10*
X127931608Y-87850000D02*
G75*
G03X127931608Y-87850000I-381608J0D01*
G01*
X147832843Y-80575000D02*
G75*
G03X147832843Y-80575000I-282843J0D01*
G01*
D11*
X163024880Y-99273809D02*
X163024880Y-99083333D01*
X163072500Y-98988095D01*
X163167738Y-98892857D01*
X163358214Y-98845237D01*
X163691547Y-98845237D01*
X163882023Y-98892857D01*
X163977261Y-98988095D01*
X164024880Y-99083333D01*
X164024880Y-99273809D01*
X163977261Y-99369047D01*
X163882023Y-99464285D01*
X163691547Y-99511904D01*
X163358214Y-99511904D01*
X163167738Y-99464285D01*
X163072500Y-99369047D01*
X163024880Y-99273809D01*
X163024880Y-98416666D02*
X163834404Y-98416666D01*
X163929642Y-98369047D01*
X163977261Y-98321428D01*
X164024880Y-98226190D01*
X164024880Y-98035714D01*
X163977261Y-97940476D01*
X163929642Y-97892857D01*
X163834404Y-97845237D01*
X163024880Y-97845237D01*
X163024880Y-97511904D02*
X163024880Y-96940476D01*
X164024880Y-97226190D02*
X163024880Y-97226190D01*
X164024880Y-95845237D02*
X163024880Y-95845237D01*
X163024880Y-95607142D01*
X163072500Y-95464285D01*
X163167738Y-95369047D01*
X163262976Y-95321428D01*
X163453452Y-95273809D01*
X163596309Y-95273809D01*
X163786785Y-95321428D01*
X163882023Y-95369047D01*
X163977261Y-95464285D01*
X164024880Y-95607142D01*
X164024880Y-95845237D01*
X160484880Y-99273809D02*
X160484880Y-99083333D01*
X160532500Y-98988095D01*
X160627738Y-98892857D01*
X160818214Y-98845237D01*
X161151547Y-98845237D01*
X161342023Y-98892857D01*
X161437261Y-98988095D01*
X161484880Y-99083333D01*
X161484880Y-99273809D01*
X161437261Y-99369047D01*
X161342023Y-99464285D01*
X161151547Y-99511904D01*
X160818214Y-99511904D01*
X160627738Y-99464285D01*
X160532500Y-99369047D01*
X160484880Y-99273809D01*
X160484880Y-98416666D02*
X161294404Y-98416666D01*
X161389642Y-98369047D01*
X161437261Y-98321428D01*
X161484880Y-98226190D01*
X161484880Y-98035714D01*
X161437261Y-97940476D01*
X161389642Y-97892857D01*
X161294404Y-97845237D01*
X160484880Y-97845237D01*
X160484880Y-97511904D02*
X160484880Y-96940476D01*
X161484880Y-97226190D02*
X160484880Y-97226190D01*
X161389642Y-95273809D02*
X161437261Y-95321428D01*
X161484880Y-95464285D01*
X161484880Y-95559523D01*
X161437261Y-95702380D01*
X161342023Y-95797618D01*
X161246785Y-95845237D01*
X161056309Y-95892857D01*
X160913452Y-95892857D01*
X160722976Y-95845237D01*
X160627738Y-95797618D01*
X160532500Y-95702380D01*
X160484880Y-95559523D01*
X160484880Y-95464285D01*
X160532500Y-95321428D01*
X160580119Y-95273809D01*
X157944880Y-99273809D02*
X157944880Y-99083333D01*
X157992500Y-98988095D01*
X158087738Y-98892857D01*
X158278214Y-98845237D01*
X158611547Y-98845237D01*
X158802023Y-98892857D01*
X158897261Y-98988095D01*
X158944880Y-99083333D01*
X158944880Y-99273809D01*
X158897261Y-99369047D01*
X158802023Y-99464285D01*
X158611547Y-99511904D01*
X158278214Y-99511904D01*
X158087738Y-99464285D01*
X157992500Y-99369047D01*
X157944880Y-99273809D01*
X157944880Y-98416666D02*
X158754404Y-98416666D01*
X158849642Y-98369047D01*
X158897261Y-98321428D01*
X158944880Y-98226190D01*
X158944880Y-98035714D01*
X158897261Y-97940476D01*
X158849642Y-97892857D01*
X158754404Y-97845237D01*
X157944880Y-97845237D01*
X157944880Y-97511904D02*
X157944880Y-96940476D01*
X158944880Y-97226190D02*
X157944880Y-97226190D01*
X158421071Y-95511904D02*
X158468690Y-95369047D01*
X158516309Y-95321428D01*
X158611547Y-95273809D01*
X158754404Y-95273809D01*
X158849642Y-95321428D01*
X158897261Y-95369047D01*
X158944880Y-95464285D01*
X158944880Y-95845237D01*
X157944880Y-95845237D01*
X157944880Y-95511904D01*
X157992500Y-95416666D01*
X158040119Y-95369047D01*
X158135357Y-95321428D01*
X158230595Y-95321428D01*
X158325833Y-95369047D01*
X158373452Y-95416666D01*
X158421071Y-95511904D01*
X158421071Y-95845237D01*
X155404880Y-99273809D02*
X155404880Y-99083333D01*
X155452500Y-98988095D01*
X155547738Y-98892857D01*
X155738214Y-98845238D01*
X156071547Y-98845238D01*
X156262023Y-98892857D01*
X156357261Y-98988095D01*
X156404880Y-99083333D01*
X156404880Y-99273809D01*
X156357261Y-99369047D01*
X156262023Y-99464286D01*
X156071547Y-99511905D01*
X155738214Y-99511905D01*
X155547738Y-99464286D01*
X155452500Y-99369047D01*
X155404880Y-99273809D01*
X155404880Y-98416666D02*
X156214404Y-98416666D01*
X156309642Y-98369047D01*
X156357261Y-98321428D01*
X156404880Y-98226190D01*
X156404880Y-98035714D01*
X156357261Y-97940476D01*
X156309642Y-97892857D01*
X156214404Y-97845238D01*
X155404880Y-97845238D01*
X155404880Y-97511905D02*
X155404880Y-96940476D01*
X156404880Y-97226190D02*
X155404880Y-97226190D01*
X156119166Y-95892857D02*
X156119166Y-95416666D01*
X156404880Y-95988095D02*
X155404880Y-95654762D01*
X156404880Y-95321428D01*
X153864880Y-98892857D02*
X153388690Y-99226190D01*
X153864880Y-99464285D02*
X152864880Y-99464285D01*
X152864880Y-99083333D01*
X152912500Y-98988095D01*
X152960119Y-98940476D01*
X153055357Y-98892857D01*
X153198214Y-98892857D01*
X153293452Y-98940476D01*
X153341071Y-98988095D01*
X153388690Y-99083333D01*
X153388690Y-99464285D01*
X153864880Y-98464285D02*
X152864880Y-98464285D01*
X153864880Y-97892857D01*
X152864880Y-97892857D01*
X152912500Y-96892857D02*
X152864880Y-96988095D01*
X152864880Y-97130952D01*
X152912500Y-97273809D01*
X153007738Y-97369047D01*
X153102976Y-97416666D01*
X153293452Y-97464285D01*
X153436309Y-97464285D01*
X153626785Y-97416666D01*
X153722023Y-97369047D01*
X153817261Y-97273809D01*
X153864880Y-97130952D01*
X153864880Y-97035714D01*
X153817261Y-96892857D01*
X153769642Y-96845238D01*
X153436309Y-96845238D01*
X153436309Y-97035714D01*
X153864880Y-95654761D02*
X152864880Y-95654761D01*
X152864880Y-95416666D01*
X152912500Y-95273809D01*
X153007738Y-95178571D01*
X153102976Y-95130952D01*
X153293452Y-95083333D01*
X153436309Y-95083333D01*
X153626785Y-95130952D01*
X153722023Y-95178571D01*
X153817261Y-95273809D01*
X153864880Y-95416666D01*
X153864880Y-95654761D01*
X151324880Y-98892857D02*
X150848690Y-99226190D01*
X151324880Y-99464285D02*
X150324880Y-99464285D01*
X150324880Y-99083333D01*
X150372500Y-98988095D01*
X150420119Y-98940476D01*
X150515357Y-98892857D01*
X150658214Y-98892857D01*
X150753452Y-98940476D01*
X150801071Y-98988095D01*
X150848690Y-99083333D01*
X150848690Y-99464285D01*
X151324880Y-98464285D02*
X150324880Y-98464285D01*
X151324880Y-97892857D01*
X150324880Y-97892857D01*
X150372500Y-96892857D02*
X150324880Y-96988095D01*
X150324880Y-97130952D01*
X150372500Y-97273809D01*
X150467738Y-97369047D01*
X150562976Y-97416666D01*
X150753452Y-97464285D01*
X150896309Y-97464285D01*
X151086785Y-97416666D01*
X151182023Y-97369047D01*
X151277261Y-97273809D01*
X151324880Y-97130952D01*
X151324880Y-97035714D01*
X151277261Y-96892857D01*
X151229642Y-96845238D01*
X150896309Y-96845238D01*
X150896309Y-97035714D01*
X151229642Y-95083333D02*
X151277261Y-95130952D01*
X151324880Y-95273809D01*
X151324880Y-95369047D01*
X151277261Y-95511904D01*
X151182023Y-95607142D01*
X151086785Y-95654761D01*
X150896309Y-95702380D01*
X150753452Y-95702380D01*
X150562976Y-95654761D01*
X150467738Y-95607142D01*
X150372500Y-95511904D01*
X150324880Y-95369047D01*
X150324880Y-95273809D01*
X150372500Y-95130952D01*
X150420119Y-95083333D01*
X148784880Y-98892857D02*
X148308690Y-99226190D01*
X148784880Y-99464285D02*
X147784880Y-99464285D01*
X147784880Y-99083333D01*
X147832500Y-98988095D01*
X147880119Y-98940476D01*
X147975357Y-98892857D01*
X148118214Y-98892857D01*
X148213452Y-98940476D01*
X148261071Y-98988095D01*
X148308690Y-99083333D01*
X148308690Y-99464285D01*
X148784880Y-98464285D02*
X147784880Y-98464285D01*
X148784880Y-97892857D01*
X147784880Y-97892857D01*
X147832500Y-96892857D02*
X147784880Y-96988095D01*
X147784880Y-97130952D01*
X147832500Y-97273809D01*
X147927738Y-97369047D01*
X148022976Y-97416666D01*
X148213452Y-97464285D01*
X148356309Y-97464285D01*
X148546785Y-97416666D01*
X148642023Y-97369047D01*
X148737261Y-97273809D01*
X148784880Y-97130952D01*
X148784880Y-97035714D01*
X148737261Y-96892857D01*
X148689642Y-96845238D01*
X148356309Y-96845238D01*
X148356309Y-97035714D01*
X148261071Y-95321428D02*
X148308690Y-95178571D01*
X148356309Y-95130952D01*
X148451547Y-95083333D01*
X148594404Y-95083333D01*
X148689642Y-95130952D01*
X148737261Y-95178571D01*
X148784880Y-95273809D01*
X148784880Y-95654761D01*
X147784880Y-95654761D01*
X147784880Y-95321428D01*
X147832500Y-95226190D01*
X147880119Y-95178571D01*
X147975357Y-95130952D01*
X148070595Y-95130952D01*
X148165833Y-95178571D01*
X148213452Y-95226190D01*
X148261071Y-95321428D01*
X148261071Y-95654761D01*
X146244880Y-98892857D02*
X145768690Y-99226190D01*
X146244880Y-99464286D02*
X145244880Y-99464286D01*
X145244880Y-99083333D01*
X145292500Y-98988095D01*
X145340119Y-98940476D01*
X145435357Y-98892857D01*
X145578214Y-98892857D01*
X145673452Y-98940476D01*
X145721071Y-98988095D01*
X145768690Y-99083333D01*
X145768690Y-99464286D01*
X146244880Y-98464286D02*
X145244880Y-98464286D01*
X146244880Y-97892857D01*
X145244880Y-97892857D01*
X145292500Y-96892857D02*
X145244880Y-96988095D01*
X145244880Y-97130952D01*
X145292500Y-97273809D01*
X145387738Y-97369048D01*
X145482976Y-97416667D01*
X145673452Y-97464286D01*
X145816309Y-97464286D01*
X146006785Y-97416667D01*
X146102023Y-97369048D01*
X146197261Y-97273809D01*
X146244880Y-97130952D01*
X146244880Y-97035714D01*
X146197261Y-96892857D01*
X146149642Y-96845238D01*
X145816309Y-96845238D01*
X145816309Y-97035714D01*
X145959166Y-95702381D02*
X145959166Y-95226190D01*
X146244880Y-95797619D02*
X145244880Y-95464286D01*
X146244880Y-95130952D01*
X143704880Y-99464285D02*
X142704880Y-99464285D01*
X142704880Y-99226190D01*
X142752500Y-99083333D01*
X142847738Y-98988095D01*
X142942976Y-98940476D01*
X143133452Y-98892857D01*
X143276309Y-98892857D01*
X143466785Y-98940476D01*
X143562023Y-98988095D01*
X143657261Y-99083333D01*
X143704880Y-99226190D01*
X143704880Y-99464285D01*
X143419166Y-98511904D02*
X143419166Y-98035714D01*
X143704880Y-98607142D02*
X142704880Y-98273809D01*
X143704880Y-97940476D01*
X143609642Y-97035714D02*
X143657261Y-97083333D01*
X143704880Y-97226190D01*
X143704880Y-97321428D01*
X143657261Y-97464285D01*
X143562023Y-97559523D01*
X143466785Y-97607142D01*
X143276309Y-97654761D01*
X143133452Y-97654761D01*
X142942976Y-97607142D01*
X142847738Y-97559523D01*
X142752500Y-97464285D01*
X142704880Y-97321428D01*
X142704880Y-97226190D01*
X142752500Y-97083333D01*
X142800119Y-97035714D01*
X143704880Y-95845237D02*
X142704880Y-95845237D01*
X142704880Y-95607142D01*
X142752500Y-95464285D01*
X142847738Y-95369047D01*
X142942976Y-95321428D01*
X143133452Y-95273809D01*
X143276309Y-95273809D01*
X143466785Y-95321428D01*
X143562023Y-95369047D01*
X143657261Y-95464285D01*
X143704880Y-95607142D01*
X143704880Y-95845237D01*
X141164880Y-99464285D02*
X140164880Y-99464285D01*
X140164880Y-99226190D01*
X140212500Y-99083333D01*
X140307738Y-98988095D01*
X140402976Y-98940476D01*
X140593452Y-98892857D01*
X140736309Y-98892857D01*
X140926785Y-98940476D01*
X141022023Y-98988095D01*
X141117261Y-99083333D01*
X141164880Y-99226190D01*
X141164880Y-99464285D01*
X140879166Y-98511904D02*
X140879166Y-98035714D01*
X141164880Y-98607142D02*
X140164880Y-98273809D01*
X141164880Y-97940476D01*
X141069642Y-97035714D02*
X141117261Y-97083333D01*
X141164880Y-97226190D01*
X141164880Y-97321428D01*
X141117261Y-97464285D01*
X141022023Y-97559523D01*
X140926785Y-97607142D01*
X140736309Y-97654761D01*
X140593452Y-97654761D01*
X140402976Y-97607142D01*
X140307738Y-97559523D01*
X140212500Y-97464285D01*
X140164880Y-97321428D01*
X140164880Y-97226190D01*
X140212500Y-97083333D01*
X140260119Y-97035714D01*
X141069642Y-95273809D02*
X141117261Y-95321428D01*
X141164880Y-95464285D01*
X141164880Y-95559523D01*
X141117261Y-95702380D01*
X141022023Y-95797618D01*
X140926785Y-95845237D01*
X140736309Y-95892857D01*
X140593452Y-95892857D01*
X140402976Y-95845237D01*
X140307738Y-95797618D01*
X140212500Y-95702380D01*
X140164880Y-95559523D01*
X140164880Y-95464285D01*
X140212500Y-95321428D01*
X140260119Y-95273809D01*
X138624880Y-99464285D02*
X137624880Y-99464285D01*
X137624880Y-99226190D01*
X137672500Y-99083333D01*
X137767738Y-98988095D01*
X137862976Y-98940476D01*
X138053452Y-98892857D01*
X138196309Y-98892857D01*
X138386785Y-98940476D01*
X138482023Y-98988095D01*
X138577261Y-99083333D01*
X138624880Y-99226190D01*
X138624880Y-99464285D01*
X138339166Y-98511904D02*
X138339166Y-98035714D01*
X138624880Y-98607142D02*
X137624880Y-98273809D01*
X138624880Y-97940476D01*
X138529642Y-97035714D02*
X138577261Y-97083333D01*
X138624880Y-97226190D01*
X138624880Y-97321428D01*
X138577261Y-97464285D01*
X138482023Y-97559523D01*
X138386785Y-97607142D01*
X138196309Y-97654761D01*
X138053452Y-97654761D01*
X137862976Y-97607142D01*
X137767738Y-97559523D01*
X137672500Y-97464285D01*
X137624880Y-97321428D01*
X137624880Y-97226190D01*
X137672500Y-97083333D01*
X137720119Y-97035714D01*
X138101071Y-95511904D02*
X138148690Y-95369047D01*
X138196309Y-95321428D01*
X138291547Y-95273809D01*
X138434404Y-95273809D01*
X138529642Y-95321428D01*
X138577261Y-95369047D01*
X138624880Y-95464285D01*
X138624880Y-95845237D01*
X137624880Y-95845237D01*
X137624880Y-95511904D01*
X137672500Y-95416666D01*
X137720119Y-95369047D01*
X137815357Y-95321428D01*
X137910595Y-95321428D01*
X138005833Y-95369047D01*
X138053452Y-95416666D01*
X138101071Y-95511904D01*
X138101071Y-95845237D01*
X136084880Y-99464286D02*
X135084880Y-99464286D01*
X135084880Y-99226190D01*
X135132500Y-99083333D01*
X135227738Y-98988095D01*
X135322976Y-98940476D01*
X135513452Y-98892857D01*
X135656309Y-98892857D01*
X135846785Y-98940476D01*
X135942023Y-98988095D01*
X136037261Y-99083333D01*
X136084880Y-99226190D01*
X136084880Y-99464286D01*
X135799166Y-98511905D02*
X135799166Y-98035714D01*
X136084880Y-98607143D02*
X135084880Y-98273809D01*
X136084880Y-97940476D01*
X135989642Y-97035714D02*
X136037261Y-97083333D01*
X136084880Y-97226190D01*
X136084880Y-97321428D01*
X136037261Y-97464286D01*
X135942023Y-97559524D01*
X135846785Y-97607143D01*
X135656309Y-97654762D01*
X135513452Y-97654762D01*
X135322976Y-97607143D01*
X135227738Y-97559524D01*
X135132500Y-97464286D01*
X135084880Y-97321428D01*
X135084880Y-97226190D01*
X135132500Y-97083333D01*
X135180119Y-97035714D01*
X135799166Y-95892857D02*
X135799166Y-95416666D01*
X136084880Y-95988095D02*
X135084880Y-95654762D01*
X136084880Y-95321428D01*
X132592500Y-98940476D02*
X132544880Y-99035714D01*
X132544880Y-99178572D01*
X132592500Y-99321429D01*
X132687738Y-99416667D01*
X132782976Y-99464286D01*
X132973452Y-99511905D01*
X133116309Y-99511905D01*
X133306785Y-99464286D01*
X133402023Y-99416667D01*
X133497261Y-99321429D01*
X133544880Y-99178572D01*
X133544880Y-99083333D01*
X133497261Y-98940476D01*
X133449642Y-98892857D01*
X133116309Y-98892857D01*
X133116309Y-99083333D01*
X133544880Y-98464286D02*
X132544880Y-98464286D01*
X133544880Y-97892857D01*
X132544880Y-97892857D01*
X133544880Y-97416667D02*
X132544880Y-97416667D01*
X132544880Y-97178572D01*
X132592500Y-97035714D01*
X132687738Y-96940476D01*
X132782976Y-96892857D01*
X132973452Y-96845238D01*
X133116309Y-96845238D01*
X133306785Y-96892857D01*
X133402023Y-96940476D01*
X133497261Y-97035714D01*
X133544880Y-97178572D01*
X133544880Y-97416667D01*
X130623928Y-99464285D02*
X130623928Y-98702380D01*
X131004880Y-99083333D02*
X130242976Y-99083333D01*
X130100119Y-98273809D02*
X130052500Y-98226190D01*
X130004880Y-98130952D01*
X130004880Y-97892857D01*
X130052500Y-97797619D01*
X130100119Y-97750000D01*
X130195357Y-97702380D01*
X130290595Y-97702380D01*
X130433452Y-97750000D01*
X131004880Y-98321428D01*
X131004880Y-97702380D01*
X130338214Y-97369047D02*
X131004880Y-97130952D01*
X130338214Y-96892857D01*
X130004880Y-96035714D02*
X130004880Y-96511904D01*
X130481071Y-96559523D01*
X130433452Y-96511904D01*
X130385833Y-96416666D01*
X130385833Y-96178571D01*
X130433452Y-96083333D01*
X130481071Y-96035714D01*
X130576309Y-95988095D01*
X130814404Y-95988095D01*
X130909642Y-96035714D01*
X130957261Y-96083333D01*
X131004880Y-96178571D01*
X131004880Y-96416666D01*
X130957261Y-96511904D01*
X130909642Y-96559523D01*
X128083928Y-99464285D02*
X128083928Y-98702380D01*
X128464880Y-99083333D02*
X127702976Y-99083333D01*
X127464880Y-98321428D02*
X127464880Y-97702380D01*
X127845833Y-98035714D01*
X127845833Y-97892857D01*
X127893452Y-97797619D01*
X127941071Y-97750000D01*
X128036309Y-97702380D01*
X128274404Y-97702380D01*
X128369642Y-97750000D01*
X128417261Y-97797619D01*
X128464880Y-97892857D01*
X128464880Y-98178571D01*
X128417261Y-98273809D01*
X128369642Y-98321428D01*
X127798214Y-97369047D02*
X128464880Y-97130952D01*
X127798214Y-96892857D01*
X127464880Y-96607142D02*
X127464880Y-95988095D01*
X127845833Y-96321428D01*
X127845833Y-96178571D01*
X127893452Y-96083333D01*
X127941071Y-96035714D01*
X128036309Y-95988095D01*
X128274404Y-95988095D01*
X128369642Y-96035714D01*
X128417261Y-96083333D01*
X128464880Y-96178571D01*
X128464880Y-96464285D01*
X128417261Y-96559523D01*
X128369642Y-96607142D01*
X125543928Y-99464285D02*
X125543928Y-98702380D01*
X125924880Y-97702380D02*
X125924880Y-98273809D01*
X125924880Y-97988095D02*
X124924880Y-97988095D01*
X125067738Y-98083333D01*
X125162976Y-98178571D01*
X125210595Y-98273809D01*
X125020119Y-97321428D02*
X124972500Y-97273809D01*
X124924880Y-97178571D01*
X124924880Y-96940476D01*
X124972500Y-96845238D01*
X125020119Y-96797619D01*
X125115357Y-96750000D01*
X125210595Y-96750000D01*
X125353452Y-96797619D01*
X125924880Y-97369047D01*
X125924880Y-96750000D01*
X125258214Y-96416666D02*
X125924880Y-96178571D01*
X125258214Y-95940476D01*
X123003928Y-99464285D02*
X123003928Y-98702380D01*
X123384880Y-99083333D02*
X122622976Y-99083333D01*
X123384880Y-97702380D02*
X123384880Y-98273809D01*
X123384880Y-97988095D02*
X122384880Y-97988095D01*
X122527738Y-98083333D01*
X122622976Y-98178571D01*
X122670595Y-98273809D01*
X122480119Y-97321428D02*
X122432500Y-97273809D01*
X122384880Y-97178571D01*
X122384880Y-96940476D01*
X122432500Y-96845238D01*
X122480119Y-96797619D01*
X122575357Y-96750000D01*
X122670595Y-96750000D01*
X122813452Y-96797619D01*
X123384880Y-97369047D01*
X123384880Y-96750000D01*
X122718214Y-96416666D02*
X123384880Y-96178571D01*
X122718214Y-95940476D01*
D12*
X162624000Y-102250000D02*
X162116000Y-102250000D01*
X160084000Y-102250000D02*
X159576000Y-102250000D01*
X157544000Y-102250000D02*
X157036000Y-102250000D01*
X155004000Y-102250000D02*
X154496000Y-102250000D01*
X152464000Y-102250000D02*
X151953460Y-102250000D01*
X149924000Y-102250000D02*
X149416000Y-102250000D01*
X147384000Y-102250000D02*
X146876000Y-102250000D01*
X144844000Y-102250000D02*
X144336000Y-102250000D01*
X142304000Y-102250000D02*
X141796000Y-102250000D01*
X139764000Y-102250000D02*
X139256000Y-102250000D01*
X137224000Y-102250000D02*
X136716000Y-102250000D01*
X134684000Y-102250000D02*
X134176000Y-102250000D01*
X132144000Y-102250000D02*
X131636000Y-102250000D01*
X129604000Y-102250000D02*
X129096000Y-102250000D01*
X127064000Y-102250000D02*
X126556000Y-102250000D01*
X124524000Y-102250000D02*
X124016000Y-102250000D01*
D10*
X145102064Y-82740000D02*
X143897936Y-82740000D01*
X145102064Y-84560000D02*
X143897936Y-84560000D01*
X159589564Y-84660000D02*
X158385436Y-84660000D01*
X159589564Y-82840000D02*
X158385436Y-82840000D01*
X125352064Y-81410000D02*
X124147936Y-81410000D01*
X125352064Y-79590000D02*
X124147936Y-79590000D01*
X162910000Y-88852064D02*
X162910000Y-87647936D01*
X161090000Y-88852064D02*
X161090000Y-87647936D01*
X141910000Y-77647936D02*
X141910000Y-78852064D01*
X140090000Y-77647936D02*
X140090000Y-78852064D01*
X161590000Y-77660436D02*
X161590000Y-78864564D01*
X163410000Y-77660436D02*
X163410000Y-78864564D01*
X140090000Y-88852064D02*
X140090000Y-87647936D01*
X141910000Y-88852064D02*
X141910000Y-87647936D01*
X125352064Y-87160000D02*
X124147936Y-87160000D01*
X125352064Y-85340000D02*
X124147936Y-85340000D01*
X125352064Y-82340000D02*
X124147936Y-82340000D01*
X125352064Y-84160000D02*
X124147936Y-84160000D01*
X152090000Y-89147936D02*
X152090000Y-90352064D01*
X153910000Y-89147936D02*
X153910000Y-90352064D01*
X150910000Y-77852064D02*
X150910000Y-76647936D01*
X149090000Y-77852064D02*
X149090000Y-76647936D01*
X158090000Y-88852064D02*
X158090000Y-87647936D01*
X159910000Y-88852064D02*
X159910000Y-87647936D01*
X144910000Y-77660436D02*
X144910000Y-78864564D01*
X143090000Y-77660436D02*
X143090000Y-78864564D01*
X155090000Y-90352064D02*
X155090000Y-89147936D01*
X156910000Y-90352064D02*
X156910000Y-89147936D01*
X146090000Y-77852064D02*
X146090000Y-76647936D01*
X147910000Y-77852064D02*
X147910000Y-76647936D01*
X152590000Y-77852064D02*
X152590000Y-76647936D01*
X154410000Y-77852064D02*
X154410000Y-76647936D01*
X150910000Y-89147936D02*
X150910000Y-90352064D01*
X149090000Y-89147936D02*
X149090000Y-90352064D01*
X158590000Y-77647936D02*
X158590000Y-78852064D01*
X160410000Y-77647936D02*
X160410000Y-78852064D01*
X144910000Y-88852064D02*
X144910000Y-87647936D01*
X143090000Y-88852064D02*
X143090000Y-87647936D01*
X155590000Y-76647936D02*
X155590000Y-77852064D01*
X157410000Y-76647936D02*
X157410000Y-77852064D01*
X147910000Y-90352064D02*
X147910000Y-89147936D01*
X146090000Y-90352064D02*
X146090000Y-89147936D01*
D11*
X149375000Y-81025000D02*
X149375000Y-81150000D01*
X154025000Y-81025000D02*
X154025000Y-81250000D01*
X154025000Y-86275000D02*
X154025000Y-86050000D01*
X149375000Y-86275000D02*
X149375000Y-86050000D01*
X149375000Y-81025000D02*
X154025000Y-81025000D01*
X149375000Y-86275000D02*
X154025000Y-86275000D01*
X149375000Y-81150000D02*
X148025000Y-81150000D01*
X134700000Y-85725000D02*
X134700000Y-81275000D01*
X127800000Y-87250000D02*
X127800000Y-81275000D01*
X140633333Y-83957142D02*
X140585714Y-84004761D01*
X140442857Y-84052380D01*
X140347619Y-84052380D01*
X140204761Y-84004761D01*
X140109523Y-83909523D01*
X140061904Y-83814285D01*
X140014285Y-83623809D01*
X140014285Y-83480952D01*
X140061904Y-83290476D01*
X140109523Y-83195238D01*
X140204761Y-83100000D01*
X140347619Y-83052380D01*
X140442857Y-83052380D01*
X140585714Y-83100000D01*
X140633333Y-83147619D01*
X141585714Y-84052380D02*
X141014285Y-84052380D01*
X141300000Y-84052380D02*
X141300000Y-83052380D01*
X141204761Y-83195238D01*
X141109523Y-83290476D01*
X141014285Y-83338095D01*
X162333333Y-84107142D02*
X162285714Y-84154761D01*
X162142857Y-84202380D01*
X162047619Y-84202380D01*
X161904761Y-84154761D01*
X161809523Y-84059523D01*
X161761904Y-83964285D01*
X161714285Y-83773809D01*
X161714285Y-83630952D01*
X161761904Y-83440476D01*
X161809523Y-83345238D01*
X161904761Y-83250000D01*
X162047619Y-83202380D01*
X162142857Y-83202380D01*
X162285714Y-83250000D01*
X162333333Y-83297619D01*
X162714285Y-83297619D02*
X162761904Y-83250000D01*
X162857142Y-83202380D01*
X163095238Y-83202380D01*
X163190476Y-83250000D01*
X163238095Y-83297619D01*
X163285714Y-83392857D01*
X163285714Y-83488095D01*
X163238095Y-83630952D01*
X162666666Y-84202380D01*
X163285714Y-84202380D01*
X121957142Y-80566666D02*
X122004761Y-80614285D01*
X122052380Y-80757142D01*
X122052380Y-80852380D01*
X122004761Y-80995238D01*
X121909523Y-81090476D01*
X121814285Y-81138095D01*
X121623809Y-81185714D01*
X121480952Y-81185714D01*
X121290476Y-81138095D01*
X121195238Y-81090476D01*
X121100000Y-80995238D01*
X121052380Y-80852380D01*
X121052380Y-80757142D01*
X121100000Y-80614285D01*
X121147619Y-80566666D01*
X121052380Y-80233333D02*
X121052380Y-79614285D01*
X121433333Y-79947619D01*
X121433333Y-79804761D01*
X121480952Y-79709523D01*
X121528571Y-79661904D01*
X121623809Y-79614285D01*
X121861904Y-79614285D01*
X121957142Y-79661904D01*
X122004761Y-79709523D01*
X122052380Y-79804761D01*
X122052380Y-80090476D01*
X122004761Y-80185714D01*
X121957142Y-80233333D01*
X161833333Y-91857142D02*
X161785714Y-91904761D01*
X161642857Y-91952380D01*
X161547619Y-91952380D01*
X161404761Y-91904761D01*
X161309523Y-91809523D01*
X161261904Y-91714285D01*
X161214285Y-91523809D01*
X161214285Y-91380952D01*
X161261904Y-91190476D01*
X161309523Y-91095238D01*
X161404761Y-91000000D01*
X161547619Y-90952380D01*
X161642857Y-90952380D01*
X161785714Y-91000000D01*
X161833333Y-91047619D01*
X162690476Y-91285714D02*
X162690476Y-91952380D01*
X162452380Y-90904761D02*
X162214285Y-91619047D01*
X162833333Y-91619047D01*
X140833333Y-75357142D02*
X140785714Y-75404761D01*
X140642857Y-75452380D01*
X140547619Y-75452380D01*
X140404761Y-75404761D01*
X140309523Y-75309523D01*
X140261904Y-75214285D01*
X140214285Y-75023809D01*
X140214285Y-74880952D01*
X140261904Y-74690476D01*
X140309523Y-74595238D01*
X140404761Y-74500000D01*
X140547619Y-74452380D01*
X140642857Y-74452380D01*
X140785714Y-74500000D01*
X140833333Y-74547619D01*
X141738095Y-74452380D02*
X141261904Y-74452380D01*
X141214285Y-74928571D01*
X141261904Y-74880952D01*
X141357142Y-74833333D01*
X141595238Y-74833333D01*
X141690476Y-74880952D01*
X141738095Y-74928571D01*
X141785714Y-75023809D01*
X141785714Y-75261904D01*
X141738095Y-75357142D01*
X141690476Y-75404761D01*
X141595238Y-75452380D01*
X141357142Y-75452380D01*
X141261904Y-75404761D01*
X141214285Y-75357142D01*
X162333333Y-75357142D02*
X162285714Y-75404761D01*
X162142857Y-75452380D01*
X162047619Y-75452380D01*
X161904761Y-75404761D01*
X161809523Y-75309523D01*
X161761904Y-75214285D01*
X161714285Y-75023809D01*
X161714285Y-74880952D01*
X161761904Y-74690476D01*
X161809523Y-74595238D01*
X161904761Y-74500000D01*
X162047619Y-74452380D01*
X162142857Y-74452380D01*
X162285714Y-74500000D01*
X162333333Y-74547619D01*
X163190476Y-74452380D02*
X163000000Y-74452380D01*
X162904761Y-74500000D01*
X162857142Y-74547619D01*
X162761904Y-74690476D01*
X162714285Y-74880952D01*
X162714285Y-75261904D01*
X162761904Y-75357142D01*
X162809523Y-75404761D01*
X162904761Y-75452380D01*
X163095238Y-75452380D01*
X163190476Y-75404761D01*
X163238095Y-75357142D01*
X163285714Y-75261904D01*
X163285714Y-75023809D01*
X163238095Y-74928571D01*
X163190476Y-74880952D01*
X163095238Y-74833333D01*
X162904761Y-74833333D01*
X162809523Y-74880952D01*
X162761904Y-74928571D01*
X162714285Y-75023809D01*
X140833333Y-91957142D02*
X140785714Y-92004761D01*
X140642857Y-92052380D01*
X140547619Y-92052380D01*
X140404761Y-92004761D01*
X140309523Y-91909523D01*
X140261904Y-91814285D01*
X140214285Y-91623809D01*
X140214285Y-91480952D01*
X140261904Y-91290476D01*
X140309523Y-91195238D01*
X140404761Y-91100000D01*
X140547619Y-91052380D01*
X140642857Y-91052380D01*
X140785714Y-91100000D01*
X140833333Y-91147619D01*
X141166666Y-91052380D02*
X141833333Y-91052380D01*
X141404761Y-92052380D01*
X122052380Y-86366666D02*
X121576190Y-86700000D01*
X122052380Y-86938095D02*
X121052380Y-86938095D01*
X121052380Y-86557142D01*
X121100000Y-86461904D01*
X121147619Y-86414285D01*
X121242857Y-86366666D01*
X121385714Y-86366666D01*
X121480952Y-86414285D01*
X121528571Y-86461904D01*
X121576190Y-86557142D01*
X121576190Y-86938095D01*
X122052380Y-85414285D02*
X122052380Y-85985714D01*
X122052380Y-85700000D02*
X121052380Y-85700000D01*
X121195238Y-85795238D01*
X121290476Y-85890476D01*
X121338095Y-85985714D01*
X122052380Y-83366666D02*
X121576190Y-83700000D01*
X122052380Y-83938095D02*
X121052380Y-83938095D01*
X121052380Y-83557142D01*
X121100000Y-83461904D01*
X121147619Y-83414285D01*
X121242857Y-83366666D01*
X121385714Y-83366666D01*
X121480952Y-83414285D01*
X121528571Y-83461904D01*
X121576190Y-83557142D01*
X121576190Y-83938095D01*
X121147619Y-82985714D02*
X121100000Y-82938095D01*
X121052380Y-82842857D01*
X121052380Y-82604761D01*
X121100000Y-82509523D01*
X121147619Y-82461904D01*
X121242857Y-82414285D01*
X121338095Y-82414285D01*
X121480952Y-82461904D01*
X122052380Y-83033333D01*
X122052380Y-82414285D01*
X152833333Y-93452380D02*
X152500000Y-92976190D01*
X152261904Y-93452380D02*
X152261904Y-92452380D01*
X152642857Y-92452380D01*
X152738095Y-92500000D01*
X152785714Y-92547619D01*
X152833333Y-92642857D01*
X152833333Y-92785714D01*
X152785714Y-92880952D01*
X152738095Y-92928571D01*
X152642857Y-92976190D01*
X152261904Y-92976190D01*
X153166666Y-92452380D02*
X153785714Y-92452380D01*
X153452380Y-92833333D01*
X153595238Y-92833333D01*
X153690476Y-92880952D01*
X153738095Y-92928571D01*
X153785714Y-93023809D01*
X153785714Y-93261904D01*
X153738095Y-93357142D01*
X153690476Y-93404761D01*
X153595238Y-93452380D01*
X153309523Y-93452380D01*
X153214285Y-93404761D01*
X153166666Y-93357142D01*
X149833333Y-74452380D02*
X149500000Y-73976190D01*
X149261904Y-74452380D02*
X149261904Y-73452380D01*
X149642857Y-73452380D01*
X149738095Y-73500000D01*
X149785714Y-73547619D01*
X149833333Y-73642857D01*
X149833333Y-73785714D01*
X149785714Y-73880952D01*
X149738095Y-73928571D01*
X149642857Y-73976190D01*
X149261904Y-73976190D01*
X150690476Y-73785714D02*
X150690476Y-74452380D01*
X150452380Y-73404761D02*
X150214285Y-74119047D01*
X150833333Y-74119047D01*
X158833333Y-91952380D02*
X158500000Y-91476190D01*
X158261904Y-91952380D02*
X158261904Y-90952380D01*
X158642857Y-90952380D01*
X158738095Y-91000000D01*
X158785714Y-91047619D01*
X158833333Y-91142857D01*
X158833333Y-91285714D01*
X158785714Y-91380952D01*
X158738095Y-91428571D01*
X158642857Y-91476190D01*
X158261904Y-91476190D01*
X159738095Y-90952380D02*
X159261904Y-90952380D01*
X159214285Y-91428571D01*
X159261904Y-91380952D01*
X159357142Y-91333333D01*
X159595238Y-91333333D01*
X159690476Y-91380952D01*
X159738095Y-91428571D01*
X159785714Y-91523809D01*
X159785714Y-91761904D01*
X159738095Y-91857142D01*
X159690476Y-91904761D01*
X159595238Y-91952380D01*
X159357142Y-91952380D01*
X159261904Y-91904761D01*
X159214285Y-91857142D01*
X143833333Y-75452380D02*
X143500000Y-74976190D01*
X143261904Y-75452380D02*
X143261904Y-74452380D01*
X143642857Y-74452380D01*
X143738095Y-74500000D01*
X143785714Y-74547619D01*
X143833333Y-74642857D01*
X143833333Y-74785714D01*
X143785714Y-74880952D01*
X143738095Y-74928571D01*
X143642857Y-74976190D01*
X143261904Y-74976190D01*
X144690476Y-74452380D02*
X144500000Y-74452380D01*
X144404761Y-74500000D01*
X144357142Y-74547619D01*
X144261904Y-74690476D01*
X144214285Y-74880952D01*
X144214285Y-75261904D01*
X144261904Y-75357142D01*
X144309523Y-75404761D01*
X144404761Y-75452380D01*
X144595238Y-75452380D01*
X144690476Y-75404761D01*
X144738095Y-75357142D01*
X144785714Y-75261904D01*
X144785714Y-75023809D01*
X144738095Y-74928571D01*
X144690476Y-74880952D01*
X144595238Y-74833333D01*
X144404761Y-74833333D01*
X144309523Y-74880952D01*
X144261904Y-74928571D01*
X144214285Y-75023809D01*
X155833333Y-93452380D02*
X155500000Y-92976190D01*
X155261904Y-93452380D02*
X155261904Y-92452380D01*
X155642857Y-92452380D01*
X155738095Y-92500000D01*
X155785714Y-92547619D01*
X155833333Y-92642857D01*
X155833333Y-92785714D01*
X155785714Y-92880952D01*
X155738095Y-92928571D01*
X155642857Y-92976190D01*
X155261904Y-92976190D01*
X156166666Y-92452380D02*
X156833333Y-92452380D01*
X156404761Y-93452380D01*
X146833333Y-74452380D02*
X146500000Y-73976190D01*
X146261904Y-74452380D02*
X146261904Y-73452380D01*
X146642857Y-73452380D01*
X146738095Y-73500000D01*
X146785714Y-73547619D01*
X146833333Y-73642857D01*
X146833333Y-73785714D01*
X146785714Y-73880952D01*
X146738095Y-73928571D01*
X146642857Y-73976190D01*
X146261904Y-73976190D01*
X147404761Y-73880952D02*
X147309523Y-73833333D01*
X147261904Y-73785714D01*
X147214285Y-73690476D01*
X147214285Y-73642857D01*
X147261904Y-73547619D01*
X147309523Y-73500000D01*
X147404761Y-73452380D01*
X147595238Y-73452380D01*
X147690476Y-73500000D01*
X147738095Y-73547619D01*
X147785714Y-73642857D01*
X147785714Y-73690476D01*
X147738095Y-73785714D01*
X147690476Y-73833333D01*
X147595238Y-73880952D01*
X147404761Y-73880952D01*
X147309523Y-73928571D01*
X147261904Y-73976190D01*
X147214285Y-74071428D01*
X147214285Y-74261904D01*
X147261904Y-74357142D01*
X147309523Y-74404761D01*
X147404761Y-74452380D01*
X147595238Y-74452380D01*
X147690476Y-74404761D01*
X147738095Y-74357142D01*
X147785714Y-74261904D01*
X147785714Y-74071428D01*
X147738095Y-73976190D01*
X147690476Y-73928571D01*
X147595238Y-73880952D01*
X153333333Y-74452380D02*
X153000000Y-73976190D01*
X152761904Y-74452380D02*
X152761904Y-73452380D01*
X153142857Y-73452380D01*
X153238095Y-73500000D01*
X153285714Y-73547619D01*
X153333333Y-73642857D01*
X153333333Y-73785714D01*
X153285714Y-73880952D01*
X153238095Y-73928571D01*
X153142857Y-73976190D01*
X152761904Y-73976190D01*
X153809523Y-74452380D02*
X154000000Y-74452380D01*
X154095238Y-74404761D01*
X154142857Y-74357142D01*
X154238095Y-74214285D01*
X154285714Y-74023809D01*
X154285714Y-73642857D01*
X154238095Y-73547619D01*
X154190476Y-73500000D01*
X154095238Y-73452380D01*
X153904761Y-73452380D01*
X153809523Y-73500000D01*
X153761904Y-73547619D01*
X153714285Y-73642857D01*
X153714285Y-73880952D01*
X153761904Y-73976190D01*
X153809523Y-74023809D01*
X153904761Y-74071428D01*
X154095238Y-74071428D01*
X154190476Y-74023809D01*
X154238095Y-73976190D01*
X154285714Y-73880952D01*
X149357142Y-93452380D02*
X149023809Y-92976190D01*
X148785714Y-93452380D02*
X148785714Y-92452380D01*
X149166666Y-92452380D01*
X149261904Y-92500000D01*
X149309523Y-92547619D01*
X149357142Y-92642857D01*
X149357142Y-92785714D01*
X149309523Y-92880952D01*
X149261904Y-92928571D01*
X149166666Y-92976190D01*
X148785714Y-92976190D01*
X150309523Y-93452380D02*
X149738095Y-93452380D01*
X150023809Y-93452380D02*
X150023809Y-92452380D01*
X149928571Y-92595238D01*
X149833333Y-92690476D01*
X149738095Y-92738095D01*
X150928571Y-92452380D02*
X151023809Y-92452380D01*
X151119047Y-92500000D01*
X151166666Y-92547619D01*
X151214285Y-92642857D01*
X151261904Y-92833333D01*
X151261904Y-93071428D01*
X151214285Y-93261904D01*
X151166666Y-93357142D01*
X151119047Y-93404761D01*
X151023809Y-93452380D01*
X150928571Y-93452380D01*
X150833333Y-93404761D01*
X150785714Y-93357142D01*
X150738095Y-93261904D01*
X150690476Y-93071428D01*
X150690476Y-92833333D01*
X150738095Y-92642857D01*
X150785714Y-92547619D01*
X150833333Y-92500000D01*
X150928571Y-92452380D01*
X158857142Y-75452380D02*
X158523809Y-74976190D01*
X158285714Y-75452380D02*
X158285714Y-74452380D01*
X158666666Y-74452380D01*
X158761904Y-74500000D01*
X158809523Y-74547619D01*
X158857142Y-74642857D01*
X158857142Y-74785714D01*
X158809523Y-74880952D01*
X158761904Y-74928571D01*
X158666666Y-74976190D01*
X158285714Y-74976190D01*
X159809523Y-75452380D02*
X159238095Y-75452380D01*
X159523809Y-75452380D02*
X159523809Y-74452380D01*
X159428571Y-74595238D01*
X159333333Y-74690476D01*
X159238095Y-74738095D01*
X160761904Y-75452380D02*
X160190476Y-75452380D01*
X160476190Y-75452380D02*
X160476190Y-74452380D01*
X160380952Y-74595238D01*
X160285714Y-74690476D01*
X160190476Y-74738095D01*
X143357142Y-92052380D02*
X143023809Y-91576190D01*
X142785714Y-92052380D02*
X142785714Y-91052380D01*
X143166666Y-91052380D01*
X143261904Y-91100000D01*
X143309523Y-91147619D01*
X143357142Y-91242857D01*
X143357142Y-91385714D01*
X143309523Y-91480952D01*
X143261904Y-91528571D01*
X143166666Y-91576190D01*
X142785714Y-91576190D01*
X144309523Y-92052380D02*
X143738095Y-92052380D01*
X144023809Y-92052380D02*
X144023809Y-91052380D01*
X143928571Y-91195238D01*
X143833333Y-91290476D01*
X143738095Y-91338095D01*
X144690476Y-91147619D02*
X144738095Y-91100000D01*
X144833333Y-91052380D01*
X145071428Y-91052380D01*
X145166666Y-91100000D01*
X145214285Y-91147619D01*
X145261904Y-91242857D01*
X145261904Y-91338095D01*
X145214285Y-91480952D01*
X144642857Y-92052380D01*
X145261904Y-92052380D01*
X155857142Y-74452380D02*
X155523809Y-73976190D01*
X155285714Y-74452380D02*
X155285714Y-73452380D01*
X155666666Y-73452380D01*
X155761904Y-73500000D01*
X155809523Y-73547619D01*
X155857142Y-73642857D01*
X155857142Y-73785714D01*
X155809523Y-73880952D01*
X155761904Y-73928571D01*
X155666666Y-73976190D01*
X155285714Y-73976190D01*
X156809523Y-74452380D02*
X156238095Y-74452380D01*
X156523809Y-74452380D02*
X156523809Y-73452380D01*
X156428571Y-73595238D01*
X156333333Y-73690476D01*
X156238095Y-73738095D01*
X157142857Y-73452380D02*
X157761904Y-73452380D01*
X157428571Y-73833333D01*
X157571428Y-73833333D01*
X157666666Y-73880952D01*
X157714285Y-73928571D01*
X157761904Y-74023809D01*
X157761904Y-74261904D01*
X157714285Y-74357142D01*
X157666666Y-74404761D01*
X157571428Y-74452380D01*
X157285714Y-74452380D01*
X157190476Y-74404761D01*
X157142857Y-74357142D01*
X146357142Y-93452380D02*
X146023809Y-92976190D01*
X145785714Y-93452380D02*
X145785714Y-92452380D01*
X146166666Y-92452380D01*
X146261904Y-92500000D01*
X146309523Y-92547619D01*
X146357142Y-92642857D01*
X146357142Y-92785714D01*
X146309523Y-92880952D01*
X146261904Y-92928571D01*
X146166666Y-92976190D01*
X145785714Y-92976190D01*
X147309523Y-93452380D02*
X146738095Y-93452380D01*
X147023809Y-93452380D02*
X147023809Y-92452380D01*
X146928571Y-92595238D01*
X146833333Y-92690476D01*
X146738095Y-92738095D01*
X148166666Y-92785714D02*
X148166666Y-93452380D01*
X147928571Y-92404761D02*
X147690476Y-93119047D01*
X148309523Y-93119047D01*
X150938095Y-82952380D02*
X150938095Y-83761904D01*
X150985714Y-83857142D01*
X151033333Y-83904761D01*
X151128571Y-83952380D01*
X151319047Y-83952380D01*
X151414285Y-83904761D01*
X151461904Y-83857142D01*
X151509523Y-83761904D01*
X151509523Y-82952380D01*
X152509523Y-83952380D02*
X151938095Y-83952380D01*
X152223809Y-83952380D02*
X152223809Y-82952380D01*
X152128571Y-83095238D01*
X152033333Y-83190476D01*
X151938095Y-83238095D01*
X130238095Y-83052380D02*
X130238095Y-83861904D01*
X130285714Y-83957142D01*
X130333333Y-84004761D01*
X130428571Y-84052380D01*
X130619047Y-84052380D01*
X130714285Y-84004761D01*
X130761904Y-83957142D01*
X130809523Y-83861904D01*
X130809523Y-83052380D01*
X131238095Y-83147619D02*
X131285714Y-83100000D01*
X131380952Y-83052380D01*
X131619047Y-83052380D01*
X131714285Y-83100000D01*
X131761904Y-83147619D01*
X131809523Y-83242857D01*
X131809523Y-83338095D01*
X131761904Y-83480952D01*
X131190476Y-84052380D01*
X131809523Y-84052380D01*
M02*
