G04 #@! TF.GenerationSoftware,KiCad,Pcbnew,(5.1.2)-2*
G04 #@! TF.CreationDate,2019-11-23T11:21:10-08:00*
G04 #@! TF.ProjectId,precision-dac-cv-scaler,70726563-6973-4696-9f6e-2d6461632d63,rev?*
G04 #@! TF.SameCoordinates,Original*
G04 #@! TF.FileFunction,Copper,L2,Bot*
G04 #@! TF.FilePolarity,Positive*
%FSLAX46Y46*%
G04 Gerber Fmt 4.6, Leading zero omitted, Abs format (unit mm)*
G04 Created by KiCad (PCBNEW (5.1.2)-2) date 2019-11-23 11:21:10*
%MOMM*%
%LPD*%
G04 APERTURE LIST*
%ADD10O,1.524000X3.048000*%
%ADD11C,0.800000*%
%ADD12C,0.150000*%
%ADD13C,0.254000*%
G04 APERTURE END LIST*
D10*
X163640000Y-102123000D03*
X161100000Y-102377000D03*
X158560000Y-102123000D03*
X156020000Y-102377000D03*
X153480000Y-102123000D03*
X150940000Y-102377000D03*
X148400000Y-102123000D03*
X145860000Y-102377000D03*
X143320000Y-102123000D03*
X140780000Y-102377000D03*
X138240000Y-102123000D03*
X135700000Y-102377000D03*
X133160000Y-102123000D03*
X130620000Y-102377000D03*
X128080000Y-102123000D03*
X125540000Y-102377000D03*
X123000000Y-102123000D03*
D11*
X131500000Y-78300000D03*
X139125000Y-84875000D03*
X165000000Y-97750000D03*
X163625000Y-84875000D03*
X165250000Y-73000000D03*
X165250000Y-74000000D03*
X165250000Y-75000000D03*
X165250000Y-76000000D03*
X165250000Y-77000000D03*
X121000000Y-72750000D03*
X121000000Y-73750000D03*
X121000000Y-74750000D03*
X121000000Y-75750000D03*
X121000000Y-76750000D03*
X121000000Y-77750000D03*
X136500000Y-83500000D03*
X141000000Y-85000000D03*
X139500000Y-83000000D03*
X124750000Y-80500000D03*
X124750000Y-83250000D03*
X124750000Y-86250000D03*
X129000000Y-84500000D03*
X134500000Y-78500000D03*
X122000000Y-71750000D03*
X123000000Y-71750000D03*
X124000000Y-71750000D03*
X164250000Y-72000000D03*
X163250000Y-72000000D03*
X162250000Y-72000000D03*
X161250000Y-72000000D03*
X125000000Y-71750000D03*
X147050000Y-99950000D03*
X149650000Y-99850000D03*
X154700000Y-99875000D03*
X134350000Y-99850000D03*
X131750000Y-83000000D03*
X131500000Y-85000000D03*
X154250000Y-89500000D03*
X152250000Y-73250000D03*
X148750000Y-89500000D03*
X151000000Y-73250000D03*
X133750000Y-75750000D03*
X132750000Y-85000000D03*
X150500000Y-83250000D03*
X151500000Y-84250000D03*
X152374990Y-84750000D03*
X153000000Y-83250000D03*
X133500000Y-82250000D03*
X132000000Y-89000000D03*
X133250000Y-89250000D03*
X128000000Y-78750000D03*
D12*
X132250000Y-91750000D02*
X139125000Y-84875000D01*
X130500000Y-91750000D02*
X132250000Y-91750000D01*
X123000000Y-99250000D02*
X123000000Y-102123000D01*
X126750000Y-95500000D02*
X123000000Y-99250000D01*
X126500000Y-95750000D02*
X126750000Y-95500000D01*
X126750000Y-95500000D02*
X130500000Y-91750000D01*
X165000000Y-97750000D02*
X165000000Y-86250000D01*
X165000000Y-86250000D02*
X163625000Y-84875000D01*
X131750000Y-83000000D02*
X131750000Y-84750000D01*
X131750000Y-84750000D02*
X131500000Y-85000000D01*
X154649999Y-89100001D02*
X154649999Y-81899999D01*
X154250000Y-89500000D02*
X154649999Y-89100001D01*
X154649999Y-81899999D02*
X152250000Y-79500000D01*
X152250000Y-79500000D02*
X152250000Y-73250000D01*
X148750000Y-89500000D02*
X148750000Y-82000000D01*
X148750000Y-82000000D02*
X151000000Y-79750000D01*
X151000000Y-79750000D02*
X151000000Y-73250000D01*
X133750000Y-75750000D02*
X132750000Y-76750000D01*
X132750000Y-76750000D02*
X132750000Y-85000000D01*
X135700000Y-101615000D02*
X135700000Y-102377000D01*
X139565000Y-97750000D02*
X135700000Y-101615000D01*
X146750000Y-97750000D02*
X139565000Y-97750000D01*
X150500000Y-94000000D02*
X146750000Y-97750000D01*
X150500000Y-83250000D02*
X150500000Y-94000000D01*
X151500000Y-84250000D02*
X151500000Y-89500000D01*
X151500000Y-89500000D02*
X151500000Y-89624990D01*
X138240000Y-101361000D02*
X141351000Y-98250000D01*
X138240000Y-102123000D02*
X138240000Y-101361000D01*
X141351000Y-98250000D02*
X147250000Y-98250000D01*
X151500000Y-94000000D02*
X151500000Y-93750000D01*
X147250000Y-98250000D02*
X151500000Y-94000000D01*
X151500000Y-89500000D02*
X151500000Y-93750000D01*
X152374990Y-84750000D02*
X152374990Y-91124990D01*
X152374990Y-91124990D02*
X152374990Y-91250000D01*
X140780000Y-102377000D02*
X140780000Y-101615000D01*
X140780000Y-101615000D02*
X143695011Y-98699989D01*
X143695011Y-98699989D02*
X147550011Y-98699989D01*
X152374990Y-93875010D02*
X152374990Y-91124990D01*
X147550011Y-98699989D02*
X152374990Y-93875010D01*
X143320000Y-102123000D02*
X143320000Y-99930000D01*
X143320000Y-99930000D02*
X144250000Y-99000000D01*
X144250000Y-99000000D02*
X148000000Y-99000000D01*
X153000000Y-94000000D02*
X153000000Y-91500000D01*
X148000000Y-99000000D02*
X153000000Y-94000000D01*
X153000000Y-83250000D02*
X153000000Y-91500000D01*
X153000000Y-91500000D02*
X153000000Y-91968715D01*
X133500000Y-82250000D02*
X133500000Y-87500000D01*
X133500000Y-87500000D02*
X132000000Y-89000000D01*
X132250000Y-90250000D02*
X133250000Y-89250000D01*
X128750000Y-81762340D02*
X130500000Y-83512340D01*
X128000000Y-78750000D02*
X128750000Y-81762340D01*
X130500000Y-83512340D02*
X130500000Y-89000000D01*
X130500000Y-89000000D02*
X131750000Y-90250000D01*
X131750000Y-90250000D02*
X132250000Y-90250000D01*
D13*
G36*
X150290000Y-79455909D02*
G01*
X148272617Y-81473292D01*
X148245526Y-81495525D01*
X148223293Y-81522616D01*
X148156801Y-81603637D01*
X148090872Y-81726981D01*
X148050274Y-81860816D01*
X148036565Y-82000000D01*
X148040001Y-82034885D01*
X148040000Y-88746289D01*
X147946063Y-88840226D01*
X147832795Y-89009744D01*
X147754774Y-89198102D01*
X147715000Y-89398061D01*
X147715000Y-89601939D01*
X147754774Y-89801898D01*
X147832795Y-89990256D01*
X147946063Y-90159774D01*
X148090226Y-90303937D01*
X148259744Y-90417205D01*
X148448102Y-90495226D01*
X148648061Y-90535000D01*
X148851939Y-90535000D01*
X149051898Y-90495226D01*
X149240256Y-90417205D01*
X149409774Y-90303937D01*
X149553937Y-90159774D01*
X149667205Y-89990256D01*
X149745226Y-89801898D01*
X149785000Y-89601939D01*
X149785000Y-89398061D01*
X149745226Y-89198102D01*
X149667205Y-89009744D01*
X149553937Y-88840226D01*
X149460000Y-88746289D01*
X149460000Y-82294091D01*
X151477383Y-80276708D01*
X151504474Y-80254475D01*
X151593200Y-80146363D01*
X151659128Y-80023020D01*
X151672972Y-79977384D01*
X151686552Y-79932615D01*
X151745525Y-80004474D01*
X151772617Y-80026708D01*
X153940000Y-82194092D01*
X153940000Y-82814775D01*
X153917205Y-82759744D01*
X153803937Y-82590226D01*
X153659774Y-82446063D01*
X153490256Y-82332795D01*
X153301898Y-82254774D01*
X153101939Y-82215000D01*
X152898061Y-82215000D01*
X152698102Y-82254774D01*
X152509744Y-82332795D01*
X152340226Y-82446063D01*
X152196063Y-82590226D01*
X152082795Y-82759744D01*
X152004774Y-82948102D01*
X151965000Y-83148061D01*
X151965000Y-83322334D01*
X151801898Y-83254774D01*
X151601939Y-83215000D01*
X151535000Y-83215000D01*
X151535000Y-83148061D01*
X151495226Y-82948102D01*
X151417205Y-82759744D01*
X151303937Y-82590226D01*
X151159774Y-82446063D01*
X150990256Y-82332795D01*
X150801898Y-82254774D01*
X150601939Y-82215000D01*
X150398061Y-82215000D01*
X150198102Y-82254774D01*
X150009744Y-82332795D01*
X149840226Y-82446063D01*
X149696063Y-82590226D01*
X149582795Y-82759744D01*
X149504774Y-82948102D01*
X149465000Y-83148061D01*
X149465000Y-83351939D01*
X149504774Y-83551898D01*
X149582795Y-83740256D01*
X149696063Y-83909774D01*
X149790000Y-84003711D01*
X149790001Y-92873000D01*
X137377000Y-92873000D01*
X137377000Y-87627092D01*
X139094092Y-85910000D01*
X139226939Y-85910000D01*
X139426898Y-85870226D01*
X139615256Y-85792205D01*
X139784774Y-85678937D01*
X139928937Y-85534774D01*
X140042205Y-85365256D01*
X140120226Y-85176898D01*
X140160000Y-84976939D01*
X140160000Y-84773061D01*
X140120226Y-84573102D01*
X140042205Y-84384744D01*
X139928937Y-84215226D01*
X139784774Y-84071063D01*
X139615256Y-83957795D01*
X139426898Y-83879774D01*
X139226939Y-83840000D01*
X139023061Y-83840000D01*
X138823102Y-83879774D01*
X138634744Y-83957795D01*
X138465226Y-84071063D01*
X138321063Y-84215226D01*
X138207795Y-84384744D01*
X138129774Y-84573102D01*
X138090000Y-84773061D01*
X138090000Y-84905908D01*
X137377000Y-85618908D01*
X137377000Y-74377000D01*
X150290001Y-74377000D01*
X150290000Y-79455909D01*
X150290000Y-79455909D01*
G37*
X150290000Y-79455909D02*
X148272617Y-81473292D01*
X148245526Y-81495525D01*
X148223293Y-81522616D01*
X148156801Y-81603637D01*
X148090872Y-81726981D01*
X148050274Y-81860816D01*
X148036565Y-82000000D01*
X148040001Y-82034885D01*
X148040000Y-88746289D01*
X147946063Y-88840226D01*
X147832795Y-89009744D01*
X147754774Y-89198102D01*
X147715000Y-89398061D01*
X147715000Y-89601939D01*
X147754774Y-89801898D01*
X147832795Y-89990256D01*
X147946063Y-90159774D01*
X148090226Y-90303937D01*
X148259744Y-90417205D01*
X148448102Y-90495226D01*
X148648061Y-90535000D01*
X148851939Y-90535000D01*
X149051898Y-90495226D01*
X149240256Y-90417205D01*
X149409774Y-90303937D01*
X149553937Y-90159774D01*
X149667205Y-89990256D01*
X149745226Y-89801898D01*
X149785000Y-89601939D01*
X149785000Y-89398061D01*
X149745226Y-89198102D01*
X149667205Y-89009744D01*
X149553937Y-88840226D01*
X149460000Y-88746289D01*
X149460000Y-82294091D01*
X151477383Y-80276708D01*
X151504474Y-80254475D01*
X151593200Y-80146363D01*
X151659128Y-80023020D01*
X151672972Y-79977384D01*
X151686552Y-79932615D01*
X151745525Y-80004474D01*
X151772617Y-80026708D01*
X153940000Y-82194092D01*
X153940000Y-82814775D01*
X153917205Y-82759744D01*
X153803937Y-82590226D01*
X153659774Y-82446063D01*
X153490256Y-82332795D01*
X153301898Y-82254774D01*
X153101939Y-82215000D01*
X152898061Y-82215000D01*
X152698102Y-82254774D01*
X152509744Y-82332795D01*
X152340226Y-82446063D01*
X152196063Y-82590226D01*
X152082795Y-82759744D01*
X152004774Y-82948102D01*
X151965000Y-83148061D01*
X151965000Y-83322334D01*
X151801898Y-83254774D01*
X151601939Y-83215000D01*
X151535000Y-83215000D01*
X151535000Y-83148061D01*
X151495226Y-82948102D01*
X151417205Y-82759744D01*
X151303937Y-82590226D01*
X151159774Y-82446063D01*
X150990256Y-82332795D01*
X150801898Y-82254774D01*
X150601939Y-82215000D01*
X150398061Y-82215000D01*
X150198102Y-82254774D01*
X150009744Y-82332795D01*
X149840226Y-82446063D01*
X149696063Y-82590226D01*
X149582795Y-82759744D01*
X149504774Y-82948102D01*
X149465000Y-83148061D01*
X149465000Y-83351939D01*
X149504774Y-83551898D01*
X149582795Y-83740256D01*
X149696063Y-83909774D01*
X149790000Y-84003711D01*
X149790001Y-92873000D01*
X137377000Y-92873000D01*
X137377000Y-87627092D01*
X139094092Y-85910000D01*
X139226939Y-85910000D01*
X139426898Y-85870226D01*
X139615256Y-85792205D01*
X139784774Y-85678937D01*
X139928937Y-85534774D01*
X140042205Y-85365256D01*
X140120226Y-85176898D01*
X140160000Y-84976939D01*
X140160000Y-84773061D01*
X140120226Y-84573102D01*
X140042205Y-84384744D01*
X139928937Y-84215226D01*
X139784774Y-84071063D01*
X139615256Y-83957795D01*
X139426898Y-83879774D01*
X139226939Y-83840000D01*
X139023061Y-83840000D01*
X138823102Y-83879774D01*
X138634744Y-83957795D01*
X138465226Y-84071063D01*
X138321063Y-84215226D01*
X138207795Y-84384744D01*
X138129774Y-84573102D01*
X138090000Y-84773061D01*
X138090000Y-84905908D01*
X137377000Y-85618908D01*
X137377000Y-74377000D01*
X150290001Y-74377000D01*
X150290000Y-79455909D01*
G36*
X165340000Y-85585909D02*
G01*
X164660000Y-84905909D01*
X164660000Y-84773061D01*
X164620226Y-84573102D01*
X164542205Y-84384744D01*
X164428937Y-84215226D01*
X164284774Y-84071063D01*
X164115256Y-83957795D01*
X163926898Y-83879774D01*
X163726939Y-83840000D01*
X163523061Y-83840000D01*
X163323102Y-83879774D01*
X163134744Y-83957795D01*
X162965226Y-84071063D01*
X162821063Y-84215226D01*
X162707795Y-84384744D01*
X162629774Y-84573102D01*
X162590000Y-84773061D01*
X162590000Y-84976939D01*
X162629774Y-85176898D01*
X162707795Y-85365256D01*
X162821063Y-85534774D01*
X162965226Y-85678937D01*
X163134744Y-85792205D01*
X163323102Y-85870226D01*
X163523061Y-85910000D01*
X163655909Y-85910000D01*
X164290001Y-86544092D01*
X164290000Y-92873000D01*
X153710000Y-92873000D01*
X153710000Y-90383967D01*
X153759744Y-90417205D01*
X153948102Y-90495226D01*
X154148061Y-90535000D01*
X154351939Y-90535000D01*
X154551898Y-90495226D01*
X154740256Y-90417205D01*
X154909774Y-90303937D01*
X155053937Y-90159774D01*
X155167205Y-89990256D01*
X155245226Y-89801898D01*
X155285000Y-89601939D01*
X155285000Y-89418160D01*
X155309127Y-89373021D01*
X155349726Y-89239185D01*
X155359999Y-89134878D01*
X155359999Y-89134877D01*
X155363434Y-89100002D01*
X155359999Y-89065127D01*
X155359999Y-81934873D01*
X155363434Y-81899998D01*
X155359575Y-81860816D01*
X155349726Y-81760815D01*
X155309127Y-81626979D01*
X155243199Y-81503636D01*
X155154474Y-81395524D01*
X155127383Y-81373291D01*
X152960000Y-79205909D01*
X152960000Y-74377000D01*
X165340000Y-74377000D01*
X165340000Y-85585909D01*
X165340000Y-85585909D01*
G37*
X165340000Y-85585909D02*
X164660000Y-84905909D01*
X164660000Y-84773061D01*
X164620226Y-84573102D01*
X164542205Y-84384744D01*
X164428937Y-84215226D01*
X164284774Y-84071063D01*
X164115256Y-83957795D01*
X163926898Y-83879774D01*
X163726939Y-83840000D01*
X163523061Y-83840000D01*
X163323102Y-83879774D01*
X163134744Y-83957795D01*
X162965226Y-84071063D01*
X162821063Y-84215226D01*
X162707795Y-84384744D01*
X162629774Y-84573102D01*
X162590000Y-84773061D01*
X162590000Y-84976939D01*
X162629774Y-85176898D01*
X162707795Y-85365256D01*
X162821063Y-85534774D01*
X162965226Y-85678937D01*
X163134744Y-85792205D01*
X163323102Y-85870226D01*
X163523061Y-85910000D01*
X163655909Y-85910000D01*
X164290001Y-86544092D01*
X164290000Y-92873000D01*
X153710000Y-92873000D01*
X153710000Y-90383967D01*
X153759744Y-90417205D01*
X153948102Y-90495226D01*
X154148061Y-90535000D01*
X154351939Y-90535000D01*
X154551898Y-90495226D01*
X154740256Y-90417205D01*
X154909774Y-90303937D01*
X155053937Y-90159774D01*
X155167205Y-89990256D01*
X155245226Y-89801898D01*
X155285000Y-89601939D01*
X155285000Y-89418160D01*
X155309127Y-89373021D01*
X155349726Y-89239185D01*
X155359999Y-89134878D01*
X155359999Y-89134877D01*
X155363434Y-89100002D01*
X155359999Y-89065127D01*
X155359999Y-81934873D01*
X155363434Y-81899998D01*
X155359575Y-81860816D01*
X155349726Y-81760815D01*
X155309127Y-81626979D01*
X155243199Y-81503636D01*
X155154474Y-81395524D01*
X155127383Y-81373291D01*
X152960000Y-79205909D01*
X152960000Y-74377000D01*
X165340000Y-74377000D01*
X165340000Y-85585909D01*
G36*
X153939999Y-88508130D02*
G01*
X153759744Y-88582795D01*
X153710000Y-88616033D01*
X153710000Y-84003711D01*
X153803937Y-83909774D01*
X153917205Y-83740256D01*
X153940000Y-83685225D01*
X153939999Y-88508130D01*
X153939999Y-88508130D01*
G37*
X153939999Y-88508130D02*
X153759744Y-88582795D01*
X153710000Y-88616033D01*
X153710000Y-84003711D01*
X153803937Y-83909774D01*
X153917205Y-83740256D01*
X153940000Y-83685225D01*
X153939999Y-88508130D01*
G36*
X164904577Y-71469324D02*
G01*
X165053270Y-71514217D01*
X165190403Y-71587132D01*
X165310770Y-71685300D01*
X165409776Y-71804978D01*
X165483648Y-71941601D01*
X165529578Y-72089976D01*
X165548000Y-72265249D01*
X165548001Y-97128448D01*
X165527181Y-97107628D01*
X165502000Y-97090803D01*
X165502000Y-86274643D01*
X165504427Y-86250000D01*
X165502000Y-86225357D01*
X165502000Y-86225347D01*
X165494736Y-86151591D01*
X165466031Y-86056964D01*
X165444332Y-86016368D01*
X165419417Y-85969754D01*
X165372400Y-85912464D01*
X165372392Y-85912456D01*
X165356684Y-85893316D01*
X165337543Y-85877607D01*
X164446091Y-84986157D01*
X164452000Y-84956452D01*
X164452000Y-84793548D01*
X164420218Y-84633773D01*
X164357877Y-84483269D01*
X164267372Y-84347819D01*
X164152181Y-84232628D01*
X164016731Y-84142123D01*
X163866227Y-84079782D01*
X163706452Y-84048000D01*
X163543548Y-84048000D01*
X163383773Y-84079782D01*
X163233269Y-84142123D01*
X163097819Y-84232628D01*
X162982628Y-84347819D01*
X162892123Y-84483269D01*
X162829782Y-84633773D01*
X162798000Y-84793548D01*
X162798000Y-84956452D01*
X162829782Y-85116227D01*
X162892123Y-85266731D01*
X162982628Y-85402181D01*
X163097819Y-85517372D01*
X163233269Y-85607877D01*
X163383773Y-85670218D01*
X163543548Y-85702000D01*
X163706452Y-85702000D01*
X163736157Y-85696091D01*
X164498001Y-86457937D01*
X164498000Y-97090803D01*
X164472819Y-97107628D01*
X164357628Y-97222819D01*
X164267123Y-97358269D01*
X164204782Y-97508773D01*
X164173000Y-97668548D01*
X164173000Y-97831452D01*
X164204782Y-97991227D01*
X164267123Y-98141731D01*
X164357628Y-98277181D01*
X164472819Y-98392372D01*
X164608269Y-98482877D01*
X164758773Y-98545218D01*
X164918548Y-98577000D01*
X165081452Y-98577000D01*
X165241227Y-98545218D01*
X165391731Y-98482877D01*
X165527181Y-98392372D01*
X165548001Y-98371552D01*
X165548001Y-103727882D01*
X165530676Y-103904577D01*
X165485783Y-104053270D01*
X165412866Y-104190407D01*
X165314698Y-104310771D01*
X165195022Y-104409776D01*
X165058399Y-104483648D01*
X164910024Y-104529578D01*
X164734751Y-104548000D01*
X121522108Y-104548000D01*
X121345423Y-104530676D01*
X121196730Y-104485783D01*
X121059593Y-104412866D01*
X120939229Y-104314698D01*
X120840224Y-104195022D01*
X120766352Y-104058399D01*
X120720422Y-103910024D01*
X120702000Y-103734751D01*
X120702000Y-101302589D01*
X121811000Y-101302589D01*
X121811000Y-102943410D01*
X121828204Y-103118084D01*
X121896192Y-103342211D01*
X122006599Y-103548768D01*
X122155182Y-103729818D01*
X122336231Y-103878401D01*
X122542788Y-103988808D01*
X122766915Y-104056796D01*
X123000000Y-104079753D01*
X123233084Y-104056796D01*
X123457211Y-103988808D01*
X123663768Y-103878401D01*
X123844818Y-103729818D01*
X123993401Y-103548769D01*
X124103808Y-103342212D01*
X124171796Y-103118085D01*
X124189000Y-102943411D01*
X124189000Y-101556589D01*
X124351000Y-101556589D01*
X124351000Y-103197410D01*
X124368204Y-103372084D01*
X124436192Y-103596211D01*
X124546599Y-103802768D01*
X124695182Y-103983818D01*
X124876231Y-104132401D01*
X125082788Y-104242808D01*
X125306915Y-104310796D01*
X125540000Y-104333753D01*
X125773084Y-104310796D01*
X125997211Y-104242808D01*
X126203768Y-104132401D01*
X126384818Y-103983818D01*
X126533401Y-103802769D01*
X126643808Y-103596212D01*
X126711796Y-103372085D01*
X126729000Y-103197411D01*
X126729000Y-101556589D01*
X126711796Y-101381915D01*
X126687733Y-101302589D01*
X126891000Y-101302589D01*
X126891000Y-102943410D01*
X126908204Y-103118084D01*
X126976192Y-103342211D01*
X127086599Y-103548768D01*
X127235182Y-103729818D01*
X127416231Y-103878401D01*
X127622788Y-103988808D01*
X127846915Y-104056796D01*
X128080000Y-104079753D01*
X128313084Y-104056796D01*
X128537211Y-103988808D01*
X128743768Y-103878401D01*
X128924818Y-103729818D01*
X129073401Y-103548769D01*
X129183808Y-103342212D01*
X129251796Y-103118085D01*
X129269000Y-102943411D01*
X129269000Y-101556589D01*
X129431000Y-101556589D01*
X129431000Y-103197410D01*
X129448204Y-103372084D01*
X129516192Y-103596211D01*
X129626599Y-103802768D01*
X129775182Y-103983818D01*
X129956231Y-104132401D01*
X130162788Y-104242808D01*
X130386915Y-104310796D01*
X130620000Y-104333753D01*
X130853084Y-104310796D01*
X131077211Y-104242808D01*
X131283768Y-104132401D01*
X131464818Y-103983818D01*
X131613401Y-103802769D01*
X131723808Y-103596212D01*
X131791796Y-103372085D01*
X131809000Y-103197411D01*
X131809000Y-102146000D01*
X131971000Y-102146000D01*
X131971000Y-102908000D01*
X131998333Y-103139520D01*
X132070308Y-103361259D01*
X132184160Y-103564696D01*
X132335513Y-103742013D01*
X132518550Y-103886395D01*
X132726238Y-103992294D01*
X132951317Y-104055544D01*
X133137000Y-103967006D01*
X133137000Y-102146000D01*
X133183000Y-102146000D01*
X133183000Y-103967006D01*
X133368683Y-104055544D01*
X133593762Y-103992294D01*
X133801450Y-103886395D01*
X133984487Y-103742013D01*
X134135840Y-103564696D01*
X134249692Y-103361259D01*
X134321667Y-103139520D01*
X134349000Y-102908000D01*
X134349000Y-102146000D01*
X133183000Y-102146000D01*
X133137000Y-102146000D01*
X131971000Y-102146000D01*
X131809000Y-102146000D01*
X131809000Y-101556589D01*
X131791796Y-101381915D01*
X131778475Y-101338000D01*
X131971000Y-101338000D01*
X131971000Y-102100000D01*
X133137000Y-102100000D01*
X133137000Y-100278994D01*
X133183000Y-100278994D01*
X133183000Y-102100000D01*
X134349000Y-102100000D01*
X134349000Y-101556589D01*
X134511000Y-101556589D01*
X134511000Y-103197410D01*
X134528204Y-103372084D01*
X134596192Y-103596211D01*
X134706599Y-103802768D01*
X134855182Y-103983818D01*
X135036231Y-104132401D01*
X135242788Y-104242808D01*
X135466915Y-104310796D01*
X135700000Y-104333753D01*
X135933084Y-104310796D01*
X136157211Y-104242808D01*
X136363768Y-104132401D01*
X136544818Y-103983818D01*
X136693401Y-103802769D01*
X136803808Y-103596212D01*
X136871796Y-103372085D01*
X136889000Y-103197411D01*
X136889000Y-101556589D01*
X136871796Y-101381915D01*
X136818550Y-101206385D01*
X137153470Y-100871464D01*
X137136193Y-100903788D01*
X137068204Y-101127915D01*
X137051000Y-101302589D01*
X137051000Y-102943410D01*
X137068204Y-103118084D01*
X137136192Y-103342211D01*
X137246599Y-103548768D01*
X137395182Y-103729818D01*
X137576231Y-103878401D01*
X137782788Y-103988808D01*
X138006915Y-104056796D01*
X138240000Y-104079753D01*
X138473084Y-104056796D01*
X138697211Y-103988808D01*
X138903768Y-103878401D01*
X139084818Y-103729818D01*
X139233401Y-103548769D01*
X139343808Y-103342212D01*
X139411796Y-103118085D01*
X139429000Y-102943411D01*
X139429000Y-101302589D01*
X139411796Y-101127915D01*
X139358550Y-100952385D01*
X141558935Y-98752000D01*
X142933065Y-98752000D01*
X141188615Y-100496450D01*
X141013085Y-100443204D01*
X140780000Y-100420247D01*
X140546916Y-100443204D01*
X140322789Y-100511192D01*
X140116232Y-100621599D01*
X139935183Y-100770182D01*
X139786600Y-100951231D01*
X139676193Y-101157788D01*
X139608204Y-101381915D01*
X139591000Y-101556589D01*
X139591000Y-103197410D01*
X139608204Y-103372084D01*
X139676192Y-103596211D01*
X139786599Y-103802768D01*
X139935182Y-103983818D01*
X140116231Y-104132401D01*
X140322788Y-104242808D01*
X140546915Y-104310796D01*
X140780000Y-104333753D01*
X141013084Y-104310796D01*
X141237211Y-104242808D01*
X141443768Y-104132401D01*
X141624818Y-103983818D01*
X141773401Y-103802769D01*
X141883808Y-103596212D01*
X141951796Y-103372085D01*
X141969000Y-103197411D01*
X141969000Y-101556589D01*
X141951796Y-101381915D01*
X141898550Y-101206385D01*
X142233471Y-100871464D01*
X142216193Y-100903788D01*
X142148204Y-101127915D01*
X142131000Y-101302589D01*
X142131000Y-102943410D01*
X142148204Y-103118084D01*
X142216192Y-103342211D01*
X142326599Y-103548768D01*
X142475182Y-103729818D01*
X142656231Y-103878401D01*
X142862788Y-103988808D01*
X143086915Y-104056796D01*
X143320000Y-104079753D01*
X143553084Y-104056796D01*
X143777211Y-103988808D01*
X143983768Y-103878401D01*
X144164818Y-103729818D01*
X144313401Y-103548769D01*
X144423808Y-103342212D01*
X144491796Y-103118085D01*
X144509000Y-102943411D01*
X144509000Y-101556589D01*
X144671000Y-101556589D01*
X144671000Y-103197410D01*
X144688204Y-103372084D01*
X144756192Y-103596211D01*
X144866599Y-103802768D01*
X145015182Y-103983818D01*
X145196231Y-104132401D01*
X145402788Y-104242808D01*
X145626915Y-104310796D01*
X145860000Y-104333753D01*
X146093084Y-104310796D01*
X146317211Y-104242808D01*
X146523768Y-104132401D01*
X146704818Y-103983818D01*
X146853401Y-103802769D01*
X146963808Y-103596212D01*
X147031796Y-103372085D01*
X147049000Y-103197411D01*
X147049000Y-101556589D01*
X147031796Y-101381915D01*
X147007733Y-101302589D01*
X147211000Y-101302589D01*
X147211000Y-102943410D01*
X147228204Y-103118084D01*
X147296192Y-103342211D01*
X147406599Y-103548768D01*
X147555182Y-103729818D01*
X147736231Y-103878401D01*
X147942788Y-103988808D01*
X148166915Y-104056796D01*
X148400000Y-104079753D01*
X148633084Y-104056796D01*
X148857211Y-103988808D01*
X149063768Y-103878401D01*
X149244818Y-103729818D01*
X149393401Y-103548769D01*
X149503808Y-103342212D01*
X149571796Y-103118085D01*
X149589000Y-102943411D01*
X149589000Y-101556589D01*
X149751000Y-101556589D01*
X149751000Y-103197410D01*
X149768204Y-103372084D01*
X149836192Y-103596211D01*
X149946599Y-103802768D01*
X150095182Y-103983818D01*
X150276231Y-104132401D01*
X150482788Y-104242808D01*
X150706915Y-104310796D01*
X150940000Y-104333753D01*
X151173084Y-104310796D01*
X151397211Y-104242808D01*
X151603768Y-104132401D01*
X151784818Y-103983818D01*
X151933401Y-103802769D01*
X152043808Y-103596212D01*
X152111796Y-103372085D01*
X152129000Y-103197411D01*
X152129000Y-101556589D01*
X152111796Y-101381915D01*
X152087733Y-101302589D01*
X152291000Y-101302589D01*
X152291000Y-102943410D01*
X152308204Y-103118084D01*
X152376192Y-103342211D01*
X152486599Y-103548768D01*
X152635182Y-103729818D01*
X152816231Y-103878401D01*
X153022788Y-103988808D01*
X153246915Y-104056796D01*
X153480000Y-104079753D01*
X153713084Y-104056796D01*
X153937211Y-103988808D01*
X154143768Y-103878401D01*
X154324818Y-103729818D01*
X154473401Y-103548769D01*
X154583808Y-103342212D01*
X154651796Y-103118085D01*
X154669000Y-102943411D01*
X154669000Y-101556589D01*
X154831000Y-101556589D01*
X154831000Y-103197410D01*
X154848204Y-103372084D01*
X154916192Y-103596211D01*
X155026599Y-103802768D01*
X155175182Y-103983818D01*
X155356231Y-104132401D01*
X155562788Y-104242808D01*
X155786915Y-104310796D01*
X156020000Y-104333753D01*
X156253084Y-104310796D01*
X156477211Y-104242808D01*
X156683768Y-104132401D01*
X156864818Y-103983818D01*
X157013401Y-103802769D01*
X157123808Y-103596212D01*
X157191796Y-103372085D01*
X157209000Y-103197411D01*
X157209000Y-101556589D01*
X157191796Y-101381915D01*
X157167733Y-101302589D01*
X157371000Y-101302589D01*
X157371000Y-102943410D01*
X157388204Y-103118084D01*
X157456192Y-103342211D01*
X157566599Y-103548768D01*
X157715182Y-103729818D01*
X157896231Y-103878401D01*
X158102788Y-103988808D01*
X158326915Y-104056796D01*
X158560000Y-104079753D01*
X158793084Y-104056796D01*
X159017211Y-103988808D01*
X159223768Y-103878401D01*
X159404818Y-103729818D01*
X159553401Y-103548769D01*
X159663808Y-103342212D01*
X159731796Y-103118085D01*
X159749000Y-102943411D01*
X159749000Y-101556589D01*
X159911000Y-101556589D01*
X159911000Y-103197410D01*
X159928204Y-103372084D01*
X159996192Y-103596211D01*
X160106599Y-103802768D01*
X160255182Y-103983818D01*
X160436231Y-104132401D01*
X160642788Y-104242808D01*
X160866915Y-104310796D01*
X161100000Y-104333753D01*
X161333084Y-104310796D01*
X161557211Y-104242808D01*
X161763768Y-104132401D01*
X161944818Y-103983818D01*
X162093401Y-103802769D01*
X162203808Y-103596212D01*
X162271796Y-103372085D01*
X162289000Y-103197411D01*
X162289000Y-101556589D01*
X162271796Y-101381915D01*
X162247733Y-101302589D01*
X162451000Y-101302589D01*
X162451000Y-102943410D01*
X162468204Y-103118084D01*
X162536192Y-103342211D01*
X162646599Y-103548768D01*
X162795182Y-103729818D01*
X162976231Y-103878401D01*
X163182788Y-103988808D01*
X163406915Y-104056796D01*
X163640000Y-104079753D01*
X163873084Y-104056796D01*
X164097211Y-103988808D01*
X164303768Y-103878401D01*
X164484818Y-103729818D01*
X164633401Y-103548769D01*
X164743808Y-103342212D01*
X164811796Y-103118085D01*
X164829000Y-102943411D01*
X164829000Y-101302589D01*
X164811796Y-101127915D01*
X164743808Y-100903788D01*
X164633401Y-100697231D01*
X164484818Y-100516182D01*
X164303769Y-100367599D01*
X164097212Y-100257192D01*
X163873085Y-100189204D01*
X163640000Y-100166247D01*
X163406916Y-100189204D01*
X163182789Y-100257192D01*
X162976232Y-100367599D01*
X162795183Y-100516182D01*
X162646600Y-100697231D01*
X162536193Y-100903788D01*
X162468204Y-101127915D01*
X162451000Y-101302589D01*
X162247733Y-101302589D01*
X162203808Y-101157788D01*
X162093401Y-100951231D01*
X161944818Y-100770182D01*
X161763769Y-100621599D01*
X161557212Y-100511192D01*
X161333085Y-100443204D01*
X161100000Y-100420247D01*
X160866916Y-100443204D01*
X160642789Y-100511192D01*
X160436232Y-100621599D01*
X160255183Y-100770182D01*
X160106600Y-100951231D01*
X159996193Y-101157788D01*
X159928204Y-101381915D01*
X159911000Y-101556589D01*
X159749000Y-101556589D01*
X159749000Y-101302589D01*
X159731796Y-101127915D01*
X159663808Y-100903788D01*
X159553401Y-100697231D01*
X159404818Y-100516182D01*
X159223769Y-100367599D01*
X159017212Y-100257192D01*
X158793085Y-100189204D01*
X158560000Y-100166247D01*
X158326916Y-100189204D01*
X158102789Y-100257192D01*
X157896232Y-100367599D01*
X157715183Y-100516182D01*
X157566600Y-100697231D01*
X157456193Y-100903788D01*
X157388204Y-101127915D01*
X157371000Y-101302589D01*
X157167733Y-101302589D01*
X157123808Y-101157788D01*
X157013401Y-100951231D01*
X156864818Y-100770182D01*
X156683769Y-100621599D01*
X156477212Y-100511192D01*
X156253085Y-100443204D01*
X156020000Y-100420247D01*
X155786916Y-100443204D01*
X155562789Y-100511192D01*
X155356232Y-100621599D01*
X155175183Y-100770182D01*
X155026600Y-100951231D01*
X154916193Y-101157788D01*
X154848204Y-101381915D01*
X154831000Y-101556589D01*
X154669000Y-101556589D01*
X154669000Y-101302589D01*
X154651796Y-101127915D01*
X154583808Y-100903788D01*
X154473401Y-100697231D01*
X154324818Y-100516182D01*
X154143769Y-100367599D01*
X153937212Y-100257192D01*
X153713085Y-100189204D01*
X153480000Y-100166247D01*
X153246916Y-100189204D01*
X153022789Y-100257192D01*
X152816232Y-100367599D01*
X152635183Y-100516182D01*
X152486600Y-100697231D01*
X152376193Y-100903788D01*
X152308204Y-101127915D01*
X152291000Y-101302589D01*
X152087733Y-101302589D01*
X152043808Y-101157788D01*
X151933401Y-100951231D01*
X151784818Y-100770182D01*
X151603769Y-100621599D01*
X151397212Y-100511192D01*
X151173085Y-100443204D01*
X150940000Y-100420247D01*
X150706916Y-100443204D01*
X150482789Y-100511192D01*
X150276232Y-100621599D01*
X150095183Y-100770182D01*
X149946600Y-100951231D01*
X149836193Y-101157788D01*
X149768204Y-101381915D01*
X149751000Y-101556589D01*
X149589000Y-101556589D01*
X149589000Y-101302589D01*
X149571796Y-101127915D01*
X149503808Y-100903788D01*
X149393401Y-100697231D01*
X149244818Y-100516182D01*
X149063769Y-100367599D01*
X148857212Y-100257192D01*
X148633085Y-100189204D01*
X148400000Y-100166247D01*
X148166916Y-100189204D01*
X147942789Y-100257192D01*
X147736232Y-100367599D01*
X147555183Y-100516182D01*
X147406600Y-100697231D01*
X147296193Y-100903788D01*
X147228204Y-101127915D01*
X147211000Y-101302589D01*
X147007733Y-101302589D01*
X146963808Y-101157788D01*
X146853401Y-100951231D01*
X146704818Y-100770182D01*
X146523769Y-100621599D01*
X146317212Y-100511192D01*
X146093085Y-100443204D01*
X145860000Y-100420247D01*
X145626916Y-100443204D01*
X145402789Y-100511192D01*
X145196232Y-100621599D01*
X145015183Y-100770182D01*
X144866600Y-100951231D01*
X144756193Y-101157788D01*
X144688204Y-101381915D01*
X144671000Y-101556589D01*
X144509000Y-101556589D01*
X144509000Y-101302589D01*
X144491796Y-101127915D01*
X144423808Y-100903788D01*
X144313401Y-100697231D01*
X144164818Y-100516182D01*
X143983769Y-100367599D01*
X143822000Y-100281132D01*
X143822000Y-100137934D01*
X144457936Y-99502000D01*
X147975357Y-99502000D01*
X148000000Y-99504427D01*
X148024643Y-99502000D01*
X148024653Y-99502000D01*
X148098409Y-99494736D01*
X148193036Y-99466031D01*
X148280245Y-99419417D01*
X148356684Y-99356684D01*
X148372402Y-99337532D01*
X153337543Y-94372392D01*
X153356684Y-94356684D01*
X153372392Y-94337544D01*
X153372400Y-94337536D01*
X153419416Y-94280246D01*
X153433216Y-94254428D01*
X153466031Y-94193036D01*
X153494736Y-94098409D01*
X153502000Y-94024653D01*
X153502000Y-94024643D01*
X153504427Y-94000000D01*
X153502000Y-93975357D01*
X153502000Y-89855221D01*
X153517123Y-89891731D01*
X153607628Y-90027181D01*
X153722819Y-90142372D01*
X153858269Y-90232877D01*
X154008773Y-90295218D01*
X154168548Y-90327000D01*
X154331452Y-90327000D01*
X154491227Y-90295218D01*
X154641731Y-90232877D01*
X154777181Y-90142372D01*
X154892372Y-90027181D01*
X154982877Y-89891731D01*
X155045218Y-89741227D01*
X155077000Y-89581452D01*
X155077000Y-89418548D01*
X155069388Y-89380280D01*
X155069415Y-89380247D01*
X155082010Y-89356684D01*
X155116030Y-89293037D01*
X155144735Y-89198410D01*
X155151999Y-89124654D01*
X155151999Y-89124645D01*
X155154426Y-89100002D01*
X155151999Y-89075359D01*
X155151999Y-81924641D01*
X155154426Y-81899998D01*
X155151999Y-81875355D01*
X155151999Y-81875346D01*
X155144735Y-81801590D01*
X155116030Y-81706963D01*
X155069416Y-81619754D01*
X155006683Y-81543315D01*
X154987537Y-81527602D01*
X152752000Y-79292066D01*
X152752000Y-73909197D01*
X152777181Y-73892372D01*
X152892372Y-73777181D01*
X152982877Y-73641731D01*
X153045218Y-73491227D01*
X153077000Y-73331452D01*
X153077000Y-73168548D01*
X153045218Y-73008773D01*
X152982877Y-72858269D01*
X152892372Y-72722819D01*
X152777181Y-72607628D01*
X152641731Y-72517123D01*
X152491227Y-72454782D01*
X152331452Y-72423000D01*
X152168548Y-72423000D01*
X152008773Y-72454782D01*
X151858269Y-72517123D01*
X151722819Y-72607628D01*
X151625000Y-72705447D01*
X151527181Y-72607628D01*
X151391731Y-72517123D01*
X151241227Y-72454782D01*
X151081452Y-72423000D01*
X150918548Y-72423000D01*
X150758773Y-72454782D01*
X150608269Y-72517123D01*
X150472819Y-72607628D01*
X150357628Y-72722819D01*
X150267123Y-72858269D01*
X150204782Y-73008773D01*
X150173000Y-73168548D01*
X150173000Y-73331452D01*
X150204782Y-73491227D01*
X150267123Y-73641731D01*
X150357628Y-73777181D01*
X150472819Y-73892372D01*
X150498001Y-73909198D01*
X150498000Y-79542065D01*
X148412463Y-81627603D01*
X148393317Y-81643316D01*
X148377604Y-81662462D01*
X148377601Y-81662465D01*
X148330584Y-81719755D01*
X148283970Y-81806964D01*
X148255265Y-81901591D01*
X148245573Y-82000000D01*
X148248001Y-82024653D01*
X148248000Y-88840802D01*
X148222819Y-88857628D01*
X148107628Y-88972819D01*
X148017123Y-89108269D01*
X147954782Y-89258773D01*
X147923000Y-89418548D01*
X147923000Y-89581452D01*
X147954782Y-89741227D01*
X148017123Y-89891731D01*
X148107628Y-90027181D01*
X148222819Y-90142372D01*
X148358269Y-90232877D01*
X148508773Y-90295218D01*
X148668548Y-90327000D01*
X148831452Y-90327000D01*
X148991227Y-90295218D01*
X149141731Y-90232877D01*
X149277181Y-90142372D01*
X149392372Y-90027181D01*
X149482877Y-89891731D01*
X149545218Y-89741227D01*
X149577000Y-89581452D01*
X149577000Y-89418548D01*
X149545218Y-89258773D01*
X149482877Y-89108269D01*
X149392372Y-88972819D01*
X149277181Y-88857628D01*
X149252000Y-88840803D01*
X149252000Y-82207934D01*
X151337538Y-80122397D01*
X151356684Y-80106684D01*
X151372397Y-80087538D01*
X151372400Y-80087535D01*
X151419417Y-80030246D01*
X151466031Y-79943037D01*
X151494736Y-79848410D01*
X151501449Y-79780245D01*
X151502000Y-79774653D01*
X151502000Y-79774646D01*
X151504427Y-79750000D01*
X151502000Y-79725355D01*
X151502000Y-73909197D01*
X151527181Y-73892372D01*
X151625000Y-73794553D01*
X151722819Y-73892372D01*
X151748001Y-73909198D01*
X151748000Y-79475357D01*
X151745573Y-79500000D01*
X151748000Y-79524643D01*
X151748000Y-79524652D01*
X151755264Y-79598408D01*
X151783969Y-79693035D01*
X151830583Y-79780245D01*
X151893316Y-79856684D01*
X151912467Y-79872402D01*
X154148000Y-82107935D01*
X154147999Y-88677088D01*
X154008773Y-88704782D01*
X153858269Y-88767123D01*
X153722819Y-88857628D01*
X153607628Y-88972819D01*
X153517123Y-89108269D01*
X153502000Y-89144779D01*
X153502000Y-83909197D01*
X153527181Y-83892372D01*
X153642372Y-83777181D01*
X153732877Y-83641731D01*
X153795218Y-83491227D01*
X153827000Y-83331452D01*
X153827000Y-83168548D01*
X153795218Y-83008773D01*
X153732877Y-82858269D01*
X153642372Y-82722819D01*
X153527181Y-82607628D01*
X153391731Y-82517123D01*
X153241227Y-82454782D01*
X153081452Y-82423000D01*
X152918548Y-82423000D01*
X152758773Y-82454782D01*
X152608269Y-82517123D01*
X152472819Y-82607628D01*
X152357628Y-82722819D01*
X152267123Y-82858269D01*
X152204782Y-83008773D01*
X152173000Y-83168548D01*
X152173000Y-83331452D01*
X152204782Y-83491227D01*
X152267123Y-83641731D01*
X152357628Y-83777181D01*
X152472819Y-83892372D01*
X152498000Y-83909197D01*
X152498000Y-83931267D01*
X152456442Y-83923000D01*
X152293538Y-83923000D01*
X152262266Y-83929221D01*
X152232877Y-83858269D01*
X152142372Y-83722819D01*
X152027181Y-83607628D01*
X151891731Y-83517123D01*
X151741227Y-83454782D01*
X151581452Y-83423000D01*
X151418548Y-83423000D01*
X151304268Y-83445732D01*
X151327000Y-83331452D01*
X151327000Y-83168548D01*
X151295218Y-83008773D01*
X151232877Y-82858269D01*
X151142372Y-82722819D01*
X151027181Y-82607628D01*
X150891731Y-82517123D01*
X150741227Y-82454782D01*
X150581452Y-82423000D01*
X150418548Y-82423000D01*
X150258773Y-82454782D01*
X150108269Y-82517123D01*
X149972819Y-82607628D01*
X149857628Y-82722819D01*
X149767123Y-82858269D01*
X149704782Y-83008773D01*
X149673000Y-83168548D01*
X149673000Y-83331452D01*
X149704782Y-83491227D01*
X149767123Y-83641731D01*
X149857628Y-83777181D01*
X149972819Y-83892372D01*
X149998000Y-83909197D01*
X149998001Y-93792063D01*
X146542066Y-97248000D01*
X139589642Y-97248000D01*
X139564999Y-97245573D01*
X139540356Y-97248000D01*
X139540347Y-97248000D01*
X139466591Y-97255264D01*
X139371964Y-97283969D01*
X139284755Y-97330583D01*
X139208316Y-97393316D01*
X139192603Y-97412462D01*
X136108615Y-100496450D01*
X135933085Y-100443204D01*
X135700000Y-100420247D01*
X135466916Y-100443204D01*
X135242789Y-100511192D01*
X135036232Y-100621599D01*
X134855183Y-100770182D01*
X134706600Y-100951231D01*
X134596193Y-101157788D01*
X134528204Y-101381915D01*
X134511000Y-101556589D01*
X134349000Y-101556589D01*
X134349000Y-101338000D01*
X134321667Y-101106480D01*
X134249692Y-100884741D01*
X134135840Y-100681304D01*
X133984487Y-100503987D01*
X133801450Y-100359605D01*
X133593762Y-100253706D01*
X133368683Y-100190456D01*
X133183000Y-100278994D01*
X133137000Y-100278994D01*
X132951317Y-100190456D01*
X132726238Y-100253706D01*
X132518550Y-100359605D01*
X132335513Y-100503987D01*
X132184160Y-100681304D01*
X132070308Y-100884741D01*
X131998333Y-101106480D01*
X131971000Y-101338000D01*
X131778475Y-101338000D01*
X131723808Y-101157788D01*
X131613401Y-100951231D01*
X131464818Y-100770182D01*
X131283769Y-100621599D01*
X131077212Y-100511192D01*
X130853085Y-100443204D01*
X130620000Y-100420247D01*
X130386916Y-100443204D01*
X130162789Y-100511192D01*
X129956232Y-100621599D01*
X129775183Y-100770182D01*
X129626600Y-100951231D01*
X129516193Y-101157788D01*
X129448204Y-101381915D01*
X129431000Y-101556589D01*
X129269000Y-101556589D01*
X129269000Y-101302589D01*
X129251796Y-101127915D01*
X129183808Y-100903788D01*
X129073401Y-100697231D01*
X128924818Y-100516182D01*
X128743769Y-100367599D01*
X128537212Y-100257192D01*
X128313085Y-100189204D01*
X128080000Y-100166247D01*
X127846916Y-100189204D01*
X127622789Y-100257192D01*
X127416232Y-100367599D01*
X127235183Y-100516182D01*
X127086600Y-100697231D01*
X126976193Y-100903788D01*
X126908204Y-101127915D01*
X126891000Y-101302589D01*
X126687733Y-101302589D01*
X126643808Y-101157788D01*
X126533401Y-100951231D01*
X126384818Y-100770182D01*
X126203769Y-100621599D01*
X125997212Y-100511192D01*
X125773085Y-100443204D01*
X125540000Y-100420247D01*
X125306916Y-100443204D01*
X125082789Y-100511192D01*
X124876232Y-100621599D01*
X124695183Y-100770182D01*
X124546600Y-100951231D01*
X124436193Y-101157788D01*
X124368204Y-101381915D01*
X124351000Y-101556589D01*
X124189000Y-101556589D01*
X124189000Y-101302589D01*
X124171796Y-101127915D01*
X124103808Y-100903788D01*
X123993401Y-100697231D01*
X123844818Y-100516182D01*
X123663769Y-100367599D01*
X123502000Y-100281132D01*
X123502000Y-99457934D01*
X127122400Y-95837536D01*
X127122409Y-95837525D01*
X130707936Y-92252000D01*
X132225357Y-92252000D01*
X132250000Y-92254427D01*
X132274643Y-92252000D01*
X132274653Y-92252000D01*
X132348409Y-92244736D01*
X132443036Y-92216031D01*
X132530245Y-92169417D01*
X132606684Y-92106684D01*
X132622402Y-92087532D01*
X139013844Y-85696091D01*
X139043548Y-85702000D01*
X139206452Y-85702000D01*
X139366227Y-85670218D01*
X139516731Y-85607877D01*
X139652181Y-85517372D01*
X139767372Y-85402181D01*
X139857877Y-85266731D01*
X139920218Y-85116227D01*
X139952000Y-84956452D01*
X139952000Y-84793548D01*
X139920218Y-84633773D01*
X139857877Y-84483269D01*
X139767372Y-84347819D01*
X139652181Y-84232628D01*
X139516731Y-84142123D01*
X139366227Y-84079782D01*
X139206452Y-84048000D01*
X139043548Y-84048000D01*
X138883773Y-84079782D01*
X138733269Y-84142123D01*
X138597819Y-84232628D01*
X138482628Y-84347819D01*
X138392123Y-84483269D01*
X138329782Y-84633773D01*
X138298000Y-84793548D01*
X138298000Y-84956452D01*
X138303909Y-84986156D01*
X134077000Y-89213066D01*
X134077000Y-89168548D01*
X134045218Y-89008773D01*
X133982877Y-88858269D01*
X133892372Y-88722819D01*
X133777181Y-88607628D01*
X133641731Y-88517123D01*
X133491227Y-88454782D01*
X133331452Y-88423000D01*
X133286935Y-88423000D01*
X133837538Y-87872397D01*
X133856684Y-87856684D01*
X133919417Y-87780245D01*
X133966031Y-87693036D01*
X133994736Y-87598409D01*
X134002000Y-87524653D01*
X134002000Y-87524644D01*
X134004427Y-87500001D01*
X134002000Y-87475358D01*
X134002000Y-82909197D01*
X134027181Y-82892372D01*
X134142372Y-82777181D01*
X134232877Y-82641731D01*
X134295218Y-82491227D01*
X134327000Y-82331452D01*
X134327000Y-82168548D01*
X134295218Y-82008773D01*
X134232877Y-81858269D01*
X134142372Y-81722819D01*
X134027181Y-81607628D01*
X133891731Y-81517123D01*
X133741227Y-81454782D01*
X133581452Y-81423000D01*
X133418548Y-81423000D01*
X133258773Y-81454782D01*
X133252000Y-81457587D01*
X133252000Y-76957934D01*
X133638843Y-76571091D01*
X133668548Y-76577000D01*
X133831452Y-76577000D01*
X133991227Y-76545218D01*
X134141731Y-76482877D01*
X134277181Y-76392372D01*
X134392372Y-76277181D01*
X134482877Y-76141731D01*
X134545218Y-75991227D01*
X134577000Y-75831452D01*
X134577000Y-75668548D01*
X134545218Y-75508773D01*
X134482877Y-75358269D01*
X134392372Y-75222819D01*
X134277181Y-75107628D01*
X134141731Y-75017123D01*
X133991227Y-74954782D01*
X133831452Y-74923000D01*
X133668548Y-74923000D01*
X133508773Y-74954782D01*
X133358269Y-75017123D01*
X133222819Y-75107628D01*
X133107628Y-75222819D01*
X133017123Y-75358269D01*
X132954782Y-75508773D01*
X132923000Y-75668548D01*
X132923000Y-75831452D01*
X132928909Y-75861157D01*
X132412467Y-76377599D01*
X132393316Y-76393316D01*
X132330583Y-76469755D01*
X132283969Y-76556965D01*
X132255264Y-76651592D01*
X132248000Y-76725348D01*
X132248000Y-76725357D01*
X132245573Y-76750000D01*
X132248000Y-76774643D01*
X132248001Y-82338130D01*
X132141731Y-82267123D01*
X131991227Y-82204782D01*
X131831452Y-82173000D01*
X131668548Y-82173000D01*
X131508773Y-82204782D01*
X131358269Y-82267123D01*
X131222819Y-82357628D01*
X131107628Y-82472819D01*
X131017123Y-82608269D01*
X130954782Y-82758773D01*
X130923000Y-82918548D01*
X130923000Y-83081452D01*
X130954782Y-83241227D01*
X131017123Y-83391731D01*
X131107628Y-83527181D01*
X131222819Y-83642372D01*
X131248000Y-83659198D01*
X131248001Y-84209244D01*
X131108269Y-84267123D01*
X131002000Y-84338130D01*
X131002000Y-83536983D01*
X131004427Y-83512340D01*
X131002000Y-83487697D01*
X131002000Y-83487687D01*
X130994736Y-83413931D01*
X130966031Y-83319304D01*
X130944332Y-83278708D01*
X130919417Y-83232094D01*
X130872400Y-83174804D01*
X130872392Y-83174796D01*
X130856684Y-83155656D01*
X130837543Y-83139947D01*
X129203472Y-81505877D01*
X128646895Y-79270412D01*
X128732877Y-79141731D01*
X128795218Y-78991227D01*
X128827000Y-78831452D01*
X128827000Y-78668548D01*
X128795218Y-78508773D01*
X128732877Y-78358269D01*
X128642372Y-78222819D01*
X128527181Y-78107628D01*
X128391731Y-78017123D01*
X128241227Y-77954782D01*
X128081452Y-77923000D01*
X127918548Y-77923000D01*
X127758773Y-77954782D01*
X127608269Y-78017123D01*
X127472819Y-78107628D01*
X127357628Y-78222819D01*
X127267123Y-78358269D01*
X127204782Y-78508773D01*
X127173000Y-78668548D01*
X127173000Y-78831452D01*
X127204782Y-78991227D01*
X127267123Y-79141731D01*
X127357628Y-79277181D01*
X127472819Y-79392372D01*
X127608269Y-79482877D01*
X127671684Y-79509144D01*
X128254014Y-81848051D01*
X128255265Y-81860749D01*
X128265926Y-81895894D01*
X128268827Y-81907545D01*
X128273097Y-81919533D01*
X128283970Y-81955376D01*
X128289648Y-81965998D01*
X128293695Y-81977361D01*
X128312928Y-82009552D01*
X128330584Y-82042585D01*
X128338228Y-82051899D01*
X128344412Y-82062250D01*
X128369552Y-82090067D01*
X128377601Y-82099875D01*
X128386066Y-82108340D01*
X128410715Y-82135614D01*
X128420962Y-82143236D01*
X129998000Y-83720276D01*
X129998001Y-88975347D01*
X129995573Y-89000000D01*
X130005265Y-89098409D01*
X130033970Y-89193036D01*
X130080584Y-89280245D01*
X130127601Y-89337535D01*
X130127604Y-89337538D01*
X130143317Y-89356684D01*
X130162463Y-89372397D01*
X131377603Y-90587538D01*
X131393316Y-90606684D01*
X131412462Y-90622397D01*
X131412464Y-90622399D01*
X131450652Y-90653739D01*
X131469755Y-90669417D01*
X131556964Y-90716031D01*
X131651591Y-90744736D01*
X131725347Y-90752000D01*
X131725357Y-90752000D01*
X131750000Y-90754427D01*
X131774643Y-90752000D01*
X132225357Y-90752000D01*
X132250000Y-90754427D01*
X132274643Y-90752000D01*
X132274653Y-90752000D01*
X132348409Y-90744736D01*
X132443036Y-90716031D01*
X132530245Y-90669417D01*
X132606684Y-90606684D01*
X132622401Y-90587533D01*
X133138843Y-90071091D01*
X133168548Y-90077000D01*
X133213066Y-90077000D01*
X132042066Y-91248000D01*
X130524643Y-91248000D01*
X130500000Y-91245573D01*
X130475357Y-91248000D01*
X130475347Y-91248000D01*
X130401591Y-91255264D01*
X130306964Y-91283969D01*
X130219755Y-91330583D01*
X130219753Y-91330584D01*
X130219754Y-91330584D01*
X130162464Y-91377600D01*
X130162456Y-91377608D01*
X130143316Y-91393316D01*
X130127607Y-91412457D01*
X126412475Y-95127591D01*
X126412464Y-95127600D01*
X122662467Y-98877599D01*
X122643316Y-98893316D01*
X122580583Y-98969755D01*
X122533969Y-99056965D01*
X122505264Y-99151592D01*
X122498000Y-99225348D01*
X122498000Y-99225357D01*
X122495573Y-99250000D01*
X122498000Y-99274643D01*
X122498000Y-100281132D01*
X122336232Y-100367599D01*
X122155183Y-100516182D01*
X122006600Y-100697231D01*
X121896193Y-100903788D01*
X121828204Y-101127915D01*
X121811000Y-101302589D01*
X120702000Y-101302589D01*
X120702000Y-72272108D01*
X120719324Y-72095423D01*
X120764217Y-71946730D01*
X120837132Y-71809597D01*
X120935300Y-71689230D01*
X121054978Y-71590224D01*
X121191601Y-71516352D01*
X121339976Y-71470422D01*
X121515249Y-71452000D01*
X164727892Y-71452000D01*
X164904577Y-71469324D01*
X164904577Y-71469324D01*
G37*
X164904577Y-71469324D02*
X165053270Y-71514217D01*
X165190403Y-71587132D01*
X165310770Y-71685300D01*
X165409776Y-71804978D01*
X165483648Y-71941601D01*
X165529578Y-72089976D01*
X165548000Y-72265249D01*
X165548001Y-97128448D01*
X165527181Y-97107628D01*
X165502000Y-97090803D01*
X165502000Y-86274643D01*
X165504427Y-86250000D01*
X165502000Y-86225357D01*
X165502000Y-86225347D01*
X165494736Y-86151591D01*
X165466031Y-86056964D01*
X165444332Y-86016368D01*
X165419417Y-85969754D01*
X165372400Y-85912464D01*
X165372392Y-85912456D01*
X165356684Y-85893316D01*
X165337543Y-85877607D01*
X164446091Y-84986157D01*
X164452000Y-84956452D01*
X164452000Y-84793548D01*
X164420218Y-84633773D01*
X164357877Y-84483269D01*
X164267372Y-84347819D01*
X164152181Y-84232628D01*
X164016731Y-84142123D01*
X163866227Y-84079782D01*
X163706452Y-84048000D01*
X163543548Y-84048000D01*
X163383773Y-84079782D01*
X163233269Y-84142123D01*
X163097819Y-84232628D01*
X162982628Y-84347819D01*
X162892123Y-84483269D01*
X162829782Y-84633773D01*
X162798000Y-84793548D01*
X162798000Y-84956452D01*
X162829782Y-85116227D01*
X162892123Y-85266731D01*
X162982628Y-85402181D01*
X163097819Y-85517372D01*
X163233269Y-85607877D01*
X163383773Y-85670218D01*
X163543548Y-85702000D01*
X163706452Y-85702000D01*
X163736157Y-85696091D01*
X164498001Y-86457937D01*
X164498000Y-97090803D01*
X164472819Y-97107628D01*
X164357628Y-97222819D01*
X164267123Y-97358269D01*
X164204782Y-97508773D01*
X164173000Y-97668548D01*
X164173000Y-97831452D01*
X164204782Y-97991227D01*
X164267123Y-98141731D01*
X164357628Y-98277181D01*
X164472819Y-98392372D01*
X164608269Y-98482877D01*
X164758773Y-98545218D01*
X164918548Y-98577000D01*
X165081452Y-98577000D01*
X165241227Y-98545218D01*
X165391731Y-98482877D01*
X165527181Y-98392372D01*
X165548001Y-98371552D01*
X165548001Y-103727882D01*
X165530676Y-103904577D01*
X165485783Y-104053270D01*
X165412866Y-104190407D01*
X165314698Y-104310771D01*
X165195022Y-104409776D01*
X165058399Y-104483648D01*
X164910024Y-104529578D01*
X164734751Y-104548000D01*
X121522108Y-104548000D01*
X121345423Y-104530676D01*
X121196730Y-104485783D01*
X121059593Y-104412866D01*
X120939229Y-104314698D01*
X120840224Y-104195022D01*
X120766352Y-104058399D01*
X120720422Y-103910024D01*
X120702000Y-103734751D01*
X120702000Y-101302589D01*
X121811000Y-101302589D01*
X121811000Y-102943410D01*
X121828204Y-103118084D01*
X121896192Y-103342211D01*
X122006599Y-103548768D01*
X122155182Y-103729818D01*
X122336231Y-103878401D01*
X122542788Y-103988808D01*
X122766915Y-104056796D01*
X123000000Y-104079753D01*
X123233084Y-104056796D01*
X123457211Y-103988808D01*
X123663768Y-103878401D01*
X123844818Y-103729818D01*
X123993401Y-103548769D01*
X124103808Y-103342212D01*
X124171796Y-103118085D01*
X124189000Y-102943411D01*
X124189000Y-101556589D01*
X124351000Y-101556589D01*
X124351000Y-103197410D01*
X124368204Y-103372084D01*
X124436192Y-103596211D01*
X124546599Y-103802768D01*
X124695182Y-103983818D01*
X124876231Y-104132401D01*
X125082788Y-104242808D01*
X125306915Y-104310796D01*
X125540000Y-104333753D01*
X125773084Y-104310796D01*
X125997211Y-104242808D01*
X126203768Y-104132401D01*
X126384818Y-103983818D01*
X126533401Y-103802769D01*
X126643808Y-103596212D01*
X126711796Y-103372085D01*
X126729000Y-103197411D01*
X126729000Y-101556589D01*
X126711796Y-101381915D01*
X126687733Y-101302589D01*
X126891000Y-101302589D01*
X126891000Y-102943410D01*
X126908204Y-103118084D01*
X126976192Y-103342211D01*
X127086599Y-103548768D01*
X127235182Y-103729818D01*
X127416231Y-103878401D01*
X127622788Y-103988808D01*
X127846915Y-104056796D01*
X128080000Y-104079753D01*
X128313084Y-104056796D01*
X128537211Y-103988808D01*
X128743768Y-103878401D01*
X128924818Y-103729818D01*
X129073401Y-103548769D01*
X129183808Y-103342212D01*
X129251796Y-103118085D01*
X129269000Y-102943411D01*
X129269000Y-101556589D01*
X129431000Y-101556589D01*
X129431000Y-103197410D01*
X129448204Y-103372084D01*
X129516192Y-103596211D01*
X129626599Y-103802768D01*
X129775182Y-103983818D01*
X129956231Y-104132401D01*
X130162788Y-104242808D01*
X130386915Y-104310796D01*
X130620000Y-104333753D01*
X130853084Y-104310796D01*
X131077211Y-104242808D01*
X131283768Y-104132401D01*
X131464818Y-103983818D01*
X131613401Y-103802769D01*
X131723808Y-103596212D01*
X131791796Y-103372085D01*
X131809000Y-103197411D01*
X131809000Y-102146000D01*
X131971000Y-102146000D01*
X131971000Y-102908000D01*
X131998333Y-103139520D01*
X132070308Y-103361259D01*
X132184160Y-103564696D01*
X132335513Y-103742013D01*
X132518550Y-103886395D01*
X132726238Y-103992294D01*
X132951317Y-104055544D01*
X133137000Y-103967006D01*
X133137000Y-102146000D01*
X133183000Y-102146000D01*
X133183000Y-103967006D01*
X133368683Y-104055544D01*
X133593762Y-103992294D01*
X133801450Y-103886395D01*
X133984487Y-103742013D01*
X134135840Y-103564696D01*
X134249692Y-103361259D01*
X134321667Y-103139520D01*
X134349000Y-102908000D01*
X134349000Y-102146000D01*
X133183000Y-102146000D01*
X133137000Y-102146000D01*
X131971000Y-102146000D01*
X131809000Y-102146000D01*
X131809000Y-101556589D01*
X131791796Y-101381915D01*
X131778475Y-101338000D01*
X131971000Y-101338000D01*
X131971000Y-102100000D01*
X133137000Y-102100000D01*
X133137000Y-100278994D01*
X133183000Y-100278994D01*
X133183000Y-102100000D01*
X134349000Y-102100000D01*
X134349000Y-101556589D01*
X134511000Y-101556589D01*
X134511000Y-103197410D01*
X134528204Y-103372084D01*
X134596192Y-103596211D01*
X134706599Y-103802768D01*
X134855182Y-103983818D01*
X135036231Y-104132401D01*
X135242788Y-104242808D01*
X135466915Y-104310796D01*
X135700000Y-104333753D01*
X135933084Y-104310796D01*
X136157211Y-104242808D01*
X136363768Y-104132401D01*
X136544818Y-103983818D01*
X136693401Y-103802769D01*
X136803808Y-103596212D01*
X136871796Y-103372085D01*
X136889000Y-103197411D01*
X136889000Y-101556589D01*
X136871796Y-101381915D01*
X136818550Y-101206385D01*
X137153470Y-100871464D01*
X137136193Y-100903788D01*
X137068204Y-101127915D01*
X137051000Y-101302589D01*
X137051000Y-102943410D01*
X137068204Y-103118084D01*
X137136192Y-103342211D01*
X137246599Y-103548768D01*
X137395182Y-103729818D01*
X137576231Y-103878401D01*
X137782788Y-103988808D01*
X138006915Y-104056796D01*
X138240000Y-104079753D01*
X138473084Y-104056796D01*
X138697211Y-103988808D01*
X138903768Y-103878401D01*
X139084818Y-103729818D01*
X139233401Y-103548769D01*
X139343808Y-103342212D01*
X139411796Y-103118085D01*
X139429000Y-102943411D01*
X139429000Y-101302589D01*
X139411796Y-101127915D01*
X139358550Y-100952385D01*
X141558935Y-98752000D01*
X142933065Y-98752000D01*
X141188615Y-100496450D01*
X141013085Y-100443204D01*
X140780000Y-100420247D01*
X140546916Y-100443204D01*
X140322789Y-100511192D01*
X140116232Y-100621599D01*
X139935183Y-100770182D01*
X139786600Y-100951231D01*
X139676193Y-101157788D01*
X139608204Y-101381915D01*
X139591000Y-101556589D01*
X139591000Y-103197410D01*
X139608204Y-103372084D01*
X139676192Y-103596211D01*
X139786599Y-103802768D01*
X139935182Y-103983818D01*
X140116231Y-104132401D01*
X140322788Y-104242808D01*
X140546915Y-104310796D01*
X140780000Y-104333753D01*
X141013084Y-104310796D01*
X141237211Y-104242808D01*
X141443768Y-104132401D01*
X141624818Y-103983818D01*
X141773401Y-103802769D01*
X141883808Y-103596212D01*
X141951796Y-103372085D01*
X141969000Y-103197411D01*
X141969000Y-101556589D01*
X141951796Y-101381915D01*
X141898550Y-101206385D01*
X142233471Y-100871464D01*
X142216193Y-100903788D01*
X142148204Y-101127915D01*
X142131000Y-101302589D01*
X142131000Y-102943410D01*
X142148204Y-103118084D01*
X142216192Y-103342211D01*
X142326599Y-103548768D01*
X142475182Y-103729818D01*
X142656231Y-103878401D01*
X142862788Y-103988808D01*
X143086915Y-104056796D01*
X143320000Y-104079753D01*
X143553084Y-104056796D01*
X143777211Y-103988808D01*
X143983768Y-103878401D01*
X144164818Y-103729818D01*
X144313401Y-103548769D01*
X144423808Y-103342212D01*
X144491796Y-103118085D01*
X144509000Y-102943411D01*
X144509000Y-101556589D01*
X144671000Y-101556589D01*
X144671000Y-103197410D01*
X144688204Y-103372084D01*
X144756192Y-103596211D01*
X144866599Y-103802768D01*
X145015182Y-103983818D01*
X145196231Y-104132401D01*
X145402788Y-104242808D01*
X145626915Y-104310796D01*
X145860000Y-104333753D01*
X146093084Y-104310796D01*
X146317211Y-104242808D01*
X146523768Y-104132401D01*
X146704818Y-103983818D01*
X146853401Y-103802769D01*
X146963808Y-103596212D01*
X147031796Y-103372085D01*
X147049000Y-103197411D01*
X147049000Y-101556589D01*
X147031796Y-101381915D01*
X147007733Y-101302589D01*
X147211000Y-101302589D01*
X147211000Y-102943410D01*
X147228204Y-103118084D01*
X147296192Y-103342211D01*
X147406599Y-103548768D01*
X147555182Y-103729818D01*
X147736231Y-103878401D01*
X147942788Y-103988808D01*
X148166915Y-104056796D01*
X148400000Y-104079753D01*
X148633084Y-104056796D01*
X148857211Y-103988808D01*
X149063768Y-103878401D01*
X149244818Y-103729818D01*
X149393401Y-103548769D01*
X149503808Y-103342212D01*
X149571796Y-103118085D01*
X149589000Y-102943411D01*
X149589000Y-101556589D01*
X149751000Y-101556589D01*
X149751000Y-103197410D01*
X149768204Y-103372084D01*
X149836192Y-103596211D01*
X149946599Y-103802768D01*
X150095182Y-103983818D01*
X150276231Y-104132401D01*
X150482788Y-104242808D01*
X150706915Y-104310796D01*
X150940000Y-104333753D01*
X151173084Y-104310796D01*
X151397211Y-104242808D01*
X151603768Y-104132401D01*
X151784818Y-103983818D01*
X151933401Y-103802769D01*
X152043808Y-103596212D01*
X152111796Y-103372085D01*
X152129000Y-103197411D01*
X152129000Y-101556589D01*
X152111796Y-101381915D01*
X152087733Y-101302589D01*
X152291000Y-101302589D01*
X152291000Y-102943410D01*
X152308204Y-103118084D01*
X152376192Y-103342211D01*
X152486599Y-103548768D01*
X152635182Y-103729818D01*
X152816231Y-103878401D01*
X153022788Y-103988808D01*
X153246915Y-104056796D01*
X153480000Y-104079753D01*
X153713084Y-104056796D01*
X153937211Y-103988808D01*
X154143768Y-103878401D01*
X154324818Y-103729818D01*
X154473401Y-103548769D01*
X154583808Y-103342212D01*
X154651796Y-103118085D01*
X154669000Y-102943411D01*
X154669000Y-101556589D01*
X154831000Y-101556589D01*
X154831000Y-103197410D01*
X154848204Y-103372084D01*
X154916192Y-103596211D01*
X155026599Y-103802768D01*
X155175182Y-103983818D01*
X155356231Y-104132401D01*
X155562788Y-104242808D01*
X155786915Y-104310796D01*
X156020000Y-104333753D01*
X156253084Y-104310796D01*
X156477211Y-104242808D01*
X156683768Y-104132401D01*
X156864818Y-103983818D01*
X157013401Y-103802769D01*
X157123808Y-103596212D01*
X157191796Y-103372085D01*
X157209000Y-103197411D01*
X157209000Y-101556589D01*
X157191796Y-101381915D01*
X157167733Y-101302589D01*
X157371000Y-101302589D01*
X157371000Y-102943410D01*
X157388204Y-103118084D01*
X157456192Y-103342211D01*
X157566599Y-103548768D01*
X157715182Y-103729818D01*
X157896231Y-103878401D01*
X158102788Y-103988808D01*
X158326915Y-104056796D01*
X158560000Y-104079753D01*
X158793084Y-104056796D01*
X159017211Y-103988808D01*
X159223768Y-103878401D01*
X159404818Y-103729818D01*
X159553401Y-103548769D01*
X159663808Y-103342212D01*
X159731796Y-103118085D01*
X159749000Y-102943411D01*
X159749000Y-101556589D01*
X159911000Y-101556589D01*
X159911000Y-103197410D01*
X159928204Y-103372084D01*
X159996192Y-103596211D01*
X160106599Y-103802768D01*
X160255182Y-103983818D01*
X160436231Y-104132401D01*
X160642788Y-104242808D01*
X160866915Y-104310796D01*
X161100000Y-104333753D01*
X161333084Y-104310796D01*
X161557211Y-104242808D01*
X161763768Y-104132401D01*
X161944818Y-103983818D01*
X162093401Y-103802769D01*
X162203808Y-103596212D01*
X162271796Y-103372085D01*
X162289000Y-103197411D01*
X162289000Y-101556589D01*
X162271796Y-101381915D01*
X162247733Y-101302589D01*
X162451000Y-101302589D01*
X162451000Y-102943410D01*
X162468204Y-103118084D01*
X162536192Y-103342211D01*
X162646599Y-103548768D01*
X162795182Y-103729818D01*
X162976231Y-103878401D01*
X163182788Y-103988808D01*
X163406915Y-104056796D01*
X163640000Y-104079753D01*
X163873084Y-104056796D01*
X164097211Y-103988808D01*
X164303768Y-103878401D01*
X164484818Y-103729818D01*
X164633401Y-103548769D01*
X164743808Y-103342212D01*
X164811796Y-103118085D01*
X164829000Y-102943411D01*
X164829000Y-101302589D01*
X164811796Y-101127915D01*
X164743808Y-100903788D01*
X164633401Y-100697231D01*
X164484818Y-100516182D01*
X164303769Y-100367599D01*
X164097212Y-100257192D01*
X163873085Y-100189204D01*
X163640000Y-100166247D01*
X163406916Y-100189204D01*
X163182789Y-100257192D01*
X162976232Y-100367599D01*
X162795183Y-100516182D01*
X162646600Y-100697231D01*
X162536193Y-100903788D01*
X162468204Y-101127915D01*
X162451000Y-101302589D01*
X162247733Y-101302589D01*
X162203808Y-101157788D01*
X162093401Y-100951231D01*
X161944818Y-100770182D01*
X161763769Y-100621599D01*
X161557212Y-100511192D01*
X161333085Y-100443204D01*
X161100000Y-100420247D01*
X160866916Y-100443204D01*
X160642789Y-100511192D01*
X160436232Y-100621599D01*
X160255183Y-100770182D01*
X160106600Y-100951231D01*
X159996193Y-101157788D01*
X159928204Y-101381915D01*
X159911000Y-101556589D01*
X159749000Y-101556589D01*
X159749000Y-101302589D01*
X159731796Y-101127915D01*
X159663808Y-100903788D01*
X159553401Y-100697231D01*
X159404818Y-100516182D01*
X159223769Y-100367599D01*
X159017212Y-100257192D01*
X158793085Y-100189204D01*
X158560000Y-100166247D01*
X158326916Y-100189204D01*
X158102789Y-100257192D01*
X157896232Y-100367599D01*
X157715183Y-100516182D01*
X157566600Y-100697231D01*
X157456193Y-100903788D01*
X157388204Y-101127915D01*
X157371000Y-101302589D01*
X157167733Y-101302589D01*
X157123808Y-101157788D01*
X157013401Y-100951231D01*
X156864818Y-100770182D01*
X156683769Y-100621599D01*
X156477212Y-100511192D01*
X156253085Y-100443204D01*
X156020000Y-100420247D01*
X155786916Y-100443204D01*
X155562789Y-100511192D01*
X155356232Y-100621599D01*
X155175183Y-100770182D01*
X155026600Y-100951231D01*
X154916193Y-101157788D01*
X154848204Y-101381915D01*
X154831000Y-101556589D01*
X154669000Y-101556589D01*
X154669000Y-101302589D01*
X154651796Y-101127915D01*
X154583808Y-100903788D01*
X154473401Y-100697231D01*
X154324818Y-100516182D01*
X154143769Y-100367599D01*
X153937212Y-100257192D01*
X153713085Y-100189204D01*
X153480000Y-100166247D01*
X153246916Y-100189204D01*
X153022789Y-100257192D01*
X152816232Y-100367599D01*
X152635183Y-100516182D01*
X152486600Y-100697231D01*
X152376193Y-100903788D01*
X152308204Y-101127915D01*
X152291000Y-101302589D01*
X152087733Y-101302589D01*
X152043808Y-101157788D01*
X151933401Y-100951231D01*
X151784818Y-100770182D01*
X151603769Y-100621599D01*
X151397212Y-100511192D01*
X151173085Y-100443204D01*
X150940000Y-100420247D01*
X150706916Y-100443204D01*
X150482789Y-100511192D01*
X150276232Y-100621599D01*
X150095183Y-100770182D01*
X149946600Y-100951231D01*
X149836193Y-101157788D01*
X149768204Y-101381915D01*
X149751000Y-101556589D01*
X149589000Y-101556589D01*
X149589000Y-101302589D01*
X149571796Y-101127915D01*
X149503808Y-100903788D01*
X149393401Y-100697231D01*
X149244818Y-100516182D01*
X149063769Y-100367599D01*
X148857212Y-100257192D01*
X148633085Y-100189204D01*
X148400000Y-100166247D01*
X148166916Y-100189204D01*
X147942789Y-100257192D01*
X147736232Y-100367599D01*
X147555183Y-100516182D01*
X147406600Y-100697231D01*
X147296193Y-100903788D01*
X147228204Y-101127915D01*
X147211000Y-101302589D01*
X147007733Y-101302589D01*
X146963808Y-101157788D01*
X146853401Y-100951231D01*
X146704818Y-100770182D01*
X146523769Y-100621599D01*
X146317212Y-100511192D01*
X146093085Y-100443204D01*
X145860000Y-100420247D01*
X145626916Y-100443204D01*
X145402789Y-100511192D01*
X145196232Y-100621599D01*
X145015183Y-100770182D01*
X144866600Y-100951231D01*
X144756193Y-101157788D01*
X144688204Y-101381915D01*
X144671000Y-101556589D01*
X144509000Y-101556589D01*
X144509000Y-101302589D01*
X144491796Y-101127915D01*
X144423808Y-100903788D01*
X144313401Y-100697231D01*
X144164818Y-100516182D01*
X143983769Y-100367599D01*
X143822000Y-100281132D01*
X143822000Y-100137934D01*
X144457936Y-99502000D01*
X147975357Y-99502000D01*
X148000000Y-99504427D01*
X148024643Y-99502000D01*
X148024653Y-99502000D01*
X148098409Y-99494736D01*
X148193036Y-99466031D01*
X148280245Y-99419417D01*
X148356684Y-99356684D01*
X148372402Y-99337532D01*
X153337543Y-94372392D01*
X153356684Y-94356684D01*
X153372392Y-94337544D01*
X153372400Y-94337536D01*
X153419416Y-94280246D01*
X153433216Y-94254428D01*
X153466031Y-94193036D01*
X153494736Y-94098409D01*
X153502000Y-94024653D01*
X153502000Y-94024643D01*
X153504427Y-94000000D01*
X153502000Y-93975357D01*
X153502000Y-89855221D01*
X153517123Y-89891731D01*
X153607628Y-90027181D01*
X153722819Y-90142372D01*
X153858269Y-90232877D01*
X154008773Y-90295218D01*
X154168548Y-90327000D01*
X154331452Y-90327000D01*
X154491227Y-90295218D01*
X154641731Y-90232877D01*
X154777181Y-90142372D01*
X154892372Y-90027181D01*
X154982877Y-89891731D01*
X155045218Y-89741227D01*
X155077000Y-89581452D01*
X155077000Y-89418548D01*
X155069388Y-89380280D01*
X155069415Y-89380247D01*
X155082010Y-89356684D01*
X155116030Y-89293037D01*
X155144735Y-89198410D01*
X155151999Y-89124654D01*
X155151999Y-89124645D01*
X155154426Y-89100002D01*
X155151999Y-89075359D01*
X155151999Y-81924641D01*
X155154426Y-81899998D01*
X155151999Y-81875355D01*
X155151999Y-81875346D01*
X155144735Y-81801590D01*
X155116030Y-81706963D01*
X155069416Y-81619754D01*
X155006683Y-81543315D01*
X154987537Y-81527602D01*
X152752000Y-79292066D01*
X152752000Y-73909197D01*
X152777181Y-73892372D01*
X152892372Y-73777181D01*
X152982877Y-73641731D01*
X153045218Y-73491227D01*
X153077000Y-73331452D01*
X153077000Y-73168548D01*
X153045218Y-73008773D01*
X152982877Y-72858269D01*
X152892372Y-72722819D01*
X152777181Y-72607628D01*
X152641731Y-72517123D01*
X152491227Y-72454782D01*
X152331452Y-72423000D01*
X152168548Y-72423000D01*
X152008773Y-72454782D01*
X151858269Y-72517123D01*
X151722819Y-72607628D01*
X151625000Y-72705447D01*
X151527181Y-72607628D01*
X151391731Y-72517123D01*
X151241227Y-72454782D01*
X151081452Y-72423000D01*
X150918548Y-72423000D01*
X150758773Y-72454782D01*
X150608269Y-72517123D01*
X150472819Y-72607628D01*
X150357628Y-72722819D01*
X150267123Y-72858269D01*
X150204782Y-73008773D01*
X150173000Y-73168548D01*
X150173000Y-73331452D01*
X150204782Y-73491227D01*
X150267123Y-73641731D01*
X150357628Y-73777181D01*
X150472819Y-73892372D01*
X150498001Y-73909198D01*
X150498000Y-79542065D01*
X148412463Y-81627603D01*
X148393317Y-81643316D01*
X148377604Y-81662462D01*
X148377601Y-81662465D01*
X148330584Y-81719755D01*
X148283970Y-81806964D01*
X148255265Y-81901591D01*
X148245573Y-82000000D01*
X148248001Y-82024653D01*
X148248000Y-88840802D01*
X148222819Y-88857628D01*
X148107628Y-88972819D01*
X148017123Y-89108269D01*
X147954782Y-89258773D01*
X147923000Y-89418548D01*
X147923000Y-89581452D01*
X147954782Y-89741227D01*
X148017123Y-89891731D01*
X148107628Y-90027181D01*
X148222819Y-90142372D01*
X148358269Y-90232877D01*
X148508773Y-90295218D01*
X148668548Y-90327000D01*
X148831452Y-90327000D01*
X148991227Y-90295218D01*
X149141731Y-90232877D01*
X149277181Y-90142372D01*
X149392372Y-90027181D01*
X149482877Y-89891731D01*
X149545218Y-89741227D01*
X149577000Y-89581452D01*
X149577000Y-89418548D01*
X149545218Y-89258773D01*
X149482877Y-89108269D01*
X149392372Y-88972819D01*
X149277181Y-88857628D01*
X149252000Y-88840803D01*
X149252000Y-82207934D01*
X151337538Y-80122397D01*
X151356684Y-80106684D01*
X151372397Y-80087538D01*
X151372400Y-80087535D01*
X151419417Y-80030246D01*
X151466031Y-79943037D01*
X151494736Y-79848410D01*
X151501449Y-79780245D01*
X151502000Y-79774653D01*
X151502000Y-79774646D01*
X151504427Y-79750000D01*
X151502000Y-79725355D01*
X151502000Y-73909197D01*
X151527181Y-73892372D01*
X151625000Y-73794553D01*
X151722819Y-73892372D01*
X151748001Y-73909198D01*
X151748000Y-79475357D01*
X151745573Y-79500000D01*
X151748000Y-79524643D01*
X151748000Y-79524652D01*
X151755264Y-79598408D01*
X151783969Y-79693035D01*
X151830583Y-79780245D01*
X151893316Y-79856684D01*
X151912467Y-79872402D01*
X154148000Y-82107935D01*
X154147999Y-88677088D01*
X154008773Y-88704782D01*
X153858269Y-88767123D01*
X153722819Y-88857628D01*
X153607628Y-88972819D01*
X153517123Y-89108269D01*
X153502000Y-89144779D01*
X153502000Y-83909197D01*
X153527181Y-83892372D01*
X153642372Y-83777181D01*
X153732877Y-83641731D01*
X153795218Y-83491227D01*
X153827000Y-83331452D01*
X153827000Y-83168548D01*
X153795218Y-83008773D01*
X153732877Y-82858269D01*
X153642372Y-82722819D01*
X153527181Y-82607628D01*
X153391731Y-82517123D01*
X153241227Y-82454782D01*
X153081452Y-82423000D01*
X152918548Y-82423000D01*
X152758773Y-82454782D01*
X152608269Y-82517123D01*
X152472819Y-82607628D01*
X152357628Y-82722819D01*
X152267123Y-82858269D01*
X152204782Y-83008773D01*
X152173000Y-83168548D01*
X152173000Y-83331452D01*
X152204782Y-83491227D01*
X152267123Y-83641731D01*
X152357628Y-83777181D01*
X152472819Y-83892372D01*
X152498000Y-83909197D01*
X152498000Y-83931267D01*
X152456442Y-83923000D01*
X152293538Y-83923000D01*
X152262266Y-83929221D01*
X152232877Y-83858269D01*
X152142372Y-83722819D01*
X152027181Y-83607628D01*
X151891731Y-83517123D01*
X151741227Y-83454782D01*
X151581452Y-83423000D01*
X151418548Y-83423000D01*
X151304268Y-83445732D01*
X151327000Y-83331452D01*
X151327000Y-83168548D01*
X151295218Y-83008773D01*
X151232877Y-82858269D01*
X151142372Y-82722819D01*
X151027181Y-82607628D01*
X150891731Y-82517123D01*
X150741227Y-82454782D01*
X150581452Y-82423000D01*
X150418548Y-82423000D01*
X150258773Y-82454782D01*
X150108269Y-82517123D01*
X149972819Y-82607628D01*
X149857628Y-82722819D01*
X149767123Y-82858269D01*
X149704782Y-83008773D01*
X149673000Y-83168548D01*
X149673000Y-83331452D01*
X149704782Y-83491227D01*
X149767123Y-83641731D01*
X149857628Y-83777181D01*
X149972819Y-83892372D01*
X149998000Y-83909197D01*
X149998001Y-93792063D01*
X146542066Y-97248000D01*
X139589642Y-97248000D01*
X139564999Y-97245573D01*
X139540356Y-97248000D01*
X139540347Y-97248000D01*
X139466591Y-97255264D01*
X139371964Y-97283969D01*
X139284755Y-97330583D01*
X139208316Y-97393316D01*
X139192603Y-97412462D01*
X136108615Y-100496450D01*
X135933085Y-100443204D01*
X135700000Y-100420247D01*
X135466916Y-100443204D01*
X135242789Y-100511192D01*
X135036232Y-100621599D01*
X134855183Y-100770182D01*
X134706600Y-100951231D01*
X134596193Y-101157788D01*
X134528204Y-101381915D01*
X134511000Y-101556589D01*
X134349000Y-101556589D01*
X134349000Y-101338000D01*
X134321667Y-101106480D01*
X134249692Y-100884741D01*
X134135840Y-100681304D01*
X133984487Y-100503987D01*
X133801450Y-100359605D01*
X133593762Y-100253706D01*
X133368683Y-100190456D01*
X133183000Y-100278994D01*
X133137000Y-100278994D01*
X132951317Y-100190456D01*
X132726238Y-100253706D01*
X132518550Y-100359605D01*
X132335513Y-100503987D01*
X132184160Y-100681304D01*
X132070308Y-100884741D01*
X131998333Y-101106480D01*
X131971000Y-101338000D01*
X131778475Y-101338000D01*
X131723808Y-101157788D01*
X131613401Y-100951231D01*
X131464818Y-100770182D01*
X131283769Y-100621599D01*
X131077212Y-100511192D01*
X130853085Y-100443204D01*
X130620000Y-100420247D01*
X130386916Y-100443204D01*
X130162789Y-100511192D01*
X129956232Y-100621599D01*
X129775183Y-100770182D01*
X129626600Y-100951231D01*
X129516193Y-101157788D01*
X129448204Y-101381915D01*
X129431000Y-101556589D01*
X129269000Y-101556589D01*
X129269000Y-101302589D01*
X129251796Y-101127915D01*
X129183808Y-100903788D01*
X129073401Y-100697231D01*
X128924818Y-100516182D01*
X128743769Y-100367599D01*
X128537212Y-100257192D01*
X128313085Y-100189204D01*
X128080000Y-100166247D01*
X127846916Y-100189204D01*
X127622789Y-100257192D01*
X127416232Y-100367599D01*
X127235183Y-100516182D01*
X127086600Y-100697231D01*
X126976193Y-100903788D01*
X126908204Y-101127915D01*
X126891000Y-101302589D01*
X126687733Y-101302589D01*
X126643808Y-101157788D01*
X126533401Y-100951231D01*
X126384818Y-100770182D01*
X126203769Y-100621599D01*
X125997212Y-100511192D01*
X125773085Y-100443204D01*
X125540000Y-100420247D01*
X125306916Y-100443204D01*
X125082789Y-100511192D01*
X124876232Y-100621599D01*
X124695183Y-100770182D01*
X124546600Y-100951231D01*
X124436193Y-101157788D01*
X124368204Y-101381915D01*
X124351000Y-101556589D01*
X124189000Y-101556589D01*
X124189000Y-101302589D01*
X124171796Y-101127915D01*
X124103808Y-100903788D01*
X123993401Y-100697231D01*
X123844818Y-100516182D01*
X123663769Y-100367599D01*
X123502000Y-100281132D01*
X123502000Y-99457934D01*
X127122400Y-95837536D01*
X127122409Y-95837525D01*
X130707936Y-92252000D01*
X132225357Y-92252000D01*
X132250000Y-92254427D01*
X132274643Y-92252000D01*
X132274653Y-92252000D01*
X132348409Y-92244736D01*
X132443036Y-92216031D01*
X132530245Y-92169417D01*
X132606684Y-92106684D01*
X132622402Y-92087532D01*
X139013844Y-85696091D01*
X139043548Y-85702000D01*
X139206452Y-85702000D01*
X139366227Y-85670218D01*
X139516731Y-85607877D01*
X139652181Y-85517372D01*
X139767372Y-85402181D01*
X139857877Y-85266731D01*
X139920218Y-85116227D01*
X139952000Y-84956452D01*
X139952000Y-84793548D01*
X139920218Y-84633773D01*
X139857877Y-84483269D01*
X139767372Y-84347819D01*
X139652181Y-84232628D01*
X139516731Y-84142123D01*
X139366227Y-84079782D01*
X139206452Y-84048000D01*
X139043548Y-84048000D01*
X138883773Y-84079782D01*
X138733269Y-84142123D01*
X138597819Y-84232628D01*
X138482628Y-84347819D01*
X138392123Y-84483269D01*
X138329782Y-84633773D01*
X138298000Y-84793548D01*
X138298000Y-84956452D01*
X138303909Y-84986156D01*
X134077000Y-89213066D01*
X134077000Y-89168548D01*
X134045218Y-89008773D01*
X133982877Y-88858269D01*
X133892372Y-88722819D01*
X133777181Y-88607628D01*
X133641731Y-88517123D01*
X133491227Y-88454782D01*
X133331452Y-88423000D01*
X133286935Y-88423000D01*
X133837538Y-87872397D01*
X133856684Y-87856684D01*
X133919417Y-87780245D01*
X133966031Y-87693036D01*
X133994736Y-87598409D01*
X134002000Y-87524653D01*
X134002000Y-87524644D01*
X134004427Y-87500001D01*
X134002000Y-87475358D01*
X134002000Y-82909197D01*
X134027181Y-82892372D01*
X134142372Y-82777181D01*
X134232877Y-82641731D01*
X134295218Y-82491227D01*
X134327000Y-82331452D01*
X134327000Y-82168548D01*
X134295218Y-82008773D01*
X134232877Y-81858269D01*
X134142372Y-81722819D01*
X134027181Y-81607628D01*
X133891731Y-81517123D01*
X133741227Y-81454782D01*
X133581452Y-81423000D01*
X133418548Y-81423000D01*
X133258773Y-81454782D01*
X133252000Y-81457587D01*
X133252000Y-76957934D01*
X133638843Y-76571091D01*
X133668548Y-76577000D01*
X133831452Y-76577000D01*
X133991227Y-76545218D01*
X134141731Y-76482877D01*
X134277181Y-76392372D01*
X134392372Y-76277181D01*
X134482877Y-76141731D01*
X134545218Y-75991227D01*
X134577000Y-75831452D01*
X134577000Y-75668548D01*
X134545218Y-75508773D01*
X134482877Y-75358269D01*
X134392372Y-75222819D01*
X134277181Y-75107628D01*
X134141731Y-75017123D01*
X133991227Y-74954782D01*
X133831452Y-74923000D01*
X133668548Y-74923000D01*
X133508773Y-74954782D01*
X133358269Y-75017123D01*
X133222819Y-75107628D01*
X133107628Y-75222819D01*
X133017123Y-75358269D01*
X132954782Y-75508773D01*
X132923000Y-75668548D01*
X132923000Y-75831452D01*
X132928909Y-75861157D01*
X132412467Y-76377599D01*
X132393316Y-76393316D01*
X132330583Y-76469755D01*
X132283969Y-76556965D01*
X132255264Y-76651592D01*
X132248000Y-76725348D01*
X132248000Y-76725357D01*
X132245573Y-76750000D01*
X132248000Y-76774643D01*
X132248001Y-82338130D01*
X132141731Y-82267123D01*
X131991227Y-82204782D01*
X131831452Y-82173000D01*
X131668548Y-82173000D01*
X131508773Y-82204782D01*
X131358269Y-82267123D01*
X131222819Y-82357628D01*
X131107628Y-82472819D01*
X131017123Y-82608269D01*
X130954782Y-82758773D01*
X130923000Y-82918548D01*
X130923000Y-83081452D01*
X130954782Y-83241227D01*
X131017123Y-83391731D01*
X131107628Y-83527181D01*
X131222819Y-83642372D01*
X131248000Y-83659198D01*
X131248001Y-84209244D01*
X131108269Y-84267123D01*
X131002000Y-84338130D01*
X131002000Y-83536983D01*
X131004427Y-83512340D01*
X131002000Y-83487697D01*
X131002000Y-83487687D01*
X130994736Y-83413931D01*
X130966031Y-83319304D01*
X130944332Y-83278708D01*
X130919417Y-83232094D01*
X130872400Y-83174804D01*
X130872392Y-83174796D01*
X130856684Y-83155656D01*
X130837543Y-83139947D01*
X129203472Y-81505877D01*
X128646895Y-79270412D01*
X128732877Y-79141731D01*
X128795218Y-78991227D01*
X128827000Y-78831452D01*
X128827000Y-78668548D01*
X128795218Y-78508773D01*
X128732877Y-78358269D01*
X128642372Y-78222819D01*
X128527181Y-78107628D01*
X128391731Y-78017123D01*
X128241227Y-77954782D01*
X128081452Y-77923000D01*
X127918548Y-77923000D01*
X127758773Y-77954782D01*
X127608269Y-78017123D01*
X127472819Y-78107628D01*
X127357628Y-78222819D01*
X127267123Y-78358269D01*
X127204782Y-78508773D01*
X127173000Y-78668548D01*
X127173000Y-78831452D01*
X127204782Y-78991227D01*
X127267123Y-79141731D01*
X127357628Y-79277181D01*
X127472819Y-79392372D01*
X127608269Y-79482877D01*
X127671684Y-79509144D01*
X128254014Y-81848051D01*
X128255265Y-81860749D01*
X128265926Y-81895894D01*
X128268827Y-81907545D01*
X128273097Y-81919533D01*
X128283970Y-81955376D01*
X128289648Y-81965998D01*
X128293695Y-81977361D01*
X128312928Y-82009552D01*
X128330584Y-82042585D01*
X128338228Y-82051899D01*
X128344412Y-82062250D01*
X128369552Y-82090067D01*
X128377601Y-82099875D01*
X128386066Y-82108340D01*
X128410715Y-82135614D01*
X128420962Y-82143236D01*
X129998000Y-83720276D01*
X129998001Y-88975347D01*
X129995573Y-89000000D01*
X130005265Y-89098409D01*
X130033970Y-89193036D01*
X130080584Y-89280245D01*
X130127601Y-89337535D01*
X130127604Y-89337538D01*
X130143317Y-89356684D01*
X130162463Y-89372397D01*
X131377603Y-90587538D01*
X131393316Y-90606684D01*
X131412462Y-90622397D01*
X131412464Y-90622399D01*
X131450652Y-90653739D01*
X131469755Y-90669417D01*
X131556964Y-90716031D01*
X131651591Y-90744736D01*
X131725347Y-90752000D01*
X131725357Y-90752000D01*
X131750000Y-90754427D01*
X131774643Y-90752000D01*
X132225357Y-90752000D01*
X132250000Y-90754427D01*
X132274643Y-90752000D01*
X132274653Y-90752000D01*
X132348409Y-90744736D01*
X132443036Y-90716031D01*
X132530245Y-90669417D01*
X132606684Y-90606684D01*
X132622401Y-90587533D01*
X133138843Y-90071091D01*
X133168548Y-90077000D01*
X133213066Y-90077000D01*
X132042066Y-91248000D01*
X130524643Y-91248000D01*
X130500000Y-91245573D01*
X130475357Y-91248000D01*
X130475347Y-91248000D01*
X130401591Y-91255264D01*
X130306964Y-91283969D01*
X130219755Y-91330583D01*
X130219753Y-91330584D01*
X130219754Y-91330584D01*
X130162464Y-91377600D01*
X130162456Y-91377608D01*
X130143316Y-91393316D01*
X130127607Y-91412457D01*
X126412475Y-95127591D01*
X126412464Y-95127600D01*
X122662467Y-98877599D01*
X122643316Y-98893316D01*
X122580583Y-98969755D01*
X122533969Y-99056965D01*
X122505264Y-99151592D01*
X122498000Y-99225348D01*
X122498000Y-99225357D01*
X122495573Y-99250000D01*
X122498000Y-99274643D01*
X122498000Y-100281132D01*
X122336232Y-100367599D01*
X122155183Y-100516182D01*
X122006600Y-100697231D01*
X121896193Y-100903788D01*
X121828204Y-101127915D01*
X121811000Y-101302589D01*
X120702000Y-101302589D01*
X120702000Y-72272108D01*
X120719324Y-72095423D01*
X120764217Y-71946730D01*
X120837132Y-71809597D01*
X120935300Y-71689230D01*
X121054978Y-71590224D01*
X121191601Y-71516352D01*
X121339976Y-71470422D01*
X121515249Y-71452000D01*
X164727892Y-71452000D01*
X164904577Y-71469324D01*
M02*
