G04 #@! TF.GenerationSoftware,KiCad,Pcbnew,(5.1.2)-2*
G04 #@! TF.CreationDate,2020-03-22T23:07:16-07:00*
G04 #@! TF.ProjectId,panel,70616e65-6c2e-46b6-9963-61645f706362,rev?*
G04 #@! TF.SameCoordinates,Original*
G04 #@! TF.FileFunction,Copper,L2,Bot*
G04 #@! TF.FilePolarity,Positive*
%FSLAX46Y46*%
G04 Gerber Fmt 4.6, Leading zero omitted, Abs format (unit mm)*
G04 Created by KiCad (PCBNEW (5.1.2)-2) date 2020-03-22 23:07:16*
%MOMM*%
%LPD*%
G04 APERTURE LIST*
%ADD10C,0.100000*%
%ADD11C,3.200000*%
G04 APERTURE END LIST*
D10*
G36*
X140456827Y-35907703D02*
G01*
X140612145Y-35930743D01*
X140764455Y-35968894D01*
X140912293Y-36021792D01*
X141054235Y-36088925D01*
X141188912Y-36169648D01*
X141315029Y-36263182D01*
X141431371Y-36368628D01*
X141536817Y-36484970D01*
X141630351Y-36611087D01*
X141711074Y-36745764D01*
X141778207Y-36887706D01*
X141831105Y-37035544D01*
X141869256Y-37187854D01*
X141892296Y-37343172D01*
X141900000Y-37499999D01*
X141900000Y-37500001D01*
X141892296Y-37656828D01*
X141869256Y-37812146D01*
X141831105Y-37964456D01*
X141778207Y-38112294D01*
X141711074Y-38254236D01*
X141630351Y-38388913D01*
X141536817Y-38515030D01*
X141431371Y-38631372D01*
X141315029Y-38736818D01*
X141188912Y-38830352D01*
X141054235Y-38911075D01*
X140912293Y-38978208D01*
X140764455Y-39031106D01*
X140612145Y-39069257D01*
X140456827Y-39092297D01*
X140300000Y-39100001D01*
X139500000Y-39100001D01*
X139343173Y-39092297D01*
X139187855Y-39069257D01*
X139035545Y-39031106D01*
X138887707Y-38978208D01*
X138745765Y-38911075D01*
X138611088Y-38830352D01*
X138484971Y-38736818D01*
X138368629Y-38631372D01*
X138263183Y-38515030D01*
X138169649Y-38388913D01*
X138088926Y-38254236D01*
X138021793Y-38112294D01*
X137968895Y-37964456D01*
X137930744Y-37812146D01*
X137907704Y-37656828D01*
X137900000Y-37500001D01*
X137900000Y-37499999D01*
X137907704Y-37343172D01*
X137930744Y-37187854D01*
X137968895Y-37035544D01*
X138021793Y-36887706D01*
X138088926Y-36745764D01*
X138169649Y-36611087D01*
X138263183Y-36484970D01*
X138368629Y-36368628D01*
X138484971Y-36263182D01*
X138611088Y-36169648D01*
X138745765Y-36088925D01*
X138887707Y-36021792D01*
X139035545Y-35968894D01*
X139187855Y-35930743D01*
X139343173Y-35907703D01*
X139500000Y-35899999D01*
X140300000Y-35899999D01*
X140456827Y-35907703D01*
X140456827Y-35907703D01*
G37*
D11*
X139900000Y-37500000D03*
D10*
G36*
X140456827Y-158307703D02*
G01*
X140612145Y-158330743D01*
X140764455Y-158368894D01*
X140912293Y-158421792D01*
X141054235Y-158488925D01*
X141188912Y-158569648D01*
X141315029Y-158663182D01*
X141431371Y-158768628D01*
X141536817Y-158884970D01*
X141630351Y-159011087D01*
X141711074Y-159145764D01*
X141778207Y-159287706D01*
X141831105Y-159435544D01*
X141869256Y-159587854D01*
X141892296Y-159743172D01*
X141900000Y-159899999D01*
X141900000Y-159900001D01*
X141892296Y-160056828D01*
X141869256Y-160212146D01*
X141831105Y-160364456D01*
X141778207Y-160512294D01*
X141711074Y-160654236D01*
X141630351Y-160788913D01*
X141536817Y-160915030D01*
X141431371Y-161031372D01*
X141315029Y-161136818D01*
X141188912Y-161230352D01*
X141054235Y-161311075D01*
X140912293Y-161378208D01*
X140764455Y-161431106D01*
X140612145Y-161469257D01*
X140456827Y-161492297D01*
X140300000Y-161500001D01*
X139500000Y-161500001D01*
X139343173Y-161492297D01*
X139187855Y-161469257D01*
X139035545Y-161431106D01*
X138887707Y-161378208D01*
X138745765Y-161311075D01*
X138611088Y-161230352D01*
X138484971Y-161136818D01*
X138368629Y-161031372D01*
X138263183Y-160915030D01*
X138169649Y-160788913D01*
X138088926Y-160654236D01*
X138021793Y-160512294D01*
X137968895Y-160364456D01*
X137930744Y-160212146D01*
X137907704Y-160056828D01*
X137900000Y-159900001D01*
X137900000Y-159899999D01*
X137907704Y-159743172D01*
X137930744Y-159587854D01*
X137968895Y-159435544D01*
X138021793Y-159287706D01*
X138088926Y-159145764D01*
X138169649Y-159011087D01*
X138263183Y-158884970D01*
X138368629Y-158768628D01*
X138484971Y-158663182D01*
X138611088Y-158569648D01*
X138745765Y-158488925D01*
X138887707Y-158421792D01*
X139035545Y-158368894D01*
X139187855Y-158330743D01*
X139343173Y-158307703D01*
X139500000Y-158299999D01*
X140300000Y-158299999D01*
X140456827Y-158307703D01*
X140456827Y-158307703D01*
G37*
D11*
X139900000Y-159900000D03*
M02*
