G04 #@! TF.GenerationSoftware,KiCad,Pcbnew,(5.1.2)-2*
G04 #@! TF.CreationDate,2020-03-22T23:07:16-07:00*
G04 #@! TF.ProjectId,panel,70616e65-6c2e-46b6-9963-61645f706362,rev?*
G04 #@! TF.SameCoordinates,Original*
G04 #@! TF.FileFunction,Profile,NP*
%FSLAX46Y46*%
G04 Gerber Fmt 4.6, Leading zero omitted, Abs format (unit mm)*
G04 Created by KiCad (PCBNEW (5.1.2)-2) date 2020-03-22 23:07:16*
%MOMM*%
%LPD*%
G04 APERTURE LIST*
%ADD10C,0.100000*%
G04 APERTURE END LIST*
D10*
X132350000Y-34450000D02*
X172649999Y-34450000D01*
X172649999Y-34450000D02*
X172649999Y-162950000D01*
X172649999Y-162950000D02*
X132350000Y-162950000D01*
X132350000Y-162950000D02*
X132350000Y-34450000D01*
X132350000Y-34450000D02*
X132350000Y-34450000D01*
X164811265Y-141140200D02*
X164796097Y-141446583D01*
X164796097Y-141446583D02*
X164751152Y-141747777D01*
X164751152Y-141747777D02*
X164677274Y-142041748D01*
X164677274Y-142041748D02*
X164575303Y-142326465D01*
X164575303Y-142326465D02*
X164446082Y-142599894D01*
X164446082Y-142599894D02*
X164290453Y-142860004D01*
X164290453Y-142860004D02*
X164109257Y-143104760D01*
X164109257Y-143104760D02*
X163903337Y-143332132D01*
X163903337Y-143332132D02*
X163675965Y-143538052D01*
X163675965Y-143538052D02*
X163431208Y-143719247D01*
X163431208Y-143719247D02*
X163171098Y-143874876D01*
X163171098Y-143874876D02*
X162897669Y-144004097D01*
X162897669Y-144004097D02*
X162612951Y-144106068D01*
X162612951Y-144106068D02*
X162318979Y-144179947D01*
X162318979Y-144179947D02*
X162017785Y-144224891D01*
X162017785Y-144224891D02*
X161711401Y-144240060D01*
X161711401Y-144240060D02*
X161405018Y-144224891D01*
X161405018Y-144224891D02*
X161103823Y-144179947D01*
X161103823Y-144179947D02*
X160809851Y-144106068D01*
X160809851Y-144106068D02*
X160525134Y-144004097D01*
X160525134Y-144004097D02*
X160251704Y-143874876D01*
X160251704Y-143874876D02*
X159991594Y-143719247D01*
X159991594Y-143719247D02*
X159746837Y-143538052D01*
X159746837Y-143538052D02*
X159519465Y-143332132D01*
X159519465Y-143332132D02*
X159313545Y-143104761D01*
X159313545Y-143104761D02*
X159132349Y-142860004D01*
X159132349Y-142860004D02*
X158976720Y-142599895D01*
X158976720Y-142599895D02*
X158847499Y-142326465D01*
X158847499Y-142326465D02*
X158745528Y-142041748D01*
X158745528Y-142041748D02*
X158671649Y-141747777D01*
X158671649Y-141747777D02*
X158626705Y-141446583D01*
X158626705Y-141446583D02*
X158611536Y-141140200D01*
X158611536Y-141140200D02*
X158626705Y-140833817D01*
X158626705Y-140833817D02*
X158671649Y-140532623D01*
X158671649Y-140532623D02*
X158745528Y-140238652D01*
X158745528Y-140238652D02*
X158847499Y-139953935D01*
X158847499Y-139953935D02*
X158976720Y-139680505D01*
X158976720Y-139680505D02*
X159132349Y-139420396D01*
X159132349Y-139420396D02*
X159313545Y-139175639D01*
X159313545Y-139175639D02*
X159519465Y-138948268D01*
X159519465Y-138948268D02*
X159746837Y-138742348D01*
X159746837Y-138742348D02*
X159991594Y-138561153D01*
X159991594Y-138561153D02*
X160251704Y-138405524D01*
X160251704Y-138405524D02*
X160525134Y-138276303D01*
X160525134Y-138276303D02*
X160809851Y-138174332D01*
X160809851Y-138174332D02*
X161103823Y-138100453D01*
X161103823Y-138100453D02*
X161405018Y-138055509D01*
X161405018Y-138055509D02*
X161711401Y-138040340D01*
X161711401Y-138040340D02*
X162017785Y-138055509D01*
X162017785Y-138055509D02*
X162318979Y-138100453D01*
X162318979Y-138100453D02*
X162612951Y-138174332D01*
X162612951Y-138174332D02*
X162897669Y-138276303D01*
X162897669Y-138276303D02*
X163171098Y-138405524D01*
X163171098Y-138405524D02*
X163431208Y-138561153D01*
X163431208Y-138561153D02*
X163675965Y-138742348D01*
X163675965Y-138742348D02*
X163903337Y-138948268D01*
X163903337Y-138948268D02*
X164109257Y-139175640D01*
X164109257Y-139175640D02*
X164290453Y-139420396D01*
X164290453Y-139420396D02*
X164446082Y-139680506D01*
X164446082Y-139680506D02*
X164575303Y-139953935D01*
X164575303Y-139953935D02*
X164677274Y-140238652D01*
X164677274Y-140238652D02*
X164751152Y-140532623D01*
X164751152Y-140532623D02*
X164796097Y-140833817D01*
X164796097Y-140833817D02*
X164811265Y-141140200D01*
X164811265Y-141140200D02*
X164811265Y-141140200D01*
X164811265Y-141140200D02*
X164811265Y-141140200D01*
X164811265Y-89070213D02*
X164795261Y-89387155D01*
X164795261Y-89387155D02*
X164748287Y-89694942D01*
X164748287Y-89694942D02*
X164671901Y-89992016D01*
X164671901Y-89992016D02*
X164567662Y-90276817D01*
X164567662Y-90276817D02*
X164437128Y-90547789D01*
X164437128Y-90547789D02*
X164281857Y-90803373D01*
X164281857Y-90803373D02*
X164103407Y-91042010D01*
X164103407Y-91042010D02*
X163903336Y-91262143D01*
X163903336Y-91262143D02*
X163683202Y-91462213D01*
X163683202Y-91462213D02*
X163444565Y-91640663D01*
X163444565Y-91640663D02*
X163188980Y-91795934D01*
X163188980Y-91795934D02*
X162918008Y-91926468D01*
X162918008Y-91926468D02*
X162633206Y-92030707D01*
X162633206Y-92030707D02*
X162336132Y-92107092D01*
X162336132Y-92107092D02*
X162028344Y-92154066D01*
X162028344Y-92154066D02*
X161711401Y-92170070D01*
X161711401Y-92170070D02*
X161394458Y-92154066D01*
X161394458Y-92154066D02*
X161086671Y-92107092D01*
X161086671Y-92107092D02*
X160789597Y-92030707D01*
X160789597Y-92030707D02*
X160504794Y-91926468D01*
X160504794Y-91926468D02*
X160233822Y-91795934D01*
X160233822Y-91795934D02*
X159978238Y-91640663D01*
X159978238Y-91640663D02*
X159739600Y-91462214D01*
X159739600Y-91462214D02*
X159519466Y-91262143D01*
X159519466Y-91262143D02*
X159319395Y-91042010D01*
X159319395Y-91042010D02*
X159140945Y-90803373D01*
X159140945Y-90803373D02*
X158985674Y-90547789D01*
X158985674Y-90547789D02*
X158855139Y-90276817D01*
X158855139Y-90276817D02*
X158750900Y-89992016D01*
X158750900Y-89992016D02*
X158674515Y-89694942D01*
X158674515Y-89694942D02*
X158627541Y-89387155D01*
X158627541Y-89387155D02*
X158611536Y-89070213D01*
X158611536Y-89070213D02*
X158626705Y-88763830D01*
X158626705Y-88763830D02*
X158671650Y-88462637D01*
X158671650Y-88462637D02*
X158745529Y-88168665D01*
X158745529Y-88168665D02*
X158847500Y-87883949D01*
X158847500Y-87883949D02*
X158976721Y-87610519D01*
X158976721Y-87610519D02*
X159132350Y-87350410D01*
X159132350Y-87350410D02*
X159313546Y-87105653D01*
X159313546Y-87105653D02*
X159519466Y-86878282D01*
X159519466Y-86878282D02*
X159746838Y-86672363D01*
X159746838Y-86672363D02*
X159991595Y-86491167D01*
X159991595Y-86491167D02*
X160251705Y-86335538D01*
X160251705Y-86335538D02*
X160525134Y-86206317D01*
X160525134Y-86206317D02*
X160809852Y-86104347D01*
X160809852Y-86104347D02*
X161103824Y-86030468D01*
X161103824Y-86030468D02*
X161405018Y-85985524D01*
X161405018Y-85985524D02*
X161711401Y-85970355D01*
X161711401Y-85970355D02*
X162028344Y-85986359D01*
X162028344Y-85986359D02*
X162336132Y-86033333D01*
X162336132Y-86033333D02*
X162633206Y-86109719D01*
X162633206Y-86109719D02*
X162918008Y-86213957D01*
X162918008Y-86213957D02*
X163188981Y-86344491D01*
X163188981Y-86344491D02*
X163444565Y-86499762D01*
X163444565Y-86499762D02*
X163683203Y-86678212D01*
X163683203Y-86678212D02*
X163903336Y-86878282D01*
X163903336Y-86878282D02*
X164103407Y-87098416D01*
X164103407Y-87098416D02*
X164281857Y-87337053D01*
X164281857Y-87337053D02*
X164437129Y-87592637D01*
X164437129Y-87592637D02*
X164567663Y-87863608D01*
X164567663Y-87863608D02*
X164671902Y-88148410D01*
X164671902Y-88148410D02*
X164748287Y-88445484D01*
X164748287Y-88445484D02*
X164795261Y-88753271D01*
X164795261Y-88753271D02*
X164811265Y-89070213D01*
X164811265Y-89070213D02*
X164811265Y-89070213D01*
X164811265Y-89070213D02*
X164811265Y-89070213D01*
X147031228Y-89070213D02*
X147015224Y-89387155D01*
X147015224Y-89387155D02*
X146968250Y-89694942D01*
X146968250Y-89694942D02*
X146891864Y-89992016D01*
X146891864Y-89992016D02*
X146787625Y-90276817D01*
X146787625Y-90276817D02*
X146657091Y-90547789D01*
X146657091Y-90547789D02*
X146501820Y-90803373D01*
X146501820Y-90803373D02*
X146323370Y-91042010D01*
X146323370Y-91042010D02*
X146123299Y-91262143D01*
X146123299Y-91262143D02*
X145903165Y-91462213D01*
X145903165Y-91462213D02*
X145664528Y-91640663D01*
X145664528Y-91640663D02*
X145408943Y-91795934D01*
X145408943Y-91795934D02*
X145137971Y-91926468D01*
X145137971Y-91926468D02*
X144853169Y-92030707D01*
X144853169Y-92030707D02*
X144556095Y-92107092D01*
X144556095Y-92107092D02*
X144248307Y-92154066D01*
X144248307Y-92154066D02*
X143931364Y-92170070D01*
X143931364Y-92170070D02*
X143614421Y-92154066D01*
X143614421Y-92154066D02*
X143306634Y-92107092D01*
X143306634Y-92107092D02*
X143009560Y-92030707D01*
X143009560Y-92030707D02*
X142724757Y-91926468D01*
X142724757Y-91926468D02*
X142453785Y-91795934D01*
X142453785Y-91795934D02*
X142198201Y-91640663D01*
X142198201Y-91640663D02*
X141959563Y-91462214D01*
X141959563Y-91462214D02*
X141739429Y-91262143D01*
X141739429Y-91262143D02*
X141539358Y-91042010D01*
X141539358Y-91042010D02*
X141360908Y-90803373D01*
X141360908Y-90803373D02*
X141205637Y-90547789D01*
X141205637Y-90547789D02*
X141075103Y-90276817D01*
X141075103Y-90276817D02*
X140970864Y-89992016D01*
X140970864Y-89992016D02*
X140894478Y-89694942D01*
X140894478Y-89694942D02*
X140847504Y-89387155D01*
X140847504Y-89387155D02*
X140831500Y-89070213D01*
X140831500Y-89070213D02*
X140846668Y-88763830D01*
X140846668Y-88763830D02*
X140891613Y-88462637D01*
X140891613Y-88462637D02*
X140965492Y-88168665D01*
X140965492Y-88168665D02*
X141067463Y-87883949D01*
X141067463Y-87883949D02*
X141196684Y-87610519D01*
X141196684Y-87610519D02*
X141352313Y-87350410D01*
X141352313Y-87350410D02*
X141533509Y-87105654D01*
X141533509Y-87105654D02*
X141739429Y-86878282D01*
X141739429Y-86878282D02*
X141966801Y-86672363D01*
X141966801Y-86672363D02*
X142211558Y-86491167D01*
X142211558Y-86491167D02*
X142471668Y-86335538D01*
X142471668Y-86335538D02*
X142745098Y-86206318D01*
X142745098Y-86206318D02*
X143029815Y-86104347D01*
X143029815Y-86104347D02*
X143323787Y-86030468D01*
X143323787Y-86030468D02*
X143624981Y-85985524D01*
X143624981Y-85985524D02*
X143931364Y-85970355D01*
X143931364Y-85970355D02*
X144248307Y-85986359D01*
X144248307Y-85986359D02*
X144556095Y-86033333D01*
X144556095Y-86033333D02*
X144853169Y-86109719D01*
X144853169Y-86109719D02*
X145137971Y-86213957D01*
X145137971Y-86213957D02*
X145408944Y-86344491D01*
X145408944Y-86344491D02*
X145664528Y-86499762D01*
X145664528Y-86499762D02*
X145903166Y-86678212D01*
X145903166Y-86678212D02*
X146123299Y-86878282D01*
X146123299Y-86878282D02*
X146323370Y-87098416D01*
X146323370Y-87098416D02*
X146501820Y-87337053D01*
X146501820Y-87337053D02*
X146657092Y-87592637D01*
X146657092Y-87592637D02*
X146787626Y-87863608D01*
X146787626Y-87863608D02*
X146891865Y-88148410D01*
X146891865Y-88148410D02*
X146968250Y-88445484D01*
X146968250Y-88445484D02*
X147015224Y-88753271D01*
X147015224Y-88753271D02*
X147031228Y-89070213D01*
X147031228Y-89070213D02*
X147031228Y-89070213D01*
X147031228Y-89070213D02*
X147031228Y-89070213D01*
X164811265Y-106427234D02*
X164795261Y-106744176D01*
X164795261Y-106744176D02*
X164748287Y-107051963D01*
X164748287Y-107051963D02*
X164671902Y-107349037D01*
X164671902Y-107349037D02*
X164567663Y-107633839D01*
X164567663Y-107633839D02*
X164437129Y-107904810D01*
X164437129Y-107904810D02*
X164281857Y-108160394D01*
X164281857Y-108160394D02*
X164103407Y-108399031D01*
X164103407Y-108399031D02*
X163903336Y-108619165D01*
X163903336Y-108619165D02*
X163683203Y-108819235D01*
X163683203Y-108819235D02*
X163444565Y-108997685D01*
X163444565Y-108997685D02*
X163188981Y-109152956D01*
X163188981Y-109152956D02*
X162918008Y-109283490D01*
X162918008Y-109283490D02*
X162633206Y-109387728D01*
X162633206Y-109387728D02*
X162336132Y-109464114D01*
X162336132Y-109464114D02*
X162028344Y-109511088D01*
X162028344Y-109511088D02*
X161711401Y-109527092D01*
X161711401Y-109527092D02*
X161405018Y-109511923D01*
X161405018Y-109511923D02*
X161103824Y-109466979D01*
X161103824Y-109466979D02*
X160809852Y-109393100D01*
X160809852Y-109393100D02*
X160525134Y-109291130D01*
X160525134Y-109291130D02*
X160251705Y-109161909D01*
X160251705Y-109161909D02*
X159991595Y-109006280D01*
X159991595Y-109006280D02*
X159746838Y-108825084D01*
X159746838Y-108825084D02*
X159519466Y-108619165D01*
X159519466Y-108619165D02*
X159313546Y-108391794D01*
X159313546Y-108391794D02*
X159132350Y-108147037D01*
X159132350Y-108147037D02*
X158976721Y-107886928D01*
X158976721Y-107886928D02*
X158847500Y-107613498D01*
X158847500Y-107613498D02*
X158745529Y-107328782D01*
X158745529Y-107328782D02*
X158671650Y-107034810D01*
X158671650Y-107034810D02*
X158626705Y-106733617D01*
X158626705Y-106733617D02*
X158611536Y-106427234D01*
X158611536Y-106427234D02*
X158626705Y-106120851D01*
X158626705Y-106120851D02*
X158671650Y-105819658D01*
X158671650Y-105819658D02*
X158745529Y-105525686D01*
X158745529Y-105525686D02*
X158847500Y-105240970D01*
X158847500Y-105240970D02*
X158976721Y-104967540D01*
X158976721Y-104967540D02*
X159132350Y-104707431D01*
X159132350Y-104707431D02*
X159313546Y-104462674D01*
X159313546Y-104462674D02*
X159519466Y-104235303D01*
X159519466Y-104235303D02*
X159746838Y-104029384D01*
X159746838Y-104029384D02*
X159991595Y-103848188D01*
X159991595Y-103848188D02*
X160251705Y-103692559D01*
X160251705Y-103692559D02*
X160525134Y-103563338D01*
X160525134Y-103563338D02*
X160809852Y-103461368D01*
X160809852Y-103461368D02*
X161103824Y-103387489D01*
X161103824Y-103387489D02*
X161405018Y-103342545D01*
X161405018Y-103342545D02*
X161711401Y-103327376D01*
X161711401Y-103327376D02*
X162028344Y-103343380D01*
X162028344Y-103343380D02*
X162336132Y-103390354D01*
X162336132Y-103390354D02*
X162633206Y-103466740D01*
X162633206Y-103466740D02*
X162918008Y-103570978D01*
X162918008Y-103570978D02*
X163188981Y-103701512D01*
X163188981Y-103701512D02*
X163444565Y-103856783D01*
X163444565Y-103856783D02*
X163683203Y-104035233D01*
X163683203Y-104035233D02*
X163903336Y-104235303D01*
X163903336Y-104235303D02*
X164103407Y-104455437D01*
X164103407Y-104455437D02*
X164281857Y-104694074D01*
X164281857Y-104694074D02*
X164437129Y-104949658D01*
X164437129Y-104949658D02*
X164567663Y-105220629D01*
X164567663Y-105220629D02*
X164671902Y-105505431D01*
X164671902Y-105505431D02*
X164748287Y-105802505D01*
X164748287Y-105802505D02*
X164795261Y-106110292D01*
X164795261Y-106110292D02*
X164811265Y-106427234D01*
X164811265Y-106427234D02*
X164811265Y-106427234D01*
X164811265Y-106427234D02*
X164811265Y-106427234D01*
X147031228Y-106427234D02*
X147015224Y-106744176D01*
X147015224Y-106744176D02*
X146968250Y-107051963D01*
X146968250Y-107051963D02*
X146891865Y-107349037D01*
X146891865Y-107349037D02*
X146787626Y-107633839D01*
X146787626Y-107633839D02*
X146657092Y-107904810D01*
X146657092Y-107904810D02*
X146501820Y-108160394D01*
X146501820Y-108160394D02*
X146323370Y-108399031D01*
X146323370Y-108399031D02*
X146123299Y-108619165D01*
X146123299Y-108619165D02*
X145903166Y-108819235D01*
X145903166Y-108819235D02*
X145664528Y-108997685D01*
X145664528Y-108997685D02*
X145408944Y-109152956D01*
X145408944Y-109152956D02*
X145137971Y-109283490D01*
X145137971Y-109283490D02*
X144853169Y-109387728D01*
X144853169Y-109387728D02*
X144556095Y-109464114D01*
X144556095Y-109464114D02*
X144248307Y-109511088D01*
X144248307Y-109511088D02*
X143931364Y-109527092D01*
X143931364Y-109527092D02*
X143624981Y-109511923D01*
X143624981Y-109511923D02*
X143323787Y-109466979D01*
X143323787Y-109466979D02*
X143029815Y-109393100D01*
X143029815Y-109393100D02*
X142745098Y-109291129D01*
X142745098Y-109291129D02*
X142471668Y-109161909D01*
X142471668Y-109161909D02*
X142211558Y-109006280D01*
X142211558Y-109006280D02*
X141966801Y-108825084D01*
X141966801Y-108825084D02*
X141739429Y-108619165D01*
X141739429Y-108619165D02*
X141533509Y-108391793D01*
X141533509Y-108391793D02*
X141352313Y-108147037D01*
X141352313Y-108147037D02*
X141196684Y-107886928D01*
X141196684Y-107886928D02*
X141067463Y-107613498D01*
X141067463Y-107613498D02*
X140965492Y-107328782D01*
X140965492Y-107328782D02*
X140891613Y-107034810D01*
X140891613Y-107034810D02*
X140846668Y-106733617D01*
X140846668Y-106733617D02*
X140831500Y-106427234D01*
X140831500Y-106427234D02*
X140846668Y-106120851D01*
X140846668Y-106120851D02*
X140891613Y-105819658D01*
X140891613Y-105819658D02*
X140965492Y-105525686D01*
X140965492Y-105525686D02*
X141067463Y-105240970D01*
X141067463Y-105240970D02*
X141196684Y-104967540D01*
X141196684Y-104967540D02*
X141352313Y-104707431D01*
X141352313Y-104707431D02*
X141533509Y-104462675D01*
X141533509Y-104462675D02*
X141739429Y-104235303D01*
X141739429Y-104235303D02*
X141966801Y-104029384D01*
X141966801Y-104029384D02*
X142211558Y-103848188D01*
X142211558Y-103848188D02*
X142471668Y-103692559D01*
X142471668Y-103692559D02*
X142745098Y-103563339D01*
X142745098Y-103563339D02*
X143029815Y-103461368D01*
X143029815Y-103461368D02*
X143323787Y-103387489D01*
X143323787Y-103387489D02*
X143624981Y-103342545D01*
X143624981Y-103342545D02*
X143931364Y-103327376D01*
X143931364Y-103327376D02*
X144248307Y-103343380D01*
X144248307Y-103343380D02*
X144556095Y-103390354D01*
X144556095Y-103390354D02*
X144853169Y-103466740D01*
X144853169Y-103466740D02*
X145137971Y-103570978D01*
X145137971Y-103570978D02*
X145408944Y-103701512D01*
X145408944Y-103701512D02*
X145664528Y-103856783D01*
X145664528Y-103856783D02*
X145903166Y-104035233D01*
X145903166Y-104035233D02*
X146123299Y-104235303D01*
X146123299Y-104235303D02*
X146323370Y-104455437D01*
X146323370Y-104455437D02*
X146501820Y-104694074D01*
X146501820Y-104694074D02*
X146657092Y-104949658D01*
X146657092Y-104949658D02*
X146787626Y-105220629D01*
X146787626Y-105220629D02*
X146891865Y-105505431D01*
X146891865Y-105505431D02*
X146968250Y-105802505D01*
X146968250Y-105802505D02*
X147015224Y-106110292D01*
X147015224Y-106110292D02*
X147031228Y-106427234D01*
X147031228Y-106427234D02*
X147031228Y-106427234D01*
X147031228Y-106427234D02*
X147031228Y-106427234D01*
X164811265Y-123783893D02*
X164795261Y-124100835D01*
X164795261Y-124100835D02*
X164748287Y-124408622D01*
X164748287Y-124408622D02*
X164671902Y-124705696D01*
X164671902Y-124705696D02*
X164567663Y-124990498D01*
X164567663Y-124990498D02*
X164437129Y-125261469D01*
X164437129Y-125261469D02*
X164281857Y-125517053D01*
X164281857Y-125517053D02*
X164103407Y-125755690D01*
X164103407Y-125755690D02*
X163903336Y-125975824D01*
X163903336Y-125975824D02*
X163683203Y-126175894D01*
X163683203Y-126175894D02*
X163444565Y-126354344D01*
X163444565Y-126354344D02*
X163188981Y-126509615D01*
X163188981Y-126509615D02*
X162918008Y-126640149D01*
X162918008Y-126640149D02*
X162633206Y-126744387D01*
X162633206Y-126744387D02*
X162336132Y-126820773D01*
X162336132Y-126820773D02*
X162028344Y-126867747D01*
X162028344Y-126867747D02*
X161711401Y-126883751D01*
X161711401Y-126883751D02*
X161405018Y-126868582D01*
X161405018Y-126868582D02*
X161103824Y-126823638D01*
X161103824Y-126823638D02*
X160809852Y-126749759D01*
X160809852Y-126749759D02*
X160525134Y-126647789D01*
X160525134Y-126647789D02*
X160251705Y-126518568D01*
X160251705Y-126518568D02*
X159991595Y-126362939D01*
X159991595Y-126362939D02*
X159746838Y-126181743D01*
X159746838Y-126181743D02*
X159519466Y-125975824D01*
X159519466Y-125975824D02*
X159313546Y-125748453D01*
X159313546Y-125748453D02*
X159132350Y-125503696D01*
X159132350Y-125503696D02*
X158976721Y-125243587D01*
X158976721Y-125243587D02*
X158847500Y-124970157D01*
X158847500Y-124970157D02*
X158745529Y-124685441D01*
X158745529Y-124685441D02*
X158671650Y-124391469D01*
X158671650Y-124391469D02*
X158626705Y-124090276D01*
X158626705Y-124090276D02*
X158611536Y-123783893D01*
X158611536Y-123783893D02*
X158626705Y-123477510D01*
X158626705Y-123477510D02*
X158671650Y-123176317D01*
X158671650Y-123176317D02*
X158745529Y-122882345D01*
X158745529Y-122882345D02*
X158847500Y-122597629D01*
X158847500Y-122597629D02*
X158976721Y-122324199D01*
X158976721Y-122324199D02*
X159132350Y-122064090D01*
X159132350Y-122064090D02*
X159313546Y-121819333D01*
X159313546Y-121819333D02*
X159519466Y-121591962D01*
X159519466Y-121591962D02*
X159746838Y-121386043D01*
X159746838Y-121386043D02*
X159991595Y-121204847D01*
X159991595Y-121204847D02*
X160251705Y-121049218D01*
X160251705Y-121049218D02*
X160525134Y-120919997D01*
X160525134Y-120919997D02*
X160809852Y-120818027D01*
X160809852Y-120818027D02*
X161103824Y-120744148D01*
X161103824Y-120744148D02*
X161405018Y-120699204D01*
X161405018Y-120699204D02*
X161711401Y-120684035D01*
X161711401Y-120684035D02*
X162028344Y-120700039D01*
X162028344Y-120700039D02*
X162336132Y-120747013D01*
X162336132Y-120747013D02*
X162633206Y-120823399D01*
X162633206Y-120823399D02*
X162918008Y-120927637D01*
X162918008Y-120927637D02*
X163188981Y-121058171D01*
X163188981Y-121058171D02*
X163444565Y-121213442D01*
X163444565Y-121213442D02*
X163683203Y-121391892D01*
X163683203Y-121391892D02*
X163903336Y-121591962D01*
X163903336Y-121591962D02*
X164103407Y-121812096D01*
X164103407Y-121812096D02*
X164281857Y-122050733D01*
X164281857Y-122050733D02*
X164437129Y-122306317D01*
X164437129Y-122306317D02*
X164567663Y-122577288D01*
X164567663Y-122577288D02*
X164671902Y-122862090D01*
X164671902Y-122862090D02*
X164748287Y-123159164D01*
X164748287Y-123159164D02*
X164795261Y-123466951D01*
X164795261Y-123466951D02*
X164811265Y-123783893D01*
X164811265Y-123783893D02*
X164811265Y-123783893D01*
X164811265Y-123783893D02*
X164811265Y-123783893D01*
X147031228Y-123783893D02*
X147015224Y-124100835D01*
X147015224Y-124100835D02*
X146968250Y-124408622D01*
X146968250Y-124408622D02*
X146891865Y-124705696D01*
X146891865Y-124705696D02*
X146787626Y-124990498D01*
X146787626Y-124990498D02*
X146657092Y-125261469D01*
X146657092Y-125261469D02*
X146501820Y-125517053D01*
X146501820Y-125517053D02*
X146323370Y-125755690D01*
X146323370Y-125755690D02*
X146123299Y-125975824D01*
X146123299Y-125975824D02*
X145903166Y-126175894D01*
X145903166Y-126175894D02*
X145664528Y-126354344D01*
X145664528Y-126354344D02*
X145408944Y-126509615D01*
X145408944Y-126509615D02*
X145137971Y-126640149D01*
X145137971Y-126640149D02*
X144853169Y-126744387D01*
X144853169Y-126744387D02*
X144556095Y-126820773D01*
X144556095Y-126820773D02*
X144248307Y-126867747D01*
X144248307Y-126867747D02*
X143931364Y-126883751D01*
X143931364Y-126883751D02*
X143624981Y-126868582D01*
X143624981Y-126868582D02*
X143323787Y-126823638D01*
X143323787Y-126823638D02*
X143029815Y-126749759D01*
X143029815Y-126749759D02*
X142745098Y-126647788D01*
X142745098Y-126647788D02*
X142471668Y-126518568D01*
X142471668Y-126518568D02*
X142211558Y-126362939D01*
X142211558Y-126362939D02*
X141966801Y-126181743D01*
X141966801Y-126181743D02*
X141739429Y-125975824D01*
X141739429Y-125975824D02*
X141533509Y-125748452D01*
X141533509Y-125748452D02*
X141352313Y-125503696D01*
X141352313Y-125503696D02*
X141196684Y-125243587D01*
X141196684Y-125243587D02*
X141067463Y-124970157D01*
X141067463Y-124970157D02*
X140965492Y-124685441D01*
X140965492Y-124685441D02*
X140891613Y-124391469D01*
X140891613Y-124391469D02*
X140846668Y-124090276D01*
X140846668Y-124090276D02*
X140831500Y-123783893D01*
X140831500Y-123783893D02*
X140846668Y-123477510D01*
X140846668Y-123477510D02*
X140891613Y-123176317D01*
X140891613Y-123176317D02*
X140965492Y-122882345D01*
X140965492Y-122882345D02*
X141067463Y-122597629D01*
X141067463Y-122597629D02*
X141196684Y-122324199D01*
X141196684Y-122324199D02*
X141352313Y-122064090D01*
X141352313Y-122064090D02*
X141533509Y-121819334D01*
X141533509Y-121819334D02*
X141739429Y-121591962D01*
X141739429Y-121591962D02*
X141966801Y-121386043D01*
X141966801Y-121386043D02*
X142211558Y-121204847D01*
X142211558Y-121204847D02*
X142471668Y-121049218D01*
X142471668Y-121049218D02*
X142745098Y-120919998D01*
X142745098Y-120919998D02*
X143029815Y-120818027D01*
X143029815Y-120818027D02*
X143323787Y-120744148D01*
X143323787Y-120744148D02*
X143624981Y-120699204D01*
X143624981Y-120699204D02*
X143931364Y-120684035D01*
X143931364Y-120684035D02*
X144248307Y-120700039D01*
X144248307Y-120700039D02*
X144556095Y-120747013D01*
X144556095Y-120747013D02*
X144853169Y-120823399D01*
X144853169Y-120823399D02*
X145137971Y-120927637D01*
X145137971Y-120927637D02*
X145408944Y-121058171D01*
X145408944Y-121058171D02*
X145664528Y-121213442D01*
X145664528Y-121213442D02*
X145903166Y-121391892D01*
X145903166Y-121391892D02*
X146123299Y-121591962D01*
X146123299Y-121591962D02*
X146323370Y-121812096D01*
X146323370Y-121812096D02*
X146501820Y-122050733D01*
X146501820Y-122050733D02*
X146657092Y-122306317D01*
X146657092Y-122306317D02*
X146787626Y-122577288D01*
X146787626Y-122577288D02*
X146891865Y-122862090D01*
X146891865Y-122862090D02*
X146968250Y-123159164D01*
X146968250Y-123159164D02*
X147015224Y-123466951D01*
X147015224Y-123466951D02*
X147031228Y-123783893D01*
X147031228Y-123783893D02*
X147031228Y-123783893D01*
X147031228Y-123783893D02*
X147031228Y-123783893D01*
X147031228Y-141140200D02*
X147016060Y-141446583D01*
X147016060Y-141446583D02*
X146971115Y-141747777D01*
X146971115Y-141747777D02*
X146897237Y-142041748D01*
X146897237Y-142041748D02*
X146795266Y-142326465D01*
X146795266Y-142326465D02*
X146666045Y-142599894D01*
X146666045Y-142599894D02*
X146510416Y-142860004D01*
X146510416Y-142860004D02*
X146329220Y-143104760D01*
X146329220Y-143104760D02*
X146123300Y-143332132D01*
X146123300Y-143332132D02*
X145895928Y-143538052D01*
X145895928Y-143538052D02*
X145651171Y-143719247D01*
X145651171Y-143719247D02*
X145391061Y-143874876D01*
X145391061Y-143874876D02*
X145117632Y-144004097D01*
X145117632Y-144004097D02*
X144832914Y-144106068D01*
X144832914Y-144106068D02*
X144538942Y-144179947D01*
X144538942Y-144179947D02*
X144237748Y-144224891D01*
X144237748Y-144224891D02*
X143931364Y-144240060D01*
X143931364Y-144240060D02*
X143624981Y-144224891D01*
X143624981Y-144224891D02*
X143323787Y-144179947D01*
X143323787Y-144179947D02*
X143029814Y-144106068D01*
X143029814Y-144106068D02*
X142745097Y-144004097D01*
X142745097Y-144004097D02*
X142471667Y-143874876D01*
X142471667Y-143874876D02*
X142211557Y-143719247D01*
X142211557Y-143719247D02*
X141966800Y-143538052D01*
X141966800Y-143538052D02*
X141739428Y-143332132D01*
X141739428Y-143332132D02*
X141533508Y-143104761D01*
X141533508Y-143104761D02*
X141352313Y-142860004D01*
X141352313Y-142860004D02*
X141196683Y-142599894D01*
X141196683Y-142599894D02*
X141067462Y-142326465D01*
X141067462Y-142326465D02*
X140965491Y-142041748D01*
X140965491Y-142041748D02*
X140891613Y-141747777D01*
X140891613Y-141747777D02*
X140846668Y-141446583D01*
X140846668Y-141446583D02*
X140831500Y-141140200D01*
X140831500Y-141140200D02*
X140846668Y-140833817D01*
X140846668Y-140833817D02*
X140891613Y-140532623D01*
X140891613Y-140532623D02*
X140965491Y-140238652D01*
X140965491Y-140238652D02*
X141067462Y-139953935D01*
X141067462Y-139953935D02*
X141196683Y-139680506D01*
X141196683Y-139680506D02*
X141352313Y-139420396D01*
X141352313Y-139420396D02*
X141533508Y-139175639D01*
X141533508Y-139175639D02*
X141739428Y-138948268D01*
X141739428Y-138948268D02*
X141966800Y-138742348D01*
X141966800Y-138742348D02*
X142211557Y-138561153D01*
X142211557Y-138561153D02*
X142471667Y-138405524D01*
X142471667Y-138405524D02*
X142745097Y-138276303D01*
X142745097Y-138276303D02*
X143029814Y-138174332D01*
X143029814Y-138174332D02*
X143323787Y-138100453D01*
X143323787Y-138100453D02*
X143624981Y-138055509D01*
X143624981Y-138055509D02*
X143931364Y-138040340D01*
X143931364Y-138040340D02*
X144237748Y-138055509D01*
X144237748Y-138055509D02*
X144538942Y-138100453D01*
X144538942Y-138100453D02*
X144832914Y-138174332D01*
X144832914Y-138174332D02*
X145117632Y-138276303D01*
X145117632Y-138276303D02*
X145391061Y-138405524D01*
X145391061Y-138405524D02*
X145651171Y-138561153D01*
X145651171Y-138561153D02*
X145895928Y-138742348D01*
X145895928Y-138742348D02*
X146123300Y-138948268D01*
X146123300Y-138948268D02*
X146329220Y-139175640D01*
X146329220Y-139175640D02*
X146510416Y-139420396D01*
X146510416Y-139420396D02*
X146666045Y-139680506D01*
X146666045Y-139680506D02*
X146795266Y-139953935D01*
X146795266Y-139953935D02*
X146897237Y-140238652D01*
X146897237Y-140238652D02*
X146971115Y-140532623D01*
X146971115Y-140532623D02*
X147016060Y-140833817D01*
X147016060Y-140833817D02*
X147031228Y-141140200D01*
X147031228Y-141140200D02*
X147031228Y-141140200D01*
X147031228Y-141140200D02*
X147031228Y-141140200D01*
X155150071Y-72700271D02*
X155136389Y-72971225D01*
X155136389Y-72971225D02*
X155096231Y-73234352D01*
X155096231Y-73234352D02*
X155030929Y-73488319D01*
X155030929Y-73488319D02*
X154941816Y-73731796D01*
X154941816Y-73731796D02*
X154830222Y-73963450D01*
X154830222Y-73963450D02*
X154697481Y-74181948D01*
X154697481Y-74181948D02*
X154544924Y-74385959D01*
X154544924Y-74385959D02*
X154373884Y-74574150D01*
X154373884Y-74574150D02*
X154185692Y-74745190D01*
X154185692Y-74745190D02*
X153981680Y-74897747D01*
X153981680Y-74897747D02*
X153763182Y-75030488D01*
X153763182Y-75030488D02*
X153531528Y-75142081D01*
X153531528Y-75142081D02*
X153288050Y-75231195D01*
X153288050Y-75231195D02*
X153034082Y-75296497D01*
X153034082Y-75296497D02*
X152770955Y-75336655D01*
X152770955Y-75336655D02*
X152500000Y-75350337D01*
X152500000Y-75350337D02*
X152238073Y-75337369D01*
X152238073Y-75337369D02*
X151980583Y-75298946D01*
X151980583Y-75298946D02*
X151729266Y-75235787D01*
X151729266Y-75235787D02*
X151485862Y-75148613D01*
X151485862Y-75148613D02*
X151252107Y-75038142D01*
X151252107Y-75038142D02*
X151029739Y-74905095D01*
X151029739Y-74905095D02*
X150820496Y-74750191D01*
X150820496Y-74750191D02*
X150626117Y-74574151D01*
X150626117Y-74574151D02*
X150450076Y-74379771D01*
X150450076Y-74379771D02*
X150295172Y-74170529D01*
X150295172Y-74170529D02*
X150162124Y-73948162D01*
X150162124Y-73948162D02*
X150051653Y-73714407D01*
X150051653Y-73714407D02*
X149964478Y-73471003D01*
X149964478Y-73471003D02*
X149901319Y-73219687D01*
X149901319Y-73219687D02*
X149862896Y-72962197D01*
X149862896Y-72962197D02*
X149849928Y-72700271D01*
X149849928Y-72700271D02*
X149863610Y-72429317D01*
X149863610Y-72429317D02*
X149903768Y-72166190D01*
X149903768Y-72166190D02*
X149969070Y-71912222D01*
X149969070Y-71912222D02*
X150058184Y-71668746D01*
X150058184Y-71668746D02*
X150169778Y-71437092D01*
X150169778Y-71437092D02*
X150302519Y-71218594D01*
X150302519Y-71218594D02*
X150455076Y-71014583D01*
X150455076Y-71014583D02*
X150626117Y-70826391D01*
X150626117Y-70826391D02*
X150814309Y-70655351D01*
X150814309Y-70655351D02*
X151018320Y-70502795D01*
X151018320Y-70502795D02*
X151236819Y-70370054D01*
X151236819Y-70370054D02*
X151468473Y-70258460D01*
X151468473Y-70258460D02*
X151711950Y-70169347D01*
X151711950Y-70169347D02*
X151965918Y-70104045D01*
X151965918Y-70104045D02*
X152229046Y-70063887D01*
X152229046Y-70063887D02*
X152500000Y-70050205D01*
X152500000Y-70050205D02*
X152770955Y-70063887D01*
X152770955Y-70063887D02*
X153034082Y-70104045D01*
X153034082Y-70104045D02*
X153288050Y-70169347D01*
X153288050Y-70169347D02*
X153531528Y-70258461D01*
X153531528Y-70258461D02*
X153763182Y-70370054D01*
X153763182Y-70370054D02*
X153981680Y-70502795D01*
X153981680Y-70502795D02*
X154185692Y-70655352D01*
X154185692Y-70655352D02*
X154373884Y-70826392D01*
X154373884Y-70826392D02*
X154544924Y-71014583D01*
X154544924Y-71014583D02*
X154697481Y-71218594D01*
X154697481Y-71218594D02*
X154830222Y-71437092D01*
X154830222Y-71437092D02*
X154941816Y-71668746D01*
X154941816Y-71668746D02*
X155030929Y-71912223D01*
X155030929Y-71912223D02*
X155096231Y-72166190D01*
X155096231Y-72166190D02*
X155136389Y-72429317D01*
X155136389Y-72429317D02*
X155150071Y-72700271D01*
X155150071Y-72700271D02*
X155150071Y-72700271D01*
X155150071Y-72700271D02*
X155150071Y-72700271D01*
X139478242Y-73434760D02*
X139463320Y-73582784D01*
X139463320Y-73582784D02*
X139420523Y-73720654D01*
X139420523Y-73720654D02*
X139352804Y-73845416D01*
X139352804Y-73845416D02*
X139263117Y-73954118D01*
X139263117Y-73954118D02*
X139154415Y-74043805D01*
X139154415Y-74043805D02*
X139029652Y-74111524D01*
X139029652Y-74111524D02*
X138891782Y-74154321D01*
X138891782Y-74154321D02*
X138743758Y-74169243D01*
X138743758Y-74169243D02*
X138595733Y-74154321D01*
X138595733Y-74154321D02*
X138457863Y-74111524D01*
X138457863Y-74111524D02*
X138333100Y-74043805D01*
X138333100Y-74043805D02*
X138224399Y-73954118D01*
X138224399Y-73954118D02*
X138134711Y-73845416D01*
X138134711Y-73845416D02*
X138066992Y-73720654D01*
X138066992Y-73720654D02*
X138024195Y-73582784D01*
X138024195Y-73582784D02*
X138009273Y-73434760D01*
X138009273Y-73434760D02*
X138024195Y-73286736D01*
X138024195Y-73286736D02*
X138066992Y-73148866D01*
X138066992Y-73148866D02*
X138134711Y-73024104D01*
X138134711Y-73024104D02*
X138224399Y-72915402D01*
X138224399Y-72915402D02*
X138333100Y-72825715D01*
X138333100Y-72825715D02*
X138457863Y-72757996D01*
X138457863Y-72757996D02*
X138595733Y-72715199D01*
X138595733Y-72715199D02*
X138743758Y-72700277D01*
X138743758Y-72700277D02*
X138891782Y-72715199D01*
X138891782Y-72715199D02*
X139029652Y-72757996D01*
X139029652Y-72757996D02*
X139154415Y-72825715D01*
X139154415Y-72825715D02*
X139263117Y-72915402D01*
X139263117Y-72915402D02*
X139352804Y-73024104D01*
X139352804Y-73024104D02*
X139420523Y-73148866D01*
X139420523Y-73148866D02*
X139463320Y-73286736D01*
X139463320Y-73286736D02*
X139478242Y-73434760D01*
X139478242Y-73434760D02*
X139478242Y-73434760D01*
X139478242Y-73434760D02*
X139478242Y-73434760D01*
X146250528Y-49188701D02*
X158749821Y-49188701D01*
X158749821Y-49188701D02*
X158749821Y-60989469D01*
X158749821Y-60989469D02*
X146250528Y-60989469D01*
X146250528Y-60989469D02*
X146250528Y-49188701D01*
X146250528Y-49188701D02*
X146250528Y-49188701D01*
X142119141Y-55698859D02*
X142111224Y-55858762D01*
X142111224Y-55858762D02*
X142087767Y-56015958D01*
X142087767Y-56015958D02*
X142049209Y-56169383D01*
X142049209Y-56169383D02*
X141995990Y-56317979D01*
X141995990Y-56317979D02*
X141928549Y-56460684D01*
X141928549Y-56460684D02*
X141847325Y-56596437D01*
X141847325Y-56596437D02*
X141752757Y-56724177D01*
X141752757Y-56724177D02*
X141645286Y-56842844D01*
X141645286Y-56842844D02*
X141526619Y-56950315D01*
X141526619Y-56950315D02*
X141398879Y-57044882D01*
X141398879Y-57044882D02*
X141263125Y-57126106D01*
X141263125Y-57126106D02*
X141120420Y-57193547D01*
X141120420Y-57193547D02*
X140971824Y-57246767D01*
X140971824Y-57246767D02*
X140818398Y-57285324D01*
X140818398Y-57285324D02*
X140661203Y-57308781D01*
X140661203Y-57308781D02*
X140501299Y-57316698D01*
X140501299Y-57316698D02*
X140341395Y-57308781D01*
X140341395Y-57308781D02*
X140184200Y-57285324D01*
X140184200Y-57285324D02*
X140030774Y-57246767D01*
X140030774Y-57246767D02*
X139882177Y-57193547D01*
X139882177Y-57193547D02*
X139739472Y-57126106D01*
X139739472Y-57126106D02*
X139603719Y-57044882D01*
X139603719Y-57044882D02*
X139475979Y-56950315D01*
X139475979Y-56950315D02*
X139357312Y-56842844D01*
X139357312Y-56842844D02*
X139249841Y-56724177D01*
X139249841Y-56724177D02*
X139155273Y-56596437D01*
X139155273Y-56596437D02*
X139074049Y-56460684D01*
X139074049Y-56460684D02*
X139006608Y-56317979D01*
X139006608Y-56317979D02*
X138953388Y-56169383D01*
X138953388Y-56169383D02*
X138914831Y-56015958D01*
X138914831Y-56015958D02*
X138891374Y-55858762D01*
X138891374Y-55858762D02*
X138883457Y-55698859D01*
X138883457Y-55698859D02*
X138891810Y-55533444D01*
X138891810Y-55533444D02*
X138916326Y-55372808D01*
X138916326Y-55372808D02*
X138956192Y-55217763D01*
X138956192Y-55217763D02*
X139010595Y-55069123D01*
X139010595Y-55069123D02*
X139078722Y-54927701D01*
X139078722Y-54927701D02*
X139159759Y-54794310D01*
X139159759Y-54794310D02*
X139357312Y-54554875D01*
X139357312Y-54554875D02*
X139596748Y-54357322D01*
X139596748Y-54357322D02*
X139730140Y-54276285D01*
X139730140Y-54276285D02*
X139871562Y-54208159D01*
X139871562Y-54208159D02*
X140020202Y-54153756D01*
X140020202Y-54153756D02*
X140175247Y-54113890D01*
X140175247Y-54113890D02*
X140335884Y-54089374D01*
X140335884Y-54089374D02*
X140501299Y-54081021D01*
X140501299Y-54081021D02*
X140666714Y-54089374D01*
X140666714Y-54089374D02*
X140827350Y-54113890D01*
X140827350Y-54113890D02*
X140982395Y-54153756D01*
X140982395Y-54153756D02*
X141131036Y-54208159D01*
X141131036Y-54208159D02*
X141272458Y-54276285D01*
X141272458Y-54276285D02*
X141405850Y-54357322D01*
X141405850Y-54357322D02*
X141645286Y-54554875D01*
X141645286Y-54554875D02*
X141842839Y-54794310D01*
X141842839Y-54794310D02*
X141923876Y-54927701D01*
X141923876Y-54927701D02*
X141992003Y-55069123D01*
X141992003Y-55069123D02*
X142046406Y-55217763D01*
X142046406Y-55217763D02*
X142086272Y-55372808D01*
X142086272Y-55372808D02*
X142110788Y-55533444D01*
X142110788Y-55533444D02*
X142119141Y-55698859D01*
X142119141Y-55698859D02*
X142119141Y-55698859D01*
X142119141Y-55698859D02*
X142119141Y-55698859D01*
X166119366Y-55698859D02*
X166111450Y-55858762D01*
X166111450Y-55858762D02*
X166087993Y-56015958D01*
X166087993Y-56015958D02*
X166049435Y-56169383D01*
X166049435Y-56169383D02*
X165996216Y-56317979D01*
X165996216Y-56317979D02*
X165928774Y-56460684D01*
X165928774Y-56460684D02*
X165847550Y-56596437D01*
X165847550Y-56596437D02*
X165752983Y-56724177D01*
X165752983Y-56724177D02*
X165645512Y-56842844D01*
X165645512Y-56842844D02*
X165526845Y-56950315D01*
X165526845Y-56950315D02*
X165399104Y-57044882D01*
X165399104Y-57044882D02*
X165263351Y-57126106D01*
X165263351Y-57126106D02*
X165120646Y-57193547D01*
X165120646Y-57193547D02*
X164972050Y-57246767D01*
X164972050Y-57246767D02*
X164818624Y-57285324D01*
X164818624Y-57285324D02*
X164661428Y-57308781D01*
X164661428Y-57308781D02*
X164501524Y-57316698D01*
X164501524Y-57316698D02*
X164341621Y-57308781D01*
X164341621Y-57308781D02*
X164184425Y-57285324D01*
X164184425Y-57285324D02*
X164030999Y-57246767D01*
X164030999Y-57246767D02*
X163882403Y-57193547D01*
X163882403Y-57193547D02*
X163739698Y-57126106D01*
X163739698Y-57126106D02*
X163603945Y-57044882D01*
X163603945Y-57044882D02*
X163476204Y-56950315D01*
X163476204Y-56950315D02*
X163357537Y-56842844D01*
X163357537Y-56842844D02*
X163250066Y-56724177D01*
X163250066Y-56724177D02*
X163155499Y-56596437D01*
X163155499Y-56596437D02*
X163074275Y-56460684D01*
X163074275Y-56460684D02*
X163006833Y-56317979D01*
X163006833Y-56317979D02*
X162953614Y-56169383D01*
X162953614Y-56169383D02*
X162915056Y-56015958D01*
X162915056Y-56015958D02*
X162891599Y-55858762D01*
X162891599Y-55858762D02*
X162883682Y-55698859D01*
X162883682Y-55698859D02*
X162892035Y-55533444D01*
X162892035Y-55533444D02*
X162916551Y-55372808D01*
X162916551Y-55372808D02*
X162956417Y-55217763D01*
X162956417Y-55217763D02*
X163010821Y-55069123D01*
X163010821Y-55069123D02*
X163078947Y-54927701D01*
X163078947Y-54927701D02*
X163159985Y-54794310D01*
X163159985Y-54794310D02*
X163357538Y-54554875D01*
X163357538Y-54554875D02*
X163596974Y-54357322D01*
X163596974Y-54357322D02*
X163730365Y-54276285D01*
X163730365Y-54276285D02*
X163871787Y-54208159D01*
X163871787Y-54208159D02*
X164020428Y-54153756D01*
X164020428Y-54153756D02*
X164175473Y-54113890D01*
X164175473Y-54113890D02*
X164336109Y-54089374D01*
X164336109Y-54089374D02*
X164501524Y-54081021D01*
X164501524Y-54081021D02*
X164666939Y-54089374D01*
X164666939Y-54089374D02*
X164827576Y-54113890D01*
X164827576Y-54113890D02*
X164982621Y-54153756D01*
X164982621Y-54153756D02*
X165131261Y-54208159D01*
X165131261Y-54208159D02*
X165272684Y-54276285D01*
X165272684Y-54276285D02*
X165406075Y-54357322D01*
X165406075Y-54357322D02*
X165645511Y-54554875D01*
X165645511Y-54554875D02*
X165843064Y-54794310D01*
X165843064Y-54794310D02*
X165924101Y-54927701D01*
X165924101Y-54927701D02*
X165992228Y-55069123D01*
X165992228Y-55069123D02*
X166046631Y-55217763D01*
X166046631Y-55217763D02*
X166086497Y-55372808D01*
X166086497Y-55372808D02*
X166111014Y-55533444D01*
X166111014Y-55533444D02*
X166119366Y-55698859D01*
X166119366Y-55698859D02*
X166119366Y-55698859D01*
X166119366Y-55698859D02*
X166119366Y-55698859D01*
M02*
