G04 #@! TF.GenerationSoftware,KiCad,Pcbnew,(5.1.2)-2*
G04 #@! TF.CreationDate,2020-04-17T15:17:35-07:00*
G04 #@! TF.ProjectId,panel,70616e65-6c2e-46b6-9963-61645f706362,rev?*
G04 #@! TF.SameCoordinates,Original*
G04 #@! TF.FileFunction,Soldermask,Bot*
G04 #@! TF.FilePolarity,Negative*
%FSLAX46Y46*%
G04 Gerber Fmt 4.6, Leading zero omitted, Abs format (unit mm)*
G04 Created by KiCad (PCBNEW (5.1.2)-2) date 2020-04-17 15:17:35*
%MOMM*%
%LPD*%
G04 APERTURE LIST*
%ADD10C,0.010000*%
%ADD11C,0.100000*%
%ADD12C,3.600000*%
G04 APERTURE END LIST*
D10*
G36*
X3000490Y-49810514D02*
G01*
X2943761Y-49852451D01*
X2915964Y-49921399D01*
X2911400Y-49979402D01*
X2928222Y-50047094D01*
X2981541Y-50103028D01*
X3075635Y-50149864D01*
X3214785Y-50190262D01*
X3270022Y-50202366D01*
X3432815Y-50232780D01*
X3556071Y-50247698D01*
X3648523Y-50247444D01*
X3718907Y-50232343D01*
X3747107Y-50220075D01*
X3821732Y-50162055D01*
X3848084Y-50089056D01*
X3842842Y-50044554D01*
X3817660Y-49995732D01*
X3764715Y-49952790D01*
X3678266Y-49913076D01*
X3552572Y-49873939D01*
X3386631Y-49833776D01*
X3217689Y-49802474D01*
X3090388Y-49794287D01*
X3000490Y-49810514D01*
X3000490Y-49810514D01*
G37*
X3000490Y-49810514D02*
X2943761Y-49852451D01*
X2915964Y-49921399D01*
X2911400Y-49979402D01*
X2928222Y-50047094D01*
X2981541Y-50103028D01*
X3075635Y-50149864D01*
X3214785Y-50190262D01*
X3270022Y-50202366D01*
X3432815Y-50232780D01*
X3556071Y-50247698D01*
X3648523Y-50247444D01*
X3718907Y-50232343D01*
X3747107Y-50220075D01*
X3821732Y-50162055D01*
X3848084Y-50089056D01*
X3842842Y-50044554D01*
X3817660Y-49995732D01*
X3764715Y-49952790D01*
X3678266Y-49913076D01*
X3552572Y-49873939D01*
X3386631Y-49833776D01*
X3217689Y-49802474D01*
X3090388Y-49794287D01*
X3000490Y-49810514D01*
G36*
X2796832Y-50322595D02*
G01*
X2735853Y-50370100D01*
X2692736Y-50428960D01*
X2682800Y-50466518D01*
X2696585Y-50529875D01*
X2741359Y-50592251D01*
X2822255Y-50658404D01*
X2944405Y-50733090D01*
X3006820Y-50766870D01*
X3143074Y-50834205D01*
X3244774Y-50873055D01*
X3318361Y-50884934D01*
X3370278Y-50871358D01*
X3388920Y-50856720D01*
X3410600Y-50811032D01*
X3419400Y-50745895D01*
X3410701Y-50691826D01*
X3379183Y-50637405D01*
X3316718Y-50569901D01*
X3292081Y-50546459D01*
X3202784Y-50473385D01*
X3099729Y-50404893D01*
X2996717Y-50348711D01*
X2907547Y-50312565D01*
X2857676Y-50303248D01*
X2796832Y-50322595D01*
X2796832Y-50322595D01*
G37*
X2796832Y-50322595D02*
X2735853Y-50370100D01*
X2692736Y-50428960D01*
X2682800Y-50466518D01*
X2696585Y-50529875D01*
X2741359Y-50592251D01*
X2822255Y-50658404D01*
X2944405Y-50733090D01*
X3006820Y-50766870D01*
X3143074Y-50834205D01*
X3244774Y-50873055D01*
X3318361Y-50884934D01*
X3370278Y-50871358D01*
X3388920Y-50856720D01*
X3410600Y-50811032D01*
X3419400Y-50745895D01*
X3410701Y-50691826D01*
X3379183Y-50637405D01*
X3316718Y-50569901D01*
X3292081Y-50546459D01*
X3202784Y-50473385D01*
X3099729Y-50404893D01*
X2996717Y-50348711D01*
X2907547Y-50312565D01*
X2857676Y-50303248D01*
X2796832Y-50322595D01*
G36*
X-2018290Y-44863687D02*
G01*
X-2088402Y-44920564D01*
X-2127843Y-45000357D01*
X-2128936Y-45090788D01*
X-2111120Y-45139258D01*
X-2079554Y-45199102D01*
X-2034369Y-45283846D01*
X-1992041Y-45362700D01*
X-1946241Y-45454805D01*
X-1923178Y-45527028D01*
X-1917396Y-45601742D01*
X-1920025Y-45658098D01*
X-1952212Y-45807757D01*
X-2029069Y-45963649D01*
X-2152211Y-46128570D01*
X-2256608Y-46240700D01*
X-2348058Y-46327329D01*
X-2448096Y-46411004D01*
X-2561716Y-46494758D01*
X-2693911Y-46581623D01*
X-2849676Y-46674632D01*
X-3034007Y-46776816D01*
X-3251897Y-46891208D01*
X-3508341Y-47020840D01*
X-3688249Y-47109881D01*
X-3982615Y-47255486D01*
X-4235247Y-47382353D01*
X-4450600Y-47492888D01*
X-4633133Y-47589493D01*
X-4787302Y-47674572D01*
X-4917565Y-47750530D01*
X-5028379Y-47819770D01*
X-5121952Y-47883107D01*
X-5480975Y-48160759D01*
X-5792892Y-48453962D01*
X-6059653Y-48765073D01*
X-6283210Y-49096452D01*
X-6465514Y-49450457D01*
X-6514580Y-49566713D01*
X-6596542Y-49789775D01*
X-6664941Y-50019787D01*
X-6723020Y-50269669D01*
X-6774023Y-50552336D01*
X-6792672Y-50674090D01*
X-6832668Y-51055047D01*
X-6837013Y-51422313D01*
X-6804669Y-51786831D01*
X-6734598Y-52159548D01*
X-6625762Y-52551406D01*
X-6609967Y-52600480D01*
X-6466205Y-52971392D01*
X-6280980Y-53336571D01*
X-6060656Y-53686448D01*
X-5811596Y-54011453D01*
X-5540164Y-54302019D01*
X-5384950Y-54442577D01*
X-5191200Y-54607054D01*
X-5191200Y-54813900D01*
X-5175493Y-55083398D01*
X-5126981Y-55355842D01*
X-5043577Y-55638778D01*
X-4923195Y-55939752D01*
X-4819585Y-56157700D01*
X-4586074Y-56566909D01*
X-4312218Y-56947358D01*
X-4001011Y-57296791D01*
X-3655444Y-57612953D01*
X-3278510Y-57893590D01*
X-2873200Y-58136448D01*
X-2442508Y-58339272D01*
X-1989424Y-58499808D01*
X-1571700Y-58604896D01*
X-1454423Y-58626606D01*
X-1317064Y-58648395D01*
X-1171526Y-58668783D01*
X-1029716Y-58686288D01*
X-903540Y-58699430D01*
X-804902Y-58706728D01*
X-749858Y-58707104D01*
X-705124Y-58702676D01*
X-626184Y-58694079D01*
X-529280Y-58683088D01*
X-519076Y-58681908D01*
X-324976Y-58650692D01*
X-129949Y-58603827D01*
X47807Y-58546290D01*
X170619Y-58493274D01*
X332799Y-58390095D01*
X464599Y-58263500D01*
X560477Y-58121069D01*
X614892Y-57970382D01*
X625400Y-57871269D01*
X604045Y-57736323D01*
X544830Y-57591874D01*
X455033Y-57451731D01*
X341930Y-57329701D01*
X338313Y-57326518D01*
X271108Y-57266475D01*
X238774Y-57232065D01*
X237301Y-57216229D01*
X262679Y-57211908D01*
X273132Y-57211800D01*
X329983Y-57227749D01*
X385870Y-57281143D01*
X407728Y-57310842D01*
X482860Y-57402296D01*
X588852Y-57502515D01*
X730300Y-57615358D01*
X911795Y-57744684D01*
X974946Y-57787412D01*
X1254816Y-57958683D01*
X1539508Y-58102317D01*
X1821857Y-58215810D01*
X2094697Y-58296656D01*
X2350862Y-58342352D01*
X2583189Y-58350394D01*
X2585413Y-58350273D01*
X2769930Y-58323172D01*
X2915320Y-58264669D01*
X3021066Y-58175163D01*
X3086650Y-58055053D01*
X3109008Y-57946870D01*
X3101318Y-57795251D01*
X3097321Y-57783004D01*
X2630734Y-57783004D01*
X2624223Y-57808687D01*
X2606600Y-57821894D01*
X2539380Y-57842325D01*
X2437299Y-57846694D01*
X2313355Y-57835977D01*
X2180546Y-57811154D01*
X2077679Y-57782135D01*
X1902373Y-57715947D01*
X1701706Y-57626851D01*
X1491021Y-57522330D01*
X1285660Y-57409870D01*
X1158800Y-57333878D01*
X942900Y-57199100D01*
X1905134Y-57137674D01*
X2091341Y-57280297D01*
X2247490Y-57402980D01*
X2383072Y-57515629D01*
X2492529Y-57613321D01*
X2570304Y-57691133D01*
X2606600Y-57736749D01*
X2630734Y-57783004D01*
X3097321Y-57783004D01*
X3049059Y-57635142D01*
X2951138Y-57464358D01*
X2806464Y-57280712D01*
X2739576Y-57207705D01*
X2672233Y-57134398D01*
X2637370Y-57088734D01*
X2630726Y-57063272D01*
X2648038Y-57050575D01*
X2649336Y-57050177D01*
X2682668Y-57041868D01*
X2756923Y-57024220D01*
X2863500Y-56999219D01*
X2993801Y-56968853D01*
X3139226Y-56935109D01*
X3291176Y-56899973D01*
X3441051Y-56865434D01*
X3580254Y-56833478D01*
X3700183Y-56806092D01*
X3792241Y-56785263D01*
X3847828Y-56772980D01*
X3857643Y-56770957D01*
X3875587Y-56790953D01*
X3907948Y-56847647D01*
X3949258Y-56930991D01*
X3973547Y-56983954D01*
X4100907Y-57234900D01*
X4238354Y-57441103D01*
X4384585Y-57601330D01*
X4538303Y-57714348D01*
X4698206Y-57778926D01*
X4829100Y-57794884D01*
X4994343Y-57770386D01*
X5146164Y-57697086D01*
X5284198Y-57575279D01*
X5408079Y-57405255D01*
X5477002Y-57277031D01*
X5548122Y-57114813D01*
X5606983Y-56945311D01*
X5656856Y-56756700D01*
X5701009Y-56537159D01*
X5729454Y-56364043D01*
X5748643Y-56241837D01*
X5765606Y-56139516D01*
X5778695Y-56066616D01*
X5786263Y-56032672D01*
X5786924Y-56031425D01*
X5870504Y-55972080D01*
X5957691Y-55916056D01*
X6037689Y-55869564D01*
X6099703Y-55838811D01*
X6132939Y-55830006D01*
X6135032Y-55831231D01*
X6155098Y-55859420D01*
X6197375Y-55921630D01*
X6256186Y-56009423D01*
X6325855Y-56114360D01*
X6346096Y-56145000D01*
X6520296Y-56392060D01*
X6697888Y-56611895D01*
X6874112Y-56799509D01*
X7044210Y-56949906D01*
X7203422Y-57058091D01*
X7229177Y-57071984D01*
X7389363Y-57131410D01*
X7541350Y-57143180D01*
X7679622Y-57109544D01*
X7798666Y-57032756D01*
X7892967Y-56915065D01*
X7951867Y-56776903D01*
X7975439Y-56685851D01*
X7987213Y-56601795D01*
X7986987Y-56537854D01*
X7507619Y-56537854D01*
X7505832Y-56611735D01*
X7496129Y-56649989D01*
X7490657Y-56653000D01*
X7454649Y-56638898D01*
X7400137Y-56604321D01*
X7391576Y-56598025D01*
X7231552Y-56461475D01*
X7063500Y-56287644D01*
X6949184Y-56152576D01*
X6882575Y-56065417D01*
X6808200Y-55961237D01*
X6731828Y-55848989D01*
X6659231Y-55737625D01*
X6596182Y-55636098D01*
X6548450Y-55553359D01*
X6521809Y-55498363D01*
X6518200Y-55484053D01*
X6533550Y-55454128D01*
X6574903Y-55396493D01*
X6635216Y-55319440D01*
X6707445Y-55231264D01*
X6784547Y-55140258D01*
X6859478Y-55054715D01*
X6925194Y-54982929D01*
X6974652Y-54933192D01*
X7000809Y-54913798D01*
X7002315Y-54914036D01*
X7018362Y-54941314D01*
X7048806Y-55008104D01*
X7090443Y-55106264D01*
X7140070Y-55227651D01*
X7194483Y-55364123D01*
X7250479Y-55507539D01*
X7304854Y-55649756D01*
X7354405Y-55782633D01*
X7395928Y-55898027D01*
X7426219Y-55987796D01*
X7431621Y-56005146D01*
X7454924Y-56098120D01*
X7475142Y-56208481D01*
X7491308Y-56325625D01*
X7502456Y-56438950D01*
X7507619Y-56537854D01*
X7986987Y-56537854D01*
X7986893Y-56511648D01*
X7974185Y-56402323D01*
X7948795Y-56260734D01*
X7939163Y-56212489D01*
X7838134Y-55814642D01*
X7701380Y-55436944D01*
X7532225Y-55087327D01*
X7339443Y-54781291D01*
X7279803Y-54696078D01*
X7233562Y-54626036D01*
X7207430Y-54581524D01*
X7204001Y-54572208D01*
X7214057Y-54541782D01*
X7241111Y-54476431D01*
X7280489Y-54387177D01*
X7308378Y-54326102D01*
X7427130Y-54050026D01*
X7519280Y-53788657D01*
X7587341Y-53529836D01*
X7633826Y-53261400D01*
X7661247Y-52971189D01*
X7672117Y-52647042D01*
X7672321Y-52606986D01*
X7198884Y-52606986D01*
X7162227Y-53025005D01*
X7078649Y-53443998D01*
X7000742Y-53709680D01*
X6916739Y-53944169D01*
X6827043Y-54150346D01*
X6721823Y-54348267D01*
X6591250Y-54557989D01*
X6567354Y-54593973D01*
X6497620Y-54689984D01*
X6407232Y-54802427D01*
X6303543Y-54923368D01*
X6193906Y-55044873D01*
X6085673Y-55159010D01*
X5986195Y-55257843D01*
X5902826Y-55333441D01*
X5842919Y-55377870D01*
X5838750Y-55380162D01*
X5810168Y-55393345D01*
X5793175Y-55389787D01*
X5784759Y-55360594D01*
X5781904Y-55296871D01*
X5781600Y-55211478D01*
X5775887Y-55039573D01*
X5759980Y-54847302D01*
X5735732Y-54646590D01*
X5704994Y-54449360D01*
X5669617Y-54267536D01*
X5631453Y-54113044D01*
X5593618Y-54000808D01*
X5541027Y-53915392D01*
X5474099Y-53862093D01*
X5403212Y-53844030D01*
X5338743Y-53864323D01*
X5297864Y-53911922D01*
X5290353Y-53951439D01*
X5283490Y-54038984D01*
X5277369Y-54171785D01*
X5272084Y-54347075D01*
X5267731Y-54562082D01*
X5264404Y-54814038D01*
X5263421Y-54919852D01*
X5260606Y-55199440D01*
X5256856Y-55435522D01*
X5251640Y-55635391D01*
X5244427Y-55806340D01*
X5234686Y-55955663D01*
X5221888Y-56090651D01*
X5205501Y-56218599D01*
X5184996Y-56346797D01*
X5159842Y-56482541D01*
X5143928Y-56562590D01*
X5105571Y-56718967D01*
X5055805Y-56873000D01*
X4999273Y-57013472D01*
X4940615Y-57129166D01*
X4884475Y-57208864D01*
X4870963Y-57222218D01*
X4838807Y-57247838D01*
X4812634Y-57251698D01*
X4779673Y-57228858D01*
X4727156Y-57174375D01*
X4715932Y-57162226D01*
X4617904Y-57032145D01*
X4520585Y-56857301D01*
X4426389Y-56643704D01*
X4337728Y-56397361D01*
X4257016Y-56124283D01*
X4193109Y-55860357D01*
X4153482Y-55688309D01*
X4117383Y-55560169D01*
X4080597Y-55469641D01*
X4038910Y-55410426D01*
X3988104Y-55376227D01*
X3923966Y-55360746D01*
X3856579Y-55357600D01*
X3749926Y-55380760D01*
X3666233Y-55444569D01*
X3615641Y-55540520D01*
X3610090Y-55564390D01*
X3608920Y-55631923D01*
X3621285Y-55742423D01*
X3646406Y-55890118D01*
X3669590Y-56005146D01*
X3695737Y-56133484D01*
X3716249Y-56243968D01*
X3729531Y-56327189D01*
X3733989Y-56373735D01*
X3733071Y-56379796D01*
X3701191Y-56394912D01*
X3662669Y-56399000D01*
X3622617Y-56403091D01*
X3539745Y-56414622D01*
X3421309Y-56432473D01*
X3274562Y-56455527D01*
X3106760Y-56482665D01*
X2933918Y-56511302D01*
X2570570Y-56570894D01*
X2248028Y-56620567D01*
X1957426Y-56661057D01*
X1689899Y-56693097D01*
X1436581Y-56717422D01*
X1188608Y-56734768D01*
X937114Y-56745869D01*
X673235Y-56751459D01*
X388105Y-56752274D01*
X72859Y-56749048D01*
X66600Y-56748954D01*
X-169631Y-56745215D01*
X-361365Y-56741151D01*
X-514898Y-56735645D01*
X-636526Y-56727579D01*
X-732546Y-56715835D01*
X-809255Y-56699294D01*
X-872948Y-56676839D01*
X-929921Y-56647352D01*
X-986473Y-56609714D01*
X-1048897Y-56562808D01*
X-1069009Y-56547303D01*
X-1154635Y-56475515D01*
X-1229068Y-56398265D01*
X-1296918Y-56308034D01*
X-1362797Y-56197305D01*
X-1431313Y-56058560D01*
X-1507077Y-55884281D01*
X-1568858Y-55732189D01*
X-1634313Y-55571234D01*
X-1701817Y-55411018D01*
X-1766169Y-55263488D01*
X-1822165Y-55140591D01*
X-1861319Y-55060536D01*
X-1967061Y-54883280D01*
X-2096302Y-54707716D01*
X-2239761Y-54543987D01*
X-2388160Y-54402237D01*
X-2532220Y-54292609D01*
X-2600383Y-54252668D01*
X-2706128Y-54214945D01*
X-2807087Y-54207854D01*
X-2896559Y-54226363D01*
X-2967845Y-54265438D01*
X-3014244Y-54320046D01*
X-3029057Y-54385152D01*
X-3005584Y-54455723D01*
X-2950853Y-54515975D01*
X-2832560Y-54622238D01*
X-2702730Y-54753398D01*
X-2575154Y-54894388D01*
X-2463626Y-55030142D01*
X-2399983Y-55117707D01*
X-2331208Y-55235114D01*
X-2249950Y-55400917D01*
X-2156558Y-55614359D01*
X-2069387Y-55828907D01*
X-1983016Y-56044766D01*
X-1910110Y-56219602D01*
X-1847014Y-56360221D01*
X-1790072Y-56473427D01*
X-1735629Y-56566027D01*
X-1680029Y-56644825D01*
X-1619617Y-56716626D01*
X-1557902Y-56781097D01*
X-1494598Y-56839843D01*
X-1420348Y-56899049D01*
X-1330048Y-56961765D01*
X-1218591Y-57031043D01*
X-1080871Y-57109936D01*
X-911782Y-57201494D01*
X-706218Y-57308771D01*
X-492200Y-57418039D01*
X-297132Y-57519582D01*
X-145088Y-57605309D01*
X-31939Y-57678310D01*
X46440Y-57741679D01*
X94177Y-57798508D01*
X115399Y-57851889D01*
X117400Y-57874795D01*
X105576Y-57931662D01*
X62853Y-57981076D01*
X20483Y-58011816D01*
X-167327Y-58108703D01*
X-390419Y-58176620D01*
X-641675Y-58214580D01*
X-913981Y-58221598D01*
X-1200219Y-58196687D01*
X-1254200Y-58188489D01*
X-1739894Y-58085405D01*
X-2202915Y-57937486D01*
X-2642050Y-57745279D01*
X-3056086Y-57509331D01*
X-3443813Y-57230189D01*
X-3524203Y-57164095D01*
X-3770470Y-56932392D01*
X-3995908Y-56671868D01*
X-4196107Y-56390210D01*
X-4366656Y-56095105D01*
X-4503146Y-55794237D01*
X-4601165Y-55495293D01*
X-4656305Y-55205960D01*
X-4658317Y-55187504D01*
X-4669099Y-54989280D01*
X-4663146Y-54783778D01*
X-4641894Y-54586906D01*
X-4606778Y-54414572D01*
X-4581282Y-54333881D01*
X-4481943Y-54131549D01*
X-4337250Y-53927847D01*
X-4152364Y-53726807D01*
X-3932443Y-53532460D01*
X-3682646Y-53348839D01*
X-3408133Y-53179974D01*
X-3114061Y-53029897D01*
X-2805591Y-52902640D01*
X-2704670Y-52867392D01*
X-2454003Y-52791451D01*
X-2214490Y-52736639D01*
X-1967856Y-52699746D01*
X-1695828Y-52677564D01*
X-1597100Y-52672915D01*
X-1320229Y-52669758D01*
X-1037565Y-52683056D01*
X-743820Y-52713826D01*
X-433707Y-52763090D01*
X-101939Y-52831866D01*
X256771Y-52921175D01*
X647710Y-53032036D01*
X1076165Y-53165469D01*
X1247700Y-53221571D01*
X1495950Y-53303085D01*
X1703367Y-53369321D01*
X1877049Y-53421835D01*
X2024096Y-53462183D01*
X2151603Y-53491920D01*
X2266670Y-53512603D01*
X2376393Y-53525786D01*
X2487871Y-53533026D01*
X2608202Y-53535879D01*
X2682800Y-53536140D01*
X2916837Y-53528753D01*
X3117040Y-53504935D01*
X3298693Y-53461228D01*
X3477077Y-53394175D01*
X3624485Y-53323075D01*
X3842465Y-53189575D01*
X4012906Y-53040038D01*
X4136931Y-52873002D01*
X4215665Y-52687005D01*
X4247829Y-52512795D01*
X4243340Y-52296141D01*
X4194593Y-52075242D01*
X4105759Y-51861192D01*
X3981008Y-51665083D01*
X3889300Y-51559257D01*
X3777036Y-51455201D01*
X3650470Y-51360588D01*
X3502684Y-51271716D01*
X3326762Y-51184885D01*
X3115787Y-51096391D01*
X2862841Y-51002533D01*
X2822500Y-50988339D01*
X2514139Y-50876061D01*
X2249458Y-50769479D01*
X2022152Y-50665248D01*
X1825913Y-50560022D01*
X1654433Y-50450456D01*
X1501405Y-50333203D01*
X1378312Y-50222279D01*
X1196900Y-50046981D01*
X1285800Y-49971322D01*
X1419589Y-49859697D01*
X1530069Y-49775845D01*
X1629221Y-49714749D01*
X1729031Y-49671395D01*
X1841480Y-49640768D01*
X1978552Y-49617855D01*
X2152230Y-49597640D01*
X2187500Y-49593983D01*
X2416100Y-49570507D01*
X2496476Y-49647528D01*
X2598256Y-49714515D01*
X2713519Y-49742201D01*
X2829750Y-49731893D01*
X2934433Y-49684900D01*
X3015050Y-49602530D01*
X3021134Y-49592690D01*
X3060932Y-49480294D01*
X3058196Y-49363439D01*
X3018828Y-49252512D01*
X2948727Y-49157905D01*
X2853794Y-49090005D01*
X2739930Y-49059203D01*
X2717690Y-49058400D01*
X2636716Y-49066731D01*
X2555690Y-49087979D01*
X2490100Y-49116522D01*
X2455435Y-49146741D01*
X2453393Y-49154302D01*
X2438952Y-49187044D01*
X2417008Y-49219658D01*
X2393479Y-49239428D01*
X2350753Y-49256530D01*
X2281428Y-49272587D01*
X2178099Y-49289226D01*
X2033365Y-49308071D01*
X1990750Y-49313210D01*
X1600069Y-49359802D01*
X1155583Y-49248078D01*
X1214859Y-49192390D01*
X1268472Y-49153375D01*
X1350760Y-49105747D01*
X1438718Y-49062264D01*
X1625363Y-48984897D01*
X1808531Y-48925037D01*
X1996742Y-48881581D01*
X2198515Y-48853426D01*
X2422372Y-48839470D01*
X2676830Y-48838610D01*
X2970410Y-48849743D01*
X3047242Y-48854053D01*
X3242343Y-48865345D01*
X3393761Y-48872056D01*
X3508542Y-48872261D01*
X3593734Y-48864030D01*
X3656383Y-48845438D01*
X3703536Y-48814557D01*
X3742241Y-48769461D01*
X3779545Y-48708222D01*
X3814183Y-48644328D01*
X3904338Y-48496909D01*
X3992813Y-48397413D01*
X4084533Y-48343391D01*
X4184423Y-48332398D01*
X4297410Y-48361987D01*
X4342158Y-48382062D01*
X4485513Y-48478916D01*
X4592603Y-48609564D01*
X4661155Y-48770050D01*
X4688899Y-48956419D01*
X4689400Y-48986806D01*
X4672863Y-49152059D01*
X4624865Y-49278101D01*
X4547826Y-49363573D01*
X4444168Y-49407114D01*
X4316310Y-49407365D01*
X4166674Y-49362965D01*
X4087267Y-49325100D01*
X3980998Y-49272119D01*
X3903758Y-49244764D01*
X3842012Y-49240934D01*
X3782220Y-49258531D01*
X3751917Y-49273102D01*
X3674993Y-49338401D01*
X3636265Y-49428632D01*
X3637449Y-49533376D01*
X3680260Y-49642212D01*
X3688879Y-49655975D01*
X3754938Y-49727205D01*
X3855462Y-49801065D01*
X3975471Y-49868512D01*
X4099989Y-49920506D01*
X4153476Y-49936445D01*
X4352062Y-49962004D01*
X4546088Y-49940088D01*
X4728687Y-49873971D01*
X4892995Y-49766925D01*
X5032147Y-49622225D01*
X5124935Y-49473245D01*
X5189855Y-49342967D01*
X5361168Y-49415243D01*
X5575710Y-49526146D01*
X5798552Y-49678904D01*
X6022696Y-49866932D01*
X6241146Y-50083642D01*
X6446905Y-50322448D01*
X6632977Y-50576763D01*
X6692211Y-50668306D01*
X6884218Y-51022827D01*
X7031285Y-51397863D01*
X7133016Y-51789508D01*
X7189015Y-52193851D01*
X7198884Y-52606986D01*
X7672321Y-52606986D01*
X7672542Y-52563600D01*
X7670377Y-52326178D01*
X7662608Y-52126780D01*
X7647681Y-51952791D01*
X7624045Y-51791598D01*
X7590145Y-51630585D01*
X7544430Y-51457138D01*
X7530256Y-51407900D01*
X7406005Y-51054805D01*
X7244329Y-50711999D01*
X7049679Y-50384567D01*
X6826506Y-50077596D01*
X6579259Y-49796172D01*
X6312389Y-49545381D01*
X6030347Y-49330309D01*
X5737584Y-49156042D01*
X5451400Y-49032147D01*
X5364564Y-48999721D01*
X5296211Y-48970838D01*
X5261401Y-48951920D01*
X5244839Y-48917128D01*
X5225446Y-48847231D01*
X5207601Y-48758339D01*
X5144907Y-48532432D01*
X5038621Y-48322238D01*
X4894694Y-48136137D01*
X4719072Y-47982515D01*
X4607917Y-47913157D01*
X4531044Y-47873178D01*
X4468405Y-47847851D01*
X4404114Y-47833851D01*
X4322281Y-47827850D01*
X4207018Y-47826523D01*
X4194100Y-47826519D01*
X4071700Y-47827986D01*
X3984988Y-47834149D01*
X3918895Y-47847685D01*
X3858350Y-47871268D01*
X3813100Y-47894175D01*
X3643181Y-48012797D01*
X3507248Y-48168159D01*
X3431988Y-48301827D01*
X3393644Y-48381122D01*
X3364472Y-48423008D01*
X3334596Y-48437172D01*
X3297311Y-48433912D01*
X3238529Y-48423369D01*
X3148440Y-48407937D01*
X3045885Y-48390841D01*
X3039411Y-48389777D01*
X2849922Y-48358684D01*
X2844864Y-48334339D01*
X2424728Y-48334339D01*
X2395852Y-48342092D01*
X2329465Y-48352783D01*
X2238658Y-48364832D01*
X2136519Y-48376662D01*
X2036138Y-48386694D01*
X1950603Y-48393350D01*
X1924397Y-48394677D01*
X1867476Y-48393533D01*
X1848594Y-48375778D01*
X1855187Y-48329289D01*
X1855454Y-48328150D01*
X1895292Y-48246131D01*
X1964948Y-48174855D01*
X2047707Y-48128558D01*
X2101513Y-48118600D01*
X2202596Y-48135873D01*
X2302687Y-48180648D01*
X2380214Y-48242356D01*
X2396043Y-48262889D01*
X2421196Y-48309778D01*
X2424728Y-48334339D01*
X2844864Y-48334339D01*
X2830176Y-48263647D01*
X2770274Y-48093133D01*
X2670261Y-47948142D01*
X2536466Y-47833606D01*
X2375215Y-47754453D01*
X2192838Y-47715613D01*
X2122638Y-47712448D01*
X1945713Y-47735826D01*
X1783348Y-47802067D01*
X1642302Y-47904516D01*
X1529333Y-48036519D01*
X1451199Y-48191420D01*
X1414659Y-48362566D01*
X1412800Y-48411373D01*
X1408544Y-48458778D01*
X1390937Y-48498887D01*
X1352723Y-48538367D01*
X1286647Y-48583882D01*
X1185452Y-48642099D01*
X1126916Y-48674005D01*
X929931Y-48780461D01*
X847516Y-48684929D01*
X747831Y-48575286D01*
X668541Y-48502989D01*
X602564Y-48462659D01*
X542813Y-48448919D01*
X536491Y-48448799D01*
X437099Y-48467298D01*
X372735Y-48520931D01*
X346466Y-48606901D01*
X346000Y-48622388D01*
X352899Y-48691501D01*
X377754Y-48757298D01*
X426806Y-48830475D01*
X506297Y-48921728D01*
X543691Y-48961193D01*
X613054Y-49041725D01*
X642307Y-49098139D01*
X641332Y-49122637D01*
X608520Y-49153573D01*
X568014Y-49151231D01*
X513135Y-49141274D01*
X427749Y-49129641D01*
X346000Y-49120493D01*
X251950Y-49113356D01*
X190862Y-49117181D01*
X145556Y-49134800D01*
X111050Y-49159200D01*
X53864Y-49231878D01*
X42699Y-49315567D01*
X78010Y-49398820D01*
X100486Y-49424794D01*
X167610Y-49468842D01*
X274019Y-49502878D01*
X338987Y-49516107D01*
X518202Y-49548135D01*
X535242Y-49676584D01*
X587037Y-49900545D01*
X683201Y-50118769D01*
X825586Y-50334407D01*
X1016046Y-50550614D01*
X1093621Y-50626262D01*
X1172024Y-50698739D01*
X1246652Y-50763669D01*
X1322056Y-50823468D01*
X1402791Y-50880551D01*
X1493406Y-50937330D01*
X1598456Y-50996221D01*
X1722492Y-51059638D01*
X1870066Y-51129996D01*
X2045730Y-51209708D01*
X2254037Y-51301189D01*
X2499540Y-51406854D01*
X2786789Y-51529116D01*
X2832505Y-51548505D01*
X3000591Y-51621039D01*
X3129684Y-51680230D01*
X3228317Y-51730676D01*
X3305024Y-51776972D01*
X3368340Y-51823714D01*
X3409231Y-51859132D01*
X3545776Y-52009394D01*
X3632141Y-52165066D01*
X3668746Y-52327037D01*
X3668653Y-52408845D01*
X3643939Y-52542720D01*
X3587219Y-52650291D01*
X3492104Y-52740034D01*
X3362125Y-52815644D01*
X3220400Y-52878836D01*
X3087595Y-52923166D01*
X2950591Y-52950874D01*
X2796269Y-52964206D01*
X2611511Y-52965404D01*
X2505000Y-52962207D01*
X2385207Y-52956901D01*
X2279193Y-52949820D01*
X2180163Y-52939368D01*
X2081326Y-52923950D01*
X1975887Y-52901972D01*
X1857054Y-52871837D01*
X1718032Y-52831951D01*
X1552030Y-52780717D01*
X1352253Y-52716542D01*
X1111908Y-52637830D01*
X1082600Y-52628182D01*
X721528Y-52512098D01*
X399404Y-52415051D01*
X108753Y-52335453D01*
X-157903Y-52271719D01*
X-408038Y-52222260D01*
X-649131Y-52185489D01*
X-888657Y-52159820D01*
X-1134092Y-52143665D01*
X-1216100Y-52140209D01*
X-1692000Y-52142507D01*
X-2143499Y-52186458D01*
X-2576997Y-52273316D01*
X-2998892Y-52404335D01*
X-3382163Y-52564895D01*
X-3547096Y-52649058D01*
X-3730130Y-52753267D01*
X-3915329Y-52867655D01*
X-4086759Y-52982355D01*
X-4228483Y-53087501D01*
X-4236255Y-53093743D01*
X-4294432Y-53137801D01*
X-4334502Y-53162641D01*
X-4344476Y-53164790D01*
X-4342277Y-53137706D01*
X-4326218Y-53079785D01*
X-4315587Y-53048148D01*
X-4243553Y-52875145D01*
X-4151545Y-52712881D01*
X-4035575Y-52557583D01*
X-3891652Y-52405479D01*
X-3715787Y-52252797D01*
X-3503990Y-52095764D01*
X-3252273Y-51930609D01*
X-2956646Y-51753558D01*
X-2930600Y-51738549D01*
X-2496819Y-51479126D01*
X-2106332Y-51223651D01*
X-1752419Y-50967169D01*
X-1449985Y-50722240D01*
X-3125133Y-50722240D01*
X-3126130Y-50865637D01*
X-3128854Y-50995184D01*
X-3132948Y-51100523D01*
X-3138058Y-51171297D01*
X-3141272Y-51192140D01*
X-3181939Y-51253747D01*
X-3271911Y-51315458D01*
X-3278587Y-51319000D01*
X-3491702Y-51442004D01*
X-3717117Y-51591924D01*
X-3938678Y-51756912D01*
X-4140232Y-51925122D01*
X-4264100Y-52041782D01*
X-4437182Y-52228677D01*
X-4573718Y-52408426D01*
X-4683072Y-52595631D01*
X-4774607Y-52804890D01*
X-4802438Y-52881100D01*
X-4832118Y-52970445D01*
X-4852275Y-53047861D01*
X-4864738Y-53127256D01*
X-4871334Y-53222537D01*
X-4873893Y-53347613D01*
X-4874232Y-53427200D01*
X-4874915Y-53566337D01*
X-4877659Y-53665941D01*
X-4884268Y-53737281D01*
X-4896545Y-53791622D01*
X-4916291Y-53840233D01*
X-4945311Y-53894379D01*
X-4950432Y-53903424D01*
X-4995231Y-53974226D01*
X-5034655Y-54022583D01*
X-5056145Y-54036774D01*
X-5084347Y-54019020D01*
X-5138183Y-53970796D01*
X-5209642Y-53899693D01*
X-5282352Y-53822465D01*
X-5560797Y-53487381D01*
X-5793014Y-53139366D01*
X-5981763Y-52772774D01*
X-6129802Y-52381961D01*
X-6239890Y-51961279D01*
X-6271221Y-51798839D01*
X-6301471Y-51532139D01*
X-6306066Y-51234421D01*
X-6286263Y-50917750D01*
X-6243320Y-50594193D01*
X-6178496Y-50275816D01*
X-6093050Y-49974685D01*
X-6075645Y-49923439D01*
X-6028613Y-49801674D01*
X-5970039Y-49669782D01*
X-5903942Y-49534740D01*
X-5834339Y-49403526D01*
X-5765247Y-49283119D01*
X-5700686Y-49180496D01*
X-5644673Y-49102636D01*
X-5601226Y-49056517D01*
X-5574363Y-49049117D01*
X-5572988Y-49050480D01*
X-5557782Y-49084159D01*
X-5535246Y-49152013D01*
X-5511800Y-49233777D01*
X-5443541Y-49452143D01*
X-5359148Y-49663956D01*
X-5263507Y-49859863D01*
X-5161501Y-50030512D01*
X-5058017Y-50166549D01*
X-4989016Y-50234746D01*
X-4827611Y-50345975D01*
X-4667301Y-50406753D01*
X-4507075Y-50417385D01*
X-4428547Y-50404443D01*
X-4277849Y-50346701D01*
X-4142612Y-50247547D01*
X-4017353Y-50102750D01*
X-3993991Y-50069380D01*
X-3869078Y-49898636D01*
X-3759143Y-49776360D01*
X-3664128Y-49702495D01*
X-3604157Y-49679109D01*
X-3497525Y-49682545D01*
X-3400582Y-49734909D01*
X-3313056Y-49836501D01*
X-3234673Y-49987617D01*
X-3179044Y-50142181D01*
X-3157598Y-50218850D01*
X-3142558Y-50295616D01*
X-3132869Y-50383828D01*
X-3127476Y-50494838D01*
X-3125325Y-50639995D01*
X-3125133Y-50722240D01*
X-1449985Y-50722240D01*
X-1428358Y-50704726D01*
X-1127431Y-50431369D01*
X-1036130Y-50341984D01*
X-746468Y-50036473D01*
X-502299Y-49741227D01*
X-300635Y-49451339D01*
X-138488Y-49161901D01*
X-12868Y-48868008D01*
X79211Y-48564751D01*
X99432Y-48477298D01*
X126426Y-48309254D01*
X144418Y-48105809D01*
X153294Y-47881579D01*
X152939Y-47651177D01*
X143240Y-47429221D01*
X124083Y-47230325D01*
X109887Y-47138320D01*
X21908Y-46778295D01*
X-107510Y-46429378D01*
X-274326Y-46098586D01*
X-474500Y-45792934D01*
X-703988Y-45519439D01*
X-956772Y-45286697D01*
X-1132119Y-45159361D01*
X-1317798Y-45047439D01*
X-1503960Y-44955451D01*
X-1680758Y-44887922D01*
X-1838342Y-44849373D01*
X-1925186Y-44842000D01*
X-2018290Y-44863687D01*
X-2018290Y-44863687D01*
G37*
X-2018290Y-44863687D02*
X-2088402Y-44920564D01*
X-2127843Y-45000357D01*
X-2128936Y-45090788D01*
X-2111120Y-45139258D01*
X-2079554Y-45199102D01*
X-2034369Y-45283846D01*
X-1992041Y-45362700D01*
X-1946241Y-45454805D01*
X-1923178Y-45527028D01*
X-1917396Y-45601742D01*
X-1920025Y-45658098D01*
X-1952212Y-45807757D01*
X-2029069Y-45963649D01*
X-2152211Y-46128570D01*
X-2256608Y-46240700D01*
X-2348058Y-46327329D01*
X-2448096Y-46411004D01*
X-2561716Y-46494758D01*
X-2693911Y-46581623D01*
X-2849676Y-46674632D01*
X-3034007Y-46776816D01*
X-3251897Y-46891208D01*
X-3508341Y-47020840D01*
X-3688249Y-47109881D01*
X-3982615Y-47255486D01*
X-4235247Y-47382353D01*
X-4450600Y-47492888D01*
X-4633133Y-47589493D01*
X-4787302Y-47674572D01*
X-4917565Y-47750530D01*
X-5028379Y-47819770D01*
X-5121952Y-47883107D01*
X-5480975Y-48160759D01*
X-5792892Y-48453962D01*
X-6059653Y-48765073D01*
X-6283210Y-49096452D01*
X-6465514Y-49450457D01*
X-6514580Y-49566713D01*
X-6596542Y-49789775D01*
X-6664941Y-50019787D01*
X-6723020Y-50269669D01*
X-6774023Y-50552336D01*
X-6792672Y-50674090D01*
X-6832668Y-51055047D01*
X-6837013Y-51422313D01*
X-6804669Y-51786831D01*
X-6734598Y-52159548D01*
X-6625762Y-52551406D01*
X-6609967Y-52600480D01*
X-6466205Y-52971392D01*
X-6280980Y-53336571D01*
X-6060656Y-53686448D01*
X-5811596Y-54011453D01*
X-5540164Y-54302019D01*
X-5384950Y-54442577D01*
X-5191200Y-54607054D01*
X-5191200Y-54813900D01*
X-5175493Y-55083398D01*
X-5126981Y-55355842D01*
X-5043577Y-55638778D01*
X-4923195Y-55939752D01*
X-4819585Y-56157700D01*
X-4586074Y-56566909D01*
X-4312218Y-56947358D01*
X-4001011Y-57296791D01*
X-3655444Y-57612953D01*
X-3278510Y-57893590D01*
X-2873200Y-58136448D01*
X-2442508Y-58339272D01*
X-1989424Y-58499808D01*
X-1571700Y-58604896D01*
X-1454423Y-58626606D01*
X-1317064Y-58648395D01*
X-1171526Y-58668783D01*
X-1029716Y-58686288D01*
X-903540Y-58699430D01*
X-804902Y-58706728D01*
X-749858Y-58707104D01*
X-705124Y-58702676D01*
X-626184Y-58694079D01*
X-529280Y-58683088D01*
X-519076Y-58681908D01*
X-324976Y-58650692D01*
X-129949Y-58603827D01*
X47807Y-58546290D01*
X170619Y-58493274D01*
X332799Y-58390095D01*
X464599Y-58263500D01*
X560477Y-58121069D01*
X614892Y-57970382D01*
X625400Y-57871269D01*
X604045Y-57736323D01*
X544830Y-57591874D01*
X455033Y-57451731D01*
X341930Y-57329701D01*
X338313Y-57326518D01*
X271108Y-57266475D01*
X238774Y-57232065D01*
X237301Y-57216229D01*
X262679Y-57211908D01*
X273132Y-57211800D01*
X329983Y-57227749D01*
X385870Y-57281143D01*
X407728Y-57310842D01*
X482860Y-57402296D01*
X588852Y-57502515D01*
X730300Y-57615358D01*
X911795Y-57744684D01*
X974946Y-57787412D01*
X1254816Y-57958683D01*
X1539508Y-58102317D01*
X1821857Y-58215810D01*
X2094697Y-58296656D01*
X2350862Y-58342352D01*
X2583189Y-58350394D01*
X2585413Y-58350273D01*
X2769930Y-58323172D01*
X2915320Y-58264669D01*
X3021066Y-58175163D01*
X3086650Y-58055053D01*
X3109008Y-57946870D01*
X3101318Y-57795251D01*
X3097321Y-57783004D01*
X2630734Y-57783004D01*
X2624223Y-57808687D01*
X2606600Y-57821894D01*
X2539380Y-57842325D01*
X2437299Y-57846694D01*
X2313355Y-57835977D01*
X2180546Y-57811154D01*
X2077679Y-57782135D01*
X1902373Y-57715947D01*
X1701706Y-57626851D01*
X1491021Y-57522330D01*
X1285660Y-57409870D01*
X1158800Y-57333878D01*
X942900Y-57199100D01*
X1905134Y-57137674D01*
X2091341Y-57280297D01*
X2247490Y-57402980D01*
X2383072Y-57515629D01*
X2492529Y-57613321D01*
X2570304Y-57691133D01*
X2606600Y-57736749D01*
X2630734Y-57783004D01*
X3097321Y-57783004D01*
X3049059Y-57635142D01*
X2951138Y-57464358D01*
X2806464Y-57280712D01*
X2739576Y-57207705D01*
X2672233Y-57134398D01*
X2637370Y-57088734D01*
X2630726Y-57063272D01*
X2648038Y-57050575D01*
X2649336Y-57050177D01*
X2682668Y-57041868D01*
X2756923Y-57024220D01*
X2863500Y-56999219D01*
X2993801Y-56968853D01*
X3139226Y-56935109D01*
X3291176Y-56899973D01*
X3441051Y-56865434D01*
X3580254Y-56833478D01*
X3700183Y-56806092D01*
X3792241Y-56785263D01*
X3847828Y-56772980D01*
X3857643Y-56770957D01*
X3875587Y-56790953D01*
X3907948Y-56847647D01*
X3949258Y-56930991D01*
X3973547Y-56983954D01*
X4100907Y-57234900D01*
X4238354Y-57441103D01*
X4384585Y-57601330D01*
X4538303Y-57714348D01*
X4698206Y-57778926D01*
X4829100Y-57794884D01*
X4994343Y-57770386D01*
X5146164Y-57697086D01*
X5284198Y-57575279D01*
X5408079Y-57405255D01*
X5477002Y-57277031D01*
X5548122Y-57114813D01*
X5606983Y-56945311D01*
X5656856Y-56756700D01*
X5701009Y-56537159D01*
X5729454Y-56364043D01*
X5748643Y-56241837D01*
X5765606Y-56139516D01*
X5778695Y-56066616D01*
X5786263Y-56032672D01*
X5786924Y-56031425D01*
X5870504Y-55972080D01*
X5957691Y-55916056D01*
X6037689Y-55869564D01*
X6099703Y-55838811D01*
X6132939Y-55830006D01*
X6135032Y-55831231D01*
X6155098Y-55859420D01*
X6197375Y-55921630D01*
X6256186Y-56009423D01*
X6325855Y-56114360D01*
X6346096Y-56145000D01*
X6520296Y-56392060D01*
X6697888Y-56611895D01*
X6874112Y-56799509D01*
X7044210Y-56949906D01*
X7203422Y-57058091D01*
X7229177Y-57071984D01*
X7389363Y-57131410D01*
X7541350Y-57143180D01*
X7679622Y-57109544D01*
X7798666Y-57032756D01*
X7892967Y-56915065D01*
X7951867Y-56776903D01*
X7975439Y-56685851D01*
X7987213Y-56601795D01*
X7986987Y-56537854D01*
X7507619Y-56537854D01*
X7505832Y-56611735D01*
X7496129Y-56649989D01*
X7490657Y-56653000D01*
X7454649Y-56638898D01*
X7400137Y-56604321D01*
X7391576Y-56598025D01*
X7231552Y-56461475D01*
X7063500Y-56287644D01*
X6949184Y-56152576D01*
X6882575Y-56065417D01*
X6808200Y-55961237D01*
X6731828Y-55848989D01*
X6659231Y-55737625D01*
X6596182Y-55636098D01*
X6548450Y-55553359D01*
X6521809Y-55498363D01*
X6518200Y-55484053D01*
X6533550Y-55454128D01*
X6574903Y-55396493D01*
X6635216Y-55319440D01*
X6707445Y-55231264D01*
X6784547Y-55140258D01*
X6859478Y-55054715D01*
X6925194Y-54982929D01*
X6974652Y-54933192D01*
X7000809Y-54913798D01*
X7002315Y-54914036D01*
X7018362Y-54941314D01*
X7048806Y-55008104D01*
X7090443Y-55106264D01*
X7140070Y-55227651D01*
X7194483Y-55364123D01*
X7250479Y-55507539D01*
X7304854Y-55649756D01*
X7354405Y-55782633D01*
X7395928Y-55898027D01*
X7426219Y-55987796D01*
X7431621Y-56005146D01*
X7454924Y-56098120D01*
X7475142Y-56208481D01*
X7491308Y-56325625D01*
X7502456Y-56438950D01*
X7507619Y-56537854D01*
X7986987Y-56537854D01*
X7986893Y-56511648D01*
X7974185Y-56402323D01*
X7948795Y-56260734D01*
X7939163Y-56212489D01*
X7838134Y-55814642D01*
X7701380Y-55436944D01*
X7532225Y-55087327D01*
X7339443Y-54781291D01*
X7279803Y-54696078D01*
X7233562Y-54626036D01*
X7207430Y-54581524D01*
X7204001Y-54572208D01*
X7214057Y-54541782D01*
X7241111Y-54476431D01*
X7280489Y-54387177D01*
X7308378Y-54326102D01*
X7427130Y-54050026D01*
X7519280Y-53788657D01*
X7587341Y-53529836D01*
X7633826Y-53261400D01*
X7661247Y-52971189D01*
X7672117Y-52647042D01*
X7672321Y-52606986D01*
X7198884Y-52606986D01*
X7162227Y-53025005D01*
X7078649Y-53443998D01*
X7000742Y-53709680D01*
X6916739Y-53944169D01*
X6827043Y-54150346D01*
X6721823Y-54348267D01*
X6591250Y-54557989D01*
X6567354Y-54593973D01*
X6497620Y-54689984D01*
X6407232Y-54802427D01*
X6303543Y-54923368D01*
X6193906Y-55044873D01*
X6085673Y-55159010D01*
X5986195Y-55257843D01*
X5902826Y-55333441D01*
X5842919Y-55377870D01*
X5838750Y-55380162D01*
X5810168Y-55393345D01*
X5793175Y-55389787D01*
X5784759Y-55360594D01*
X5781904Y-55296871D01*
X5781600Y-55211478D01*
X5775887Y-55039573D01*
X5759980Y-54847302D01*
X5735732Y-54646590D01*
X5704994Y-54449360D01*
X5669617Y-54267536D01*
X5631453Y-54113044D01*
X5593618Y-54000808D01*
X5541027Y-53915392D01*
X5474099Y-53862093D01*
X5403212Y-53844030D01*
X5338743Y-53864323D01*
X5297864Y-53911922D01*
X5290353Y-53951439D01*
X5283490Y-54038984D01*
X5277369Y-54171785D01*
X5272084Y-54347075D01*
X5267731Y-54562082D01*
X5264404Y-54814038D01*
X5263421Y-54919852D01*
X5260606Y-55199440D01*
X5256856Y-55435522D01*
X5251640Y-55635391D01*
X5244427Y-55806340D01*
X5234686Y-55955663D01*
X5221888Y-56090651D01*
X5205501Y-56218599D01*
X5184996Y-56346797D01*
X5159842Y-56482541D01*
X5143928Y-56562590D01*
X5105571Y-56718967D01*
X5055805Y-56873000D01*
X4999273Y-57013472D01*
X4940615Y-57129166D01*
X4884475Y-57208864D01*
X4870963Y-57222218D01*
X4838807Y-57247838D01*
X4812634Y-57251698D01*
X4779673Y-57228858D01*
X4727156Y-57174375D01*
X4715932Y-57162226D01*
X4617904Y-57032145D01*
X4520585Y-56857301D01*
X4426389Y-56643704D01*
X4337728Y-56397361D01*
X4257016Y-56124283D01*
X4193109Y-55860357D01*
X4153482Y-55688309D01*
X4117383Y-55560169D01*
X4080597Y-55469641D01*
X4038910Y-55410426D01*
X3988104Y-55376227D01*
X3923966Y-55360746D01*
X3856579Y-55357600D01*
X3749926Y-55380760D01*
X3666233Y-55444569D01*
X3615641Y-55540520D01*
X3610090Y-55564390D01*
X3608920Y-55631923D01*
X3621285Y-55742423D01*
X3646406Y-55890118D01*
X3669590Y-56005146D01*
X3695737Y-56133484D01*
X3716249Y-56243968D01*
X3729531Y-56327189D01*
X3733989Y-56373735D01*
X3733071Y-56379796D01*
X3701191Y-56394912D01*
X3662669Y-56399000D01*
X3622617Y-56403091D01*
X3539745Y-56414622D01*
X3421309Y-56432473D01*
X3274562Y-56455527D01*
X3106760Y-56482665D01*
X2933918Y-56511302D01*
X2570570Y-56570894D01*
X2248028Y-56620567D01*
X1957426Y-56661057D01*
X1689899Y-56693097D01*
X1436581Y-56717422D01*
X1188608Y-56734768D01*
X937114Y-56745869D01*
X673235Y-56751459D01*
X388105Y-56752274D01*
X72859Y-56749048D01*
X66600Y-56748954D01*
X-169631Y-56745215D01*
X-361365Y-56741151D01*
X-514898Y-56735645D01*
X-636526Y-56727579D01*
X-732546Y-56715835D01*
X-809255Y-56699294D01*
X-872948Y-56676839D01*
X-929921Y-56647352D01*
X-986473Y-56609714D01*
X-1048897Y-56562808D01*
X-1069009Y-56547303D01*
X-1154635Y-56475515D01*
X-1229068Y-56398265D01*
X-1296918Y-56308034D01*
X-1362797Y-56197305D01*
X-1431313Y-56058560D01*
X-1507077Y-55884281D01*
X-1568858Y-55732189D01*
X-1634313Y-55571234D01*
X-1701817Y-55411018D01*
X-1766169Y-55263488D01*
X-1822165Y-55140591D01*
X-1861319Y-55060536D01*
X-1967061Y-54883280D01*
X-2096302Y-54707716D01*
X-2239761Y-54543987D01*
X-2388160Y-54402237D01*
X-2532220Y-54292609D01*
X-2600383Y-54252668D01*
X-2706128Y-54214945D01*
X-2807087Y-54207854D01*
X-2896559Y-54226363D01*
X-2967845Y-54265438D01*
X-3014244Y-54320046D01*
X-3029057Y-54385152D01*
X-3005584Y-54455723D01*
X-2950853Y-54515975D01*
X-2832560Y-54622238D01*
X-2702730Y-54753398D01*
X-2575154Y-54894388D01*
X-2463626Y-55030142D01*
X-2399983Y-55117707D01*
X-2331208Y-55235114D01*
X-2249950Y-55400917D01*
X-2156558Y-55614359D01*
X-2069387Y-55828907D01*
X-1983016Y-56044766D01*
X-1910110Y-56219602D01*
X-1847014Y-56360221D01*
X-1790072Y-56473427D01*
X-1735629Y-56566027D01*
X-1680029Y-56644825D01*
X-1619617Y-56716626D01*
X-1557902Y-56781097D01*
X-1494598Y-56839843D01*
X-1420348Y-56899049D01*
X-1330048Y-56961765D01*
X-1218591Y-57031043D01*
X-1080871Y-57109936D01*
X-911782Y-57201494D01*
X-706218Y-57308771D01*
X-492200Y-57418039D01*
X-297132Y-57519582D01*
X-145088Y-57605309D01*
X-31939Y-57678310D01*
X46440Y-57741679D01*
X94177Y-57798508D01*
X115399Y-57851889D01*
X117400Y-57874795D01*
X105576Y-57931662D01*
X62853Y-57981076D01*
X20483Y-58011816D01*
X-167327Y-58108703D01*
X-390419Y-58176620D01*
X-641675Y-58214580D01*
X-913981Y-58221598D01*
X-1200219Y-58196687D01*
X-1254200Y-58188489D01*
X-1739894Y-58085405D01*
X-2202915Y-57937486D01*
X-2642050Y-57745279D01*
X-3056086Y-57509331D01*
X-3443813Y-57230189D01*
X-3524203Y-57164095D01*
X-3770470Y-56932392D01*
X-3995908Y-56671868D01*
X-4196107Y-56390210D01*
X-4366656Y-56095105D01*
X-4503146Y-55794237D01*
X-4601165Y-55495293D01*
X-4656305Y-55205960D01*
X-4658317Y-55187504D01*
X-4669099Y-54989280D01*
X-4663146Y-54783778D01*
X-4641894Y-54586906D01*
X-4606778Y-54414572D01*
X-4581282Y-54333881D01*
X-4481943Y-54131549D01*
X-4337250Y-53927847D01*
X-4152364Y-53726807D01*
X-3932443Y-53532460D01*
X-3682646Y-53348839D01*
X-3408133Y-53179974D01*
X-3114061Y-53029897D01*
X-2805591Y-52902640D01*
X-2704670Y-52867392D01*
X-2454003Y-52791451D01*
X-2214490Y-52736639D01*
X-1967856Y-52699746D01*
X-1695828Y-52677564D01*
X-1597100Y-52672915D01*
X-1320229Y-52669758D01*
X-1037565Y-52683056D01*
X-743820Y-52713826D01*
X-433707Y-52763090D01*
X-101939Y-52831866D01*
X256771Y-52921175D01*
X647710Y-53032036D01*
X1076165Y-53165469D01*
X1247700Y-53221571D01*
X1495950Y-53303085D01*
X1703367Y-53369321D01*
X1877049Y-53421835D01*
X2024096Y-53462183D01*
X2151603Y-53491920D01*
X2266670Y-53512603D01*
X2376393Y-53525786D01*
X2487871Y-53533026D01*
X2608202Y-53535879D01*
X2682800Y-53536140D01*
X2916837Y-53528753D01*
X3117040Y-53504935D01*
X3298693Y-53461228D01*
X3477077Y-53394175D01*
X3624485Y-53323075D01*
X3842465Y-53189575D01*
X4012906Y-53040038D01*
X4136931Y-52873002D01*
X4215665Y-52687005D01*
X4247829Y-52512795D01*
X4243340Y-52296141D01*
X4194593Y-52075242D01*
X4105759Y-51861192D01*
X3981008Y-51665083D01*
X3889300Y-51559257D01*
X3777036Y-51455201D01*
X3650470Y-51360588D01*
X3502684Y-51271716D01*
X3326762Y-51184885D01*
X3115787Y-51096391D01*
X2862841Y-51002533D01*
X2822500Y-50988339D01*
X2514139Y-50876061D01*
X2249458Y-50769479D01*
X2022152Y-50665248D01*
X1825913Y-50560022D01*
X1654433Y-50450456D01*
X1501405Y-50333203D01*
X1378312Y-50222279D01*
X1196900Y-50046981D01*
X1285800Y-49971322D01*
X1419589Y-49859697D01*
X1530069Y-49775845D01*
X1629221Y-49714749D01*
X1729031Y-49671395D01*
X1841480Y-49640768D01*
X1978552Y-49617855D01*
X2152230Y-49597640D01*
X2187500Y-49593983D01*
X2416100Y-49570507D01*
X2496476Y-49647528D01*
X2598256Y-49714515D01*
X2713519Y-49742201D01*
X2829750Y-49731893D01*
X2934433Y-49684900D01*
X3015050Y-49602530D01*
X3021134Y-49592690D01*
X3060932Y-49480294D01*
X3058196Y-49363439D01*
X3018828Y-49252512D01*
X2948727Y-49157905D01*
X2853794Y-49090005D01*
X2739930Y-49059203D01*
X2717690Y-49058400D01*
X2636716Y-49066731D01*
X2555690Y-49087979D01*
X2490100Y-49116522D01*
X2455435Y-49146741D01*
X2453393Y-49154302D01*
X2438952Y-49187044D01*
X2417008Y-49219658D01*
X2393479Y-49239428D01*
X2350753Y-49256530D01*
X2281428Y-49272587D01*
X2178099Y-49289226D01*
X2033365Y-49308071D01*
X1990750Y-49313210D01*
X1600069Y-49359802D01*
X1155583Y-49248078D01*
X1214859Y-49192390D01*
X1268472Y-49153375D01*
X1350760Y-49105747D01*
X1438718Y-49062264D01*
X1625363Y-48984897D01*
X1808531Y-48925037D01*
X1996742Y-48881581D01*
X2198515Y-48853426D01*
X2422372Y-48839470D01*
X2676830Y-48838610D01*
X2970410Y-48849743D01*
X3047242Y-48854053D01*
X3242343Y-48865345D01*
X3393761Y-48872056D01*
X3508542Y-48872261D01*
X3593734Y-48864030D01*
X3656383Y-48845438D01*
X3703536Y-48814557D01*
X3742241Y-48769461D01*
X3779545Y-48708222D01*
X3814183Y-48644328D01*
X3904338Y-48496909D01*
X3992813Y-48397413D01*
X4084533Y-48343391D01*
X4184423Y-48332398D01*
X4297410Y-48361987D01*
X4342158Y-48382062D01*
X4485513Y-48478916D01*
X4592603Y-48609564D01*
X4661155Y-48770050D01*
X4688899Y-48956419D01*
X4689400Y-48986806D01*
X4672863Y-49152059D01*
X4624865Y-49278101D01*
X4547826Y-49363573D01*
X4444168Y-49407114D01*
X4316310Y-49407365D01*
X4166674Y-49362965D01*
X4087267Y-49325100D01*
X3980998Y-49272119D01*
X3903758Y-49244764D01*
X3842012Y-49240934D01*
X3782220Y-49258531D01*
X3751917Y-49273102D01*
X3674993Y-49338401D01*
X3636265Y-49428632D01*
X3637449Y-49533376D01*
X3680260Y-49642212D01*
X3688879Y-49655975D01*
X3754938Y-49727205D01*
X3855462Y-49801065D01*
X3975471Y-49868512D01*
X4099989Y-49920506D01*
X4153476Y-49936445D01*
X4352062Y-49962004D01*
X4546088Y-49940088D01*
X4728687Y-49873971D01*
X4892995Y-49766925D01*
X5032147Y-49622225D01*
X5124935Y-49473245D01*
X5189855Y-49342967D01*
X5361168Y-49415243D01*
X5575710Y-49526146D01*
X5798552Y-49678904D01*
X6022696Y-49866932D01*
X6241146Y-50083642D01*
X6446905Y-50322448D01*
X6632977Y-50576763D01*
X6692211Y-50668306D01*
X6884218Y-51022827D01*
X7031285Y-51397863D01*
X7133016Y-51789508D01*
X7189015Y-52193851D01*
X7198884Y-52606986D01*
X7672321Y-52606986D01*
X7672542Y-52563600D01*
X7670377Y-52326178D01*
X7662608Y-52126780D01*
X7647681Y-51952791D01*
X7624045Y-51791598D01*
X7590145Y-51630585D01*
X7544430Y-51457138D01*
X7530256Y-51407900D01*
X7406005Y-51054805D01*
X7244329Y-50711999D01*
X7049679Y-50384567D01*
X6826506Y-50077596D01*
X6579259Y-49796172D01*
X6312389Y-49545381D01*
X6030347Y-49330309D01*
X5737584Y-49156042D01*
X5451400Y-49032147D01*
X5364564Y-48999721D01*
X5296211Y-48970838D01*
X5261401Y-48951920D01*
X5244839Y-48917128D01*
X5225446Y-48847231D01*
X5207601Y-48758339D01*
X5144907Y-48532432D01*
X5038621Y-48322238D01*
X4894694Y-48136137D01*
X4719072Y-47982515D01*
X4607917Y-47913157D01*
X4531044Y-47873178D01*
X4468405Y-47847851D01*
X4404114Y-47833851D01*
X4322281Y-47827850D01*
X4207018Y-47826523D01*
X4194100Y-47826519D01*
X4071700Y-47827986D01*
X3984988Y-47834149D01*
X3918895Y-47847685D01*
X3858350Y-47871268D01*
X3813100Y-47894175D01*
X3643181Y-48012797D01*
X3507248Y-48168159D01*
X3431988Y-48301827D01*
X3393644Y-48381122D01*
X3364472Y-48423008D01*
X3334596Y-48437172D01*
X3297311Y-48433912D01*
X3238529Y-48423369D01*
X3148440Y-48407937D01*
X3045885Y-48390841D01*
X3039411Y-48389777D01*
X2849922Y-48358684D01*
X2844864Y-48334339D01*
X2424728Y-48334339D01*
X2395852Y-48342092D01*
X2329465Y-48352783D01*
X2238658Y-48364832D01*
X2136519Y-48376662D01*
X2036138Y-48386694D01*
X1950603Y-48393350D01*
X1924397Y-48394677D01*
X1867476Y-48393533D01*
X1848594Y-48375778D01*
X1855187Y-48329289D01*
X1855454Y-48328150D01*
X1895292Y-48246131D01*
X1964948Y-48174855D01*
X2047707Y-48128558D01*
X2101513Y-48118600D01*
X2202596Y-48135873D01*
X2302687Y-48180648D01*
X2380214Y-48242356D01*
X2396043Y-48262889D01*
X2421196Y-48309778D01*
X2424728Y-48334339D01*
X2844864Y-48334339D01*
X2830176Y-48263647D01*
X2770274Y-48093133D01*
X2670261Y-47948142D01*
X2536466Y-47833606D01*
X2375215Y-47754453D01*
X2192838Y-47715613D01*
X2122638Y-47712448D01*
X1945713Y-47735826D01*
X1783348Y-47802067D01*
X1642302Y-47904516D01*
X1529333Y-48036519D01*
X1451199Y-48191420D01*
X1414659Y-48362566D01*
X1412800Y-48411373D01*
X1408544Y-48458778D01*
X1390937Y-48498887D01*
X1352723Y-48538367D01*
X1286647Y-48583882D01*
X1185452Y-48642099D01*
X1126916Y-48674005D01*
X929931Y-48780461D01*
X847516Y-48684929D01*
X747831Y-48575286D01*
X668541Y-48502989D01*
X602564Y-48462659D01*
X542813Y-48448919D01*
X536491Y-48448799D01*
X437099Y-48467298D01*
X372735Y-48520931D01*
X346466Y-48606901D01*
X346000Y-48622388D01*
X352899Y-48691501D01*
X377754Y-48757298D01*
X426806Y-48830475D01*
X506297Y-48921728D01*
X543691Y-48961193D01*
X613054Y-49041725D01*
X642307Y-49098139D01*
X641332Y-49122637D01*
X608520Y-49153573D01*
X568014Y-49151231D01*
X513135Y-49141274D01*
X427749Y-49129641D01*
X346000Y-49120493D01*
X251950Y-49113356D01*
X190862Y-49117181D01*
X145556Y-49134800D01*
X111050Y-49159200D01*
X53864Y-49231878D01*
X42699Y-49315567D01*
X78010Y-49398820D01*
X100486Y-49424794D01*
X167610Y-49468842D01*
X274019Y-49502878D01*
X338987Y-49516107D01*
X518202Y-49548135D01*
X535242Y-49676584D01*
X587037Y-49900545D01*
X683201Y-50118769D01*
X825586Y-50334407D01*
X1016046Y-50550614D01*
X1093621Y-50626262D01*
X1172024Y-50698739D01*
X1246652Y-50763669D01*
X1322056Y-50823468D01*
X1402791Y-50880551D01*
X1493406Y-50937330D01*
X1598456Y-50996221D01*
X1722492Y-51059638D01*
X1870066Y-51129996D01*
X2045730Y-51209708D01*
X2254037Y-51301189D01*
X2499540Y-51406854D01*
X2786789Y-51529116D01*
X2832505Y-51548505D01*
X3000591Y-51621039D01*
X3129684Y-51680230D01*
X3228317Y-51730676D01*
X3305024Y-51776972D01*
X3368340Y-51823714D01*
X3409231Y-51859132D01*
X3545776Y-52009394D01*
X3632141Y-52165066D01*
X3668746Y-52327037D01*
X3668653Y-52408845D01*
X3643939Y-52542720D01*
X3587219Y-52650291D01*
X3492104Y-52740034D01*
X3362125Y-52815644D01*
X3220400Y-52878836D01*
X3087595Y-52923166D01*
X2950591Y-52950874D01*
X2796269Y-52964206D01*
X2611511Y-52965404D01*
X2505000Y-52962207D01*
X2385207Y-52956901D01*
X2279193Y-52949820D01*
X2180163Y-52939368D01*
X2081326Y-52923950D01*
X1975887Y-52901972D01*
X1857054Y-52871837D01*
X1718032Y-52831951D01*
X1552030Y-52780717D01*
X1352253Y-52716542D01*
X1111908Y-52637830D01*
X1082600Y-52628182D01*
X721528Y-52512098D01*
X399404Y-52415051D01*
X108753Y-52335453D01*
X-157903Y-52271719D01*
X-408038Y-52222260D01*
X-649131Y-52185489D01*
X-888657Y-52159820D01*
X-1134092Y-52143665D01*
X-1216100Y-52140209D01*
X-1692000Y-52142507D01*
X-2143499Y-52186458D01*
X-2576997Y-52273316D01*
X-2998892Y-52404335D01*
X-3382163Y-52564895D01*
X-3547096Y-52649058D01*
X-3730130Y-52753267D01*
X-3915329Y-52867655D01*
X-4086759Y-52982355D01*
X-4228483Y-53087501D01*
X-4236255Y-53093743D01*
X-4294432Y-53137801D01*
X-4334502Y-53162641D01*
X-4344476Y-53164790D01*
X-4342277Y-53137706D01*
X-4326218Y-53079785D01*
X-4315587Y-53048148D01*
X-4243553Y-52875145D01*
X-4151545Y-52712881D01*
X-4035575Y-52557583D01*
X-3891652Y-52405479D01*
X-3715787Y-52252797D01*
X-3503990Y-52095764D01*
X-3252273Y-51930609D01*
X-2956646Y-51753558D01*
X-2930600Y-51738549D01*
X-2496819Y-51479126D01*
X-2106332Y-51223651D01*
X-1752419Y-50967169D01*
X-1449985Y-50722240D01*
X-3125133Y-50722240D01*
X-3126130Y-50865637D01*
X-3128854Y-50995184D01*
X-3132948Y-51100523D01*
X-3138058Y-51171297D01*
X-3141272Y-51192140D01*
X-3181939Y-51253747D01*
X-3271911Y-51315458D01*
X-3278587Y-51319000D01*
X-3491702Y-51442004D01*
X-3717117Y-51591924D01*
X-3938678Y-51756912D01*
X-4140232Y-51925122D01*
X-4264100Y-52041782D01*
X-4437182Y-52228677D01*
X-4573718Y-52408426D01*
X-4683072Y-52595631D01*
X-4774607Y-52804890D01*
X-4802438Y-52881100D01*
X-4832118Y-52970445D01*
X-4852275Y-53047861D01*
X-4864738Y-53127256D01*
X-4871334Y-53222537D01*
X-4873893Y-53347613D01*
X-4874232Y-53427200D01*
X-4874915Y-53566337D01*
X-4877659Y-53665941D01*
X-4884268Y-53737281D01*
X-4896545Y-53791622D01*
X-4916291Y-53840233D01*
X-4945311Y-53894379D01*
X-4950432Y-53903424D01*
X-4995231Y-53974226D01*
X-5034655Y-54022583D01*
X-5056145Y-54036774D01*
X-5084347Y-54019020D01*
X-5138183Y-53970796D01*
X-5209642Y-53899693D01*
X-5282352Y-53822465D01*
X-5560797Y-53487381D01*
X-5793014Y-53139366D01*
X-5981763Y-52772774D01*
X-6129802Y-52381961D01*
X-6239890Y-51961279D01*
X-6271221Y-51798839D01*
X-6301471Y-51532139D01*
X-6306066Y-51234421D01*
X-6286263Y-50917750D01*
X-6243320Y-50594193D01*
X-6178496Y-50275816D01*
X-6093050Y-49974685D01*
X-6075645Y-49923439D01*
X-6028613Y-49801674D01*
X-5970039Y-49669782D01*
X-5903942Y-49534740D01*
X-5834339Y-49403526D01*
X-5765247Y-49283119D01*
X-5700686Y-49180496D01*
X-5644673Y-49102636D01*
X-5601226Y-49056517D01*
X-5574363Y-49049117D01*
X-5572988Y-49050480D01*
X-5557782Y-49084159D01*
X-5535246Y-49152013D01*
X-5511800Y-49233777D01*
X-5443541Y-49452143D01*
X-5359148Y-49663956D01*
X-5263507Y-49859863D01*
X-5161501Y-50030512D01*
X-5058017Y-50166549D01*
X-4989016Y-50234746D01*
X-4827611Y-50345975D01*
X-4667301Y-50406753D01*
X-4507075Y-50417385D01*
X-4428547Y-50404443D01*
X-4277849Y-50346701D01*
X-4142612Y-50247547D01*
X-4017353Y-50102750D01*
X-3993991Y-50069380D01*
X-3869078Y-49898636D01*
X-3759143Y-49776360D01*
X-3664128Y-49702495D01*
X-3604157Y-49679109D01*
X-3497525Y-49682545D01*
X-3400582Y-49734909D01*
X-3313056Y-49836501D01*
X-3234673Y-49987617D01*
X-3179044Y-50142181D01*
X-3157598Y-50218850D01*
X-3142558Y-50295616D01*
X-3132869Y-50383828D01*
X-3127476Y-50494838D01*
X-3125325Y-50639995D01*
X-3125133Y-50722240D01*
X-1449985Y-50722240D01*
X-1428358Y-50704726D01*
X-1127431Y-50431369D01*
X-1036130Y-50341984D01*
X-746468Y-50036473D01*
X-502299Y-49741227D01*
X-300635Y-49451339D01*
X-138488Y-49161901D01*
X-12868Y-48868008D01*
X79211Y-48564751D01*
X99432Y-48477298D01*
X126426Y-48309254D01*
X144418Y-48105809D01*
X153294Y-47881579D01*
X152939Y-47651177D01*
X143240Y-47429221D01*
X124083Y-47230325D01*
X109887Y-47138320D01*
X21908Y-46778295D01*
X-107510Y-46429378D01*
X-274326Y-46098586D01*
X-474500Y-45792934D01*
X-703988Y-45519439D01*
X-956772Y-45286697D01*
X-1132119Y-45159361D01*
X-1317798Y-45047439D01*
X-1503960Y-44955451D01*
X-1680758Y-44887922D01*
X-1838342Y-44849373D01*
X-1925186Y-44842000D01*
X-2018290Y-44863687D01*
D11*
G36*
X-12023569Y62991334D02*
G01*
X-11848837Y62965415D01*
X-11677488Y62922494D01*
X-11511170Y62862984D01*
X-11351486Y62787459D01*
X-11199974Y62696646D01*
X-11058092Y62591420D01*
X-10927208Y62472793D01*
X-10808581Y62341909D01*
X-10703355Y62200027D01*
X-10612542Y62048515D01*
X-10537017Y61888831D01*
X-10477507Y61722513D01*
X-10434586Y61551164D01*
X-10408667Y61376432D01*
X-10400000Y61200001D01*
X-10400000Y61199999D01*
X-10408667Y61023568D01*
X-10434586Y60848836D01*
X-10477507Y60677487D01*
X-10537017Y60511169D01*
X-10612542Y60351485D01*
X-10703355Y60199973D01*
X-10808581Y60058091D01*
X-10927208Y59927207D01*
X-11058092Y59808580D01*
X-11199974Y59703354D01*
X-11351486Y59612541D01*
X-11511170Y59537016D01*
X-11677488Y59477506D01*
X-11848837Y59434585D01*
X-12023569Y59408666D01*
X-12200000Y59399999D01*
X-13000000Y59399999D01*
X-13176431Y59408666D01*
X-13351163Y59434585D01*
X-13522512Y59477506D01*
X-13688830Y59537016D01*
X-13848514Y59612541D01*
X-14000026Y59703354D01*
X-14141908Y59808580D01*
X-14272792Y59927207D01*
X-14391419Y60058091D01*
X-14496645Y60199973D01*
X-14587458Y60351485D01*
X-14662983Y60511169D01*
X-14722493Y60677487D01*
X-14765414Y60848836D01*
X-14791333Y61023568D01*
X-14800000Y61199999D01*
X-14800000Y61200001D01*
X-14791333Y61376432D01*
X-14765414Y61551164D01*
X-14722493Y61722513D01*
X-14662983Y61888831D01*
X-14587458Y62048515D01*
X-14496645Y62200027D01*
X-14391419Y62341909D01*
X-14272792Y62472793D01*
X-14141908Y62591420D01*
X-14000026Y62696646D01*
X-13848514Y62787459D01*
X-13688830Y62862984D01*
X-13522512Y62922494D01*
X-13351163Y62965415D01*
X-13176431Y62991334D01*
X-13000000Y63000001D01*
X-12200000Y63000001D01*
X-12023569Y62991334D01*
X-12023569Y62991334D01*
G37*
D12*
X-12600000Y61200000D03*
D11*
G36*
X-12023569Y-59408666D02*
G01*
X-11848837Y-59434585D01*
X-11677488Y-59477506D01*
X-11511170Y-59537016D01*
X-11351486Y-59612541D01*
X-11199974Y-59703354D01*
X-11058092Y-59808580D01*
X-10927208Y-59927207D01*
X-10808581Y-60058091D01*
X-10703355Y-60199973D01*
X-10612542Y-60351485D01*
X-10537017Y-60511169D01*
X-10477507Y-60677487D01*
X-10434586Y-60848836D01*
X-10408667Y-61023568D01*
X-10400000Y-61199999D01*
X-10400000Y-61200001D01*
X-10408667Y-61376432D01*
X-10434586Y-61551164D01*
X-10477507Y-61722513D01*
X-10537017Y-61888831D01*
X-10612542Y-62048515D01*
X-10703355Y-62200027D01*
X-10808581Y-62341909D01*
X-10927208Y-62472793D01*
X-11058092Y-62591420D01*
X-11199974Y-62696646D01*
X-11351486Y-62787459D01*
X-11511170Y-62862984D01*
X-11677488Y-62922494D01*
X-11848837Y-62965415D01*
X-12023569Y-62991334D01*
X-12200000Y-63000001D01*
X-13000000Y-63000001D01*
X-13176431Y-62991334D01*
X-13351163Y-62965415D01*
X-13522512Y-62922494D01*
X-13688830Y-62862984D01*
X-13848514Y-62787459D01*
X-14000026Y-62696646D01*
X-14141908Y-62591420D01*
X-14272792Y-62472793D01*
X-14391419Y-62341909D01*
X-14496645Y-62200027D01*
X-14587458Y-62048515D01*
X-14662983Y-61888831D01*
X-14722493Y-61722513D01*
X-14765414Y-61551164D01*
X-14791333Y-61376432D01*
X-14800000Y-61200001D01*
X-14800000Y-61199999D01*
X-14791333Y-61023568D01*
X-14765414Y-60848836D01*
X-14722493Y-60677487D01*
X-14662983Y-60511169D01*
X-14587458Y-60351485D01*
X-14496645Y-60199973D01*
X-14391419Y-60058091D01*
X-14272792Y-59927207D01*
X-14141908Y-59808580D01*
X-14000026Y-59703354D01*
X-13848514Y-59612541D01*
X-13688830Y-59537016D01*
X-13522512Y-59477506D01*
X-13351163Y-59434585D01*
X-13176431Y-59408666D01*
X-13000000Y-59399999D01*
X-12200000Y-59399999D01*
X-12023569Y-59408666D01*
X-12023569Y-59408666D01*
G37*
D12*
X-12600000Y-61200000D03*
M02*
