G04 #@! TF.GenerationSoftware,KiCad,Pcbnew,(5.1.2)-2*
G04 #@! TF.CreationDate,2019-11-03T14:13:23-08:00*
G04 #@! TF.ProjectId,dac-breakout-ad5689,6461632d-6272-4656-916b-6f75742d6164,rev?*
G04 #@! TF.SameCoordinates,Original*
G04 #@! TF.FileFunction,Copper,L1,Top*
G04 #@! TF.FilePolarity,Positive*
%FSLAX46Y46*%
G04 Gerber Fmt 4.6, Leading zero omitted, Abs format (unit mm)*
G04 Created by KiCad (PCBNEW (5.1.2)-2) date 2019-11-03 14:13:23*
%MOMM*%
%LPD*%
G04 APERTURE LIST*
%ADD10C,0.100000*%
%ADD11O,1.524000X3.048000*%
%ADD12C,1.425000*%
%ADD13R,1.500000X1.000000*%
%ADD14R,1.500000X0.450000*%
%ADD15C,0.500000*%
%ADD16C,0.800000*%
%ADD17C,0.150000*%
%ADD18C,0.254000*%
G04 APERTURE END LIST*
D10*
G36*
X122833799Y-117809000D02*
G01*
X122833799Y-118309000D01*
X123433799Y-118309000D01*
X123433799Y-117809000D01*
X122833799Y-117809000D01*
G37*
G36*
X136124000Y-117961400D02*
G01*
X136124000Y-118461400D01*
X136724000Y-118461400D01*
X136724000Y-117961400D01*
X136124000Y-117961400D01*
G37*
D11*
X138608400Y-132577000D03*
X136068400Y-132323000D03*
X133528400Y-132577000D03*
X130988400Y-132323000D03*
X128448400Y-132577000D03*
X125908400Y-132323000D03*
X123368400Y-132577000D03*
X120828400Y-132323000D03*
D10*
G36*
X128481104Y-117311204D02*
G01*
X128505373Y-117314804D01*
X128529171Y-117320765D01*
X128552271Y-117329030D01*
X128574449Y-117339520D01*
X128595493Y-117352133D01*
X128615198Y-117366747D01*
X128633377Y-117383223D01*
X128649853Y-117401402D01*
X128664467Y-117421107D01*
X128677080Y-117442151D01*
X128687570Y-117464329D01*
X128695835Y-117487429D01*
X128701796Y-117511227D01*
X128705396Y-117535496D01*
X128706600Y-117560000D01*
X128706600Y-118485000D01*
X128705396Y-118509504D01*
X128701796Y-118533773D01*
X128695835Y-118557571D01*
X128687570Y-118580671D01*
X128677080Y-118602849D01*
X128664467Y-118623893D01*
X128649853Y-118643598D01*
X128633377Y-118661777D01*
X128615198Y-118678253D01*
X128595493Y-118692867D01*
X128574449Y-118705480D01*
X128552271Y-118715970D01*
X128529171Y-118724235D01*
X128505373Y-118730196D01*
X128481104Y-118733796D01*
X128456600Y-118735000D01*
X126306600Y-118735000D01*
X126282096Y-118733796D01*
X126257827Y-118730196D01*
X126234029Y-118724235D01*
X126210929Y-118715970D01*
X126188751Y-118705480D01*
X126167707Y-118692867D01*
X126148002Y-118678253D01*
X126129823Y-118661777D01*
X126113347Y-118643598D01*
X126098733Y-118623893D01*
X126086120Y-118602849D01*
X126075630Y-118580671D01*
X126067365Y-118557571D01*
X126061404Y-118533773D01*
X126057804Y-118509504D01*
X126056600Y-118485000D01*
X126056600Y-117560000D01*
X126057804Y-117535496D01*
X126061404Y-117511227D01*
X126067365Y-117487429D01*
X126075630Y-117464329D01*
X126086120Y-117442151D01*
X126098733Y-117421107D01*
X126113347Y-117401402D01*
X126129823Y-117383223D01*
X126148002Y-117366747D01*
X126167707Y-117352133D01*
X126188751Y-117339520D01*
X126210929Y-117329030D01*
X126234029Y-117320765D01*
X126257827Y-117314804D01*
X126282096Y-117311204D01*
X126306600Y-117310000D01*
X128456600Y-117310000D01*
X128481104Y-117311204D01*
X128481104Y-117311204D01*
G37*
D12*
X127381600Y-118022500D03*
D10*
G36*
X128481104Y-114336204D02*
G01*
X128505373Y-114339804D01*
X128529171Y-114345765D01*
X128552271Y-114354030D01*
X128574449Y-114364520D01*
X128595493Y-114377133D01*
X128615198Y-114391747D01*
X128633377Y-114408223D01*
X128649853Y-114426402D01*
X128664467Y-114446107D01*
X128677080Y-114467151D01*
X128687570Y-114489329D01*
X128695835Y-114512429D01*
X128701796Y-114536227D01*
X128705396Y-114560496D01*
X128706600Y-114585000D01*
X128706600Y-115510000D01*
X128705396Y-115534504D01*
X128701796Y-115558773D01*
X128695835Y-115582571D01*
X128687570Y-115605671D01*
X128677080Y-115627849D01*
X128664467Y-115648893D01*
X128649853Y-115668598D01*
X128633377Y-115686777D01*
X128615198Y-115703253D01*
X128595493Y-115717867D01*
X128574449Y-115730480D01*
X128552271Y-115740970D01*
X128529171Y-115749235D01*
X128505373Y-115755196D01*
X128481104Y-115758796D01*
X128456600Y-115760000D01*
X126306600Y-115760000D01*
X126282096Y-115758796D01*
X126257827Y-115755196D01*
X126234029Y-115749235D01*
X126210929Y-115740970D01*
X126188751Y-115730480D01*
X126167707Y-115717867D01*
X126148002Y-115703253D01*
X126129823Y-115686777D01*
X126113347Y-115668598D01*
X126098733Y-115648893D01*
X126086120Y-115627849D01*
X126075630Y-115605671D01*
X126067365Y-115582571D01*
X126061404Y-115558773D01*
X126057804Y-115534504D01*
X126056600Y-115510000D01*
X126056600Y-114585000D01*
X126057804Y-114560496D01*
X126061404Y-114536227D01*
X126067365Y-114512429D01*
X126075630Y-114489329D01*
X126086120Y-114467151D01*
X126098733Y-114446107D01*
X126113347Y-114426402D01*
X126129823Y-114408223D01*
X126148002Y-114391747D01*
X126167707Y-114377133D01*
X126188751Y-114364520D01*
X126210929Y-114354030D01*
X126234029Y-114345765D01*
X126257827Y-114339804D01*
X126282096Y-114336204D01*
X126306600Y-114335000D01*
X128456600Y-114335000D01*
X128481104Y-114336204D01*
X128481104Y-114336204D01*
G37*
D12*
X127381600Y-115047500D03*
D10*
G36*
X133256304Y-114350504D02*
G01*
X133280573Y-114354104D01*
X133304371Y-114360065D01*
X133327471Y-114368330D01*
X133349649Y-114378820D01*
X133370693Y-114391433D01*
X133390398Y-114406047D01*
X133408577Y-114422523D01*
X133425053Y-114440702D01*
X133439667Y-114460407D01*
X133452280Y-114481451D01*
X133462770Y-114503629D01*
X133471035Y-114526729D01*
X133476996Y-114550527D01*
X133480596Y-114574796D01*
X133481800Y-114599300D01*
X133481800Y-115524300D01*
X133480596Y-115548804D01*
X133476996Y-115573073D01*
X133471035Y-115596871D01*
X133462770Y-115619971D01*
X133452280Y-115642149D01*
X133439667Y-115663193D01*
X133425053Y-115682898D01*
X133408577Y-115701077D01*
X133390398Y-115717553D01*
X133370693Y-115732167D01*
X133349649Y-115744780D01*
X133327471Y-115755270D01*
X133304371Y-115763535D01*
X133280573Y-115769496D01*
X133256304Y-115773096D01*
X133231800Y-115774300D01*
X131081800Y-115774300D01*
X131057296Y-115773096D01*
X131033027Y-115769496D01*
X131009229Y-115763535D01*
X130986129Y-115755270D01*
X130963951Y-115744780D01*
X130942907Y-115732167D01*
X130923202Y-115717553D01*
X130905023Y-115701077D01*
X130888547Y-115682898D01*
X130873933Y-115663193D01*
X130861320Y-115642149D01*
X130850830Y-115619971D01*
X130842565Y-115596871D01*
X130836604Y-115573073D01*
X130833004Y-115548804D01*
X130831800Y-115524300D01*
X130831800Y-114599300D01*
X130833004Y-114574796D01*
X130836604Y-114550527D01*
X130842565Y-114526729D01*
X130850830Y-114503629D01*
X130861320Y-114481451D01*
X130873933Y-114460407D01*
X130888547Y-114440702D01*
X130905023Y-114422523D01*
X130923202Y-114406047D01*
X130942907Y-114391433D01*
X130963951Y-114378820D01*
X130986129Y-114368330D01*
X131009229Y-114360065D01*
X131033027Y-114354104D01*
X131057296Y-114350504D01*
X131081800Y-114349300D01*
X133231800Y-114349300D01*
X133256304Y-114350504D01*
X133256304Y-114350504D01*
G37*
D12*
X132156800Y-115061800D03*
D10*
G36*
X133256304Y-117325504D02*
G01*
X133280573Y-117329104D01*
X133304371Y-117335065D01*
X133327471Y-117343330D01*
X133349649Y-117353820D01*
X133370693Y-117366433D01*
X133390398Y-117381047D01*
X133408577Y-117397523D01*
X133425053Y-117415702D01*
X133439667Y-117435407D01*
X133452280Y-117456451D01*
X133462770Y-117478629D01*
X133471035Y-117501729D01*
X133476996Y-117525527D01*
X133480596Y-117549796D01*
X133481800Y-117574300D01*
X133481800Y-118499300D01*
X133480596Y-118523804D01*
X133476996Y-118548073D01*
X133471035Y-118571871D01*
X133462770Y-118594971D01*
X133452280Y-118617149D01*
X133439667Y-118638193D01*
X133425053Y-118657898D01*
X133408577Y-118676077D01*
X133390398Y-118692553D01*
X133370693Y-118707167D01*
X133349649Y-118719780D01*
X133327471Y-118730270D01*
X133304371Y-118738535D01*
X133280573Y-118744496D01*
X133256304Y-118748096D01*
X133231800Y-118749300D01*
X131081800Y-118749300D01*
X131057296Y-118748096D01*
X131033027Y-118744496D01*
X131009229Y-118738535D01*
X130986129Y-118730270D01*
X130963951Y-118719780D01*
X130942907Y-118707167D01*
X130923202Y-118692553D01*
X130905023Y-118676077D01*
X130888547Y-118657898D01*
X130873933Y-118638193D01*
X130861320Y-118617149D01*
X130850830Y-118594971D01*
X130842565Y-118571871D01*
X130836604Y-118548073D01*
X130833004Y-118523804D01*
X130831800Y-118499300D01*
X130831800Y-117574300D01*
X130833004Y-117549796D01*
X130836604Y-117525527D01*
X130842565Y-117501729D01*
X130850830Y-117478629D01*
X130861320Y-117456451D01*
X130873933Y-117435407D01*
X130888547Y-117415702D01*
X130905023Y-117397523D01*
X130923202Y-117381047D01*
X130942907Y-117366433D01*
X130963951Y-117353820D01*
X130986129Y-117343330D01*
X131009229Y-117335065D01*
X131033027Y-117329104D01*
X131057296Y-117325504D01*
X131081800Y-117324300D01*
X133231800Y-117324300D01*
X133256304Y-117325504D01*
X133256304Y-117325504D01*
G37*
D12*
X132156800Y-118036800D03*
D13*
X123133799Y-121014401D03*
X123133799Y-122314401D03*
X136424000Y-121168200D03*
X136424000Y-122468200D03*
D14*
X132668400Y-125820400D03*
X132668400Y-125170400D03*
X132668400Y-124520400D03*
X132668400Y-123870400D03*
X132668400Y-123220400D03*
X132668400Y-122570400D03*
X132668400Y-121920400D03*
X132668400Y-121270400D03*
X126768400Y-121270400D03*
X126768400Y-121920400D03*
X126768400Y-122570400D03*
X126768400Y-123220400D03*
X126768400Y-123870400D03*
X126768400Y-124520400D03*
X126768400Y-125170400D03*
X126768400Y-125820400D03*
D15*
X123133799Y-118709000D03*
D10*
G36*
X123883799Y-118209000D02*
G01*
X123883799Y-118709000D01*
X123883197Y-118709000D01*
X123883197Y-118733534D01*
X123878387Y-118782365D01*
X123868815Y-118830490D01*
X123854571Y-118877445D01*
X123835794Y-118922778D01*
X123812663Y-118966051D01*
X123785403Y-119006850D01*
X123754275Y-119044779D01*
X123719578Y-119079476D01*
X123681649Y-119110604D01*
X123640850Y-119137864D01*
X123597577Y-119160995D01*
X123552244Y-119179772D01*
X123505289Y-119194016D01*
X123457164Y-119203588D01*
X123408333Y-119208398D01*
X123383799Y-119208398D01*
X123383799Y-119209000D01*
X122883799Y-119209000D01*
X122883799Y-119208398D01*
X122859265Y-119208398D01*
X122810434Y-119203588D01*
X122762309Y-119194016D01*
X122715354Y-119179772D01*
X122670021Y-119160995D01*
X122626748Y-119137864D01*
X122585949Y-119110604D01*
X122548020Y-119079476D01*
X122513323Y-119044779D01*
X122482195Y-119006850D01*
X122454935Y-118966051D01*
X122431804Y-118922778D01*
X122413027Y-118877445D01*
X122398783Y-118830490D01*
X122389211Y-118782365D01*
X122384401Y-118733534D01*
X122384401Y-118709000D01*
X122383799Y-118709000D01*
X122383799Y-118209000D01*
X123883799Y-118209000D01*
X123883799Y-118209000D01*
G37*
D15*
X123133799Y-117409000D03*
D10*
G36*
X122384401Y-117409000D02*
G01*
X122384401Y-117384466D01*
X122389211Y-117335635D01*
X122398783Y-117287510D01*
X122413027Y-117240555D01*
X122431804Y-117195222D01*
X122454935Y-117151949D01*
X122482195Y-117111150D01*
X122513323Y-117073221D01*
X122548020Y-117038524D01*
X122585949Y-117007396D01*
X122626748Y-116980136D01*
X122670021Y-116957005D01*
X122715354Y-116938228D01*
X122762309Y-116923984D01*
X122810434Y-116914412D01*
X122859265Y-116909602D01*
X122883799Y-116909602D01*
X122883799Y-116909000D01*
X123383799Y-116909000D01*
X123383799Y-116909602D01*
X123408333Y-116909602D01*
X123457164Y-116914412D01*
X123505289Y-116923984D01*
X123552244Y-116938228D01*
X123597577Y-116957005D01*
X123640850Y-116980136D01*
X123681649Y-117007396D01*
X123719578Y-117038524D01*
X123754275Y-117073221D01*
X123785403Y-117111150D01*
X123812663Y-117151949D01*
X123835794Y-117195222D01*
X123854571Y-117240555D01*
X123868815Y-117287510D01*
X123878387Y-117335635D01*
X123883197Y-117384466D01*
X123883197Y-117409000D01*
X123883799Y-117409000D01*
X123883799Y-117909000D01*
X122383799Y-117909000D01*
X122383799Y-117409000D01*
X122384401Y-117409000D01*
X122384401Y-117409000D01*
G37*
D15*
X136424000Y-117561400D03*
D10*
G36*
X135674602Y-117561400D02*
G01*
X135674602Y-117536866D01*
X135679412Y-117488035D01*
X135688984Y-117439910D01*
X135703228Y-117392955D01*
X135722005Y-117347622D01*
X135745136Y-117304349D01*
X135772396Y-117263550D01*
X135803524Y-117225621D01*
X135838221Y-117190924D01*
X135876150Y-117159796D01*
X135916949Y-117132536D01*
X135960222Y-117109405D01*
X136005555Y-117090628D01*
X136052510Y-117076384D01*
X136100635Y-117066812D01*
X136149466Y-117062002D01*
X136174000Y-117062002D01*
X136174000Y-117061400D01*
X136674000Y-117061400D01*
X136674000Y-117062002D01*
X136698534Y-117062002D01*
X136747365Y-117066812D01*
X136795490Y-117076384D01*
X136842445Y-117090628D01*
X136887778Y-117109405D01*
X136931051Y-117132536D01*
X136971850Y-117159796D01*
X137009779Y-117190924D01*
X137044476Y-117225621D01*
X137075604Y-117263550D01*
X137102864Y-117304349D01*
X137125995Y-117347622D01*
X137144772Y-117392955D01*
X137159016Y-117439910D01*
X137168588Y-117488035D01*
X137173398Y-117536866D01*
X137173398Y-117561400D01*
X137174000Y-117561400D01*
X137174000Y-118061400D01*
X135674000Y-118061400D01*
X135674000Y-117561400D01*
X135674602Y-117561400D01*
X135674602Y-117561400D01*
G37*
D15*
X136424000Y-118861400D03*
D10*
G36*
X137174000Y-118361400D02*
G01*
X137174000Y-118861400D01*
X137173398Y-118861400D01*
X137173398Y-118885934D01*
X137168588Y-118934765D01*
X137159016Y-118982890D01*
X137144772Y-119029845D01*
X137125995Y-119075178D01*
X137102864Y-119118451D01*
X137075604Y-119159250D01*
X137044476Y-119197179D01*
X137009779Y-119231876D01*
X136971850Y-119263004D01*
X136931051Y-119290264D01*
X136887778Y-119313395D01*
X136842445Y-119332172D01*
X136795490Y-119346416D01*
X136747365Y-119355988D01*
X136698534Y-119360798D01*
X136674000Y-119360798D01*
X136674000Y-119361400D01*
X136174000Y-119361400D01*
X136174000Y-119360798D01*
X136149466Y-119360798D01*
X136100635Y-119355988D01*
X136052510Y-119346416D01*
X136005555Y-119332172D01*
X135960222Y-119313395D01*
X135916949Y-119290264D01*
X135876150Y-119263004D01*
X135838221Y-119231876D01*
X135803524Y-119197179D01*
X135772396Y-119159250D01*
X135745136Y-119118451D01*
X135722005Y-119075178D01*
X135703228Y-119029845D01*
X135688984Y-118982890D01*
X135679412Y-118934765D01*
X135674602Y-118885934D01*
X135674602Y-118861400D01*
X135674000Y-118861400D01*
X135674000Y-118361400D01*
X137174000Y-118361400D01*
X137174000Y-118361400D01*
G37*
D16*
X137250000Y-128750000D03*
X134750000Y-122500000D03*
X124750000Y-127500000D03*
X124750000Y-124750000D03*
X127000000Y-126750000D03*
X134500000Y-121000000D03*
D17*
X131768400Y-123220400D02*
X131373590Y-122825590D01*
X132668400Y-123220400D02*
X131768400Y-123220400D01*
X131373590Y-118820010D02*
X132156800Y-118036800D01*
X131373590Y-122825590D02*
X131373590Y-118820010D01*
X127395900Y-118036800D02*
X127381600Y-118022500D01*
X132156800Y-118036800D02*
X127395900Y-118036800D01*
X133528400Y-130028400D02*
X133528400Y-132577000D01*
X131000000Y-127500000D02*
X133528400Y-130028400D01*
X131768400Y-123220400D02*
X131000000Y-123988800D01*
X131000000Y-123988800D02*
X131000000Y-127500000D01*
X127668400Y-122570400D02*
X126768400Y-122570400D01*
X127888400Y-122570400D02*
X127668400Y-122570400D01*
X128018410Y-122700410D02*
X127888400Y-122570400D01*
X128018410Y-124820390D02*
X128018410Y-122700410D01*
X123389798Y-122570400D02*
X123133799Y-122314401D01*
X126768400Y-122570400D02*
X123389798Y-122570400D01*
X127668400Y-125170400D02*
X128018410Y-124820390D01*
X130988400Y-128579200D02*
X127579600Y-125170400D01*
X130988400Y-132323000D02*
X130988400Y-128579200D01*
X127668400Y-125170400D02*
X127579600Y-125170400D01*
X127579600Y-125170400D02*
X126768400Y-125170400D01*
X136392200Y-122500000D02*
X136424000Y-122468200D01*
X134750000Y-122500000D02*
X136392200Y-122500000D01*
X125868400Y-123870400D02*
X126768400Y-123870400D01*
X125908400Y-132323000D02*
X125908400Y-131561000D01*
X125629600Y-123870400D02*
X126768400Y-123870400D01*
X124750000Y-124750000D02*
X125629600Y-123870400D01*
X125908400Y-128658400D02*
X124750000Y-127500000D01*
X125908400Y-132323000D02*
X125908400Y-128658400D01*
X125675001Y-125074001D02*
X125675001Y-124713799D01*
X125675001Y-124713799D02*
X125868400Y-124520400D01*
X123368400Y-127380602D02*
X125675001Y-125074001D01*
X125868400Y-124520400D02*
X126768400Y-124520400D01*
X123368400Y-132577000D02*
X123368400Y-127380602D01*
X125868400Y-123220400D02*
X125970400Y-123220400D01*
X125970400Y-123220400D02*
X126768400Y-123220400D01*
X120828400Y-130649000D02*
X120828400Y-132323000D01*
X125280598Y-123220400D02*
X125970400Y-123220400D01*
X124074999Y-124425999D02*
X125280598Y-123220400D01*
X124074999Y-125093799D02*
X124074999Y-124425999D01*
X120828400Y-128340398D02*
X124074999Y-125093799D01*
X120828400Y-132323000D02*
X120828400Y-128340398D01*
X133568400Y-124520400D02*
X132668400Y-124520400D01*
X135500000Y-126452000D02*
X133568400Y-124520400D01*
X135500000Y-130080600D02*
X135500000Y-126452000D01*
X136068400Y-130649000D02*
X135500000Y-130080600D01*
X136068400Y-132323000D02*
X136068400Y-130649000D01*
X138608400Y-132577000D02*
X138608400Y-130903000D01*
X133568400Y-121920400D02*
X132668400Y-121920400D01*
X134074999Y-122426999D02*
X133568400Y-121920400D01*
X134074999Y-123174999D02*
X134074999Y-122426999D01*
X138608400Y-132577000D02*
X138608400Y-127708400D01*
X138608400Y-127708400D02*
X134074999Y-123174999D01*
X123313600Y-121310200D02*
X123063600Y-121310200D01*
X123578801Y-121014401D02*
X123133799Y-121014401D01*
X124484800Y-121920400D02*
X123578801Y-121014401D01*
X126768400Y-121920400D02*
X124484800Y-121920400D01*
X123133799Y-121014401D02*
X123133799Y-118709000D01*
X136424000Y-120518200D02*
X136424000Y-118861400D01*
X136424000Y-121168200D02*
X136424000Y-120518200D01*
X126768400Y-125820400D02*
X126768400Y-126518400D01*
X126768400Y-126518400D02*
X127000000Y-126750000D01*
X136255800Y-121000000D02*
X136424000Y-121168200D01*
X134500000Y-121000000D02*
X136255800Y-121000000D01*
D18*
G36*
X139922316Y-113644325D02*
G01*
X140085750Y-113693822D01*
X140236404Y-113774204D01*
X140368515Y-113882394D01*
X140477017Y-114014245D01*
X140557762Y-114164714D01*
X140607647Y-114328026D01*
X140625390Y-114504143D01*
X140670598Y-133491676D01*
X140653590Y-133668409D01*
X140604188Y-133832408D01*
X140523698Y-133983589D01*
X140415216Y-134116135D01*
X140282935Y-134224927D01*
X140131944Y-134305779D01*
X139968067Y-134355570D01*
X139791363Y-134373000D01*
X138951249Y-134373000D01*
X139027159Y-134349973D01*
X139216343Y-134248851D01*
X139382165Y-134112765D01*
X139518251Y-133946943D01*
X139619373Y-133757759D01*
X139681643Y-133552481D01*
X139697400Y-133392497D01*
X139697400Y-131761503D01*
X139681643Y-131601519D01*
X139619373Y-131396241D01*
X139518251Y-131207057D01*
X139382165Y-131041235D01*
X139216343Y-130905149D01*
X139027158Y-130804027D01*
X139010400Y-130798944D01*
X139010400Y-127728139D01*
X139012344Y-127708399D01*
X139010400Y-127688660D01*
X139010400Y-127688653D01*
X139004583Y-127629594D01*
X138981597Y-127553817D01*
X138944268Y-127483980D01*
X138894032Y-127422768D01*
X138878696Y-127410182D01*
X134695513Y-123227000D01*
X134821603Y-123227000D01*
X134962058Y-123199062D01*
X135094364Y-123144259D01*
X135213436Y-123064698D01*
X135314698Y-122963436D01*
X135345418Y-122917460D01*
X135345418Y-122968200D01*
X135351732Y-123032303D01*
X135370430Y-123093943D01*
X135400794Y-123150750D01*
X135441657Y-123200543D01*
X135491450Y-123241406D01*
X135548257Y-123271770D01*
X135609897Y-123290468D01*
X135674000Y-123296782D01*
X137174000Y-123296782D01*
X137238103Y-123290468D01*
X137299743Y-123271770D01*
X137356550Y-123241406D01*
X137406343Y-123200543D01*
X137447206Y-123150750D01*
X137477570Y-123093943D01*
X137496268Y-123032303D01*
X137502582Y-122968200D01*
X137502582Y-121968200D01*
X137496268Y-121904097D01*
X137477570Y-121842457D01*
X137464604Y-121818200D01*
X137477570Y-121793943D01*
X137496268Y-121732303D01*
X137502582Y-121668200D01*
X137502582Y-120668200D01*
X137496268Y-120604097D01*
X137477570Y-120542457D01*
X137447206Y-120485650D01*
X137406343Y-120435857D01*
X137356550Y-120394994D01*
X137299743Y-120364630D01*
X137238103Y-120345932D01*
X137174000Y-120339618D01*
X136826000Y-120339618D01*
X136826000Y-119673525D01*
X136883245Y-119662138D01*
X136944883Y-119643441D01*
X137035439Y-119605932D01*
X137092249Y-119575567D01*
X137173748Y-119521111D01*
X137223540Y-119480248D01*
X137292848Y-119410940D01*
X137333711Y-119361148D01*
X137388167Y-119279649D01*
X137418532Y-119222839D01*
X137456041Y-119132283D01*
X137474738Y-119070645D01*
X137493860Y-118974512D01*
X137500174Y-118910409D01*
X137500174Y-118885847D01*
X137502582Y-118861400D01*
X137502582Y-118361400D01*
X137496268Y-118297297D01*
X137477570Y-118235657D01*
X137447206Y-118178850D01*
X137406343Y-118129057D01*
X137356550Y-118088194D01*
X137299743Y-118057830D01*
X137238103Y-118039132D01*
X137174000Y-118032818D01*
X137051000Y-118032818D01*
X137051000Y-117961400D01*
X137047999Y-117930798D01*
X137045208Y-117900126D01*
X137044884Y-117899024D01*
X137044772Y-117897885D01*
X137035872Y-117868407D01*
X137027189Y-117838904D01*
X137026659Y-117837891D01*
X137026327Y-117836790D01*
X137011864Y-117809590D01*
X136997622Y-117782347D01*
X136996903Y-117781453D01*
X136996365Y-117780441D01*
X136976940Y-117756623D01*
X136957633Y-117732610D01*
X136956753Y-117731872D01*
X136956030Y-117730985D01*
X136932342Y-117711389D01*
X136908744Y-117691588D01*
X136907739Y-117691036D01*
X136906856Y-117690305D01*
X136879780Y-117675665D01*
X136852819Y-117660843D01*
X136851727Y-117660497D01*
X136850718Y-117659951D01*
X136821308Y-117650847D01*
X136791987Y-117641546D01*
X136790848Y-117641418D01*
X136789752Y-117641079D01*
X136759135Y-117637861D01*
X136728566Y-117634432D01*
X136726365Y-117634417D01*
X136726283Y-117634408D01*
X136726201Y-117634415D01*
X136724000Y-117634400D01*
X136124000Y-117634400D01*
X136093398Y-117637401D01*
X136062726Y-117640192D01*
X136061624Y-117640516D01*
X136060485Y-117640628D01*
X136031007Y-117649528D01*
X136001504Y-117658211D01*
X136000491Y-117658741D01*
X135999390Y-117659073D01*
X135972190Y-117673536D01*
X135944947Y-117687778D01*
X135944053Y-117688497D01*
X135943041Y-117689035D01*
X135919223Y-117708460D01*
X135895210Y-117727767D01*
X135894472Y-117728647D01*
X135893585Y-117729370D01*
X135873989Y-117753058D01*
X135854188Y-117776656D01*
X135853636Y-117777661D01*
X135852905Y-117778544D01*
X135838265Y-117805620D01*
X135823443Y-117832581D01*
X135823097Y-117833673D01*
X135822551Y-117834682D01*
X135813447Y-117864092D01*
X135804146Y-117893413D01*
X135804018Y-117894552D01*
X135803679Y-117895648D01*
X135800461Y-117926265D01*
X135797032Y-117956834D01*
X135797017Y-117959035D01*
X135797008Y-117959117D01*
X135797015Y-117959199D01*
X135797000Y-117961400D01*
X135797000Y-118032818D01*
X135674000Y-118032818D01*
X135609897Y-118039132D01*
X135548257Y-118057830D01*
X135491450Y-118088194D01*
X135441657Y-118129057D01*
X135400794Y-118178850D01*
X135370430Y-118235657D01*
X135351732Y-118297297D01*
X135345418Y-118361400D01*
X135345418Y-118861400D01*
X135347826Y-118885847D01*
X135347826Y-118910409D01*
X135354140Y-118974512D01*
X135373262Y-119070645D01*
X135391959Y-119132283D01*
X135429468Y-119222839D01*
X135459833Y-119279649D01*
X135514289Y-119361148D01*
X135555152Y-119410940D01*
X135624460Y-119480248D01*
X135674252Y-119521111D01*
X135755751Y-119575567D01*
X135812561Y-119605932D01*
X135903117Y-119643441D01*
X135964755Y-119662138D01*
X136022001Y-119673525D01*
X136022000Y-120339618D01*
X135674000Y-120339618D01*
X135609897Y-120345932D01*
X135548257Y-120364630D01*
X135491450Y-120394994D01*
X135441657Y-120435857D01*
X135400794Y-120485650D01*
X135370430Y-120542457D01*
X135353581Y-120598000D01*
X135105748Y-120598000D01*
X135064698Y-120536564D01*
X134963436Y-120435302D01*
X134844364Y-120355741D01*
X134712058Y-120300938D01*
X134571603Y-120273000D01*
X134428397Y-120273000D01*
X134287942Y-120300938D01*
X134155636Y-120355741D01*
X134036564Y-120435302D01*
X133935302Y-120536564D01*
X133855741Y-120655636D01*
X133800938Y-120787942D01*
X133773000Y-120928397D01*
X133773000Y-121071603D01*
X133800938Y-121212058D01*
X133855741Y-121344364D01*
X133935302Y-121463436D01*
X134036564Y-121564698D01*
X134155636Y-121644259D01*
X134287942Y-121699062D01*
X134428397Y-121727000D01*
X134571603Y-121727000D01*
X134712058Y-121699062D01*
X134844364Y-121644259D01*
X134963436Y-121564698D01*
X135064698Y-121463436D01*
X135105748Y-121402000D01*
X135345418Y-121402000D01*
X135345418Y-121668200D01*
X135351732Y-121732303D01*
X135370430Y-121793943D01*
X135383396Y-121818200D01*
X135370430Y-121842457D01*
X135351732Y-121904097D01*
X135345418Y-121968200D01*
X135345418Y-122082540D01*
X135314698Y-122036564D01*
X135213436Y-121935302D01*
X135094364Y-121855741D01*
X134962058Y-121800938D01*
X134821603Y-121773000D01*
X134678397Y-121773000D01*
X134537942Y-121800938D01*
X134405636Y-121855741D01*
X134286564Y-121935302D01*
X134219190Y-122002676D01*
X133866623Y-121650110D01*
X133854032Y-121634768D01*
X133792820Y-121584532D01*
X133740934Y-121556798D01*
X133746982Y-121495400D01*
X133746982Y-121045400D01*
X133740668Y-120981297D01*
X133721970Y-120919657D01*
X133691606Y-120862850D01*
X133650743Y-120813057D01*
X133600950Y-120772194D01*
X133544143Y-120741830D01*
X133482503Y-120723132D01*
X133418400Y-120716818D01*
X131918400Y-120716818D01*
X131854297Y-120723132D01*
X131792657Y-120741830D01*
X131775590Y-120750953D01*
X131775590Y-119077882D01*
X133231800Y-119077882D01*
X133344676Y-119066765D01*
X133453214Y-119033840D01*
X133553243Y-118980373D01*
X133640919Y-118908419D01*
X133712873Y-118820743D01*
X133766340Y-118720714D01*
X133799265Y-118612176D01*
X133810382Y-118499300D01*
X133810382Y-117574300D01*
X133799265Y-117461424D01*
X133766340Y-117352886D01*
X133712873Y-117252857D01*
X133640919Y-117165181D01*
X133553243Y-117093227D01*
X133453214Y-117039760D01*
X133344676Y-117006835D01*
X133231800Y-116995718D01*
X131081800Y-116995718D01*
X130968924Y-117006835D01*
X130860386Y-117039760D01*
X130760357Y-117093227D01*
X130672681Y-117165181D01*
X130600727Y-117252857D01*
X130547260Y-117352886D01*
X130514335Y-117461424D01*
X130503218Y-117574300D01*
X130503218Y-117634800D01*
X129035182Y-117634800D01*
X129035182Y-117560000D01*
X129024065Y-117447124D01*
X128991140Y-117338586D01*
X128937673Y-117238557D01*
X128865719Y-117150881D01*
X128778043Y-117078927D01*
X128678014Y-117025460D01*
X128569476Y-116992535D01*
X128456600Y-116981418D01*
X126306600Y-116981418D01*
X126193724Y-116992535D01*
X126085186Y-117025460D01*
X125985157Y-117078927D01*
X125897481Y-117150881D01*
X125825527Y-117238557D01*
X125772060Y-117338586D01*
X125739135Y-117447124D01*
X125728018Y-117560000D01*
X125728018Y-118485000D01*
X125739135Y-118597876D01*
X125772060Y-118706414D01*
X125825527Y-118806443D01*
X125897481Y-118894119D01*
X125985157Y-118966073D01*
X126085186Y-119019540D01*
X126193724Y-119052465D01*
X126306600Y-119063582D01*
X128456600Y-119063582D01*
X128569476Y-119052465D01*
X128678014Y-119019540D01*
X128778043Y-118966073D01*
X128865719Y-118894119D01*
X128937673Y-118806443D01*
X128991140Y-118706414D01*
X129024065Y-118597876D01*
X129035182Y-118485000D01*
X129035182Y-118438800D01*
X130503218Y-118438800D01*
X130503218Y-118499300D01*
X130514335Y-118612176D01*
X130547260Y-118720714D01*
X130600727Y-118820743D01*
X130672681Y-118908419D01*
X130760357Y-118980373D01*
X130860386Y-119033840D01*
X130968924Y-119066765D01*
X130971591Y-119067028D01*
X130971590Y-122805851D01*
X130969646Y-122825590D01*
X130971590Y-122845329D01*
X130971590Y-122845336D01*
X130977407Y-122904395D01*
X131000393Y-122980172D01*
X131037722Y-123050009D01*
X131087958Y-123111222D01*
X131103300Y-123123813D01*
X131199887Y-123220400D01*
X130729710Y-123690577D01*
X130714368Y-123703168D01*
X130664132Y-123764381D01*
X130626803Y-123834218D01*
X130603817Y-123909995D01*
X130598000Y-123969054D01*
X130598000Y-123969061D01*
X130596056Y-123988800D01*
X130598000Y-124008539D01*
X130598001Y-127480251D01*
X130596056Y-127500000D01*
X130603817Y-127578805D01*
X130611770Y-127605021D01*
X130624412Y-127646699D01*
X128192513Y-125214800D01*
X128288706Y-125118608D01*
X128304042Y-125106022D01*
X128330321Y-125074002D01*
X128354278Y-125044810D01*
X128391606Y-124974974D01*
X128391607Y-124974973D01*
X128414593Y-124899196D01*
X128420410Y-124840137D01*
X128420410Y-124840130D01*
X128422354Y-124820390D01*
X128420410Y-124800651D01*
X128420410Y-122720149D01*
X128422354Y-122700410D01*
X128420410Y-122680670D01*
X128420410Y-122680663D01*
X128414593Y-122621604D01*
X128391607Y-122545827D01*
X128354278Y-122475990D01*
X128304042Y-122414778D01*
X128288700Y-122402187D01*
X128186623Y-122300110D01*
X128174032Y-122284768D01*
X128112820Y-122234532D01*
X128042983Y-122197203D01*
X127967206Y-122174217D01*
X127908147Y-122168400D01*
X127908139Y-122168400D01*
X127888400Y-122166456D01*
X127868661Y-122168400D01*
X127844717Y-122168400D01*
X127846982Y-122145400D01*
X127846982Y-122040421D01*
X127864966Y-122031150D01*
X127962826Y-121953244D01*
X128043608Y-121857743D01*
X128104206Y-121748318D01*
X128142291Y-121629173D01*
X128153400Y-121527150D01*
X127994650Y-121368400D01*
X127534461Y-121368400D01*
X127518400Y-121366818D01*
X126018400Y-121366818D01*
X126002339Y-121368400D01*
X125542150Y-121368400D01*
X125392150Y-121518400D01*
X124651314Y-121518400D01*
X124212381Y-121079468D01*
X124212381Y-121013650D01*
X125383400Y-121013650D01*
X125542150Y-121172400D01*
X126641400Y-121172400D01*
X126641400Y-120569150D01*
X126895400Y-120569150D01*
X126895400Y-121172400D01*
X127994650Y-121172400D01*
X128153400Y-121013650D01*
X128142291Y-120911627D01*
X128104206Y-120792482D01*
X128043608Y-120683057D01*
X127962826Y-120587556D01*
X127864966Y-120509650D01*
X127753787Y-120452333D01*
X127633562Y-120417807D01*
X127508912Y-120407399D01*
X127054150Y-120410400D01*
X126895400Y-120569150D01*
X126641400Y-120569150D01*
X126482650Y-120410400D01*
X126027888Y-120407399D01*
X125903238Y-120417807D01*
X125783013Y-120452333D01*
X125671834Y-120509650D01*
X125573974Y-120587556D01*
X125493192Y-120683057D01*
X125432594Y-120792482D01*
X125394509Y-120911627D01*
X125383400Y-121013650D01*
X124212381Y-121013650D01*
X124212381Y-120514401D01*
X124206067Y-120450298D01*
X124187369Y-120388658D01*
X124157005Y-120331851D01*
X124116142Y-120282058D01*
X124066349Y-120241195D01*
X124009542Y-120210831D01*
X123947902Y-120192133D01*
X123883799Y-120185819D01*
X123535799Y-120185819D01*
X123535799Y-119521125D01*
X123593044Y-119509738D01*
X123654682Y-119491041D01*
X123745238Y-119453532D01*
X123802048Y-119423167D01*
X123883547Y-119368711D01*
X123933339Y-119327848D01*
X124002647Y-119258540D01*
X124043510Y-119208748D01*
X124097966Y-119127249D01*
X124128331Y-119070439D01*
X124165840Y-118979883D01*
X124184537Y-118918245D01*
X124203659Y-118822112D01*
X124209973Y-118758009D01*
X124209973Y-118733447D01*
X124212381Y-118709000D01*
X124212381Y-118209000D01*
X124206067Y-118144897D01*
X124187369Y-118083257D01*
X124157005Y-118026450D01*
X124116142Y-117976657D01*
X124066349Y-117935794D01*
X124009542Y-117905430D01*
X123947902Y-117886732D01*
X123883799Y-117880418D01*
X123760799Y-117880418D01*
X123760799Y-117809000D01*
X123757798Y-117778398D01*
X123755007Y-117747726D01*
X123754683Y-117746624D01*
X123754571Y-117745485D01*
X123745671Y-117716007D01*
X123736988Y-117686504D01*
X123736458Y-117685491D01*
X123736126Y-117684390D01*
X123721663Y-117657190D01*
X123707421Y-117629947D01*
X123706702Y-117629053D01*
X123706164Y-117628041D01*
X123686739Y-117604223D01*
X123667432Y-117580210D01*
X123666552Y-117579472D01*
X123665829Y-117578585D01*
X123642141Y-117558989D01*
X123618543Y-117539188D01*
X123617538Y-117538636D01*
X123616655Y-117537905D01*
X123589579Y-117523265D01*
X123562618Y-117508443D01*
X123561526Y-117508097D01*
X123560517Y-117507551D01*
X123531107Y-117498447D01*
X123501786Y-117489146D01*
X123500647Y-117489018D01*
X123499551Y-117488679D01*
X123468934Y-117485461D01*
X123438365Y-117482032D01*
X123436164Y-117482017D01*
X123436082Y-117482008D01*
X123436000Y-117482015D01*
X123433799Y-117482000D01*
X122833799Y-117482000D01*
X122803197Y-117485001D01*
X122772525Y-117487792D01*
X122771423Y-117488116D01*
X122770284Y-117488228D01*
X122740806Y-117497128D01*
X122711303Y-117505811D01*
X122710290Y-117506341D01*
X122709189Y-117506673D01*
X122681989Y-117521136D01*
X122654746Y-117535378D01*
X122653852Y-117536097D01*
X122652840Y-117536635D01*
X122629022Y-117556060D01*
X122605009Y-117575367D01*
X122604271Y-117576247D01*
X122603384Y-117576970D01*
X122583788Y-117600658D01*
X122563987Y-117624256D01*
X122563435Y-117625261D01*
X122562704Y-117626144D01*
X122548064Y-117653220D01*
X122533242Y-117680181D01*
X122532896Y-117681273D01*
X122532350Y-117682282D01*
X122523246Y-117711692D01*
X122513945Y-117741013D01*
X122513817Y-117742152D01*
X122513478Y-117743248D01*
X122510260Y-117773865D01*
X122506831Y-117804434D01*
X122506816Y-117806635D01*
X122506807Y-117806717D01*
X122506814Y-117806799D01*
X122506799Y-117809000D01*
X122506799Y-117880418D01*
X122383799Y-117880418D01*
X122319696Y-117886732D01*
X122258056Y-117905430D01*
X122201249Y-117935794D01*
X122151456Y-117976657D01*
X122110593Y-118026450D01*
X122080229Y-118083257D01*
X122061531Y-118144897D01*
X122055217Y-118209000D01*
X122055217Y-118709000D01*
X122057625Y-118733447D01*
X122057625Y-118758009D01*
X122063939Y-118822112D01*
X122083061Y-118918245D01*
X122101758Y-118979883D01*
X122139267Y-119070439D01*
X122169632Y-119127249D01*
X122224088Y-119208748D01*
X122264951Y-119258540D01*
X122334259Y-119327848D01*
X122384051Y-119368711D01*
X122465550Y-119423167D01*
X122522360Y-119453532D01*
X122612916Y-119491041D01*
X122674554Y-119509738D01*
X122731800Y-119521125D01*
X122731799Y-120185819D01*
X122383799Y-120185819D01*
X122319696Y-120192133D01*
X122258056Y-120210831D01*
X122201249Y-120241195D01*
X122151456Y-120282058D01*
X122110593Y-120331851D01*
X122080229Y-120388658D01*
X122061531Y-120450298D01*
X122055217Y-120514401D01*
X122055217Y-121514401D01*
X122061531Y-121578504D01*
X122080229Y-121640144D01*
X122093195Y-121664401D01*
X122080229Y-121688658D01*
X122061531Y-121750298D01*
X122055217Y-121814401D01*
X122055217Y-122814401D01*
X122061531Y-122878504D01*
X122080229Y-122940144D01*
X122110593Y-122996951D01*
X122151456Y-123046744D01*
X122201249Y-123087607D01*
X122258056Y-123117971D01*
X122319696Y-123136669D01*
X122383799Y-123142983D01*
X123883799Y-123142983D01*
X123947902Y-123136669D01*
X124009542Y-123117971D01*
X124066349Y-123087607D01*
X124116142Y-123046744D01*
X124157005Y-122996951D01*
X124170128Y-122972400D01*
X124960084Y-122972400D01*
X123804704Y-124127781D01*
X123789368Y-124140367D01*
X123776782Y-124155703D01*
X123776779Y-124155706D01*
X123773663Y-124159503D01*
X123739132Y-124201579D01*
X123716673Y-124243597D01*
X123701803Y-124271416D01*
X123678816Y-124347194D01*
X123671055Y-124425999D01*
X123673000Y-124445748D01*
X123672999Y-124927286D01*
X120558105Y-128042180D01*
X120542769Y-128054766D01*
X120492533Y-128115978D01*
X120456700Y-128183017D01*
X120455204Y-128185815D01*
X120432217Y-128261593D01*
X120424456Y-128340398D01*
X120426401Y-128360147D01*
X120426400Y-130544943D01*
X120409641Y-130550027D01*
X120220457Y-130651149D01*
X120054635Y-130787235D01*
X119918549Y-130953057D01*
X119817427Y-131142242D01*
X119755157Y-131347520D01*
X119739400Y-131507504D01*
X119739400Y-133138497D01*
X119755157Y-133298481D01*
X119817428Y-133503759D01*
X119918550Y-133692943D01*
X120054636Y-133858765D01*
X120220458Y-133994851D01*
X120409642Y-134095973D01*
X120614920Y-134158243D01*
X120828400Y-134179269D01*
X121041881Y-134158243D01*
X121247159Y-134095973D01*
X121436343Y-133994851D01*
X121602165Y-133858765D01*
X121738251Y-133692943D01*
X121839373Y-133503759D01*
X121901643Y-133298481D01*
X121917400Y-133138497D01*
X121917400Y-131507503D01*
X121901643Y-131347519D01*
X121839373Y-131142241D01*
X121738251Y-130953057D01*
X121602165Y-130787235D01*
X121436343Y-130651149D01*
X121247158Y-130550027D01*
X121230400Y-130544944D01*
X121230400Y-128506911D01*
X124345290Y-125392021D01*
X124360631Y-125379431D01*
X124368710Y-125369586D01*
X124405636Y-125394259D01*
X124537942Y-125449062D01*
X124678397Y-125477000D01*
X124703489Y-125477000D01*
X123098105Y-127082384D01*
X123082769Y-127094970D01*
X123032533Y-127156182D01*
X123008160Y-127201780D01*
X122995204Y-127226019D01*
X122972217Y-127301797D01*
X122964456Y-127380602D01*
X122966401Y-127400351D01*
X122966400Y-130798943D01*
X122949641Y-130804027D01*
X122760457Y-130905149D01*
X122594635Y-131041235D01*
X122458549Y-131207057D01*
X122357427Y-131396242D01*
X122295157Y-131601520D01*
X122279400Y-131761504D01*
X122279400Y-133392497D01*
X122295157Y-133552481D01*
X122357428Y-133757759D01*
X122458550Y-133946943D01*
X122594636Y-134112765D01*
X122760458Y-134248851D01*
X122949642Y-134349973D01*
X123025552Y-134373000D01*
X119756234Y-134373000D01*
X119579811Y-134355624D01*
X119416150Y-134305978D01*
X119265328Y-134225362D01*
X119133130Y-134116870D01*
X119024638Y-133984672D01*
X118944022Y-133833850D01*
X118894376Y-133670189D01*
X118877000Y-133493766D01*
X118877000Y-115760000D01*
X125418528Y-115760000D01*
X125430788Y-115884482D01*
X125467098Y-116004180D01*
X125526063Y-116114494D01*
X125605415Y-116211185D01*
X125702106Y-116290537D01*
X125812420Y-116349502D01*
X125932118Y-116385812D01*
X126056600Y-116398072D01*
X127095850Y-116395000D01*
X127254600Y-116236250D01*
X127254600Y-115174500D01*
X127508600Y-115174500D01*
X127508600Y-116236250D01*
X127667350Y-116395000D01*
X128706600Y-116398072D01*
X128831082Y-116385812D01*
X128950780Y-116349502D01*
X129061094Y-116290537D01*
X129157785Y-116211185D01*
X129237137Y-116114494D01*
X129296102Y-116004180D01*
X129332412Y-115884482D01*
X129343263Y-115774300D01*
X130193728Y-115774300D01*
X130205988Y-115898782D01*
X130242298Y-116018480D01*
X130301263Y-116128794D01*
X130380615Y-116225485D01*
X130477306Y-116304837D01*
X130587620Y-116363802D01*
X130707318Y-116400112D01*
X130831800Y-116412372D01*
X131871050Y-116409300D01*
X132029800Y-116250550D01*
X132029800Y-115188800D01*
X132283800Y-115188800D01*
X132283800Y-116250550D01*
X132442550Y-116409300D01*
X133481800Y-116412372D01*
X133606282Y-116400112D01*
X133725980Y-116363802D01*
X133836294Y-116304837D01*
X133932985Y-116225485D01*
X134012337Y-116128794D01*
X134071302Y-116018480D01*
X134107612Y-115898782D01*
X134119872Y-115774300D01*
X134116800Y-115347550D01*
X133958050Y-115188800D01*
X132283800Y-115188800D01*
X132029800Y-115188800D01*
X130355550Y-115188800D01*
X130196800Y-115347550D01*
X130193728Y-115774300D01*
X129343263Y-115774300D01*
X129344672Y-115760000D01*
X129341600Y-115333250D01*
X129182850Y-115174500D01*
X127508600Y-115174500D01*
X127254600Y-115174500D01*
X125580350Y-115174500D01*
X125421600Y-115333250D01*
X125418528Y-115760000D01*
X118877000Y-115760000D01*
X118877000Y-114506234D01*
X118893864Y-114335000D01*
X125418528Y-114335000D01*
X125421600Y-114761750D01*
X125580350Y-114920500D01*
X127254600Y-114920500D01*
X127254600Y-113858750D01*
X127508600Y-113858750D01*
X127508600Y-114920500D01*
X129182850Y-114920500D01*
X129341600Y-114761750D01*
X129344569Y-114349300D01*
X130193728Y-114349300D01*
X130196800Y-114776050D01*
X130355550Y-114934800D01*
X132029800Y-114934800D01*
X132029800Y-113873050D01*
X132283800Y-113873050D01*
X132283800Y-114934800D01*
X133958050Y-114934800D01*
X134116800Y-114776050D01*
X134119872Y-114349300D01*
X134107612Y-114224818D01*
X134071302Y-114105120D01*
X134012337Y-113994806D01*
X133932985Y-113898115D01*
X133836294Y-113818763D01*
X133725980Y-113759798D01*
X133606282Y-113723488D01*
X133481800Y-113711228D01*
X132442550Y-113714300D01*
X132283800Y-113873050D01*
X132029800Y-113873050D01*
X131871050Y-113714300D01*
X130831800Y-113711228D01*
X130707318Y-113723488D01*
X130587620Y-113759798D01*
X130477306Y-113818763D01*
X130380615Y-113898115D01*
X130301263Y-113994806D01*
X130242298Y-114105120D01*
X130205988Y-114224818D01*
X130193728Y-114349300D01*
X129344569Y-114349300D01*
X129344672Y-114335000D01*
X129332412Y-114210518D01*
X129296102Y-114090820D01*
X129237137Y-113980506D01*
X129157785Y-113883815D01*
X129061094Y-113804463D01*
X128950780Y-113745498D01*
X128831082Y-113709188D01*
X128706600Y-113696928D01*
X127667350Y-113700000D01*
X127508600Y-113858750D01*
X127254600Y-113858750D01*
X127095850Y-113700000D01*
X126056600Y-113696928D01*
X125932118Y-113709188D01*
X125812420Y-113745498D01*
X125702106Y-113804463D01*
X125605415Y-113883815D01*
X125526063Y-113980506D01*
X125467098Y-114090820D01*
X125430788Y-114210518D01*
X125418528Y-114335000D01*
X118893864Y-114335000D01*
X118894376Y-114329811D01*
X118944022Y-114166150D01*
X119024638Y-114015328D01*
X119133130Y-113883130D01*
X119265328Y-113774638D01*
X119416150Y-113694022D01*
X119579811Y-113644376D01*
X119756234Y-113627000D01*
X139746151Y-113627000D01*
X139922316Y-113644325D01*
X139922316Y-113644325D01*
G37*
X139922316Y-113644325D02*
X140085750Y-113693822D01*
X140236404Y-113774204D01*
X140368515Y-113882394D01*
X140477017Y-114014245D01*
X140557762Y-114164714D01*
X140607647Y-114328026D01*
X140625390Y-114504143D01*
X140670598Y-133491676D01*
X140653590Y-133668409D01*
X140604188Y-133832408D01*
X140523698Y-133983589D01*
X140415216Y-134116135D01*
X140282935Y-134224927D01*
X140131944Y-134305779D01*
X139968067Y-134355570D01*
X139791363Y-134373000D01*
X138951249Y-134373000D01*
X139027159Y-134349973D01*
X139216343Y-134248851D01*
X139382165Y-134112765D01*
X139518251Y-133946943D01*
X139619373Y-133757759D01*
X139681643Y-133552481D01*
X139697400Y-133392497D01*
X139697400Y-131761503D01*
X139681643Y-131601519D01*
X139619373Y-131396241D01*
X139518251Y-131207057D01*
X139382165Y-131041235D01*
X139216343Y-130905149D01*
X139027158Y-130804027D01*
X139010400Y-130798944D01*
X139010400Y-127728139D01*
X139012344Y-127708399D01*
X139010400Y-127688660D01*
X139010400Y-127688653D01*
X139004583Y-127629594D01*
X138981597Y-127553817D01*
X138944268Y-127483980D01*
X138894032Y-127422768D01*
X138878696Y-127410182D01*
X134695513Y-123227000D01*
X134821603Y-123227000D01*
X134962058Y-123199062D01*
X135094364Y-123144259D01*
X135213436Y-123064698D01*
X135314698Y-122963436D01*
X135345418Y-122917460D01*
X135345418Y-122968200D01*
X135351732Y-123032303D01*
X135370430Y-123093943D01*
X135400794Y-123150750D01*
X135441657Y-123200543D01*
X135491450Y-123241406D01*
X135548257Y-123271770D01*
X135609897Y-123290468D01*
X135674000Y-123296782D01*
X137174000Y-123296782D01*
X137238103Y-123290468D01*
X137299743Y-123271770D01*
X137356550Y-123241406D01*
X137406343Y-123200543D01*
X137447206Y-123150750D01*
X137477570Y-123093943D01*
X137496268Y-123032303D01*
X137502582Y-122968200D01*
X137502582Y-121968200D01*
X137496268Y-121904097D01*
X137477570Y-121842457D01*
X137464604Y-121818200D01*
X137477570Y-121793943D01*
X137496268Y-121732303D01*
X137502582Y-121668200D01*
X137502582Y-120668200D01*
X137496268Y-120604097D01*
X137477570Y-120542457D01*
X137447206Y-120485650D01*
X137406343Y-120435857D01*
X137356550Y-120394994D01*
X137299743Y-120364630D01*
X137238103Y-120345932D01*
X137174000Y-120339618D01*
X136826000Y-120339618D01*
X136826000Y-119673525D01*
X136883245Y-119662138D01*
X136944883Y-119643441D01*
X137035439Y-119605932D01*
X137092249Y-119575567D01*
X137173748Y-119521111D01*
X137223540Y-119480248D01*
X137292848Y-119410940D01*
X137333711Y-119361148D01*
X137388167Y-119279649D01*
X137418532Y-119222839D01*
X137456041Y-119132283D01*
X137474738Y-119070645D01*
X137493860Y-118974512D01*
X137500174Y-118910409D01*
X137500174Y-118885847D01*
X137502582Y-118861400D01*
X137502582Y-118361400D01*
X137496268Y-118297297D01*
X137477570Y-118235657D01*
X137447206Y-118178850D01*
X137406343Y-118129057D01*
X137356550Y-118088194D01*
X137299743Y-118057830D01*
X137238103Y-118039132D01*
X137174000Y-118032818D01*
X137051000Y-118032818D01*
X137051000Y-117961400D01*
X137047999Y-117930798D01*
X137045208Y-117900126D01*
X137044884Y-117899024D01*
X137044772Y-117897885D01*
X137035872Y-117868407D01*
X137027189Y-117838904D01*
X137026659Y-117837891D01*
X137026327Y-117836790D01*
X137011864Y-117809590D01*
X136997622Y-117782347D01*
X136996903Y-117781453D01*
X136996365Y-117780441D01*
X136976940Y-117756623D01*
X136957633Y-117732610D01*
X136956753Y-117731872D01*
X136956030Y-117730985D01*
X136932342Y-117711389D01*
X136908744Y-117691588D01*
X136907739Y-117691036D01*
X136906856Y-117690305D01*
X136879780Y-117675665D01*
X136852819Y-117660843D01*
X136851727Y-117660497D01*
X136850718Y-117659951D01*
X136821308Y-117650847D01*
X136791987Y-117641546D01*
X136790848Y-117641418D01*
X136789752Y-117641079D01*
X136759135Y-117637861D01*
X136728566Y-117634432D01*
X136726365Y-117634417D01*
X136726283Y-117634408D01*
X136726201Y-117634415D01*
X136724000Y-117634400D01*
X136124000Y-117634400D01*
X136093398Y-117637401D01*
X136062726Y-117640192D01*
X136061624Y-117640516D01*
X136060485Y-117640628D01*
X136031007Y-117649528D01*
X136001504Y-117658211D01*
X136000491Y-117658741D01*
X135999390Y-117659073D01*
X135972190Y-117673536D01*
X135944947Y-117687778D01*
X135944053Y-117688497D01*
X135943041Y-117689035D01*
X135919223Y-117708460D01*
X135895210Y-117727767D01*
X135894472Y-117728647D01*
X135893585Y-117729370D01*
X135873989Y-117753058D01*
X135854188Y-117776656D01*
X135853636Y-117777661D01*
X135852905Y-117778544D01*
X135838265Y-117805620D01*
X135823443Y-117832581D01*
X135823097Y-117833673D01*
X135822551Y-117834682D01*
X135813447Y-117864092D01*
X135804146Y-117893413D01*
X135804018Y-117894552D01*
X135803679Y-117895648D01*
X135800461Y-117926265D01*
X135797032Y-117956834D01*
X135797017Y-117959035D01*
X135797008Y-117959117D01*
X135797015Y-117959199D01*
X135797000Y-117961400D01*
X135797000Y-118032818D01*
X135674000Y-118032818D01*
X135609897Y-118039132D01*
X135548257Y-118057830D01*
X135491450Y-118088194D01*
X135441657Y-118129057D01*
X135400794Y-118178850D01*
X135370430Y-118235657D01*
X135351732Y-118297297D01*
X135345418Y-118361400D01*
X135345418Y-118861400D01*
X135347826Y-118885847D01*
X135347826Y-118910409D01*
X135354140Y-118974512D01*
X135373262Y-119070645D01*
X135391959Y-119132283D01*
X135429468Y-119222839D01*
X135459833Y-119279649D01*
X135514289Y-119361148D01*
X135555152Y-119410940D01*
X135624460Y-119480248D01*
X135674252Y-119521111D01*
X135755751Y-119575567D01*
X135812561Y-119605932D01*
X135903117Y-119643441D01*
X135964755Y-119662138D01*
X136022001Y-119673525D01*
X136022000Y-120339618D01*
X135674000Y-120339618D01*
X135609897Y-120345932D01*
X135548257Y-120364630D01*
X135491450Y-120394994D01*
X135441657Y-120435857D01*
X135400794Y-120485650D01*
X135370430Y-120542457D01*
X135353581Y-120598000D01*
X135105748Y-120598000D01*
X135064698Y-120536564D01*
X134963436Y-120435302D01*
X134844364Y-120355741D01*
X134712058Y-120300938D01*
X134571603Y-120273000D01*
X134428397Y-120273000D01*
X134287942Y-120300938D01*
X134155636Y-120355741D01*
X134036564Y-120435302D01*
X133935302Y-120536564D01*
X133855741Y-120655636D01*
X133800938Y-120787942D01*
X133773000Y-120928397D01*
X133773000Y-121071603D01*
X133800938Y-121212058D01*
X133855741Y-121344364D01*
X133935302Y-121463436D01*
X134036564Y-121564698D01*
X134155636Y-121644259D01*
X134287942Y-121699062D01*
X134428397Y-121727000D01*
X134571603Y-121727000D01*
X134712058Y-121699062D01*
X134844364Y-121644259D01*
X134963436Y-121564698D01*
X135064698Y-121463436D01*
X135105748Y-121402000D01*
X135345418Y-121402000D01*
X135345418Y-121668200D01*
X135351732Y-121732303D01*
X135370430Y-121793943D01*
X135383396Y-121818200D01*
X135370430Y-121842457D01*
X135351732Y-121904097D01*
X135345418Y-121968200D01*
X135345418Y-122082540D01*
X135314698Y-122036564D01*
X135213436Y-121935302D01*
X135094364Y-121855741D01*
X134962058Y-121800938D01*
X134821603Y-121773000D01*
X134678397Y-121773000D01*
X134537942Y-121800938D01*
X134405636Y-121855741D01*
X134286564Y-121935302D01*
X134219190Y-122002676D01*
X133866623Y-121650110D01*
X133854032Y-121634768D01*
X133792820Y-121584532D01*
X133740934Y-121556798D01*
X133746982Y-121495400D01*
X133746982Y-121045400D01*
X133740668Y-120981297D01*
X133721970Y-120919657D01*
X133691606Y-120862850D01*
X133650743Y-120813057D01*
X133600950Y-120772194D01*
X133544143Y-120741830D01*
X133482503Y-120723132D01*
X133418400Y-120716818D01*
X131918400Y-120716818D01*
X131854297Y-120723132D01*
X131792657Y-120741830D01*
X131775590Y-120750953D01*
X131775590Y-119077882D01*
X133231800Y-119077882D01*
X133344676Y-119066765D01*
X133453214Y-119033840D01*
X133553243Y-118980373D01*
X133640919Y-118908419D01*
X133712873Y-118820743D01*
X133766340Y-118720714D01*
X133799265Y-118612176D01*
X133810382Y-118499300D01*
X133810382Y-117574300D01*
X133799265Y-117461424D01*
X133766340Y-117352886D01*
X133712873Y-117252857D01*
X133640919Y-117165181D01*
X133553243Y-117093227D01*
X133453214Y-117039760D01*
X133344676Y-117006835D01*
X133231800Y-116995718D01*
X131081800Y-116995718D01*
X130968924Y-117006835D01*
X130860386Y-117039760D01*
X130760357Y-117093227D01*
X130672681Y-117165181D01*
X130600727Y-117252857D01*
X130547260Y-117352886D01*
X130514335Y-117461424D01*
X130503218Y-117574300D01*
X130503218Y-117634800D01*
X129035182Y-117634800D01*
X129035182Y-117560000D01*
X129024065Y-117447124D01*
X128991140Y-117338586D01*
X128937673Y-117238557D01*
X128865719Y-117150881D01*
X128778043Y-117078927D01*
X128678014Y-117025460D01*
X128569476Y-116992535D01*
X128456600Y-116981418D01*
X126306600Y-116981418D01*
X126193724Y-116992535D01*
X126085186Y-117025460D01*
X125985157Y-117078927D01*
X125897481Y-117150881D01*
X125825527Y-117238557D01*
X125772060Y-117338586D01*
X125739135Y-117447124D01*
X125728018Y-117560000D01*
X125728018Y-118485000D01*
X125739135Y-118597876D01*
X125772060Y-118706414D01*
X125825527Y-118806443D01*
X125897481Y-118894119D01*
X125985157Y-118966073D01*
X126085186Y-119019540D01*
X126193724Y-119052465D01*
X126306600Y-119063582D01*
X128456600Y-119063582D01*
X128569476Y-119052465D01*
X128678014Y-119019540D01*
X128778043Y-118966073D01*
X128865719Y-118894119D01*
X128937673Y-118806443D01*
X128991140Y-118706414D01*
X129024065Y-118597876D01*
X129035182Y-118485000D01*
X129035182Y-118438800D01*
X130503218Y-118438800D01*
X130503218Y-118499300D01*
X130514335Y-118612176D01*
X130547260Y-118720714D01*
X130600727Y-118820743D01*
X130672681Y-118908419D01*
X130760357Y-118980373D01*
X130860386Y-119033840D01*
X130968924Y-119066765D01*
X130971591Y-119067028D01*
X130971590Y-122805851D01*
X130969646Y-122825590D01*
X130971590Y-122845329D01*
X130971590Y-122845336D01*
X130977407Y-122904395D01*
X131000393Y-122980172D01*
X131037722Y-123050009D01*
X131087958Y-123111222D01*
X131103300Y-123123813D01*
X131199887Y-123220400D01*
X130729710Y-123690577D01*
X130714368Y-123703168D01*
X130664132Y-123764381D01*
X130626803Y-123834218D01*
X130603817Y-123909995D01*
X130598000Y-123969054D01*
X130598000Y-123969061D01*
X130596056Y-123988800D01*
X130598000Y-124008539D01*
X130598001Y-127480251D01*
X130596056Y-127500000D01*
X130603817Y-127578805D01*
X130611770Y-127605021D01*
X130624412Y-127646699D01*
X128192513Y-125214800D01*
X128288706Y-125118608D01*
X128304042Y-125106022D01*
X128330321Y-125074002D01*
X128354278Y-125044810D01*
X128391606Y-124974974D01*
X128391607Y-124974973D01*
X128414593Y-124899196D01*
X128420410Y-124840137D01*
X128420410Y-124840130D01*
X128422354Y-124820390D01*
X128420410Y-124800651D01*
X128420410Y-122720149D01*
X128422354Y-122700410D01*
X128420410Y-122680670D01*
X128420410Y-122680663D01*
X128414593Y-122621604D01*
X128391607Y-122545827D01*
X128354278Y-122475990D01*
X128304042Y-122414778D01*
X128288700Y-122402187D01*
X128186623Y-122300110D01*
X128174032Y-122284768D01*
X128112820Y-122234532D01*
X128042983Y-122197203D01*
X127967206Y-122174217D01*
X127908147Y-122168400D01*
X127908139Y-122168400D01*
X127888400Y-122166456D01*
X127868661Y-122168400D01*
X127844717Y-122168400D01*
X127846982Y-122145400D01*
X127846982Y-122040421D01*
X127864966Y-122031150D01*
X127962826Y-121953244D01*
X128043608Y-121857743D01*
X128104206Y-121748318D01*
X128142291Y-121629173D01*
X128153400Y-121527150D01*
X127994650Y-121368400D01*
X127534461Y-121368400D01*
X127518400Y-121366818D01*
X126018400Y-121366818D01*
X126002339Y-121368400D01*
X125542150Y-121368400D01*
X125392150Y-121518400D01*
X124651314Y-121518400D01*
X124212381Y-121079468D01*
X124212381Y-121013650D01*
X125383400Y-121013650D01*
X125542150Y-121172400D01*
X126641400Y-121172400D01*
X126641400Y-120569150D01*
X126895400Y-120569150D01*
X126895400Y-121172400D01*
X127994650Y-121172400D01*
X128153400Y-121013650D01*
X128142291Y-120911627D01*
X128104206Y-120792482D01*
X128043608Y-120683057D01*
X127962826Y-120587556D01*
X127864966Y-120509650D01*
X127753787Y-120452333D01*
X127633562Y-120417807D01*
X127508912Y-120407399D01*
X127054150Y-120410400D01*
X126895400Y-120569150D01*
X126641400Y-120569150D01*
X126482650Y-120410400D01*
X126027888Y-120407399D01*
X125903238Y-120417807D01*
X125783013Y-120452333D01*
X125671834Y-120509650D01*
X125573974Y-120587556D01*
X125493192Y-120683057D01*
X125432594Y-120792482D01*
X125394509Y-120911627D01*
X125383400Y-121013650D01*
X124212381Y-121013650D01*
X124212381Y-120514401D01*
X124206067Y-120450298D01*
X124187369Y-120388658D01*
X124157005Y-120331851D01*
X124116142Y-120282058D01*
X124066349Y-120241195D01*
X124009542Y-120210831D01*
X123947902Y-120192133D01*
X123883799Y-120185819D01*
X123535799Y-120185819D01*
X123535799Y-119521125D01*
X123593044Y-119509738D01*
X123654682Y-119491041D01*
X123745238Y-119453532D01*
X123802048Y-119423167D01*
X123883547Y-119368711D01*
X123933339Y-119327848D01*
X124002647Y-119258540D01*
X124043510Y-119208748D01*
X124097966Y-119127249D01*
X124128331Y-119070439D01*
X124165840Y-118979883D01*
X124184537Y-118918245D01*
X124203659Y-118822112D01*
X124209973Y-118758009D01*
X124209973Y-118733447D01*
X124212381Y-118709000D01*
X124212381Y-118209000D01*
X124206067Y-118144897D01*
X124187369Y-118083257D01*
X124157005Y-118026450D01*
X124116142Y-117976657D01*
X124066349Y-117935794D01*
X124009542Y-117905430D01*
X123947902Y-117886732D01*
X123883799Y-117880418D01*
X123760799Y-117880418D01*
X123760799Y-117809000D01*
X123757798Y-117778398D01*
X123755007Y-117747726D01*
X123754683Y-117746624D01*
X123754571Y-117745485D01*
X123745671Y-117716007D01*
X123736988Y-117686504D01*
X123736458Y-117685491D01*
X123736126Y-117684390D01*
X123721663Y-117657190D01*
X123707421Y-117629947D01*
X123706702Y-117629053D01*
X123706164Y-117628041D01*
X123686739Y-117604223D01*
X123667432Y-117580210D01*
X123666552Y-117579472D01*
X123665829Y-117578585D01*
X123642141Y-117558989D01*
X123618543Y-117539188D01*
X123617538Y-117538636D01*
X123616655Y-117537905D01*
X123589579Y-117523265D01*
X123562618Y-117508443D01*
X123561526Y-117508097D01*
X123560517Y-117507551D01*
X123531107Y-117498447D01*
X123501786Y-117489146D01*
X123500647Y-117489018D01*
X123499551Y-117488679D01*
X123468934Y-117485461D01*
X123438365Y-117482032D01*
X123436164Y-117482017D01*
X123436082Y-117482008D01*
X123436000Y-117482015D01*
X123433799Y-117482000D01*
X122833799Y-117482000D01*
X122803197Y-117485001D01*
X122772525Y-117487792D01*
X122771423Y-117488116D01*
X122770284Y-117488228D01*
X122740806Y-117497128D01*
X122711303Y-117505811D01*
X122710290Y-117506341D01*
X122709189Y-117506673D01*
X122681989Y-117521136D01*
X122654746Y-117535378D01*
X122653852Y-117536097D01*
X122652840Y-117536635D01*
X122629022Y-117556060D01*
X122605009Y-117575367D01*
X122604271Y-117576247D01*
X122603384Y-117576970D01*
X122583788Y-117600658D01*
X122563987Y-117624256D01*
X122563435Y-117625261D01*
X122562704Y-117626144D01*
X122548064Y-117653220D01*
X122533242Y-117680181D01*
X122532896Y-117681273D01*
X122532350Y-117682282D01*
X122523246Y-117711692D01*
X122513945Y-117741013D01*
X122513817Y-117742152D01*
X122513478Y-117743248D01*
X122510260Y-117773865D01*
X122506831Y-117804434D01*
X122506816Y-117806635D01*
X122506807Y-117806717D01*
X122506814Y-117806799D01*
X122506799Y-117809000D01*
X122506799Y-117880418D01*
X122383799Y-117880418D01*
X122319696Y-117886732D01*
X122258056Y-117905430D01*
X122201249Y-117935794D01*
X122151456Y-117976657D01*
X122110593Y-118026450D01*
X122080229Y-118083257D01*
X122061531Y-118144897D01*
X122055217Y-118209000D01*
X122055217Y-118709000D01*
X122057625Y-118733447D01*
X122057625Y-118758009D01*
X122063939Y-118822112D01*
X122083061Y-118918245D01*
X122101758Y-118979883D01*
X122139267Y-119070439D01*
X122169632Y-119127249D01*
X122224088Y-119208748D01*
X122264951Y-119258540D01*
X122334259Y-119327848D01*
X122384051Y-119368711D01*
X122465550Y-119423167D01*
X122522360Y-119453532D01*
X122612916Y-119491041D01*
X122674554Y-119509738D01*
X122731800Y-119521125D01*
X122731799Y-120185819D01*
X122383799Y-120185819D01*
X122319696Y-120192133D01*
X122258056Y-120210831D01*
X122201249Y-120241195D01*
X122151456Y-120282058D01*
X122110593Y-120331851D01*
X122080229Y-120388658D01*
X122061531Y-120450298D01*
X122055217Y-120514401D01*
X122055217Y-121514401D01*
X122061531Y-121578504D01*
X122080229Y-121640144D01*
X122093195Y-121664401D01*
X122080229Y-121688658D01*
X122061531Y-121750298D01*
X122055217Y-121814401D01*
X122055217Y-122814401D01*
X122061531Y-122878504D01*
X122080229Y-122940144D01*
X122110593Y-122996951D01*
X122151456Y-123046744D01*
X122201249Y-123087607D01*
X122258056Y-123117971D01*
X122319696Y-123136669D01*
X122383799Y-123142983D01*
X123883799Y-123142983D01*
X123947902Y-123136669D01*
X124009542Y-123117971D01*
X124066349Y-123087607D01*
X124116142Y-123046744D01*
X124157005Y-122996951D01*
X124170128Y-122972400D01*
X124960084Y-122972400D01*
X123804704Y-124127781D01*
X123789368Y-124140367D01*
X123776782Y-124155703D01*
X123776779Y-124155706D01*
X123773663Y-124159503D01*
X123739132Y-124201579D01*
X123716673Y-124243597D01*
X123701803Y-124271416D01*
X123678816Y-124347194D01*
X123671055Y-124425999D01*
X123673000Y-124445748D01*
X123672999Y-124927286D01*
X120558105Y-128042180D01*
X120542769Y-128054766D01*
X120492533Y-128115978D01*
X120456700Y-128183017D01*
X120455204Y-128185815D01*
X120432217Y-128261593D01*
X120424456Y-128340398D01*
X120426401Y-128360147D01*
X120426400Y-130544943D01*
X120409641Y-130550027D01*
X120220457Y-130651149D01*
X120054635Y-130787235D01*
X119918549Y-130953057D01*
X119817427Y-131142242D01*
X119755157Y-131347520D01*
X119739400Y-131507504D01*
X119739400Y-133138497D01*
X119755157Y-133298481D01*
X119817428Y-133503759D01*
X119918550Y-133692943D01*
X120054636Y-133858765D01*
X120220458Y-133994851D01*
X120409642Y-134095973D01*
X120614920Y-134158243D01*
X120828400Y-134179269D01*
X121041881Y-134158243D01*
X121247159Y-134095973D01*
X121436343Y-133994851D01*
X121602165Y-133858765D01*
X121738251Y-133692943D01*
X121839373Y-133503759D01*
X121901643Y-133298481D01*
X121917400Y-133138497D01*
X121917400Y-131507503D01*
X121901643Y-131347519D01*
X121839373Y-131142241D01*
X121738251Y-130953057D01*
X121602165Y-130787235D01*
X121436343Y-130651149D01*
X121247158Y-130550027D01*
X121230400Y-130544944D01*
X121230400Y-128506911D01*
X124345290Y-125392021D01*
X124360631Y-125379431D01*
X124368710Y-125369586D01*
X124405636Y-125394259D01*
X124537942Y-125449062D01*
X124678397Y-125477000D01*
X124703489Y-125477000D01*
X123098105Y-127082384D01*
X123082769Y-127094970D01*
X123032533Y-127156182D01*
X123008160Y-127201780D01*
X122995204Y-127226019D01*
X122972217Y-127301797D01*
X122964456Y-127380602D01*
X122966401Y-127400351D01*
X122966400Y-130798943D01*
X122949641Y-130804027D01*
X122760457Y-130905149D01*
X122594635Y-131041235D01*
X122458549Y-131207057D01*
X122357427Y-131396242D01*
X122295157Y-131601520D01*
X122279400Y-131761504D01*
X122279400Y-133392497D01*
X122295157Y-133552481D01*
X122357428Y-133757759D01*
X122458550Y-133946943D01*
X122594636Y-134112765D01*
X122760458Y-134248851D01*
X122949642Y-134349973D01*
X123025552Y-134373000D01*
X119756234Y-134373000D01*
X119579811Y-134355624D01*
X119416150Y-134305978D01*
X119265328Y-134225362D01*
X119133130Y-134116870D01*
X119024638Y-133984672D01*
X118944022Y-133833850D01*
X118894376Y-133670189D01*
X118877000Y-133493766D01*
X118877000Y-115760000D01*
X125418528Y-115760000D01*
X125430788Y-115884482D01*
X125467098Y-116004180D01*
X125526063Y-116114494D01*
X125605415Y-116211185D01*
X125702106Y-116290537D01*
X125812420Y-116349502D01*
X125932118Y-116385812D01*
X126056600Y-116398072D01*
X127095850Y-116395000D01*
X127254600Y-116236250D01*
X127254600Y-115174500D01*
X127508600Y-115174500D01*
X127508600Y-116236250D01*
X127667350Y-116395000D01*
X128706600Y-116398072D01*
X128831082Y-116385812D01*
X128950780Y-116349502D01*
X129061094Y-116290537D01*
X129157785Y-116211185D01*
X129237137Y-116114494D01*
X129296102Y-116004180D01*
X129332412Y-115884482D01*
X129343263Y-115774300D01*
X130193728Y-115774300D01*
X130205988Y-115898782D01*
X130242298Y-116018480D01*
X130301263Y-116128794D01*
X130380615Y-116225485D01*
X130477306Y-116304837D01*
X130587620Y-116363802D01*
X130707318Y-116400112D01*
X130831800Y-116412372D01*
X131871050Y-116409300D01*
X132029800Y-116250550D01*
X132029800Y-115188800D01*
X132283800Y-115188800D01*
X132283800Y-116250550D01*
X132442550Y-116409300D01*
X133481800Y-116412372D01*
X133606282Y-116400112D01*
X133725980Y-116363802D01*
X133836294Y-116304837D01*
X133932985Y-116225485D01*
X134012337Y-116128794D01*
X134071302Y-116018480D01*
X134107612Y-115898782D01*
X134119872Y-115774300D01*
X134116800Y-115347550D01*
X133958050Y-115188800D01*
X132283800Y-115188800D01*
X132029800Y-115188800D01*
X130355550Y-115188800D01*
X130196800Y-115347550D01*
X130193728Y-115774300D01*
X129343263Y-115774300D01*
X129344672Y-115760000D01*
X129341600Y-115333250D01*
X129182850Y-115174500D01*
X127508600Y-115174500D01*
X127254600Y-115174500D01*
X125580350Y-115174500D01*
X125421600Y-115333250D01*
X125418528Y-115760000D01*
X118877000Y-115760000D01*
X118877000Y-114506234D01*
X118893864Y-114335000D01*
X125418528Y-114335000D01*
X125421600Y-114761750D01*
X125580350Y-114920500D01*
X127254600Y-114920500D01*
X127254600Y-113858750D01*
X127508600Y-113858750D01*
X127508600Y-114920500D01*
X129182850Y-114920500D01*
X129341600Y-114761750D01*
X129344569Y-114349300D01*
X130193728Y-114349300D01*
X130196800Y-114776050D01*
X130355550Y-114934800D01*
X132029800Y-114934800D01*
X132029800Y-113873050D01*
X132283800Y-113873050D01*
X132283800Y-114934800D01*
X133958050Y-114934800D01*
X134116800Y-114776050D01*
X134119872Y-114349300D01*
X134107612Y-114224818D01*
X134071302Y-114105120D01*
X134012337Y-113994806D01*
X133932985Y-113898115D01*
X133836294Y-113818763D01*
X133725980Y-113759798D01*
X133606282Y-113723488D01*
X133481800Y-113711228D01*
X132442550Y-113714300D01*
X132283800Y-113873050D01*
X132029800Y-113873050D01*
X131871050Y-113714300D01*
X130831800Y-113711228D01*
X130707318Y-113723488D01*
X130587620Y-113759798D01*
X130477306Y-113818763D01*
X130380615Y-113898115D01*
X130301263Y-113994806D01*
X130242298Y-114105120D01*
X130205988Y-114224818D01*
X130193728Y-114349300D01*
X129344569Y-114349300D01*
X129344672Y-114335000D01*
X129332412Y-114210518D01*
X129296102Y-114090820D01*
X129237137Y-113980506D01*
X129157785Y-113883815D01*
X129061094Y-113804463D01*
X128950780Y-113745498D01*
X128831082Y-113709188D01*
X128706600Y-113696928D01*
X127667350Y-113700000D01*
X127508600Y-113858750D01*
X127254600Y-113858750D01*
X127095850Y-113700000D01*
X126056600Y-113696928D01*
X125932118Y-113709188D01*
X125812420Y-113745498D01*
X125702106Y-113804463D01*
X125605415Y-113883815D01*
X125526063Y-113980506D01*
X125467098Y-114090820D01*
X125430788Y-114210518D01*
X125418528Y-114335000D01*
X118893864Y-114335000D01*
X118894376Y-114329811D01*
X118944022Y-114166150D01*
X119024638Y-114015328D01*
X119133130Y-113883130D01*
X119265328Y-113774638D01*
X119416150Y-113694022D01*
X119579811Y-113644376D01*
X119756234Y-113627000D01*
X139746151Y-113627000D01*
X139922316Y-113644325D01*
G36*
X138206401Y-127874915D02*
G01*
X138206400Y-130798943D01*
X138189641Y-130804027D01*
X138000457Y-130905149D01*
X137834635Y-131041235D01*
X137698549Y-131207057D01*
X137597427Y-131396242D01*
X137535157Y-131601520D01*
X137519400Y-131761504D01*
X137519400Y-133392497D01*
X137535157Y-133552481D01*
X137597428Y-133757759D01*
X137698550Y-133946943D01*
X137834636Y-134112765D01*
X138000458Y-134248851D01*
X138189642Y-134349973D01*
X138265552Y-134373000D01*
X133871249Y-134373000D01*
X133947159Y-134349973D01*
X134136343Y-134248851D01*
X134302165Y-134112765D01*
X134438251Y-133946943D01*
X134539373Y-133757759D01*
X134601643Y-133552481D01*
X134617400Y-133392497D01*
X134617400Y-131761503D01*
X134601643Y-131601519D01*
X134539373Y-131396241D01*
X134438251Y-131207057D01*
X134302165Y-131041235D01*
X134136343Y-130905149D01*
X133947158Y-130804027D01*
X133930400Y-130798944D01*
X133930400Y-130048139D01*
X133932344Y-130028400D01*
X133930400Y-130008660D01*
X133930400Y-130008653D01*
X133924583Y-129949594D01*
X133917431Y-129926017D01*
X133901597Y-129873816D01*
X133864268Y-129803980D01*
X133826620Y-129758106D01*
X133826618Y-129758104D01*
X133814032Y-129742768D01*
X133798697Y-129730183D01*
X131402000Y-127333487D01*
X131402000Y-124468156D01*
X131473974Y-124553244D01*
X131571834Y-124631150D01*
X131589818Y-124640421D01*
X131589818Y-124745400D01*
X131596132Y-124809503D01*
X131607021Y-124845400D01*
X131596132Y-124881297D01*
X131589818Y-124945400D01*
X131589818Y-125395400D01*
X131596132Y-125459503D01*
X131607021Y-125495400D01*
X131596132Y-125531297D01*
X131589818Y-125595400D01*
X131589818Y-126045400D01*
X131596132Y-126109503D01*
X131614830Y-126171143D01*
X131645194Y-126227950D01*
X131686057Y-126277743D01*
X131735850Y-126318606D01*
X131792657Y-126348970D01*
X131854297Y-126367668D01*
X131918400Y-126373982D01*
X133418400Y-126373982D01*
X133482503Y-126367668D01*
X133544143Y-126348970D01*
X133600950Y-126318606D01*
X133650743Y-126277743D01*
X133691606Y-126227950D01*
X133721970Y-126171143D01*
X133740668Y-126109503D01*
X133746982Y-126045400D01*
X133746982Y-125595400D01*
X133740668Y-125531297D01*
X133729779Y-125495400D01*
X133740668Y-125459503D01*
X133746982Y-125395400D01*
X133746982Y-125267495D01*
X135098001Y-126618515D01*
X135098000Y-130060861D01*
X135096056Y-130080600D01*
X135098000Y-130100339D01*
X135098000Y-130100346D01*
X135103817Y-130159405D01*
X135126803Y-130235182D01*
X135164132Y-130305019D01*
X135214368Y-130366232D01*
X135229710Y-130378823D01*
X135487553Y-130636666D01*
X135460457Y-130651149D01*
X135294635Y-130787235D01*
X135158549Y-130953057D01*
X135057427Y-131142242D01*
X134995157Y-131347520D01*
X134979400Y-131507504D01*
X134979400Y-133138497D01*
X134995157Y-133298481D01*
X135057428Y-133503759D01*
X135158550Y-133692943D01*
X135294636Y-133858765D01*
X135460458Y-133994851D01*
X135649642Y-134095973D01*
X135854920Y-134158243D01*
X136068400Y-134179269D01*
X136281881Y-134158243D01*
X136487159Y-134095973D01*
X136676343Y-133994851D01*
X136842165Y-133858765D01*
X136978251Y-133692943D01*
X137079373Y-133503759D01*
X137141643Y-133298481D01*
X137157400Y-133138497D01*
X137157400Y-131507503D01*
X137141643Y-131347519D01*
X137079373Y-131142241D01*
X136978251Y-130953057D01*
X136842165Y-130787235D01*
X136676343Y-130651149D01*
X136487158Y-130550027D01*
X136455558Y-130540441D01*
X136441597Y-130494417D01*
X136404268Y-130424580D01*
X136354032Y-130363368D01*
X136338695Y-130350781D01*
X135902000Y-129914087D01*
X135902000Y-126471739D01*
X135903944Y-126452000D01*
X135902000Y-126432260D01*
X135902000Y-126432253D01*
X135896183Y-126373194D01*
X135873197Y-126297417D01*
X135835868Y-126227580D01*
X135801171Y-126185302D01*
X135798220Y-126181706D01*
X135798218Y-126181704D01*
X135785632Y-126166368D01*
X135770295Y-126153781D01*
X133990172Y-124373659D01*
X134004206Y-124348318D01*
X134042291Y-124229173D01*
X134053400Y-124127150D01*
X133894650Y-123968400D01*
X133434461Y-123968400D01*
X133418400Y-123966818D01*
X132521400Y-123966818D01*
X132521400Y-123773982D01*
X133418400Y-123773982D01*
X133434461Y-123772400D01*
X133894650Y-123772400D01*
X133999268Y-123667782D01*
X138206401Y-127874915D01*
X138206401Y-127874915D01*
G37*
X138206401Y-127874915D02*
X138206400Y-130798943D01*
X138189641Y-130804027D01*
X138000457Y-130905149D01*
X137834635Y-131041235D01*
X137698549Y-131207057D01*
X137597427Y-131396242D01*
X137535157Y-131601520D01*
X137519400Y-131761504D01*
X137519400Y-133392497D01*
X137535157Y-133552481D01*
X137597428Y-133757759D01*
X137698550Y-133946943D01*
X137834636Y-134112765D01*
X138000458Y-134248851D01*
X138189642Y-134349973D01*
X138265552Y-134373000D01*
X133871249Y-134373000D01*
X133947159Y-134349973D01*
X134136343Y-134248851D01*
X134302165Y-134112765D01*
X134438251Y-133946943D01*
X134539373Y-133757759D01*
X134601643Y-133552481D01*
X134617400Y-133392497D01*
X134617400Y-131761503D01*
X134601643Y-131601519D01*
X134539373Y-131396241D01*
X134438251Y-131207057D01*
X134302165Y-131041235D01*
X134136343Y-130905149D01*
X133947158Y-130804027D01*
X133930400Y-130798944D01*
X133930400Y-130048139D01*
X133932344Y-130028400D01*
X133930400Y-130008660D01*
X133930400Y-130008653D01*
X133924583Y-129949594D01*
X133917431Y-129926017D01*
X133901597Y-129873816D01*
X133864268Y-129803980D01*
X133826620Y-129758106D01*
X133826618Y-129758104D01*
X133814032Y-129742768D01*
X133798697Y-129730183D01*
X131402000Y-127333487D01*
X131402000Y-124468156D01*
X131473974Y-124553244D01*
X131571834Y-124631150D01*
X131589818Y-124640421D01*
X131589818Y-124745400D01*
X131596132Y-124809503D01*
X131607021Y-124845400D01*
X131596132Y-124881297D01*
X131589818Y-124945400D01*
X131589818Y-125395400D01*
X131596132Y-125459503D01*
X131607021Y-125495400D01*
X131596132Y-125531297D01*
X131589818Y-125595400D01*
X131589818Y-126045400D01*
X131596132Y-126109503D01*
X131614830Y-126171143D01*
X131645194Y-126227950D01*
X131686057Y-126277743D01*
X131735850Y-126318606D01*
X131792657Y-126348970D01*
X131854297Y-126367668D01*
X131918400Y-126373982D01*
X133418400Y-126373982D01*
X133482503Y-126367668D01*
X133544143Y-126348970D01*
X133600950Y-126318606D01*
X133650743Y-126277743D01*
X133691606Y-126227950D01*
X133721970Y-126171143D01*
X133740668Y-126109503D01*
X133746982Y-126045400D01*
X133746982Y-125595400D01*
X133740668Y-125531297D01*
X133729779Y-125495400D01*
X133740668Y-125459503D01*
X133746982Y-125395400D01*
X133746982Y-125267495D01*
X135098001Y-126618515D01*
X135098000Y-130060861D01*
X135096056Y-130080600D01*
X135098000Y-130100339D01*
X135098000Y-130100346D01*
X135103817Y-130159405D01*
X135126803Y-130235182D01*
X135164132Y-130305019D01*
X135214368Y-130366232D01*
X135229710Y-130378823D01*
X135487553Y-130636666D01*
X135460457Y-130651149D01*
X135294635Y-130787235D01*
X135158549Y-130953057D01*
X135057427Y-131142242D01*
X134995157Y-131347520D01*
X134979400Y-131507504D01*
X134979400Y-133138497D01*
X134995157Y-133298481D01*
X135057428Y-133503759D01*
X135158550Y-133692943D01*
X135294636Y-133858765D01*
X135460458Y-133994851D01*
X135649642Y-134095973D01*
X135854920Y-134158243D01*
X136068400Y-134179269D01*
X136281881Y-134158243D01*
X136487159Y-134095973D01*
X136676343Y-133994851D01*
X136842165Y-133858765D01*
X136978251Y-133692943D01*
X137079373Y-133503759D01*
X137141643Y-133298481D01*
X137157400Y-133138497D01*
X137157400Y-131507503D01*
X137141643Y-131347519D01*
X137079373Y-131142241D01*
X136978251Y-130953057D01*
X136842165Y-130787235D01*
X136676343Y-130651149D01*
X136487158Y-130550027D01*
X136455558Y-130540441D01*
X136441597Y-130494417D01*
X136404268Y-130424580D01*
X136354032Y-130363368D01*
X136338695Y-130350781D01*
X135902000Y-129914087D01*
X135902000Y-126471739D01*
X135903944Y-126452000D01*
X135902000Y-126432260D01*
X135902000Y-126432253D01*
X135896183Y-126373194D01*
X135873197Y-126297417D01*
X135835868Y-126227580D01*
X135801171Y-126185302D01*
X135798220Y-126181706D01*
X135798218Y-126181704D01*
X135785632Y-126166368D01*
X135770295Y-126153781D01*
X133990172Y-124373659D01*
X134004206Y-124348318D01*
X134042291Y-124229173D01*
X134053400Y-124127150D01*
X133894650Y-123968400D01*
X133434461Y-123968400D01*
X133418400Y-123966818D01*
X132521400Y-123966818D01*
X132521400Y-123773982D01*
X133418400Y-123773982D01*
X133434461Y-123772400D01*
X133894650Y-123772400D01*
X133999268Y-123667782D01*
X138206401Y-127874915D01*
G36*
X125689818Y-126045400D02*
G01*
X125696132Y-126109503D01*
X125714830Y-126171143D01*
X125745194Y-126227950D01*
X125786057Y-126277743D01*
X125835850Y-126318606D01*
X125892657Y-126348970D01*
X125954297Y-126367668D01*
X126018400Y-126373982D01*
X126366401Y-126373982D01*
X126366401Y-126389682D01*
X126355741Y-126405636D01*
X126300938Y-126537942D01*
X126273000Y-126678397D01*
X126273000Y-126821603D01*
X126300938Y-126962058D01*
X126355741Y-127094364D01*
X126435302Y-127213436D01*
X126536564Y-127314698D01*
X126655636Y-127394259D01*
X126787942Y-127449062D01*
X126928397Y-127477000D01*
X127071603Y-127477000D01*
X127212058Y-127449062D01*
X127344364Y-127394259D01*
X127463436Y-127314698D01*
X127564698Y-127213436D01*
X127644259Y-127094364D01*
X127699062Y-126962058D01*
X127727000Y-126821603D01*
X127727000Y-126678397D01*
X127699062Y-126537942D01*
X127644259Y-126405636D01*
X127612758Y-126358491D01*
X127644143Y-126348970D01*
X127700950Y-126318606D01*
X127750743Y-126277743D01*
X127791606Y-126227950D01*
X127821970Y-126171143D01*
X127840668Y-126109503D01*
X127846982Y-126045400D01*
X127846982Y-126006295D01*
X130586401Y-128745715D01*
X130586400Y-130544943D01*
X130569641Y-130550027D01*
X130380457Y-130651149D01*
X130214635Y-130787235D01*
X130078549Y-130953057D01*
X129977427Y-131142242D01*
X129915157Y-131347520D01*
X129899400Y-131507504D01*
X129899400Y-133138497D01*
X129915157Y-133298481D01*
X129977428Y-133503759D01*
X130078550Y-133692943D01*
X130214636Y-133858765D01*
X130380458Y-133994851D01*
X130569642Y-134095973D01*
X130774920Y-134158243D01*
X130988400Y-134179269D01*
X131201881Y-134158243D01*
X131407159Y-134095973D01*
X131596343Y-133994851D01*
X131762165Y-133858765D01*
X131898251Y-133692943D01*
X131999373Y-133503759D01*
X132061643Y-133298481D01*
X132077400Y-133138497D01*
X132077400Y-131507503D01*
X132061643Y-131347519D01*
X131999373Y-131142241D01*
X131898251Y-130953057D01*
X131762165Y-130787235D01*
X131596343Y-130651149D01*
X131407158Y-130550027D01*
X131390400Y-130544944D01*
X131390400Y-128598939D01*
X131392344Y-128579199D01*
X131390400Y-128559460D01*
X131390400Y-128559453D01*
X131384583Y-128500394D01*
X131363989Y-128432502D01*
X133126400Y-130194914D01*
X133126400Y-130798943D01*
X133109641Y-130804027D01*
X132920457Y-130905149D01*
X132754635Y-131041235D01*
X132618549Y-131207057D01*
X132517427Y-131396242D01*
X132455157Y-131601520D01*
X132439400Y-131761504D01*
X132439400Y-133392497D01*
X132455157Y-133552481D01*
X132517428Y-133757759D01*
X132618550Y-133946943D01*
X132754636Y-134112765D01*
X132920458Y-134248851D01*
X133109642Y-134349973D01*
X133185552Y-134373000D01*
X129389407Y-134373000D01*
X129539406Y-134220729D01*
X129690459Y-133990942D01*
X129793781Y-133736101D01*
X129845400Y-133466000D01*
X129845400Y-132704000D01*
X128575400Y-132704000D01*
X128575400Y-132724000D01*
X128321400Y-132724000D01*
X128321400Y-132704000D01*
X127051400Y-132704000D01*
X127051400Y-133466000D01*
X127103019Y-133736101D01*
X127206341Y-133990942D01*
X127357394Y-134220729D01*
X127507393Y-134373000D01*
X123711249Y-134373000D01*
X123787159Y-134349973D01*
X123976343Y-134248851D01*
X124142165Y-134112765D01*
X124278251Y-133946943D01*
X124379373Y-133757759D01*
X124441643Y-133552481D01*
X124457400Y-133392497D01*
X124457400Y-131761503D01*
X124441643Y-131601519D01*
X124379373Y-131396241D01*
X124278251Y-131207057D01*
X124142165Y-131041235D01*
X123976343Y-130905149D01*
X123787158Y-130804027D01*
X123770400Y-130798944D01*
X123770400Y-127547115D01*
X124066045Y-127251470D01*
X124050938Y-127287942D01*
X124023000Y-127428397D01*
X124023000Y-127571603D01*
X124050938Y-127712058D01*
X124105741Y-127844364D01*
X124185302Y-127963436D01*
X124286564Y-128064698D01*
X124405636Y-128144259D01*
X124537942Y-128199062D01*
X124678397Y-128227000D01*
X124821603Y-128227000D01*
X124894072Y-128212585D01*
X125506401Y-128824915D01*
X125506400Y-130544943D01*
X125489641Y-130550027D01*
X125300457Y-130651149D01*
X125134635Y-130787235D01*
X124998549Y-130953057D01*
X124897427Y-131142242D01*
X124835157Y-131347520D01*
X124819400Y-131507504D01*
X124819400Y-133138497D01*
X124835157Y-133298481D01*
X124897428Y-133503759D01*
X124998550Y-133692943D01*
X125134636Y-133858765D01*
X125300458Y-133994851D01*
X125489642Y-134095973D01*
X125694920Y-134158243D01*
X125908400Y-134179269D01*
X126121881Y-134158243D01*
X126327159Y-134095973D01*
X126516343Y-133994851D01*
X126682165Y-133858765D01*
X126818251Y-133692943D01*
X126919373Y-133503759D01*
X126981643Y-133298481D01*
X126997400Y-133138497D01*
X126997400Y-131688000D01*
X127051400Y-131688000D01*
X127051400Y-132450000D01*
X128321400Y-132450000D01*
X128321400Y-130583280D01*
X128575400Y-130583280D01*
X128575400Y-132450000D01*
X129845400Y-132450000D01*
X129845400Y-131688000D01*
X129793781Y-131417899D01*
X129690459Y-131163058D01*
X129539406Y-130933271D01*
X129346426Y-130737368D01*
X129118935Y-130582878D01*
X128865676Y-130475738D01*
X128791470Y-130460780D01*
X128575400Y-130583280D01*
X128321400Y-130583280D01*
X128105330Y-130460780D01*
X128031124Y-130475738D01*
X127777865Y-130582878D01*
X127550374Y-130737368D01*
X127357394Y-130933271D01*
X127206341Y-131163058D01*
X127103019Y-131417899D01*
X127051400Y-131688000D01*
X126997400Y-131688000D01*
X126997400Y-131507503D01*
X126981643Y-131347519D01*
X126919373Y-131142241D01*
X126818251Y-130953057D01*
X126682165Y-130787235D01*
X126516343Y-130651149D01*
X126327158Y-130550027D01*
X126310400Y-130544944D01*
X126310400Y-128678139D01*
X126312344Y-128658400D01*
X126310400Y-128638660D01*
X126310400Y-128638653D01*
X126304583Y-128579594D01*
X126281597Y-128503817D01*
X126244268Y-128433980D01*
X126194032Y-128372768D01*
X126178695Y-128360181D01*
X125462585Y-127644072D01*
X125477000Y-127571603D01*
X125477000Y-127428397D01*
X125449062Y-127287942D01*
X125394259Y-127155636D01*
X125314698Y-127036564D01*
X125213436Y-126935302D01*
X125094364Y-126855741D01*
X124962058Y-126800938D01*
X124821603Y-126773000D01*
X124678397Y-126773000D01*
X124537942Y-126800938D01*
X124501470Y-126816045D01*
X125689818Y-125627697D01*
X125689818Y-126045400D01*
X125689818Y-126045400D01*
G37*
X125689818Y-126045400D02*
X125696132Y-126109503D01*
X125714830Y-126171143D01*
X125745194Y-126227950D01*
X125786057Y-126277743D01*
X125835850Y-126318606D01*
X125892657Y-126348970D01*
X125954297Y-126367668D01*
X126018400Y-126373982D01*
X126366401Y-126373982D01*
X126366401Y-126389682D01*
X126355741Y-126405636D01*
X126300938Y-126537942D01*
X126273000Y-126678397D01*
X126273000Y-126821603D01*
X126300938Y-126962058D01*
X126355741Y-127094364D01*
X126435302Y-127213436D01*
X126536564Y-127314698D01*
X126655636Y-127394259D01*
X126787942Y-127449062D01*
X126928397Y-127477000D01*
X127071603Y-127477000D01*
X127212058Y-127449062D01*
X127344364Y-127394259D01*
X127463436Y-127314698D01*
X127564698Y-127213436D01*
X127644259Y-127094364D01*
X127699062Y-126962058D01*
X127727000Y-126821603D01*
X127727000Y-126678397D01*
X127699062Y-126537942D01*
X127644259Y-126405636D01*
X127612758Y-126358491D01*
X127644143Y-126348970D01*
X127700950Y-126318606D01*
X127750743Y-126277743D01*
X127791606Y-126227950D01*
X127821970Y-126171143D01*
X127840668Y-126109503D01*
X127846982Y-126045400D01*
X127846982Y-126006295D01*
X130586401Y-128745715D01*
X130586400Y-130544943D01*
X130569641Y-130550027D01*
X130380457Y-130651149D01*
X130214635Y-130787235D01*
X130078549Y-130953057D01*
X129977427Y-131142242D01*
X129915157Y-131347520D01*
X129899400Y-131507504D01*
X129899400Y-133138497D01*
X129915157Y-133298481D01*
X129977428Y-133503759D01*
X130078550Y-133692943D01*
X130214636Y-133858765D01*
X130380458Y-133994851D01*
X130569642Y-134095973D01*
X130774920Y-134158243D01*
X130988400Y-134179269D01*
X131201881Y-134158243D01*
X131407159Y-134095973D01*
X131596343Y-133994851D01*
X131762165Y-133858765D01*
X131898251Y-133692943D01*
X131999373Y-133503759D01*
X132061643Y-133298481D01*
X132077400Y-133138497D01*
X132077400Y-131507503D01*
X132061643Y-131347519D01*
X131999373Y-131142241D01*
X131898251Y-130953057D01*
X131762165Y-130787235D01*
X131596343Y-130651149D01*
X131407158Y-130550027D01*
X131390400Y-130544944D01*
X131390400Y-128598939D01*
X131392344Y-128579199D01*
X131390400Y-128559460D01*
X131390400Y-128559453D01*
X131384583Y-128500394D01*
X131363989Y-128432502D01*
X133126400Y-130194914D01*
X133126400Y-130798943D01*
X133109641Y-130804027D01*
X132920457Y-130905149D01*
X132754635Y-131041235D01*
X132618549Y-131207057D01*
X132517427Y-131396242D01*
X132455157Y-131601520D01*
X132439400Y-131761504D01*
X132439400Y-133392497D01*
X132455157Y-133552481D01*
X132517428Y-133757759D01*
X132618550Y-133946943D01*
X132754636Y-134112765D01*
X132920458Y-134248851D01*
X133109642Y-134349973D01*
X133185552Y-134373000D01*
X129389407Y-134373000D01*
X129539406Y-134220729D01*
X129690459Y-133990942D01*
X129793781Y-133736101D01*
X129845400Y-133466000D01*
X129845400Y-132704000D01*
X128575400Y-132704000D01*
X128575400Y-132724000D01*
X128321400Y-132724000D01*
X128321400Y-132704000D01*
X127051400Y-132704000D01*
X127051400Y-133466000D01*
X127103019Y-133736101D01*
X127206341Y-133990942D01*
X127357394Y-134220729D01*
X127507393Y-134373000D01*
X123711249Y-134373000D01*
X123787159Y-134349973D01*
X123976343Y-134248851D01*
X124142165Y-134112765D01*
X124278251Y-133946943D01*
X124379373Y-133757759D01*
X124441643Y-133552481D01*
X124457400Y-133392497D01*
X124457400Y-131761503D01*
X124441643Y-131601519D01*
X124379373Y-131396241D01*
X124278251Y-131207057D01*
X124142165Y-131041235D01*
X123976343Y-130905149D01*
X123787158Y-130804027D01*
X123770400Y-130798944D01*
X123770400Y-127547115D01*
X124066045Y-127251470D01*
X124050938Y-127287942D01*
X124023000Y-127428397D01*
X124023000Y-127571603D01*
X124050938Y-127712058D01*
X124105741Y-127844364D01*
X124185302Y-127963436D01*
X124286564Y-128064698D01*
X124405636Y-128144259D01*
X124537942Y-128199062D01*
X124678397Y-128227000D01*
X124821603Y-128227000D01*
X124894072Y-128212585D01*
X125506401Y-128824915D01*
X125506400Y-130544943D01*
X125489641Y-130550027D01*
X125300457Y-130651149D01*
X125134635Y-130787235D01*
X124998549Y-130953057D01*
X124897427Y-131142242D01*
X124835157Y-131347520D01*
X124819400Y-131507504D01*
X124819400Y-133138497D01*
X124835157Y-133298481D01*
X124897428Y-133503759D01*
X124998550Y-133692943D01*
X125134636Y-133858765D01*
X125300458Y-133994851D01*
X125489642Y-134095973D01*
X125694920Y-134158243D01*
X125908400Y-134179269D01*
X126121881Y-134158243D01*
X126327159Y-134095973D01*
X126516343Y-133994851D01*
X126682165Y-133858765D01*
X126818251Y-133692943D01*
X126919373Y-133503759D01*
X126981643Y-133298481D01*
X126997400Y-133138497D01*
X126997400Y-131688000D01*
X127051400Y-131688000D01*
X127051400Y-132450000D01*
X128321400Y-132450000D01*
X128321400Y-130583280D01*
X128575400Y-130583280D01*
X128575400Y-132450000D01*
X129845400Y-132450000D01*
X129845400Y-131688000D01*
X129793781Y-131417899D01*
X129690459Y-131163058D01*
X129539406Y-130933271D01*
X129346426Y-130737368D01*
X129118935Y-130582878D01*
X128865676Y-130475738D01*
X128791470Y-130460780D01*
X128575400Y-130583280D01*
X128321400Y-130583280D01*
X128105330Y-130460780D01*
X128031124Y-130475738D01*
X127777865Y-130582878D01*
X127550374Y-130737368D01*
X127357394Y-130933271D01*
X127206341Y-131163058D01*
X127103019Y-131417899D01*
X127051400Y-131688000D01*
X126997400Y-131688000D01*
X126997400Y-131507503D01*
X126981643Y-131347519D01*
X126919373Y-131142241D01*
X126818251Y-130953057D01*
X126682165Y-130787235D01*
X126516343Y-130651149D01*
X126327158Y-130550027D01*
X126310400Y-130544944D01*
X126310400Y-128678139D01*
X126312344Y-128658400D01*
X126310400Y-128638660D01*
X126310400Y-128638653D01*
X126304583Y-128579594D01*
X126281597Y-128503817D01*
X126244268Y-128433980D01*
X126194032Y-128372768D01*
X126178695Y-128360181D01*
X125462585Y-127644072D01*
X125477000Y-127571603D01*
X125477000Y-127428397D01*
X125449062Y-127287942D01*
X125394259Y-127155636D01*
X125314698Y-127036564D01*
X125213436Y-126935302D01*
X125094364Y-126855741D01*
X124962058Y-126800938D01*
X124821603Y-126773000D01*
X124678397Y-126773000D01*
X124537942Y-126800938D01*
X124501470Y-126816045D01*
X125689818Y-125627697D01*
X125689818Y-126045400D01*
M02*
