G04 #@! TF.GenerationSoftware,KiCad,Pcbnew,(5.1.2)-2*
G04 #@! TF.CreationDate,2019-11-03T14:13:23-08:00*
G04 #@! TF.ProjectId,dac-breakout-ad5689,6461632d-6272-4656-916b-6f75742d6164,rev?*
G04 #@! TF.SameCoordinates,Original*
G04 #@! TF.FileFunction,Soldermask,Bot*
G04 #@! TF.FilePolarity,Negative*
%FSLAX46Y46*%
G04 Gerber Fmt 4.6, Leading zero omitted, Abs format (unit mm)*
G04 Created by KiCad (PCBNEW (5.1.2)-2) date 2019-11-03 14:13:23*
%MOMM*%
%LPD*%
G04 APERTURE LIST*
%ADD10C,0.100000*%
G04 APERTURE END LIST*
D10*
G36*
X123537694Y-130963896D02*
G01*
X123658126Y-131000429D01*
X123700487Y-131013279D01*
X123850507Y-131093466D01*
X123850510Y-131093468D01*
X123850511Y-131093469D01*
X123982012Y-131201388D01*
X124089931Y-131332888D01*
X124089933Y-131332892D01*
X124089934Y-131332893D01*
X124170121Y-131482913D01*
X124170122Y-131482916D01*
X124219504Y-131645705D01*
X124232000Y-131772580D01*
X124232000Y-133381420D01*
X124219504Y-133508295D01*
X124170122Y-133671084D01*
X124170121Y-133671087D01*
X124097725Y-133806531D01*
X124089931Y-133821112D01*
X123982012Y-133952612D01*
X123850512Y-134060531D01*
X123850508Y-134060533D01*
X123850507Y-134060534D01*
X123700487Y-134140721D01*
X123700484Y-134140722D01*
X123537695Y-134190104D01*
X123368400Y-134206778D01*
X123199106Y-134190104D01*
X123036317Y-134140722D01*
X123036314Y-134140721D01*
X122886294Y-134060534D01*
X122886293Y-134060533D01*
X122886289Y-134060531D01*
X122754789Y-133952612D01*
X122646870Y-133821112D01*
X122639076Y-133806531D01*
X122566680Y-133671087D01*
X122566679Y-133671084D01*
X122517297Y-133508295D01*
X122504801Y-133381420D01*
X122504800Y-131772581D01*
X122517296Y-131645706D01*
X122566678Y-131482917D01*
X122566679Y-131482913D01*
X122646866Y-131332893D01*
X122646870Y-131332888D01*
X122754788Y-131201388D01*
X122886288Y-131093469D01*
X122886292Y-131093467D01*
X122886293Y-131093466D01*
X123036313Y-131013279D01*
X123036316Y-131013278D01*
X123199105Y-130963896D01*
X123368400Y-130947222D01*
X123537694Y-130963896D01*
X123537694Y-130963896D01*
G37*
G36*
X128617694Y-130963896D02*
G01*
X128738126Y-131000429D01*
X128780487Y-131013279D01*
X128930507Y-131093466D01*
X128930510Y-131093468D01*
X128930511Y-131093469D01*
X129062012Y-131201388D01*
X129169931Y-131332888D01*
X129169933Y-131332892D01*
X129169934Y-131332893D01*
X129250121Y-131482913D01*
X129250122Y-131482916D01*
X129299504Y-131645705D01*
X129312000Y-131772580D01*
X129312000Y-133381420D01*
X129299504Y-133508295D01*
X129250122Y-133671084D01*
X129250121Y-133671087D01*
X129177725Y-133806531D01*
X129169931Y-133821112D01*
X129062012Y-133952612D01*
X128930512Y-134060531D01*
X128930508Y-134060533D01*
X128930507Y-134060534D01*
X128780487Y-134140721D01*
X128780484Y-134140722D01*
X128617695Y-134190104D01*
X128448400Y-134206778D01*
X128279106Y-134190104D01*
X128116317Y-134140722D01*
X128116314Y-134140721D01*
X127966294Y-134060534D01*
X127966293Y-134060533D01*
X127966289Y-134060531D01*
X127834789Y-133952612D01*
X127726870Y-133821112D01*
X127719076Y-133806531D01*
X127646680Y-133671087D01*
X127646679Y-133671084D01*
X127597297Y-133508295D01*
X127584801Y-133381420D01*
X127584800Y-131772581D01*
X127597296Y-131645706D01*
X127646678Y-131482917D01*
X127646679Y-131482913D01*
X127726866Y-131332893D01*
X127726870Y-131332888D01*
X127834788Y-131201388D01*
X127966288Y-131093469D01*
X127966292Y-131093467D01*
X127966293Y-131093466D01*
X128116313Y-131013279D01*
X128116316Y-131013278D01*
X128279105Y-130963896D01*
X128448400Y-130947222D01*
X128617694Y-130963896D01*
X128617694Y-130963896D01*
G37*
G36*
X133697694Y-130963896D02*
G01*
X133818126Y-131000429D01*
X133860487Y-131013279D01*
X134010507Y-131093466D01*
X134010510Y-131093468D01*
X134010511Y-131093469D01*
X134142012Y-131201388D01*
X134249931Y-131332888D01*
X134249933Y-131332892D01*
X134249934Y-131332893D01*
X134330121Y-131482913D01*
X134330122Y-131482916D01*
X134379504Y-131645705D01*
X134392000Y-131772580D01*
X134392000Y-133381420D01*
X134379504Y-133508295D01*
X134330122Y-133671084D01*
X134330121Y-133671087D01*
X134257725Y-133806531D01*
X134249931Y-133821112D01*
X134142012Y-133952612D01*
X134010512Y-134060531D01*
X134010508Y-134060533D01*
X134010507Y-134060534D01*
X133860487Y-134140721D01*
X133860484Y-134140722D01*
X133697695Y-134190104D01*
X133528400Y-134206778D01*
X133359106Y-134190104D01*
X133196317Y-134140722D01*
X133196314Y-134140721D01*
X133046294Y-134060534D01*
X133046293Y-134060533D01*
X133046289Y-134060531D01*
X132914789Y-133952612D01*
X132806870Y-133821112D01*
X132799076Y-133806531D01*
X132726680Y-133671087D01*
X132726679Y-133671084D01*
X132677297Y-133508295D01*
X132664801Y-133381420D01*
X132664800Y-131772581D01*
X132677296Y-131645706D01*
X132726678Y-131482917D01*
X132726679Y-131482913D01*
X132806866Y-131332893D01*
X132806870Y-131332888D01*
X132914788Y-131201388D01*
X133046288Y-131093469D01*
X133046292Y-131093467D01*
X133046293Y-131093466D01*
X133196313Y-131013279D01*
X133196316Y-131013278D01*
X133359105Y-130963896D01*
X133528400Y-130947222D01*
X133697694Y-130963896D01*
X133697694Y-130963896D01*
G37*
G36*
X138777694Y-130963896D02*
G01*
X138898126Y-131000429D01*
X138940487Y-131013279D01*
X139090507Y-131093466D01*
X139090510Y-131093468D01*
X139090511Y-131093469D01*
X139222012Y-131201388D01*
X139329931Y-131332888D01*
X139329933Y-131332892D01*
X139329934Y-131332893D01*
X139410121Y-131482913D01*
X139410122Y-131482916D01*
X139459504Y-131645705D01*
X139472000Y-131772580D01*
X139472000Y-133381420D01*
X139459504Y-133508295D01*
X139410122Y-133671084D01*
X139410121Y-133671087D01*
X139337725Y-133806531D01*
X139329931Y-133821112D01*
X139222012Y-133952612D01*
X139090512Y-134060531D01*
X139090508Y-134060533D01*
X139090507Y-134060534D01*
X138940487Y-134140721D01*
X138940484Y-134140722D01*
X138777695Y-134190104D01*
X138608400Y-134206778D01*
X138439106Y-134190104D01*
X138276317Y-134140722D01*
X138276314Y-134140721D01*
X138126294Y-134060534D01*
X138126293Y-134060533D01*
X138126289Y-134060531D01*
X137994789Y-133952612D01*
X137886870Y-133821112D01*
X137879076Y-133806531D01*
X137806680Y-133671087D01*
X137806679Y-133671084D01*
X137757297Y-133508295D01*
X137744801Y-133381420D01*
X137744800Y-131772581D01*
X137757296Y-131645706D01*
X137806678Y-131482917D01*
X137806679Y-131482913D01*
X137886866Y-131332893D01*
X137886870Y-131332888D01*
X137994788Y-131201388D01*
X138126288Y-131093469D01*
X138126292Y-131093467D01*
X138126293Y-131093466D01*
X138276313Y-131013279D01*
X138276316Y-131013278D01*
X138439105Y-130963896D01*
X138608400Y-130947222D01*
X138777694Y-130963896D01*
X138777694Y-130963896D01*
G37*
G36*
X120997694Y-130709896D02*
G01*
X121118126Y-130746429D01*
X121160487Y-130759279D01*
X121310507Y-130839466D01*
X121310510Y-130839468D01*
X121310511Y-130839469D01*
X121442012Y-130947388D01*
X121549931Y-131078888D01*
X121549933Y-131078892D01*
X121549934Y-131078893D01*
X121630121Y-131228913D01*
X121630122Y-131228916D01*
X121679504Y-131391705D01*
X121692000Y-131518580D01*
X121692000Y-133127420D01*
X121679504Y-133254295D01*
X121640940Y-133381421D01*
X121630121Y-133417087D01*
X121549934Y-133567107D01*
X121549931Y-133567112D01*
X121442012Y-133698612D01*
X121310512Y-133806531D01*
X121310508Y-133806533D01*
X121310507Y-133806534D01*
X121160487Y-133886721D01*
X121160484Y-133886722D01*
X120997695Y-133936104D01*
X120828400Y-133952778D01*
X120659106Y-133936104D01*
X120496317Y-133886722D01*
X120496314Y-133886721D01*
X120346294Y-133806534D01*
X120346293Y-133806533D01*
X120346289Y-133806531D01*
X120214789Y-133698612D01*
X120106870Y-133567112D01*
X120106867Y-133567107D01*
X120026680Y-133417087D01*
X120015861Y-133381421D01*
X119977297Y-133254295D01*
X119964801Y-133127420D01*
X119964800Y-131518581D01*
X119977296Y-131391706D01*
X120026678Y-131228917D01*
X120026679Y-131228913D01*
X120106866Y-131078893D01*
X120106870Y-131078888D01*
X120214788Y-130947388D01*
X120346288Y-130839469D01*
X120346292Y-130839467D01*
X120346293Y-130839466D01*
X120496313Y-130759279D01*
X120496316Y-130759278D01*
X120659105Y-130709896D01*
X120828400Y-130693222D01*
X120997694Y-130709896D01*
X120997694Y-130709896D01*
G37*
G36*
X126077694Y-130709896D02*
G01*
X126198126Y-130746429D01*
X126240487Y-130759279D01*
X126390507Y-130839466D01*
X126390510Y-130839468D01*
X126390511Y-130839469D01*
X126522012Y-130947388D01*
X126629931Y-131078888D01*
X126629933Y-131078892D01*
X126629934Y-131078893D01*
X126710121Y-131228913D01*
X126710122Y-131228916D01*
X126759504Y-131391705D01*
X126772000Y-131518580D01*
X126772000Y-133127420D01*
X126759504Y-133254295D01*
X126720940Y-133381421D01*
X126710121Y-133417087D01*
X126629934Y-133567107D01*
X126629931Y-133567112D01*
X126522012Y-133698612D01*
X126390512Y-133806531D01*
X126390508Y-133806533D01*
X126390507Y-133806534D01*
X126240487Y-133886721D01*
X126240484Y-133886722D01*
X126077695Y-133936104D01*
X125908400Y-133952778D01*
X125739106Y-133936104D01*
X125576317Y-133886722D01*
X125576314Y-133886721D01*
X125426294Y-133806534D01*
X125426293Y-133806533D01*
X125426289Y-133806531D01*
X125294789Y-133698612D01*
X125186870Y-133567112D01*
X125186867Y-133567107D01*
X125106680Y-133417087D01*
X125095861Y-133381421D01*
X125057297Y-133254295D01*
X125044801Y-133127420D01*
X125044800Y-131518581D01*
X125057296Y-131391706D01*
X125106678Y-131228917D01*
X125106679Y-131228913D01*
X125186866Y-131078893D01*
X125186870Y-131078888D01*
X125294788Y-130947388D01*
X125426288Y-130839469D01*
X125426292Y-130839467D01*
X125426293Y-130839466D01*
X125576313Y-130759279D01*
X125576316Y-130759278D01*
X125739105Y-130709896D01*
X125908400Y-130693222D01*
X126077694Y-130709896D01*
X126077694Y-130709896D01*
G37*
G36*
X131157694Y-130709896D02*
G01*
X131278126Y-130746429D01*
X131320487Y-130759279D01*
X131470507Y-130839466D01*
X131470510Y-130839468D01*
X131470511Y-130839469D01*
X131602012Y-130947388D01*
X131709931Y-131078888D01*
X131709933Y-131078892D01*
X131709934Y-131078893D01*
X131790121Y-131228913D01*
X131790122Y-131228916D01*
X131839504Y-131391705D01*
X131852000Y-131518580D01*
X131852000Y-133127420D01*
X131839504Y-133254295D01*
X131800940Y-133381421D01*
X131790121Y-133417087D01*
X131709934Y-133567107D01*
X131709931Y-133567112D01*
X131602012Y-133698612D01*
X131470512Y-133806531D01*
X131470508Y-133806533D01*
X131470507Y-133806534D01*
X131320487Y-133886721D01*
X131320484Y-133886722D01*
X131157695Y-133936104D01*
X130988400Y-133952778D01*
X130819106Y-133936104D01*
X130656317Y-133886722D01*
X130656314Y-133886721D01*
X130506294Y-133806534D01*
X130506293Y-133806533D01*
X130506289Y-133806531D01*
X130374789Y-133698612D01*
X130266870Y-133567112D01*
X130266867Y-133567107D01*
X130186680Y-133417087D01*
X130175861Y-133381421D01*
X130137297Y-133254295D01*
X130124801Y-133127420D01*
X130124800Y-131518581D01*
X130137296Y-131391706D01*
X130186678Y-131228917D01*
X130186679Y-131228913D01*
X130266866Y-131078893D01*
X130266870Y-131078888D01*
X130374788Y-130947388D01*
X130506288Y-130839469D01*
X130506292Y-130839467D01*
X130506293Y-130839466D01*
X130656313Y-130759279D01*
X130656316Y-130759278D01*
X130819105Y-130709896D01*
X130988400Y-130693222D01*
X131157694Y-130709896D01*
X131157694Y-130709896D01*
G37*
G36*
X136237694Y-130709896D02*
G01*
X136358126Y-130746429D01*
X136400487Y-130759279D01*
X136550507Y-130839466D01*
X136550510Y-130839468D01*
X136550511Y-130839469D01*
X136682012Y-130947388D01*
X136789931Y-131078888D01*
X136789933Y-131078892D01*
X136789934Y-131078893D01*
X136870121Y-131228913D01*
X136870122Y-131228916D01*
X136919504Y-131391705D01*
X136932000Y-131518580D01*
X136932000Y-133127420D01*
X136919504Y-133254295D01*
X136880940Y-133381421D01*
X136870121Y-133417087D01*
X136789934Y-133567107D01*
X136789931Y-133567112D01*
X136682012Y-133698612D01*
X136550512Y-133806531D01*
X136550508Y-133806533D01*
X136550507Y-133806534D01*
X136400487Y-133886721D01*
X136400484Y-133886722D01*
X136237695Y-133936104D01*
X136068400Y-133952778D01*
X135899106Y-133936104D01*
X135736317Y-133886722D01*
X135736314Y-133886721D01*
X135586294Y-133806534D01*
X135586293Y-133806533D01*
X135586289Y-133806531D01*
X135454789Y-133698612D01*
X135346870Y-133567112D01*
X135346867Y-133567107D01*
X135266680Y-133417087D01*
X135255861Y-133381421D01*
X135217297Y-133254295D01*
X135204801Y-133127420D01*
X135204800Y-131518581D01*
X135217296Y-131391706D01*
X135266678Y-131228917D01*
X135266679Y-131228913D01*
X135346866Y-131078893D01*
X135346870Y-131078888D01*
X135454788Y-130947388D01*
X135586288Y-130839469D01*
X135586292Y-130839467D01*
X135586293Y-130839466D01*
X135736313Y-130759279D01*
X135736316Y-130759278D01*
X135899105Y-130709896D01*
X136068400Y-130693222D01*
X136237694Y-130709896D01*
X136237694Y-130709896D01*
G37*
M02*
