G04 #@! TF.GenerationSoftware,KiCad,Pcbnew,(5.1.2)-2*
G04 #@! TF.CreationDate,2019-11-03T14:13:23-08:00*
G04 #@! TF.ProjectId,dac-breakout-ad5689,6461632d-6272-4656-916b-6f75742d6164,rev?*
G04 #@! TF.SameCoordinates,Original*
G04 #@! TF.FileFunction,Legend,Top*
G04 #@! TF.FilePolarity,Positive*
%FSLAX46Y46*%
G04 Gerber Fmt 4.6, Leading zero omitted, Abs format (unit mm)*
G04 Created by KiCad (PCBNEW (5.1.2)-2) date 2019-11-03 14:13:23*
%MOMM*%
%LPD*%
G04 APERTURE LIST*
%ADD10C,0.150000*%
%ADD11C,0.120000*%
G04 APERTURE END LIST*
D10*
X138528571Y-129781071D02*
X138576190Y-129638214D01*
X138623809Y-129590595D01*
X138719047Y-129542976D01*
X138861904Y-129542976D01*
X138957142Y-129590595D01*
X139004761Y-129638214D01*
X139052380Y-129733452D01*
X139052380Y-130114404D01*
X138052380Y-130114404D01*
X138052380Y-129781071D01*
X138100000Y-129685833D01*
X138147619Y-129638214D01*
X138242857Y-129590595D01*
X138338095Y-129590595D01*
X138433333Y-129638214D01*
X138480952Y-129685833D01*
X138528571Y-129781071D01*
X138528571Y-130114404D01*
X136227376Y-130162023D02*
X136227376Y-129685833D01*
X136513090Y-130257261D02*
X135513090Y-129923928D01*
X136513090Y-129590595D01*
X132973805Y-130257261D02*
X133973805Y-129923928D01*
X132973805Y-129590595D01*
X133973805Y-129257261D02*
X132973805Y-129257261D01*
X132973805Y-129019166D01*
X133021425Y-128876309D01*
X133116663Y-128781071D01*
X133211901Y-128733452D01*
X133402377Y-128685833D01*
X133545234Y-128685833D01*
X133735710Y-128733452D01*
X133830948Y-128781071D01*
X133926186Y-128876309D01*
X133973805Y-129019166D01*
X133973805Y-129257261D01*
X133973805Y-128257261D02*
X132973805Y-128257261D01*
X132973805Y-128019166D01*
X133021425Y-127876309D01*
X133116663Y-127781071D01*
X133211901Y-127733452D01*
X133402377Y-127685833D01*
X133545234Y-127685833D01*
X133735710Y-127733452D01*
X133830948Y-127781071D01*
X133926186Y-127876309D01*
X133973805Y-128019166D01*
X133973805Y-128257261D01*
X130434520Y-130209642D02*
X130434520Y-129590595D01*
X130815473Y-129923928D01*
X130815473Y-129781071D01*
X130863092Y-129685833D01*
X130910711Y-129638214D01*
X131005949Y-129590595D01*
X131244044Y-129590595D01*
X131339282Y-129638214D01*
X131386901Y-129685833D01*
X131434520Y-129781071D01*
X131434520Y-130066785D01*
X131386901Y-130162023D01*
X131339282Y-130209642D01*
X130434520Y-129304880D02*
X131434520Y-128971547D01*
X130434520Y-128638214D01*
X130434520Y-128400119D02*
X130434520Y-127781071D01*
X130815473Y-128114404D01*
X130815473Y-127971547D01*
X130863092Y-127876309D01*
X130910711Y-127828690D01*
X131005949Y-127781071D01*
X131244044Y-127781071D01*
X131339282Y-127828690D01*
X131386901Y-127876309D01*
X131434520Y-127971547D01*
X131434520Y-128257261D01*
X131386901Y-128352500D01*
X131339282Y-128400119D01*
X127942855Y-129590595D02*
X127895235Y-129685833D01*
X127895235Y-129828690D01*
X127942855Y-129971547D01*
X128038093Y-130066785D01*
X128133331Y-130114404D01*
X128323807Y-130162023D01*
X128466664Y-130162023D01*
X128657140Y-130114404D01*
X128752378Y-130066785D01*
X128847616Y-129971547D01*
X128895235Y-129828690D01*
X128895235Y-129733452D01*
X128847616Y-129590595D01*
X128799997Y-129542976D01*
X128466664Y-129542976D01*
X128466664Y-129733452D01*
X128895235Y-129114404D02*
X127895235Y-129114404D01*
X128895235Y-128542976D01*
X127895235Y-128542976D01*
X128895235Y-128066785D02*
X127895235Y-128066785D01*
X127895235Y-127828690D01*
X127942855Y-127685833D01*
X128038093Y-127590595D01*
X128133331Y-127542976D01*
X128323807Y-127495357D01*
X128466664Y-127495357D01*
X128657140Y-127542976D01*
X128752378Y-127590595D01*
X128847616Y-127685833D01*
X128895235Y-127828690D01*
X128895235Y-128066785D01*
X126260712Y-129542976D02*
X126308331Y-129590595D01*
X126355950Y-129733452D01*
X126355950Y-129828690D01*
X126308331Y-129971547D01*
X126213093Y-130066785D01*
X126117855Y-130114404D01*
X125927379Y-130162023D01*
X125784522Y-130162023D01*
X125594046Y-130114404D01*
X125498808Y-130066785D01*
X125403570Y-129971547D01*
X125355950Y-129828690D01*
X125355950Y-129733452D01*
X125403570Y-129590595D01*
X125451189Y-129542976D01*
X126308331Y-129162023D02*
X126355950Y-129019166D01*
X126355950Y-128781071D01*
X126308331Y-128685833D01*
X126260712Y-128638214D01*
X126165474Y-128590595D01*
X126070236Y-128590595D01*
X125974998Y-128638214D01*
X125927379Y-128685833D01*
X125879760Y-128781071D01*
X125832141Y-128971547D01*
X125784522Y-129066785D01*
X125736903Y-129114404D01*
X125641665Y-129162023D01*
X125546427Y-129162023D01*
X125451189Y-129114404D01*
X125403570Y-129066785D01*
X125355950Y-128971547D01*
X125355950Y-128733452D01*
X125403570Y-128590595D01*
X123816665Y-130114404D02*
X122816665Y-130114404D01*
X123530951Y-129781071D01*
X122816665Y-129447738D01*
X123816665Y-129447738D01*
X122816665Y-128781071D02*
X122816665Y-128590595D01*
X122864285Y-128495357D01*
X122959523Y-128400119D01*
X123149999Y-128352500D01*
X123483332Y-128352500D01*
X123673808Y-128400119D01*
X123769046Y-128495357D01*
X123816665Y-128590595D01*
X123816665Y-128781071D01*
X123769046Y-128876309D01*
X123673808Y-128971547D01*
X123483332Y-129019166D01*
X123149999Y-129019166D01*
X122959523Y-128971547D01*
X122864285Y-128876309D01*
X122816665Y-128781071D01*
X123769046Y-127971547D02*
X123816665Y-127828690D01*
X123816665Y-127590595D01*
X123769046Y-127495357D01*
X123721427Y-127447738D01*
X123626189Y-127400119D01*
X123530951Y-127400119D01*
X123435713Y-127447738D01*
X123388094Y-127495357D01*
X123340475Y-127590595D01*
X123292856Y-127781071D01*
X123245237Y-127876309D01*
X123197618Y-127923928D01*
X123102380Y-127971547D01*
X123007142Y-127971547D01*
X122911904Y-127923928D01*
X122864285Y-127876309D01*
X122816665Y-127781071D01*
X122816665Y-127542976D01*
X122864285Y-127400119D01*
X123816665Y-126971547D02*
X122816665Y-126971547D01*
X121229761Y-130162023D02*
X121277380Y-130019166D01*
X121277380Y-129781071D01*
X121229761Y-129685833D01*
X121182142Y-129638214D01*
X121086904Y-129590595D01*
X120991666Y-129590595D01*
X120896428Y-129638214D01*
X120848809Y-129685833D01*
X120801190Y-129781071D01*
X120753571Y-129971547D01*
X120705952Y-130066785D01*
X120658333Y-130114404D01*
X120563095Y-130162023D01*
X120467857Y-130162023D01*
X120372619Y-130114404D01*
X120325000Y-130066785D01*
X120277380Y-129971547D01*
X120277380Y-129733452D01*
X120325000Y-129590595D01*
X121182142Y-128590595D02*
X121229761Y-128638214D01*
X121277380Y-128781071D01*
X121277380Y-128876309D01*
X121229761Y-129019166D01*
X121134523Y-129114404D01*
X121039285Y-129162023D01*
X120848809Y-129209642D01*
X120705952Y-129209642D01*
X120515476Y-129162023D01*
X120420238Y-129114404D01*
X120325000Y-129019166D01*
X120277380Y-128876309D01*
X120277380Y-128781071D01*
X120325000Y-128638214D01*
X120372619Y-128590595D01*
X121277380Y-127685833D02*
X121277380Y-128162023D01*
X120277380Y-128162023D01*
X121277380Y-127352500D02*
X120277380Y-127352500D01*
X121277380Y-126781071D02*
X120705952Y-127209642D01*
X120277380Y-126781071D02*
X120848809Y-127352500D01*
X126607142Y-120166666D02*
X127083333Y-120166666D01*
X126511904Y-120452380D02*
X126845238Y-119452380D01*
X127178571Y-120452380D01*
X127511904Y-120452380D02*
X127511904Y-119452380D01*
X127750000Y-119452380D01*
X127892857Y-119500000D01*
X127988095Y-119595238D01*
X128035714Y-119690476D01*
X128083333Y-119880952D01*
X128083333Y-120023809D01*
X128035714Y-120214285D01*
X127988095Y-120309523D01*
X127892857Y-120404761D01*
X127750000Y-120452380D01*
X127511904Y-120452380D01*
X128988095Y-119452380D02*
X128511904Y-119452380D01*
X128464285Y-119928571D01*
X128511904Y-119880952D01*
X128607142Y-119833333D01*
X128845238Y-119833333D01*
X128940476Y-119880952D01*
X128988095Y-119928571D01*
X129035714Y-120023809D01*
X129035714Y-120261904D01*
X128988095Y-120357142D01*
X128940476Y-120404761D01*
X128845238Y-120452380D01*
X128607142Y-120452380D01*
X128511904Y-120404761D01*
X128464285Y-120357142D01*
X129892857Y-119452380D02*
X129702380Y-119452380D01*
X129607142Y-119500000D01*
X129559523Y-119547619D01*
X129464285Y-119690476D01*
X129416666Y-119880952D01*
X129416666Y-120261904D01*
X129464285Y-120357142D01*
X129511904Y-120404761D01*
X129607142Y-120452380D01*
X129797619Y-120452380D01*
X129892857Y-120404761D01*
X129940476Y-120357142D01*
X129988095Y-120261904D01*
X129988095Y-120023809D01*
X129940476Y-119928571D01*
X129892857Y-119880952D01*
X129797619Y-119833333D01*
X129607142Y-119833333D01*
X129511904Y-119880952D01*
X129464285Y-119928571D01*
X129416666Y-120023809D01*
X130559523Y-119880952D02*
X130464285Y-119833333D01*
X130416666Y-119785714D01*
X130369047Y-119690476D01*
X130369047Y-119642857D01*
X130416666Y-119547619D01*
X130464285Y-119500000D01*
X130559523Y-119452380D01*
X130750000Y-119452380D01*
X130845238Y-119500000D01*
X130892857Y-119547619D01*
X130940476Y-119642857D01*
X130940476Y-119690476D01*
X130892857Y-119785714D01*
X130845238Y-119833333D01*
X130750000Y-119880952D01*
X130559523Y-119880952D01*
X130464285Y-119928571D01*
X130416666Y-119976190D01*
X130369047Y-120071428D01*
X130369047Y-120261904D01*
X130416666Y-120357142D01*
X130464285Y-120404761D01*
X130559523Y-120452380D01*
X130750000Y-120452380D01*
X130845238Y-120404761D01*
X130892857Y-120357142D01*
X130940476Y-120261904D01*
X130940476Y-120071428D01*
X130892857Y-119976190D01*
X130845238Y-119928571D01*
X130750000Y-119880952D01*
X131416666Y-120452380D02*
X131607142Y-120452380D01*
X131702380Y-120404761D01*
X131750000Y-120357142D01*
X131845238Y-120214285D01*
X131892857Y-120023809D01*
X131892857Y-119642857D01*
X131845238Y-119547619D01*
X131797619Y-119500000D01*
X131702380Y-119452380D01*
X131511904Y-119452380D01*
X131416666Y-119500000D01*
X131369047Y-119547619D01*
X131321428Y-119642857D01*
X131321428Y-119880952D01*
X131369047Y-119976190D01*
X131416666Y-120023809D01*
X131511904Y-120071428D01*
X131702380Y-120071428D01*
X131797619Y-120023809D01*
X131845238Y-119976190D01*
X131892857Y-119880952D01*
X132892857Y-120452380D02*
X132559523Y-119976190D01*
X132321428Y-120452380D02*
X132321428Y-119452380D01*
X132702380Y-119452380D01*
X132797619Y-119500000D01*
X132845238Y-119547619D01*
X132892857Y-119642857D01*
X132892857Y-119785714D01*
X132845238Y-119880952D01*
X132797619Y-119928571D01*
X132702380Y-119976190D01*
X132321428Y-119976190D01*
X122848084Y-123647619D02*
X122895703Y-123600000D01*
X122990941Y-123552380D01*
X123229037Y-123552380D01*
X123324275Y-123600000D01*
X123371894Y-123647619D01*
X123419513Y-123742857D01*
X123419513Y-123838095D01*
X123371894Y-123980952D01*
X122800465Y-124552380D01*
X123419513Y-124552380D01*
X123419513Y-116152380D02*
X122848084Y-116152380D01*
X123133799Y-116152380D02*
X123133799Y-115152380D01*
X123038560Y-115295238D01*
X122943322Y-115390476D01*
X122848084Y-115438095D01*
X120684000Y-120765571D02*
X120636380Y-120860809D01*
X120636380Y-121003666D01*
X120684000Y-121146523D01*
X120779238Y-121241761D01*
X120874476Y-121289380D01*
X121064952Y-121337000D01*
X121207809Y-121337000D01*
X121398285Y-121289380D01*
X121493523Y-121241761D01*
X121588761Y-121146523D01*
X121636380Y-121003666D01*
X121636380Y-120908428D01*
X121588761Y-120765571D01*
X121541142Y-120717952D01*
X121207809Y-120717952D01*
X121207809Y-120908428D01*
X121350666Y-120337000D02*
X121350666Y-119860809D01*
X121636380Y-120432238D02*
X120636380Y-120098904D01*
X121636380Y-119765571D01*
X121636380Y-119432238D02*
X120636380Y-119432238D01*
X121636380Y-118956047D02*
X120636380Y-118956047D01*
X121636380Y-118384619D01*
X120636380Y-118384619D01*
X135638285Y-116452380D02*
X135162095Y-116452380D01*
X135162095Y-115452380D01*
X136162095Y-115452380D02*
X136352571Y-115452380D01*
X136447809Y-115500000D01*
X136543047Y-115595238D01*
X136590666Y-115785714D01*
X136590666Y-116119047D01*
X136543047Y-116309523D01*
X136447809Y-116404761D01*
X136352571Y-116452380D01*
X136162095Y-116452380D01*
X136066857Y-116404761D01*
X135971619Y-116309523D01*
X135924000Y-116119047D01*
X135924000Y-115785714D01*
X135971619Y-115595238D01*
X136066857Y-115500000D01*
X136162095Y-115452380D01*
X136924000Y-115452380D02*
X137162095Y-116452380D01*
X137352571Y-115738095D01*
X137543047Y-116452380D01*
X137781142Y-115452380D01*
X135352571Y-124702380D02*
X135352571Y-123702380D01*
X135685904Y-124416666D01*
X136019238Y-123702380D01*
X136019238Y-124702380D01*
X136495428Y-124702380D02*
X136495428Y-123702380D01*
X136971619Y-124702380D02*
X136971619Y-123702380D01*
X137209714Y-123702380D01*
X137352571Y-123750000D01*
X137447809Y-123845238D01*
X137495428Y-123940476D01*
X137543047Y-124130952D01*
X137543047Y-124273809D01*
X137495428Y-124464285D01*
X137447809Y-124559523D01*
X137352571Y-124654761D01*
X137209714Y-124702380D01*
X136971619Y-124702380D01*
X138952380Y-121452380D02*
X138476190Y-121785714D01*
X138952380Y-122023809D02*
X137952380Y-122023809D01*
X137952380Y-121642857D01*
X138000000Y-121547619D01*
X138047619Y-121500000D01*
X138142857Y-121452380D01*
X138285714Y-121452380D01*
X138380952Y-121500000D01*
X138428571Y-121547619D01*
X138476190Y-121642857D01*
X138476190Y-122023809D01*
X138428571Y-121023809D02*
X138428571Y-120690476D01*
X138952380Y-120547619D02*
X138952380Y-121023809D01*
X137952380Y-121023809D01*
X137952380Y-120547619D01*
X138904761Y-120166666D02*
X138952380Y-120023809D01*
X138952380Y-119785714D01*
X138904761Y-119690476D01*
X138857142Y-119642857D01*
X138761904Y-119595238D01*
X138666666Y-119595238D01*
X138571428Y-119642857D01*
X138523809Y-119690476D01*
X138476190Y-119785714D01*
X138428571Y-119976190D01*
X138380952Y-120071428D01*
X138333333Y-120119047D01*
X138238095Y-120166666D01*
X138142857Y-120166666D01*
X138047619Y-120119047D01*
X138000000Y-120071428D01*
X137952380Y-119976190D01*
X137952380Y-119738095D01*
X138000000Y-119595238D01*
X138428571Y-119166666D02*
X138428571Y-118833333D01*
X138952380Y-118690476D02*
X138952380Y-119166666D01*
X137952380Y-119166666D01*
X137952380Y-118690476D01*
X137952380Y-118404761D02*
X137952380Y-117833333D01*
X138952380Y-118119047D02*
X137952380Y-118119047D01*
D11*
X126021600Y-117137064D02*
X126021600Y-115932936D01*
X128741600Y-117137064D02*
X128741600Y-115932936D01*
X133516800Y-117151364D02*
X133516800Y-115947236D01*
X130796800Y-117151364D02*
X130796800Y-115947236D01*
X124133799Y-120264401D02*
X124133799Y-123064401D01*
X124133799Y-123064401D02*
X122133799Y-123064401D01*
X122133799Y-123064401D02*
X122133799Y-120264401D01*
X122133799Y-120264401D02*
X124133799Y-120264401D01*
X137424000Y-120418200D02*
X137424000Y-123218200D01*
X137424000Y-123218200D02*
X135424000Y-123218200D01*
X135424000Y-123218200D02*
X135424000Y-120418200D01*
X135424000Y-120418200D02*
X137424000Y-120418200D01*
D10*
X131918400Y-120820400D02*
X127518400Y-120820400D01*
X133493400Y-126345400D02*
X127518400Y-126345400D01*
D11*
X122133799Y-118759000D02*
X122133799Y-117359000D01*
X122833799Y-116659000D02*
X123433799Y-116659000D01*
X124133799Y-117359000D02*
X124133799Y-118759000D01*
X123433799Y-119459000D02*
X122833799Y-119459000D01*
X122833799Y-119459000D02*
G75*
G02X122133799Y-118759000I0J700000D01*
G01*
X124133799Y-118759000D02*
G75*
G02X123433799Y-119459000I-700000J0D01*
G01*
X123433799Y-116659000D02*
G75*
G02X124133799Y-117359000I0J-700000D01*
G01*
X122133799Y-117359000D02*
G75*
G02X122833799Y-116659000I700000J0D01*
G01*
X135424000Y-117511400D02*
G75*
G02X136124000Y-116811400I700000J0D01*
G01*
X136724000Y-116811400D02*
G75*
G02X137424000Y-117511400I0J-700000D01*
G01*
X137424000Y-118911400D02*
G75*
G02X136724000Y-119611400I-700000J0D01*
G01*
X136124000Y-119611400D02*
G75*
G02X135424000Y-118911400I0J700000D01*
G01*
X136724000Y-119611400D02*
X136124000Y-119611400D01*
X137424000Y-117511400D02*
X137424000Y-118911400D01*
X136124000Y-116811400D02*
X136724000Y-116811400D01*
X135424000Y-118911400D02*
X135424000Y-117511400D01*
D10*
X127290333Y-116750000D02*
X127257000Y-116783333D01*
X127157000Y-116816666D01*
X127090333Y-116816666D01*
X126990333Y-116783333D01*
X126923666Y-116716666D01*
X126890333Y-116650000D01*
X126857000Y-116516666D01*
X126857000Y-116416666D01*
X126890333Y-116283333D01*
X126923666Y-116216666D01*
X126990333Y-116150000D01*
X127090333Y-116116666D01*
X127157000Y-116116666D01*
X127257000Y-116150000D01*
X127290333Y-116183333D01*
X127957000Y-116816666D02*
X127557000Y-116816666D01*
X127757000Y-116816666D02*
X127757000Y-116116666D01*
X127690333Y-116216666D01*
X127623666Y-116283333D01*
X127557000Y-116316666D01*
X132040133Y-116750000D02*
X132006800Y-116783333D01*
X131906800Y-116816666D01*
X131840133Y-116816666D01*
X131740133Y-116783333D01*
X131673466Y-116716666D01*
X131640133Y-116650000D01*
X131606800Y-116516666D01*
X131606800Y-116416666D01*
X131640133Y-116283333D01*
X131673466Y-116216666D01*
X131740133Y-116150000D01*
X131840133Y-116116666D01*
X131906800Y-116116666D01*
X132006800Y-116150000D01*
X132040133Y-116183333D01*
X132306800Y-116183333D02*
X132340133Y-116150000D01*
X132406800Y-116116666D01*
X132573466Y-116116666D01*
X132640133Y-116150000D01*
X132673466Y-116183333D01*
X132706800Y-116250000D01*
X132706800Y-116316666D01*
X132673466Y-116416666D01*
X132273466Y-116816666D01*
X132706800Y-116816666D01*
X128956495Y-122972380D02*
X128956495Y-123781904D01*
X129004114Y-123877142D01*
X129051733Y-123924761D01*
X129146971Y-123972380D01*
X129337447Y-123972380D01*
X129432685Y-123924761D01*
X129480304Y-123877142D01*
X129527923Y-123781904D01*
X129527923Y-122972380D01*
X130527923Y-123972380D02*
X129956495Y-123972380D01*
X130242209Y-123972380D02*
X130242209Y-122972380D01*
X130146971Y-123115238D01*
X130051733Y-123210476D01*
X129956495Y-123258095D01*
M02*
