<?xml version="1.0" encoding="UTF-8" standalone="no"?>
<!-- Created with Inkscape (http://www.inkscape.org/) -->

<svg
   xmlns:dc="http://purl.org/dc/elements/1.1/"
   xmlns:cc="http://creativecommons.org/ns#"
   xmlns:rdf="http://www.w3.org/1999/02/22-rdf-syntax-ns#"
   xmlns:svg="http://www.w3.org/2000/svg"
   xmlns="http://www.w3.org/2000/svg"
   xmlns:sodipodi="http://sodipodi.sourceforge.net/DTD/sodipodi-0.dtd"
   xmlns:inkscape="http://www.inkscape.org/namespaces/inkscape"
   width="40.2999992371mm"
   height="128.5mm"
   viewBox="0 0 40.2999992371 128.5"
   version="1.1"
   id="svg8"
   inkscape:version="0.92.4 (5da689c313, 2019-01-14)"
   sodipodi:docname="panel.svg">
  <defs
     id="defs2" />
  <sodipodi:namedview
     id="base"
     pagecolor="#ffffff"
     bordercolor="#666666"
     borderopacity="1.0"
     inkscape:pageopacity="0.0"
     inkscape:pageshadow="2"
     inkscape:zoom="2.8"
     inkscape:cx="34.086399"
     inkscape:cy="462.29839"
     inkscape:document-units="mm"
     inkscape:current-layer="g852"
     showgrid="true"
     inkscape:window-width="2560"
     inkscape:window-height="1377"
     inkscape:window-x="-8"
     inkscape:window-y="-8"
     inkscape:window-maximized="1"
     borderlayer="true">
    <inkscape:grid
       id="grid816"
       units="mm"
       type="xygrid"
       empspacing="1"
       spacingy="2.54"
       spacingx="2.54" />
  </sodipodi:namedview>
  <metadata
     id="metadata5">
    <rdf:RDF>
      <cc:Work
         rdf:about="">
        <dc:format>image/svg+xml</dc:format>
        <dc:type
           rdf:resource="http://purl.org/dc/dcmitype/StillImage" />
        <dc:title />
      </cc:Work>
    </rdf:RDF>
  </metadata>
  <g
     id="g822"
     sodipodi:insensitive="true"
     inkscape:groupmode="layer"
     inkscape:label="[fixed] BG">
    <rect
       id="rect820"
       style="stroke:none;fill-opacity:1;fill:#FFFFFF"
       height="128.5"
       width="40.2999992371"
       y="0"
       x="0" />
  </g>
  <g
     id="g824"
     inkscape:groupmode="layer"
     inkscape:label="F.Cu" />
  <g
     id="g826"
     inkscape:groupmode="layer"
     inkscape:label="B.Cu-disabled" />
  <g
     id="g828"
     inkscape:groupmode="layer"
     inkscape:label="B.Adhes-disabled" />
  <g
     id="g830"
     inkscape:groupmode="layer"
     inkscape:label="F.Adhes-disabled" />
  <g
     id="g832"
     inkscape:groupmode="layer"
     inkscape:label="B.Paste-disabled" />
  <g
     id="g834"
     inkscape:groupmode="layer"
     inkscape:label="F.Paste-disabled" />
  <g
     id="g836"
     inkscape:groupmode="layer"
     inkscape:label="B.SilkS-disabled" />
  <g
     id="g838"
     inkscape:groupmode="layer"
     inkscape:label="F.SilkS-disabled" />
  <g
     id="g840"
     inkscape:groupmode="layer"
     inkscape:label="B.Mask-disabled" />
  <g
     id="g842"
     inkscape:groupmode="layer"
     inkscape:label="F.Mask-disabled" />
  <g
     id="g844"
     inkscape:groupmode="layer"
     inkscape:label="Dwgs.User-disabled" />
  <g
     id="g846"
     inkscape:groupmode="layer"
     inkscape:label="Cmts.User-disabled" />
  <g
     id="g848"
     inkscape:groupmode="layer"
     inkscape:label="Eco1.User-disabled" />
  <g
     id="g850"
     inkscape:groupmode="layer"
     inkscape:label="Eco2.User-disabled" />
  <g
     id="g852"
     inkscape:groupmode="layer"
     inkscape:label="Edge.Cuts"
     style="display:inline">
    <path
       inkscape:connector-curvature="0"
       style="clip-rule:evenodd;fill:#ff0000;fill-opacity:1;fill-rule:evenodd;stroke:none;stroke-width:0.109;stroke-linecap:round;stroke-linejoin:round;stroke-miterlimit:1.5;stroke-dasharray:none;stroke-opacity:1;paint-order:markers stroke fill"
       d="M0.0 -9.5770788e-07L40.3 -9.5770788e-07L40.3 128.5L0.0 128.5L0.0 -9.5770788e-07"
       id="rect953" />
    <path
       id="circle927"
       d="M32.427918 106.65414L32.411956705 106.970812858L32.365109647 107.278338041L32.2889307639 107.575158718L32.1849739938 107.85971806L32.0547932747 108.130459238L31.8999425446 108.385825421L31.7219757415 108.62425978L31.5224468034 108.844205484L31.3029096683 109.044105705L31.0649182742 109.222403612L30.8100265592 109.377542376L30.5397884612 109.507965166L30.2557579183 109.612115153L29.9594888685 109.688435508L29.6525352497 109.7353694L29.336451 109.75136L29.0203666747 109.735369496L28.7134129764 109.688435683L28.4171438444 109.612115392L28.1331132178 109.507965454L27.8628750358 109.3775427L27.6079832377 109.222403958L27.3699917628 109.044106061L27.1504545502 108.844205838L26.9509255391 108.624260121L26.7729586688 108.385825739L26.6181078786 108.130459523L26.4879271075 107.859718303L26.3839702949 107.575158911L26.30779138 107.278338176L26.2609443019 106.970812929L26.244983 106.65414L26.2601100503 106.348016987L26.304932572 106.047078967L26.3786108941 105.75335687L26.4803053454 105.468881623L26.6091762548 105.195684154L26.7643839513 104.935795392L26.9450887638 104.691246263L27.1504510211 104.464067697L27.3772069843 104.258322644L27.6213012605 104.077280926L27.8807066982 103.921783782L28.1533961456 103.79267245L28.4373424511 103.690788168L28.7305184631 103.616972174L29.03089703 103.572065705L29.336451 103.55691L29.6420049014 103.572065798L29.9423833932 103.616972345L30.2355593252 103.690788404L30.5195055473 103.792672738L30.7921949092 103.921784107L31.0516002609 104.077281274L31.295694452 104.258323002L31.5224503324 104.464068051L31.7278125124 104.691246601L31.9085172557 104.935795703L32.0637248918 105.195684429L32.1925957503 105.468881854L32.2942901607 105.753357051L32.3679684528 106.047079092L32.412790956 106.34801705L32.427918 106.65414L32.427918 106.65414"
       style="clip-rule:evenodd;fill:#cc0000;fill-opacity:1;fill-rule:evenodd;stroke:none;stroke-width:0.1443816px;stroke-linecap:round;stroke-linejoin:round;stroke-opacity:1" />
    <path
       id="circle929"
       d="M32.427918 54.6283910006L32.4127904942 54.9345136068L32.3679675984 55.2354511903L32.2942889828 55.5291728314L32.1925943177 55.8136476106L32.0637232734 56.0868446083L31.90851552 56.346732905L31.7278107281 56.5912815809L31.5224485677 56.8184597166L31.2956927688 57.0242043797L31.0515987108 57.2052457611L30.7921935379 57.3607426263L30.5195043945 57.4898537407L30.2355584246 57.5917378699L29.9423827728 57.6655537792L29.6420045831 57.7104602341L29.336451 57.725616L29.0308973482 57.7104603267L28.7305190835 57.6655539507L28.4373433517 57.5917381063L28.1533972985 57.4898540283L27.8807080695 57.3607429512L27.6213028106 57.2052461095L27.3772086675 57.0242047379L27.1504527859 56.8184600708L26.9450905482 56.5912819188L26.764385687 56.3467332161L26.6091778733 56.0868448838L26.480306778 55.8136478425L26.378612072 55.529173013L26.3049334264 55.2354513163L26.2601105121 54.9345136731L26.244983 54.6283910042L26.260110604 54.3222684024L26.3049335964 54.021330833L26.3786123065 53.7276092152L26.4803070631 53.4431344684L26.6091781954 53.1699375119L26.7643860324 52.910049265L26.9450909033 52.665500647L27.1504531371 52.4383225773L27.3772090025 52.2325779872L27.6213031191 52.0515366844L27.8807083424 51.8960399029L28.1533975279 51.7669288765L28.4373435309 51.6650448391L28.730519207 51.5912290246L29.0308974116 51.546322667L29.336451 51.531167L29.6525355308 51.5471576275L29.9594894064 51.5940915997L30.2557586861 51.6704120818L30.5397894289 51.7745622392L30.8100276939 51.9049852373L31.0649195405 52.0601242415L31.3029110277 52.2384224172L31.5224482146 52.4383229296L31.7219771604 52.6582689443L31.8999439244 52.8967036264L32.0547945655 53.1520701415L32.184975143 53.4228116549L32.2889317161 53.707371332L32.3651103438 54.0041923381L32.4119570854 54.3117178386L32.427918 54.6283909988L32.427918 54.628391"
       style="clip-rule:evenodd;fill:#cc0000;fill-opacity:1;fill-rule:evenodd;stroke:none;stroke-width:0.1443816px;stroke-linecap:round;stroke-linejoin:round;stroke-opacity:1" />
    <path
       id="circle931"
       d="M14.696046 54.6283910006L14.6809184942 54.9345136068L14.6360955984 55.2354511903L14.5624169828 55.5291728314L14.4607223177 55.8136476106L14.3318512734 56.0868446083L14.17664352 56.346732905L13.9959387281 56.5912815809L13.7905765677 56.8184597166L13.5638207688 57.0242043797L13.3197267108 57.2052457611L13.0603215379 57.3607426263L12.7876323945 57.4898537407L12.5036864246 57.5917378699L12.2105107728 57.6655537792L11.9101325831 57.7104602341L11.604579 57.725616L11.2990254031 57.7104602526L10.9986471985 57.6655538135L10.7054715306 57.5917379172L10.4215255441 57.4898537983L10.1488363835 57.3607426913L9.88943119345 57.2052458308L9.64533711843 57.0242044513L9.41858130303 56.8184597875L9.21321912719 56.5912816485L9.03251432136 56.3467329672L8.87730655598 56.0868446636L8.74843550144 55.8136476573L8.64674082816 55.5291728684L8.57306220655 55.2354512167L8.52823930703 54.934513622L8.5131118 54.6283910042L8.52907271546 54.3117178294L8.57591946062 54.0041923156L8.6520980944 53.7073712975L8.75605467569 53.42281161L8.88623526342 53.1520700878L9.04108591648 52.8967035656L9.21905269378 52.6582688783L9.41858165423 52.4383228607L9.63811885673 52.2384223474L9.8761103602 52.0601241734L10.1310022235 51.9049851734L10.4012405057 51.7745621821L10.6852712654 51.6704120343L10.9815405618 51.5940915648L11.2884944537 51.5471576085L11.604579 51.531167L11.9206635304 51.5471576275L12.2276174057 51.5940915995L12.5238866851 51.6704120815L12.8079174276 51.7745622387L13.0781556925 51.9049852365L13.3330475388 52.0601242404L13.5710390259 52.2384224157L13.7905762127 52.4383229278L13.9901051586 52.658268942L14.1680719226 52.8967036238L14.3229225638 53.1520701384L14.4531031415 53.4228116514L14.5570597148 53.707371328L14.6332383429 54.0041923337L14.6800850849 54.3117178337L14.696046 54.6283909936L14.696046 54.628391"
       style="clip-rule:evenodd;fill:#cc0000;fill-opacity:1;fill-rule:evenodd;stroke:none;stroke-width:0.1443816px;stroke-linecap:round;stroke-linejoin:round;stroke-opacity:1" />
    <path
       id="circle933"
       d="M32.427918 71.9706730012L32.4119570854 72.2873461614L32.3651103438 72.5948716619L32.2889317161 72.891692668L32.184975143 73.1762523451L32.0547945655 73.4469938585L31.8999439244 73.7023603736L31.7219771604 73.9407950557L31.5224482146 74.1607410704L31.3029110277 74.3606415828L31.0649195405 74.5389397585L30.8100276939 74.6940787627L30.5397894289 74.8245017608L30.2557586861 74.9286519182L29.9594894064 75.0049724003L29.6525355308 75.0519063725L29.336451 75.067897L29.0308974119 75.0527413331L28.7305192077 75.0078349755L28.4373435319 74.9340191612L28.1533975291 74.832135124L27.8807083439 74.7030240979L27.6213031207 74.5475273167L27.3772090043 74.3664860143L27.150453139 74.1607414246L26.9450909052 73.9335633553L26.7643860343 73.6890147378L26.6091781971 73.4291264914L26.4803070646 73.1559295354L26.3786123077 72.8714547892L26.3049335974 72.577733172L26.2601106045 72.2767956032L26.244983 71.970673002L26.2601105118 71.6645503318L26.304933426 71.3636126875L26.3786120714 71.0698909899L26.4803067772 70.7854161598L26.6091778724 70.512219118L26.7643856861 70.2523307853L26.9450905472 70.0077820824L27.1504527849 69.7806039301L27.3772086666 69.5748592629L27.6213028098 69.3938178911L27.8807080688 69.2383210492L28.1533972978 69.109209972L28.4373433512 69.0073258938L28.7305190832 68.9335100494L29.0308973481 68.8886036733L29.336451 68.873448L29.6420045831 68.8886037659L29.9423827728 68.9335102208L30.2355584246 69.0073261301L30.5195043945 69.1092102593L30.7921935379 69.2383213737L31.0515987108 69.3938182389L31.2956927688 69.5748596203L31.5224485677 69.7806042834L31.7278107281 70.0077824191L31.90851552 70.252331095L32.0637232734 70.5122193917L32.1925943177 70.7854163894L32.2942889828 71.0698911686L32.3679675984 71.3636128097L32.4127904942 71.6645503932L32.427918 71.9706729994L32.427918 71.970673"
       style="clip-rule:evenodd;fill:#cc0000;fill-opacity:1;fill-rule:evenodd;stroke:none;stroke-width:0.1232526px;stroke-linecap:round;stroke-linejoin:round;stroke-opacity:1" />
    <path
       id="circle935"
       d="M14.696046 71.9706730064L14.6800850849 72.2873461663L14.6332383429 72.5948716663L14.5570597148 72.891692672L14.4531031415 73.1762523486L14.3229225638 73.4469938616L14.1680719226 73.7023603762L13.9901051586 73.940795058L13.7905762127 74.1607410722L13.5710390259 74.3606415843L13.3330475388 74.5389397596L13.0781556925 74.6940787635L12.8079174276 74.8245017613L12.5238866851 74.9286519185L12.2276174057 75.0049724005L11.9206635304 75.0519063725L11.604579 75.067897L11.2884944541 75.0519063916L10.9815405626 75.0049724353L10.6852712665 74.928651966L10.4012405069 74.8245018185L10.1310022251 74.6940788275L9.8761103619 74.5389398278L9.63811885856 74.3606416541L9.41858165612 74.1607411413L9.21905269568 73.9407951241L9.04108591833 73.7023604373L8.88623526515 73.4469939157L8.75605467724 73.176252394L8.65209809567 72.891692707L8.57591946155 72.5948716895L8.52907271597 72.2873461763L8.5131118 71.970673002L8.52823930678 71.6645503829L8.5730622061 71.3636127871L8.64674082753 71.0698911345L8.74843550068 70.7854163449L8.87730655512 70.5122193382L9.03251432044 70.2523310342L9.21321912624 70.0077823527L9.41858130209 69.7806042135L9.64533711753 69.5748595494L9.88943119263 69.3938181698L10.1488363828 69.2383213091L10.4215255435 69.109210202L10.7054715302 69.007326083L10.9986471982 68.9335101866L11.299025403 68.8886037474L11.604579 68.873448L11.9101325831 68.8886037659L12.2105107728 68.9335102208L12.5036864246 69.0073261301L12.7876323945 69.1092102593L13.0603215379 69.2383213737L13.3197267108 69.3938182389L13.5638207688 69.5748596203L13.7905765677 69.7806042834L13.9959387281 70.0077824191L14.17664352 70.252331095L14.3318512734 70.5122193917L14.4607223177 70.7854163894L14.5624169828 71.0698911686L14.6360955984 71.3636128097L14.6809184942 71.6645503932L14.696046 71.9706729994L14.696046 71.970673"
       style="clip-rule:evenodd;fill:#cc0000;fill-opacity:1;fill-rule:evenodd;stroke:none;stroke-width:0.1443816px;stroke-linecap:round;stroke-linejoin:round;stroke-opacity:1" />
    <path
       id="circle937"
       d="M32.427918 89.3125840012L32.4119570854 89.6292571614L32.3651103438 89.9367826619L32.2889317161 90.233603668L32.184975143 90.5181633451L32.0547945655 90.7889048585L31.8999439244 91.0442713736L31.7219771604 91.2827060557L31.5224482146 91.5026520704L31.3029110277 91.7025525828L31.0649195405 91.8808507585L30.8100276939 92.0359897627L30.5397894289 92.1664127608L30.2557586861 92.2705629182L29.9594894064 92.3468834003L29.6525355308 92.3938173725L29.336451 92.409808L29.0308974119 92.3946523331L28.7305192077 92.3497459755L28.4373435319 92.2759301612L28.1533975291 92.174046124L27.8807083439 92.0449350979L27.6213031207 91.8894383167L27.3772090043 91.7083970143L27.150453139 91.5026524246L26.9450909052 91.2754743553L26.7643860343 91.0309257377L26.6091781971 90.771037491L26.4803070646 90.4978405344L26.3786123077 90.2133657871L26.3049335974 89.9196441684L26.2601106045 89.6187065975L26.244983 89.3125839936L26.260110605 89.0064613926L26.3049335983 88.7055238239L26.378612309 88.411802207L26.4803070661 88.1273274611L26.6091781988 87.8541305055L26.7643860361 87.5942422595L26.9450909071 87.3496936424L27.1504531408 87.1225155736L27.377209006 86.9167709843L27.6213031224 86.7357296822L27.8807083453 86.5802329013L28.1533975303 86.4511218755L28.4373435328 86.3492378385L28.7305192083 86.2754220244L29.0308974122 86.2305156669L29.336451 86.21536L29.6525355308 86.2313506275L29.9594894064 86.2782845997L30.2557586861 86.3546050818L30.5397894289 86.4587552392L30.8100276939 86.5891782373L31.0649195405 86.7443172415L31.3029110277 86.9226154172L31.5224482146 87.1225159296L31.7219771604 87.3424619443L31.8999439244 87.5808966264L32.0547945655 87.8362631415L32.184975143 88.1070046549L32.2889317161 88.391564332L32.3651103438 88.6883853381L32.4119570854 88.9959108386L32.427918 89.3125839988L32.427918 89.312584"
       style="clip-rule:evenodd;fill:#cc0000;fill-opacity:1;fill-rule:evenodd;stroke:none;stroke-width:0.1443816px;stroke-linecap:round;stroke-linejoin:round;stroke-opacity:1" />
    <path
       id="circle939"
       d="M14.696046 89.3125840064L14.6800850849 89.6292571663L14.6332383429 89.9367826663L14.5570597148 90.233603672L14.4531031415 90.5181633486L14.3229225638 90.7889048616L14.1680719226 91.0442713762L13.9901051586 91.282706058L13.7905762127 91.5026520722L13.5710390259 91.7025525843L13.3330475388 91.8808507596L13.0781556925 92.0359897635L12.8079174276 92.1664127613L12.5238866851 92.2705629185L12.2276174057 92.3468834005L11.9206635304 92.3938173725L11.604579 92.409808L11.2884944541 92.3938173916L10.9815405626 92.3468834353L10.6852712665 92.270562966L10.4012405069 92.1664128185L10.1310022251 92.0359898276L9.8761103619 91.8808508279L9.63811885856 91.7025526543L9.41858165612 91.5026521416L9.21905269568 91.2827061245L9.04108591833 91.0442714379L8.88623526515 90.7889049164L8.75605467724 90.5181633949L8.65209809567 90.2336037082L8.57591946155 89.936782691L8.52907271597 89.629257178L8.5131118 89.3125840042L8.52907271546 88.9959108294L8.57591946062 88.6883853156L8.6520980944 88.3915642975L8.75605467569 88.10700461L8.88623526342 87.8362630878L9.04108591648 87.5808965656L9.21905269378 87.3424618783L9.41858165423 87.1225158607L9.63811885673 86.9226153474L9.8761103602 86.7443171734L10.1310022235 86.5891781734L10.4012405057 86.4587551821L10.6852712654 86.3546050343L10.9815405618 86.2782845648L11.2884944537 86.2313506085L11.604579 86.21536L11.9206635304 86.2313506275L12.2276174057 86.2782845995L12.5238866851 86.3546050815L12.8079174276 86.4587552387L13.0781556925 86.5891782365L13.3330475388 86.7443172404L13.5710390259 86.9226154157L13.7905762127 87.1225159278L13.9901051586 87.342461942L14.1680719226 87.5808966238L14.3229225638 87.8362631384L14.4531031415 88.1070046514L14.5570597148 88.391564328L14.6332383429 88.6883853337L14.6800850849 88.9959108337L14.696046 89.3125839936L14.696046 89.312584"
       style="clip-rule:evenodd;fill:#cc0000;fill-opacity:1;fill-rule:evenodd;stroke:none;stroke-width:0.1443816px;stroke-linecap:round;stroke-linejoin:round;stroke-opacity:1" />
    <path
       id="circle941"
       d="M14.696046 106.65414L14.680084705 106.970812858L14.633237647 107.278338041L14.5570587639 107.575158718L14.4531019938 107.85971806L14.3229212747 108.130459238L14.1680705446 108.385825421L13.9901037415 108.62425978L13.7905748034 108.844205484L13.5710376683 109.044105705L13.3330462742 109.222403612L13.0781545592 109.377542376L12.8079164612 109.507965166L12.5238859183 109.612115153L12.2276168685 109.688435508L11.9206632497 109.7353694L11.604579 109.75136L11.2884947352 109.735369419L10.9815411005 109.688435543L10.6852720342 109.612115201L10.4012414746 109.507965224L10.1310033598 109.37754244L9.87611162816 109.222403681L9.63812021792 109.044105776L9.41858306733 108.844205555L9.21905411463 108.624259848L9.04108729809 108.385825485L8.88623655594 108.130459295L8.75605582644 107.859718109L8.65209904784 107.575158757L8.57592015841 107.278338068L8.52907309637 106.970812872L8.5131118 106.65414L8.52823884523 106.348017038L8.57306135215 106.047079067L8.64673965019 105.753357015L8.74843406882 105.468881808L8.87730493749 105.195684374L9.03251258566 104.93579564L9.21321734277 104.691246533L9.41857953828 104.464067981L9.64533543523 104.25832293L9.88942964336 104.077281205L10.1488350122 103.921784042L10.4215243912 103.79267268L10.70547063 103.690788357L10.9986465781 103.616972311L11.2990250849 103.572065779L11.604579 103.55691L11.9101329013 103.572065798L12.2105113931 103.616972345L12.5036873252 103.690788404L12.7876335472 103.792672738L13.0603229092 103.921784107L13.3197282608 104.077281274L13.5638224519 104.258323002L13.7905783323 104.464068051L13.9959405124 104.691246601L14.1766452556 104.935795702L14.3318528917 105.195684429L14.4607237502 105.468881854L14.5624181607 105.753357051L14.6360964528 106.047079092L14.680918956 106.34801705L14.696046 106.65414L14.696046 106.65414"
       style="clip-rule:evenodd;fill:#cc0000;fill-opacity:1;fill-rule:evenodd;stroke:none;stroke-width:0.1443816px;stroke-linecap:round;stroke-linejoin:round;stroke-opacity:1" />
    <path
       id="circle943"
       d="M22.792897 38.272362L22.7799644367 38.5340660247L22.7416453027 38.7913373699L22.6786574323 39.0424398038L22.5917186595 39.2856370944L22.4815468185 39.5191930102L22.3488597433 39.7413713192L22.194375268 39.9504357897L22.0188112269 40.1446501898L21.8249577817 40.3205411218L21.6162818747 40.4753132287L21.3945165107 40.6082473401L21.1613946944 40.7186242857L20.9186494304 40.8057248948L20.6680137236 40.8688299973L20.4112205785 40.9072204224L20.150003 40.920177L19.8797825354 40.906506601L19.6173678642 40.8663827576L19.3640874491 40.8011364067L19.1212697532 40.7120984854L18.8902432394 40.6005999306L18.6723363706 40.4679716794L18.4688776096 40.3155446687L18.2811954196 40.1446498356L18.1106182632 39.9566181169L17.9584746036 39.7527804498L17.8260929036 39.5344677711L17.7148016261 39.3030110179L17.6259292341 39.0597411273L17.5608041904 38.805989036L17.5207549581 38.5430856813L17.50711 38.272362L17.5207549581 38.0016383187L17.5608041904 37.738734964L17.6259292341 37.4849828727L17.7148016261 37.2417129821L17.8260929036 37.0102562289L17.9584746036 36.7919435502L18.1106182632 36.5881058831L18.2811954196 36.4000741644L18.4688776096 36.2291793313L18.6723363706 36.0767523206L18.8902432394 35.9441240694L19.1212697532 35.8326255146L19.3640874491 35.7435875933L19.6173678642 35.6783412424L19.8797825354 35.638217399L20.150003 35.624547L20.4112205785 35.6375035776L20.6680137236 35.6758940027L20.9186494304 35.7389991052L21.1613946944 35.8260997143L21.3945165107 35.9364766599L21.6162818747 36.0694107713L21.8249577817 36.2241828782L22.0188112269 36.4000738102L22.194375268 36.5942882103L22.3488597433 36.8033526808L22.4815468185 37.0255309898L22.5917186595 37.2590869056L22.6786574323 37.5022841962L22.7416453027 37.7533866301L22.7799644367 38.0106579753L22.792897 38.272362L22.792897 38.272362"
       style="clip-rule:evenodd;fill:#cc0000;fill-rule:evenodd;stroke:none;stroke-width:0.10916658px;stroke-linecap:round;stroke-linejoin:round;stroke-miterlimit:1.5;fill-opacity:1" />
    <path
       id="circle945"
       d="M7.1635202 39.0062180001L7.14863845866 39.1541162057L7.10595702558 39.2918690744L7.03842143824 39.4165255847L6.94897723414 39.5251347147L6.84056995077 39.6147454429L6.71614512563 39.6824067477L6.57864829621 39.7251676072L6.431025 39.740077L6.2834017193 39.7251675897L6.14590490647 39.6824067188L6.02148009803 39.6147454083L5.91307283051 39.5251346793L5.82362864042 39.4165255528L5.75609306429 39.2918690501L5.71341163864 39.1541161921L5.6985299 39.0062179999L5.71341163864 38.8583198078L5.75609306429 38.7205669499L5.82362864042 38.5959104471L5.91307283051 38.4873013207L6.02148009803 38.3976905917L6.14590490647 38.3300292812L6.2834017193 38.2872684103L6.431025 38.272359L6.57864829621 38.2872683928L6.71614512563 38.3300292523L6.84056995077 38.3976905571L6.94897723414 38.4873012853L7.03842143824 38.5959104153L7.10595702558 38.7205669256L7.14863845866 38.8583197943L7.1635202 39.0062179999L7.1635202 39.006218"
       style="clip-rule:evenodd;fill:#cc0000;fill-opacity:1;fill-rule:evenodd;stroke:none;stroke-width:0.109;stroke-linecap:round;stroke-linejoin:round;stroke-miterlimit:1.5;stroke-dasharray:none" />
    <path
       id="rect947"
       d="M13.917468 14.780756L26.382902 14.780756L26.382902 26.571499L13.917468 26.571499L13.917468 14.780756"
       style="clip-rule:evenodd;fill:#cc0000;fill-rule:evenodd;stroke:none;stroke-width:0.10916658px;stroke-linecap:round;stroke-linejoin:round;stroke-miterlimit:1.5;fill-opacity:1" />
    <path
       id="circle949"
       d="M9.7972697 21.2853829963L9.78893958132 21.4506570532L9.76448992072 21.6111568788L9.72473173145 21.7660699496L9.67047602679 21.9145837423L9.60253382001 22.0558857332L9.52171612438 22.1891633989L9.32469831962 22.4283956607L9.08591071866 22.6257803397L8.95288077777 22.7067485269L8.81184142763 22.7748172479L8.66360368152 22.8291739792L8.5089785527 22.8690061973L8.34877705444 22.8935013787L8.1838102 22.901847L8.01884335333 22.8935013692L7.85864186321 22.8690061799L7.70401674278 22.8291739555L7.55577900518 22.7748172194L7.41473966357 22.7067484951L7.28170973109 22.6257803059L7.04292214607 22.4283956269L6.8459043553 22.1891633697L6.76508666562 22.0558857079L6.69714446392 21.9145837218L6.64288876337 21.766069935L6.60313057711 21.6111568707L6.57868091827 21.4506570524L6.5703508 21.2853830037L6.57868091798 21.1201089539L6.60313057659 20.9596091347L6.64288876267 20.8046960696L6.69714446307 20.656182282L6.76508666466 20.5148802953L6.84590435428 20.3816026329L7.04292214503 20.1423703747L7.28170973015 19.9449856949L7.41473966273 19.8640175055L7.55577900447 19.795948781L7.70401674221 19.7415920447L7.85864186281 19.7017598202L8.01884335312 19.6772646308L8.1838102 19.668919L8.34877705444 19.6772646213L8.5089785527 19.7017598027L8.66360368152 19.7415920208L8.81184142763 19.7959487521L8.95288077777 19.8640174731L9.08591071866 19.9449856603L9.32469831962 20.1423703393L9.52171612438 20.3816026011L9.60253382001 20.5148802668L9.67047602679 20.6561822577L9.72473173145 20.8046960504L9.76448992072 20.9596091212L9.78893958132 21.1201089468L9.7972697 21.2853830037L9.7972697 21.285383"
       style="clip-rule:evenodd;fill:#cc0000;fill-opacity:1;fill-rule:evenodd;stroke:none;stroke-width:0.109;stroke-linecap:round;stroke-linejoin:round;stroke-miterlimit:1.5;stroke-dasharray:none" />
    <path
       id="circle951"
       d="M33.732482 21.2853829963L33.7245867922 21.4451506371L33.7011933414 21.6022121712L33.6627398783 21.7555076469L33.6096646331 21.9039771125L33.5424058366 22.0465606162L33.461401719 22.1821982062L33.3670905109 22.3098299306L33.2599104428 22.4283958378L33.1415648802 22.5357754539L33.0141703562 22.630262242L32.8787848524 22.7114171561L32.7364663508 22.77880115L32.5882728329 22.8319751775L32.4352622807 22.8705001924L32.2784926758 22.8939371487L32.119022 22.901847L31.9540551834 22.893501331L31.7938537248 22.8690061099L31.6392286371 22.8291738597L31.4909909329 22.7748171037L31.3499516247 22.7067483649L31.2169217254 22.6257801666L30.9781342036 22.4283954838L30.7811164689 22.1891632404L30.7002988033 22.0558855913L30.6323566225 21.9145836215L30.5781009391 21.7660698541L30.5383427658 21.6111568122L30.5138931152 21.4506570191L30.505563 21.2853829978L30.5138931158 21.1201089767L30.5383427668 20.9596091838L30.5781009405 20.8046961423L30.6323566242 20.6561823752L30.7002988052 20.5148804057L30.7811164709 20.381602757L30.9781342057 20.1423705143L31.2169217272 19.9449858322L31.3499516264 19.8640176342L31.4909909343 19.7959488957L31.6392286383 19.74159214L31.7938537256 19.70175989L31.9540551838 19.677264669L32.119022 19.668919L32.2784926756 19.6768288513L32.4352622803 19.7002658075L32.5882728324 19.7387908223L32.7364663501 19.7919648497L32.8787848516 19.8593488434L33.0141703553 19.9405037573L33.1415648792 20.0349905453L33.2599104418 20.1423701611L33.3670905099 20.2609360681L33.461401718 20.3885677923L33.5424058356 20.524205382L33.6096646323 20.6667888854L33.6627398776 20.8152583508L33.7011933409 20.9685538263L33.7245867919 21.1256153602L33.732482 21.2853830007L33.732482 21.285383"
       style="clip-rule:evenodd;fill:#cc0000;fill-opacity:1;fill-rule:evenodd;stroke:none;stroke-width:0.109;stroke-linecap:round;stroke-linejoin:round;stroke-miterlimit:1.5;stroke-dasharray:none" />
  </g>
  <g
     id="g854"
     inkscape:groupmode="layer"
     inkscape:label="Margin-disabled" />
  <g
     id="g856"
     inkscape:groupmode="layer"
     inkscape:label="B.CrtYd-disabled" />
  <g
     id="g858"
     inkscape:groupmode="layer"
     inkscape:label="F.CrtYd-disabled" />
  <g
     id="g860"
     inkscape:groupmode="layer"
     inkscape:label="B.Fab-disabled" />
  <g
     id="g862"
     inkscape:groupmode="layer"
     inkscape:label="F.Fab-disabled" />
  <g
     id="g864"
     inkscape:groupmode="layer"
     inkscape:label="Drill" />
</svg>
