<?xml version="1.0" encoding="UTF-8" standalone="no"?><!DOCTYPE svg PUBLIC "-//W3C//DTD SVG 1.1//EN" "http://www.w3.org/Graphics/SVG/1.1/DTD/svg11.dtd"><svg width="100%" height="100%" viewBox="0 0 115 365" version="1.1" xmlns="http://www.w3.org/2000/svg" xmlns:xlink="http://www.w3.org/1999/xlink" xml:space="preserve" xmlns:serif="http://www.serif.com/" style="fill-rule:evenodd;clip-rule:evenodd;stroke-linejoin:round;stroke-miterlimit:2;"><rect x="0" y="0" width="114.236" height="364.252" style="fill:#930df2;"/><circle cx="83.229" cy="302.429" r="8.787" style="fill:#e61a62;"/><circle cx="83.229" cy="154.829" r="8.787" style="fill:#e61a62;"/><circle cx="32.829" cy="154.829" r="8.787" style="fill:#e61a62;"/><circle cx="83.229" cy="204.03" r="8.787" style="fill:#e61a62;"/><circle cx="32.829" cy="204.03" r="8.787" style="fill:#e61a62;"/><circle cx="83.229" cy="253.23" r="8.787" style="fill:#e61a62;"/><circle cx="32.829" cy="253.23" r="8.787" style="fill:#e61a62;"/><circle cx="32.829" cy="302.429" r="8.787" style="fill:#e61a62;"/><circle cx="57.118" cy="108.426" r="7.512" style="fill:#e61a62;"/><circle cx="18.124" cy="110.508" r="2.082" style="fill:#e61a62;"/><rect x="39.403" y="41.779" width="35.431" height="33.451" style="fill:#e61a62;"/><circle cx="23.106" cy="60.233" r="4.586" style="fill:#e61a62;"/><circle cx="91.138" cy="60.233" r="4.586" style="fill:#e61a62;"/><path d="M41.057,34.913c-0.353,0 -0.728,-0.031 -1.125,-0.092c-0.397,-0.061 -0.772,-0.168 -1.125,-0.322c-0.353,-0.153 -0.647,-0.368 -0.883,-0.643c-0.235,-0.276 -0.353,-0.644 -0.353,-1.104c0,-0.674 0.191,-1.187 0.574,-1.54c0.382,-0.352 0.853,-0.613 1.412,-0.781c0.559,-0.169 1.147,-0.261 1.765,-0.276c0.617,-0.016 1.147,-0.023 1.588,-0.023l2.846,0c0.868,0 1.552,-0.031 2.052,-0.092c0.353,-0.429 0.618,-0.981 0.794,-1.655c0.177,-0.675 0.265,-1.226 0.265,-1.655c0,-1.226 -0.316,-2.491 -0.949,-3.793c-0.632,-1.303 -1.346,-2.644 -2.14,-4.023l-0.397,-0.69c-0.265,-0.459 -0.537,-0.919 -0.816,-1.379c-0.28,-0.459 -0.552,-0.981 -0.816,-1.563c-2.03,3.218 -4.008,6.276 -5.935,9.172c-1.927,2.896 -3.817,5.816 -5.67,8.758c-0.147,0.245 -0.382,0.368 -0.706,0.368c-0.235,0 -0.441,-0.085 -0.618,-0.253c-0.176,-0.169 -0.265,-0.376 -0.265,-0.621c0,-0.184 0.074,-0.398 0.221,-0.643c1.794,-2.789 3.331,-5.172 4.611,-7.149c1.28,-1.977 2.383,-3.671 3.309,-5.08c0.927,-1.41 1.714,-2.629 2.361,-3.655c0.647,-1.027 1.265,-2 1.853,-2.92c-0.441,-1.195 -0.662,-2.421 -0.662,-3.678c0,-1.042 0.162,-2.007 0.486,-2.896c0.206,-0.521 0.456,-1.057 0.75,-1.609c0.294,-0.552 0.632,-1.05 1.015,-1.494c0.382,-0.445 0.809,-0.805 1.279,-1.081c0.471,-0.275 1,-0.413 1.589,-0.413c0.853,0 1.485,0.337 1.897,1.011c0.235,0.368 0.353,0.843 0.353,1.425c0,0.368 -0.066,0.766 -0.199,1.196c-0.132,0.429 -0.316,0.842 -0.551,1.241c-0.53,0.919 -1.14,1.954 -1.831,3.103c-0.691,1.149 -1.42,2.306 -2.184,3.471c0.235,0.582 0.529,1.18 0.882,1.793c0.353,0.613 0.721,1.257 1.103,1.931l0.397,0.69c0.824,1.409 1.596,2.865 2.317,4.367c0.721,1.502 1.081,2.988 1.081,4.46c0,0.919 -0.162,1.777 -0.485,2.574c0.735,-0.368 1.47,-0.912 2.206,-1.632c0.735,-0.72 1.559,-1.617 2.471,-2.689c0.176,-0.184 0.397,-0.276 0.662,-0.276c0.294,0 0.5,0.099 0.617,0.299c0.118,0.199 0.177,0.39 0.177,0.574c0,0.215 -0.059,0.399 -0.177,0.552c-1.412,1.686 -2.677,2.965 -3.794,3.839c-1.118,0.873 -2.31,1.433 -3.574,1.678c-0.471,0.521 -1.015,0.981 -1.633,1.379c-0.618,0.399 -1.272,0.736 -1.964,1.011c-0.691,0.276 -1.389,0.483 -2.095,0.621c-0.706,0.138 -1.368,0.207 -1.986,0.207Zm6.266,-31.032c-0.442,0 -0.934,0.268 -1.479,0.804c-0.544,0.536 -1.036,1.418 -1.478,2.644c-0.264,0.735 -0.397,1.486 -0.397,2.252c0,0.276 0.015,0.56 0.044,0.851c0.03,0.291 0.074,0.59 0.133,0.896c0.617,-0.98 1.198,-1.915 1.743,-2.804c0.544,-0.889 1.051,-1.732 1.522,-2.529c0.147,-0.245 0.265,-0.505 0.353,-0.781c0.088,-0.276 0.132,-0.491 0.132,-0.644c0,-0.46 -0.191,-0.689 -0.573,-0.689Zm-4.898,28.044c-0.265,0 -0.581,0.007 -0.949,0.023c-0.368,0.015 -0.713,0.046 -1.037,0.092c-0.323,0.046 -0.595,0.122 -0.816,0.23c-0.221,0.107 -0.331,0.252 -0.331,0.436c0,0.092 0.074,0.169 0.221,0.23c0.147,0.061 0.323,0.1 0.529,0.115c0.206,0.015 0.397,0.031 0.574,0.046c0.176,0.015 0.309,0.023 0.397,0.023c0.735,0 1.5,-0.1 2.294,-0.299c0.795,-0.199 1.559,-0.498 2.295,-0.896l-3.177,0Z" style="fill-rule:nonzero;"/><path d="M57.295,33.304c-0.589,0 -1.096,-0.123 -1.523,-0.368c-0.426,-0.245 -0.772,-0.567 -1.037,-0.965c-0.264,-0.399 -0.463,-0.843 -0.595,-1.334c-0.133,-0.49 -0.199,-0.996 -0.199,-1.517c0,-0.766 0.118,-1.616 0.353,-2.551c0.236,-0.935 0.596,-1.878 1.081,-2.828c0.486,-0.95 1.081,-1.854 1.787,-2.712c0.706,-0.858 1.53,-1.609 2.471,-2.253c0.118,-0.061 0.228,-0.115 0.331,-0.161c0.103,-0.046 0.184,-0.069 0.243,-0.069c0.235,0 0.441,0.092 0.618,0.276c0.176,0.184 0.264,0.383 0.264,0.598c0,0.306 -0.132,0.567 -0.397,0.781c-0.794,0.552 -1.5,1.203 -2.118,1.954c-0.618,0.751 -1.147,1.533 -1.588,2.345c-0.442,0.812 -0.772,1.617 -0.993,2.414c-0.221,0.796 -0.331,1.532 -0.331,2.206c0,0.613 0.132,1.165 0.397,1.655c0.265,0.491 0.677,0.736 1.236,0.736c0.676,0 1.36,-0.253 2.051,-0.759c0.692,-0.505 1.287,-1.003 1.787,-1.494c-0.941,-0.919 -1.412,-2.283 -1.412,-4.091c0,-0.583 0.089,-1.272 0.265,-2.069c0.177,-0.797 0.441,-1.563 0.794,-2.299c0.353,-0.736 0.795,-1.356 1.324,-1.862c0.53,-0.506 1.133,-0.759 1.809,-0.759c0.471,0 0.853,0.123 1.147,0.368c0.295,0.245 0.523,0.552 0.684,0.92c0.162,0.368 0.272,0.758 0.331,1.172c0.059,0.414 0.089,0.789 0.089,1.126c0,1.288 -0.228,2.498 -0.684,3.632c-0.456,1.134 -0.993,2.192 -1.611,3.173l0.132,0c0.677,0 1.405,-0.284 2.185,-0.851c0.779,-0.567 1.684,-1.463 2.713,-2.689c0.177,-0.184 0.397,-0.276 0.662,-0.276c0.294,0 0.5,0.099 0.618,0.299c0.117,0.199 0.176,0.406 0.176,0.62c0,0.245 -0.073,0.445 -0.22,0.598c-0.942,1.073 -1.92,2.023 -2.935,2.85c-1.014,0.828 -2.095,1.242 -3.243,1.242c-0.5,0 -0.926,-0.062 -1.279,-0.184c-0.736,0.827 -1.559,1.555 -2.471,2.183c-0.912,0.629 -1.883,0.943 -2.912,0.943Zm6.618,-13.333c-0.353,0 -0.684,0.192 -0.993,0.575c-0.308,0.383 -0.573,0.843 -0.794,1.379c-0.22,0.537 -0.39,1.104 -0.507,1.701c-0.118,0.598 -0.177,1.111 -0.177,1.541c0,0.337 0.052,0.781 0.155,1.333c0.103,0.551 0.316,0.996 0.639,1.333c0.589,-0.889 1.104,-1.87 1.545,-2.942c0.441,-1.073 0.662,-2.1 0.662,-3.081c0,-0.122 -0.008,-0.291 -0.022,-0.505c-0.015,-0.215 -0.037,-0.422 -0.067,-0.621c-0.029,-0.199 -0.08,-0.368 -0.154,-0.506c-0.074,-0.138 -0.169,-0.207 -0.287,-0.207Z" style="fill-rule:nonzero;"/><path d="M71.811,33.35c-0.441,0 -0.809,-0.1 -1.103,-0.299c-0.294,-0.199 -0.529,-0.444 -0.706,-0.736c-0.176,-0.291 -0.309,-0.62 -0.397,-0.988c-0.088,-0.368 -0.132,-0.736 -0.132,-1.103c0,-0.705 0.051,-1.38 0.154,-2.023c0.103,-0.644 0.243,-1.272 0.419,-1.885c-0.117,0.122 -0.294,0.184 -0.529,0.184c-0.265,0 -0.478,-0.084 -0.64,-0.253c-0.162,-0.169 -0.243,-0.376 -0.243,-0.621c0,-0.245 0.074,-0.444 0.221,-0.597c0.206,-0.215 0.552,-0.621 1.037,-1.219c0.485,-0.597 1.066,-1.356 1.743,-2.275c0.882,-2.422 1.662,-4.491 2.338,-6.207c0.677,-1.716 1.273,-3.157 1.787,-4.321c0.515,-1.165 0.934,-2.077 1.258,-2.736c0.324,-0.659 0.559,-1.126 0.706,-1.402c0.853,-1.625 1.633,-2.682 2.339,-3.172c0.706,-0.491 1.294,-0.736 1.765,-0.736c0.676,0 1.154,0.253 1.434,0.759c0.279,0.505 0.419,1.034 0.419,1.586c0,0.337 -0.037,0.682 -0.111,1.034c-0.073,0.353 -0.198,0.697 -0.375,1.035c-0.411,0.888 -1.007,1.969 -1.787,3.241c-0.779,1.272 -1.64,2.597 -2.581,3.977c-0.941,1.379 -1.905,2.758 -2.89,4.137c-0.985,1.379 -1.905,2.621 -2.758,3.724c-0.206,0.552 -0.426,1.157 -0.662,1.816c-0.235,0.659 -0.448,1.341 -0.639,2.046c-0.192,0.705 -0.353,1.387 -0.486,2.046c-0.132,0.659 -0.198,1.264 -0.198,1.816c0,0.367 0.036,0.682 0.11,0.942c0.074,0.261 0.287,0.391 0.64,0.391c0.206,0 0.492,-0.138 0.86,-0.414c0.368,-0.276 0.772,-0.636 1.214,-1.08c0.441,-0.445 0.897,-0.935 1.367,-1.471c0.471,-0.537 0.927,-1.065 1.368,-1.586c0.324,-0.368 0.633,-0.721 0.927,-1.058c0.294,-0.337 0.559,-0.628 0.794,-0.873c0.206,-0.215 0.427,-0.322 0.662,-0.322c0.294,0 0.507,0.099 0.64,0.299c0.132,0.199 0.198,0.406 0.198,0.62c0,0.245 -0.088,0.46 -0.264,0.644c-0.236,0.245 -0.478,0.521 -0.728,0.827c-0.251,0.307 -0.537,0.644 -0.861,1.012c-0.5,0.582 -1.022,1.18 -1.566,1.793c-0.544,0.613 -1.089,1.172 -1.633,1.678c-0.544,0.506 -1.081,0.927 -1.61,1.264c-0.53,0.337 -1.03,0.506 -1.501,0.506Zm9.972,-28.596c-0.235,0 -0.566,0.215 -0.992,0.644c-0.427,0.429 -0.949,1.21 -1.567,2.344c-0.676,1.257 -1.331,2.652 -1.963,4.184c-0.633,1.532 -1.228,3.019 -1.787,4.46c0.647,-0.92 1.287,-1.839 1.919,-2.759c0.633,-0.919 1.221,-1.808 1.765,-2.666c0.544,-0.859 1.03,-1.663 1.456,-2.414c0.427,-0.751 0.772,-1.402 1.037,-1.954c0.118,-0.245 0.199,-0.483 0.243,-0.713c0.044,-0.229 0.066,-0.421 0.066,-0.574c0,-0.153 -0.015,-0.284 -0.044,-0.391c-0.03,-0.107 -0.074,-0.161 -0.133,-0.161Z" style="fill-rule:nonzero;"/><path d="M25.605,307.431c-0.039,1.371 0.06,2.74 0.304,4.071c0.035,0.203 0.035,0.202 0.069,0.405c0.514,3.259 0.639,6.591 0.359,9.871c-0.059,0.692 -0.141,1.385 -0.305,2.061c0,0 -0.191,0.573 -0.693,0.678c-0.477,0.1 -1.163,-0.227 -1.211,-0.063c-0.273,1.047 0.101,2.225 0.382,3.4c0.548,2.282 1.159,4.623 2.308,6.6c0,0 0.521,0.446 -0.261,0.906c-0.237,0.14 -1.01,-0.093 -1.01,-0.093c0.231,2.35 3.975,2.899 5.064,5.543c0.222,0.539 0.363,1.107 0.471,1.679c0.394,-0.772 0.785,-1.545 1.175,-2.318c2.443,-4.866 4.949,-9.674 7.968,-14.233c8.475,-12.801 18.463,-24.469 28.664,-35.968c5.076,-5.703 10.321,-11.288 16.025,-16.331c0,0 0.261,-0.578 0.875,-0.275c0.298,0.147 0.575,0.409 0.131,0.989c-9.143,8.033 -17.125,17.13 -24.71,26.547c-10.283,12.77 -19.629,26.374 -26.042,41.383c2.721,-0.68 5.567,0.902 8.456,1.876c2.184,0.727 4.468,1.295 6.72,0.993c2.698,-0.362 5.349,-1.185 7.787,-2.392l0.084,-0.043c-0.492,-0.232 -1.004,-0.421 -1.506,-0.629c-0.11,-0.047 -0.219,-0.095 -0.327,-0.144c-0.076,-0.036 -0.152,-0.071 -0.226,-0.11c-0.604,-0.315 -2.023,-1.462 0.863,-1.806c2.15,-0.256 4.354,-0.136 6.478,-0.42c0,0 -0.74,-1.044 -0.111,-1.66c0.733,-0.648 1.296,-0.977 1.989,-1.434c0.775,-0.512 1.56,-1.008 2.34,-1.511c0.895,-0.581 1.835,-1.119 2.579,-1.855c0,0 -4.177,-2.032 -3.06,-3.41c0.732,-0.904 2,-0.717 3.152,-0.848c0.326,-0.037 0.654,-0.07 0.981,-0.1c0.465,-0.043 0.931,-0.08 1.397,-0.117c0.504,-0.039 1.009,-0.077 1.513,-0.118c0.623,-0.053 1.245,-0.102 1.858,-0.209c-0.299,-0.846 -0.164,-1.818 0.735,-2.433c1.411,-0.963 2.934,-1.781 4.214,-2.881c0,0 -2.26,-1.533 -0.977,-2.656c2.993,-2.422 6.128,-4.736 8.565,-7.617c0.368,-0.436 0.795,-1.163 0.795,-1.163c-0.411,-0.177 -0.417,-0.219 -0.559,-0.327c-0.464,-0.351 -0.844,-0.82 -1.095,-1.343c0.351,-0.215 0.686,-0.454 1.002,-0.715c0.434,1.04 1.64,1.331 1.837,1.934c0.345,1.054 -0.64,1.914 -1.28,2.638c-2.395,2.71 -5.289,4.982 -8.154,7.246l-0.223,0.175c0.277,0.533 1.124,0.962 1.124,0.962c0.281,0.155 0.477,0.451 0.429,0.802c-0.157,1.154 -1.476,1.611 -2.487,2.282c-0.308,0.204 -0.617,0.405 -0.926,0.606c-0.311,0.202 -0.621,0.404 -0.93,0.608c-0.149,0.098 -0.297,0.197 -0.445,0.296c-0.463,0.313 -0.784,0.896 -0.353,1.415c0,0 0.281,0.468 0.04,0.835c-1.129,1.713 -5.072,0.427 -8.914,1.402c0,0 0.885,0.664 1.714,1.208c0.606,0.405 1.37,0.779 1.378,1.459c0.012,1.074 -1.153,1.516 -1.946,2.062c-0.234,0.161 -0.47,0.319 -0.707,0.475c-0.305,0.2 -0.61,0.398 -0.916,0.595c-0.522,0.335 -1.046,0.67 -1.567,1.007c-0.719,0.47 -1.436,0.939 -2.11,1.467c0,0 2.084,2.015 -2.753,2.276c-1.29,0.064 -2.582,0.099 -3.871,0.2l-0.117,0.01c0.225,0.091 0.449,0.181 0.672,0.275c0.74,0.317 1.79,0.71 1.398,1.617c-0.509,1.178 -2.362,1.403 -3.836,1.921c-2.476,0.868 -5.098,1.619 -7.621,1.469c-4.052,-0.239 -7.838,-3.031 -11.682,-3.108c-1.006,-0.02 -1.913,0.179 -2.458,1.352c-2.093,4.504 -3.023,9.549 -5.072,14.096c-0.384,0.853 -0.855,1.73 -1.714,1.966c-1.877,0.515 -4.542,-0.308 -3.777,-2.593c0.992,-2.964 2.503,-5.758 3.923,-8.583c0.872,-1.735 1.757,-3.463 2.641,-5.192c-0.137,-1.667 -0.4,-3.442 -1.677,-4.512c-1.393,-1.169 -3.305,-1.885 -3.844,-3.401c-0.36,-1.012 -0.628,-2.558 0.659,-2.5c-1.277,-2.96 -2.51,-6.051 -2.375,-9.174c0.03,-0.701 0.347,-1.589 1.212,-1.624c0.351,-0.014 0.836,0.127 0.836,0.127c0.836,-4.064 0.244,-8.379 -0.366,-12.564c-0.244,-1.777 -0.245,-3.613 -0.024,-5.412c0.263,0.752 0.626,1.457 1.072,2.1Zm5.524,37.607c-2.295,4.49 -4.951,8.879 -6.485,13.637c-0.221,0.684 0.882,0.944 1.605,0.988c0.478,0.029 0.968,-0.006 1.224,-0.429c2.525,-4.316 3.238,-9.616 5.334,-14.559l0.001,-0.001c-0.56,0.121 -1.12,0.243 -1.679,0.364Zm14.781,-25.163c-4.447,6.126 -8.455,12.514 -11.846,19.363c-0.735,1.478 -1.481,2.949 -2.23,4.419l1.608,-0.348c0.262,-0.643 0.531,-1.283 0.803,-1.921c3.243,-7.495 7.265,-14.632 11.677,-21.489l0.24,-0.369c-0.084,0.115 -0.168,0.23 -0.252,0.345Zm-16.948,-25.338c0.669,-1.992 1.494,-3.968 2.887,-5.486c0,0 0.422,-0.375 0.856,-0.199c0.525,0.213 0.681,0.753 0.965,1.392l0.022,0.05c1.007,-1.906 1.703,-4.041 3.034,-5.687c0.415,-0.513 1.157,-1.006 1.653,-0.293c0.499,0.718 -0.037,1.969 0.366,2.663c0,0 1.173,-0.679 1.984,-1.587c0.454,-0.509 0.869,-1.05 1.293,-1.585c0,0 0.105,-0.449 0.784,-0.203c0.138,0.05 0.29,0.246 0.29,0.246c0.109,-0.269 0.22,-0.537 0.331,-0.805c0.103,-0.245 0.208,-0.491 0.313,-0.736c0.194,-0.442 0.391,-0.883 0.597,-1.32c0.87,-1.837 1.849,-4.105 3.42,-4.202c0.909,-0.057 1.56,1.287 2.411,0.605c1.633,-1.333 2.989,-2.981 4.782,-4.18c0.509,-0.341 1.539,-0.746 1.576,0.456c-0.01,0.464 -0.026,0.537 -0.035,0.768c-0.018,0.587 0.108,1.389 0.108,1.389c2.491,-0.509 4.817,-2.971 6.255,-5.093c0.219,-0.324 0.418,-0.845 0.418,-0.845c0.141,-0.312 0.428,-0.549 0.773,-0.571c1.099,-0.072 1.736,1.306 2.956,1.823c0.174,0.074 0.446,-0.216 0.641,-0.389c2.214,-1.94 4.444,-4.1 7.122,-5.048c0.629,-0.223 1.571,-0.243 1.681,0.836c0.054,0.394 0.263,0.759 0.61,0.822c2.46,0.412 5.055,-0.704 7.609,-1.685c2.462,-0.945 4.814,-2.228 7.256,-3.117c0.39,-0.142 0.848,-0.116 1.176,0.15c0.832,0.671 0.627,1.909 0.593,2.83c-0.011,0.272 -0.023,0.545 -0.03,0.817c-0.026,1.414 0.189,-0.256 1.352,0.187c1.124,0.429 0.815,2.428 0.408,4.065c-0.348,1.398 -0.829,2.76 -1.342,4.109c-0.259,0.055 -0.04,0.106 -0.04,0.106l0.04,-0.106c0.12,-0.026 0.343,-0.053 0.737,-0.077c0.046,0.001 0.045,0.001 0.091,0.003c0.449,0.052 1.244,-0.297 0.083,2.436c-1.024,2.409 -2.583,4.558 -4.101,6.726c0,0 -0.172,0.323 0.352,0.273c0.491,-0.047 0.891,-0.308 1.445,-0.45c0,0 0.466,-0.078 0.747,0.2c0.733,0.726 0.228,1.862 0.029,2.758c-0.793,3.581 -2.013,7.046 -3.271,10.484c-0.279,-0.361 -0.585,-0.7 -0.915,-1.013c1.21,-3.311 2.387,-6.631 3.083,-10.051c0.087,-0.426 0.161,-1.056 0.161,-1.056c-0.347,0.132 -0.37,0.137 -0.506,0.181c-0.936,0.286 -2.046,0.008 -2.403,-1.006c-0.011,-0.032 -0.053,-0.493 0.201,-0.872c1.542,-2.244 3.21,-4.456 4.209,-6.976c0,0 -1.716,0.876 -1.637,-0.42c0.025,-0.41 0.275,-0.798 0.438,-1.215c0.742,-1.919 1.516,-3.872 1.725,-5.871c0.046,-0.438 -0.024,-1.027 -0.024,-1.027c-0.577,0.277 -1.276,0.707 -1.782,0.082c-0.758,-0.936 -0.013,-2.374 -0.291,-3.867c-0.017,-0.089 -0.039,-0.178 -0.075,-0.261c-0.006,-0.011 -0.005,-0.025 -0.012,-0.022c-4.16,1.483 -8.041,4.037 -13.029,4.814c-1.015,0.158 -2.154,0.367 -3.051,-0.123c-0.562,-0.306 -0.901,-0.928 -1.01,-1.568c-1.086,0.325 -2.042,1.089 -3.009,1.789c-1.503,1.086 -2.947,2.258 -4.321,3.507c0,0 -0.268,0.231 -0.59,0.28c-1.148,0.174 -1.905,-0.97 -3.048,-1.74c0,0 -0.508,0.897 -1.014,1.507c-1.589,1.914 -3.51,3.703 -5.771,4.644c-0.889,0.371 -2,0.117 -2.18,-1.089c-0.076,-0.509 -0.048,-1.247 -0.048,-1.247c-1.601,1.251 -2.973,2.793 -4.581,4.045c-1.193,0.93 -2.525,-0.95 -3.268,-0.265c-1.002,0.924 -1.584,2.322 -2.19,3.639c-0.637,1.386 -1.19,2.808 -1.756,4.222c0,0 0.148,0.744 -0.846,0.598c-0.347,-0.051 -0.485,-0.547 -0.512,-1.082c0,0 -0.178,0.2 -0.291,0.332c-0.468,0.538 -0.508,0.572 -0.741,0.808c-0.154,0.156 -0.311,0.308 -0.474,0.454c-0.113,0.102 -0.229,0.201 -0.349,0.295c-0.081,0.064 -0.163,0.126 -0.247,0.186c-0.657,0.462 -1.749,0.845 -2.313,-0.075c-0.328,-0.535 -0.295,-1.234 -0.302,-1.886c0,0 -1.507,2.88 -2.6,5.01c-0.204,0.392 -0.551,0.925 -0.551,0.925c-0.225,0.255 -0.572,0.354 -0.879,0.218c-0.599,-0.264 -0.736,-0.976 -1.008,-1.564l-0.01,-0.021c-0.865,1.121 -1.529,2.383 -2.051,3.719c-0.47,0.141 -0.925,0.319 -1.359,0.532Zm12.221,-93.238c4.358,1.924 8.606,4.047 12.6,6.599c11.79,7.532 22.915,16.318 32.958,25.976c2.113,2.032 4.21,4.083 6.316,6.124c0,0 0.263,-2.406 0.299,-3.724c0.096,-3.532 0.383,-7.063 0.182,-10.592c-0.084,-1.48 -0.569,-2.912 -1.102,-4.312c0,0 -0.011,1.238 -0.489,1.789c-0.153,0.177 -0.932,0.732 -1.138,-0.576c-0.465,-2.945 -0.331,-6.011 -0.665,-9.032c0,0 -1.121,2.013 -2.069,0.822c-0.235,-0.294 -0.296,-0.685 -0.423,-1.057c-0.166,-0.472 -0.347,-0.939 -0.541,-1.402c0.356,-0.176 0.7,-0.376 1.027,-0.597c0.27,0.603 0.521,1.214 0.727,1.842l0.029,0.091c0.404,-0.567 0.828,-1.483 0.828,-1.483c0.168,-0.274 0.313,-0.616 0.937,-0.329c0.836,0.384 0.728,2.248 0.846,3.883c0.07,0.982 0.126,1.964 0.183,2.947c0,0 -0.208,0.374 0.26,0.064l0.573,0.016c0.46,0.362 0.42,0.995 0.656,1.609c0.882,2.289 1.576,4.548 1.61,7.238c0.04,3.176 -0.148,6.336 -0.243,9.539c-0.007,0.167 -0.007,0.167 -0.016,0.333c-0.05,0.805 -0.14,1.606 -0.213,2.408c-0.048,0.561 -0.105,1.116 -0.055,1.669l0.002,0.014c1.377,1.306 2.766,2.601 4.151,3.899c-0.225,0.364 -0.417,0.749 -0.571,1.152c-1.148,-1.09 -2.299,-2.178 -3.446,-3.269l-0.484,-0.459c-0.267,0.622 -0.534,1.244 -0.801,1.866c1.47,1.74 2.929,3.499 4.416,5.23c0.24,1.428 0.927,2.791 1.947,3.864l-0.015,0.017c-2.411,-2.656 -4.752,-5.374 -7.072,-8.109l-0.266,-0.315c-1.96,-0.123 -3.983,-0.394 -5.825,-0.041c-0.73,-0.272 -1.505,-0.45 -2.312,-0.519c0.528,-0.229 1.064,-0.421 1.613,-0.556c1.694,-0.416 3.483,-0.292 5.244,-0.174l0.165,0.011c-4.344,-4.939 -8.641,-9.954 -13.217,-14.594c-6.919,-7.018 -14.501,-13.298 -22.687,-18.923c-0.322,-0.221 -1.455,-0.994 -1.768,-1.194c-3.741,-2.383 -7.717,-4.361 -11.793,-6.165c-0.071,-0.544 -0.192,-1.072 -0.358,-1.58Zm-22.416,7.345c0.836,1.223 1.561,2.496 2.091,3.846c0.367,0.934 0.624,2.109 -0.233,2.619c-0.586,0.349 -1.624,0.112 -1.624,0.112c1.104,1.648 2.62,3.174 4.008,3.922c1.251,0.727 0.537,2.868 -0.541,3.265c-0.083,0.031 -0.17,0.043 -0.253,0.071c-0.309,0.109 0.182,0.531 0.564,0.994c2.419,2.931 5.689,5.164 8.563,7.747c0.384,0.37 0.348,0.314 0.299,0.758c-0.091,0.819 -0.989,1.18 -1.603,1.516c1.271,1.114 3.012,1.691 4.668,2.353c2.759,1.101 5.587,2.034 8.495,2.659c0.053,0.012 0.105,0.026 0.157,0.041c0.457,0.143 0.866,0.519 0.805,1.023c-0.181,1.497 -2.09,1.944 -3.222,2.821c0,0 2.077,1.001 3.269,0.722c0,0 0.45,-0.038 0.702,0.219c0.681,0.695 0.639,1.917 1.338,2.94c0.682,0.69 2.744,0.663 4.858,0.731c4.032,0.131 8.064,-0.055 12.062,-0.716c0.16,-0.02 0.105,-0.017 0.245,-0.004c0.273,0.044 0.413,-0.315 0.618,0.551c0.168,0.711 -0.479,1.319 -0.758,2.195c0,0 1.124,0.247 2.185,0.303c3.511,0.186 7.11,0.019 10.435,-0.943c-0.314,0.476 -0.584,0.983 -0.802,1.517c-3.705,0.889 -7.686,1.017 -11.267,0.475c-0.748,-0.114 -1.602,-0.285 -1.757,-0.919c-0.149,-0.612 0.228,-1.253 0.526,-1.863c-4.39,0.663 -8.881,0.839 -13.206,0.517c-1.76,-0.132 -3.608,-0.167 -4.473,-1.719c-0.358,-0.642 -0.579,-1.351 -0.807,-2.054c0,0 -2.922,-0.353 -3.796,-0.854c-0.676,-0.387 -1.15,-1.268 0.034,-2.154c0.747,-0.559 1.571,-1.021 2.29,-1.61l0.101,-0.087c-4.652,-0.914 -9.402,-2.328 -13.104,-4.939c-0.074,-0.053 -0.147,-0.107 -0.219,-0.163c-0.533,-0.418 -1.285,-1.286 -0.267,-1.922c0.476,-0.275 1.169,-0.702 1.169,-0.702c-2.837,-2.549 -6.038,-4.673 -8.525,-7.75c-0.077,-0.096 -0.153,-0.194 -0.225,-0.293c-0.068,-0.093 -0.134,-0.188 -0.196,-0.285c-0.333,-0.525 -0.616,-1.256 -0.171,-1.82c0.348,-0.441 0.881,-0.351 1.113,-0.79c0.432,-0.816 -0.628,-1.102 -1.204,-1.567c-1.641,-1.324 -3.203,-3.08 -3.83,-4.838c-0.029,-0.081 -0.327,-1.133 0.868,-0.83c0.624,0.173 1.328,0.57 1.854,0.343c0.205,-0.767 -0.585,-2.025 -1.406,-3.334c0.157,-0.689 0.216,-1.401 0.172,-2.104Zm58.497,18.292c4.889,4.849 9.408,10.085 13.978,15.271l0.675,0.767l0.321,0.365l0.748,-1.742c-5.043,-4.867 -9.95,-9.832 -15.329,-14.346c0,0 -0.691,-0.609 -0.393,-0.315Zm-66.191,-34.213c-0.256,-0.261 -0.51,-0.516 -0.746,-0.756c-1.418,-1.442 -2.991,-2.739 -4.403,-4.191c0,0 -0.212,-0.216 -0.26,-0.432c-0.209,-0.946 1.576,-0.885 3.231,-0.541c1.644,0.341 3.292,0.714 4.846,1.318c0,0 0.321,-0.376 0.165,-0.801c-0.345,-0.937 -1.36,-2.162 1.772,-2.088c2.45,0.059 4.878,0.807 7.172,1.8l0.108,0.048c-0.302,-0.486 -0.746,-0.874 -1.148,-1.293c-0.615,-0.653 -0.788,-0.67 -0.519,-1.289c0.375,-0.867 1.904,-0.707 3.325,-0.506c1.46,0.207 2.93,0.538 4.24,1.143c0.856,-0.666 1.403,-2.007 1.482,-2.843c0,0 0.105,-0.518 0.501,-0.675c1.181,-0.469 2.185,1.21 3.62,1.52c0.205,0.038 0.637,-0.612 0.318,-2.16c-0.009,-0.046 -0.017,-0.093 -0.024,-0.139c-0.095,-0.795 0.629,-0.959 1.154,-1.045c2.068,-0.336 4.223,0.649 6.233,1.383c0.889,0.329 1.768,0.695 2.665,0.97c0,0 0.079,0.063 0.145,-0.034c0.236,-0.377 -0.12,-0.694 0.024,-1.341c0.022,-0.101 -0.08,-0.394 0.601,-0.552c1.952,-0.387 4.039,0.658 6.106,1.454c0.852,0.328 1.701,0.665 2.524,1.052c0,-0.066 -0.005,-0.133 -0.009,-0.199c-0.006,-0.073 -0.013,-0.146 -0.02,-0.219c-0.082,-0.721 -0.508,-1.658 0.579,-1.827c0.204,-0.031 0.412,-0.033 0.617,-0.016c0.086,0.007 0.171,0.017 0.256,0.029c0.118,0.018 0.235,0.04 0.351,0.066c0.154,0.034 0.306,0.075 0.456,0.12c0.161,0.048 0.319,0.102 0.476,0.159c2.818,1.024 5.382,2.813 7.637,4.882c0.486,0.445 0.955,0.915 1.347,1.446c0,0 -0.095,0.246 0.206,-0.08c0.65,-0.719 1.436,-1.699 2.465,-1.165c1.714,0.889 2.444,2.969 3.24,4.627c0.252,0.525 0.495,1.054 0.735,1.585c0.687,1.527 1.278,3.128 2.13,4.506c0,0 0.432,-1.663 0.913,-2.888c0.139,-0.353 0.261,-0.795 0.895,-0.721c0.668,0.131 1.295,1.193 1.916,2.018c0.287,0.381 0.57,0.763 0.851,1.148c-0.354,0.181 -0.694,0.384 -1.018,0.609c-0.527,-0.722 -1.071,-1.427 -1.637,-2.109l-0.039,-0.046c-0.451,1.565 -0.732,3.964 -2.18,3.359c-1.114,-0.466 -1.326,-1.831 -1.866,-3.018c-1.02,-2.257 -1.917,-4.596 -3.264,-6.648c-0.355,-0.543 -0.755,-1.154 -1.284,-1.383c-0.831,0.311 -1.247,1.99 -2.37,1.605c-0.307,-0.105 -0.474,-0.428 -0.664,-0.694c-1.351,-1.829 -3.357,-3.135 -5.374,-4.367c-1.317,-0.804 -2.711,-1.633 -4.159,-1.832l-0.084,-0.009c0.02,0.172 0.042,0.344 0.062,0.516c0.009,0.087 0.017,0.173 0.024,0.26c0.059,0.805 -0.233,2.043 -1.866,1.296c-2.408,-1.078 -5.027,-2.244 -7.304,-2.362c0,0 0.136,1.444 -0.884,1.967c-0.965,0.494 -2.565,-0.67 -4.389,-1.317c-1.683,-0.588 -3.603,-1.304 -4.941,-1.028c0.027,0.124 0.053,0.247 0.078,0.371c0.022,0.118 0.043,0.236 0.06,0.355c0.138,0.971 -0.085,2.232 -1.231,2.547c-1.118,0.307 -2.269,-0.798 -3.381,-1.362c0,0 -0.007,-0.251 -0.141,0.172c-0.085,0.257 -0.185,0.508 -0.295,0.755c-0.087,0.194 -0.179,0.385 -0.277,0.572c-0.087,0.165 -0.177,0.328 -0.273,0.487c-0.078,0.131 -0.16,0.26 -0.246,0.385c-0.066,0.097 -0.135,0.193 -0.208,0.285c-0.052,0.067 -0.107,0.133 -0.163,0.197c-0.414,0.465 -0.972,0.701 -1.794,0.375c-1.697,-0.655 -3.533,-1.151 -5.285,-1.04c0,0 0.244,0.293 0.403,0.46c0.392,0.416 0.437,0.478 0.609,0.722c0.463,0.658 0.79,1.592 0.263,2.133c-0.293,0.301 -0.761,0.237 -1.187,-0.001c-0.578,-0.31 -0.795,-0.378 -1.207,-0.537c-2.239,-0.864 -4.744,-1.713 -6.807,-1.401c0,0 0.356,0.774 0.248,1.484c-0.142,0.934 -0.945,1.628 -2.038,1.221c-1.741,-0.625 -3.559,-1.05 -5.389,-1.37l-0.065,-0.01c1.702,1.574 3.547,3.047 5.015,4.872c-0.166,-0.018 -0.332,-0.029 -0.5,-0.033c-0.093,-0.001 -0.093,-0.001 -0.186,0c-0.315,0.008 -0.629,0.038 -0.939,0.089Zm16.375,4.362c-1.727,-0.684 -3.458,-1.358 -5.191,-2.024c-2.378,-0.913 -4.779,-1.78 -7.152,-2.695l-0.287,-0.227c-0.114,-0.238 -0.103,-0.335 -0.103,-0.335c0.061,-0.404 0.246,-0.488 0.246,-0.488c0.323,-0.186 0.791,-0.027 1.256,0.132c3.754,1.282 7.446,2.749 11.14,4.218l1.424,0.564c-0.471,0.245 -0.917,0.531 -1.333,0.855Zm56.624,-33.508c0.03,0.48 0.205,0.974 0.436,1.314c0.552,0.888 -0.764,1.738 -1.561,2.045c-3.241,1.247 -6.806,1.671 -10.315,2.173l-0.212,0.03c0.003,0.524 0.438,1.199 0.438,1.199c0.161,0.269 0.179,0.618 -0.033,0.89c-0.671,0.862 -1.938,0.613 -3.045,0.679c-0.336,0.019 -0.672,0.036 -1.009,0.053c-0.337,0.017 -0.674,0.034 -1.011,0.053c-0.162,0.009 -0.324,0.019 -0.486,0.029c-0.576,0.04 -0.883,0.385 -0.873,1.016c-0.034,0.856 -1.468,0.571 -2.347,0.178c-0.185,-0.083 -0.369,-0.167 -0.552,-0.254c-0.303,-0.142 -0.605,-0.287 -0.906,-0.433c-1.394,-0.672 -2.779,-1.413 -4.226,-1.842c0.495,1.288 1.882,2.704 1.131,3.595c-0.802,0.952 -2.279,0.643 -3.542,0.71c-1.529,0.075 -3.063,0.087 -4.582,0.28l-0.085,0.012c-0.07,0.971 0.829,2.684 -4.055,0.126c-0.749,-0.393 -1.498,-0.791 -2.255,-1.16c0,0 1.599,1.609 0.612,2.339c-0.842,0.621 -2.288,0.064 -3.61,-0.174c-0.343,-0.062 -0.685,-0.13 -1.026,-0.203c-3.065,-0.659 -5.947,-1.762 -8.278,-4.157c-2.074,-2.131 -3.559,-5.129 -6.159,-6.18c-1.203,-0.487 -2.301,0.548 -3.51,1.553c-2.835,2.355 -5.46,4.978 -8.381,7.185c-0.649,0.491 -1.343,1.076 -2.024,1.149c-1.224,0.131 -2.326,-0.806 -2.895,-1.778c-0.327,-0.558 -0.43,-1.329 0.056,-1.849c0.065,-0.064 0.065,-0.063 0.132,-0.124c1.442,-1.312 3.084,-2.389 4.706,-3.48c2.302,-1.55 4.642,-3.044 6.976,-4.546c0.737,-1.545 1.283,-3.091 0.469,-4.936c-0.206,-0.467 -0.432,-0.925 -0.65,-1.387c-0.07,-0.15 -0.07,-0.149 -0.138,-0.3c-0.54,-1.215 -0.627,-2.696 0.271,-3.702c0.28,-0.314 0.989,-0.164 0.989,-0.164c0.018,-0.139 0.037,-0.277 0.057,-0.416c0.405,-2.679 0.84,-5.439 2.196,-7.72c0.361,-0.607 1.06,-1.285 1.847,-0.869c0.262,0.138 0.427,0.632 0.724,0.28c2.392,-2.907 3.921,-6.549 5.312,-9.929c1.282,-3.046 3.411,-5.813 5.971,-7.796c0.277,-0.214 0.706,-0.472 0.706,-0.472c0.415,-0.186 0.988,0.156 1.055,0.713c2.297,-2.599 4.921,-5.202 7.961,-6.147c0,0 0.541,-0.11 0.823,0.254c0.398,0.514 0.139,1.519 0.139,1.519c1.586,-1.004 3.064,-2.258 4.777,-2.983c0.619,-0.262 1.632,-0.444 1.651,0.561c0.015,0.783 -0.795,1.418 -0.931,2.187c0,0 2.215,-0.327 3.964,-1.009c0,0 0.715,-0.287 0.884,0.479c1.715,-1.33 3.428,-2.819 5.512,-3.411c0.47,-0.133 1.01,-0.191 1.45,0.065c0.604,0.351 0.789,1.209 1.215,1.584l0.002,0.002c2.15,-0.28 4.266,-1.226 6.313,-1.152c0.478,0.027 1.234,0.31 0.771,1.167c-0.335,0.548 -0.771,1.068 -0.915,1.661c0,0 1.108,0.165 2.03,0.088c1.977,-0.166 4.154,-0.359 5.663,-1.538c0.598,-0.467 0.419,-0.566 1.069,-0.294c0.877,0.368 0.894,1.572 1.415,2.583c0.08,0.156 0.063,0.365 0.47,0.281c2.749,-0.568 5.723,-1.257 8.262,-0.778c0.731,0.138 1.314,0.768 0.981,1.503c-0.045,0.109 -0.073,0.22 -0.085,0.335c-0.006,0.058 -0.009,0.116 -0.006,0.174c0.045,0.936 2.404,1.563 4.421,2.026c3.181,0.73 6.502,0.759 9.699,1.358c0.393,0.074 0.747,0.348 0.873,0.733c0.44,1.343 -0.843,2.376 -1.421,3.422c0,0 1.344,0 1.338,1.034c-0.001,0.229 -0.057,0.455 -0.14,0.668c-0.022,0.058 -0.047,0.116 -0.073,0.172c-0.045,0.097 -0.095,0.191 -0.148,0.284c-0.055,0.096 -0.114,0.19 -0.176,0.282c-0.09,0.136 -0.187,0.269 -0.287,0.398c-0.121,0.157 -0.248,0.31 -0.379,0.459c-0.172,0.198 -0.351,0.39 -0.534,0.578c-0.925,0.953 -1.943,1.818 -2.979,2.656c0.768,0.085 2.209,0.298 -0.191,2.145c-1.941,1.494 -4.218,2.496 -6.47,3.536c0,0 -0.571,0.193 1.225,0.523c0.319,0.065 0.65,0.216 0.774,0.525c-0.65,0.678 -1.17,1.479 -1.502,2.363c-0.048,0.126 -0.091,0.254 -0.13,0.382c-1.805,1.907 -3.806,3.63 -5.821,5.324c-0.079,-0.453 -0.193,-0.896 -0.34,-1.323c0.358,-0.29 0.713,-0.583 1.053,-0.881c1.893,-1.665 3.925,-3.256 5.386,-5.267c0,0 -1.031,-0.119 -1.528,-0.648c-0.437,-0.464 -0.328,-1.468 -0.328,-1.468c0.068,-0.207 -0.418,-0.099 0.857,-0.688c2.146,-0.976 4.311,-1.949 6.157,-3.379c0,0 -1.761,-0.047 -1.046,-1.119c0.212,-0.319 0.59,-0.512 0.914,-0.77c1.445,-1.156 2.924,-2.327 4.007,-3.779c0.221,-0.297 0.459,-0.79 0.459,-0.79c-0.623,-0.038 -1.303,-0.151 -1.418,-0.755c-0.241,-1.264 1.37,-2.097 1.594,-3.447c0,0 -1.885,-0.207 -3.326,-0.362c-3.095,-0.343 -6.23,-0.684 -9.116,-1.811c-0.885,-0.346 -1.893,-0.723 -2.374,-1.517c-0.3,-0.495 -0.292,-1.131 -0.102,-1.689c-1.732,-0.378 -3.682,0.067 -5.611,0.368c-0.842,0.131 -1.682,0.281 -2.516,0.46c0,0 -0.334,0.062 -0.623,-0.053c-0.974,-0.385 -1.096,-1.581 -1.584,-2.691c0,0 0.092,-0.145 -0.149,0.017c-2.272,1.47 -5.315,2.047 -8.093,1.638c-0.856,-0.126 -1.599,-0.861 -1.219,-1.868c0.159,-0.421 0.5,-0.971 0.5,-0.971c-1.838,0.274 -3.634,0.849 -5.481,1.09c0,0 -0.442,0.026 -0.757,-0.176c-0.73,-0.47 -0.364,-2.02 -1.957,-1.431c-2.331,0.86 -4.304,2.697 -6.305,4.26c0,0 -0.06,0.357 -0.736,0.242c-0.132,-0.022 -0.876,0.082 -0.275,-1.15c0,0 -1.792,0.582 -2.736,0.6c-0.839,0.016 -1.845,-0.667 -1.492,-1.739c0.139,-0.423 0.467,-0.966 0.467,-0.966c-1.789,0.921 -3.411,2.455 -5.027,3.163c0,0 -0.568,0.155 -0.861,-0.192c-0.364,-0.431 -0.194,-1.05 -0.13,-1.674c0,0 -0.154,0.033 -0.232,0.068c-2.855,1.325 -5.165,3.682 -7.194,6.156c-0.263,0.321 -0.279,1.155 -1.248,0.802c-0.459,-0.167 -0.306,-1.394 -0.306,-1.394c-2.557,2.125 -4.616,4.939 -5.73,8.032c-0.065,0.177 -0.065,0.176 -0.132,0.352c-1.09,2.81 -2.52,5.497 -4.248,7.958c-0.366,0.521 -0.75,1.032 -1.191,1.492c0,0 -0.444,0.385 -0.912,0.23c-0.476,-0.158 -0.751,-0.75 -0.913,-0.576c-0.682,0.781 -0.949,1.919 -1.26,2.985c-0.582,1.998 -1.183,4.119 -1.147,6.01c-0.001,0.577 -0.669,1.014 -1.412,0.196c-0.825,1.903 1.8,4.046 1.497,6.53c-0.062,0.505 -0.197,0.997 -0.36,1.478c0.621,-0.4 1.241,-0.802 1.859,-1.205c0.406,-0.265 0.81,-0.533 1.214,-0.802c0.284,0.302 0.589,0.583 0.913,0.842l-0.216,0.142c-1.226,0.807 -2.458,1.605 -3.692,2.401l1.296,0.42c0.146,-0.113 0.293,-0.225 0.44,-0.338c0.949,-0.721 1.91,-1.424 2.883,-2.112c0.371,0.241 0.761,0.455 1.168,0.638c-0.854,0.599 -1.699,1.211 -2.536,1.834c4.099,1.339 5.754,7.166 10.478,9.159c2.299,0.97 4.781,1.543 7.272,1.711c-0.264,-0.374 -0.556,-0.73 -0.834,-1.096c-0.444,-0.593 -1.211,-1.568 -0.049,-1.854c0.554,-0.137 1.139,0.209 1.722,0.483c1.62,0.762 3.156,1.71 4.792,2.413l0.032,-0.364c-0.054,0.58 -0.029,0.365 -0.029,0.365l-0.003,-0.001l0.003,0.001c0,0 -0.025,0.215 0.029,-0.365c0.051,-0.464 0.118,-0.869 0.86,-0.992c2.446,-0.369 5.017,-0.021 7.411,-0.57c0,0 -0.895,-1.717 -1.206,-2.659c-0.194,-0.591 -0.129,-1.564 0.862,-1.504c2.374,0.237 4.632,1.993 7.077,2.973c0,0 0.075,0.18 0.152,-0.093c0.232,-0.759 0.823,-1.358 1.695,-1.425c0.918,-0.063 1.838,-0.1 2.756,-0.152c0.604,-0.037 1.213,-0.072 1.812,-0.174c0,0 -1.025,-2.256 0.518,-2.554c3.626,-0.565 7.436,-0.84 10.766,-2.283c0.35,-0.151 0.651,-0.145 0.426,-0.542c-0.259,-0.489 -0.388,-1.022 -0.384,-1.548c0.126,0.006 0.254,0.009 0.382,0.009c0.284,0 0.566,-0.014 0.843,-0.04Zm-62.633,1.946c-3.596,2.315 -7.365,4.432 -10.55,7.231c-0.06,0.052 -0.119,0.105 -0.177,0.159c-0.685,0.63 1.328,1.875 1.84,1.657c0.749,-0.352 1.398,-0.914 2.06,-1.446c3.04,-2.443 5.792,-5.246 8.891,-7.603c0,0 -1.368,-0.445 -1.368,-0.445c-0.232,0.149 -0.464,0.298 -0.696,0.447Zm19.861,-13.034c2.318,-1.069 4.665,-2.081 7.017,-3.071c9.435,-3.974 19.128,-7.359 28.812,-10.55c6.607,-2.165 13.283,-4.161 20.128,-5.529c0,0 0.289,-0.239 0.705,0.041c0.352,0.237 0.539,0.775 -0.219,1.087c-10.708,2.105 -20.97,5.526 -31.239,9.442c-8.513,3.246 -16.919,6.9 -24.894,11.267c0.004,-0.115 0.006,-0.231 0.006,-0.347c0,-0.316 -0.016,-0.629 -0.049,-0.937c0.799,-0.433 1.602,-0.859 2.409,-1.279c-0.041,0.019 -0.083,0.037 -0.124,0.056c-0.771,0.348 -1.539,0.704 -2.303,1.067c-0.053,-0.426 -0.137,-0.842 -0.249,-1.247Zm33.534,-82.699c2.607,2.057 5.057,4.416 7.337,6.752c0.619,0.634 1.225,1.284 1.764,1.987l0.21,-1.062c0.118,-0.495 0.898,-0.774 1.322,-0.185c0.933,1.294 1.376,2.991 2.002,4.59c0,0 0.109,-0.214 0.572,-0.195c0,0 2.565,2.56 3.479,4.805c1.438,3.53 2.38,7.294 3.246,11.009c0.105,0.441 -0.033,0.934 0.643,1.255c0.198,0.094 0.396,0.188 0.594,0.282c4.598,2.191 9.29,4.267 13.663,6.801c0.461,0.284 0.388,0.221 0.505,0.668c0.262,0.992 -0.593,2.042 -1.409,2.623c-0.902,0.643 -2.284,0.148 -3.356,-0.39c-3.732,-1.874 -7.289,-4.1 -10.859,-6.298l-0.236,-0.146c-1.603,0.415 -3.304,0.716 -4.638,1.555c-2.424,1.525 -3.725,4.3 -6.422,5.928c-2.79,1.683 -5.877,3.035 -9.058,3.579c-0.43,0.074 -1.06,0.077 -1.06,0.077c-0.859,-0.115 -0.736,-1.792 -0.736,-1.792c-0.552,0.27 -0.588,0.282 -0.803,0.382c-3.275,1.493 -6.682,2.857 -10.175,3.458c-0.626,0.108 -1.25,0.204 -1.809,0.041c0.88,-0.31 1.686,-0.78 2.381,-1.374c3.746,-0.783 7.424,-2.308 10.615,-3.965c0.189,-0.089 0.219,-0.082 0.329,-0.087c0.699,-0.033 0.68,1.037 0.608,2.106c0,0 0.921,-0.099 1.738,-0.326c3.686,-1.026 7.376,-2.531 9.865,-5.215c1.594,-1.718 3.083,-3.644 5.218,-4.478c0.697,-0.272 1.417,-0.477 2.14,-0.668l0.349,-0.09c-4.422,-2.614 -8.81,-5.284 -13.394,-7.653c-6.982,-3.607 -14.268,-6.488 -21.892,-8.734c-0.271,-0.08 -1.278,-0.376 -1.655,-0.473c-4.328,-1.111 -8.837,-1.547 -13.333,-1.96c-6.579,-0.605 -13.191,-0.874 -19.787,-1.219l-0.34,-0.127c-0.287,-0.3 -0.444,-0.176 -0.121,-0.824c0,0 0.521,-0.272 1.088,-0.264c9.371,0.127 18.663,0.831 27.91,2.256c3.299,0.508 6.522,1.376 9.737,2.401c0.044,0.014 0.58,0.188 0.626,0.202c8.676,2.834 17.244,5.746 25.391,9.669c1.914,0.922 3.82,1.862 5.729,2.796l0.814,0.397c-0.052,-0.216 -0.101,-0.434 -0.15,-0.651c-0.755,-3.41 -1.708,-6.825 -2.979,-10.077c-0.361,-0.925 -0.929,-1.754 -1.542,-2.538l-0.068,-0.086c0.016,0.109 0.029,0.219 0.042,0.329c0.063,0.583 -0.281,1.705 -1.06,0.945c-0.475,-0.463 -0.657,-1.321 -0.957,-2.072c-0.614,-1.551 -1.194,-3.117 -1.863,-4.644c-0.205,0.692 -0.768,1.86 -2.126,0.092c-1.574,-2.012 -3.532,-3.719 -5.469,-5.424c-0.863,-0.761 -1.735,-1.521 -2.62,-2.26l0,-1.708Zm-24.883,40.89c-1.883,-0.033 -3.741,-0.231 -5.511,-0.723c-0.075,-0.021 -0.15,-0.043 -0.224,-0.067c-0.619,-0.202 -1.639,-0.777 -0.845,-1.662c0.13,-0.137 0.26,-0.273 0.387,-0.413c0.089,-0.102 0.21,-0.252 0.21,-0.252c-1.401,-0.613 -2.82,-1.186 -4.231,-1.776c-0.291,-0.122 -0.582,-0.246 -0.872,-0.37c-0.408,-0.177 -0.814,-0.355 -1.218,-0.542c-1.369,-0.634 -3.294,-1.288 -3.096,-2.654c0.09,-0.615 1.005,-0.804 0.654,-1.528c0,0 -3.281,-0.992 -5.061,-2.729c-0.387,-0.377 -0.721,-0.599 -0.252,-1.164c0.346,-0.417 1.194,-0.05 1.868,-0.327c-0.421,-1.035 -1.484,-1.774 -2.443,-2.53c-1.711,-1.348 -3.538,-2.549 -5.424,-3.641c0,0 -0.508,-0.357 -0.326,-0.855c0.213,-0.583 1.097,-0.819 1.097,-0.819c-1.011,-1.045 -2.86,-1.403 -3.902,-2.28c-0.225,-0.19 -0.329,-0.511 -0.215,-0.806c0.196,-0.509 0.702,-0.437 1.377,-1.102c0.306,-0.3 -0.839,-1.037 -1.818,-1.602c-1.736,-1.003 -3.598,-1.731 -5.407,-2.65c-0.41,-0.216 -0.751,-0.76 -0.28,-1.182c0.733,-0.657 2.023,-0.547 3.256,-0.648c0.987,-0.082 1.978,-0.152 2.964,-0.111c0,0 0.473,0.231 -0.437,-0.843c-0.879,-1.078 1.366,-2.024 3.527,-2.219c1.09,-0.098 2.186,-0.119 3.278,-0.048c-0.403,-0.241 -0.816,-0.232 -1.366,-0.818c-0.149,-0.158 -0.474,-0.468 -0.066,-0.948c1.185,-1.391 3.888,-1.304 5.798,-1.142c0,0 0.582,-1.467 0.378,-2.373c0,0 -0.066,-0.565 0.344,-0.818c0.959,-0.591 2.065,0.341 3.082,0.295c0.76,-0.381 -1.001,-1.62 -0.35,-2.417c0.894,-1.096 2.784,-1.012 4.363,-1.007l0.213,0.002l0,1.199c-0.871,-0.023 -1.74,-0.002 -2.598,0.154c-0.327,0.06 -0.783,0.226 -0.783,0.226c0.048,0.084 0.096,0.169 0.142,0.254c0.038,0.072 0.074,0.144 0.11,0.217c0.498,1.069 0.481,2.91 -1.737,2.505c-0.633,-0.115 -1.551,-0.333 -1.551,-0.333c0.001,0.073 0,0.146 -0.003,0.22c-0.061,1.482 -0.345,3.162 -1.839,3.062c-1.329,-0.064 -2.681,0.017 -3.944,0.413c0,0 2.233,1.159 1.547,2.299c-0.221,0.366 -0.734,0.335 -1.223,0.265c-2.117,-0.272 -4.491,-0.243 -6.168,0.493c0,0 0.338,0.388 0.463,0.746c0.292,0.842 -0.184,1.889 -1.176,1.818c-1.311,-0.073 -2.632,0.061 -3.945,0.21l-0.239,0.029c0.374,0.172 0.748,0.344 1.122,0.518c0.44,0.207 0.88,0.416 1.317,0.633c0.337,0.167 0.672,0.338 1.005,0.515c0.27,0.144 0.538,0.292 0.803,0.445c0.202,0.116 0.403,0.236 0.6,0.361c0.162,0.102 0.322,0.208 0.48,0.318c0.105,0.074 0.21,0.149 0.312,0.228c0.078,0.06 0.154,0.121 0.229,0.184c0.639,0.539 1.274,1.531 0.484,2.36c-0.197,0.207 -0.436,0.368 -0.678,0.517c0.37,0.186 0.742,0.369 1.112,0.556c0.243,0.124 0.485,0.249 0.723,0.381c0.179,0.099 0.355,0.201 0.529,0.308c0.14,0.086 0.278,0.176 0.413,0.27c0.103,0.073 0.204,0.148 0.302,0.227c0.071,0.058 0.141,0.117 0.207,0.179c0.044,0.041 0.087,0.083 0.128,0.126c0.498,0.524 0.482,1.426 -0.329,1.88c2.71,1.652 5.705,3.181 7.398,5.837c0.377,0.591 0.553,1.554 -0.246,1.979c-0.203,0.108 -0.421,0.17 -0.645,0.213c1.148,0.856 2.496,1.563 3.737,1.787c1.199,0.257 1.345,2.272 0.348,2.896c0,0 1.138,0.814 2.159,1.295c2.239,1.054 4.568,1.917 6.841,2.922c0,0 0.438,0.213 0.493,0.654c0.074,0.589 -0.398,1.065 -0.76,1.457c1.596,0.533 3.344,0.651 5.127,0.669c0.057,0.439 0.152,0.866 0.281,1.277Zm45.088,-9.355c3.946,2.441 7.844,5.121 12.07,6.877c0.088,0.036 0.176,0.071 0.265,0.104c0.775,0.284 1.574,-0.821 1.637,-1.463l0,-0.006c-4.332,-2.512 -8.968,-4.553 -13.524,-6.726l-0.325,-0.154c-0.041,0.456 -0.082,0.912 -0.123,1.368Zm-13.926,-8.045c4.267,2.309 8.438,4.79 12.613,7.259l0.17,0.1l0.111,-1.234c-4.325,-2.101 -8.6,-4.304 -13.015,-6.192c0,0 0.075,0.042 0.121,0.067Zm-41.71,-41.377c-1.048,-1.289 -2.016,-2.619 -3.276,-3.289c-0.932,-0.496 -2.117,0.552 -3.139,1.423c-2.09,1.78 -3.982,3.862 -6.313,5.227c-1.534,0.898 -4.276,-1.336 -2.643,-2.791c2.442,-2.178 5.423,-3.804 8.262,-5.615c0.059,-0.124 0.117,-0.248 0.173,-0.373c0.429,-0.976 0.582,-1.985 0.105,-3.065c-0.518,-1.144 -1.099,-2.335 -0.561,-3.468c0.026,-0.054 0.053,-0.108 0.083,-0.16c0.147,-0.263 0.179,-0.596 0.831,-0.54c0,0 0.234,-1.042 0.419,-1.86c0.08,-0.353 0.166,-0.705 0.259,-1.054c0.079,-0.296 0.163,-0.591 0.255,-0.883c0.072,-0.231 0.148,-0.46 0.232,-0.687c0.061,-0.169 0.127,-0.336 0.198,-0.501c0.041,-0.096 0.084,-0.191 0.13,-0.286c0.035,-0.071 0.071,-0.142 0.109,-0.212c0.331,-0.61 1.1,-1.357 1.946,-0.598c3.023,-3.643 3.729,-8.659 7.562,-12.152c0.105,-0.096 0.212,-0.189 0.321,-0.28c0.075,-0.063 0.151,-0.124 0.228,-0.184c0.44,-0.337 1.121,-0.667 1.441,-0.039c0,0 0.078,-0.074 0.217,-0.203c0.211,0.369 0.42,0.74 0.622,1.113c-0.316,0.352 -0.619,0.706 -0.91,1.055c-0.261,0.286 -1.131,0.392 -1.092,-0.588c0,0 -2.632,2.499 -3.571,4.899c-0.461,1.178 -0.949,2.354 -1.515,3.48c-1.394,0.411 -2.432,1.173 -2.454,2.413c-0.007,0.368 0.096,0.711 0.276,1.015c-0.109,0.134 -0.222,0.265 -0.337,0.395c-0.39,0.439 -1.052,0.482 -1.537,0.018c0,0 -0.588,1.196 -0.884,2.25c-0.368,1.312 -0.742,2.675 -0.748,3.992c0,0 -0.321,1.161 -1.113,0.417c-0.334,1.103 1.022,2.212 1.168,3.681c0.044,0.44 -0.028,0.889 -0.143,1.313c0.511,-0.328 1.021,-0.657 1.531,-0.988c1.268,-0.828 2.558,-1.618 3.868,-2.374l0,1.34c-1.7,1.042 -3.368,2.144 -5.054,3.226l-0.199,0.127l0.492,0.161c1.549,-1.177 3.138,-2.286 4.761,-3.339l0,1.427c-0.946,0.631 -1.88,1.28 -2.803,1.949c0,0 -0.395,0.008 0.091,0.26c1.064,0.581 1.898,1.515 2.712,2.506l0,1.842Zm-7.653,-3.275c-2.397,1.532 -4.95,2.963 -6.98,4.795c0,0 0.658,1.171 1.259,0.829c2.597,-1.478 4.695,-3.961 7.161,-5.939l0.241,-0.189l-0.587,-0.193c-0.364,0.232 -0.729,0.465 -1.094,0.697Zm45.454,-31.1c0.057,0.138 0.121,0.269 0.197,0.387c0,0 0.027,-0.009 0.784,-0.146c0.449,-0.077 0.898,-0.149 1.349,-0.213c0.331,-0.047 0.662,-0.089 0.994,-0.126c0.277,-0.03 0.555,-0.057 0.833,-0.079c0.218,-0.017 0.437,-0.031 0.655,-0.04c0.162,-0.006 0.323,-0.01 0.485,-0.01c0.112,0 0.224,0.002 0.336,0.007c0.104,0.005 0.208,0.012 0.311,0.023c0.619,0.064 1.5,0.32 1.096,1.385c-0.187,0.543 0.424,0.692 0.934,0.914c2.684,1.168 5.779,1.203 8.714,1.595c0.411,0.06 0.843,0.254 0.98,0.679c0.278,0.858 -0.435,1.604 -0.89,2.325c0,0 0.646,0.134 0.788,0.609c0.325,1.09 -0.766,1.964 -1.507,2.685c-0.226,0.22 -0.459,0.434 -0.696,0.644c-0.345,0.305 -0.874,0.79 -0.874,0.79c0.666,0.282 0.468,0.998 -0.319,1.627c-1.378,1.101 -3.018,1.835 -4.626,2.559c0.36,0.123 1.151,-0.357 1.363,0.738c0.173,0.894 -0.729,1.485 -1.297,2.064c-0.171,0.174 -0.345,0.346 -0.52,0.516c-0.242,0.233 -0.486,0.463 -0.732,0.691c-0.317,0.293 -0.637,0.583 -0.959,0.871c-0.387,0.345 -0.778,0.687 -1.17,1.026c-0.434,0.376 -0.87,0.747 -1.308,1.117c-0.386,0.326 -0.774,0.649 -1.163,0.971c-0.354,0.293 -0.666,0.573 -0.664,1.024c0.001,0.572 0.414,1.022 0.15,1.818c-0.54,1.633 -3.048,1.478 -3.273,2.564c-0.098,0.476 0.215,1.094 0.215,1.094c0.576,0.821 -0.747,1.642 -1.565,1.91c-0.199,0.065 -0.399,0.124 -0.601,0.181c-0.13,0.036 -0.26,0.071 -0.39,0.104l0,-1.223c0.308,-0.093 0.613,-0.194 0.915,-0.306c0.284,-0.105 0.531,-0.068 0.364,-0.487c-0.414,-1.115 -0.095,-2.39 1.192,-3.045c0.334,-0.17 0.676,-0.324 1.014,-0.488c0.451,-0.224 0.995,-0.651 0.99,-0.685c-0.157,-0.836 -0.478,-2.174 0.357,-2.947c2.37,-2.022 4.968,-3.921 6.96,-6.274c0,0 -1.402,-0.454 -1.176,-1.623c0.122,-0.628 0.967,-0.774 1.652,-1.089c1.055,-0.491 2.099,-1.016 3.06,-1.675c0,0 -1.288,-0.395 -0.062,-1.348c1.26,-0.98 2.644,-2.005 3.371,-3.197c0,0 -1.18,-0.32 -0.834,-1.237c0.237,-0.629 0.735,-1.142 1.017,-1.772c0,0 -1.018,-0.144 -1.787,-0.227c-2.921,-0.326 -6.194,-0.343 -8.373,-2.191c-0.414,-0.352 -0.561,-0.943 -0.443,-1.491c-1.791,-0.208 -3.687,0.211 -5.545,0.596c0,0 -0.289,0.052 -0.54,-0.049c-0.242,-0.096 -0.422,-0.259 -0.563,-0.456c0.268,-0.362 0.536,-0.726 0.801,-1.09Zm-8.009,12.46c-0.003,0.43 0.03,0.849 0.114,1.246c-8.348,2.865 -16.509,6.216 -24.115,10.545l-2.327,0l0.043,-0.026c0.079,-0.046 0.18,-0.103 0.099,-0.061l-0.167,0.087l-2.338,0c8.981,-5.021 18.825,-8.537 28.691,-11.791Zm6.393,-2.048c-0.52,0.604 -1.048,1.198 -1.607,1.762c-0.85,0.267 -1.697,0.54 -2.543,0.815c-0.06,-0.413 -0.07,-0.831 -0.042,-1.251l0.653,-0.213c1.177,-0.379 2.356,-0.752 3.539,-1.113Zm3.99,-1.158c2.263,-0.619 4.545,-1.171 6.856,-1.617c0.811,-0.157 1.53,0.917 -0.144,1.252c-2.717,0.552 -5.413,1.243 -8.091,2.012c0.451,-0.558 0.905,-1.115 1.379,-1.647Zm-31.55,-8.076c0.942,-0.815 1.989,-1.663 2.599,-1.971c0.09,-0.045 0.18,-0.089 0.272,-0.13c0.709,-0.321 1.721,-0.645 1.627,0.825l-0.001,0.007c1.352,-0.883 2.794,-2.286 3.957,-2.074c0.686,0.125 0.468,1.083 -0.017,2.127c0.892,-0.002 1.669,-0.475 2.614,-0.756c0.119,-0.028 0.309,-0.271 0.678,0.243c0,0 2.343,-1.765 3.574,-2.214c0.78,-0.285 1.604,-0.05 2.199,0.976c0.122,0.201 0.237,0.085 0.363,0.064c1.267,-0.215 2.507,-0.611 3.766,-0.734c0.515,-0.05 1.218,-0.072 1.175,0.761c-0.033,0.634 -0.941,1.266 -0.555,1.314c0.882,0.087 1.847,0.059 2.742,-0.113c-0.149,0.398 -0.297,0.797 -0.444,1.197c-1.046,0.199 -2.086,0.268 -2.942,0.009c-0.297,-0.09 -0.577,-0.283 -0.688,-0.577c-0.168,-0.442 -0.015,-0.819 0.24,-1.303c0,0 -1.25,0.26 -2.205,0.46c-0.558,0.114 -1.351,0.236 -1.351,0.236c-0.68,0.063 -1.026,-0.771 -1.468,-1.255c0,0 -2.186,1.186 -4.119,2.534c-0.324,0.083 -0.642,0.3 -0.642,0.3c-0.219,0.154 -0.433,0.315 -0.641,0.484c-0.121,-0.011 -0.267,-0.065 -0.432,-0.197c-0.191,-0.153 -0.153,-0.574 -0.153,-0.574c-0.113,0.036 -0.226,0.071 -0.339,0.104c-0.149,0.043 -0.298,0.084 -0.449,0.118c-0.106,0.025 -0.214,0.047 -0.321,0.066c-0.803,0.138 -2.388,0.014 -1.717,-1.588l0.01,-0.025c-1.087,0.655 -2.074,1.667 -3.182,1.993c-0.556,0.163 -0.97,-0.493 -0.895,-1.228c0,0 -0.852,0.414 -1.542,0.932c-0.392,0.295 -0.771,0.612 -1.137,0.944c-0.188,-0.32 -0.381,-0.638 -0.576,-0.955Z" style="fill:#ffce00;"/><path d="M87.415,310.156c0.296,0.641 0.76,1.21 1.343,1.632c0,0 -0.319,0.475 -0.58,0.78c-2.456,2.859 -5.493,5.078 -8.395,7.427c-1.452,1.298 0.504,3.042 0.504,3.042c-0.494,0.379 -1.009,0.728 -1.532,1.066c-1.612,1.033 -3.483,2.186 -3.235,3.829c-1.566,0.202 -3.13,0.253 -4.694,0.408c-0.252,0.026 -0.307,0.042 -0.803,0.081c-0.735,0.049 -1.496,0.03 -2.191,0.297c-1.279,0.49 -1.421,1.988 -0.737,2.787c0.598,0.7 2.298,1.769 2.298,1.769c-1.154,0.899 -2.463,1.634 -3.707,2.439c-1.485,0.967 -3.047,1.63 -3.051,2.855c-0.002,0.967 -0.017,0.629 -0.017,0.629c-0.891,0.069 -1.785,0.1 -2.677,0.14c-0.167,0.006 -0.167,0.006 -0.334,0.012c-2.431,0.062 -4.909,0.379 -4.676,1.861c0.113,0.725 0.915,1.119 1.663,1.413c0.12,0.046 0.241,0.091 0.362,0.136l-0.079,0.035c-1.668,0.728 -3.407,1.284 -5.19,1.632c-0.372,0.073 -0.746,0.136 -1.122,0.191c-5.336,0.774 -9.819,-3.334 -14.584,-2.958c6.082,-13.926 14.595,-26.672 24.058,-38.535c8.03,-10.069 16.606,-19.92 26.212,-28.396c0.503,-0.512 0.439,-1.328 0.439,-1.328c2.161,-2.409 3.85,-5.212 5.241,-8.152c0.023,-0.05 0.047,-0.1 0.07,-0.15c-0.083,1.281 -0.24,2.966 0.872,3.448c0.453,0.196 1.185,0.033 1.185,0.033c-0.132,2.693 -1.76,6.015 -1.76,6.015c-0.59,1.321 -0.302,2.54 0.737,2.51c0.159,-0.01 0.02,0.111 0.02,0.111c-0.959,1.946 -2.072,3.299 -3.72,5.846c-0.231,0.358 -0.547,1.139 -0.121,1.408c0.402,0.882 1.415,1.329 2.383,1.248c0.585,-0.061 0.3,0.03 0.3,0.03c-0.611,3.328 -1.768,6.532 -2.927,9.715l-0.089,0.241c-1.528,-1.286 -3.5,-2.061 -5.652,-2.061c-4.85,0 -8.788,3.937 -8.788,8.787c0,4.85 3.938,8.788 8.788,8.788c1.515,0 2.941,-0.385 4.186,-1.061Zm-73.915,-117.354c-0.898,-1.222 -2.054,-2.275 -3.177,-3.303c-0.446,-0.405 0.364,0.056 0.798,0.259c1.069,0.517 2.085,1.195 3.109,1.835c0,0 -0.017,0.629 0.254,0.906l0.457,0.34c4.02,1.529 8.044,3.054 12.05,4.625c-1.809,1.61 -2.949,3.956 -2.949,6.566c0,4.85 3.937,8.787 8.787,8.787c4.85,0 8.787,-3.937 8.787,-8.787c0,-0.169 -0.004,-0.336 -0.014,-0.502c4.108,1.799 8.182,3.725 11.874,6.204c0.124,0.083 0.665,0.455 0.789,0.54c7.683,5.282 15.057,11.226 21.746,17.818c4.865,4.795 9.325,9.967 13.824,15.089c-1.454,-0.081 -2.934,-0.097 -4.357,0.254c-0.916,0.226 -1.778,0.589 -2.613,1.017c-2.599,0.106 -4.908,1.343 -6.449,3.231c-2.384,0.781 -4.907,1.131 -7.411,1.203c-1.685,0.048 -3.382,0.05 -5.031,-0.231c0,0 0.539,-0.822 0.584,-1.476c0.066,-0.955 -0.693,-1.475 -1.458,-1.386c-2.965,0.483 -5.967,0.72 -8.973,0.748c-2.223,0.022 -4.295,0.156 -6.303,-0.201c-0.507,-0.091 -1.203,-0.42 -1.203,-0.42c-0.757,-1.112 -0.637,-2.443 -1.584,-3.103c-0.555,-0.388 -1.796,-0.086 -3.014,-0.522l0.116,-0.064c1.019,-0.561 2.26,-1.261 2.492,-2.423c0.165,-0.823 -0.434,-1.517 -1.189,-1.753c-2.528,-0.714 -5.222,-1.388 -7.778,-2.367c-1.634,-0.634 -3.291,-1.155 -4.712,-2.117c0,0 0.853,-0.525 1.085,-1.124c0.401,-1.036 -0.497,-1.719 -0.497,-1.719c-2.348,-2.084 -4.9,-3.922 -7.088,-6.149c-0.765,-0.779 -1.6,-1.794 -1.6,-1.794c1.341,-0.733 1.833,-3.035 0.561,-3.974c-1.238,-0.866 -2.444,-1.816 -3.385,-3.021l0.004,-0.001c1.421,-0.144 1.824,-1.614 1.55,-2.688c-0.026,-0.102 -0.055,-0.204 -0.086,-0.306c-0.609,-1.954 -1.668,-3.695 -2.901,-5.334c-0.215,-0.919 -0.619,-1.791 -1.219,-2.538c-0.369,-0.449 -0.104,-0.316 -0.104,-0.316c1.158,-1.228 1.905,-2.834 1.962,-4.511c0.115,-3.395 -2.499,-6.538 -5.734,-7.292Zm28.068,-37.045c8.636,-4.782 17.754,-8.708 27.039,-12.12c9.161,-3.365 18.552,-6.451 28.203,-8.471c0.714,-0.147 1.506,-0.201 1.816,-0.769c0.138,-0.253 0.168,-0.704 0.168,-0.704c3.13,-0.821 5.525,-2.658 8.106,-4.27c0.027,-0.016 0.082,-0.001 0.082,-0.001c-0.517,1.001 -1.57,1.91 -1.435,2.991c0.103,0.823 1.135,1.176 1.135,1.176c-0.419,0.617 -0.951,1.161 -1.498,1.681c-1.145,1.088 -2.595,2.184 -2.595,2.184c-0.62,0.448 -1.347,1.042 -1.129,1.8c0.105,0.367 0.515,0.621 0.515,0.621c-1.659,1.105 -3.504,1.913 -5.317,2.756c-0.444,0.21 -0.831,0.279 -1.012,0.683c-0.084,0.186 -0.023,0.426 -0.023,0.426c-0.064,0.997 0.439,1.985 1.353,2.351c0.246,0.092 0.05,0.16 0.05,0.16c-1.518,1.81 -3.384,3.32 -5.202,4.855c-0.15,0.125 -0.307,0.25 -0.47,0.374c-1.317,-3.19 -4.461,-5.438 -8.125,-5.438c-4.85,0 -8.788,3.937 -8.788,8.787c0,4.553 3.47,8.301 7.907,8.744c-0.001,0.046 -0.001,0.092 0,0.138c0.014,0.68 0.546,1.409 0.107,1.593c-3.303,1.39 -6.943,1.642 -10.505,2.185c-1.736,0.359 -1.157,2.639 -1.157,2.639c-1.954,0.189 -4.653,-0.268 -5.696,1.324c-0.362,0.573 -0.112,0.354 -0.382,0.219c-1.128,-0.539 -2.253,-1.084 -3.389,-1.609c-1.157,-0.529 -2.189,-1.314 -3.401,-1.194c-1.957,0.193 -1.361,2.449 -0.558,3.976c0.063,0.118 0.127,0.235 0.194,0.352c0,0 -0.762,0.065 -1.301,0.097c-0.362,0.02 -0.361,0.02 -0.723,0.037c-0.45,0.02 -0.9,0.04 -1.35,0.059c-1.74,0.08 -3.589,-0.213 -4.298,0.864c-0.477,0.723 -0.364,0.445 -0.364,0.445c-0.851,-0.41 -1.679,-0.862 -2.514,-1.302c-1.386,-0.731 -2.754,-1.741 -3.954,-1.148c-1.423,0.703 0.275,2.696 0.275,2.696c-1.937,-0.234 -3.844,-0.707 -5.653,-1.436c-4.335,-1.745 -5.98,-6.528 -9.636,-8.744c-0.495,-0.29 -0.222,-0.298 -0.222,-0.298c0.649,-0.471 1.302,-0.936 1.959,-1.393c0.95,0.352 1.977,0.544 3.049,0.544c4.537,0 8.275,-3.446 8.739,-7.86Zm8.053,-46.865c-0.467,0.002 -0.933,-0.007 -1.399,-0.033c-1.314,-0.074 -2.788,-0.4 -2.788,-0.4c0.315,-0.456 0.48,-1.013 0.303,-1.506c-0.159,-0.441 -0.608,-0.734 -0.709,-0.78c-2.833,-1.287 -5.885,-2.162 -8.439,-3.842l0.024,-0.036c0.551,-0.888 0.481,-2.227 -0.35,-2.931c-0.53,-0.449 -2.119,-0.696 -3.277,-1.391c-0.102,-0.063 -0.102,-0.063 -0.204,-0.127c0.901,-0.626 0.734,-1.8 0.258,-2.575c-1.254,-2.039 -3.312,-3.386 -5.336,-4.653c-0.706,-0.437 -1.64,-1.01 -1.64,-1.01c0.85,-1.194 -0.235,-2.365 -1.305,-3.022c-0.18,-0.11 -0.364,-0.216 -0.549,-0.319c-0.243,-0.135 -0.491,-0.263 -0.738,-0.39c-0.129,-0.065 -0.258,-0.13 -0.387,-0.194c0.173,-0.168 0.324,-0.355 0.429,-0.573c0.681,-1.407 -0.629,-2.527 -1.816,-3.293c-0.243,-0.157 -0.491,-0.306 -0.741,-0.451c-0.353,-0.205 -0.712,-0.398 -1.073,-0.587c-0.188,-0.097 0.14,-0.013 0.337,0.009c0.503,0.059 1.006,0.12 1.51,0.182c0,0 0.19,0.556 0.515,0.726l0.534,0.182c6.513,0.311 13.03,0.607 19.525,1.196c4.146,0.376 8.305,0.793 12.374,1.703c8.185,1.83 16.022,5.124 23.518,8.905c4.569,2.303 8.967,4.941 13.381,7.56l-0.278,0.083c-2.911,0.9 -4.633,2.944 -6.52,4.987c-1.902,2.037 -4.459,3.339 -7.09,4.275c-1.761,0.627 -3.616,1.027 -3.616,1.027c0.014,-0.595 0.041,-1.318 -0.429,-1.764c-0.288,-0.273 -0.728,-0.33 -1.102,-0.192c-0.053,0.021 -0.104,0.044 -0.156,0.067l-0.326,0.168c-2.986,1.521 -6.114,2.811 -9.383,3.582c1.213,-1.334 1.952,-3.106 1.952,-5.049c0,-4.146 -3.366,-7.512 -7.512,-7.512c-4.146,0 -7.512,3.366 -7.512,7.512c0,0.156 0.005,0.311 0.015,0.466Zm-10.218,-63.347l0,4.2c-0.522,-0.603 -1.065,-1.185 -1.686,-1.694c-0.415,-0.339 -0.964,-0.667 -0.964,-0.667c0.871,-0.63 1.754,-1.243 2.65,-1.839Zm38.65,-16.936c2.304,-0.652 4.624,-1.241 6.96,-1.757c1.048,-0.228 2.028,-0.136 2.436,-0.893c0.029,-0.054 0.044,-0.063 0.061,-0.182c2.082,-0.763 4.001,-1.92 5.838,-3.17c0.084,-0.057 0.026,-0.001 0.026,-0.001c-0.418,0.832 -0.937,1.204 -0.975,1.93c-0.038,0.734 0.826,1.018 0.826,1.018c-0.735,1.115 -1.901,1.918 -2.983,2.772c-0.338,0.264 -0.804,0.541 -0.822,1.015c-0.011,0.296 0.22,0.5 0.45,0.651c-0.54,0.357 -1.104,0.673 -1.68,0.968c-0.247,0.125 -0.276,0.146 -0.944,0.46c-0.839,0.394 -1.914,1.155 -1.914,1.155c-0.2,0.673 0.144,1.345 0.729,1.693c0.571,0.325 0.285,0.207 0.285,0.207c-1.403,1.71 -3.17,3.089 -4.898,4.494c-0.989,0.805 -2.261,1.659 -2.475,3.028c-0.105,0.676 0.167,1.599 0.167,1.599c-0.315,0.376 -1.053,0.613 -1.651,0.904c-2.15,1.044 -1.484,3.532 -1.484,3.532c-0.387,0.138 -0.777,0.265 -1.171,0.381l0,-6.634l-29.262,0c5.366,-3.008 11.018,-5.548 16.749,-7.799c2.322,-0.912 4.662,-1.786 7.019,-2.609c0.116,0.477 0.31,0.919 0.607,1.307c0.756,0.984 2.157,1.103 3.187,0.559c2.055,-1.086 3.489,-2.857 4.919,-4.628Zm-4.256,1.277c-0.116,0.115 -0.234,0.228 -0.353,0.34c-0.099,0.093 -0.199,0.184 -0.301,0.273c-0.497,0.435 -1.477,1.08 -1.622,0.464c-0.024,-0.105 -0.045,-0.21 -0.063,-0.316c0.778,-0.26 1.558,-0.514 2.339,-0.761Z" style="fill:#0df228;"/><path d="M9.903,150.78c0,0.882 0.558,1.636 1.656,1.636c1.088,0 1.667,-0.881 1.667,-0.881l0.049,0c-0.069,0.519 0.039,0.881 0.489,0.881c0.705,0 0.529,-0.304 0.509,-0.646c-0.029,-0.549 -0.01,-2.127 -0.01,-2.96c0,-1.196 -0.744,-1.979 -2.077,-1.979c-0.843,0 -1.441,0.176 -1.705,0.411c-0.411,0.392 0.078,0.921 0.078,0.921c0,0 0.666,-0.412 1.51,-0.412c0.696,0 1.215,0.333 1.215,1.059l0,0.569c-0.156,-0.069 -0.794,-0.255 -1.451,-0.255c-1.166,0 -1.93,0.626 -1.93,1.656Zm1.058,-0.039c0,-0.559 0.5,-0.873 1.166,-0.873c0.54,0 1.01,0.117 1.138,0.166l0,0.677c-0.147,0.402 -0.706,0.863 -1.392,0.863c-0.54,0 -0.912,-0.304 -0.912,-0.833Z" style="fill-rule:nonzero;"/><path d="M12.105,152.917c3.61,0 6.54,2.93 6.54,6.539c0,3.61 -2.93,6.54 -6.54,6.54c-3.609,0 -6.54,-2.93 -6.54,-6.54c0,-3.609 2.931,-6.539 6.54,-6.539Zm-1.426,3.509c0.96,0.081 1.22,1.217 1.451,1.954c0.43,1.368 0.767,3.247 1.365,3.397c0.773,0.195 1.009,-1.339 1.235,-2.407c0.108,-0.36 0.7,-0.327 0.687,0.23c-0.061,1.614 -1.203,3.631 -2.462,2.678c-1.131,-0.856 -0.884,-2.785 -1.88,-4.718c-0.018,-0.035 -0.037,-0.07 -0.057,-0.104c-0.165,-0.279 -0.624,-0.393 -0.962,0.087c-0.537,0.762 -0.375,2.01 -0.743,2.218c-0.239,0.136 -0.53,-0.058 -0.52,-0.432c0.056,-1.352 0.567,-2.939 1.886,-2.903Z"/><path d="M12.105,152.917c3.61,0 6.54,2.93 6.54,6.539c0,3.61 -2.93,6.54 -6.54,6.54c-3.609,0 -6.54,-2.93 -6.54,-6.54c0,-3.609 2.931,-6.539 6.54,-6.539Zm-1.426,3.509c0.96,0.081 1.22,1.217 1.451,1.954c0.43,1.368 0.767,3.247 1.365,3.397c0.773,0.195 1.009,-1.339 1.235,-2.407c0.108,-0.36 0.7,-0.327 0.687,0.23c-0.061,1.614 -1.203,3.631 -2.462,2.678c-1.131,-0.856 -0.884,-2.785 -1.88,-4.718c-0.018,-0.035 -0.037,-0.07 -0.057,-0.104c-0.165,-0.279 -0.624,-0.393 -0.962,0.087c-0.537,0.762 -0.375,2.01 -0.743,2.218c-0.239,0.136 -0.53,-0.058 -0.52,-0.432c0.056,-1.352 0.567,-2.939 1.886,-2.903Z"/><path d="M7.416,154.896c-1.599,-1.571 -2.52,-3.863 -2.077,-6.169c0.587,-3.064 3.431,-5.524 6.677,-5.586c0.089,0 0.089,0 0.178,0c3.883,0.074 7.291,3.876 6.734,7.852c-0.212,1.511 -0.988,2.898 -2.089,3.95c-0.187,-0.197 -0.385,-0.38 -0.593,-0.55c1.825,-1.831 2.664,-4.732 1.337,-7.245c-1.036,-1.963 -3.158,-3.264 -5.398,-3.307c-0.08,0 -0.08,0 -0.16,0c-3.491,0.067 -6.55,3.481 -6.05,7.055c0.192,1.368 0.899,2.623 1.902,3.57c-0.162,0.137 -0.316,0.281 -0.461,0.43Z"/><path d="M99.826,154.805c-1.577,-1.549 -2.486,-3.809 -2.049,-6.082c0.579,-3.021 3.38,-5.445 6.58,-5.505c0.088,-0.001 0.087,-0.001 0.175,0c3.815,0.072 7.188,3.8 6.637,7.738c-0.209,1.49 -0.975,2.857 -2.061,3.893c-0.143,-0.145 -0.293,-0.284 -0.449,-0.416c1.834,-1.847 2.684,-4.758 1.387,-7.288c-1.039,-2.028 -3.208,-3.384 -5.52,-3.427c-0.082,-0.001 -0.081,-0.001 -0.163,0c-3.542,0.067 -6.656,3.537 -6.147,7.168c0.194,1.388 0.911,2.661 1.926,3.623c-0.108,0.095 -0.214,0.194 -0.316,0.296Z"/><path d="M104.282,151.514c-0.009,0.247 -0.009,0.57 0.342,0.57l0.38,0c0.465,0 0.351,-0.371 0.332,-0.637c-0.019,-0.399 -0.01,-4.986 0.009,-5.262c0.01,-0.247 0.019,-0.56 -0.332,-0.56l-0.389,0l-2.09,1.102c-0.171,0.095 -0.18,0.247 -0.076,0.427l0.114,0.2c0.067,0.114 0.171,0.209 0.361,0.114l1.416,-0.703c-0.029,0.912 -0.048,4.35 -0.067,4.749Z" style="fill-rule:nonzero;"/><path d="M9.764,200.456c0,1.003 0.403,1.866 2.064,1.866c1.544,0 2.634,-1.139 2.634,-2.889c0,-1.711 -0.707,-2.713 -2.034,-2.713c-0.836,0 -1.298,0.402 -1.535,0.746l-0.088,0c0.01,-0.972 0.029,-1.512 0.039,-1.65c0.02,-0.315 -0.108,-0.57 -0.618,-0.57c-0.491,0 -0.491,0.157 -0.472,0.541c0.01,0.196 0.01,3.852 0.01,4.669Zm1.051,0.157c-0.02,-0.452 -0.02,-1.298 -0.02,-1.957c0.128,-0.393 0.571,-1.082 1.377,-1.082c0.757,0 1.22,0.59 1.22,1.859c0,1.347 -0.62,2.045 -1.594,2.045c-0.708,0 -0.964,-0.452 -0.983,-0.865Z" style="fill-rule:nonzero;"/><path d="M9.748,248.06c0,1.809 0.884,2.811 2.536,2.811c1.052,0 1.71,-0.403 1.71,-0.776c0,-0.373 -0.285,-0.511 -0.285,-0.511c0,0 -0.569,0.442 -1.386,0.442c-1.013,0 -1.514,-0.747 -1.514,-1.976c0,-1.19 0.57,-1.927 1.524,-1.927c0.64,0 0.846,0.403 0.846,0.678c0,0.079 -0.02,0.167 -0.02,0.167c0.413,0.187 0.835,-0.039 0.835,-0.56c0,-0.521 -0.383,-1.139 -1.71,-1.139c-1.554,0 -2.536,1.217 -2.536,2.791Z" style="fill-rule:nonzero;"/><path d="M11.546,300.532c1.18,0 1.633,-0.884 1.633,-0.884l0.059,0c-0.089,0.471 -0.02,0.884 0.451,0.884c0.138,0 0.324,-0.02 0.403,-0.05c0.226,-0.088 0.128,-0.392 0.118,-0.598c-0.069,-1.465 0.01,-5.564 0.029,-5.849c0.01,-0.315 -0.118,-0.58 -0.648,-0.58c-0.442,0 -0.471,0.177 -0.451,0.56c0.009,0.226 0.039,1.218 0.049,1.955l-0.069,0c-0.098,-0.285 -0.61,-1.041 -1.584,-1.041c-1.121,0 -2.034,1.041 -2.034,2.634c0,1.869 0.874,2.969 2.044,2.969Zm0.305,-0.845c-0.747,0 -1.288,-0.776 -1.288,-2.134c0,-1.288 0.56,-1.77 1.19,-1.77c0.934,0 1.377,1.131 1.436,1.377l0,0.865c0,1.023 -0.63,1.662 -1.338,1.662Z" style="fill-rule:nonzero;"/><path d="M104.445,152.893c3.609,0 6.54,2.93 6.54,6.54c0,3.609 -2.931,6.54 -6.54,6.54c-3.61,0 -6.54,-2.931 -6.54,-6.54c0,-3.61 2.93,-6.54 6.54,-6.54Zm0.003,3.612c0.191,0.01 0.339,0.159 0.347,0.35l0,4.996l2.265,0.004l-0.001,-2.333c0.015,-0.375 0.652,-0.416 0.699,-0.029c0.037,0.904 0.002,1.809 0.002,2.713c-0.007,0.181 -0.141,0.328 -0.323,0.349c-0.997,0.037 -1.995,-0.003 -2.993,-0.005c-0.191,-0.007 -0.342,-0.159 -0.349,-0.35l0,-4.999l-2.245,-0.022l-0.02,2.346c-0.017,0.365 -0.652,0.432 -0.699,0.022c-0.029,-0.908 0.014,-1.816 0.022,-2.725c0.009,-0.181 0.144,-0.326 0.326,-0.346c0.989,-0.029 1.98,0.019 2.969,0.029Z"/><path d="M102.402,201.352c0,0.228 0.114,0.323 0.361,0.323l3.371,0c0.295,0 0.333,-0.048 0.342,-0.257l0,-0.361c0.01,-0.218 -0.085,-0.351 -0.313,-0.332c-0.133,0.019 -1.975,0.038 -2.403,0.038l0,-0.086c0.941,-0.988 2.811,-2.346 2.735,-3.838c-0.057,-1.082 -0.892,-1.718 -2.108,-1.718c-0.836,0 -1.444,0.304 -1.615,0.417c-0.18,0.124 -0.399,0.294 -0.19,0.76c0.067,0.152 0.162,0.237 0.162,0.237c0,0 0.741,-0.551 1.643,-0.551c0.665,0 1.064,0.437 1.064,0.96c0,1.387 -1.919,2.631 -3.059,3.838l0.01,0.57Z" style="fill-rule:nonzero;"/><path d="M102.536,250.178c0.161,0.095 0.893,0.418 1.805,0.418c1.377,0 2.345,-0.816 2.345,-1.909c0,-1.34 -1.177,-1.482 -1.177,-1.482l0,-0.057c0,0 0.949,-0.294 0.949,-1.425c0,-1.008 -0.579,-1.776 -2.127,-1.776c-0.912,0 -1.615,0.332 -1.786,0.474c-0.133,0.105 -0.323,0.294 -0.123,0.703c0.076,0.152 0.171,0.228 0.171,0.228c0,0 0.617,-0.542 1.719,-0.542c0.789,0 1.131,0.39 1.131,0.96c0,0.628 -0.437,1.037 -1.064,1.037l-0.855,0c-0.105,0 -0.143,0.075 -0.143,0.161l0,0.455c0,0.114 0.029,0.209 0.162,0.209l0.893,0c0.836,0 1.225,0.437 1.225,0.969c0,0.628 -0.389,1.132 -1.32,1.132c-1.093,0 -1.91,-0.542 -1.91,-0.542c0,0 -0.142,0.104 -0.199,0.342c-0.095,0.361 0.057,0.503 0.304,0.645Z" style="fill-rule:nonzero;"/><path d="M102.374,297.784c0.436,0 2.014,-0.019 2.432,-0.028l0,1.558c-0.009,0.247 -0.009,0.57 0.342,0.57l0.342,0c0.455,0 0.351,-0.323 0.332,-0.599c-0.01,-0.085 0.009,-1.434 0.009,-1.548c0.038,0 0.779,0 0.836,0.009c0.171,0.01 0.238,-0.038 0.238,-0.237l0,-0.341c0.009,-0.19 -0.114,-0.266 -0.247,-0.256l-0.817,0c0,-0.2 0.019,-1.739 0.028,-1.843c0.01,-0.247 -0.104,-0.409 -0.379,-0.409l-0.314,0c-0.351,0 -0.341,0.219 -0.341,0.485c0,0.076 0,1.415 -0.01,1.795l-1.853,0.01c0,-0.494 0.19,-2.888 0.199,-3.183c0.01,-0.18 -0.076,-0.342 -0.332,-0.342l-0.351,0c-0.304,0 -0.323,0.152 -0.323,0.418c0,0.19 -0.161,3.05 -0.18,3.41c-0.01,0.342 0.095,0.531 0.389,0.531Z" style="fill-rule:nonzero;"/><path d="M34.273,360.011c-0.152,0 -0.276,-0.031 -0.373,-0.095c-0.097,-0.063 -0.175,-0.145 -0.235,-0.247c-0.059,-0.101 -0.101,-0.211 -0.126,-0.329c-0.026,-0.118 -0.038,-0.236 -0.038,-0.355c0,-0.211 0.027,-0.47 0.082,-0.779c0.055,-0.308 0.127,-0.641 0.215,-1c0.089,-0.359 0.19,-0.739 0.304,-1.14c0.114,-0.401 0.231,-0.805 0.349,-1.21c0.05,-0.169 0.107,-0.357 0.171,-0.564c0.063,-0.206 0.122,-0.413 0.177,-0.62c0.055,-0.207 0.099,-0.403 0.133,-0.589c0.034,-0.186 0.051,-0.342 0.051,-0.469c-0.009,-0.177 -0.068,-0.302 -0.178,-0.374c-0.109,-0.071 -0.249,-0.107 -0.418,-0.107c-0.152,0 -0.308,0.021 -0.468,0.063c-0.161,0.042 -0.308,0.097 -0.444,0.165c-0.135,0.067 -0.247,0.139 -0.335,0.215c-0.089,0.076 -0.133,0.152 -0.133,0.228c0,0.068 -0.025,0.114 -0.076,0.139c-0.051,0.026 -0.101,0.038 -0.152,0.038c-0.118,0 -0.19,-0.033 -0.215,-0.101c-0.026,-0.067 -0.038,-0.135 -0.038,-0.203c0,-0.101 0.057,-0.213 0.171,-0.335c0.114,-0.123 0.259,-0.237 0.436,-0.342c0.178,-0.106 0.376,-0.194 0.596,-0.266c0.219,-0.072 0.435,-0.108 0.646,-0.108c0.346,0 0.618,0.089 0.817,0.266c0.198,0.177 0.297,0.418 0.297,0.722c0,0.085 -0.014,0.203 -0.044,0.355c-0.029,0.152 -0.07,0.327 -0.12,0.525c-0.051,0.199 -0.11,0.41 -0.178,0.634c-0.067,0.224 -0.135,0.454 -0.202,0.69c-0.093,0.321 -0.197,0.678 -0.311,1.07c-0.114,0.393 -0.217,0.784 -0.31,1.172c-0.093,0.388 -0.171,0.756 -0.234,1.102c-0.064,0.346 -0.095,0.633 -0.095,0.861c0,0.119 0.017,0.23 0.05,0.336c0.034,0.106 0.106,0.158 0.216,0.158c0.194,0 0.426,-0.109 0.696,-0.329c0.271,-0.22 0.56,-0.511 0.868,-0.874c0.308,-0.363 0.629,-0.777 0.963,-1.241c0.333,-0.465 0.656,-0.938 0.969,-1.419c0.093,-0.405 0.198,-0.804 0.316,-1.197c0.119,-0.393 0.239,-0.754 0.361,-1.083c0.123,-0.329 0.245,-0.614 0.368,-0.855c0.122,-0.241 0.234,-0.412 0.335,-0.513c0.043,-0.042 0.091,-0.078 0.146,-0.108c0.055,-0.029 0.112,-0.044 0.171,-0.044c0.16,0 0.279,0.066 0.355,0.196c0.076,0.131 0.114,0.256 0.114,0.374c0,0.169 -0.049,0.378 -0.146,0.627c-0.097,0.249 -0.224,0.526 -0.38,0.83c-0.156,0.304 -0.338,0.627 -0.545,0.969c-0.206,0.342 -0.415,0.682 -0.627,1.019c-0.092,0.431 -0.175,0.872 -0.247,1.324c-0.071,0.452 -0.107,0.855 -0.107,1.21c0,0.118 0.002,0.238 0.006,0.361c0.004,0.122 0.017,0.232 0.038,0.329c0.021,0.097 0.055,0.175 0.101,0.234c0.047,0.059 0.108,0.089 0.184,0.089c0.177,0 0.384,-0.07 0.621,-0.209c0.236,-0.139 0.481,-0.323 0.734,-0.551c0.254,-0.228 0.509,-0.481 0.767,-0.76c0.257,-0.279 0.504,-0.557 0.741,-0.836c0.202,-0.253 0.428,-0.593 0.677,-1.02c0.249,-0.426 0.484,-0.867 0.703,-1.323c0.22,-0.456 0.404,-0.889 0.551,-1.299c0.148,-0.409 0.222,-0.719 0.222,-0.931c0,-0.135 -0.03,-0.232 -0.089,-0.291c-0.067,-0.051 -0.101,-0.114 -0.101,-0.19c0,-0.067 0.023,-0.127 0.07,-0.177c0.046,-0.051 0.103,-0.076 0.171,-0.076c0.05,0 0.101,0.017 0.152,0.05c0.185,0.152 0.278,0.385 0.278,0.697c0,0.22 -0.04,0.471 -0.12,0.754c-0.08,0.283 -0.186,0.578 -0.317,0.886c-0.131,0.309 -0.278,0.621 -0.443,0.938c-0.165,0.316 -0.327,0.616 -0.488,0.899c-0.16,0.283 -0.314,0.538 -0.462,0.766c-0.148,0.228 -0.272,0.41 -0.374,0.545c-0.16,0.211 -0.373,0.467 -0.639,0.766c-0.266,0.3 -0.553,0.589 -0.862,0.868c-0.308,0.279 -0.62,0.515 -0.937,0.709c-0.317,0.195 -0.606,0.292 -0.868,0.292c-0.194,0 -0.346,-0.053 -0.456,-0.159c-0.109,-0.105 -0.19,-0.234 -0.24,-0.386c-0.051,-0.152 -0.083,-0.312 -0.095,-0.481c-0.013,-0.169 -0.019,-0.313 -0.019,-0.431c0,-0.228 0.012,-0.471 0.038,-0.728c0.025,-0.258 0.059,-0.526 0.101,-0.805c-0.194,0.271 -0.422,0.583 -0.684,0.938c-0.262,0.354 -0.538,0.69 -0.83,1.007c-0.291,0.316 -0.586,0.584 -0.886,0.804c-0.3,0.22 -0.581,0.329 -0.843,0.329Zm5.156,-7.65c-0.026,0 -0.064,0.048 -0.114,0.145c-0.051,0.098 -0.11,0.228 -0.178,0.393c-0.067,0.165 -0.139,0.355 -0.215,0.57c-0.076,0.215 -0.152,0.446 -0.228,0.69c0.211,-0.363 0.388,-0.7 0.532,-1.013c0.144,-0.312 0.215,-0.553 0.215,-0.722l0,-0.025c-0.008,-0.009 -0.012,-0.017 -0.012,-0.026l0,-0.012Z" style="fill-rule:nonzero;"/><path d="M43.533,359.948c-0.195,0 -0.332,-0.068 -0.412,-0.203c-0.08,-0.135 -0.12,-0.274 -0.12,-0.418c0,-0.202 0.042,-0.439 0.126,-0.709c0.085,-0.27 0.186,-0.536 0.304,-0.798l-1.608,1.976c-0.051,0.051 -0.106,0.076 -0.165,0.076c-0.068,0 -0.125,-0.027 -0.171,-0.082c-0.046,-0.055 -0.07,-0.112 -0.07,-0.171c0,-0.026 0.007,-0.055 0.019,-0.089c0.013,-0.034 0.028,-0.059 0.045,-0.076l2.09,-2.571l0.456,-0.532l0.367,-0.418c0.068,-0.076 0.135,-0.114 0.203,-0.114c0.16,0 0.24,0.071 0.24,0.215c0,0.017 -0.002,0.044 -0.006,0.082c-0.004,0.038 -0.015,0.07 -0.032,0.095c-0.042,0.068 -0.143,0.247 -0.304,0.539c-0.16,0.291 -0.325,0.627 -0.494,1.007c-0.059,0.135 -0.118,0.274 -0.177,0.418c-0.059,0.143 -0.114,0.283 -0.165,0.418c-0.05,0.135 -0.09,0.264 -0.12,0.386c-0.03,0.122 -0.044,0.226 -0.044,0.31c0,0.11 0.017,0.165 0.05,0.165c0.034,0 0.083,-0.015 0.146,-0.044c0.063,-0.03 0.125,-0.07 0.184,-0.121c0.185,-0.177 0.367,-0.354 0.544,-0.532c0.178,-0.177 0.34,-0.342 0.488,-0.494c0.148,-0.152 0.27,-0.283 0.367,-0.392c0.097,-0.11 0.167,-0.186 0.209,-0.228c0.051,-0.051 0.114,-0.076 0.19,-0.076c0.085,0 0.146,0.027 0.184,0.082c0.038,0.055 0.057,0.108 0.057,0.158c0,0.026 -0.011,0.057 -0.032,0.095c-0.021,0.038 -0.04,0.07 -0.057,0.095c-0.059,0.068 -0.228,0.252 -0.506,0.551c-0.279,0.3 -0.651,0.665 -1.115,1.096c-0.11,0.101 -0.226,0.177 -0.348,0.228c-0.123,0.051 -0.23,0.076 -0.323,0.076Zm2.229,-5.345c0,0.194 -0.051,0.321 -0.152,0.38c-0.101,0.059 -0.194,0.088 -0.279,0.088c-0.118,0 -0.202,-0.038 -0.253,-0.114c-0.051,-0.076 -0.076,-0.164 -0.076,-0.266c0,-0.126 0.04,-0.234 0.12,-0.323c0.08,-0.088 0.18,-0.133 0.298,-0.133c0.118,0 0.205,0.038 0.26,0.114c0.054,0.076 0.082,0.161 0.082,0.254Z" style="fill-rule:nonzero;"/><path d="M46.585,359.872c-0.169,0 -0.253,-0.084 -0.253,-0.253c0,-0.034 0.004,-0.064 0.013,-0.089c0.008,-0.025 0.029,-0.072 0.063,-0.139c0.127,-0.228 0.26,-0.486 0.399,-0.773c0.139,-0.287 0.268,-0.572 0.386,-0.855c0.118,-0.283 0.216,-0.545 0.292,-0.785c0.076,-0.241 0.114,-0.429 0.114,-0.564c0,-0.084 -0.017,-0.127 -0.051,-0.127c-0.059,0 -0.148,0.043 -0.266,0.127c-0.059,0.042 -0.142,0.116 -0.247,0.222c-0.106,0.105 -0.224,0.232 -0.355,0.38c-0.131,0.147 -0.27,0.304 -0.418,0.468c-0.148,0.165 -0.289,0.328 -0.424,0.488c-0.051,0.059 -0.114,0.089 -0.19,0.089c-0.068,0 -0.127,-0.024 -0.177,-0.07c-0.051,-0.046 -0.076,-0.103 -0.076,-0.171c0,-0.068 0.025,-0.127 0.076,-0.177c0.109,-0.127 0.236,-0.273 0.38,-0.437c0.143,-0.165 0.287,-0.325 0.43,-0.482c0.144,-0.156 0.279,-0.299 0.406,-0.43c0.126,-0.131 0.228,-0.226 0.304,-0.285c0.194,-0.144 0.38,-0.216 0.557,-0.216c0.186,0 0.325,0.07 0.418,0.209c0.093,0.14 0.139,0.281 0.139,0.425c0,0.067 -0.008,0.156 -0.025,0.266c-0.017,0.109 -0.047,0.223 -0.089,0.342c0.304,-0.355 0.619,-0.646 0.944,-0.874c0.325,-0.228 0.656,-0.342 0.994,-0.342c0.178,0 0.325,0.048 0.444,0.145c0.118,0.097 0.177,0.23 0.177,0.399c0,0.127 -0.021,0.266 -0.063,0.418c-0.043,0.152 -0.093,0.306 -0.152,0.463c-0.06,0.156 -0.121,0.304 -0.184,0.443c-0.063,0.139 -0.116,0.251 -0.158,0.336c-0.06,0.109 -0.119,0.228 -0.178,0.354c-0.059,0.127 -0.112,0.249 -0.158,0.368c-0.047,0.118 -0.085,0.23 -0.114,0.335c-0.03,0.106 -0.044,0.192 -0.044,0.26c0,0.051 0.021,0.076 0.063,0.076c0.101,0 0.228,-0.053 0.38,-0.158c0.152,-0.106 0.319,-0.245 0.5,-0.418c0.182,-0.173 0.37,-0.366 0.564,-0.577c0.194,-0.211 0.384,-0.418 0.57,-0.62c0.05,-0.051 0.11,-0.076 0.177,-0.076c0.085,0 0.146,0.025 0.184,0.076c0.038,0.05 0.057,0.109 0.057,0.177c0,0.025 -0.007,0.055 -0.019,0.089c-0.013,0.033 -0.028,0.059 -0.045,0.076c-0.185,0.211 -0.384,0.428 -0.595,0.652c-0.211,0.224 -0.422,0.431 -0.633,0.621c-0.211,0.19 -0.416,0.346 -0.614,0.468c-0.199,0.123 -0.378,0.184 -0.539,0.184c-0.194,0 -0.333,-0.059 -0.418,-0.177c-0.084,-0.119 -0.126,-0.241 -0.126,-0.368c0,-0.194 0.054,-0.424 0.164,-0.69c0.11,-0.266 0.237,-0.551 0.38,-0.855c0.11,-0.236 0.222,-0.488 0.336,-0.754c0.114,-0.266 0.171,-0.479 0.171,-0.639c0,-0.051 -0.011,-0.083 -0.032,-0.095c-0.021,-0.013 -0.053,-0.019 -0.095,-0.019c-0.143,0 -0.289,0.033 -0.437,0.101c-0.148,0.068 -0.295,0.158 -0.443,0.272c-0.148,0.114 -0.294,0.247 -0.437,0.399c-0.144,0.152 -0.279,0.309 -0.405,0.469c-0.119,0.152 -0.235,0.312 -0.349,0.481c-0.114,0.169 -0.224,0.336 -0.329,0.501c-0.106,0.164 -0.203,0.323 -0.291,0.475c-0.089,0.152 -0.163,0.283 -0.222,0.392l-0.203,0.368c-0.025,0.042 -0.061,0.069 -0.107,0.082c-0.047,0.013 -0.087,0.019 -0.121,0.019Z" style="fill-rule:nonzero;"/><path d="M51.74,358.061c-0.076,0 -0.137,-0.024 -0.183,-0.07c-0.047,-0.046 -0.07,-0.103 -0.07,-0.171c0,-0.068 0.025,-0.127 0.076,-0.177c0.22,-0.228 0.405,-0.446 0.557,-0.653c0.152,-0.207 0.292,-0.416 0.418,-0.627l-0.468,0c-0.068,0 -0.127,-0.025 -0.178,-0.076c-0.05,-0.05 -0.076,-0.109 -0.076,-0.177c0,-0.068 0.026,-0.125 0.076,-0.171c0.051,-0.046 0.11,-0.07 0.178,-0.07l0.734,0l0.19,-0.405c0.119,-0.312 0.222,-0.574 0.311,-0.785c0.088,-0.211 0.162,-0.38 0.221,-0.507c0.068,-0.152 0.119,-0.27 0.152,-0.355c0.043,-0.101 0.119,-0.152 0.228,-0.152c0.085,0 0.146,0.026 0.184,0.076c0.038,0.051 0.057,0.106 0.057,0.165l0,0.063c0,0.026 -0.008,0.055 -0.025,0.089l-0.76,1.811l1.165,0c0.068,0 0.127,0.024 0.177,0.07c0.051,0.046 0.076,0.103 0.076,0.171c0,0.068 -0.025,0.127 -0.076,0.177c-0.05,0.051 -0.109,0.076 -0.177,0.076l-1.355,0c-0.076,0.186 -0.154,0.393 -0.235,0.621c-0.08,0.228 -0.154,0.46 -0.221,0.697c-0.068,0.236 -0.125,0.462 -0.171,0.677c-0.047,0.216 -0.07,0.404 -0.07,0.564c0,0.101 0.017,0.211 0.051,0.329c0.034,0.119 0.101,0.178 0.202,0.178c0.085,0 0.201,-0.055 0.349,-0.165c0.148,-0.11 0.312,-0.251 0.494,-0.424c0.181,-0.173 0.371,-0.366 0.57,-0.577c0.198,-0.211 0.386,-0.418 0.563,-0.62c0.051,-0.051 0.11,-0.076 0.178,-0.076c0.067,0 0.126,0.025 0.177,0.076c0.051,0.05 0.076,0.105 0.076,0.164c0,0.068 -0.025,0.127 -0.076,0.178c-0.11,0.135 -0.262,0.312 -0.456,0.532c-0.194,0.219 -0.401,0.432 -0.621,0.639c-0.219,0.207 -0.441,0.387 -0.665,0.539c-0.223,0.152 -0.42,0.228 -0.589,0.228c-0.126,0 -0.236,-0.03 -0.329,-0.089c-0.093,-0.059 -0.169,-0.135 -0.228,-0.228c-0.059,-0.093 -0.103,-0.198 -0.133,-0.317c-0.029,-0.118 -0.044,-0.236 -0.044,-0.354c0,-0.169 0.017,-0.359 0.05,-0.57c0.034,-0.211 0.085,-0.439 0.152,-0.684l-0.278,0.304c-0.051,0.05 -0.11,0.076 -0.178,0.076Z" style="fill-rule:nonzero;"/><path d="M55.477,359.948c-0.38,0 -0.65,-0.116 -0.811,-0.348c-0.16,-0.233 -0.24,-0.501 -0.24,-0.805c0,-0.278 0.059,-0.591 0.177,-0.937c0.118,-0.346 0.279,-0.671 0.481,-0.975c0.203,-0.304 0.437,-0.56 0.703,-0.767c0.266,-0.207 0.547,-0.31 0.843,-0.31c0.219,0 0.397,0.059 0.532,0.177c0.135,0.119 0.202,0.279 0.202,0.482c0,0.304 -0.196,0.618 -0.589,0.943c-0.392,0.325 -0.977,0.577 -1.754,0.754c-0.034,0.118 -0.059,0.23 -0.076,0.336c-0.017,0.105 -0.025,0.213 -0.025,0.323c0,0.194 0.042,0.348 0.126,0.462c0.085,0.114 0.22,0.171 0.406,0.171c0.278,0 0.656,-0.15 1.133,-0.45c0.477,-0.299 0.986,-0.753 1.527,-1.361c0.05,-0.051 0.114,-0.076 0.19,-0.076c0.084,0 0.143,0.029 0.177,0.088c0.034,0.059 0.051,0.114 0.051,0.165c0,0.025 -0.007,0.055 -0.019,0.089c-0.013,0.033 -0.028,0.059 -0.045,0.076c-0.532,0.608 -1.062,1.087 -1.589,1.437c-0.528,0.351 -0.995,0.526 -1.4,0.526Zm1.153,-3.648c-0.144,0 -0.285,0.042 -0.425,0.127c-0.139,0.084 -0.268,0.19 -0.386,0.316c-0.118,0.127 -0.228,0.266 -0.329,0.418c-0.102,0.152 -0.186,0.296 -0.254,0.431c0.304,-0.076 0.56,-0.165 0.767,-0.266c0.207,-0.101 0.373,-0.205 0.5,-0.31c0.127,-0.106 0.22,-0.207 0.279,-0.304c0.059,-0.097 0.088,-0.184 0.088,-0.26c0,-0.059 -0.029,-0.099 -0.088,-0.12c-0.059,-0.021 -0.11,-0.032 -0.152,-0.032Z" style="fill-rule:nonzero;"/><path d="M59.872,359.935c-0.177,0 -0.323,-0.059 -0.437,-0.177c-0.114,-0.118 -0.171,-0.262 -0.171,-0.431c0,-0.101 0.021,-0.215 0.064,-0.342c0.042,-0.126 0.095,-0.257 0.158,-0.392c0.063,-0.135 0.133,-0.264 0.209,-0.387c0.076,-0.122 0.144,-0.234 0.203,-0.335c0,-0.009 0.019,-0.045 0.057,-0.108c0.038,-0.063 0.082,-0.137 0.133,-0.222c0.05,-0.084 0.101,-0.173 0.152,-0.266c0.05,-0.093 0.093,-0.173 0.126,-0.24c0.017,-0.043 0.034,-0.085 0.051,-0.127c0.017,-0.042 0.025,-0.084 0.025,-0.127c0,-0.025 -0.029,-0.038 -0.088,-0.038l-0.266,0c-0.085,0 -0.163,-0.01 -0.235,-0.031c-0.071,-0.021 -0.133,-0.066 -0.183,-0.133c-0.169,0.202 -0.357,0.43 -0.564,0.684c-0.207,0.253 -0.416,0.494 -0.627,0.722c-0.042,0.05 -0.101,0.076 -0.177,0.076c-0.085,0 -0.146,-0.024 -0.184,-0.07c-0.038,-0.046 -0.057,-0.103 -0.057,-0.171c0,-0.059 0.017,-0.11 0.051,-0.152l0.658,-0.766c0.119,-0.14 0.233,-0.275 0.342,-0.406c0.11,-0.131 0.207,-0.247 0.292,-0.348c0.16,-0.194 0.259,-0.319 0.297,-0.374c0.038,-0.055 0.07,-0.095 0.095,-0.12c0.026,-0.025 0.059,-0.051 0.102,-0.076c0.042,-0.025 0.08,-0.038 0.114,-0.038c0.093,0 0.158,0.025 0.196,0.076c0.038,0.051 0.057,0.101 0.057,0.152c0,0.076 -0.025,0.152 -0.076,0.228c-0.093,0.144 -0.122,0.228 -0.089,0.253c0.017,0.017 0.059,0.021 0.127,0.013c0.068,-0.008 0.135,-0.013 0.203,-0.013c0.143,0 0.264,0.047 0.361,0.14c0.097,0.093 0.145,0.207 0.145,0.342c0,0.093 -0.021,0.198 -0.063,0.316c-0.042,0.119 -0.095,0.243 -0.158,0.374c-0.064,0.131 -0.135,0.264 -0.216,0.399c-0.08,0.135 -0.154,0.262 -0.221,0.38c-0.119,0.203 -0.235,0.407 -0.349,0.614c-0.114,0.207 -0.171,0.378 -0.171,0.513c0,0.076 0.038,0.114 0.114,0.114c0.034,0 0.072,-0.012 0.114,-0.038c0.22,-0.169 0.444,-0.365 0.672,-0.589c0.228,-0.223 0.439,-0.445 0.633,-0.665c0.093,-0.093 0.177,-0.183 0.253,-0.272c0.076,-0.089 0.148,-0.167 0.216,-0.234c0.05,-0.051 0.109,-0.076 0.177,-0.076c0.059,0 0.116,0.025 0.171,0.076c0.055,0.05 0.082,0.105 0.082,0.164c0,0.068 -0.025,0.127 -0.076,0.178l-0.19,0.202c-0.109,0.119 -0.234,0.254 -0.373,0.406c-0.14,0.152 -0.281,0.304 -0.425,0.456c-0.143,0.152 -0.289,0.295 -0.437,0.43c-0.147,0.135 -0.289,0.249 -0.424,0.342c-0.118,0.076 -0.249,0.114 -0.393,0.114Z" style="fill-rule:nonzero;"/><path d="M63.178,359.935c-0.346,0 -0.597,-0.105 -0.753,-0.316c-0.157,-0.211 -0.235,-0.477 -0.235,-0.798c0,-0.144 0.013,-0.309 0.038,-0.494c0.026,-0.186 0.068,-0.389 0.127,-0.608l-0.228,0.266c-0.051,0.05 -0.11,0.076 -0.177,0.076c-0.085,0 -0.146,-0.028 -0.184,-0.083c-0.038,-0.055 -0.057,-0.112 -0.057,-0.171c0,-0.067 0.021,-0.122 0.063,-0.164c0.085,-0.093 0.173,-0.195 0.266,-0.304c0.085,-0.093 0.186,-0.209 0.304,-0.349c0.118,-0.139 0.254,-0.297 0.406,-0.475c0.177,-0.464 0.356,-0.91 0.538,-1.336c0.181,-0.426 0.365,-0.842 0.551,-1.248c0.338,-0.734 0.627,-1.275 0.868,-1.621c0.24,-0.346 0.462,-0.557 0.665,-0.633c0.092,-0.034 0.168,-0.051 0.228,-0.051c0.194,0 0.352,0.068 0.475,0.203c0.122,0.135 0.183,0.291 0.183,0.468c0,0.093 -0.017,0.209 -0.05,0.349c-0.034,0.139 -0.098,0.293 -0.19,0.462c-0.169,0.296 -0.38,0.619 -0.634,0.969c-0.253,0.351 -0.515,0.697 -0.785,1.039c-0.27,0.342 -0.532,0.658 -0.785,0.95c-0.254,0.291 -0.461,0.521 -0.621,0.69c-0.177,0.481 -0.306,0.891 -0.386,1.229c-0.081,0.337 -0.121,0.616 -0.121,0.836c0,0.413 0.169,0.62 0.507,0.62c0.203,0 0.407,-0.088 0.614,-0.266c0.207,-0.177 0.395,-0.401 0.564,-0.671c-0.161,-0.152 -0.275,-0.348 -0.342,-0.589c-0.068,-0.241 -0.101,-0.471 -0.101,-0.69c0,-0.119 0.016,-0.258 0.05,-0.418c0.034,-0.161 0.087,-0.315 0.159,-0.463c0.071,-0.147 0.166,-0.272 0.285,-0.373c0.118,-0.102 0.261,-0.152 0.43,-0.152c0.135,0 0.243,0.033 0.323,0.101c0.08,0.068 0.142,0.15 0.184,0.247c0.042,0.097 0.072,0.203 0.089,0.317c0.016,0.114 0.025,0.213 0.025,0.297c0,0.279 -0.042,0.549 -0.127,0.811c-0.084,0.262 -0.186,0.507 -0.304,0.735c0.085,0.017 0.148,0.025 0.19,0.025c0.161,0 0.323,-0.061 0.488,-0.184c0.165,-0.122 0.352,-0.297 0.564,-0.525c0.059,-0.059 0.122,-0.089 0.19,-0.089c0.092,0 0.156,0.025 0.19,0.076c0.033,0.051 0.05,0.106 0.05,0.165c0,0.076 -0.025,0.139 -0.076,0.19c-0.194,0.219 -0.407,0.418 -0.639,0.595c-0.233,0.177 -0.488,0.266 -0.767,0.266c-0.152,0 -0.295,-0.025 -0.43,-0.076c-0.22,0.338 -0.469,0.616 -0.748,0.836c-0.278,0.22 -0.57,0.329 -0.874,0.329Zm2.432,-7.828c-0.076,0 -0.181,0.081 -0.316,0.241c-0.136,0.161 -0.277,0.367 -0.425,0.621c-0.148,0.253 -0.291,0.521 -0.43,0.804c-0.14,0.283 -0.271,0.568 -0.393,0.855c-0.123,0.287 -0.23,0.545 -0.323,0.773c0.228,-0.262 0.464,-0.545 0.709,-0.849c0.245,-0.304 0.465,-0.597 0.659,-0.88c0.194,-0.283 0.355,-0.545 0.481,-0.786c0.127,-0.24 0.19,-0.437 0.19,-0.589c0,-0.067 -0.017,-0.116 -0.05,-0.145c-0.034,-0.03 -0.068,-0.045 -0.102,-0.045Zm-0.76,4.206c-0.076,0 -0.141,0.036 -0.196,0.107c-0.055,0.072 -0.099,0.159 -0.133,0.26c-0.034,0.101 -0.059,0.205 -0.076,0.31c-0.017,0.106 -0.025,0.188 -0.025,0.247c0,0.144 0.014,0.29 0.044,0.437c0.029,0.148 0.086,0.277 0.171,0.387c0.093,-0.211 0.173,-0.423 0.241,-0.634c0.067,-0.211 0.101,-0.422 0.101,-0.633c0,-0.034 -0.002,-0.078 -0.006,-0.133c-0.005,-0.055 -0.011,-0.108 -0.019,-0.158c-0.009,-0.051 -0.022,-0.095 -0.038,-0.133c-0.017,-0.038 -0.038,-0.057 -0.064,-0.057Z" style="fill-rule:nonzero;"/><path d="M67.13,359.935c-0.126,0 -0.232,-0.027 -0.316,-0.082c-0.085,-0.055 -0.152,-0.122 -0.203,-0.203c-0.051,-0.08 -0.089,-0.171 -0.114,-0.272c-0.025,-0.101 -0.038,-0.203 -0.038,-0.304c0,-0.194 0.015,-0.38 0.044,-0.557c0.03,-0.178 0.07,-0.351 0.121,-0.52c-0.034,0.034 -0.085,0.051 -0.152,0.051c-0.076,0 -0.138,-0.023 -0.184,-0.07c-0.047,-0.046 -0.07,-0.103 -0.07,-0.171c0,-0.067 0.021,-0.122 0.064,-0.164c0.059,-0.059 0.158,-0.171 0.297,-0.336c0.14,-0.165 0.306,-0.374 0.501,-0.627c0.253,-0.667 0.477,-1.237 0.671,-1.71c0.194,-0.473 0.365,-0.87 0.513,-1.191c0.148,-0.32 0.268,-0.572 0.361,-0.753c0.093,-0.182 0.16,-0.311 0.202,-0.387c0.245,-0.447 0.469,-0.738 0.672,-0.874c0.202,-0.135 0.371,-0.202 0.506,-0.202c0.195,0 0.332,0.069 0.412,0.209c0.08,0.139 0.12,0.285 0.12,0.437c0,0.093 -0.01,0.188 -0.031,0.285c-0.021,0.097 -0.057,0.192 -0.108,0.285c-0.118,0.245 -0.289,0.542 -0.513,0.893c-0.224,0.35 -0.471,0.715 -0.741,1.095c-0.27,0.38 -0.547,0.76 -0.83,1.14c-0.282,0.38 -0.546,0.722 -0.791,1.026c-0.059,0.152 -0.123,0.319 -0.19,0.501c-0.068,0.181 -0.129,0.369 -0.184,0.563c-0.055,0.195 -0.101,0.382 -0.139,0.564c-0.038,0.182 -0.057,0.348 -0.057,0.5c0,0.102 0.01,0.188 0.032,0.26c0.021,0.072 0.082,0.108 0.183,0.108c0.059,0 0.142,-0.038 0.247,-0.114c0.106,-0.076 0.222,-0.176 0.349,-0.298c0.126,-0.122 0.257,-0.258 0.392,-0.405c0.135,-0.148 0.266,-0.294 0.393,-0.437c0.093,-0.102 0.181,-0.199 0.266,-0.292c0.084,-0.093 0.16,-0.173 0.228,-0.24c0.059,-0.059 0.122,-0.089 0.19,-0.089c0.084,0 0.145,0.027 0.183,0.082c0.038,0.055 0.057,0.112 0.057,0.171c0,0.068 -0.025,0.127 -0.076,0.178c-0.067,0.067 -0.137,0.143 -0.209,0.228c-0.071,0.084 -0.154,0.177 -0.247,0.278c-0.143,0.161 -0.293,0.325 -0.449,0.494c-0.156,0.169 -0.313,0.323 -0.469,0.463c-0.156,0.139 -0.31,0.255 -0.462,0.348c-0.152,0.093 -0.296,0.139 -0.431,0.139Zm2.863,-7.878c-0.068,0 -0.163,0.059 -0.285,0.177c-0.123,0.118 -0.273,0.334 -0.45,0.646c-0.194,0.346 -0.382,0.731 -0.564,1.153c-0.181,0.422 -0.352,0.832 -0.512,1.228c0.185,-0.253 0.369,-0.506 0.55,-0.76c0.182,-0.253 0.351,-0.498 0.507,-0.734c0.156,-0.237 0.296,-0.458 0.418,-0.665c0.123,-0.207 0.222,-0.387 0.298,-0.539c0.034,-0.067 0.057,-0.133 0.069,-0.196c0.013,-0.063 0.019,-0.116 0.019,-0.158c0,-0.042 -0.004,-0.078 -0.012,-0.108c-0.009,-0.029 -0.021,-0.044 -0.038,-0.044Z" style="fill-rule:nonzero;"/><path d="M69.765,359.923c-0.169,0 -0.315,-0.034 -0.437,-0.102c-0.123,-0.067 -0.222,-0.156 -0.298,-0.266c-0.076,-0.109 -0.133,-0.232 -0.171,-0.367c-0.038,-0.135 -0.057,-0.274 -0.057,-0.418c0,-0.211 0.034,-0.445 0.101,-0.703c0.068,-0.258 0.171,-0.517 0.311,-0.779c0.139,-0.262 0.31,-0.511 0.513,-0.747c0.202,-0.237 0.439,-0.444 0.709,-0.621c0.034,-0.017 0.066,-0.032 0.095,-0.044c0.03,-0.013 0.053,-0.019 0.07,-0.019c0.067,0 0.126,0.025 0.177,0.076c0.051,0.05 0.076,0.105 0.076,0.164c0,0.085 -0.038,0.157 -0.114,0.216c-0.228,0.152 -0.431,0.331 -0.608,0.538c-0.177,0.207 -0.329,0.422 -0.456,0.646c-0.127,0.224 -0.222,0.445 -0.285,0.665c-0.063,0.22 -0.095,0.422 -0.095,0.608c0,0.169 0.038,0.321 0.114,0.456c0.076,0.135 0.194,0.203 0.355,0.203c0.194,0 0.39,-0.07 0.589,-0.209c0.198,-0.14 0.369,-0.277 0.513,-0.412c-0.27,-0.253 -0.406,-0.629 -0.406,-1.127c0,-0.161 0.026,-0.351 0.076,-0.57c0.051,-0.22 0.127,-0.431 0.228,-0.634c0.102,-0.202 0.228,-0.373 0.38,-0.513c0.152,-0.139 0.326,-0.209 0.52,-0.209c0.135,0 0.245,0.034 0.329,0.102c0.085,0.067 0.15,0.152 0.196,0.253c0.047,0.101 0.079,0.209 0.095,0.323c0.017,0.114 0.026,0.217 0.026,0.31c0,0.355 -0.066,0.689 -0.197,1.001c-0.13,0.312 -0.285,0.604 -0.462,0.874l0.038,0c0.194,0 0.403,-0.078 0.627,-0.234c0.224,-0.157 0.484,-0.404 0.779,-0.741c0.051,-0.051 0.114,-0.076 0.19,-0.076c0.085,0 0.144,0.027 0.177,0.082c0.034,0.055 0.051,0.112 0.051,0.171c0,0.068 -0.021,0.122 -0.063,0.165c-0.27,0.295 -0.551,0.557 -0.843,0.785c-0.291,0.228 -0.601,0.342 -0.931,0.342c-0.143,0 -0.266,-0.017 -0.367,-0.051c-0.211,0.228 -0.447,0.429 -0.709,0.602c-0.262,0.173 -0.541,0.26 -0.836,0.26Zm1.9,-3.674c-0.102,0 -0.197,0.053 -0.285,0.159c-0.089,0.105 -0.165,0.232 -0.228,0.38c-0.064,0.147 -0.112,0.304 -0.146,0.468c-0.034,0.165 -0.051,0.306 -0.051,0.425c0,0.093 0.015,0.215 0.045,0.367c0.029,0.152 0.091,0.274 0.183,0.367c0.169,-0.245 0.317,-0.515 0.444,-0.81c0.126,-0.296 0.19,-0.579 0.19,-0.849c0,-0.034 -0.002,-0.08 -0.007,-0.139c-0.004,-0.059 -0.01,-0.116 -0.019,-0.171c-0.008,-0.055 -0.023,-0.102 -0.044,-0.14c-0.021,-0.038 -0.048,-0.057 -0.082,-0.057Z" style="fill-rule:nonzero;"/><path d="M73.805,359.923c-0.168,0 -0.314,-0.034 -0.437,-0.102c-0.122,-0.067 -0.221,-0.156 -0.297,-0.266c-0.076,-0.109 -0.133,-0.232 -0.171,-0.367c-0.038,-0.135 -0.057,-0.274 -0.057,-0.418c0,-0.211 0.034,-0.445 0.101,-0.703c0.068,-0.258 0.171,-0.517 0.31,-0.779c0.14,-0.262 0.311,-0.511 0.513,-0.747c0.203,-0.237 0.439,-0.444 0.71,-0.621c0.033,-0.017 0.065,-0.032 0.095,-0.044c0.029,-0.013 0.052,-0.019 0.069,-0.019c0.068,0 0.127,0.025 0.178,0.076c0.05,0.05 0.076,0.105 0.076,0.164c0,0.085 -0.038,0.157 -0.114,0.216c-0.228,0.152 -0.431,0.331 -0.608,0.538c-0.178,0.207 -0.33,0.422 -0.456,0.646c-0.127,0.224 -0.222,0.445 -0.285,0.665c-0.064,0.22 -0.095,0.422 -0.095,0.608c0,0.169 0.038,0.321 0.114,0.456c0.076,0.135 0.194,0.203 0.354,0.203c0.195,0 0.391,-0.07 0.589,-0.209c0.199,-0.14 0.37,-0.277 0.513,-0.412c-0.27,-0.253 -0.405,-0.629 -0.405,-1.127c0,-0.161 0.025,-0.351 0.076,-0.57c0.051,-0.22 0.127,-0.431 0.228,-0.634c0.101,-0.202 0.228,-0.373 0.38,-0.513c0.152,-0.139 0.325,-0.209 0.519,-0.209c0.135,0 0.245,0.034 0.33,0.102c0.084,0.067 0.15,0.152 0.196,0.253c0.046,0.101 0.078,0.209 0.095,0.323c0.017,0.114 0.025,0.217 0.025,0.31c0,0.355 -0.065,0.689 -0.196,1.001c-0.131,0.312 -0.285,0.604 -0.462,0.874l0.038,0c0.194,0 0.403,-0.078 0.627,-0.234c0.223,-0.157 0.483,-0.404 0.779,-0.741c0.05,-0.051 0.114,-0.076 0.19,-0.076c0.084,0 0.143,0.027 0.177,0.082c0.034,0.055 0.051,0.112 0.051,0.171c0,0.068 -0.021,0.122 -0.064,0.165c-0.27,0.295 -0.551,0.557 -0.842,0.785c-0.291,0.228 -0.602,0.342 -0.931,0.342c-0.144,0 -0.266,-0.017 -0.367,-0.051c-0.211,0.228 -0.448,0.429 -0.71,0.602c-0.261,0.173 -0.54,0.26 -0.836,0.26Zm1.9,-3.674c-0.101,0 -0.196,0.053 -0.285,0.159c-0.088,0.105 -0.164,0.232 -0.228,0.38c-0.063,0.147 -0.112,0.304 -0.145,0.468c-0.034,0.165 -0.051,0.306 -0.051,0.425c0,0.093 0.015,0.215 0.044,0.367c0.03,0.152 0.091,0.274 0.184,0.367c0.169,-0.245 0.317,-0.515 0.443,-0.81c0.127,-0.296 0.19,-0.579 0.19,-0.849c0,-0.034 -0.002,-0.08 -0.006,-0.139c-0.004,-0.059 -0.011,-0.116 -0.019,-0.171c-0.008,-0.055 -0.023,-0.102 -0.044,-0.14c-0.021,-0.038 -0.049,-0.057 -0.083,-0.057Z" style="fill-rule:nonzero;"/><path d="M80.658,359.923c-0.093,0 -0.161,-0.028 -0.203,-0.083c-0.042,-0.055 -0.063,-0.116 -0.063,-0.183c0,-0.051 0.021,-0.127 0.063,-0.228c0.042,-0.102 0.093,-0.209 0.152,-0.323l0.317,-0.589c0.101,-0.296 0.192,-0.604 0.272,-0.925c0.08,-0.321 0.121,-0.604 0.121,-0.849c0,-0.093 -0.009,-0.19 -0.026,-0.291c-0.017,-0.101 -0.067,-0.152 -0.152,-0.152c-0.194,0 -0.416,0.129 -0.665,0.386c-0.249,0.258 -0.498,0.568 -0.747,0.931c-0.249,0.363 -0.483,0.737 -0.703,1.121c-0.22,0.385 -0.393,0.703 -0.519,0.957c-0.026,0.042 -0.059,0.084 -0.102,0.126c-0.042,0.043 -0.093,0.064 -0.152,0.064c-0.084,0 -0.145,-0.028 -0.183,-0.083c-0.038,-0.055 -0.057,-0.107 -0.057,-0.158c0,-0.076 0.021,-0.158 0.063,-0.247c0.042,-0.089 0.097,-0.179 0.165,-0.272c0.101,-0.186 0.209,-0.391 0.323,-0.615c0.114,-0.223 0.217,-0.449 0.31,-0.677c0.093,-0.228 0.171,-0.446 0.234,-0.653c0.064,-0.207 0.095,-0.394 0.095,-0.563c0,-0.068 -0.008,-0.133 -0.025,-0.197c-0.017,-0.063 -0.055,-0.095 -0.114,-0.095c-0.076,0 -0.16,0.047 -0.253,0.14c-0.068,0.059 -0.148,0.141 -0.241,0.247c-0.093,0.105 -0.19,0.217 -0.291,0.335c-0.102,0.119 -0.203,0.237 -0.304,0.355c-0.102,0.118 -0.19,0.224 -0.266,0.317l-0.228,0.266c-0.026,0.025 -0.051,0.046 -0.076,0.063c-0.026,0.017 -0.059,0.025 -0.102,0.025c-0.067,0 -0.126,-0.023 -0.177,-0.069c-0.051,-0.047 -0.076,-0.104 -0.076,-0.171c0,-0.076 0.021,-0.135 0.063,-0.178c0.034,-0.05 0.108,-0.143 0.222,-0.278c0.114,-0.135 0.239,-0.283 0.374,-0.444c0.135,-0.16 0.272,-0.316 0.411,-0.468c0.14,-0.152 0.256,-0.271 0.349,-0.355c0.194,-0.177 0.397,-0.266 0.608,-0.266c0.219,0 0.378,0.082 0.475,0.247c0.097,0.165 0.145,0.336 0.145,0.513c0,0.042 -0.002,0.087 -0.006,0.133c-0.004,0.046 -0.011,0.091 -0.019,0.133c0.245,-0.304 0.494,-0.557 0.747,-0.76c0.254,-0.203 0.494,-0.304 0.722,-0.304c0.127,0 0.235,0.03 0.323,0.089c0.089,0.059 0.159,0.135 0.209,0.228c0.051,0.093 0.087,0.192 0.108,0.297c0.021,0.106 0.032,0.209 0.032,0.311c0,0.093 -0.005,0.183 -0.013,0.272c-0.009,0.089 -0.021,0.184 -0.038,0.285c0.321,-0.414 0.654,-0.762 1.001,-1.045c0.346,-0.283 0.696,-0.424 1.051,-0.424c0.211,0 0.369,0.059 0.475,0.177c0.105,0.118 0.158,0.27 0.158,0.456c0,0.186 -0.044,0.401 -0.133,0.646c-0.088,0.245 -0.192,0.507 -0.31,0.785l-0.076,0.178c-0.101,0.236 -0.199,0.477 -0.291,0.722c-0.093,0.245 -0.14,0.435 -0.14,0.57c0,0.042 0.009,0.063 0.026,0.063c0.135,0 0.371,-0.148 0.709,-0.443c0.338,-0.296 0.768,-0.739 1.292,-1.33c0.059,-0.059 0.122,-0.089 0.19,-0.089c0.16,0 0.24,0.08 0.24,0.241c0,0.076 -0.025,0.139 -0.075,0.19c-1.157,1.283 -1.943,1.925 -2.356,1.925c-0.178,0 -0.309,-0.053 -0.393,-0.158c-0.085,-0.106 -0.127,-0.239 -0.127,-0.399c0,-0.186 0.047,-0.408 0.14,-0.665c0.092,-0.258 0.206,-0.534 0.342,-0.83c0.109,-0.236 0.215,-0.49 0.316,-0.76c0.102,-0.27 0.152,-0.486 0.152,-0.646c0,-0.093 -0.046,-0.139 -0.139,-0.139c-0.177,0 -0.374,0.078 -0.589,0.234c-0.215,0.156 -0.433,0.353 -0.652,0.589c-0.22,0.236 -0.431,0.494 -0.634,0.773c-0.202,0.278 -0.384,0.54 -0.544,0.785c-0.11,0.296 -0.218,0.555 -0.323,0.779c-0.106,0.224 -0.188,0.357 -0.247,0.399c-0.068,0.034 -0.123,0.051 -0.165,0.051Z" style="fill-rule:nonzero;"/><path d="M12.105,202.659c3.61,0 6.54,2.93 6.54,6.54c0,3.609 -2.93,6.54 -6.54,6.54c-3.609,0 -6.54,-2.931 -6.54,-6.54c0,-3.61 2.931,-6.54 6.54,-6.54Zm-1.426,3.51c0.96,0.08 1.22,1.216 1.451,1.954c0.43,1.368 0.767,3.246 1.365,3.397c0.773,0.194 1.009,-1.339 1.235,-2.408c0.108,-0.36 0.7,-0.327 0.687,0.23c-0.061,1.615 -1.203,3.631 -2.462,2.678c-1.131,-0.856 -0.884,-2.785 -1.88,-4.717c-0.018,-0.035 -0.037,-0.07 -0.057,-0.104c-0.165,-0.28 -0.624,-0.394 -0.962,0.087c-0.537,0.761 -0.375,2.009 -0.743,2.217c-0.239,0.136 -0.53,-0.058 -0.52,-0.431c0.056,-1.353 0.567,-2.94 1.886,-2.903Z"/><path d="M7.416,204.639c-1.599,-1.571 -2.52,-3.864 -2.077,-6.169c0.587,-3.065 3.431,-5.524 6.677,-5.586c0.089,-0.001 0.089,-0.001 0.178,0c3.883,0.074 7.291,3.875 6.734,7.852c-0.212,1.511 -0.988,2.897 -2.089,3.949c-0.187,-0.197 -0.385,-0.38 -0.593,-0.549c1.825,-1.832 2.664,-4.733 1.337,-7.246c-1.036,-1.962 -3.158,-3.264 -5.398,-3.306c-0.08,-0.001 -0.08,-0.001 -0.16,0c-3.491,0.066 -6.55,3.48 -6.05,7.054c0.192,1.368 0.899,2.623 1.902,3.571c-0.162,0.136 -0.316,0.28 -0.461,0.43Z"/><path d="M12.105,251.578c3.61,0 6.54,2.93 6.54,6.539c0,3.61 -2.93,6.54 -6.54,6.54c-3.609,0 -6.54,-2.93 -6.54,-6.54c0,-3.609 2.931,-6.539 6.54,-6.539Zm-1.426,3.509c0.96,0.081 1.22,1.217 1.451,1.954c0.43,1.368 0.767,3.247 1.365,3.397c0.773,0.195 1.009,-1.339 1.235,-2.407c0.108,-0.36 0.7,-0.327 0.687,0.23c-0.061,1.614 -1.203,3.631 -2.462,2.678c-1.131,-0.856 -0.884,-2.785 -1.88,-4.718c-0.018,-0.035 -0.037,-0.07 -0.057,-0.104c-0.165,-0.279 -0.624,-0.393 -0.962,0.087c-0.537,0.762 -0.375,2.01 -0.743,2.218c-0.239,0.135 -0.53,-0.058 -0.52,-0.432c0.056,-1.352 0.567,-2.939 1.886,-2.903Z"/><path d="M7.416,253.557c-1.599,-1.571 -2.52,-3.863 -2.077,-6.169c0.587,-3.064 3.431,-5.524 6.677,-5.586c0.089,0 0.089,0 0.178,0c3.883,0.074 7.291,3.876 6.734,7.852c-0.212,1.511 -0.988,2.898 -2.089,3.95c-0.187,-0.197 -0.385,-0.38 -0.593,-0.55c1.825,-1.831 2.664,-4.732 1.337,-7.245c-1.036,-1.963 -3.158,-3.264 -5.398,-3.307c-0.08,0 -0.08,0 -0.16,0c-3.491,0.067 -6.55,3.481 -6.05,7.055c0.192,1.368 0.899,2.623 1.902,3.57c-0.162,0.137 -0.316,0.281 -0.461,0.43Z"/><path d="M12.105,300.868c3.61,0 6.54,2.93 6.54,6.54c0,3.609 -2.93,6.54 -6.54,6.54c-3.609,0 -6.54,-2.931 -6.54,-6.54c0,-3.61 2.931,-6.54 6.54,-6.54Zm-1.426,3.51c0.96,0.08 1.22,1.216 1.451,1.954c0.43,1.368 0.767,3.246 1.365,3.397c0.773,0.194 1.009,-1.339 1.235,-2.408c0.108,-0.36 0.7,-0.327 0.687,0.23c-0.061,1.615 -1.203,3.631 -2.462,2.678c-1.131,-0.856 -0.884,-2.785 -1.88,-4.717c-0.018,-0.035 -0.037,-0.07 -0.057,-0.104c-0.165,-0.28 -0.624,-0.394 -0.962,0.087c-0.537,0.761 -0.375,2.009 -0.743,2.217c-0.239,0.136 -0.53,-0.058 -0.52,-0.431c0.056,-1.353 0.567,-2.94 1.886,-2.903Z"/><path d="M7.416,302.848c-1.599,-1.571 -2.52,-3.864 -2.077,-6.169c0.587,-3.064 3.431,-5.524 6.677,-5.586c0.089,-0.001 0.089,-0.001 0.178,0c3.883,0.074 7.291,3.875 6.734,7.852c-0.212,1.511 -0.988,2.898 -2.089,3.949c-0.187,-0.197 -0.385,-0.38 -0.593,-0.549c1.825,-1.832 2.664,-4.733 1.337,-7.246c-1.036,-1.962 -3.158,-3.264 -5.398,-3.306c-0.08,-0.001 -0.08,-0.001 -0.16,0c-3.491,0.066 -6.55,3.48 -6.05,7.055c0.192,1.367 0.899,2.622 1.902,3.57c-0.162,0.137 -0.316,0.28 -0.461,0.43Z"/><path d="M99.823,204.521c-1.577,-1.549 -2.486,-3.809 -2.049,-6.082c0.579,-3.021 3.38,-5.445 6.58,-5.505c0.088,-0.001 0.087,-0.001 0.175,0c3.815,0.072 7.188,3.8 6.637,7.738c-0.209,1.49 -0.975,2.857 -2.061,3.893c-0.143,-0.145 -0.293,-0.284 -0.449,-0.416c1.834,-1.847 2.684,-4.758 1.387,-7.288c-1.039,-2.028 -3.208,-3.384 -5.52,-3.427c-0.082,-0.001 -0.081,-0.001 -0.162,0c-3.543,0.067 -6.657,3.537 -6.148,7.168c0.194,1.388 0.911,2.661 1.926,3.623c-0.108,0.095 -0.214,0.194 -0.316,0.296Z"/><path d="M104.442,202.609c3.609,0 6.54,2.93 6.54,6.54c0,3.609 -2.931,6.54 -6.54,6.54c-3.61,0 -6.54,-2.931 -6.54,-6.54c0,-3.61 2.93,-6.54 6.54,-6.54Zm0.003,3.612c0.191,0.01 0.339,0.159 0.347,0.35l0,4.996l2.265,0.004l-0.001,-2.333c0.015,-0.375 0.652,-0.416 0.699,-0.029c0.037,0.904 0.002,1.809 0.002,2.713c-0.007,0.181 -0.141,0.328 -0.323,0.349c-0.997,0.037 -1.995,-0.003 -2.993,-0.005c-0.19,-0.007 -0.342,-0.159 -0.349,-0.35l0,-4.998l-2.245,-0.023l-0.02,2.346c-0.017,0.365 -0.652,0.432 -0.699,0.022c-0.029,-0.908 0.014,-1.816 0.022,-2.725c0.009,-0.181 0.144,-0.326 0.326,-0.346c0.989,-0.029 1.98,0.019 2.969,0.029Z"/><path d="M99.823,253.439c-1.576,-1.548 -2.485,-3.808 -2.049,-6.082c0.58,-3.021 3.381,-5.444 6.581,-5.505c0.087,0 0.087,0 0.175,0c3.815,0.073 7.188,3.801 6.636,7.738c-0.209,1.49 -0.974,2.858 -2.061,3.894c-0.143,-0.146 -0.293,-0.285 -0.449,-0.416c1.835,-1.847 2.685,-4.758 1.388,-7.289c-1.04,-2.027 -3.209,-3.383 -5.52,-3.427c-0.082,0 -0.082,0 -0.163,0c-3.542,0.067 -6.656,3.537 -6.148,7.169c0.195,1.387 0.911,2.661 1.927,3.623c-0.109,0.095 -0.214,0.193 -0.317,0.295Z"/><path d="M104.442,251.528c3.61,0 6.54,2.93 6.54,6.539c0,3.61 -2.93,6.54 -6.54,6.54c-3.609,0 -6.54,-2.93 -6.54,-6.54c0,-3.609 2.931,-6.539 6.54,-6.539Zm0.004,3.612c0.19,0.009 0.338,0.158 0.346,0.35l0,4.996l2.266,0.004l-0.001,-2.334c0.015,-0.374 0.651,-0.416 0.698,-0.028c0.037,0.903 0.002,1.808 0.003,2.712c-0.007,0.182 -0.141,0.328 -0.323,0.35c-0.997,0.037 -1.996,-0.003 -2.993,-0.005c-0.191,-0.008 -0.342,-0.16 -0.35,-0.35l0,-4.999l-2.245,-0.023l-0.019,2.346c-0.018,0.366 -0.653,0.432 -0.699,0.022c-0.029,-0.907 0.014,-1.816 0.021,-2.724c0.009,-0.181 0.144,-0.327 0.326,-0.346c0.99,-0.029 1.98,0.019 2.97,0.029Z"/><path d="M99.82,302.73c-1.576,-1.548 -2.485,-3.809 -2.049,-6.082c0.58,-3.021 3.381,-5.445 6.581,-5.505c0.087,-0.001 0.087,-0.001 0.175,0c3.815,0.072 7.188,3.801 6.636,7.738c-0.209,1.49 -0.974,2.857 -2.061,3.894c-0.143,-0.146 -0.293,-0.285 -0.449,-0.417c1.835,-1.847 2.685,-4.758 1.388,-7.288c-1.04,-2.028 -3.209,-3.383 -5.52,-3.427c-0.082,-0.001 -0.082,-0.001 -0.163,0c-3.542,0.067 -6.656,3.537 -6.147,7.168c0.194,1.388 0.91,2.661 1.926,3.623c-0.109,0.095 -0.214,0.194 -0.317,0.296Z"/><path d="M104.439,300.818c3.61,0 6.54,2.93 6.54,6.54c0,3.609 -2.93,6.54 -6.54,6.54c-3.609,0 -6.54,-2.931 -6.54,-6.54c0,-3.61 2.931,-6.54 6.54,-6.54Zm0.004,3.612c0.19,0.01 0.338,0.159 0.346,0.35l0,4.996l2.266,0.004l-0.001,-2.333c0.015,-0.375 0.651,-0.416 0.698,-0.029c0.037,0.904 0.002,1.809 0.003,2.713c-0.007,0.181 -0.141,0.328 -0.323,0.349c-0.997,0.037 -1.996,-0.003 -2.993,-0.004c-0.191,-0.008 -0.342,-0.16 -0.35,-0.35l0,-4.999l-2.245,-0.023l-0.019,2.346c-0.018,0.366 -0.653,0.432 -0.699,0.022c-0.029,-0.908 0.014,-1.816 0.021,-2.725c0.009,-0.181 0.144,-0.326 0.326,-0.346c0.99,-0.029 1.98,0.019 2.97,0.029Z"/></svg>