G04 #@! TF.GenerationSoftware,KiCad,Pcbnew,(5.1.2)-2*
G04 #@! TF.CreationDate,2020-04-17T15:22:12-07:00*
G04 #@! TF.ProjectId,jackboard,6a61636b-626f-4617-9264-2e6b69636164,v2*
G04 #@! TF.SameCoordinates,Original*
G04 #@! TF.FileFunction,Legend,Top*
G04 #@! TF.FilePolarity,Positive*
%FSLAX46Y46*%
G04 Gerber Fmt 4.6, Leading zero omitted, Abs format (unit mm)*
G04 Created by KiCad (PCBNEW (5.1.2)-2) date 2020-04-17 15:22:12*
%MOMM*%
%LPD*%
G04 APERTURE LIST*
%ADD10C,0.120000*%
%ADD11C,0.127000*%
%ADD12C,0.203200*%
%ADD13C,0.150000*%
%ADD14C,0.015000*%
G04 APERTURE END LIST*
D10*
X139792815Y-76919173D02*
G75*
G03X134445000Y-76455170I-2787815J-1080827D01*
G01*
X139792815Y-79080827D02*
G75*
G02X134445000Y-79544830I-2787815J1080827D01*
G01*
X139259479Y-76919571D02*
G75*
G03X134750316Y-76920000I-2254479J-1080429D01*
G01*
X139259479Y-79080429D02*
G75*
G02X134750316Y-79080000I-2254479J1080429D01*
G01*
X134445000Y-76455000D02*
X134445000Y-76920000D01*
X134445000Y-79080000D02*
X134445000Y-79545000D01*
X130750000Y-59890000D02*
X130750000Y-54490000D01*
X130750000Y-66290000D02*
X130750000Y-63390000D01*
X143250000Y-66290000D02*
X130750000Y-66290000D01*
X143250000Y-63390000D02*
X143250000Y-66290000D01*
X143250000Y-54490000D02*
X143250000Y-59890000D01*
X130750000Y-54490000D02*
X143250000Y-54490000D01*
X136550000Y-53990000D02*
X137050000Y-54490000D01*
X137550000Y-53990000D02*
X136550000Y-53990000D01*
X137050000Y-54490000D02*
X137550000Y-53990000D01*
D11*
X146410000Y-153140000D02*
X146410000Y-150940000D01*
X146010000Y-153140000D02*
X146410000Y-153140000D01*
X146010000Y-151040000D02*
X146010000Y-153140000D01*
X148900720Y-146440000D02*
G75*
G03X148900720Y-146440000I-2690720J0D01*
G01*
X147710000Y-142440000D02*
X147710000Y-140440000D01*
X144710000Y-142440000D02*
X147710000Y-142440000D01*
X144710000Y-140440000D02*
X144710000Y-142440000D01*
X149372280Y-146440000D02*
G75*
G03X149372280Y-146440000I-3162280J0D01*
G01*
X150710000Y-150940000D02*
X150710000Y-140440000D01*
X146410000Y-150940000D02*
X150710000Y-150940000D01*
X141710000Y-150940000D02*
X146410000Y-150940000D01*
X141710000Y-140440000D02*
X141710000Y-150940000D01*
X147710000Y-140440000D02*
X150710000Y-140440000D01*
X144710000Y-140440000D02*
X147710000Y-140440000D01*
X141710000Y-140440000D02*
X144710000Y-140440000D01*
X146410000Y-101070000D02*
X146410000Y-98870000D01*
X146010000Y-101070000D02*
X146410000Y-101070000D01*
X146010000Y-98970000D02*
X146010000Y-101070000D01*
X148900720Y-94370000D02*
G75*
G03X148900720Y-94370000I-2690720J0D01*
G01*
X147710000Y-90370000D02*
X147710000Y-88370000D01*
X144710000Y-90370000D02*
X147710000Y-90370000D01*
X144710000Y-88370000D02*
X144710000Y-90370000D01*
X149372280Y-94370000D02*
G75*
G03X149372280Y-94370000I-3162280J0D01*
G01*
X150710000Y-98870000D02*
X150710000Y-88370000D01*
X146410000Y-98870000D02*
X150710000Y-98870000D01*
X141710000Y-98870000D02*
X146410000Y-98870000D01*
X141710000Y-88370000D02*
X141710000Y-98870000D01*
X147710000Y-88370000D02*
X150710000Y-88370000D01*
X144710000Y-88370000D02*
X147710000Y-88370000D01*
X141710000Y-88370000D02*
X144710000Y-88370000D01*
X128630000Y-101070000D02*
X128630000Y-98870000D01*
X128230000Y-101070000D02*
X128630000Y-101070000D01*
X128230000Y-98970000D02*
X128230000Y-101070000D01*
X131120720Y-94370000D02*
G75*
G03X131120720Y-94370000I-2690720J0D01*
G01*
X129930000Y-90370000D02*
X129930000Y-88370000D01*
X126930000Y-90370000D02*
X129930000Y-90370000D01*
X126930000Y-88370000D02*
X126930000Y-90370000D01*
X131592280Y-94370000D02*
G75*
G03X131592280Y-94370000I-3162280J0D01*
G01*
X132930000Y-98870000D02*
X132930000Y-88370000D01*
X128630000Y-98870000D02*
X132930000Y-98870000D01*
X123930000Y-98870000D02*
X128630000Y-98870000D01*
X123930000Y-88370000D02*
X123930000Y-98870000D01*
X129930000Y-88370000D02*
X132930000Y-88370000D01*
X126930000Y-88370000D02*
X129930000Y-88370000D01*
X123930000Y-88370000D02*
X126930000Y-88370000D01*
X146410000Y-118426666D02*
X146410000Y-116226666D01*
X146010000Y-118426666D02*
X146410000Y-118426666D01*
X146010000Y-116326666D02*
X146010000Y-118426666D01*
X148900720Y-111726666D02*
G75*
G03X148900720Y-111726666I-2690720J0D01*
G01*
X147710000Y-107726666D02*
X147710000Y-105726666D01*
X144710000Y-107726666D02*
X147710000Y-107726666D01*
X144710000Y-105726666D02*
X144710000Y-107726666D01*
X149372280Y-111726666D02*
G75*
G03X149372280Y-111726666I-3162280J0D01*
G01*
X150710000Y-116226666D02*
X150710000Y-105726666D01*
X146410000Y-116226666D02*
X150710000Y-116226666D01*
X141710000Y-116226666D02*
X146410000Y-116226666D01*
X141710000Y-105726666D02*
X141710000Y-116226666D01*
X147710000Y-105726666D02*
X150710000Y-105726666D01*
X144710000Y-105726666D02*
X147710000Y-105726666D01*
X141710000Y-105726666D02*
X144710000Y-105726666D01*
X128630000Y-118426666D02*
X128630000Y-116226666D01*
X128230000Y-118426666D02*
X128630000Y-118426666D01*
X128230000Y-116326666D02*
X128230000Y-118426666D01*
X131120720Y-111726666D02*
G75*
G03X131120720Y-111726666I-2690720J0D01*
G01*
X129930000Y-107726666D02*
X129930000Y-105726666D01*
X126930000Y-107726666D02*
X129930000Y-107726666D01*
X126930000Y-105726666D02*
X126930000Y-107726666D01*
X131592280Y-111726666D02*
G75*
G03X131592280Y-111726666I-3162280J0D01*
G01*
X132930000Y-116226666D02*
X132930000Y-105726666D01*
X128630000Y-116226666D02*
X132930000Y-116226666D01*
X123930000Y-116226666D02*
X128630000Y-116226666D01*
X123930000Y-105726666D02*
X123930000Y-116226666D01*
X129930000Y-105726666D02*
X132930000Y-105726666D01*
X126930000Y-105726666D02*
X129930000Y-105726666D01*
X123930000Y-105726666D02*
X126930000Y-105726666D01*
X146410000Y-135783332D02*
X146410000Y-133583332D01*
X146010000Y-135783332D02*
X146410000Y-135783332D01*
X146010000Y-133683332D02*
X146010000Y-135783332D01*
X148900720Y-129083332D02*
G75*
G03X148900720Y-129083332I-2690720J0D01*
G01*
X147710000Y-125083332D02*
X147710000Y-123083332D01*
X144710000Y-125083332D02*
X147710000Y-125083332D01*
X144710000Y-123083332D02*
X144710000Y-125083332D01*
X149372280Y-129083332D02*
G75*
G03X149372280Y-129083332I-3162280J0D01*
G01*
X150710000Y-133583332D02*
X150710000Y-123083332D01*
X146410000Y-133583332D02*
X150710000Y-133583332D01*
X141710000Y-133583332D02*
X146410000Y-133583332D01*
X141710000Y-123083332D02*
X141710000Y-133583332D01*
X147710000Y-123083332D02*
X150710000Y-123083332D01*
X144710000Y-123083332D02*
X147710000Y-123083332D01*
X141710000Y-123083332D02*
X144710000Y-123083332D01*
X128630000Y-135783332D02*
X128630000Y-133583332D01*
X128230000Y-135783332D02*
X128630000Y-135783332D01*
X128230000Y-133683332D02*
X128230000Y-135783332D01*
X131120720Y-129083332D02*
G75*
G03X131120720Y-129083332I-2690720J0D01*
G01*
X129930000Y-125083332D02*
X129930000Y-123083332D01*
X126930000Y-125083332D02*
X129930000Y-125083332D01*
X126930000Y-123083332D02*
X126930000Y-125083332D01*
X131592280Y-129083332D02*
G75*
G03X131592280Y-129083332I-3162280J0D01*
G01*
X132930000Y-133583332D02*
X132930000Y-123083332D01*
X128630000Y-133583332D02*
X132930000Y-133583332D01*
X123930000Y-133583332D02*
X128630000Y-133583332D01*
X123930000Y-123083332D02*
X123930000Y-133583332D01*
X129930000Y-123083332D02*
X132930000Y-123083332D01*
X126930000Y-123083332D02*
X129930000Y-123083332D01*
X123930000Y-123083332D02*
X126930000Y-123083332D01*
X128630000Y-153140000D02*
X128630000Y-150940000D01*
X128230000Y-153140000D02*
X128630000Y-153140000D01*
X128230000Y-151040000D02*
X128230000Y-153140000D01*
X131120720Y-146440000D02*
G75*
G03X131120720Y-146440000I-2690720J0D01*
G01*
X129930000Y-142440000D02*
X129930000Y-140440000D01*
X126930000Y-142440000D02*
X129930000Y-142440000D01*
X126930000Y-140440000D02*
X126930000Y-142440000D01*
X131592280Y-146440000D02*
G75*
G03X131592280Y-146440000I-3162280J0D01*
G01*
X132930000Y-150940000D02*
X132930000Y-140440000D01*
X128630000Y-150940000D02*
X132930000Y-150940000D01*
X123930000Y-150940000D02*
X128630000Y-150940000D01*
X123930000Y-140440000D02*
X123930000Y-150940000D01*
X129930000Y-140440000D02*
X132930000Y-140440000D01*
X126930000Y-140440000D02*
X129930000Y-140440000D01*
X123930000Y-140440000D02*
X126930000Y-140440000D01*
D12*
X121394200Y-107124600D02*
X121394200Y-108394600D01*
X121394200Y-108394600D02*
X120759200Y-109029600D01*
X119489200Y-109029600D02*
X118854200Y-108394600D01*
X120759200Y-103949600D02*
X121394200Y-104584600D01*
X121394200Y-104584600D02*
X121394200Y-105854600D01*
X121394200Y-105854600D02*
X120759200Y-106489600D01*
X119489200Y-106489600D02*
X118854200Y-105854600D01*
X118854200Y-105854600D02*
X118854200Y-104584600D01*
X118854200Y-104584600D02*
X119489200Y-103949600D01*
X121394200Y-107124600D02*
X120759200Y-106489600D01*
X119489200Y-106489600D02*
X118854200Y-107124600D01*
X118854200Y-108394600D02*
X118854200Y-107124600D01*
X121394200Y-99504600D02*
X121394200Y-100774600D01*
X121394200Y-100774600D02*
X120759200Y-101409600D01*
X119489200Y-101409600D02*
X118854200Y-100774600D01*
X120759200Y-101409600D02*
X121394200Y-102044600D01*
X121394200Y-102044600D02*
X121394200Y-103314600D01*
X121394200Y-103314600D02*
X120759200Y-103949600D01*
X119489200Y-103949600D02*
X118854200Y-103314600D01*
X118854200Y-103314600D02*
X118854200Y-102044600D01*
X118854200Y-102044600D02*
X119489200Y-101409600D01*
X120759200Y-96329600D02*
X121394200Y-96964600D01*
X121394200Y-96964600D02*
X121394200Y-98234600D01*
X121394200Y-98234600D02*
X120759200Y-98869600D01*
X119489200Y-98869600D02*
X118854200Y-98234600D01*
X118854200Y-98234600D02*
X118854200Y-96964600D01*
X118854200Y-96964600D02*
X119489200Y-96329600D01*
X121394200Y-99504600D02*
X120759200Y-98869600D01*
X119489200Y-98869600D02*
X118854200Y-99504600D01*
X118854200Y-100774600D02*
X118854200Y-99504600D01*
X121394200Y-91884600D02*
X121394200Y-93154600D01*
X121394200Y-93154600D02*
X120759200Y-93789600D01*
X119489200Y-93789600D02*
X118854200Y-93154600D01*
X120759200Y-93789600D02*
X121394200Y-94424600D01*
X121394200Y-94424600D02*
X121394200Y-95694600D01*
X121394200Y-95694600D02*
X120759200Y-96329600D01*
X119489200Y-96329600D02*
X118854200Y-95694600D01*
X118854200Y-95694600D02*
X118854200Y-94424600D01*
X118854200Y-94424600D02*
X119489200Y-93789600D01*
X120759200Y-91249600D02*
X119489200Y-91249600D01*
X121394200Y-91884600D02*
X120759200Y-91249600D01*
X119489200Y-91249600D02*
X118854200Y-91884600D01*
X118854200Y-93154600D02*
X118854200Y-91884600D01*
X121394200Y-109664600D02*
X121394200Y-110934600D01*
X121394200Y-110934600D02*
X120759200Y-111569600D01*
X119489200Y-111569600D02*
X118854200Y-110934600D01*
X121394200Y-109664600D02*
X120759200Y-109029600D01*
X119489200Y-109029600D02*
X118854200Y-109664600D01*
X118854200Y-110934600D02*
X118854200Y-109664600D01*
X121394200Y-112204600D02*
X121394200Y-113474600D01*
X121394200Y-113474600D02*
X120759200Y-114109600D01*
X119489200Y-114109600D02*
X118854200Y-113474600D01*
X121394200Y-112204600D02*
X120759200Y-111569600D01*
X119489200Y-111569600D02*
X118854200Y-112204600D01*
X118854200Y-113474600D02*
X118854200Y-112204600D01*
X121394200Y-114744600D02*
X121394200Y-116014600D01*
X121394200Y-116014600D02*
X120759200Y-116649600D01*
X120759200Y-116649600D02*
X119489200Y-116649600D01*
X119489200Y-116649600D02*
X118854200Y-116014600D01*
X121394200Y-114744600D02*
X120759200Y-114109600D01*
X119489200Y-114109600D02*
X118854200Y-114744600D01*
X118854200Y-116014600D02*
X118854200Y-114744600D01*
X155394200Y-107124600D02*
X155394200Y-108394600D01*
X155394200Y-108394600D02*
X154759200Y-109029600D01*
X153489200Y-109029600D02*
X152854200Y-108394600D01*
X154759200Y-103949600D02*
X155394200Y-104584600D01*
X155394200Y-104584600D02*
X155394200Y-105854600D01*
X155394200Y-105854600D02*
X154759200Y-106489600D01*
X153489200Y-106489600D02*
X152854200Y-105854600D01*
X152854200Y-105854600D02*
X152854200Y-104584600D01*
X152854200Y-104584600D02*
X153489200Y-103949600D01*
X155394200Y-107124600D02*
X154759200Y-106489600D01*
X153489200Y-106489600D02*
X152854200Y-107124600D01*
X152854200Y-108394600D02*
X152854200Y-107124600D01*
X155394200Y-99504600D02*
X155394200Y-100774600D01*
X155394200Y-100774600D02*
X154759200Y-101409600D01*
X153489200Y-101409600D02*
X152854200Y-100774600D01*
X154759200Y-101409600D02*
X155394200Y-102044600D01*
X155394200Y-102044600D02*
X155394200Y-103314600D01*
X155394200Y-103314600D02*
X154759200Y-103949600D01*
X153489200Y-103949600D02*
X152854200Y-103314600D01*
X152854200Y-103314600D02*
X152854200Y-102044600D01*
X152854200Y-102044600D02*
X153489200Y-101409600D01*
X154759200Y-96329600D02*
X155394200Y-96964600D01*
X155394200Y-96964600D02*
X155394200Y-98234600D01*
X155394200Y-98234600D02*
X154759200Y-98869600D01*
X153489200Y-98869600D02*
X152854200Y-98234600D01*
X152854200Y-98234600D02*
X152854200Y-96964600D01*
X152854200Y-96964600D02*
X153489200Y-96329600D01*
X155394200Y-99504600D02*
X154759200Y-98869600D01*
X153489200Y-98869600D02*
X152854200Y-99504600D01*
X152854200Y-100774600D02*
X152854200Y-99504600D01*
X155394200Y-91884600D02*
X155394200Y-93154600D01*
X155394200Y-93154600D02*
X154759200Y-93789600D01*
X153489200Y-93789600D02*
X152854200Y-93154600D01*
X154759200Y-93789600D02*
X155394200Y-94424600D01*
X155394200Y-94424600D02*
X155394200Y-95694600D01*
X155394200Y-95694600D02*
X154759200Y-96329600D01*
X153489200Y-96329600D02*
X152854200Y-95694600D01*
X152854200Y-95694600D02*
X152854200Y-94424600D01*
X152854200Y-94424600D02*
X153489200Y-93789600D01*
X154759200Y-91249600D02*
X153489200Y-91249600D01*
X155394200Y-91884600D02*
X154759200Y-91249600D01*
X153489200Y-91249600D02*
X152854200Y-91884600D01*
X152854200Y-93154600D02*
X152854200Y-91884600D01*
X155394200Y-109664600D02*
X155394200Y-110934600D01*
X155394200Y-110934600D02*
X154759200Y-111569600D01*
X153489200Y-111569600D02*
X152854200Y-110934600D01*
X155394200Y-109664600D02*
X154759200Y-109029600D01*
X153489200Y-109029600D02*
X152854200Y-109664600D01*
X152854200Y-110934600D02*
X152854200Y-109664600D01*
X155394200Y-112204600D02*
X155394200Y-113474600D01*
X155394200Y-113474600D02*
X154759200Y-114109600D01*
X153489200Y-114109600D02*
X152854200Y-113474600D01*
X155394200Y-112204600D02*
X154759200Y-111569600D01*
X153489200Y-111569600D02*
X152854200Y-112204600D01*
X152854200Y-113474600D02*
X152854200Y-112204600D01*
X155394200Y-114744600D02*
X155394200Y-116014600D01*
X155394200Y-116014600D02*
X154759200Y-116649600D01*
X154759200Y-116649600D02*
X153489200Y-116649600D01*
X153489200Y-116649600D02*
X152854200Y-116014600D01*
X155394200Y-114744600D02*
X154759200Y-114109600D01*
X153489200Y-114109600D02*
X152854200Y-114744600D01*
X152854200Y-116014600D02*
X152854200Y-114744600D01*
D10*
X126500000Y-81000000D02*
X126500000Y-76500000D01*
X122500000Y-82250000D02*
X124000000Y-82250000D01*
X120000000Y-76500000D02*
X120000000Y-81000000D01*
X124000000Y-75250000D02*
X122500000Y-75250000D01*
D13*
X136266904Y-74492380D02*
X136266904Y-73492380D01*
X136505000Y-73492380D01*
X136647857Y-73540000D01*
X136743095Y-73635238D01*
X136790714Y-73730476D01*
X136838333Y-73920952D01*
X136838333Y-74063809D01*
X136790714Y-74254285D01*
X136743095Y-74349523D01*
X136647857Y-74444761D01*
X136505000Y-74492380D01*
X136266904Y-74492380D01*
X137790714Y-74492380D02*
X137219285Y-74492380D01*
X137505000Y-74492380D02*
X137505000Y-73492380D01*
X137409761Y-73635238D01*
X137314523Y-73730476D01*
X137219285Y-73778095D01*
X136240476Y-66642380D02*
X136240476Y-67356666D01*
X136192857Y-67499523D01*
X136097619Y-67594761D01*
X135954761Y-67642380D01*
X135859523Y-67642380D01*
X137240476Y-67642380D02*
X136669047Y-67642380D01*
X136954761Y-67642380D02*
X136954761Y-66642380D01*
X136859523Y-66785238D01*
X136764285Y-66880476D01*
X136669047Y-66928095D01*
X138192857Y-67642380D02*
X137621428Y-67642380D01*
X137907142Y-67642380D02*
X137907142Y-66642380D01*
X137811904Y-66785238D01*
X137716666Y-66880476D01*
X137621428Y-66928095D01*
D14*
X140491866Y-147187780D02*
X140491866Y-147902066D01*
X140444247Y-148044923D01*
X140349009Y-148140161D01*
X140206152Y-148187780D01*
X140110914Y-148187780D01*
X141015676Y-148187780D02*
X141206152Y-148187780D01*
X141301390Y-148140161D01*
X141349009Y-148092542D01*
X141444247Y-147949685D01*
X141491866Y-147759209D01*
X141491866Y-147378257D01*
X141444247Y-147283019D01*
X141396628Y-147235400D01*
X141301390Y-147187780D01*
X141110914Y-147187780D01*
X141015676Y-147235400D01*
X140968057Y-147283019D01*
X140920438Y-147378257D01*
X140920438Y-147616352D01*
X140968057Y-147711590D01*
X141015676Y-147759209D01*
X141110914Y-147806828D01*
X141301390Y-147806828D01*
X141396628Y-147759209D01*
X141444247Y-147711590D01*
X141491866Y-147616352D01*
X140491866Y-95117780D02*
X140491866Y-95832066D01*
X140444247Y-95974923D01*
X140349009Y-96070161D01*
X140206152Y-96117780D01*
X140110914Y-96117780D01*
X141491866Y-96117780D02*
X140920438Y-96117780D01*
X141206152Y-96117780D02*
X141206152Y-95117780D01*
X141110914Y-95260638D01*
X141015676Y-95355876D01*
X140920438Y-95403495D01*
X122711866Y-95117780D02*
X122711866Y-95832066D01*
X122664247Y-95974923D01*
X122569009Y-96070161D01*
X122426152Y-96117780D01*
X122330914Y-96117780D01*
X123616628Y-95451114D02*
X123616628Y-96117780D01*
X123378533Y-95070161D02*
X123140438Y-95784447D01*
X123759485Y-95784447D01*
X140491866Y-112474446D02*
X140491866Y-113188732D01*
X140444247Y-113331589D01*
X140349009Y-113426827D01*
X140206152Y-113474446D01*
X140110914Y-113474446D01*
X141444247Y-112474446D02*
X140968057Y-112474446D01*
X140920438Y-112950637D01*
X140968057Y-112903018D01*
X141063295Y-112855399D01*
X141301390Y-112855399D01*
X141396628Y-112903018D01*
X141444247Y-112950637D01*
X141491866Y-113045875D01*
X141491866Y-113283970D01*
X141444247Y-113379208D01*
X141396628Y-113426827D01*
X141301390Y-113474446D01*
X141063295Y-113474446D01*
X140968057Y-113426827D01*
X140920438Y-113379208D01*
X122711866Y-112474446D02*
X122711866Y-113188732D01*
X122664247Y-113331589D01*
X122569009Y-113426827D01*
X122426152Y-113474446D01*
X122330914Y-113474446D01*
X123616628Y-112474446D02*
X123426152Y-112474446D01*
X123330914Y-112522066D01*
X123283295Y-112569685D01*
X123188057Y-112712542D01*
X123140438Y-112903018D01*
X123140438Y-113283970D01*
X123188057Y-113379208D01*
X123235676Y-113426827D01*
X123330914Y-113474446D01*
X123521390Y-113474446D01*
X123616628Y-113426827D01*
X123664247Y-113379208D01*
X123711866Y-113283970D01*
X123711866Y-113045875D01*
X123664247Y-112950637D01*
X123616628Y-112903018D01*
X123521390Y-112855399D01*
X123330914Y-112855399D01*
X123235676Y-112903018D01*
X123188057Y-112950637D01*
X123140438Y-113045875D01*
X140491866Y-129831112D02*
X140491866Y-130545398D01*
X140444247Y-130688255D01*
X140349009Y-130783493D01*
X140206152Y-130831112D01*
X140110914Y-130831112D01*
X140872819Y-129831112D02*
X141539485Y-129831112D01*
X141110914Y-130831112D01*
X122711866Y-129831112D02*
X122711866Y-130545398D01*
X122664247Y-130688255D01*
X122569009Y-130783493D01*
X122426152Y-130831112D01*
X122330914Y-130831112D01*
X123330914Y-130259684D02*
X123235676Y-130212065D01*
X123188057Y-130164446D01*
X123140438Y-130069208D01*
X123140438Y-130021589D01*
X123188057Y-129926351D01*
X123235676Y-129878732D01*
X123330914Y-129831112D01*
X123521390Y-129831112D01*
X123616628Y-129878732D01*
X123664247Y-129926351D01*
X123711866Y-130021589D01*
X123711866Y-130069208D01*
X123664247Y-130164446D01*
X123616628Y-130212065D01*
X123521390Y-130259684D01*
X123330914Y-130259684D01*
X123235676Y-130307303D01*
X123188057Y-130354922D01*
X123140438Y-130450160D01*
X123140438Y-130640636D01*
X123188057Y-130735874D01*
X123235676Y-130783493D01*
X123330914Y-130831112D01*
X123521390Y-130831112D01*
X123616628Y-130783493D01*
X123664247Y-130735874D01*
X123711866Y-130640636D01*
X123711866Y-130450160D01*
X123664247Y-130354922D01*
X123616628Y-130307303D01*
X123521390Y-130259684D01*
X122235676Y-147187780D02*
X122235676Y-147902066D01*
X122188057Y-148044923D01*
X122092819Y-148140161D01*
X121949961Y-148187780D01*
X121854723Y-148187780D01*
X123235676Y-148187780D02*
X122664247Y-148187780D01*
X122949961Y-148187780D02*
X122949961Y-147187780D01*
X122854723Y-147330638D01*
X122759485Y-147425876D01*
X122664247Y-147473495D01*
X123854723Y-147187780D02*
X123949961Y-147187780D01*
X124045200Y-147235400D01*
X124092819Y-147283019D01*
X124140438Y-147378257D01*
X124188057Y-147568733D01*
X124188057Y-147806828D01*
X124140438Y-147997304D01*
X124092819Y-148092542D01*
X124045200Y-148140161D01*
X123949961Y-148187780D01*
X123854723Y-148187780D01*
X123759485Y-148140161D01*
X123711866Y-148092542D01*
X123664247Y-147997304D01*
X123616628Y-147806828D01*
X123616628Y-147568733D01*
X123664247Y-147378257D01*
X123711866Y-147283019D01*
X123759485Y-147235400D01*
X123854723Y-147187780D01*
D13*
X119404761Y-80083333D02*
X119452380Y-79940476D01*
X119452380Y-79702380D01*
X119404761Y-79607142D01*
X119357142Y-79559523D01*
X119261904Y-79511904D01*
X119166666Y-79511904D01*
X119071428Y-79559523D01*
X119023809Y-79607142D01*
X118976190Y-79702380D01*
X118928571Y-79892857D01*
X118880952Y-79988095D01*
X118833333Y-80035714D01*
X118738095Y-80083333D01*
X118642857Y-80083333D01*
X118547619Y-80035714D01*
X118500000Y-79988095D01*
X118452380Y-79892857D01*
X118452380Y-79654761D01*
X118500000Y-79511904D01*
X118452380Y-79178571D02*
X119452380Y-78940476D01*
X118738095Y-78750000D01*
X119452380Y-78559523D01*
X118452380Y-78321428D01*
X119452380Y-77416666D02*
X119452380Y-77988095D01*
X119452380Y-77702380D02*
X118452380Y-77702380D01*
X118595238Y-77797619D01*
X118690476Y-77892857D01*
X118738095Y-77988095D01*
M02*
