M48
INCH,TZ
T1C0.0157
T2C0.0354
T3C0.0362
T4C0.0400
T5C0.0433
T6C0.0906
T7C0.1181
T8C0.1260
%
G90
G05
T1
X46850Y-20472
X46850Y-20866
X46850Y-61024
X46850Y-61417
X47244Y-20472
X47244Y-35433
X47244Y-46457
X47244Y-61417
X49213Y-35433
X59843Y-45276
X60630Y-20472
X60630Y-35433
X60630Y-46457
X60630Y-61417
X61024Y-20472
X61024Y-20866
X61024Y-61024
X61024Y-61417
T2
X53157Y-30709
X53677Y-30709
X54217Y-30709
X54736Y-30709
T3
X53445Y-23185
X53445Y-24445
X54429Y-23185
X54429Y-24445
T4
X47243Y-37425
X47243Y-39425
X47243Y-41425
X47243Y-43425
X47243Y-45425
X47343Y-36425
X47343Y-38425
X47343Y-40425
X47343Y-42425
X47343Y-44425
X60629Y-37425
X60629Y-39425
X60629Y-41425
X60629Y-43425
X60629Y-45425
X60729Y-36425
X60729Y-38425
X60729Y-40425
X60729Y-42425
X60729Y-44425
T5
X50563Y-35185
X50563Y-38531
X50563Y-39713
X57563Y-55685
X57563Y-59031
X57563Y-60213
X50563Y-55685
X50563Y-59031
X50563Y-60213
X57563Y-35185
X57563Y-38531
X57563Y-39713
X57563Y-42018
X57563Y-45365
X57563Y-46546
X57563Y-48852
X57563Y-52198
X57563Y-53379
X47638Y-29724
X47638Y-32283
X49409Y-29724
X49409Y-32283
X50563Y-42018
X50563Y-45365
X50563Y-46546
X50563Y-48852
X50563Y-52198
X50563Y-53379
T6
X51567Y-24252
X56307Y-24252
T7
X50563Y-43987
X50563Y-50820
X50563Y-37154
X57563Y-57654
X50563Y-57654
X57563Y-37154
X57563Y-43987
X57563Y-50820
T8
G00X58661Y-23858
M15
G01X58661Y-24173
M16
G05
G00X49213Y-23858
M15
G01X49213Y-24173
M16
G05
T0
M30
